%TF.GenerationSoftware,KiCad,Pcbnew,10.0.0*%
%TF.CreationDate,2026-04-11T16:25:32+02:00*%
%TF.ProjectId,DisplayBoard,44697370-6c61-4794-926f-6172642e6b69,rev?*%
%TF.SameCoordinates,Original*%
%TF.FileFunction,Soldermask,Top*%
%TF.FilePolarity,Negative*%
%FSLAX46Y46*%
G04 Gerber Fmt 4.6, Leading zero omitted, Abs format (unit mm)*
G04 Created by KiCad (PCBNEW 10.0.0) date 2026-04-11 16:25:32*
%MOMM*%
%LPD*%
G01*
G04 APERTURE LIST*
G04 Aperture macros list*
%AMRoundRect*
0 Rectangle with rounded corners*
0 $1 Rounding radius*
0 $2 $3 $4 $5 $6 $7 $8 $9 X,Y pos of 4 corners*
0 Add a 4 corners polygon primitive as box body*
4,1,4,$2,$3,$4,$5,$6,$7,$8,$9,$2,$3,0*
0 Add four circle primitives for the rounded corners*
1,1,$1+$1,$2,$3*
1,1,$1+$1,$4,$5*
1,1,$1+$1,$6,$7*
1,1,$1+$1,$8,$9*
0 Add four rect primitives between the rounded corners*
20,1,$1+$1,$2,$3,$4,$5,0*
20,1,$1+$1,$4,$5,$6,$7,0*
20,1,$1+$1,$6,$7,$8,$9,0*
20,1,$1+$1,$8,$9,$2,$3,0*%
%AMFreePoly0*
4,1,23,0.500000,-0.750000,0.000000,-0.750000,0.000000,-0.745722,-0.065263,-0.745722,-0.191342,-0.711940,-0.304381,-0.646677,-0.396677,-0.554381,-0.461940,-0.441342,-0.495722,-0.315263,-0.495722,-0.250000,-0.500000,-0.250000,-0.500000,0.250000,-0.495722,0.250000,-0.495722,0.315263,-0.461940,0.441342,-0.396677,0.554381,-0.304381,0.646677,-0.191342,0.711940,-0.065263,0.745722,0.000000,0.745722,
0.000000,0.750000,0.500000,0.750000,0.500000,-0.750000,0.500000,-0.750000,$1*%
%AMFreePoly1*
4,1,23,0.000000,0.745722,0.065263,0.745722,0.191342,0.711940,0.304381,0.646677,0.396677,0.554381,0.461940,0.441342,0.495722,0.315263,0.495722,0.250000,0.500000,0.250000,0.500000,-0.250000,0.495722,-0.250000,0.495722,-0.315263,0.461940,-0.441342,0.396677,-0.554381,0.304381,-0.646677,0.191342,-0.711940,0.065263,-0.745722,0.000000,-0.745722,0.000000,-0.750000,-0.500000,-0.750000,
-0.500000,0.750000,0.000000,0.750000,0.000000,0.745722,0.000000,0.745722,$1*%
G04 Aperture macros list end*
%ADD10C,0.010000*%
%ADD11FreePoly0,0.000000*%
%ADD12FreePoly1,0.000000*%
%ADD13RoundRect,0.200000X-0.200000X-0.275000X0.200000X-0.275000X0.200000X0.275000X-0.200000X0.275000X0*%
%ADD14RoundRect,0.225000X0.225000X0.250000X-0.225000X0.250000X-0.225000X-0.250000X0.225000X-0.250000X0*%
%ADD15RoundRect,0.150000X0.150000X-0.587500X0.150000X0.587500X-0.150000X0.587500X-0.150000X-0.587500X0*%
%ADD16RoundRect,0.200000X0.275000X-0.200000X0.275000X0.200000X-0.275000X0.200000X-0.275000X-0.200000X0*%
%ADD17RoundRect,0.250000X-0.475000X0.250000X-0.475000X-0.250000X0.475000X-0.250000X0.475000X0.250000X0*%
%ADD18RoundRect,0.250000X0.250000X0.475000X-0.250000X0.475000X-0.250000X-0.475000X0.250000X-0.475000X0*%
%ADD19RoundRect,0.218750X0.256250X-0.218750X0.256250X0.218750X-0.256250X0.218750X-0.256250X-0.218750X0*%
%ADD20RoundRect,0.250000X-0.250000X-0.475000X0.250000X-0.475000X0.250000X0.475000X-0.250000X0.475000X0*%
%ADD21RoundRect,0.157500X0.842500X-0.367500X0.842500X0.367500X-0.842500X0.367500X-0.842500X-0.367500X0*%
%ADD22RoundRect,0.135000X0.540000X0.315000X-0.540000X0.315000X-0.540000X-0.315000X0.540000X-0.315000X0*%
%ADD23O,2.304000X1.204000*%
%ADD24O,2.004000X1.204000*%
%ADD25RoundRect,0.200000X0.200000X0.275000X-0.200000X0.275000X-0.200000X-0.275000X0.200000X-0.275000X0*%
%ADD26RoundRect,0.150000X0.512500X0.150000X-0.512500X0.150000X-0.512500X-0.150000X0.512500X-0.150000X0*%
%ADD27R,1.500000X1.000000*%
%ADD28RoundRect,0.250000X0.450000X-0.262500X0.450000X0.262500X-0.450000X0.262500X-0.450000X-0.262500X0*%
%ADD29RoundRect,0.250000X0.475000X-0.250000X0.475000X0.250000X-0.475000X0.250000X-0.475000X-0.250000X0*%
%ADD30RoundRect,0.200000X-0.275000X0.200000X-0.275000X-0.200000X0.275000X-0.200000X0.275000X0.200000X0*%
%ADD31RoundRect,0.150000X0.587500X0.150000X-0.587500X0.150000X-0.587500X-0.150000X0.587500X-0.150000X0*%
%ADD32RoundRect,0.375000X-0.375000X0.625000X-0.375000X-0.625000X0.375000X-0.625000X0.375000X0.625000X0*%
%ADD33RoundRect,0.500000X-1.400000X0.500000X-1.400000X-0.500000X1.400000X-0.500000X1.400000X0.500000X0*%
%ADD34RoundRect,0.150000X0.350000X-0.375000X0.350000X0.375000X-0.350000X0.375000X-0.350000X-0.375000X0*%
%ADD35RoundRect,0.157500X0.942500X-0.367500X0.942500X0.367500X-0.942500X0.367500X-0.942500X-0.367500X0*%
%ADD36RoundRect,0.218750X-0.256250X0.218750X-0.256250X-0.218750X0.256250X-0.218750X0.256250X0.218750X0*%
%ADD37RoundRect,0.102000X2.000000X-2.000000X2.000000X2.000000X-2.000000X2.000000X-2.000000X-2.000000X0*%
%ADD38RoundRect,0.150000X0.150000X-0.825000X0.150000X0.825000X-0.150000X0.825000X-0.150000X-0.825000X0*%
%ADD39RoundRect,0.250000X-2.500000X0.250000X-2.500000X-0.250000X2.500000X-0.250000X2.500000X0.250000X0*%
%ADD40RoundRect,0.250000X-1.250000X0.550000X-1.250000X-0.550000X1.250000X-0.550000X1.250000X0.550000X0*%
G04 APERTURE END LIST*
%TO.C,JP2*%
G36*
X143400000Y-124800000D02*
G01*
X143700000Y-124800000D01*
X143700000Y-126300000D01*
X143400000Y-126300000D01*
X143400000Y-124800000D01*
G37*
D10*
%TO.C,USBC1*%
X151820000Y-114800000D02*
X149770000Y-114800000D01*
X149770000Y-114100000D01*
X151820000Y-114100000D01*
X151820000Y-114800000D01*
G36*
X151820000Y-114800000D02*
G01*
X149770000Y-114800000D01*
X149770000Y-114100000D01*
X151820000Y-114100000D01*
X151820000Y-114800000D01*
G37*
X151820000Y-115600000D02*
X149770000Y-115600000D01*
X149770000Y-114900000D01*
X151820000Y-114900000D01*
X151820000Y-115600000D01*
G36*
X151820000Y-115600000D02*
G01*
X149770000Y-115600000D01*
X149770000Y-114900000D01*
X151820000Y-114900000D01*
X151820000Y-115600000D01*
G37*
X151820000Y-116100000D02*
X149770000Y-116100000D01*
X149770000Y-115700000D01*
X151820000Y-115700000D01*
X151820000Y-116100000D01*
G36*
X151820000Y-116100000D02*
G01*
X149770000Y-116100000D01*
X149770000Y-115700000D01*
X151820000Y-115700000D01*
X151820000Y-116100000D01*
G37*
X151820000Y-116600000D02*
X149770000Y-116600000D01*
X149770000Y-116200000D01*
X151820000Y-116200000D01*
X151820000Y-116600000D01*
G36*
X151820000Y-116600000D02*
G01*
X149770000Y-116600000D01*
X149770000Y-116200000D01*
X151820000Y-116200000D01*
X151820000Y-116600000D01*
G37*
X151820000Y-117100000D02*
X149770000Y-117100000D01*
X149770000Y-116700000D01*
X151820000Y-116700000D01*
X151820000Y-117100000D01*
G36*
X151820000Y-117100000D02*
G01*
X149770000Y-117100000D01*
X149770000Y-116700000D01*
X151820000Y-116700000D01*
X151820000Y-117100000D01*
G37*
X151820000Y-117600000D02*
X149770000Y-117600000D01*
X149770000Y-117200000D01*
X151820000Y-117200000D01*
X151820000Y-117600000D01*
G36*
X151820000Y-117600000D02*
G01*
X149770000Y-117600000D01*
X149770000Y-117200000D01*
X151820000Y-117200000D01*
X151820000Y-117600000D01*
G37*
X151820000Y-118100000D02*
X149770000Y-118100000D01*
X149770000Y-117700000D01*
X151820000Y-117700000D01*
X151820000Y-118100000D01*
G36*
X151820000Y-118100000D02*
G01*
X149770000Y-118100000D01*
X149770000Y-117700000D01*
X151820000Y-117700000D01*
X151820000Y-118100000D01*
G37*
X151820000Y-118600000D02*
X149770000Y-118600000D01*
X149770000Y-118200000D01*
X151820000Y-118200000D01*
X151820000Y-118600000D01*
G36*
X151820000Y-118600000D02*
G01*
X149770000Y-118600000D01*
X149770000Y-118200000D01*
X151820000Y-118200000D01*
X151820000Y-118600000D01*
G37*
X151820000Y-119100000D02*
X149770000Y-119100000D01*
X149770000Y-118700000D01*
X151820000Y-118700000D01*
X151820000Y-119100000D01*
G36*
X151820000Y-119100000D02*
G01*
X149770000Y-119100000D01*
X149770000Y-118700000D01*
X151820000Y-118700000D01*
X151820000Y-119100000D01*
G37*
X151820000Y-119600000D02*
X149770000Y-119600000D01*
X149770000Y-119200000D01*
X151820000Y-119200000D01*
X151820000Y-119600000D01*
G36*
X151820000Y-119600000D02*
G01*
X149770000Y-119600000D01*
X149770000Y-119200000D01*
X151820000Y-119200000D01*
X151820000Y-119600000D01*
G37*
X151820000Y-120400000D02*
X149770000Y-120400000D01*
X149770000Y-119700000D01*
X151820000Y-119700000D01*
X151820000Y-120400000D01*
G36*
X151820000Y-120400000D02*
G01*
X149770000Y-120400000D01*
X149770000Y-119700000D01*
X151820000Y-119700000D01*
X151820000Y-120400000D01*
G37*
X151820000Y-121200000D02*
X149770000Y-121200000D01*
X149770000Y-120500000D01*
X151820000Y-120500000D01*
X151820000Y-121200000D01*
G36*
X151820000Y-121200000D02*
G01*
X149770000Y-121200000D01*
X149770000Y-120500000D01*
X151820000Y-120500000D01*
X151820000Y-121200000D01*
G37*
%TO.C,JP1*%
G36*
X139750000Y-126940000D02*
G01*
X141250000Y-126940000D01*
X141250000Y-127240000D01*
X139750000Y-127240000D01*
X139750000Y-126940000D01*
G37*
%TO.C,U1*%
X128260000Y-120650000D02*
X127690000Y-120650000D01*
X127690000Y-120300000D01*
X128260000Y-120300000D01*
X128260000Y-120650000D01*
G36*
X128260000Y-120650000D02*
G01*
X127690000Y-120650000D01*
X127690000Y-120300000D01*
X128260000Y-120300000D01*
X128260000Y-120650000D01*
G37*
X128260000Y-121050000D02*
X127690000Y-121050000D01*
X127690000Y-120700000D01*
X128260000Y-120700000D01*
X128260000Y-121050000D01*
G36*
X128260000Y-121050000D02*
G01*
X127690000Y-121050000D01*
X127690000Y-120700000D01*
X128260000Y-120700000D01*
X128260000Y-121050000D01*
G37*
X128260000Y-121450000D02*
X127690000Y-121450000D01*
X127690000Y-121100000D01*
X128260000Y-121100000D01*
X128260000Y-121450000D01*
G36*
X128260000Y-121450000D02*
G01*
X127690000Y-121450000D01*
X127690000Y-121100000D01*
X128260000Y-121100000D01*
X128260000Y-121450000D01*
G37*
X128260000Y-121850000D02*
X127690000Y-121850000D01*
X127690000Y-121500000D01*
X128260000Y-121500000D01*
X128260000Y-121850000D01*
G36*
X128260000Y-121850000D02*
G01*
X127690000Y-121850000D01*
X127690000Y-121500000D01*
X128260000Y-121500000D01*
X128260000Y-121850000D01*
G37*
X128260000Y-122250000D02*
X127690000Y-122250000D01*
X127690000Y-121900000D01*
X128260000Y-121900000D01*
X128260000Y-122250000D01*
G36*
X128260000Y-122250000D02*
G01*
X127690000Y-122250000D01*
X127690000Y-121900000D01*
X128260000Y-121900000D01*
X128260000Y-122250000D01*
G37*
X128260000Y-122650000D02*
X127690000Y-122650000D01*
X127690000Y-122300000D01*
X128260000Y-122300000D01*
X128260000Y-122650000D01*
G36*
X128260000Y-122650000D02*
G01*
X127690000Y-122650000D01*
X127690000Y-122300000D01*
X128260000Y-122300000D01*
X128260000Y-122650000D01*
G37*
X128260000Y-123050000D02*
X127690000Y-123050000D01*
X127690000Y-122700000D01*
X128260000Y-122700000D01*
X128260000Y-123050000D01*
G36*
X128260000Y-123050000D02*
G01*
X127690000Y-123050000D01*
X127690000Y-122700000D01*
X128260000Y-122700000D01*
X128260000Y-123050000D01*
G37*
X128260000Y-123450000D02*
X127690000Y-123450000D01*
X127690000Y-123100000D01*
X128260000Y-123100000D01*
X128260000Y-123450000D01*
G36*
X128260000Y-123450000D02*
G01*
X127690000Y-123450000D01*
X127690000Y-123100000D01*
X128260000Y-123100000D01*
X128260000Y-123450000D01*
G37*
X128260000Y-123850000D02*
X127690000Y-123850000D01*
X127690000Y-123500000D01*
X128260000Y-123500000D01*
X128260000Y-123850000D01*
G36*
X128260000Y-123850000D02*
G01*
X127690000Y-123850000D01*
X127690000Y-123500000D01*
X128260000Y-123500000D01*
X128260000Y-123850000D01*
G37*
X128260000Y-124250000D02*
X127690000Y-124250000D01*
X127690000Y-123900000D01*
X128260000Y-123900000D01*
X128260000Y-124250000D01*
G36*
X128260000Y-124250000D02*
G01*
X127690000Y-124250000D01*
X127690000Y-123900000D01*
X128260000Y-123900000D01*
X128260000Y-124250000D01*
G37*
X128260000Y-124650000D02*
X127690000Y-124650000D01*
X127690000Y-124300000D01*
X128260000Y-124300000D01*
X128260000Y-124650000D01*
G36*
X128260000Y-124650000D02*
G01*
X127690000Y-124650000D01*
X127690000Y-124300000D01*
X128260000Y-124300000D01*
X128260000Y-124650000D01*
G37*
X128260000Y-125050000D02*
X127690000Y-125050000D01*
X127690000Y-124700000D01*
X128260000Y-124700000D01*
X128260000Y-125050000D01*
G36*
X128260000Y-125050000D02*
G01*
X127690000Y-125050000D01*
X127690000Y-124700000D01*
X128260000Y-124700000D01*
X128260000Y-125050000D01*
G37*
X128260000Y-125450000D02*
X127690000Y-125450000D01*
X127690000Y-125100000D01*
X128260000Y-125100000D01*
X128260000Y-125450000D01*
G36*
X128260000Y-125450000D02*
G01*
X127690000Y-125450000D01*
X127690000Y-125100000D01*
X128260000Y-125100000D01*
X128260000Y-125450000D01*
G37*
X128260000Y-125850000D02*
X127690000Y-125850000D01*
X127690000Y-125500000D01*
X128260000Y-125500000D01*
X128260000Y-125850000D01*
G36*
X128260000Y-125850000D02*
G01*
X127690000Y-125850000D01*
X127690000Y-125500000D01*
X128260000Y-125500000D01*
X128260000Y-125850000D01*
G37*
X128775000Y-120135000D02*
X128425000Y-120135000D01*
X128425000Y-119565000D01*
X128775000Y-119565000D01*
X128775000Y-120135000D01*
G36*
X128775000Y-120135000D02*
G01*
X128425000Y-120135000D01*
X128425000Y-119565000D01*
X128775000Y-119565000D01*
X128775000Y-120135000D01*
G37*
X128775000Y-126585000D02*
X128425000Y-126585000D01*
X128425000Y-126015000D01*
X128775000Y-126015000D01*
X128775000Y-126585000D01*
G36*
X128775000Y-126585000D02*
G01*
X128425000Y-126585000D01*
X128425000Y-126015000D01*
X128775000Y-126015000D01*
X128775000Y-126585000D01*
G37*
X129175000Y-120135000D02*
X128825000Y-120135000D01*
X128825000Y-119565000D01*
X129175000Y-119565000D01*
X129175000Y-120135000D01*
G36*
X129175000Y-120135000D02*
G01*
X128825000Y-120135000D01*
X128825000Y-119565000D01*
X129175000Y-119565000D01*
X129175000Y-120135000D01*
G37*
X129175000Y-126585000D02*
X128825000Y-126585000D01*
X128825000Y-126015000D01*
X129175000Y-126015000D01*
X129175000Y-126585000D01*
G36*
X129175000Y-126585000D02*
G01*
X128825000Y-126585000D01*
X128825000Y-126015000D01*
X129175000Y-126015000D01*
X129175000Y-126585000D01*
G37*
X129575000Y-120135000D02*
X129225000Y-120135000D01*
X129225000Y-119565000D01*
X129575000Y-119565000D01*
X129575000Y-120135000D01*
G36*
X129575000Y-120135000D02*
G01*
X129225000Y-120135000D01*
X129225000Y-119565000D01*
X129575000Y-119565000D01*
X129575000Y-120135000D01*
G37*
X129575000Y-126585000D02*
X129225000Y-126585000D01*
X129225000Y-126015000D01*
X129575000Y-126015000D01*
X129575000Y-126585000D01*
G36*
X129575000Y-126585000D02*
G01*
X129225000Y-126585000D01*
X129225000Y-126015000D01*
X129575000Y-126015000D01*
X129575000Y-126585000D01*
G37*
X129975000Y-120135000D02*
X129625000Y-120135000D01*
X129625000Y-119565000D01*
X129975000Y-119565000D01*
X129975000Y-120135000D01*
G36*
X129975000Y-120135000D02*
G01*
X129625000Y-120135000D01*
X129625000Y-119565000D01*
X129975000Y-119565000D01*
X129975000Y-120135000D01*
G37*
X129975000Y-126585000D02*
X129625000Y-126585000D01*
X129625000Y-126015000D01*
X129975000Y-126015000D01*
X129975000Y-126585000D01*
G36*
X129975000Y-126585000D02*
G01*
X129625000Y-126585000D01*
X129625000Y-126015000D01*
X129975000Y-126015000D01*
X129975000Y-126585000D01*
G37*
X130375000Y-120135000D02*
X130025000Y-120135000D01*
X130025000Y-119565000D01*
X130375000Y-119565000D01*
X130375000Y-120135000D01*
G36*
X130375000Y-120135000D02*
G01*
X130025000Y-120135000D01*
X130025000Y-119565000D01*
X130375000Y-119565000D01*
X130375000Y-120135000D01*
G37*
X130375000Y-126585000D02*
X130025000Y-126585000D01*
X130025000Y-126015000D01*
X130375000Y-126015000D01*
X130375000Y-126585000D01*
G36*
X130375000Y-126585000D02*
G01*
X130025000Y-126585000D01*
X130025000Y-126015000D01*
X130375000Y-126015000D01*
X130375000Y-126585000D01*
G37*
X130775000Y-120135000D02*
X130425000Y-120135000D01*
X130425000Y-119565000D01*
X130775000Y-119565000D01*
X130775000Y-120135000D01*
G36*
X130775000Y-120135000D02*
G01*
X130425000Y-120135000D01*
X130425000Y-119565000D01*
X130775000Y-119565000D01*
X130775000Y-120135000D01*
G37*
X130775000Y-126585000D02*
X130425000Y-126585000D01*
X130425000Y-126015000D01*
X130775000Y-126015000D01*
X130775000Y-126585000D01*
G36*
X130775000Y-126585000D02*
G01*
X130425000Y-126585000D01*
X130425000Y-126015000D01*
X130775000Y-126015000D01*
X130775000Y-126585000D01*
G37*
X131175000Y-120135000D02*
X130825000Y-120135000D01*
X130825000Y-119565000D01*
X131175000Y-119565000D01*
X131175000Y-120135000D01*
G36*
X131175000Y-120135000D02*
G01*
X130825000Y-120135000D01*
X130825000Y-119565000D01*
X131175000Y-119565000D01*
X131175000Y-120135000D01*
G37*
X131175000Y-126585000D02*
X130825000Y-126585000D01*
X130825000Y-126015000D01*
X131175000Y-126015000D01*
X131175000Y-126585000D01*
G36*
X131175000Y-126585000D02*
G01*
X130825000Y-126585000D01*
X130825000Y-126015000D01*
X131175000Y-126015000D01*
X131175000Y-126585000D01*
G37*
X131575000Y-120135000D02*
X131225000Y-120135000D01*
X131225000Y-119565000D01*
X131575000Y-119565000D01*
X131575000Y-120135000D01*
G36*
X131575000Y-120135000D02*
G01*
X131225000Y-120135000D01*
X131225000Y-119565000D01*
X131575000Y-119565000D01*
X131575000Y-120135000D01*
G37*
X131575000Y-126585000D02*
X131225000Y-126585000D01*
X131225000Y-126015000D01*
X131575000Y-126015000D01*
X131575000Y-126585000D01*
G36*
X131575000Y-126585000D02*
G01*
X131225000Y-126585000D01*
X131225000Y-126015000D01*
X131575000Y-126015000D01*
X131575000Y-126585000D01*
G37*
X131975000Y-120135000D02*
X131625000Y-120135000D01*
X131625000Y-119565000D01*
X131975000Y-119565000D01*
X131975000Y-120135000D01*
G36*
X131975000Y-120135000D02*
G01*
X131625000Y-120135000D01*
X131625000Y-119565000D01*
X131975000Y-119565000D01*
X131975000Y-120135000D01*
G37*
X131975000Y-126585000D02*
X131625000Y-126585000D01*
X131625000Y-126015000D01*
X131975000Y-126015000D01*
X131975000Y-126585000D01*
G36*
X131975000Y-126585000D02*
G01*
X131625000Y-126585000D01*
X131625000Y-126015000D01*
X131975000Y-126015000D01*
X131975000Y-126585000D01*
G37*
X132375000Y-120135000D02*
X132025000Y-120135000D01*
X132025000Y-119565000D01*
X132375000Y-119565000D01*
X132375000Y-120135000D01*
G36*
X132375000Y-120135000D02*
G01*
X132025000Y-120135000D01*
X132025000Y-119565000D01*
X132375000Y-119565000D01*
X132375000Y-120135000D01*
G37*
X132375000Y-126585000D02*
X132025000Y-126585000D01*
X132025000Y-126015000D01*
X132375000Y-126015000D01*
X132375000Y-126585000D01*
G36*
X132375000Y-126585000D02*
G01*
X132025000Y-126585000D01*
X132025000Y-126015000D01*
X132375000Y-126015000D01*
X132375000Y-126585000D01*
G37*
X132775000Y-120135000D02*
X132425000Y-120135000D01*
X132425000Y-119565000D01*
X132775000Y-119565000D01*
X132775000Y-120135000D01*
G36*
X132775000Y-120135000D02*
G01*
X132425000Y-120135000D01*
X132425000Y-119565000D01*
X132775000Y-119565000D01*
X132775000Y-120135000D01*
G37*
X132775000Y-126585000D02*
X132425000Y-126585000D01*
X132425000Y-126015000D01*
X132775000Y-126015000D01*
X132775000Y-126585000D01*
G36*
X132775000Y-126585000D02*
G01*
X132425000Y-126585000D01*
X132425000Y-126015000D01*
X132775000Y-126015000D01*
X132775000Y-126585000D01*
G37*
X133175000Y-120135000D02*
X132825000Y-120135000D01*
X132825000Y-119565000D01*
X133175000Y-119565000D01*
X133175000Y-120135000D01*
G36*
X133175000Y-120135000D02*
G01*
X132825000Y-120135000D01*
X132825000Y-119565000D01*
X133175000Y-119565000D01*
X133175000Y-120135000D01*
G37*
X133175000Y-126585000D02*
X132825000Y-126585000D01*
X132825000Y-126015000D01*
X133175000Y-126015000D01*
X133175000Y-126585000D01*
G36*
X133175000Y-126585000D02*
G01*
X132825000Y-126585000D01*
X132825000Y-126015000D01*
X133175000Y-126015000D01*
X133175000Y-126585000D01*
G37*
X133575000Y-120135000D02*
X133225000Y-120135000D01*
X133225000Y-119565000D01*
X133575000Y-119565000D01*
X133575000Y-120135000D01*
G36*
X133575000Y-120135000D02*
G01*
X133225000Y-120135000D01*
X133225000Y-119565000D01*
X133575000Y-119565000D01*
X133575000Y-120135000D01*
G37*
X133575000Y-126585000D02*
X133225000Y-126585000D01*
X133225000Y-126015000D01*
X133575000Y-126015000D01*
X133575000Y-126585000D01*
G36*
X133575000Y-126585000D02*
G01*
X133225000Y-126585000D01*
X133225000Y-126015000D01*
X133575000Y-126015000D01*
X133575000Y-126585000D01*
G37*
X133975000Y-120135000D02*
X133625000Y-120135000D01*
X133625000Y-119565000D01*
X133975000Y-119565000D01*
X133975000Y-120135000D01*
G36*
X133975000Y-120135000D02*
G01*
X133625000Y-120135000D01*
X133625000Y-119565000D01*
X133975000Y-119565000D01*
X133975000Y-120135000D01*
G37*
X133975000Y-126585000D02*
X133625000Y-126585000D01*
X133625000Y-126015000D01*
X133975000Y-126015000D01*
X133975000Y-126585000D01*
G36*
X133975000Y-126585000D02*
G01*
X133625000Y-126585000D01*
X133625000Y-126015000D01*
X133975000Y-126015000D01*
X133975000Y-126585000D01*
G37*
X134710000Y-120650000D02*
X134140000Y-120650000D01*
X134140000Y-120300000D01*
X134710000Y-120300000D01*
X134710000Y-120650000D01*
G36*
X134710000Y-120650000D02*
G01*
X134140000Y-120650000D01*
X134140000Y-120300000D01*
X134710000Y-120300000D01*
X134710000Y-120650000D01*
G37*
X134710000Y-121050000D02*
X134140000Y-121050000D01*
X134140000Y-120700000D01*
X134710000Y-120700000D01*
X134710000Y-121050000D01*
G36*
X134710000Y-121050000D02*
G01*
X134140000Y-121050000D01*
X134140000Y-120700000D01*
X134710000Y-120700000D01*
X134710000Y-121050000D01*
G37*
X134710000Y-121450000D02*
X134140000Y-121450000D01*
X134140000Y-121100000D01*
X134710000Y-121100000D01*
X134710000Y-121450000D01*
G36*
X134710000Y-121450000D02*
G01*
X134140000Y-121450000D01*
X134140000Y-121100000D01*
X134710000Y-121100000D01*
X134710000Y-121450000D01*
G37*
X134710000Y-121850000D02*
X134140000Y-121850000D01*
X134140000Y-121500000D01*
X134710000Y-121500000D01*
X134710000Y-121850000D01*
G36*
X134710000Y-121850000D02*
G01*
X134140000Y-121850000D01*
X134140000Y-121500000D01*
X134710000Y-121500000D01*
X134710000Y-121850000D01*
G37*
X134710000Y-122250000D02*
X134140000Y-122250000D01*
X134140000Y-121900000D01*
X134710000Y-121900000D01*
X134710000Y-122250000D01*
G36*
X134710000Y-122250000D02*
G01*
X134140000Y-122250000D01*
X134140000Y-121900000D01*
X134710000Y-121900000D01*
X134710000Y-122250000D01*
G37*
X134710000Y-122650000D02*
X134140000Y-122650000D01*
X134140000Y-122300000D01*
X134710000Y-122300000D01*
X134710000Y-122650000D01*
G36*
X134710000Y-122650000D02*
G01*
X134140000Y-122650000D01*
X134140000Y-122300000D01*
X134710000Y-122300000D01*
X134710000Y-122650000D01*
G37*
X134710000Y-123050000D02*
X134140000Y-123050000D01*
X134140000Y-122700000D01*
X134710000Y-122700000D01*
X134710000Y-123050000D01*
G36*
X134710000Y-123050000D02*
G01*
X134140000Y-123050000D01*
X134140000Y-122700000D01*
X134710000Y-122700000D01*
X134710000Y-123050000D01*
G37*
X134710000Y-123450000D02*
X134140000Y-123450000D01*
X134140000Y-123100000D01*
X134710000Y-123100000D01*
X134710000Y-123450000D01*
G36*
X134710000Y-123450000D02*
G01*
X134140000Y-123450000D01*
X134140000Y-123100000D01*
X134710000Y-123100000D01*
X134710000Y-123450000D01*
G37*
X134710000Y-123850000D02*
X134140000Y-123850000D01*
X134140000Y-123500000D01*
X134710000Y-123500000D01*
X134710000Y-123850000D01*
G36*
X134710000Y-123850000D02*
G01*
X134140000Y-123850000D01*
X134140000Y-123500000D01*
X134710000Y-123500000D01*
X134710000Y-123850000D01*
G37*
X134710000Y-124250000D02*
X134140000Y-124250000D01*
X134140000Y-123900000D01*
X134710000Y-123900000D01*
X134710000Y-124250000D01*
G36*
X134710000Y-124250000D02*
G01*
X134140000Y-124250000D01*
X134140000Y-123900000D01*
X134710000Y-123900000D01*
X134710000Y-124250000D01*
G37*
X134710000Y-124650000D02*
X134140000Y-124650000D01*
X134140000Y-124300000D01*
X134710000Y-124300000D01*
X134710000Y-124650000D01*
G36*
X134710000Y-124650000D02*
G01*
X134140000Y-124650000D01*
X134140000Y-124300000D01*
X134710000Y-124300000D01*
X134710000Y-124650000D01*
G37*
X134710000Y-125050000D02*
X134140000Y-125050000D01*
X134140000Y-124700000D01*
X134710000Y-124700000D01*
X134710000Y-125050000D01*
G36*
X134710000Y-125050000D02*
G01*
X134140000Y-125050000D01*
X134140000Y-124700000D01*
X134710000Y-124700000D01*
X134710000Y-125050000D01*
G37*
X134710000Y-125450000D02*
X134140000Y-125450000D01*
X134140000Y-125100000D01*
X134710000Y-125100000D01*
X134710000Y-125450000D01*
G36*
X134710000Y-125450000D02*
G01*
X134140000Y-125450000D01*
X134140000Y-125100000D01*
X134710000Y-125100000D01*
X134710000Y-125450000D01*
G37*
X134710000Y-125850000D02*
X134140000Y-125850000D01*
X134140000Y-125500000D01*
X134710000Y-125500000D01*
X134710000Y-125850000D01*
G36*
X134710000Y-125850000D02*
G01*
X134140000Y-125850000D01*
X134140000Y-125500000D01*
X134710000Y-125500000D01*
X134710000Y-125850000D01*
G37*
%TD*%
D11*
%TO.C,JP2*%
X142900000Y-125550000D03*
D12*
X144200000Y-125550000D03*
%TD*%
D13*
%TO.C,R7*%
X136200000Y-129700000D03*
X137850000Y-129700000D03*
%TD*%
D14*
%TO.C,C5*%
X128600000Y-127800000D03*
X127050000Y-127800000D03*
%TD*%
D15*
%TO.C,Q1*%
X136550000Y-127937500D03*
X138450000Y-127937500D03*
X137500000Y-126062500D03*
%TD*%
D16*
%TO.C,R3*%
X132350000Y-130650000D03*
X132350000Y-129000000D03*
%TD*%
D17*
%TO.C,C11*%
X150000000Y-107200000D03*
X150000000Y-109100000D03*
%TD*%
%TO.C,C13*%
X133050000Y-111750000D03*
X133050000Y-113650000D03*
%TD*%
D18*
%TO.C,C8*%
X148000000Y-102150000D03*
X146100000Y-102150000D03*
%TD*%
D19*
%TO.C,L1*%
X128600000Y-130925000D03*
X128600000Y-129350000D03*
%TD*%
D13*
%TO.C,R1*%
X134500000Y-137850000D03*
X136150000Y-137850000D03*
%TD*%
D20*
%TO.C,C9*%
X149750000Y-103400000D03*
X151650000Y-103400000D03*
%TD*%
D21*
%TO.C,RST1*%
X136150000Y-136100000D03*
X136150000Y-131650000D03*
%TD*%
D17*
%TO.C,C1*%
X130500000Y-129000000D03*
X130500000Y-130900000D03*
%TD*%
D22*
%TO.C,L2*%
X131275000Y-106300000D03*
X131275000Y-103800000D03*
X126725000Y-103800000D03*
X126725000Y-106300000D03*
%TD*%
D17*
%TO.C,C12*%
X155400000Y-108750000D03*
X155400000Y-110650000D03*
%TD*%
D23*
%TO.C,USBC1*%
X151770000Y-121970000D03*
X151770000Y-113330000D03*
D24*
X155950000Y-121970000D03*
X155950000Y-113330000D03*
%TD*%
D13*
%TO.C,R9*%
X139375000Y-124600000D03*
X141025000Y-124600000D03*
%TD*%
D25*
%TO.C,R12*%
X131100000Y-116300000D03*
X129450000Y-116300000D03*
%TD*%
D26*
%TO.C,U3*%
X146437500Y-123150000D03*
X146437500Y-122200000D03*
X146437500Y-121250000D03*
X144162500Y-121250000D03*
X144162500Y-122200000D03*
X144162500Y-123150000D03*
%TD*%
D27*
%TO.C,JP1*%
X140500000Y-126440000D03*
X140500000Y-127740000D03*
%TD*%
D21*
%TO.C,SPST1*%
X138800000Y-136100000D03*
X138800000Y-131650000D03*
%TD*%
D28*
%TO.C,D1*%
X146200000Y-108412500D03*
X146200000Y-106587500D03*
%TD*%
D29*
%TO.C,C15*%
X144200000Y-133200000D03*
X144200000Y-131300000D03*
%TD*%
D16*
%TO.C,R4*%
X127300000Y-117850000D03*
X127300000Y-116200000D03*
%TD*%
D17*
%TO.C,C14*%
X144200000Y-127750000D03*
X144200000Y-129650000D03*
%TD*%
D30*
%TO.C,R10*%
X151900000Y-105775000D03*
X151900000Y-107425000D03*
%TD*%
D31*
%TO.C,D2*%
X135437500Y-105950000D03*
X135437500Y-104050000D03*
X133562500Y-105000000D03*
%TD*%
D32*
%TO.C,U4*%
X151450000Y-126000000D03*
X149150000Y-126000000D03*
D33*
X149150000Y-132300000D03*
D32*
X146850000Y-126000000D03*
%TD*%
D25*
%TO.C,R8*%
X141125000Y-129700000D03*
X139475000Y-129700000D03*
%TD*%
D13*
%TO.C,R5*%
X124475000Y-122700000D03*
X126125000Y-122700000D03*
%TD*%
D30*
%TO.C,R2*%
X140850000Y-131650000D03*
X140850000Y-133300000D03*
%TD*%
D25*
%TO.C,Rusb1*%
X153325000Y-123700000D03*
X151675000Y-123700000D03*
%TD*%
D17*
%TO.C,C3*%
X125250000Y-125850000D03*
X125250000Y-127750000D03*
%TD*%
D34*
%TO.C,J1*%
X130250000Y-134050000D03*
D35*
X131750000Y-135525000D03*
D34*
X133250000Y-134050000D03*
D35*
X131750000Y-132575000D03*
%TD*%
D36*
%TO.C,FB1*%
X148000000Y-106825000D03*
X148000000Y-108400000D03*
%TD*%
D18*
%TO.C,C6*%
X137500000Y-115950000D03*
X135600000Y-115950000D03*
%TD*%
D17*
%TO.C,C2*%
X123150000Y-125850000D03*
X123150000Y-127750000D03*
%TD*%
D14*
%TO.C,C4*%
X128600000Y-132500000D03*
X127050000Y-132500000D03*
%TD*%
D13*
%TO.C,R6*%
X124475000Y-124250000D03*
X126125000Y-124250000D03*
%TD*%
D37*
%TO.C,U1*%
X131200000Y-123075000D03*
%TD*%
D38*
%TO.C,U2*%
X127295000Y-113375000D03*
X128565000Y-113375000D03*
X129835000Y-113375000D03*
X131105000Y-113375000D03*
X131105000Y-108425000D03*
X129835000Y-108425000D03*
X128565000Y-108425000D03*
X127295000Y-108425000D03*
%TD*%
D39*
%TO.C,J3*%
X139800000Y-102000000D03*
X139800000Y-104000000D03*
X139800000Y-106000000D03*
X139800000Y-108000000D03*
D40*
X142050000Y-99600000D03*
X142050000Y-110400000D03*
%TD*%
D25*
%TO.C,Rusb2*%
X153325000Y-111600000D03*
X151675000Y-111600000D03*
%TD*%
D18*
%TO.C,C10*%
X148000000Y-104400000D03*
X146100000Y-104400000D03*
%TD*%
D30*
%TO.C,R11*%
X153500000Y-105775000D03*
X153500000Y-107425000D03*
%TD*%
D18*
%TO.C,C7*%
X137500000Y-113850000D03*
X135600000Y-113850000D03*
%TD*%
M02*
