%TF.GenerationSoftware,KiCad,Pcbnew,10.0.0*%
%TF.CreationDate,2026-04-11T16:25:32+02:00*%
%TF.ProjectId,DisplayBoard,44697370-6c61-4794-926f-6172642e6b69,rev?*%
%TF.SameCoordinates,Original*%
%TF.FileFunction,Copper,L4,Bot*%
%TF.FilePolarity,Positive*%
%FSLAX46Y46*%
G04 Gerber Fmt 4.6, Leading zero omitted, Abs format (unit mm)*
G04 Created by KiCad (PCBNEW 10.0.0) date 2026-04-11 16:25:32*
%MOMM*%
%LPD*%
G01*
G04 APERTURE LIST*
G04 Aperture macros list*
%AMRoundRect*
0 Rectangle with rounded corners*
0 $1 Rounding radius*
0 $2 $3 $4 $5 $6 $7 $8 $9 X,Y pos of 4 corners*
0 Add a 4 corners polygon primitive as box body*
4,1,4,$2,$3,$4,$5,$6,$7,$8,$9,$2,$3,0*
0 Add four circle primitives for the rounded corners*
1,1,$1+$1,$2,$3*
1,1,$1+$1,$4,$5*
1,1,$1+$1,$6,$7*
1,1,$1+$1,$8,$9*
0 Add four rect primitives between the rounded corners*
20,1,$1+$1,$2,$3,$4,$5,0*
20,1,$1+$1,$4,$5,$6,$7,0*
20,1,$1+$1,$6,$7,$8,$9,0*
20,1,$1+$1,$8,$9,$2,$3,0*%
G04 Aperture macros list end*
%TA.AperFunction,ComponentPad*%
%ADD10O,2.100000X1.000000*%
%TD*%
%TA.AperFunction,ComponentPad*%
%ADD11O,1.800000X1.000000*%
%TD*%
%TA.AperFunction,SMDPad,CuDef*%
%ADD12RoundRect,0.045000X0.105000X-0.605000X0.105000X0.605000X-0.105000X0.605000X-0.105000X-0.605000X0*%
%TD*%
%TA.AperFunction,SMDPad,CuDef*%
%ADD13RoundRect,0.240000X0.760000X-0.560000X0.760000X0.560000X-0.760000X0.560000X-0.760000X-0.560000X0*%
%TD*%
%TA.AperFunction,ViaPad*%
%ADD14C,0.600000*%
%TD*%
%TA.AperFunction,Conductor*%
%ADD15C,0.600000*%
%TD*%
%TA.AperFunction,Conductor*%
%ADD16C,0.200000*%
%TD*%
%TA.AperFunction,Conductor*%
%ADD17C,0.350000*%
%TD*%
G04 APERTURE END LIST*
D10*
%TO.P,USBC1,SH1,SHELL_GND_SH1*%
%TO.N,GND*%
X151770000Y-121970000D03*
%TO.P,USBC1,SH2,SHELL_GND__1_SH2*%
X151770000Y-113330000D03*
D11*
%TO.P,USBC1,SH3,SHELL_GND__2_SH3*%
X155950000Y-121970000D03*
%TO.P,USBC1,SH4,SHELL_GND__3_SH4*%
X155950000Y-113330000D03*
%TD*%
D12*
%TO.P,J2,1,Pin_1_1*%
%TO.N,LEDK*%
X143250000Y-113950000D03*
%TO.P,J2,2,Pin_2_2*%
%TO.N,+3.3V*%
X142750000Y-113950000D03*
%TO.P,J2,3,Pin_3_3*%
%TO.N,GND*%
X142250000Y-113950000D03*
%TO.P,J2,4,Pin_4_4*%
%TO.N,/Display/CS*%
X141750000Y-113950000D03*
%TO.P,J2,5,Pin_5_5*%
%TO.N,/Display/CLK*%
X141250000Y-113950000D03*
%TO.P,J2,6,Pin_6_6*%
%TO.N,/Display/RST*%
X140750000Y-113950000D03*
%TO.P,J2,7,Pin_7_7*%
%TO.N,/Display/IO3*%
X140250000Y-113950000D03*
%TO.P,J2,8,Pin_8_8*%
%TO.N,/Display/IO2*%
X139750000Y-113950000D03*
%TO.P,J2,9,Pin_9_9*%
%TO.N,/Display/IO1*%
X139250000Y-113950000D03*
%TO.P,J2,10,Pin_10_10*%
%TO.N,/Display/IO0*%
X138750000Y-113950000D03*
%TO.P,J2,11,Pin_11_11*%
%TO.N,/Display/TE*%
X138250000Y-113950000D03*
%TO.P,J2,12,Pin_12_12*%
%TO.N,+3.3V*%
X137750000Y-113950000D03*
%TO.P,J2,13,Pin_13_13*%
X137250000Y-113950000D03*
%TO.P,J2,14,Pin_14_14*%
%TO.N,GND*%
X136750000Y-113950000D03*
%TO.P,J2,15,Pin_15_15*%
X136250000Y-113950000D03*
%TO.P,J2,16,Pin_16_16*%
X135750000Y-113950000D03*
D13*
%TO.P,J2,19*%
%TO.N,N/C*%
X134050000Y-116630000D03*
%TO.P,J2,20*%
X144950000Y-116630000D03*
%TD*%
D14*
%TO.N,VBUS*%
X142900000Y-122200000D03*
X149050000Y-119600000D03*
X149300000Y-115300000D03*
X142900000Y-124100000D03*
%TO.N,GND*%
X143700000Y-100900000D03*
X145000000Y-102150000D03*
X121706817Y-125173911D03*
X158384451Y-114094084D03*
X136400000Y-112300000D03*
X151450000Y-130650000D03*
X153900000Y-126900000D03*
X125650000Y-131600000D03*
X120615549Y-121561480D03*
X138100000Y-99900000D03*
X153900000Y-126000000D03*
X139100000Y-99900000D03*
X149000000Y-135550000D03*
X137600000Y-128500000D03*
X135600000Y-112300000D03*
X153096095Y-131455298D03*
X152250000Y-128100000D03*
X140000000Y-100900000D03*
X155518134Y-107151529D03*
X131200000Y-120700000D03*
X153050000Y-126000000D03*
X150000000Y-110150000D03*
X157276179Y-125214965D03*
X131814770Y-127319815D03*
X123563431Y-122699482D03*
X146300000Y-100700000D03*
X146300000Y-99800000D03*
X133450000Y-132600000D03*
X153100000Y-104400000D03*
X153050000Y-129750000D03*
X153050000Y-126900000D03*
X135766302Y-98943331D03*
X133050000Y-114700000D03*
X137100000Y-99900000D03*
X146000000Y-137250000D03*
X128561176Y-114735120D03*
X142950000Y-131300000D03*
X145500000Y-99800000D03*
X158375782Y-121605062D03*
X145500000Y-100700000D03*
X121723821Y-110440599D03*
X138100000Y-100900000D03*
X152250000Y-130600000D03*
X123506554Y-107114581D03*
X134700000Y-113850000D03*
X133600000Y-137850000D03*
X143700000Y-102500000D03*
X131200000Y-125500000D03*
X137100000Y-100900000D03*
X145700000Y-124300000D03*
X127053260Y-131609365D03*
X150800000Y-123700000D03*
X158750000Y-117850000D03*
X141900000Y-100900000D03*
X133675579Y-123083369D03*
X130000000Y-131950000D03*
X157293183Y-110481653D03*
X143700000Y-101700000D03*
X128723719Y-123070590D03*
X139100000Y-100900000D03*
X155493446Y-128540983D03*
X155950000Y-122950000D03*
X151450000Y-129800000D03*
X144522215Y-106574274D03*
X152250000Y-129750000D03*
X134200000Y-134050000D03*
X123700000Y-128800000D03*
X144600000Y-138100000D03*
X155950000Y-112350000D03*
X127050000Y-128800000D03*
X132200000Y-105000000D03*
X123567691Y-124250000D03*
X128300000Y-134300000D03*
X133500000Y-135550000D03*
X128823747Y-101809648D03*
X153900000Y-125150000D03*
X153900000Y-127750000D03*
X138700000Y-137150000D03*
X141000000Y-100900000D03*
X151450000Y-128100000D03*
X139100000Y-98900000D03*
X137100000Y-98900000D03*
X153050000Y-127750000D03*
X120624218Y-114050502D03*
X144150000Y-139600000D03*
X145300000Y-122250000D03*
X125250000Y-128800000D03*
X153050000Y-130600000D03*
X145000000Y-104400000D03*
X134850000Y-139600000D03*
X153900000Y-128900000D03*
X153050000Y-128900000D03*
X132100000Y-137150000D03*
X141900000Y-112500000D03*
X142950000Y-129650000D03*
X153900000Y-130600000D03*
X150750000Y-111600000D03*
X144600000Y-100100000D03*
X140000000Y-99900000D03*
X153050000Y-125150000D03*
X138100000Y-98900000D03*
X144600000Y-99300000D03*
X152250000Y-128900000D03*
X120250000Y-117805564D03*
X142000000Y-129700000D03*
X141883644Y-127738726D03*
X153900000Y-129750000D03*
X149900000Y-122000000D03*
X144600000Y-100900000D03*
X153900000Y-109900000D03*
X149850000Y-113300000D03*
X140000000Y-98900000D03*
X142800000Y-100900000D03*
X151450000Y-128950000D03*
X140050000Y-139600000D03*
X134200000Y-115000000D03*
X132153871Y-100034599D03*
%TO.N,+3.3V*%
X148700000Y-123150000D03*
X148005170Y-103297813D03*
X148250000Y-130350000D03*
X148000000Y-105700000D03*
X150700000Y-104800000D03*
X138300000Y-111500000D03*
X133250000Y-130650000D03*
X147400000Y-129500000D03*
X148850000Y-103300000D03*
X127150000Y-125500000D03*
X126450000Y-125850000D03*
X147200000Y-105700000D03*
X149600000Y-124000000D03*
X148250000Y-127850000D03*
X149700000Y-104800000D03*
X129840439Y-114772200D03*
X146550000Y-127850000D03*
X144800000Y-134800000D03*
X146150000Y-132300000D03*
X149150000Y-130350000D03*
X137500000Y-112350000D03*
X147400000Y-127850000D03*
X135150000Y-123100000D03*
X148000000Y-100700000D03*
X129100000Y-125650000D03*
X149150000Y-129500000D03*
X150700000Y-105900000D03*
X147400000Y-128700000D03*
X148850000Y-102200000D03*
X143900000Y-134800000D03*
X137500000Y-111500000D03*
X148850000Y-101100000D03*
X147150000Y-103300000D03*
X148250000Y-128700000D03*
X147400000Y-130350000D03*
X149150000Y-128700000D03*
X150050000Y-129500000D03*
X146550000Y-128700000D03*
X150050000Y-128700000D03*
X143100000Y-112500000D03*
X146150000Y-133100000D03*
X149600000Y-123150000D03*
X149700000Y-105900000D03*
X150050000Y-127850000D03*
X149750000Y-101650000D03*
X151900000Y-104800000D03*
X146148067Y-134007104D03*
X148250000Y-129500000D03*
X140850000Y-134200000D03*
X148850000Y-105700000D03*
X149150000Y-127850000D03*
X148909974Y-104490025D03*
X124200000Y-125850000D03*
X138300000Y-112350000D03*
X148700000Y-124000000D03*
X146550000Y-129500000D03*
X154600000Y-106000000D03*
X150050000Y-130350000D03*
X146550000Y-130350000D03*
X146150000Y-131500000D03*
X127085632Y-121895779D03*
%TO.N,LEDK*%
X142000000Y-124050000D03*
%TO.N,/Display/CS*%
X134500000Y-128200000D03*
%TO.N,/Display/RST*%
X136550000Y-126450000D03*
%TO.N,/Display/CLK*%
X135350000Y-126350000D03*
%TO.N,/Display/IO3*%
X136650000Y-125277033D03*
%TO.N,/Display/IO2*%
X137300000Y-124700000D03*
%TO.N,/Display/IO1*%
X138225000Y-123975000D03*
%TO.N,/Display/IO0*%
X135650000Y-123750000D03*
%TO.N,/Display/TE*%
X136550000Y-122400000D03*
%TD*%
%TO.N,VBUS*%
D15*
X144050000Y-121050000D02*
X147550000Y-121050000D01*
X147550000Y-121050000D02*
X149300000Y-119300000D01*
X149300000Y-119300000D02*
X149300000Y-118400000D01*
X142900000Y-122200000D02*
X144050000Y-121050000D01*
X149300000Y-118400000D02*
X149300000Y-115300000D01*
X142900000Y-122200000D02*
X142900000Y-124100000D01*
%TO.N,GND*%
D16*
X142250000Y-113950000D02*
X142250000Y-112661237D01*
X142090689Y-112500000D02*
X141900000Y-112500000D01*
D15*
X135750000Y-113950000D02*
X136650000Y-113950000D01*
D16*
X142250963Y-112660274D02*
X142090689Y-112500000D01*
X142250000Y-112661237D02*
X142250963Y-112660274D01*
%TO.N,+3.3V*%
D15*
X137500000Y-111500000D02*
X137500000Y-113200000D01*
X138300000Y-112350000D02*
X138300000Y-112400000D01*
X137500000Y-112350000D02*
X137500000Y-112300000D01*
X137500000Y-112300000D02*
X138300000Y-111500000D01*
X137500000Y-114256331D02*
X137506398Y-114262729D01*
D16*
X142751330Y-112697338D02*
X142948668Y-112500000D01*
D15*
X138300000Y-112350000D02*
X137500000Y-112350000D01*
X137500000Y-111500000D02*
X138300000Y-111500000D01*
D16*
X142750000Y-113950000D02*
X142751330Y-113948670D01*
X142751330Y-113948670D02*
X142751330Y-112697338D01*
D15*
X138300000Y-111500000D02*
X138300000Y-112350000D01*
X138300000Y-112400000D02*
X137500000Y-113200000D01*
X137500000Y-113200000D02*
X137500000Y-114256331D01*
D16*
X142948668Y-112500000D02*
X143100000Y-112500000D01*
%TO.N,LEDK*%
D17*
X143250000Y-113950000D02*
X143250000Y-114850000D01*
D16*
X143255641Y-114855641D02*
X143250000Y-114850000D01*
D15*
X143250000Y-120600000D02*
X143250000Y-115450000D01*
X143250000Y-115450000D02*
X143250000Y-114861282D01*
X142000000Y-124050000D02*
X142000000Y-121850000D01*
X143250000Y-114861282D02*
X143255641Y-114855641D01*
X142000000Y-121850000D02*
X143250000Y-120600000D01*
D17*
X143250000Y-114850000D02*
X143250000Y-113450000D01*
%TO.N,/Display/CS*%
D16*
X141750000Y-113950000D02*
X141750000Y-120950000D01*
X141750000Y-120950000D02*
X141300000Y-121400000D01*
X137250000Y-127850000D02*
X136800000Y-128300000D01*
X141300000Y-121400000D02*
X141300000Y-126950000D01*
X140400000Y-127850000D02*
X137250000Y-127850000D01*
X141300000Y-126950000D02*
X140400000Y-127850000D01*
X136800000Y-128300000D02*
X134600000Y-128300000D01*
X134600000Y-128300000D02*
X134500000Y-128200000D01*
%TO.N,/Display/RST*%
X139950000Y-125950000D02*
X139450000Y-126450000D01*
X140300000Y-115450000D02*
X140300000Y-120350000D01*
X139450000Y-126450000D02*
X136550000Y-126450000D01*
X140300000Y-120350000D02*
X139950000Y-120700000D01*
X140750000Y-113950000D02*
X140750000Y-115000000D01*
X139950000Y-120700000D02*
X139950000Y-125950000D01*
X140750000Y-115000000D02*
X140300000Y-115450000D01*
%TO.N,/Display/CLK*%
X141250000Y-114900000D02*
X141100000Y-115050000D01*
X136100000Y-127100000D02*
X135350000Y-126350000D01*
X141100000Y-115050000D02*
X141100000Y-120650000D01*
X140750000Y-121000000D02*
X140750000Y-126400000D01*
X140750000Y-126400000D02*
X140050000Y-127100000D01*
X141100000Y-120650000D02*
X140750000Y-121000000D01*
X141250000Y-113950000D02*
X141250000Y-114900000D01*
X140050000Y-127100000D02*
X136100000Y-127100000D01*
%TO.N,/Display/IO3*%
X139700000Y-120150000D02*
X139700000Y-115500000D01*
X138672967Y-125277033D02*
X139450000Y-124500000D01*
X139450000Y-120400000D02*
X139700000Y-120150000D01*
X140250000Y-114950000D02*
X140250000Y-113950000D01*
X139450000Y-124500000D02*
X139450000Y-120400000D01*
X139700000Y-115500000D02*
X140250000Y-114950000D01*
X136650000Y-125277033D02*
X138672967Y-125277033D01*
%TO.N,/Display/IO2*%
X139750000Y-114955026D02*
X139200000Y-115505026D01*
X137300000Y-124700000D02*
X138350000Y-124700000D01*
X138950000Y-124100000D02*
X138350000Y-124700000D01*
X138950000Y-120200000D02*
X138950000Y-124100000D01*
X139200000Y-119950000D02*
X138950000Y-120200000D01*
X139750000Y-113950000D02*
X139750000Y-114955026D01*
X139200000Y-115505026D02*
X139200000Y-119950000D01*
%TO.N,/Display/IO1*%
X138500000Y-120050000D02*
X138500000Y-123700000D01*
X138750000Y-119800000D02*
X138500000Y-120050000D01*
X139250000Y-113950000D02*
X139250000Y-114800000D01*
X138750000Y-115300000D02*
X138750000Y-119800000D01*
X138500000Y-123700000D02*
X138100000Y-124100000D01*
X139250000Y-114800000D02*
X138750000Y-115300000D01*
%TO.N,/Display/IO0*%
X138100000Y-119850000D02*
X138100000Y-123200000D01*
X138750000Y-113950000D02*
X138750000Y-114650000D01*
X135900000Y-123500000D02*
X135650000Y-123750000D01*
X138750000Y-114650000D02*
X138300000Y-115100000D01*
X138300000Y-119650000D02*
X138100000Y-119850000D01*
X137800000Y-123500000D02*
X135900000Y-123500000D01*
X138100000Y-123200000D02*
X137800000Y-123500000D01*
X138300000Y-115100000D02*
X138300000Y-119650000D01*
%TO.N,/Display/TE*%
X137050000Y-119850000D02*
X137050000Y-121900000D01*
X138250000Y-114650000D02*
X137500000Y-115400000D01*
X137500000Y-115400000D02*
X137500000Y-119400000D01*
X137050000Y-121900000D02*
X136550000Y-122400000D01*
X138250000Y-113950000D02*
X138250000Y-114650000D01*
X137500000Y-119400000D02*
X137050000Y-119850000D01*
%TD*%
%TA.AperFunction,Conductor*%
%TO.N,GND*%
G36*
X139935030Y-98103138D02*
G01*
X139937818Y-98103199D01*
X139940462Y-98103286D01*
X140804563Y-98141546D01*
X140807108Y-98141687D01*
X140809925Y-98141875D01*
X140812555Y-98142079D01*
X141673986Y-98218513D01*
X141676620Y-98218776D01*
X141679434Y-98219089D01*
X141682015Y-98219404D01*
X142539206Y-98333862D01*
X142541828Y-98334241D01*
X142544647Y-98334682D01*
X142547204Y-98335110D01*
X143398523Y-98487379D01*
X143401132Y-98487875D01*
X143403908Y-98488436D01*
X143406442Y-98488976D01*
X144250196Y-98678754D01*
X144252838Y-98679380D01*
X144255491Y-98680039D01*
X144258133Y-98680726D01*
X145092548Y-98907607D01*
X145095160Y-98908348D01*
X145097885Y-98909154D01*
X145100393Y-98909927D01*
X145923979Y-99173503D01*
X145926539Y-99174353D01*
X145929093Y-99175233D01*
X145929122Y-99175243D01*
X145931709Y-99176166D01*
X146742894Y-99475938D01*
X146745307Y-99476860D01*
X146747990Y-99477920D01*
X146750412Y-99478908D01*
X147525602Y-99805036D01*
X147555851Y-99823211D01*
X147566481Y-99831874D01*
X147606009Y-99889487D01*
X147608115Y-99959325D01*
X147577903Y-100013539D01*
X147572304Y-100019414D01*
X147551432Y-100036968D01*
X147489708Y-100078211D01*
X147489705Y-100078214D01*
X147489701Y-100078217D01*
X147378217Y-100189701D01*
X147378212Y-100189707D01*
X147378211Y-100189708D01*
X147290613Y-100320807D01*
X147290603Y-100320824D01*
X147290598Y-100320833D01*
X147230264Y-100466496D01*
X147230257Y-100466527D01*
X147199500Y-100621150D01*
X147199500Y-100621153D01*
X147199500Y-100778846D01*
X147199500Y-100778848D01*
X147199499Y-100778848D01*
X147230257Y-100933471D01*
X147230264Y-100933502D01*
X147290598Y-101079165D01*
X147290603Y-101079174D01*
X147290613Y-101079191D01*
X147378211Y-101210290D01*
X147378212Y-101210291D01*
X147378217Y-101210297D01*
X147489701Y-101321781D01*
X147489707Y-101321786D01*
X147489711Y-101321789D01*
X147620814Y-101409390D01*
X147620827Y-101409397D01*
X147766498Y-101469735D01*
X147766503Y-101469737D01*
X147854064Y-101487154D01*
X147913512Y-101498979D01*
X147916247Y-101499703D01*
X147921155Y-101500500D01*
X147921156Y-101500500D01*
X148063135Y-101500500D01*
X148086208Y-101502666D01*
X148111084Y-101507377D01*
X148170453Y-101536586D01*
X148178530Y-101543775D01*
X148214422Y-101599346D01*
X148218710Y-101613040D01*
X148219959Y-101682895D01*
X148216358Y-101696023D01*
X148199877Y-101732112D01*
X148140619Y-101820797D01*
X148140603Y-101820824D01*
X148140598Y-101820833D01*
X148080264Y-101966496D01*
X148080257Y-101966527D01*
X148049500Y-102121150D01*
X148049500Y-102121153D01*
X148049500Y-102278846D01*
X148049500Y-102278848D01*
X148049499Y-102278848D01*
X148060000Y-102331634D01*
X148061890Y-102366878D01*
X148060653Y-102380702D01*
X148035071Y-102445720D01*
X147978403Y-102486585D01*
X147968021Y-102490248D01*
X147932349Y-102496356D01*
X147932385Y-102496716D01*
X147927361Y-102497210D01*
X147926764Y-102497313D01*
X147926323Y-102497313D01*
X147771697Y-102528070D01*
X147771666Y-102528077D01*
X147638866Y-102583084D01*
X147604671Y-102591812D01*
X147578519Y-102594624D01*
X147517810Y-102585896D01*
X147383502Y-102530264D01*
X147383471Y-102530257D01*
X147228847Y-102499500D01*
X147228845Y-102499500D01*
X147228842Y-102499500D01*
X147071158Y-102499500D01*
X147071155Y-102499500D01*
X147071153Y-102499500D01*
X146916527Y-102530257D01*
X146916496Y-102530264D01*
X146770833Y-102590598D01*
X146770824Y-102590603D01*
X146770807Y-102590613D01*
X146639708Y-102678211D01*
X146639707Y-102678212D01*
X146639701Y-102678217D01*
X146528217Y-102789701D01*
X146528212Y-102789707D01*
X146528211Y-102789708D01*
X146440613Y-102920807D01*
X146440603Y-102920824D01*
X146440598Y-102920833D01*
X146380264Y-103066496D01*
X146380257Y-103066527D01*
X146349500Y-103221150D01*
X146349500Y-103221153D01*
X146349500Y-103378846D01*
X146349500Y-103378848D01*
X146349499Y-103378848D01*
X146380257Y-103533471D01*
X146380261Y-103533489D01*
X146380263Y-103533500D01*
X146440598Y-103679165D01*
X146440602Y-103679172D01*
X146440608Y-103679184D01*
X146440613Y-103679191D01*
X146528211Y-103810290D01*
X146528212Y-103810291D01*
X146528217Y-103810297D01*
X146639701Y-103921781D01*
X146639707Y-103921786D01*
X146639711Y-103921789D01*
X146770814Y-104009390D01*
X146770827Y-104009397D01*
X146911223Y-104067550D01*
X146916503Y-104069737D01*
X146916507Y-104069737D01*
X146916510Y-104069739D01*
X147015042Y-104089337D01*
X147060158Y-104098312D01*
X147071153Y-104100499D01*
X147071156Y-104100500D01*
X147071158Y-104100500D01*
X147228844Y-104100500D01*
X147228845Y-104100499D01*
X147383497Y-104069737D01*
X147516306Y-104014725D01*
X147550492Y-104005999D01*
X147576655Y-104003186D01*
X147637357Y-104011914D01*
X147771673Y-104067550D01*
X147887583Y-104090606D01*
X147918698Y-104096795D01*
X147921422Y-104097517D01*
X147926325Y-104098313D01*
X147926326Y-104098313D01*
X148003206Y-104098313D01*
X148038138Y-104103334D01*
X148051457Y-104107245D01*
X148110235Y-104145019D01*
X148139261Y-104208574D01*
X148139262Y-104208583D01*
X148140549Y-104217538D01*
X148138857Y-104262076D01*
X148132442Y-104290944D01*
X148131568Y-104300103D01*
X148109474Y-104411175D01*
X148109474Y-104568875D01*
X148140233Y-104723510D01*
X148140729Y-104725614D01*
X148140655Y-104725631D01*
X148140657Y-104725640D01*
X148140548Y-104725661D01*
X148143586Y-104741759D01*
X148145501Y-104759574D01*
X148133094Y-104828333D01*
X148085496Y-104879462D01*
X148083228Y-104880807D01*
X148080990Y-104882135D01*
X148017707Y-104899500D01*
X147921153Y-104899500D01*
X147766527Y-104930257D01*
X147766501Y-104930263D01*
X147766499Y-104930263D01*
X147766498Y-104930264D01*
X147663922Y-104972752D01*
X147629726Y-104981479D01*
X147603573Y-104984291D01*
X147542865Y-104975563D01*
X147433502Y-104930264D01*
X147433471Y-104930257D01*
X147278847Y-104899500D01*
X147278845Y-104899500D01*
X147278842Y-104899500D01*
X147121158Y-104899500D01*
X147121155Y-104899500D01*
X147121153Y-104899500D01*
X146966527Y-104930257D01*
X146966496Y-104930264D01*
X146820833Y-104990598D01*
X146820824Y-104990603D01*
X146820807Y-104990613D01*
X146689708Y-105078211D01*
X146689707Y-105078212D01*
X146689701Y-105078217D01*
X146578217Y-105189701D01*
X146578212Y-105189707D01*
X146578211Y-105189708D01*
X146490613Y-105320807D01*
X146490603Y-105320824D01*
X146490598Y-105320833D01*
X146430264Y-105466496D01*
X146430257Y-105466527D01*
X146399500Y-105621150D01*
X146399500Y-105621153D01*
X146399500Y-105778846D01*
X146399500Y-105778848D01*
X146399499Y-105778848D01*
X146430257Y-105933471D01*
X146430264Y-105933502D01*
X146490598Y-106079165D01*
X146490603Y-106079174D01*
X146490613Y-106079191D01*
X146578211Y-106210290D01*
X146578212Y-106210291D01*
X146578217Y-106210297D01*
X146689701Y-106321781D01*
X146689707Y-106321786D01*
X146689711Y-106321789D01*
X146820814Y-106409390D01*
X146820827Y-106409397D01*
X146966498Y-106469735D01*
X146966503Y-106469737D01*
X147121153Y-106500499D01*
X147121156Y-106500500D01*
X147121158Y-106500500D01*
X147278844Y-106500500D01*
X147278845Y-106500499D01*
X147433497Y-106469737D01*
X147536081Y-106427245D01*
X147570271Y-106418519D01*
X147596427Y-106415707D01*
X147657132Y-106424434D01*
X147766498Y-106469735D01*
X147766503Y-106469737D01*
X147766506Y-106469737D01*
X147766507Y-106469738D01*
X147814459Y-106479276D01*
X147921153Y-106500499D01*
X147921156Y-106500500D01*
X147921158Y-106500500D01*
X148078844Y-106500500D01*
X148078845Y-106500499D01*
X148233497Y-106469737D01*
X148361081Y-106416890D01*
X148395269Y-106408164D01*
X148421427Y-106405352D01*
X148482132Y-106414079D01*
X148616498Y-106469735D01*
X148616503Y-106469737D01*
X148771153Y-106500499D01*
X148771156Y-106500500D01*
X148771158Y-106500500D01*
X148928843Y-106500500D01*
X148960146Y-106494273D01*
X149046184Y-106477158D01*
X149081416Y-106475269D01*
X149102323Y-106477140D01*
X149159240Y-106496936D01*
X149164870Y-106500625D01*
X149184570Y-106516648D01*
X149189708Y-106521786D01*
X149189712Y-106521790D01*
X149320814Y-106609390D01*
X149320827Y-106609397D01*
X149466498Y-106669735D01*
X149466503Y-106669737D01*
X149621153Y-106700499D01*
X149621156Y-106700500D01*
X149621158Y-106700500D01*
X149778844Y-106700500D01*
X149778845Y-106700499D01*
X149933497Y-106669737D01*
X150079179Y-106609394D01*
X150116287Y-106584598D01*
X150148118Y-106569368D01*
X150163042Y-106564694D01*
X150232889Y-106563446D01*
X150246025Y-106567049D01*
X150282112Y-106583529D01*
X150320821Y-106609394D01*
X150320823Y-106609395D01*
X150320825Y-106609396D01*
X150350745Y-106621789D01*
X150466503Y-106669737D01*
X150466505Y-106669737D01*
X150466510Y-106669739D01*
X150550279Y-106686401D01*
X150621153Y-106700499D01*
X150621156Y-106700500D01*
X150621158Y-106700500D01*
X150778844Y-106700500D01*
X150778845Y-106700499D01*
X150933497Y-106669737D01*
X151079179Y-106609394D01*
X151210289Y-106521789D01*
X151321789Y-106410289D01*
X151409394Y-106279179D01*
X151469737Y-106133497D01*
X151500500Y-105978842D01*
X151500500Y-105821158D01*
X151500500Y-105821155D01*
X151479829Y-105717241D01*
X151477941Y-105682000D01*
X151479155Y-105668435D01*
X151504737Y-105603417D01*
X151561409Y-105562551D01*
X151623596Y-105557268D01*
X151631282Y-105558584D01*
X151631742Y-105558663D01*
X151658251Y-105566320D01*
X151666485Y-105569730D01*
X151666491Y-105569732D01*
X151666498Y-105569735D01*
X151666503Y-105569737D01*
X151813513Y-105598979D01*
X151816247Y-105599703D01*
X151821155Y-105600500D01*
X151978844Y-105600500D01*
X151982964Y-105600500D01*
X151990814Y-105598118D01*
X152133497Y-105569737D01*
X152279179Y-105509394D01*
X152410289Y-105421789D01*
X152521789Y-105310289D01*
X152609394Y-105179179D01*
X152669737Y-105033497D01*
X152700500Y-104878842D01*
X152700500Y-104721158D01*
X152700500Y-104721155D01*
X152700500Y-104720973D01*
X152700065Y-104718972D01*
X152670397Y-104569824D01*
X152669994Y-104567467D01*
X152669738Y-104566508D01*
X152669737Y-104566506D01*
X152669737Y-104566503D01*
X152669735Y-104566498D01*
X152609397Y-104420827D01*
X152609390Y-104420814D01*
X152521789Y-104289711D01*
X152521786Y-104289707D01*
X152521781Y-104289701D01*
X152410297Y-104178217D01*
X152410291Y-104178212D01*
X152410290Y-104178211D01*
X152279191Y-104090613D01*
X152279190Y-104090612D01*
X152279185Y-104090609D01*
X152279172Y-104090602D01*
X152279165Y-104090598D01*
X152133502Y-104030264D01*
X152133471Y-104030257D01*
X151978847Y-103999500D01*
X151978845Y-103999500D01*
X151978842Y-103999500D01*
X151821158Y-103999500D01*
X151821155Y-103999500D01*
X151821153Y-103999500D01*
X151666527Y-104030257D01*
X151666496Y-104030264D01*
X151520833Y-104090598D01*
X151520824Y-104090603D01*
X151520807Y-104090613D01*
X151388307Y-104179148D01*
X151388269Y-104179092D01*
X151377689Y-104185695D01*
X151358311Y-104196276D01*
X151290038Y-104211127D01*
X151290036Y-104211127D01*
X151288233Y-104210998D01*
X151230046Y-104191632D01*
X151224963Y-104188365D01*
X151220808Y-104185695D01*
X151213454Y-104180584D01*
X151210290Y-104178211D01*
X151079191Y-104090613D01*
X151079190Y-104090612D01*
X151079185Y-104090609D01*
X151079172Y-104090602D01*
X151079165Y-104090598D01*
X150933502Y-104030264D01*
X150933471Y-104030257D01*
X150778847Y-103999500D01*
X150778845Y-103999500D01*
X150778842Y-103999500D01*
X150621158Y-103999500D01*
X150621155Y-103999500D01*
X150621153Y-103999500D01*
X150466527Y-104030257D01*
X150466496Y-104030264D01*
X150320833Y-104090598D01*
X150320815Y-104090608D01*
X150283716Y-104115398D01*
X150251874Y-104130632D01*
X150236955Y-104135303D01*
X150167106Y-104136551D01*
X150162556Y-104135303D01*
X150153974Y-104132948D01*
X150117885Y-104116468D01*
X150098230Y-104103335D01*
X150079185Y-104090609D01*
X150079172Y-104090602D01*
X150079165Y-104090598D01*
X149933502Y-104030264D01*
X149933471Y-104030257D01*
X149778847Y-103999500D01*
X149778845Y-103999500D01*
X149778842Y-103999500D01*
X149625179Y-103999500D01*
X149602062Y-103997326D01*
X149575828Y-103992348D01*
X149513634Y-103960511D01*
X149490113Y-103929949D01*
X149483863Y-103918503D01*
X149469011Y-103850230D01*
X149469011Y-103850229D01*
X149469535Y-103842903D01*
X149490117Y-103782860D01*
X149556440Y-103683600D01*
X149556444Y-103683592D01*
X149559390Y-103679185D01*
X149559390Y-103679184D01*
X149559394Y-103679179D01*
X149559396Y-103679174D01*
X149560073Y-103678161D01*
X149561710Y-103673585D01*
X149619737Y-103533497D01*
X149650500Y-103378842D01*
X149650500Y-103221158D01*
X149650500Y-103221155D01*
X149650499Y-103221153D01*
X149619737Y-103066503D01*
X149595842Y-103008815D01*
X149559397Y-102920827D01*
X149559390Y-102920814D01*
X149501188Y-102833710D01*
X149485958Y-102801875D01*
X149480981Y-102785979D01*
X149479250Y-102717943D01*
X149481901Y-102707668D01*
X149498865Y-102669765D01*
X149559394Y-102579179D01*
X149576230Y-102538529D01*
X149603677Y-102497738D01*
X149604350Y-102497073D01*
X149607775Y-102493803D01*
X149608210Y-102493263D01*
X149610996Y-102490513D01*
X149639211Y-102475342D01*
X149661912Y-102461672D01*
X149661501Y-102460437D01*
X149672290Y-102456846D01*
X149711450Y-102450500D01*
X149832964Y-102450500D01*
X149840814Y-102448118D01*
X149983497Y-102419737D01*
X150129179Y-102359394D01*
X150260289Y-102271789D01*
X150371789Y-102160289D01*
X150459394Y-102029179D01*
X150462166Y-102022488D01*
X150519735Y-101883501D01*
X150519737Y-101883497D01*
X150549850Y-101732112D01*
X150551689Y-101722868D01*
X150551849Y-101722899D01*
X150554727Y-101708086D01*
X150559216Y-101692799D01*
X150596991Y-101634021D01*
X150660547Y-101604998D01*
X150724319Y-101612635D01*
X150732718Y-101616001D01*
X150758582Y-101630141D01*
X150783325Y-101647786D01*
X151304198Y-102019225D01*
X151306396Y-102020828D01*
X151308585Y-102022464D01*
X151308618Y-102022488D01*
X151310800Y-102024157D01*
X151317228Y-102029184D01*
X151317230Y-102029185D01*
X151991938Y-102556859D01*
X151994052Y-102558550D01*
X151996180Y-102560291D01*
X151998253Y-102562025D01*
X152417413Y-102920824D01*
X152655158Y-103124333D01*
X152657199Y-103126119D01*
X152659268Y-103127970D01*
X152661283Y-103129814D01*
X153092680Y-103533489D01*
X153292697Y-103720652D01*
X153294633Y-103722504D01*
X153296627Y-103724454D01*
X153298543Y-103726370D01*
X153679058Y-104115398D01*
X153744277Y-104182076D01*
X153903202Y-104344556D01*
X153905089Y-104346528D01*
X153906986Y-104348556D01*
X153908810Y-104350550D01*
X154400163Y-104899500D01*
X154427696Y-104930261D01*
X154485538Y-104994883D01*
X154487284Y-104996878D01*
X154489096Y-104998995D01*
X154490852Y-105001093D01*
X154492637Y-105003275D01*
X154510859Y-105033471D01*
X154516268Y-105046255D01*
X154524262Y-105115666D01*
X154493462Y-105178377D01*
X154492722Y-105179185D01*
X154491593Y-105180416D01*
X154445033Y-105212210D01*
X154442197Y-105213309D01*
X154421577Y-105219307D01*
X154366514Y-105230259D01*
X154366508Y-105230261D01*
X154366498Y-105230264D01*
X154366493Y-105230265D01*
X154366475Y-105230272D01*
X154220833Y-105290598D01*
X154220824Y-105290603D01*
X154220807Y-105290613D01*
X154089708Y-105378211D01*
X154089707Y-105378212D01*
X154089701Y-105378217D01*
X153978217Y-105489701D01*
X153978212Y-105489707D01*
X153978211Y-105489708D01*
X153890613Y-105620807D01*
X153890603Y-105620824D01*
X153890598Y-105620833D01*
X153830264Y-105766496D01*
X153830257Y-105766527D01*
X153799500Y-105921150D01*
X153799500Y-105921153D01*
X153799500Y-106078846D01*
X153799500Y-106078848D01*
X153799499Y-106078848D01*
X153830257Y-106233471D01*
X153830264Y-106233502D01*
X153890598Y-106379165D01*
X153890603Y-106379174D01*
X153890613Y-106379191D01*
X153978211Y-106510290D01*
X153978212Y-106510291D01*
X153978217Y-106510297D01*
X154089701Y-106621781D01*
X154089707Y-106621786D01*
X154089711Y-106621789D01*
X154220814Y-106709390D01*
X154220827Y-106709397D01*
X154366498Y-106769735D01*
X154366503Y-106769737D01*
X154521153Y-106800499D01*
X154521156Y-106800500D01*
X154521158Y-106800500D01*
X154678844Y-106800500D01*
X154678845Y-106800499D01*
X154833497Y-106769737D01*
X154979179Y-106709394D01*
X155110289Y-106621789D01*
X155221789Y-106510289D01*
X155309394Y-106379179D01*
X155311486Y-106374126D01*
X155329494Y-106343772D01*
X155338207Y-106332960D01*
X155395597Y-106293115D01*
X155465408Y-106290619D01*
X155466579Y-106290918D01*
X155518832Y-106318864D01*
X155522083Y-106321787D01*
X155523115Y-106322715D01*
X155539541Y-106340706D01*
X155561041Y-106369487D01*
X155562637Y-106371673D01*
X155564241Y-106373922D01*
X155564243Y-106373924D01*
X155565803Y-106376164D01*
X155833530Y-106769737D01*
X156052152Y-107091122D01*
X156053671Y-107093410D01*
X156053699Y-107093452D01*
X156055175Y-107095730D01*
X156056618Y-107098012D01*
X156510860Y-107833773D01*
X156512278Y-107836128D01*
X156513696Y-107838543D01*
X156515056Y-107840919D01*
X156936294Y-108596031D01*
X156937601Y-108598437D01*
X156938877Y-108600848D01*
X156940136Y-108603291D01*
X157327584Y-109376341D01*
X157328778Y-109378792D01*
X157329795Y-109380937D01*
X157329961Y-109381288D01*
X157331095Y-109383752D01*
X157683973Y-110173191D01*
X157685052Y-110175680D01*
X157686119Y-110178217D01*
X157687150Y-110180745D01*
X158004761Y-110985019D01*
X158005754Y-110987619D01*
X158006705Y-110990195D01*
X158007613Y-110992741D01*
X158289311Y-111810195D01*
X158290165Y-111812763D01*
X158291005Y-111815385D01*
X158291824Y-111818042D01*
X158537117Y-112647263D01*
X158537872Y-112649927D01*
X158538580Y-112652533D01*
X158539264Y-112655163D01*
X158747623Y-113494359D01*
X158748253Y-113497023D01*
X158748862Y-113499730D01*
X158749436Y-113502419D01*
X158920470Y-114350008D01*
X158920987Y-114352726D01*
X158921466Y-114355407D01*
X158921915Y-114358089D01*
X159055298Y-115212465D01*
X159055687Y-115215150D01*
X159056045Y-115217826D01*
X159056382Y-115220579D01*
X159151837Y-116079972D01*
X159152110Y-116082700D01*
X159152356Y-116085472D01*
X159152568Y-116088209D01*
X159209916Y-116950984D01*
X159210068Y-116953738D01*
X159210187Y-116956433D01*
X159210278Y-116959160D01*
X159229454Y-117825726D01*
X159229476Y-117827067D01*
X159229492Y-117828482D01*
X159229500Y-117829884D01*
X159229500Y-119596931D01*
X159229492Y-119598383D01*
X159229475Y-119599835D01*
X159229450Y-119601252D01*
X159209814Y-120449599D01*
X159209723Y-120452276D01*
X159209604Y-120454934D01*
X159209454Y-120457625D01*
X159153211Y-121302481D01*
X159153002Y-121305177D01*
X159152767Y-121307832D01*
X159152503Y-121310487D01*
X159059717Y-122152099D01*
X159059395Y-122154757D01*
X159059044Y-122157413D01*
X159058662Y-122160082D01*
X158929500Y-122996911D01*
X158929069Y-122999517D01*
X158928599Y-123002184D01*
X158928095Y-123004869D01*
X158762815Y-123835263D01*
X158762269Y-123837863D01*
X158761694Y-123840460D01*
X158761078Y-123843105D01*
X158559966Y-124665633D01*
X158559297Y-124668246D01*
X158558612Y-124670805D01*
X158557892Y-124673382D01*
X158321353Y-125486369D01*
X158320582Y-125488917D01*
X158319769Y-125491503D01*
X158318928Y-125494080D01*
X158047386Y-126296083D01*
X158046498Y-126298614D01*
X158045593Y-126301108D01*
X158044648Y-126303628D01*
X157738611Y-127093137D01*
X157737596Y-127095671D01*
X157736580Y-127098130D01*
X157735545Y-127100562D01*
X157395600Y-127876064D01*
X157394488Y-127878528D01*
X157393379Y-127880915D01*
X157392228Y-127883324D01*
X157018998Y-128643394D01*
X157017776Y-128645815D01*
X157016528Y-128648222D01*
X157015277Y-128650571D01*
X156609544Y-129393623D01*
X156608228Y-129395974D01*
X156606849Y-129398374D01*
X156605489Y-129400682D01*
X156167897Y-130125552D01*
X156166496Y-130127817D01*
X156165069Y-130130070D01*
X156163594Y-130132343D01*
X155695038Y-130837533D01*
X155693544Y-130839731D01*
X155691991Y-130841963D01*
X155690416Y-130844175D01*
X155191715Y-131528462D01*
X155190101Y-131530627D01*
X155188462Y-131532776D01*
X155186818Y-131534883D01*
X154658970Y-132196888D01*
X154657257Y-132198989D01*
X154655547Y-132201040D01*
X154653820Y-132203066D01*
X154097746Y-132841636D01*
X154095947Y-132843657D01*
X154094169Y-132845611D01*
X154092353Y-132847565D01*
X153509150Y-133461435D01*
X153507303Y-133463338D01*
X153505419Y-133465238D01*
X153503482Y-133467149D01*
X152894233Y-134055181D01*
X152892294Y-134057012D01*
X152890361Y-134058799D01*
X152888354Y-134060615D01*
X152254181Y-134621724D01*
X152252127Y-134623502D01*
X152250108Y-134625211D01*
X152248062Y-134626905D01*
X151590225Y-135159979D01*
X151588140Y-135161632D01*
X151585994Y-135163296D01*
X151583833Y-135164934D01*
X150903503Y-135669024D01*
X150901339Y-135670591D01*
X150899191Y-135672112D01*
X150896969Y-135673649D01*
X150260599Y-136103756D01*
X150260598Y-136103757D01*
X150195450Y-136147788D01*
X150193237Y-136149250D01*
X150190977Y-136150708D01*
X150188676Y-136152157D01*
X149467263Y-136595471D01*
X149464943Y-136596862D01*
X149462633Y-136598213D01*
X149460316Y-136599535D01*
X148720435Y-137011150D01*
X148718098Y-137012418D01*
X148715701Y-137013685D01*
X148713287Y-137014927D01*
X147956210Y-137394136D01*
X147953756Y-137395331D01*
X147951328Y-137396481D01*
X147948927Y-137397587D01*
X147176179Y-137743625D01*
X147173686Y-137744709D01*
X147171201Y-137745757D01*
X147168744Y-137746762D01*
X146381741Y-138058997D01*
X146379222Y-138059965D01*
X146376672Y-138060913D01*
X146374155Y-138061818D01*
X145608449Y-138327825D01*
X145608149Y-138327929D01*
X145607911Y-138328011D01*
X145589057Y-138332889D01*
X145572701Y-138335773D01*
X145572694Y-138335775D01*
X145551622Y-138345601D01*
X145551502Y-138345344D01*
X145550734Y-138346011D01*
X145544658Y-138348593D01*
X145537342Y-138351474D01*
X145530055Y-138354084D01*
X145507836Y-138361267D01*
X145488773Y-138373606D01*
X145473805Y-138381888D01*
X145453265Y-138391466D01*
X145453259Y-138391469D01*
X145432395Y-138408975D01*
X145420121Y-138418047D01*
X145416977Y-138420084D01*
X145416974Y-138420084D01*
X145416938Y-138420109D01*
X145397213Y-138432878D01*
X145397205Y-138432884D01*
X145381991Y-138449729D01*
X145369681Y-138461599D01*
X145352314Y-138476172D01*
X145352308Y-138476179D01*
X145336685Y-138498488D01*
X145327152Y-138510454D01*
X145308896Y-138530672D01*
X145308888Y-138530684D01*
X145308884Y-138530688D01*
X145301282Y-138545554D01*
X145298554Y-138550889D01*
X145294649Y-138558523D01*
X145276722Y-138584129D01*
X145264784Y-138616923D01*
X145261291Y-138623755D01*
X145248885Y-138648017D01*
X145246789Y-138657808D01*
X145245030Y-138666024D01*
X145242949Y-138674330D01*
X145240588Y-138682538D01*
X145237942Y-138690670D01*
X144685339Y-140208938D01*
X144668672Y-140240047D01*
X144659404Y-140252635D01*
X144603808Y-140294948D01*
X144592905Y-140299114D01*
X144548646Y-140307282D01*
X134455110Y-140307282D01*
X134420169Y-140302257D01*
X134405170Y-140297852D01*
X134346398Y-140260079D01*
X134338752Y-140251255D01*
X134315943Y-140212463D01*
X133796809Y-138786153D01*
X133792017Y-138769415D01*
X133787480Y-138747963D01*
X133771382Y-138716294D01*
X133759234Y-138682917D01*
X133741652Y-138657808D01*
X133727764Y-138630485D01*
X133709046Y-138609656D01*
X133699709Y-138597906D01*
X133696413Y-138593199D01*
X133696410Y-138593195D01*
X133690062Y-138584129D01*
X133683647Y-138574966D01*
X133666854Y-138560875D01*
X133666854Y-138560874D01*
X133666843Y-138560864D01*
X133658879Y-138553566D01*
X133658876Y-138553563D01*
X133654338Y-138548778D01*
X133639678Y-138532465D01*
X133639676Y-138532464D01*
X133639677Y-138532464D01*
X133616221Y-138517200D01*
X133606481Y-138510167D01*
X133605278Y-138509206D01*
X133604143Y-138508254D01*
X133604141Y-138508252D01*
X133582695Y-138490257D01*
X133582692Y-138490255D01*
X133579933Y-138488968D01*
X133579930Y-138488966D01*
X133562813Y-138480984D01*
X133547587Y-138472534D01*
X133529229Y-138460588D01*
X133529223Y-138460584D01*
X133529219Y-138460582D01*
X133529218Y-138460582D01*
X133502612Y-138451908D01*
X133488676Y-138446413D01*
X133484210Y-138444332D01*
X133484208Y-138444330D01*
X133484180Y-138444318D01*
X133463256Y-138434561D01*
X133452596Y-138432681D01*
X133442780Y-138430536D01*
X133433069Y-138427997D01*
X133423461Y-138425064D01*
X132658389Y-138157184D01*
X132655885Y-138156276D01*
X132653303Y-138155309D01*
X132650871Y-138154368D01*
X131859314Y-137838071D01*
X131856907Y-137837079D01*
X131854392Y-137836010D01*
X131851940Y-137834936D01*
X131075015Y-137484715D01*
X131072604Y-137483597D01*
X131070188Y-137482445D01*
X131067765Y-137481258D01*
X130872246Y-137382714D01*
X130306618Y-137097630D01*
X130304256Y-137096407D01*
X130301901Y-137095156D01*
X130299517Y-137093856D01*
X129555797Y-136677651D01*
X129553459Y-136676309D01*
X129551104Y-136674923D01*
X129548810Y-136673539D01*
X128823856Y-136225514D01*
X128821591Y-136224080D01*
X128819342Y-136222622D01*
X128817096Y-136221132D01*
X128112158Y-135742055D01*
X128109954Y-135740521D01*
X128107765Y-135738963D01*
X128105591Y-135737380D01*
X128019059Y-135672919D01*
X127422115Y-135228230D01*
X127419994Y-135226614D01*
X127417886Y-135224972D01*
X127415767Y-135223284D01*
X127141680Y-135000000D01*
X130750000Y-135000000D01*
X132750000Y-135000000D01*
X132750000Y-134278848D01*
X140049499Y-134278848D01*
X140080257Y-134433471D01*
X140080264Y-134433502D01*
X140140598Y-134579165D01*
X140140602Y-134579172D01*
X140140608Y-134579184D01*
X140140613Y-134579191D01*
X140228211Y-134710290D01*
X140228212Y-134710291D01*
X140228217Y-134710297D01*
X140339701Y-134821781D01*
X140339707Y-134821786D01*
X140339711Y-134821789D01*
X140470814Y-134909390D01*
X140470827Y-134909397D01*
X140616498Y-134969735D01*
X140616503Y-134969737D01*
X140771153Y-135000499D01*
X140771156Y-135000500D01*
X140771158Y-135000500D01*
X140928844Y-135000500D01*
X140928845Y-135000499D01*
X141083497Y-134969737D01*
X141229179Y-134909394D01*
X141274894Y-134878848D01*
X143099499Y-134878848D01*
X143130257Y-135033471D01*
X143130264Y-135033502D01*
X143190598Y-135179165D01*
X143190603Y-135179174D01*
X143190613Y-135179191D01*
X143278211Y-135310290D01*
X143278212Y-135310291D01*
X143278217Y-135310297D01*
X143389701Y-135421781D01*
X143389707Y-135421786D01*
X143389711Y-135421789D01*
X143520814Y-135509390D01*
X143520827Y-135509397D01*
X143666498Y-135569735D01*
X143666503Y-135569737D01*
X143821153Y-135600499D01*
X143821156Y-135600500D01*
X143821158Y-135600500D01*
X143978844Y-135600500D01*
X143978845Y-135600499D01*
X144133497Y-135569737D01*
X144279179Y-135509394D01*
X144279182Y-135509391D01*
X144280850Y-135508701D01*
X144291244Y-135504929D01*
X144313041Y-135498104D01*
X144382894Y-135496857D01*
X144399247Y-135501343D01*
X144412920Y-135506789D01*
X144412929Y-135506763D01*
X144415063Y-135507473D01*
X144415227Y-135507078D01*
X144417243Y-135507913D01*
X144421239Y-135509716D01*
X144424866Y-135511070D01*
X144566498Y-135569735D01*
X144566503Y-135569737D01*
X144721153Y-135600499D01*
X144721156Y-135600500D01*
X144721158Y-135600500D01*
X144878844Y-135600500D01*
X144878845Y-135600499D01*
X145033497Y-135569737D01*
X145179179Y-135509394D01*
X145310289Y-135421789D01*
X145421789Y-135310289D01*
X145509394Y-135179179D01*
X145569737Y-135033497D01*
X145600500Y-134878842D01*
X145600500Y-134850157D01*
X145605522Y-134815224D01*
X145609433Y-134801905D01*
X145647206Y-134743128D01*
X145710758Y-134714103D01*
X145710966Y-134714073D01*
X145715959Y-134713356D01*
X145781048Y-134721534D01*
X145914570Y-134776841D01*
X146069220Y-134807603D01*
X146069223Y-134807604D01*
X146069225Y-134807604D01*
X146226911Y-134807604D01*
X146226912Y-134807603D01*
X146381564Y-134776841D01*
X146516008Y-134721153D01*
X146527239Y-134716501D01*
X146527239Y-134716500D01*
X146527246Y-134716498D01*
X146527250Y-134716495D01*
X146529585Y-134715528D01*
X146529600Y-134715522D01*
X146538858Y-134711687D01*
X146547742Y-134702802D01*
X146658356Y-134628893D01*
X146769856Y-134517393D01*
X146857461Y-134386283D01*
X146917804Y-134240601D01*
X146948567Y-134085946D01*
X146948567Y-133928262D01*
X146948567Y-133928259D01*
X146948567Y-133928075D01*
X146948131Y-133926070D01*
X146917805Y-133773612D01*
X146917804Y-133773608D01*
X146917801Y-133773600D01*
X146857463Y-133627929D01*
X146857462Y-133627927D01*
X146857461Y-133627925D01*
X146857460Y-133627924D01*
X146856544Y-133625915D01*
X146856733Y-133625828D01*
X146850652Y-133610760D01*
X146844764Y-133591956D01*
X146843517Y-133522103D01*
X146843519Y-133522095D01*
X146847122Y-133508964D01*
X146855437Y-133490759D01*
X146854721Y-133490463D01*
X146919735Y-133333501D01*
X146919737Y-133333497D01*
X146950500Y-133178842D01*
X146950500Y-133021158D01*
X146950500Y-133021155D01*
X146950500Y-133020976D01*
X146950074Y-133019018D01*
X146923667Y-132886261D01*
X146923464Y-132885242D01*
X146922095Y-132878357D01*
X146919737Y-132866503D01*
X146877246Y-132763921D01*
X146868519Y-132729726D01*
X146865707Y-132703573D01*
X146874434Y-132642867D01*
X146918054Y-132537557D01*
X146919221Y-132535001D01*
X146919730Y-132533510D01*
X146919735Y-132533501D01*
X146919737Y-132533497D01*
X146950499Y-132378848D01*
X146950500Y-132378844D01*
X146950500Y-132220976D01*
X146950076Y-132219027D01*
X146946702Y-132202063D01*
X146919742Y-132066527D01*
X146919739Y-132066510D01*
X146919736Y-132066501D01*
X146877247Y-131963922D01*
X146868519Y-131929726D01*
X146865707Y-131903573D01*
X146874434Y-131842867D01*
X146918054Y-131737557D01*
X146919221Y-131735001D01*
X146919730Y-131733510D01*
X146919735Y-131733501D01*
X146919737Y-131733497D01*
X146950499Y-131578848D01*
X146950500Y-131578844D01*
X146950500Y-131420973D01*
X146950065Y-131418972D01*
X146920788Y-131271789D01*
X146920785Y-131271774D01*
X146919737Y-131266503D01*
X146916631Y-131259005D01*
X146907902Y-131224807D01*
X146906693Y-131213564D01*
X146919097Y-131144804D01*
X146966706Y-131093666D01*
X147034396Y-131076385D01*
X147035723Y-131076432D01*
X147042064Y-131076658D01*
X147085093Y-131086016D01*
X147166498Y-131119735D01*
X147166503Y-131119737D01*
X147166506Y-131119737D01*
X147166507Y-131119738D01*
X147214459Y-131129276D01*
X147321153Y-131150499D01*
X147321156Y-131150500D01*
X147321158Y-131150500D01*
X147478844Y-131150500D01*
X147478845Y-131150499D01*
X147633497Y-131119737D01*
X147688580Y-131096920D01*
X147698031Y-131093006D01*
X147698032Y-131093006D01*
X147761078Y-131066892D01*
X147795271Y-131058164D01*
X147821427Y-131055352D01*
X147882132Y-131064079D01*
X148016498Y-131119735D01*
X148016503Y-131119737D01*
X148171153Y-131150499D01*
X148171156Y-131150500D01*
X148171158Y-131150500D01*
X148328844Y-131150500D01*
X148328845Y-131150499D01*
X148483497Y-131119737D01*
X148629179Y-131059394D01*
X148629182Y-131059391D01*
X148630850Y-131058701D01*
X148641244Y-131054929D01*
X148663041Y-131048104D01*
X148732894Y-131046857D01*
X148749247Y-131051343D01*
X148762920Y-131056789D01*
X148762929Y-131056763D01*
X148765063Y-131057473D01*
X148765227Y-131057078D01*
X148767243Y-131057913D01*
X148771239Y-131059716D01*
X148774866Y-131061070D01*
X148916498Y-131119735D01*
X148916503Y-131119737D01*
X149071153Y-131150499D01*
X149071156Y-131150500D01*
X149071158Y-131150500D01*
X149228844Y-131150500D01*
X149228845Y-131150499D01*
X149383497Y-131119737D01*
X149529179Y-131059394D01*
X149529182Y-131059391D01*
X149530850Y-131058701D01*
X149541244Y-131054929D01*
X149563041Y-131048104D01*
X149632894Y-131046857D01*
X149649247Y-131051343D01*
X149662920Y-131056789D01*
X149662929Y-131056763D01*
X149665063Y-131057473D01*
X149665227Y-131057078D01*
X149667243Y-131057913D01*
X149671239Y-131059716D01*
X149674866Y-131061070D01*
X149816498Y-131119735D01*
X149816503Y-131119737D01*
X149971153Y-131150499D01*
X149971156Y-131150500D01*
X149971158Y-131150500D01*
X150128844Y-131150500D01*
X150128845Y-131150499D01*
X150283497Y-131119737D01*
X150429179Y-131059394D01*
X150560289Y-130971789D01*
X150671789Y-130860289D01*
X150759394Y-130729179D01*
X150819737Y-130583497D01*
X150850500Y-130428842D01*
X150850500Y-130271158D01*
X150850500Y-130271155D01*
X150850500Y-130270973D01*
X150850065Y-130268972D01*
X150824353Y-130139711D01*
X150824352Y-130139708D01*
X150824352Y-130139707D01*
X150819737Y-130116503D01*
X150819735Y-130116498D01*
X150766891Y-129988921D01*
X150758164Y-129954726D01*
X150756646Y-129940609D01*
X150755352Y-129928571D01*
X150764079Y-129867867D01*
X150818054Y-129737557D01*
X150819221Y-129735001D01*
X150819730Y-129733510D01*
X150819735Y-129733501D01*
X150819737Y-129733497D01*
X150850499Y-129578848D01*
X150850500Y-129578844D01*
X150850500Y-129420971D01*
X150850064Y-129418966D01*
X150819739Y-129266510D01*
X150819736Y-129266501D01*
X150777247Y-129163922D01*
X150768519Y-129129726D01*
X150765707Y-129103573D01*
X150774435Y-129042865D01*
X150791984Y-129000499D01*
X150793940Y-128995778D01*
X150801235Y-128978165D01*
X150819737Y-128933497D01*
X150850500Y-128778842D01*
X150850500Y-128621158D01*
X150850500Y-128621155D01*
X150850500Y-128620973D01*
X150850065Y-128618972D01*
X150842151Y-128579185D01*
X150820395Y-128469815D01*
X150819984Y-128467406D01*
X150819737Y-128466505D01*
X150819737Y-128466503D01*
X150813109Y-128450501D01*
X150766891Y-128338921D01*
X150758164Y-128304726D01*
X150755382Y-128278848D01*
X150755352Y-128278571D01*
X150764079Y-128217867D01*
X150818054Y-128087557D01*
X150819221Y-128085001D01*
X150819730Y-128083510D01*
X150819735Y-128083501D01*
X150819737Y-128083497D01*
X150850499Y-127928848D01*
X150850500Y-127928844D01*
X150850500Y-127770973D01*
X150850065Y-127768972D01*
X150834298Y-127689707D01*
X150819737Y-127616503D01*
X150819735Y-127616498D01*
X150759397Y-127470827D01*
X150759390Y-127470814D01*
X150671789Y-127339711D01*
X150671786Y-127339707D01*
X150671781Y-127339701D01*
X150560297Y-127228217D01*
X150560291Y-127228212D01*
X150560290Y-127228211D01*
X150429191Y-127140613D01*
X150429190Y-127140612D01*
X150429185Y-127140609D01*
X150429172Y-127140602D01*
X150429165Y-127140598D01*
X150283502Y-127080264D01*
X150283471Y-127080257D01*
X150128847Y-127049500D01*
X150128845Y-127049500D01*
X150128842Y-127049500D01*
X149971158Y-127049500D01*
X149971155Y-127049500D01*
X149971153Y-127049500D01*
X149816527Y-127080257D01*
X149816501Y-127080263D01*
X149816499Y-127080263D01*
X149816498Y-127080264D01*
X149670822Y-127140604D01*
X149669137Y-127141302D01*
X149658729Y-127145077D01*
X149636949Y-127151895D01*
X149567098Y-127153139D01*
X149550375Y-127148551D01*
X149531301Y-127141247D01*
X149531178Y-127141517D01*
X149529167Y-127140599D01*
X149383502Y-127080264D01*
X149383471Y-127080257D01*
X149228847Y-127049500D01*
X149228845Y-127049500D01*
X149228842Y-127049500D01*
X149071158Y-127049500D01*
X149071155Y-127049500D01*
X149071153Y-127049500D01*
X148916527Y-127080257D01*
X148916501Y-127080263D01*
X148916499Y-127080263D01*
X148916498Y-127080264D01*
X148770822Y-127140604D01*
X148769137Y-127141302D01*
X148758729Y-127145077D01*
X148736949Y-127151895D01*
X148667098Y-127153139D01*
X148650375Y-127148551D01*
X148631301Y-127141247D01*
X148631178Y-127141517D01*
X148629167Y-127140599D01*
X148483502Y-127080264D01*
X148483471Y-127080257D01*
X148328847Y-127049500D01*
X148328845Y-127049500D01*
X148328842Y-127049500D01*
X148171158Y-127049500D01*
X148171155Y-127049500D01*
X148171153Y-127049500D01*
X148016527Y-127080257D01*
X148016511Y-127080260D01*
X148016510Y-127080261D01*
X148016498Y-127080264D01*
X147955144Y-127105677D01*
X147888920Y-127133108D01*
X147854726Y-127141835D01*
X147828576Y-127144647D01*
X147767866Y-127135919D01*
X147633502Y-127080264D01*
X147633471Y-127080257D01*
X147478847Y-127049500D01*
X147478845Y-127049500D01*
X147478842Y-127049500D01*
X147321158Y-127049500D01*
X147321155Y-127049500D01*
X147321153Y-127049500D01*
X147166527Y-127080257D01*
X147166511Y-127080260D01*
X147166510Y-127080261D01*
X147166498Y-127080264D01*
X147105144Y-127105677D01*
X147038920Y-127133108D01*
X147004726Y-127141835D01*
X146978576Y-127144647D01*
X146917866Y-127135919D01*
X146783502Y-127080264D01*
X146783471Y-127080257D01*
X146628847Y-127049500D01*
X146628845Y-127049500D01*
X146628842Y-127049500D01*
X146471158Y-127049500D01*
X146471155Y-127049500D01*
X146471153Y-127049500D01*
X146316527Y-127080257D01*
X146316496Y-127080264D01*
X146170833Y-127140598D01*
X146170824Y-127140603D01*
X146170807Y-127140613D01*
X146039708Y-127228211D01*
X146039707Y-127228212D01*
X146039701Y-127228217D01*
X145928217Y-127339701D01*
X145928212Y-127339707D01*
X145928211Y-127339708D01*
X145840613Y-127470807D01*
X145840603Y-127470824D01*
X145840598Y-127470833D01*
X145780264Y-127616496D01*
X145780257Y-127616527D01*
X145749500Y-127771150D01*
X145749500Y-127771153D01*
X145749500Y-127928846D01*
X145749500Y-127928848D01*
X145749499Y-127928848D01*
X145780257Y-128083471D01*
X145780264Y-128083502D01*
X145833107Y-128211078D01*
X145841835Y-128245273D01*
X145844647Y-128271424D01*
X145835919Y-128332133D01*
X145780264Y-128466496D01*
X145780257Y-128466527D01*
X145749500Y-128621150D01*
X145749500Y-128621153D01*
X145749500Y-128778846D01*
X145749500Y-128778848D01*
X145749499Y-128778848D01*
X145776506Y-128914612D01*
X145780261Y-128933489D01*
X145780264Y-128933501D01*
X145822752Y-129036077D01*
X145831479Y-129070273D01*
X145834291Y-129096426D01*
X145825563Y-129157134D01*
X145780264Y-129266496D01*
X145780257Y-129266527D01*
X145749500Y-129421150D01*
X145749500Y-129421153D01*
X145749500Y-129578846D01*
X145749500Y-129578848D01*
X145749499Y-129578848D01*
X145780257Y-129733471D01*
X145780264Y-129733502D01*
X145833107Y-129861078D01*
X145841835Y-129895273D01*
X145844647Y-129921424D01*
X145835919Y-129982133D01*
X145780264Y-130116496D01*
X145780257Y-130116527D01*
X145749500Y-130271150D01*
X145749500Y-130271153D01*
X145749500Y-130428846D01*
X145749500Y-130428848D01*
X145749499Y-130428848D01*
X145780257Y-130583471D01*
X145780263Y-130583497D01*
X145780264Y-130583499D01*
X145799640Y-130630278D01*
X145808369Y-130664477D01*
X145810040Y-130680022D01*
X145797633Y-130748781D01*
X145797632Y-130748784D01*
X145794344Y-130755352D01*
X145752353Y-130802945D01*
X145639709Y-130878211D01*
X145639704Y-130878214D01*
X145528217Y-130989701D01*
X145528212Y-130989707D01*
X145528211Y-130989708D01*
X145440613Y-131120807D01*
X145440603Y-131120824D01*
X145440598Y-131120833D01*
X145380264Y-131266496D01*
X145380257Y-131266527D01*
X145349500Y-131421150D01*
X145349500Y-131421153D01*
X145349500Y-131578846D01*
X145349500Y-131578848D01*
X145349499Y-131578848D01*
X145380257Y-131733471D01*
X145380261Y-131733489D01*
X145380264Y-131733501D01*
X145381949Y-131737568D01*
X145422752Y-131836077D01*
X145431479Y-131870273D01*
X145434291Y-131896426D01*
X145425563Y-131957134D01*
X145380264Y-132066496D01*
X145380257Y-132066527D01*
X145349500Y-132221150D01*
X145349500Y-132221153D01*
X145349500Y-132378846D01*
X145349500Y-132378848D01*
X145349499Y-132378848D01*
X145380257Y-132533471D01*
X145380261Y-132533489D01*
X145380264Y-132533501D01*
X145381949Y-132537568D01*
X145422752Y-132636077D01*
X145431479Y-132670273D01*
X145434291Y-132696426D01*
X145425563Y-132757134D01*
X145380264Y-132866496D01*
X145380257Y-132866527D01*
X145349500Y-133021150D01*
X145349500Y-133021153D01*
X145349500Y-133178846D01*
X145349500Y-133178848D01*
X145349499Y-133178848D01*
X145380257Y-133333471D01*
X145380264Y-133333502D01*
X145442572Y-133483929D01*
X145442341Y-133484024D01*
X145447460Y-133496492D01*
X145453301Y-133515148D01*
X145454546Y-133585007D01*
X145454544Y-133585012D01*
X145450711Y-133598980D01*
X145440200Y-133624741D01*
X145440208Y-133624745D01*
X145440147Y-133624869D01*
X145439534Y-133626374D01*
X145438668Y-133627932D01*
X145438665Y-133627937D01*
X145378331Y-133773600D01*
X145378324Y-133773631D01*
X145347567Y-133928254D01*
X145347567Y-133956945D01*
X145342542Y-133991886D01*
X145338631Y-134005203D01*
X145300854Y-134063979D01*
X145237296Y-134093001D01*
X145237295Y-134093001D01*
X145232111Y-134093746D01*
X145167020Y-134085568D01*
X145033502Y-134030264D01*
X145033471Y-134030257D01*
X144878847Y-133999500D01*
X144878845Y-133999500D01*
X144878842Y-133999500D01*
X144721158Y-133999500D01*
X144721155Y-133999500D01*
X144721153Y-133999500D01*
X144566527Y-134030257D01*
X144566501Y-134030263D01*
X144566499Y-134030263D01*
X144566498Y-134030264D01*
X144420822Y-134090604D01*
X144419137Y-134091302D01*
X144408729Y-134095077D01*
X144386949Y-134101895D01*
X144317098Y-134103139D01*
X144300375Y-134098551D01*
X144281301Y-134091247D01*
X144281178Y-134091517D01*
X144279167Y-134090599D01*
X144133502Y-134030264D01*
X144133471Y-134030257D01*
X143978847Y-133999500D01*
X143978845Y-133999500D01*
X143978842Y-133999500D01*
X143821158Y-133999500D01*
X143821155Y-133999500D01*
X143821153Y-133999500D01*
X143666527Y-134030257D01*
X143666496Y-134030264D01*
X143520833Y-134090598D01*
X143520824Y-134090603D01*
X143520807Y-134090613D01*
X143389708Y-134178211D01*
X143389707Y-134178212D01*
X143389701Y-134178217D01*
X143278217Y-134289701D01*
X143278212Y-134289707D01*
X143278211Y-134289708D01*
X143190613Y-134420807D01*
X143190603Y-134420824D01*
X143190598Y-134420833D01*
X143130264Y-134566496D01*
X143130257Y-134566527D01*
X143099500Y-134721150D01*
X143099500Y-134721153D01*
X143099500Y-134878846D01*
X143099500Y-134878848D01*
X143099499Y-134878848D01*
X141274894Y-134878848D01*
X141360289Y-134821789D01*
X141471789Y-134710289D01*
X141490986Y-134681559D01*
X141514632Y-134646171D01*
X141514632Y-134646170D01*
X141530966Y-134621724D01*
X141559394Y-134579179D01*
X141619737Y-134433497D01*
X141650500Y-134278842D01*
X141650500Y-134121158D01*
X141650500Y-134121155D01*
X141650500Y-134120973D01*
X141650065Y-134118972D01*
X141648219Y-134109694D01*
X141632419Y-134030261D01*
X141619737Y-133966503D01*
X141603895Y-133928257D01*
X141602989Y-133926070D01*
X141559402Y-133820840D01*
X141559399Y-133820833D01*
X141559397Y-133820827D01*
X141559390Y-133820814D01*
X141471789Y-133689711D01*
X141471786Y-133689707D01*
X141471781Y-133689701D01*
X141360297Y-133578217D01*
X141360291Y-133578212D01*
X141360290Y-133578211D01*
X141229191Y-133490613D01*
X141229190Y-133490612D01*
X141229185Y-133490609D01*
X141229172Y-133490602D01*
X141229165Y-133490598D01*
X141083502Y-133430264D01*
X141083471Y-133430257D01*
X140928847Y-133399500D01*
X140928845Y-133399500D01*
X140928842Y-133399500D01*
X140771158Y-133399500D01*
X140771155Y-133399500D01*
X140771153Y-133399500D01*
X140616527Y-133430257D01*
X140616496Y-133430264D01*
X140470833Y-133490598D01*
X140470824Y-133490603D01*
X140470807Y-133490613D01*
X140339708Y-133578211D01*
X140339707Y-133578212D01*
X140339701Y-133578217D01*
X140228217Y-133689701D01*
X140228212Y-133689707D01*
X140228211Y-133689708D01*
X140140613Y-133820807D01*
X140140603Y-133820824D01*
X140140598Y-133820833D01*
X140080264Y-133966496D01*
X140080257Y-133966527D01*
X140049500Y-134121150D01*
X140049500Y-134121153D01*
X140049500Y-134278846D01*
X140049500Y-134278848D01*
X140049499Y-134278848D01*
X132750000Y-134278848D01*
X132750000Y-133100000D01*
X130750000Y-133100000D01*
X130750000Y-135000000D01*
X127141680Y-135000000D01*
X126754979Y-134684976D01*
X126752938Y-134683277D01*
X126750855Y-134681503D01*
X126748868Y-134679774D01*
X126711087Y-134646170D01*
X126310325Y-134289711D01*
X126112039Y-134113345D01*
X126110061Y-134111547D01*
X126108066Y-134109694D01*
X126106136Y-134107862D01*
X126089684Y-134091899D01*
X126088354Y-134090609D01*
X125607332Y-133623888D01*
X125494478Y-133514389D01*
X125492572Y-133512500D01*
X125490677Y-133510580D01*
X125488807Y-133508644D01*
X125134580Y-133133807D01*
X124903394Y-132889170D01*
X124901584Y-132887213D01*
X124901301Y-132886900D01*
X124899765Y-132885203D01*
X124898004Y-132883213D01*
X124883527Y-132866499D01*
X124742412Y-132703573D01*
X124340016Y-132238984D01*
X124338282Y-132236938D01*
X124336571Y-132234874D01*
X124334875Y-132232782D01*
X123805343Y-131564993D01*
X123803706Y-131562882D01*
X123802070Y-131560725D01*
X123800459Y-131558553D01*
X123783306Y-131534883D01*
X123416552Y-131028777D01*
X123416552Y-131028776D01*
X123416551Y-131028776D01*
X123388242Y-130989711D01*
X123300357Y-130868432D01*
X123298806Y-130866242D01*
X123297252Y-130863996D01*
X123295756Y-130861784D01*
X123207948Y-130728846D01*
X123144906Y-130633403D01*
X123103787Y-130571150D01*
X132449500Y-130571150D01*
X132449500Y-130728846D01*
X132480257Y-130883471D01*
X132480264Y-130883502D01*
X132540598Y-131029165D01*
X132540603Y-131029174D01*
X132540613Y-131029191D01*
X132628211Y-131160290D01*
X132628212Y-131160291D01*
X132628217Y-131160297D01*
X132739701Y-131271781D01*
X132739707Y-131271786D01*
X132739711Y-131271789D01*
X132870814Y-131359390D01*
X132870827Y-131359397D01*
X133016498Y-131419735D01*
X133016503Y-131419737D01*
X133171153Y-131450499D01*
X133171156Y-131450500D01*
X133171158Y-131450500D01*
X133328844Y-131450500D01*
X133328845Y-131450499D01*
X133483497Y-131419737D01*
X133629179Y-131359394D01*
X133760289Y-131271789D01*
X133871789Y-131160289D01*
X133959394Y-131029179D01*
X134019737Y-130883497D01*
X134050500Y-130728842D01*
X134050500Y-130571158D01*
X134050500Y-130571155D01*
X134050500Y-130570973D01*
X134050065Y-130568972D01*
X134022192Y-130428848D01*
X134022192Y-130428846D01*
X134022191Y-130428842D01*
X134019737Y-130416503D01*
X133959545Y-130271185D01*
X133959543Y-130271167D01*
X133959539Y-130271169D01*
X133959399Y-130270832D01*
X133959397Y-130270827D01*
X133959390Y-130270814D01*
X133871789Y-130139711D01*
X133871786Y-130139707D01*
X133871785Y-130139705D01*
X133760297Y-130028217D01*
X133760291Y-130028212D01*
X133760290Y-130028211D01*
X133629191Y-129940613D01*
X133629190Y-129940612D01*
X133629185Y-129940609D01*
X133629172Y-129940602D01*
X133629165Y-129940598D01*
X133483502Y-129880264D01*
X133483471Y-129880257D01*
X133328847Y-129849500D01*
X133328845Y-129849500D01*
X133328842Y-129849500D01*
X133171158Y-129849500D01*
X133171155Y-129849500D01*
X133171153Y-129849500D01*
X133016527Y-129880257D01*
X133016496Y-129880264D01*
X132870833Y-129940598D01*
X132870824Y-129940603D01*
X132870807Y-129940613D01*
X132739708Y-130028211D01*
X132739707Y-130028212D01*
X132739701Y-130028217D01*
X132628217Y-130139701D01*
X132628214Y-130139705D01*
X132540613Y-130270807D01*
X132540603Y-130270824D01*
X132540598Y-130270833D01*
X132480264Y-130416496D01*
X132480257Y-130416527D01*
X132449500Y-130571150D01*
X123103787Y-130571150D01*
X122826038Y-130150648D01*
X122824578Y-130148384D01*
X122823122Y-130146072D01*
X122821745Y-130143832D01*
X122819272Y-130139711D01*
X122388176Y-129421158D01*
X122383239Y-129412929D01*
X122381912Y-129410660D01*
X122380568Y-129408305D01*
X122379295Y-129406017D01*
X121972862Y-128656769D01*
X121971689Y-128654551D01*
X121970374Y-128651996D01*
X121969198Y-128649646D01*
X121969064Y-128649372D01*
X121889803Y-128486818D01*
X121788396Y-128278848D01*
X133699499Y-128278848D01*
X133730257Y-128433471D01*
X133730264Y-128433502D01*
X133790598Y-128579165D01*
X133790603Y-128579174D01*
X133790613Y-128579191D01*
X133878211Y-128710290D01*
X133878212Y-128710291D01*
X133878217Y-128710297D01*
X133989701Y-128821781D01*
X133989707Y-128821786D01*
X133989711Y-128821789D01*
X134120814Y-128909390D01*
X134120827Y-128909397D01*
X134266498Y-128969735D01*
X134266503Y-128969737D01*
X134421153Y-129000499D01*
X134421156Y-129000500D01*
X134421158Y-129000500D01*
X134578844Y-129000500D01*
X134578845Y-129000499D01*
X134733497Y-128969737D01*
X134821008Y-128933489D01*
X134866593Y-128914607D01*
X134889834Y-128907557D01*
X134913342Y-128902881D01*
X134937528Y-128900500D01*
X136711380Y-128900500D01*
X136711443Y-128900501D01*
X136713347Y-128900501D01*
X136720943Y-128900501D01*
X136879054Y-128900501D01*
X136879057Y-128900501D01*
X137031785Y-128859577D01*
X137097235Y-128821789D01*
X137168716Y-128780520D01*
X137280520Y-128668716D01*
X137280520Y-128668715D01*
X137297956Y-128651279D01*
X137297960Y-128651272D01*
X137449811Y-128499421D01*
X137478063Y-128478273D01*
X137501157Y-128465663D01*
X137560577Y-128450500D01*
X140311380Y-128450500D01*
X140311443Y-128450501D01*
X140313347Y-128450501D01*
X140320943Y-128450501D01*
X140479054Y-128450501D01*
X140479057Y-128450501D01*
X140631785Y-128409577D01*
X140684647Y-128379057D01*
X140684648Y-128379057D01*
X140765524Y-128332362D01*
X140771018Y-128329407D01*
X140774143Y-128327386D01*
X140799211Y-128312912D01*
X140819328Y-128279907D01*
X140880520Y-128218716D01*
X140880520Y-128218714D01*
X140890724Y-128208511D01*
X140890728Y-128208506D01*
X141651274Y-127447960D01*
X141651277Y-127447958D01*
X141668715Y-127430520D01*
X141668716Y-127430520D01*
X141780520Y-127318716D01*
X141849349Y-127199500D01*
X141859577Y-127181785D01*
X141900500Y-127029058D01*
X141900500Y-126870943D01*
X141900500Y-124992329D01*
X141905523Y-124957393D01*
X141909927Y-124942395D01*
X141947672Y-124883644D01*
X141949041Y-124882457D01*
X142003920Y-124854977D01*
X142011479Y-124853333D01*
X142037832Y-124850500D01*
X142082964Y-124850500D01*
X142090814Y-124848118D01*
X142233497Y-124819737D01*
X142342721Y-124774493D01*
X142376912Y-124765768D01*
X142393290Y-124764007D01*
X142397774Y-124763525D01*
X142457461Y-124771835D01*
X142463697Y-124774353D01*
X142486151Y-124786228D01*
X142505234Y-124798979D01*
X142520821Y-124809394D01*
X142520823Y-124809395D01*
X142520827Y-124809397D01*
X142620060Y-124850500D01*
X142666503Y-124869737D01*
X142807821Y-124897847D01*
X142813528Y-124898982D01*
X142813530Y-124898983D01*
X142816246Y-124899703D01*
X142821155Y-124900500D01*
X142978844Y-124900500D01*
X142982964Y-124900500D01*
X142990814Y-124898118D01*
X143133497Y-124869737D01*
X143257834Y-124818235D01*
X143279172Y-124809397D01*
X143279172Y-124809396D01*
X143279179Y-124809394D01*
X143410289Y-124721789D01*
X143521789Y-124610289D01*
X143609394Y-124479179D01*
X143669737Y-124333497D01*
X143700500Y-124178842D01*
X143700500Y-123228848D01*
X147899499Y-123228848D01*
X147930257Y-123383471D01*
X147930264Y-123383502D01*
X147983107Y-123511078D01*
X147991835Y-123545273D01*
X147994647Y-123571424D01*
X147985919Y-123632133D01*
X147930264Y-123766496D01*
X147930264Y-123766498D01*
X147930261Y-123766510D01*
X147922025Y-123807914D01*
X147899500Y-123921150D01*
X147899500Y-123921153D01*
X147899500Y-124078846D01*
X147899500Y-124078848D01*
X147899499Y-124078848D01*
X147930257Y-124233471D01*
X147930264Y-124233502D01*
X147990598Y-124379165D01*
X147990603Y-124379174D01*
X147990613Y-124379191D01*
X148078211Y-124510290D01*
X148078212Y-124510291D01*
X148078217Y-124510297D01*
X148189701Y-124621781D01*
X148189707Y-124621786D01*
X148189711Y-124621789D01*
X148320814Y-124709390D01*
X148320827Y-124709397D01*
X148320829Y-124709397D01*
X148320833Y-124709400D01*
X148350744Y-124721789D01*
X148459277Y-124766744D01*
X148466503Y-124769737D01*
X148614832Y-124799241D01*
X148616121Y-124799527D01*
X148616523Y-124799748D01*
X148621155Y-124800500D01*
X148778844Y-124800500D01*
X148782964Y-124800500D01*
X148790814Y-124798118D01*
X148933497Y-124769737D01*
X149079179Y-124709394D01*
X149079182Y-124709391D01*
X149080850Y-124708701D01*
X149091244Y-124704929D01*
X149113041Y-124698104D01*
X149182894Y-124696857D01*
X149199247Y-124701343D01*
X149212929Y-124706793D01*
X149212939Y-124706766D01*
X149215063Y-124707473D01*
X149215227Y-124707078D01*
X149217243Y-124707913D01*
X149221240Y-124709716D01*
X149224873Y-124711073D01*
X149359277Y-124766744D01*
X149366503Y-124769737D01*
X149366504Y-124769737D01*
X149366505Y-124769738D01*
X149471453Y-124790613D01*
X149513513Y-124798979D01*
X149516247Y-124799703D01*
X149521155Y-124800500D01*
X149678844Y-124800500D01*
X149682964Y-124800500D01*
X149690814Y-124798118D01*
X149833497Y-124769737D01*
X149979179Y-124709394D01*
X150110289Y-124621789D01*
X150221789Y-124510289D01*
X150309394Y-124379179D01*
X150369737Y-124233497D01*
X150400500Y-124078842D01*
X150400500Y-123921158D01*
X150400500Y-123921155D01*
X150400500Y-123920971D01*
X150400064Y-123918966D01*
X150384716Y-123841807D01*
X150379940Y-123817799D01*
X150369737Y-123766503D01*
X150316892Y-123638922D01*
X150308164Y-123604726D01*
X150305352Y-123578573D01*
X150314079Y-123517867D01*
X150368054Y-123387557D01*
X150369221Y-123385001D01*
X150369730Y-123383510D01*
X150369735Y-123383501D01*
X150369737Y-123383497D01*
X150400499Y-123228848D01*
X150400500Y-123228844D01*
X150400500Y-123070973D01*
X150400065Y-123068972D01*
X150386521Y-123000883D01*
X150369737Y-122916503D01*
X150344614Y-122855853D01*
X150340258Y-122815340D01*
X150335181Y-122784011D01*
X150349795Y-122750433D01*
X150350243Y-122749160D01*
X150350774Y-122748182D01*
X150363064Y-122719946D01*
X150421157Y-122681126D01*
X150491015Y-122679876D01*
X150523377Y-122693961D01*
X150527737Y-122696654D01*
X150550257Y-122714472D01*
X150582528Y-122746744D01*
X150582533Y-122746748D01*
X150582534Y-122746749D01*
X150582537Y-122746751D01*
X150746315Y-122856185D01*
X150746328Y-122856192D01*
X150746330Y-122856192D01*
X150746334Y-122856195D01*
X150882811Y-122912724D01*
X150928306Y-122931569D01*
X150928318Y-122931572D01*
X151113862Y-122968479D01*
X151118533Y-122969408D01*
X151120768Y-122969909D01*
X151121506Y-122970000D01*
X151121508Y-122970000D01*
X151520000Y-122970000D01*
X151520000Y-122394000D01*
X151539685Y-122326961D01*
X151592489Y-122281206D01*
X151644000Y-122270000D01*
X151896000Y-122270000D01*
X151963039Y-122289685D01*
X152008794Y-122342489D01*
X152020000Y-122394000D01*
X152020000Y-122970000D01*
X152418492Y-122970000D01*
X152418493Y-122970000D01*
X152423401Y-122969203D01*
X152426130Y-122968480D01*
X152611681Y-122931572D01*
X152611693Y-122931569D01*
X152793671Y-122856192D01*
X152793684Y-122856185D01*
X152957462Y-122746751D01*
X152957466Y-122746748D01*
X153096748Y-122607466D01*
X153096751Y-122607462D01*
X153206185Y-122443684D01*
X153206192Y-122443671D01*
X153207465Y-122440599D01*
X153218019Y-122415117D01*
X153281569Y-122261692D01*
X153281569Y-122261690D01*
X153289862Y-122220000D01*
X152725195Y-122220000D01*
X152658156Y-122200315D01*
X152612401Y-122147511D01*
X152602457Y-122078353D01*
X152605415Y-122063926D01*
X152620000Y-122009496D01*
X152620000Y-121930504D01*
X152605420Y-121876089D01*
X152607083Y-121806244D01*
X152646245Y-121748381D01*
X152710473Y-121720877D01*
X152725195Y-121720000D01*
X153289861Y-121720000D01*
X153289862Y-121720000D01*
X153289862Y-121719999D01*
X154580137Y-121719999D01*
X154580138Y-121720000D01*
X155144805Y-121720000D01*
X155211844Y-121739685D01*
X155257599Y-121792489D01*
X155267543Y-121861647D01*
X155264584Y-121876073D01*
X155250000Y-121930504D01*
X155250000Y-122009496D01*
X155264579Y-122063910D01*
X155262917Y-122133756D01*
X155223755Y-122191619D01*
X155159527Y-122219123D01*
X155144805Y-122220000D01*
X154580138Y-122220000D01*
X154586048Y-122249713D01*
X154586048Y-122249715D01*
X154588431Y-122261695D01*
X154663803Y-122443664D01*
X154663808Y-122443673D01*
X154663818Y-122443690D01*
X154773249Y-122607464D01*
X154773250Y-122607465D01*
X154773255Y-122607471D01*
X154912527Y-122746743D01*
X154912533Y-122746748D01*
X154912534Y-122746749D01*
X154912537Y-122746751D01*
X155076315Y-122856185D01*
X155076328Y-122856192D01*
X155076330Y-122856192D01*
X155076334Y-122856195D01*
X155212811Y-122912724D01*
X155258306Y-122931569D01*
X155258318Y-122931572D01*
X155443862Y-122968479D01*
X155448533Y-122969408D01*
X155450768Y-122969909D01*
X155451506Y-122970000D01*
X155451508Y-122970000D01*
X155700000Y-122970000D01*
X155700000Y-122394000D01*
X155719685Y-122326961D01*
X155772489Y-122281206D01*
X155824000Y-122270000D01*
X156076000Y-122270000D01*
X156143039Y-122289685D01*
X156188794Y-122342489D01*
X156200000Y-122394000D01*
X156200000Y-122970000D01*
X156448492Y-122970000D01*
X156448493Y-122970000D01*
X156453401Y-122969203D01*
X156456130Y-122968480D01*
X156641681Y-122931572D01*
X156641693Y-122931569D01*
X156823671Y-122856192D01*
X156823684Y-122856185D01*
X156987462Y-122746751D01*
X156987466Y-122746748D01*
X157126748Y-122607466D01*
X157126751Y-122607462D01*
X157236185Y-122443684D01*
X157236192Y-122443671D01*
X157237465Y-122440599D01*
X157248019Y-122415117D01*
X157311569Y-122261692D01*
X157311569Y-122261690D01*
X157319862Y-122220000D01*
X156755195Y-122220000D01*
X156688156Y-122200315D01*
X156642401Y-122147511D01*
X156632457Y-122078353D01*
X156635415Y-122063926D01*
X156650000Y-122009496D01*
X156650000Y-121930504D01*
X156635420Y-121876089D01*
X156637083Y-121806244D01*
X156676245Y-121748381D01*
X156740473Y-121720877D01*
X156755195Y-121720000D01*
X157319862Y-121720000D01*
X157319862Y-121719999D01*
X157313952Y-121690288D01*
X157313951Y-121690283D01*
X157313951Y-121690284D01*
X157311569Y-121678309D01*
X157311569Y-121678307D01*
X157266328Y-121569083D01*
X157236195Y-121496334D01*
X157236190Y-121496325D01*
X157236185Y-121496315D01*
X157126751Y-121332537D01*
X157126748Y-121332533D01*
X157126743Y-121332527D01*
X156987471Y-121193255D01*
X156987465Y-121193250D01*
X156987464Y-121193249D01*
X156823690Y-121083818D01*
X156823689Y-121083817D01*
X156823684Y-121083814D01*
X156823671Y-121083807D01*
X156823664Y-121083803D01*
X156641694Y-121008430D01*
X156641655Y-121008421D01*
X156448498Y-120970000D01*
X156448495Y-120970000D01*
X156200000Y-120970000D01*
X156200000Y-121546000D01*
X156180315Y-121613039D01*
X156127511Y-121658794D01*
X156076000Y-121670000D01*
X155824000Y-121670000D01*
X155756961Y-121650315D01*
X155711206Y-121597511D01*
X155700000Y-121546000D01*
X155700000Y-120970000D01*
X155451504Y-120970000D01*
X155451500Y-120970000D01*
X155258343Y-121008421D01*
X155258304Y-121008430D01*
X155076334Y-121083803D01*
X155076325Y-121083808D01*
X155076308Y-121083818D01*
X154912534Y-121193249D01*
X154912533Y-121193250D01*
X154912527Y-121193255D01*
X154773255Y-121332527D01*
X154773250Y-121332533D01*
X154773249Y-121332534D01*
X154663818Y-121496308D01*
X154663808Y-121496325D01*
X154663803Y-121496334D01*
X154588431Y-121678303D01*
X154586048Y-121690284D01*
X154580137Y-121719999D01*
X153289862Y-121719999D01*
X153281569Y-121678309D01*
X153281569Y-121678307D01*
X153236328Y-121569083D01*
X153206195Y-121496334D01*
X153206190Y-121496325D01*
X153206185Y-121496315D01*
X153096751Y-121332537D01*
X153096748Y-121332533D01*
X153096743Y-121332527D01*
X152957471Y-121193255D01*
X152957465Y-121193250D01*
X152957464Y-121193249D01*
X152793678Y-121083810D01*
X152793422Y-121083682D01*
X152793087Y-121083467D01*
X152790315Y-121081856D01*
X152790386Y-121081732D01*
X152771084Y-121069332D01*
X152759471Y-121059974D01*
X152719621Y-121002582D01*
X152717126Y-120932758D01*
X152720317Y-120920253D01*
X152733073Y-120888933D01*
X152806281Y-120762135D01*
X152845500Y-120615766D01*
X152845500Y-120464234D01*
X152806281Y-120317865D01*
X152805933Y-120317262D01*
X152804037Y-120313978D01*
X152804037Y-120313977D01*
X152804035Y-120313975D01*
X152765174Y-120246665D01*
X152765174Y-120246666D01*
X152730515Y-120186635D01*
X152623365Y-120079485D01*
X152545863Y-120034739D01*
X152492136Y-120003719D01*
X152386901Y-119975522D01*
X152386901Y-119975521D01*
X152345767Y-119964500D01*
X152345766Y-119964500D01*
X152194234Y-119964500D01*
X152047859Y-120003720D01*
X152047857Y-120003721D01*
X151916645Y-120079478D01*
X151916631Y-120079487D01*
X151916626Y-120079491D01*
X151809491Y-120186626D01*
X151809487Y-120186631D01*
X151809478Y-120186645D01*
X151733721Y-120317857D01*
X151733720Y-120317859D01*
X151733719Y-120317863D01*
X151694500Y-120464234D01*
X151694500Y-120615765D01*
X151714109Y-120688950D01*
X151733719Y-120762137D01*
X151771602Y-120827750D01*
X151809485Y-120893365D01*
X151916635Y-121000515D01*
X151916636Y-121000516D01*
X151916638Y-121000517D01*
X151942557Y-121015481D01*
X151970301Y-121037298D01*
X151983286Y-121050916D01*
X152014048Y-121107251D01*
X152016504Y-121117374D01*
X152020000Y-121146610D01*
X152020000Y-121546000D01*
X152000315Y-121613039D01*
X151947511Y-121658794D01*
X151896000Y-121670000D01*
X151644000Y-121670000D01*
X151576961Y-121650315D01*
X151531206Y-121597511D01*
X151520000Y-121546000D01*
X151520000Y-120970000D01*
X151121504Y-120970000D01*
X151121500Y-120970000D01*
X150928343Y-121008421D01*
X150928304Y-121008430D01*
X150746334Y-121083803D01*
X150746325Y-121083808D01*
X150746308Y-121083818D01*
X150582534Y-121193249D01*
X150582533Y-121193250D01*
X150582527Y-121193255D01*
X150443255Y-121332527D01*
X150443250Y-121332533D01*
X150443249Y-121332534D01*
X150333818Y-121496308D01*
X150333808Y-121496325D01*
X150333803Y-121496334D01*
X150258431Y-121678303D01*
X150256048Y-121690284D01*
X150250137Y-121719999D01*
X150250138Y-121720000D01*
X150814805Y-121720000D01*
X150881844Y-121739685D01*
X150927599Y-121792489D01*
X150937543Y-121861647D01*
X150934584Y-121876073D01*
X150920000Y-121930504D01*
X150920000Y-122009496D01*
X150934579Y-122063910D01*
X150932917Y-122133756D01*
X150893755Y-122191619D01*
X150829527Y-122219123D01*
X150814805Y-122220000D01*
X150250138Y-122220000D01*
X150258430Y-122261690D01*
X150258430Y-122261692D01*
X150265824Y-122279544D01*
X150265826Y-122279549D01*
X150306254Y-122377152D01*
X150314982Y-122411342D01*
X150315944Y-122420285D01*
X150303542Y-122489045D01*
X150255935Y-122540185D01*
X150188236Y-122557468D01*
X150127484Y-122539040D01*
X150115894Y-122531880D01*
X150111714Y-122529114D01*
X150111692Y-122529148D01*
X149979191Y-122440613D01*
X149979190Y-122440612D01*
X149979185Y-122440609D01*
X149979172Y-122440602D01*
X149979165Y-122440598D01*
X149833502Y-122380264D01*
X149833471Y-122380257D01*
X149678847Y-122349500D01*
X149678845Y-122349500D01*
X149678842Y-122349500D01*
X149521158Y-122349500D01*
X149521155Y-122349500D01*
X149521153Y-122349500D01*
X149366527Y-122380257D01*
X149366501Y-122380263D01*
X149366499Y-122380263D01*
X149366498Y-122380264D01*
X149220822Y-122440604D01*
X149219137Y-122441302D01*
X149208729Y-122445077D01*
X149186949Y-122451895D01*
X149117098Y-122453139D01*
X149100375Y-122448551D01*
X149081301Y-122441247D01*
X149081178Y-122441517D01*
X149079167Y-122440599D01*
X148933502Y-122380264D01*
X148933471Y-122380257D01*
X148778847Y-122349500D01*
X148778845Y-122349500D01*
X148778842Y-122349500D01*
X148621158Y-122349500D01*
X148621155Y-122349500D01*
X148621153Y-122349500D01*
X148466527Y-122380257D01*
X148466496Y-122380264D01*
X148320833Y-122440598D01*
X148320824Y-122440603D01*
X148320807Y-122440613D01*
X148189708Y-122528211D01*
X148189707Y-122528212D01*
X148189701Y-122528217D01*
X148078217Y-122639701D01*
X148078212Y-122639707D01*
X148078211Y-122639708D01*
X147990613Y-122770807D01*
X147990603Y-122770824D01*
X147990598Y-122770833D01*
X147930264Y-122916496D01*
X147930257Y-122916527D01*
X147899500Y-123071150D01*
X147899500Y-123071153D01*
X147899500Y-123228846D01*
X147899500Y-123228848D01*
X147899499Y-123228848D01*
X143700500Y-123228848D01*
X143700500Y-122600769D01*
X143705522Y-122565836D01*
X143712934Y-122540591D01*
X143744228Y-122487849D01*
X144332654Y-121899423D01*
X144360904Y-121878275D01*
X144383996Y-121865667D01*
X144443421Y-121850500D01*
X147632964Y-121850500D01*
X147640814Y-121848118D01*
X147783497Y-121819737D01*
X147929179Y-121759394D01*
X148060289Y-121671789D01*
X148062078Y-121670000D01*
X148066429Y-121665650D01*
X148707681Y-121024397D01*
X149395751Y-120336324D01*
X149409568Y-120324407D01*
X149424489Y-120313345D01*
X149424488Y-120313344D01*
X149433206Y-120306882D01*
X149438156Y-120303395D01*
X149490498Y-120268422D01*
X149560289Y-120221789D01*
X149671789Y-120110289D01*
X149753404Y-119988142D01*
X149756878Y-119983210D01*
X149763344Y-119974488D01*
X149763345Y-119974489D01*
X149774407Y-119959567D01*
X149786321Y-119945754D01*
X149921789Y-119810289D01*
X150009394Y-119679179D01*
X150069738Y-119533497D01*
X150100500Y-119378842D01*
X150100500Y-119221157D01*
X150100500Y-118321158D01*
X150100500Y-115221158D01*
X150100500Y-115221155D01*
X150100500Y-115220970D01*
X150100066Y-115218974D01*
X150079059Y-115113367D01*
X150069737Y-115066503D01*
X150069735Y-115066498D01*
X150069734Y-115066494D01*
X150068825Y-115064299D01*
X150009398Y-114920829D01*
X150009395Y-114920824D01*
X150009390Y-114920814D01*
X149921789Y-114789711D01*
X149921786Y-114789707D01*
X149921781Y-114789701D01*
X149810297Y-114678217D01*
X149810291Y-114678212D01*
X149810290Y-114678211D01*
X149679191Y-114590613D01*
X149679190Y-114590612D01*
X149679185Y-114590609D01*
X149679172Y-114590602D01*
X149679165Y-114590598D01*
X149533502Y-114530264D01*
X149533471Y-114530257D01*
X149378847Y-114499500D01*
X149378845Y-114499500D01*
X149378842Y-114499500D01*
X149221158Y-114499500D01*
X149221155Y-114499500D01*
X149221153Y-114499500D01*
X149066527Y-114530257D01*
X149066496Y-114530264D01*
X148920833Y-114590598D01*
X148920824Y-114590603D01*
X148920807Y-114590613D01*
X148789708Y-114678211D01*
X148789707Y-114678212D01*
X148789701Y-114678217D01*
X148678217Y-114789701D01*
X148678212Y-114789707D01*
X148678211Y-114789708D01*
X148590613Y-114920807D01*
X148590603Y-114920824D01*
X148590598Y-114920833D01*
X148530264Y-115066496D01*
X148530257Y-115066527D01*
X148499500Y-115221150D01*
X148499500Y-118899230D01*
X148494476Y-118934167D01*
X148487064Y-118959408D01*
X148455769Y-119012152D01*
X147267348Y-120200573D01*
X147239097Y-120221722D01*
X147216009Y-120234330D01*
X147156579Y-120249500D01*
X144192330Y-120249500D01*
X144157389Y-120244475D01*
X144142390Y-120240070D01*
X144083644Y-120202327D01*
X144082457Y-120200958D01*
X144054977Y-120146083D01*
X144053332Y-120138521D01*
X144050500Y-120112168D01*
X144050500Y-118072328D01*
X144055523Y-118037392D01*
X144059927Y-118022394D01*
X144097661Y-117963652D01*
X144097832Y-117963503D01*
X144099034Y-117962461D01*
X144153925Y-117934974D01*
X144161483Y-117933329D01*
X144187827Y-117930499D01*
X145759336Y-117930499D01*
X145759342Y-117930499D01*
X145860761Y-117920139D01*
X146025079Y-117865690D01*
X146172411Y-117774814D01*
X146294814Y-117652411D01*
X146385690Y-117505079D01*
X146440139Y-117340761D01*
X146450500Y-117239343D01*
X146450499Y-116020658D01*
X146440139Y-115919239D01*
X146440138Y-115919235D01*
X146422205Y-115865119D01*
X146385690Y-115754921D01*
X146385686Y-115754915D01*
X146385685Y-115754912D01*
X146385683Y-115754909D01*
X146385541Y-115754616D01*
X146384548Y-115753068D01*
X146294826Y-115607607D01*
X146294821Y-115607600D01*
X146294816Y-115607592D01*
X146294813Y-115607588D01*
X146294810Y-115607585D01*
X146294808Y-115607582D01*
X146172416Y-115485190D01*
X146172411Y-115485186D01*
X146172407Y-115485183D01*
X146144381Y-115467896D01*
X146026934Y-115395452D01*
X146026927Y-115395449D01*
X146025087Y-115394314D01*
X146025081Y-115394311D01*
X146025079Y-115394310D01*
X146024101Y-115393986D01*
X146020096Y-115392659D01*
X146020094Y-115392658D01*
X145860763Y-115339861D01*
X145860755Y-115339860D01*
X145759357Y-115329500D01*
X145759350Y-115329500D01*
X144192330Y-115329500D01*
X144157389Y-115324475D01*
X144142390Y-115320070D01*
X144083644Y-115282327D01*
X144082457Y-115280958D01*
X144054977Y-115226083D01*
X144053332Y-115218521D01*
X144050500Y-115192168D01*
X144050500Y-114981147D01*
X144051096Y-114969001D01*
X144052287Y-114956910D01*
X144054111Y-114944688D01*
X144054178Y-114944353D01*
X144056141Y-114934483D01*
X144056141Y-114776798D01*
X144025379Y-114622143D01*
X143965035Y-114476462D01*
X143965033Y-114476459D01*
X143956303Y-114463393D01*
X143941069Y-114431552D01*
X143931164Y-114399915D01*
X143925500Y-114362866D01*
X143925500Y-113383465D01*
X143920978Y-113360735D01*
X143905897Y-113284924D01*
X143899540Y-113252964D01*
X143899065Y-113251818D01*
X143895981Y-113243550D01*
X143895565Y-113242300D01*
X143893897Y-113235353D01*
X143893998Y-113233328D01*
X143890476Y-113218824D01*
X143889973Y-113214631D01*
X143836882Y-113080000D01*
X150250138Y-113080000D01*
X150814805Y-113080000D01*
X150881844Y-113099685D01*
X150927599Y-113152489D01*
X150937543Y-113221647D01*
X150934584Y-113236073D01*
X150920000Y-113290504D01*
X150920000Y-113369496D01*
X150934579Y-113423910D01*
X150932917Y-113493756D01*
X150893755Y-113551619D01*
X150829527Y-113579123D01*
X150814805Y-113580000D01*
X150250138Y-113580000D01*
X150256048Y-113609713D01*
X150256048Y-113609715D01*
X150258431Y-113621695D01*
X150333803Y-113803664D01*
X150333808Y-113803673D01*
X150333818Y-113803690D01*
X150443249Y-113967464D01*
X150443250Y-113967465D01*
X150443255Y-113967471D01*
X150582527Y-114106743D01*
X150582533Y-114106748D01*
X150582537Y-114106751D01*
X150746315Y-114216185D01*
X150746328Y-114216192D01*
X150746330Y-114216192D01*
X150746334Y-114216195D01*
X150865048Y-114265367D01*
X150928306Y-114291569D01*
X150928318Y-114291572D01*
X151113862Y-114328479D01*
X151118533Y-114329408D01*
X151120768Y-114329909D01*
X151121506Y-114330000D01*
X151121508Y-114330000D01*
X151520000Y-114330000D01*
X151520000Y-113754000D01*
X151539685Y-113686961D01*
X151592489Y-113641206D01*
X151644000Y-113630000D01*
X151896000Y-113630000D01*
X151963039Y-113649685D01*
X152008794Y-113702489D01*
X152020000Y-113754000D01*
X152020000Y-114150385D01*
X152014976Y-114185323D01*
X152009674Y-114203378D01*
X151976271Y-114258180D01*
X151968734Y-114265367D01*
X151945165Y-114283012D01*
X151916633Y-114299486D01*
X151916632Y-114299486D01*
X151916626Y-114299491D01*
X151809491Y-114406626D01*
X151809487Y-114406631D01*
X151809478Y-114406645D01*
X151733722Y-114537856D01*
X151733720Y-114537859D01*
X151733719Y-114537863D01*
X151694500Y-114684234D01*
X151694500Y-114835765D01*
X151733719Y-114982136D01*
X151744033Y-115000000D01*
X151747325Y-115005702D01*
X151809485Y-115113365D01*
X151916635Y-115220515D01*
X152047865Y-115296281D01*
X152194234Y-115335500D01*
X152194236Y-115335500D01*
X152345764Y-115335500D01*
X152345766Y-115335500D01*
X152492135Y-115296281D01*
X152623365Y-115220515D01*
X152730515Y-115113365D01*
X152806281Y-114982135D01*
X152845500Y-114835766D01*
X152845500Y-114684234D01*
X152806281Y-114537865D01*
X152801889Y-114530257D01*
X152739413Y-114422046D01*
X152731147Y-114404770D01*
X152721806Y-114380615D01*
X152715985Y-114310989D01*
X152748729Y-114249271D01*
X152754693Y-114243163D01*
X152791934Y-114216984D01*
X152793660Y-114216194D01*
X152793682Y-114216186D01*
X152793684Y-114216185D01*
X152957462Y-114106751D01*
X152957466Y-114106748D01*
X153096748Y-113967466D01*
X153096751Y-113967462D01*
X153206185Y-113803684D01*
X153206192Y-113803671D01*
X153281569Y-113621692D01*
X153281569Y-113621690D01*
X153289862Y-113580000D01*
X152725195Y-113580000D01*
X152658156Y-113560315D01*
X152612401Y-113507511D01*
X152602457Y-113438353D01*
X152605415Y-113423926D01*
X152620000Y-113369496D01*
X152620000Y-113290504D01*
X152605420Y-113236089D01*
X152607083Y-113166244D01*
X152646245Y-113108381D01*
X152710473Y-113080877D01*
X152725195Y-113080000D01*
X153289861Y-113080000D01*
X153289862Y-113080000D01*
X153289862Y-113079999D01*
X154580137Y-113079999D01*
X154580138Y-113080000D01*
X155144805Y-113080000D01*
X155211844Y-113099685D01*
X155257599Y-113152489D01*
X155267543Y-113221647D01*
X155264584Y-113236073D01*
X155250000Y-113290504D01*
X155250000Y-113369496D01*
X155264579Y-113423910D01*
X155262917Y-113493756D01*
X155223755Y-113551619D01*
X155159527Y-113579123D01*
X155144805Y-113580000D01*
X154580138Y-113580000D01*
X154586048Y-113609713D01*
X154586048Y-113609715D01*
X154588431Y-113621695D01*
X154663803Y-113803664D01*
X154663808Y-113803673D01*
X154663818Y-113803690D01*
X154773249Y-113967464D01*
X154773250Y-113967465D01*
X154773255Y-113967471D01*
X154912527Y-114106743D01*
X154912533Y-114106748D01*
X154912537Y-114106751D01*
X155076315Y-114216185D01*
X155076328Y-114216192D01*
X155076330Y-114216192D01*
X155076334Y-114216195D01*
X155195048Y-114265367D01*
X155258306Y-114291569D01*
X155258318Y-114291572D01*
X155443862Y-114328479D01*
X155448533Y-114329408D01*
X155450768Y-114329909D01*
X155451506Y-114330000D01*
X155451508Y-114330000D01*
X155700000Y-114330000D01*
X155700000Y-113754000D01*
X155719685Y-113686961D01*
X155772489Y-113641206D01*
X155824000Y-113630000D01*
X156076000Y-113630000D01*
X156143039Y-113649685D01*
X156188794Y-113702489D01*
X156200000Y-113754000D01*
X156200000Y-114330000D01*
X156448492Y-114330000D01*
X156448493Y-114330000D01*
X156453401Y-114329203D01*
X156456130Y-114328480D01*
X156641681Y-114291572D01*
X156641693Y-114291569D01*
X156823671Y-114216192D01*
X156823684Y-114216185D01*
X156987462Y-114106751D01*
X156987466Y-114106748D01*
X157126748Y-113967466D01*
X157126751Y-113967462D01*
X157236185Y-113803684D01*
X157236192Y-113803671D01*
X157311569Y-113621692D01*
X157311569Y-113621690D01*
X157319862Y-113580000D01*
X156755195Y-113580000D01*
X156688156Y-113560315D01*
X156642401Y-113507511D01*
X156632457Y-113438353D01*
X156635415Y-113423926D01*
X156650000Y-113369496D01*
X156650000Y-113290504D01*
X156635420Y-113236089D01*
X156637083Y-113166244D01*
X156676245Y-113108381D01*
X156740473Y-113080877D01*
X156755195Y-113080000D01*
X157319862Y-113080000D01*
X157319862Y-113079999D01*
X157313952Y-113050288D01*
X157313951Y-113050283D01*
X157313951Y-113050284D01*
X157311569Y-113038309D01*
X157311569Y-113038307D01*
X157264238Y-112924037D01*
X157236195Y-112856334D01*
X157236190Y-112856325D01*
X157236185Y-112856315D01*
X157126751Y-112692537D01*
X157126748Y-112692533D01*
X157126743Y-112692527D01*
X156987471Y-112553255D01*
X156987465Y-112553250D01*
X156987464Y-112553249D01*
X156823690Y-112443818D01*
X156823689Y-112443817D01*
X156823684Y-112443814D01*
X156823671Y-112443807D01*
X156823664Y-112443803D01*
X156641694Y-112368430D01*
X156641655Y-112368421D01*
X156448498Y-112330000D01*
X156448495Y-112330000D01*
X156200000Y-112330000D01*
X156200000Y-112906000D01*
X156180315Y-112973039D01*
X156127511Y-113018794D01*
X156076000Y-113030000D01*
X155824000Y-113030000D01*
X155756961Y-113010315D01*
X155711206Y-112957511D01*
X155700000Y-112906000D01*
X155700000Y-112330000D01*
X155451504Y-112330000D01*
X155451500Y-112330000D01*
X155258343Y-112368421D01*
X155258304Y-112368430D01*
X155076334Y-112443803D01*
X155076325Y-112443808D01*
X155076308Y-112443818D01*
X154912534Y-112553249D01*
X154912533Y-112553250D01*
X154912527Y-112553255D01*
X154773255Y-112692527D01*
X154773250Y-112692533D01*
X154773249Y-112692534D01*
X154663818Y-112856308D01*
X154663808Y-112856325D01*
X154663803Y-112856334D01*
X154588431Y-113038303D01*
X154586048Y-113050284D01*
X154580137Y-113079999D01*
X153289862Y-113079999D01*
X153281569Y-113038309D01*
X153281569Y-113038307D01*
X153234238Y-112924037D01*
X153206195Y-112856334D01*
X153206190Y-112856325D01*
X153206185Y-112856315D01*
X153096751Y-112692537D01*
X153096748Y-112692533D01*
X153096743Y-112692527D01*
X152957471Y-112553255D01*
X152957465Y-112553250D01*
X152957464Y-112553249D01*
X152793690Y-112443818D01*
X152793689Y-112443817D01*
X152793684Y-112443814D01*
X152793671Y-112443807D01*
X152793664Y-112443803D01*
X152611694Y-112368430D01*
X152611655Y-112368421D01*
X152418498Y-112330000D01*
X152418495Y-112330000D01*
X152020000Y-112330000D01*
X152020000Y-112906000D01*
X152000315Y-112973039D01*
X151947511Y-113018794D01*
X151896000Y-113030000D01*
X151644000Y-113030000D01*
X151576961Y-113010315D01*
X151531206Y-112957511D01*
X151520000Y-112906000D01*
X151520000Y-112330000D01*
X151121504Y-112330000D01*
X151121500Y-112330000D01*
X150928343Y-112368421D01*
X150928304Y-112368430D01*
X150746334Y-112443803D01*
X150746325Y-112443808D01*
X150746308Y-112443818D01*
X150582534Y-112553249D01*
X150582533Y-112553250D01*
X150582527Y-112553255D01*
X150443255Y-112692527D01*
X150443250Y-112692533D01*
X150443249Y-112692534D01*
X150333818Y-112856308D01*
X150333808Y-112856325D01*
X150333803Y-112856334D01*
X150264143Y-113024511D01*
X150264143Y-113024512D01*
X150258430Y-113038307D01*
X150258430Y-113038309D01*
X150250138Y-113080000D01*
X143836882Y-113080000D01*
X143834962Y-113075131D01*
X143815904Y-113050000D01*
X143798801Y-113019136D01*
X143793246Y-113004520D01*
X143787829Y-112934867D01*
X143790115Y-112924037D01*
X143806703Y-112884644D01*
X143806523Y-112884548D01*
X143807564Y-112882600D01*
X143808343Y-112880751D01*
X143809394Y-112879179D01*
X143869737Y-112733497D01*
X143900500Y-112578842D01*
X143900500Y-112421158D01*
X143900500Y-112421155D01*
X143900500Y-112420973D01*
X143900065Y-112418972D01*
X143880608Y-112321157D01*
X143880608Y-112321154D01*
X143872959Y-112282703D01*
X143869737Y-112266503D01*
X143862183Y-112248266D01*
X143862182Y-112248263D01*
X143862182Y-112248262D01*
X143809402Y-112120840D01*
X143809397Y-112120827D01*
X143809390Y-112120814D01*
X143721789Y-111989711D01*
X143721786Y-111989707D01*
X143721781Y-111989701D01*
X143610297Y-111878217D01*
X143610291Y-111878212D01*
X143610290Y-111878211D01*
X143479191Y-111790613D01*
X143479190Y-111790612D01*
X143479185Y-111790609D01*
X143479172Y-111790602D01*
X143479165Y-111790598D01*
X143333502Y-111730264D01*
X143333471Y-111730257D01*
X143178847Y-111699500D01*
X143178845Y-111699500D01*
X143178842Y-111699500D01*
X143021158Y-111699500D01*
X143021155Y-111699500D01*
X143021153Y-111699500D01*
X142866527Y-111730257D01*
X142866496Y-111730264D01*
X142720833Y-111790598D01*
X142720824Y-111790603D01*
X142720807Y-111790613D01*
X142589708Y-111878211D01*
X142589707Y-111878212D01*
X142589701Y-111878217D01*
X142478217Y-111989701D01*
X142478212Y-111989707D01*
X142478211Y-111989708D01*
X142390607Y-112120816D01*
X142390606Y-112120818D01*
X142340912Y-112240790D01*
X142333774Y-112255274D01*
X142327808Y-112265620D01*
X142308069Y-112291361D01*
X142270811Y-112328618D01*
X142241815Y-112378843D01*
X142241813Y-112378846D01*
X142229636Y-112399935D01*
X142229631Y-112399946D01*
X142221064Y-112414785D01*
X142217388Y-112421153D01*
X142191753Y-112465553D01*
X142150829Y-112618281D01*
X142150829Y-112618283D01*
X142150829Y-112666346D01*
X142145804Y-112701290D01*
X142141399Y-112716288D01*
X142103629Y-112775055D01*
X142099298Y-112778808D01*
X142051679Y-112804462D01*
X142050890Y-112804684D01*
X142032100Y-112808433D01*
X142024262Y-112809375D01*
X142009466Y-112810261D01*
X141994737Y-112810261D01*
X141979952Y-112809376D01*
X141961209Y-112807125D01*
X141961208Y-112807125D01*
X141897710Y-112799500D01*
X141897703Y-112799500D01*
X141602294Y-112799500D01*
X141602290Y-112799500D01*
X141590583Y-112800905D01*
X141563275Y-112804184D01*
X141563276Y-112804185D01*
X141527900Y-112808433D01*
X141522145Y-112809124D01*
X141507361Y-112810008D01*
X141492638Y-112810008D01*
X141477855Y-112809124D01*
X141436723Y-112804185D01*
X141397710Y-112799500D01*
X141397705Y-112799500D01*
X141102294Y-112799500D01*
X141102290Y-112799500D01*
X141090583Y-112800905D01*
X141063275Y-112804184D01*
X141063276Y-112804185D01*
X141027900Y-112808433D01*
X141022145Y-112809124D01*
X141007361Y-112810008D01*
X140992638Y-112810008D01*
X140977855Y-112809124D01*
X140936723Y-112804185D01*
X140897710Y-112799500D01*
X140897705Y-112799500D01*
X140602294Y-112799500D01*
X140602290Y-112799500D01*
X140590583Y-112800905D01*
X140563275Y-112804184D01*
X140563276Y-112804185D01*
X140527900Y-112808433D01*
X140522145Y-112809124D01*
X140507361Y-112810008D01*
X140492638Y-112810008D01*
X140477855Y-112809124D01*
X140436723Y-112804185D01*
X140397710Y-112799500D01*
X140397705Y-112799500D01*
X140102294Y-112799500D01*
X140102290Y-112799500D01*
X140090583Y-112800905D01*
X140063275Y-112804184D01*
X140063276Y-112804185D01*
X140027900Y-112808433D01*
X140022145Y-112809124D01*
X140007361Y-112810008D01*
X139992638Y-112810008D01*
X139977855Y-112809124D01*
X139936723Y-112804185D01*
X139897710Y-112799500D01*
X139897705Y-112799500D01*
X139602294Y-112799500D01*
X139602290Y-112799500D01*
X139590583Y-112800905D01*
X139563275Y-112804184D01*
X139563276Y-112804185D01*
X139527900Y-112808433D01*
X139522145Y-112809124D01*
X139507361Y-112810008D01*
X139492638Y-112810008D01*
X139477855Y-112809124D01*
X139436723Y-112804185D01*
X139397710Y-112799500D01*
X139397705Y-112799500D01*
X139204385Y-112799500D01*
X139169446Y-112794476D01*
X139156128Y-112790565D01*
X139097351Y-112752789D01*
X139068329Y-112689232D01*
X139068328Y-112689226D01*
X139067496Y-112683436D01*
X139070674Y-112632917D01*
X139075995Y-112613567D01*
X139075341Y-112610619D01*
X139077445Y-112594745D01*
X139080609Y-112578842D01*
X139100500Y-112478842D01*
X139100500Y-112321157D01*
X139100500Y-112271158D01*
X139100500Y-111421158D01*
X139100500Y-111421155D01*
X139100500Y-111420973D01*
X139100065Y-111418972D01*
X139070398Y-111269829D01*
X139069984Y-111267409D01*
X139069738Y-111266510D01*
X139069737Y-111266503D01*
X139063202Y-111250725D01*
X139063201Y-111250722D01*
X139009400Y-111120833D01*
X139009395Y-111120824D01*
X139009390Y-111120814D01*
X138921789Y-110989711D01*
X138921786Y-110989707D01*
X138921781Y-110989701D01*
X138810297Y-110878217D01*
X138810291Y-110878212D01*
X138810290Y-110878211D01*
X138679191Y-110790613D01*
X138679190Y-110790612D01*
X138679185Y-110790609D01*
X138679172Y-110790602D01*
X138679165Y-110790598D01*
X138533523Y-110730272D01*
X138533509Y-110730267D01*
X138533501Y-110730264D01*
X138533491Y-110730261D01*
X138533486Y-110730259D01*
X138378847Y-110699500D01*
X138378845Y-110699500D01*
X138378843Y-110699500D01*
X138378842Y-110699500D01*
X137578842Y-110699500D01*
X137421158Y-110699500D01*
X137421155Y-110699500D01*
X137421153Y-110699500D01*
X137266527Y-110730257D01*
X137266496Y-110730264D01*
X137120833Y-110790598D01*
X137120824Y-110790603D01*
X137120807Y-110790613D01*
X136989708Y-110878211D01*
X136989707Y-110878212D01*
X136989701Y-110878217D01*
X136878217Y-110989701D01*
X136878212Y-110989707D01*
X136878211Y-110989708D01*
X136790613Y-111120807D01*
X136790603Y-111120824D01*
X136790598Y-111120833D01*
X136730264Y-111266496D01*
X136730257Y-111266527D01*
X136699500Y-111421150D01*
X136699500Y-111676000D01*
X136679815Y-111743039D01*
X136627011Y-111788794D01*
X136575500Y-111800000D01*
X135200000Y-111800000D01*
X135200000Y-112988154D01*
X135190801Y-113035022D01*
X135184643Y-113050105D01*
X135165479Y-113075377D01*
X135110517Y-113214751D01*
X135110517Y-113214752D01*
X135107638Y-113238722D01*
X135107638Y-113238724D01*
X135100000Y-113302330D01*
X135100000Y-113800000D01*
X135109976Y-113809976D01*
X135143039Y-113819685D01*
X135188794Y-113872489D01*
X135200000Y-113924000D01*
X135200000Y-113976000D01*
X135180315Y-114043039D01*
X135127511Y-114088794D01*
X135106673Y-114093327D01*
X135100001Y-114100000D01*
X135100001Y-114597661D01*
X135102941Y-114622150D01*
X135110517Y-114685248D01*
X135141605Y-114764081D01*
X135165478Y-114824621D01*
X135165479Y-114824622D01*
X135174802Y-114836916D01*
X135199627Y-114902227D01*
X135200000Y-114911843D01*
X135200000Y-115000000D01*
X135288157Y-115000000D01*
X135355196Y-115019685D01*
X135362395Y-115027993D01*
X135367986Y-115030364D01*
X135375374Y-115034518D01*
X135375377Y-115034520D01*
X135514752Y-115089482D01*
X135600000Y-115099718D01*
X135600000Y-115099717D01*
X135609641Y-115091165D01*
X135619685Y-115056961D01*
X135672489Y-115011206D01*
X135724000Y-115000000D01*
X135776000Y-115000000D01*
X135843039Y-115019685D01*
X135888794Y-115072489D01*
X135893454Y-115093910D01*
X135899999Y-115099717D01*
X135900000Y-115099716D01*
X135900000Y-115099717D01*
X135948363Y-115093910D01*
X135977855Y-115090369D01*
X135992637Y-115089485D01*
X136007361Y-115089485D01*
X136022144Y-115090369D01*
X136027830Y-115091051D01*
X136100000Y-115099718D01*
X136100000Y-115099717D01*
X136109641Y-115091165D01*
X136119685Y-115056961D01*
X136172489Y-115011206D01*
X136224000Y-115000000D01*
X136276000Y-115000000D01*
X136343039Y-115019685D01*
X136388794Y-115072489D01*
X136393454Y-115093910D01*
X136399999Y-115099717D01*
X136400000Y-115099716D01*
X136400000Y-115099717D01*
X136448363Y-115093910D01*
X136477855Y-115090369D01*
X136492637Y-115089485D01*
X136507361Y-115089485D01*
X136522144Y-115090369D01*
X136527830Y-115091051D01*
X136600000Y-115099718D01*
X136600000Y-115099717D01*
X136609641Y-115091165D01*
X136619685Y-115056961D01*
X136672489Y-115011206D01*
X136724000Y-115000000D01*
X136775590Y-115000000D01*
X136842629Y-115019685D01*
X136888384Y-115072489D01*
X136897687Y-115102364D01*
X136897845Y-115103251D01*
X136908564Y-115120366D01*
X136927473Y-115185434D01*
X136927556Y-115199148D01*
X136923333Y-115231990D01*
X136899499Y-115320941D01*
X136899499Y-115491400D01*
X136899500Y-115491451D01*
X136899500Y-119082072D01*
X136894476Y-119117009D01*
X136887064Y-119142250D01*
X136855769Y-119194994D01*
X136569480Y-119481282D01*
X136569476Y-119481287D01*
X136545603Y-119522636D01*
X136545604Y-119522637D01*
X136545601Y-119522643D01*
X136535508Y-119540126D01*
X136490423Y-119618215D01*
X136449499Y-119770943D01*
X136449499Y-119770945D01*
X136449499Y-119941400D01*
X136449500Y-119941451D01*
X136449500Y-121484214D01*
X136444475Y-121519158D01*
X136440070Y-121534156D01*
X136402309Y-121592915D01*
X136396757Y-121597727D01*
X136339735Y-121625641D01*
X136316527Y-121630257D01*
X136316496Y-121630264D01*
X136170833Y-121690598D01*
X136170824Y-121690603D01*
X136170807Y-121690613D01*
X136039708Y-121778211D01*
X136039707Y-121778212D01*
X136039701Y-121778217D01*
X135928217Y-121889701D01*
X135928212Y-121889707D01*
X135928211Y-121889708D01*
X135840613Y-122020807D01*
X135840603Y-122020824D01*
X135840598Y-122020833D01*
X135780264Y-122166496D01*
X135780257Y-122166527D01*
X135752543Y-122305854D01*
X135745904Y-122328095D01*
X135737882Y-122347959D01*
X135694526Y-122402750D01*
X135628462Y-122425401D01*
X135625765Y-122425522D01*
X135570202Y-122415117D01*
X135567349Y-122413860D01*
X135548467Y-122403493D01*
X135534260Y-122394000D01*
X135529184Y-122390608D01*
X135529181Y-122390607D01*
X135529173Y-122390602D01*
X135529169Y-122390600D01*
X135383502Y-122330264D01*
X135383471Y-122330257D01*
X135228847Y-122299500D01*
X135228845Y-122299500D01*
X135228842Y-122299500D01*
X135071158Y-122299500D01*
X135071155Y-122299500D01*
X135071153Y-122299500D01*
X134916527Y-122330257D01*
X134916496Y-122330264D01*
X134770833Y-122390598D01*
X134770824Y-122390603D01*
X134770807Y-122390613D01*
X134639708Y-122478211D01*
X134639707Y-122478212D01*
X134639701Y-122478217D01*
X134528217Y-122589701D01*
X134528212Y-122589707D01*
X134528211Y-122589708D01*
X134440613Y-122720807D01*
X134440603Y-122720824D01*
X134440598Y-122720833D01*
X134380264Y-122866496D01*
X134380257Y-122866527D01*
X134349500Y-123021150D01*
X134349500Y-123021153D01*
X134349500Y-123178846D01*
X134349500Y-123178848D01*
X134349499Y-123178848D01*
X134380257Y-123333471D01*
X134380264Y-123333502D01*
X134440598Y-123479165D01*
X134440603Y-123479174D01*
X134440613Y-123479191D01*
X134528211Y-123610290D01*
X134528212Y-123610291D01*
X134528217Y-123610297D01*
X134639701Y-123721781D01*
X134639707Y-123721786D01*
X134639711Y-123721789D01*
X134770816Y-123809391D01*
X134770817Y-123809391D01*
X134774479Y-123811838D01*
X134782520Y-123817211D01*
X134805389Y-123829303D01*
X134821333Y-123842152D01*
X134857657Y-123890225D01*
X134860284Y-123896410D01*
X134867769Y-123920694D01*
X134880259Y-123983483D01*
X134880261Y-123983491D01*
X134880264Y-123983501D01*
X134880267Y-123983509D01*
X134880272Y-123983523D01*
X134940598Y-124129165D01*
X134940603Y-124129174D01*
X134940613Y-124129191D01*
X135028211Y-124260290D01*
X135028212Y-124260291D01*
X135028217Y-124260297D01*
X135139701Y-124371781D01*
X135139707Y-124371786D01*
X135139711Y-124371789D01*
X135270814Y-124459390D01*
X135270827Y-124459397D01*
X135416498Y-124519735D01*
X135416503Y-124519737D01*
X135571153Y-124550499D01*
X135571156Y-124550500D01*
X135571158Y-124550500D01*
X135728844Y-124550500D01*
X135728845Y-124550499D01*
X135883497Y-124519737D01*
X135959797Y-124488131D01*
X136000296Y-124483777D01*
X136031633Y-124478696D01*
X136065148Y-124493280D01*
X136066450Y-124493738D01*
X136067455Y-124494284D01*
X136095700Y-124506575D01*
X136134524Y-124564665D01*
X136135778Y-124634524D01*
X136121695Y-124666886D01*
X136119003Y-124671245D01*
X136101182Y-124693771D01*
X136028212Y-124766740D01*
X136028209Y-124766744D01*
X135940613Y-124897840D01*
X135940610Y-124897844D01*
X135940609Y-124897847D01*
X135940604Y-124897855D01*
X135940598Y-124897866D01*
X135880264Y-125043529D01*
X135880257Y-125043560D01*
X135849500Y-125198183D01*
X135849500Y-125355883D01*
X135873287Y-125475467D01*
X135875176Y-125510710D01*
X135873962Y-125524276D01*
X135848381Y-125589295D01*
X135791709Y-125630161D01*
X135729527Y-125635444D01*
X135721381Y-125634050D01*
X135694864Y-125626391D01*
X135583502Y-125580264D01*
X135583471Y-125580257D01*
X135428847Y-125549500D01*
X135428845Y-125549500D01*
X135428842Y-125549500D01*
X135271158Y-125549500D01*
X135271155Y-125549500D01*
X135271153Y-125549500D01*
X135116527Y-125580257D01*
X135116496Y-125580264D01*
X134970833Y-125640598D01*
X134970824Y-125640603D01*
X134970807Y-125640613D01*
X134839708Y-125728211D01*
X134839707Y-125728212D01*
X134839701Y-125728217D01*
X134728217Y-125839701D01*
X134728212Y-125839707D01*
X134728211Y-125839708D01*
X134640613Y-125970807D01*
X134640603Y-125970824D01*
X134640598Y-125970833D01*
X134580264Y-126116496D01*
X134580257Y-126116527D01*
X134549500Y-126271150D01*
X134549500Y-126271153D01*
X134549500Y-126428846D01*
X134549500Y-126428848D01*
X134549499Y-126428848D01*
X134580257Y-126583471D01*
X134580264Y-126583502D01*
X134640598Y-126729165D01*
X134640603Y-126729174D01*
X134640613Y-126729191D01*
X134728211Y-126860290D01*
X134728212Y-126860291D01*
X134728217Y-126860297D01*
X134839701Y-126971781D01*
X134839707Y-126971786D01*
X134839711Y-126971789D01*
X134970814Y-127059390D01*
X134970827Y-127059397D01*
X135116498Y-127119735D01*
X135116503Y-127119737D01*
X135143474Y-127125101D01*
X135181099Y-127132586D01*
X135181123Y-127132590D01*
X135181147Y-127132595D01*
X135254364Y-127147159D01*
X135287644Y-127158901D01*
X135317021Y-127174268D01*
X135347227Y-127196462D01*
X135615139Y-127464374D01*
X135615160Y-127464397D01*
X135625976Y-127475213D01*
X135647129Y-127503471D01*
X135652548Y-127513396D01*
X135667398Y-127581669D01*
X135642978Y-127647133D01*
X135587053Y-127688999D01*
X135579866Y-127691680D01*
X135536527Y-127699500D01*
X135200770Y-127699500D01*
X135165834Y-127694477D01*
X135140592Y-127687065D01*
X135087847Y-127655769D01*
X135010286Y-127578208D01*
X134879191Y-127490613D01*
X134879190Y-127490612D01*
X134879185Y-127490609D01*
X134879172Y-127490602D01*
X134879165Y-127490598D01*
X134733502Y-127430264D01*
X134733471Y-127430257D01*
X134578847Y-127399500D01*
X134578845Y-127399500D01*
X134578842Y-127399500D01*
X134421158Y-127399500D01*
X134421155Y-127399500D01*
X134421153Y-127399500D01*
X134266527Y-127430257D01*
X134266496Y-127430264D01*
X134120833Y-127490598D01*
X134120824Y-127490603D01*
X134120807Y-127490613D01*
X133989711Y-127578210D01*
X133989707Y-127578212D01*
X133989701Y-127578217D01*
X133878217Y-127689701D01*
X133878214Y-127689705D01*
X133790613Y-127820807D01*
X133790603Y-127820824D01*
X133790598Y-127820833D01*
X133730264Y-127966496D01*
X133730257Y-127966527D01*
X133699500Y-128121150D01*
X133699500Y-128121153D01*
X133699500Y-128278846D01*
X133699500Y-128278848D01*
X133699499Y-128278848D01*
X121788396Y-128278848D01*
X121595654Y-127883566D01*
X121594530Y-127881194D01*
X121593387Y-127878715D01*
X121592301Y-127876290D01*
X121489399Y-127639748D01*
X121252279Y-127094674D01*
X121251277Y-127092297D01*
X121250238Y-127089760D01*
X121249290Y-127087372D01*
X121238534Y-127059390D01*
X121046341Y-126559397D01*
X120943461Y-126291752D01*
X120942527Y-126289239D01*
X120941620Y-126286718D01*
X120940735Y-126284173D01*
X120936580Y-126271787D01*
X120821552Y-125928848D01*
X123399499Y-125928848D01*
X123430257Y-126083471D01*
X123430264Y-126083502D01*
X123490598Y-126229165D01*
X123490603Y-126229174D01*
X123490613Y-126229191D01*
X123578211Y-126360290D01*
X123578212Y-126360291D01*
X123578217Y-126360297D01*
X123689701Y-126471781D01*
X123689707Y-126471786D01*
X123689711Y-126471789D01*
X123820814Y-126559390D01*
X123820827Y-126559397D01*
X123966498Y-126619735D01*
X123966503Y-126619737D01*
X124121153Y-126650499D01*
X124121156Y-126650500D01*
X124121158Y-126650500D01*
X124278844Y-126650500D01*
X124278845Y-126650499D01*
X124433497Y-126619737D01*
X124579179Y-126559394D01*
X124710289Y-126471789D01*
X124821789Y-126360289D01*
X124909394Y-126229179D01*
X124969737Y-126083497D01*
X125000499Y-125928848D01*
X125649499Y-125928848D01*
X125680257Y-126083471D01*
X125680264Y-126083502D01*
X125740598Y-126229165D01*
X125740603Y-126229174D01*
X125740613Y-126229191D01*
X125828211Y-126360290D01*
X125828212Y-126360291D01*
X125828217Y-126360297D01*
X125939701Y-126471781D01*
X125939707Y-126471786D01*
X125939711Y-126471789D01*
X126070814Y-126559390D01*
X126070827Y-126559397D01*
X126216498Y-126619735D01*
X126216503Y-126619737D01*
X126371153Y-126650499D01*
X126371156Y-126650500D01*
X126371158Y-126650500D01*
X126528844Y-126650500D01*
X126528845Y-126650499D01*
X126683497Y-126619737D01*
X126829179Y-126559394D01*
X126960289Y-126471789D01*
X127071789Y-126360289D01*
X127071791Y-126360285D01*
X127076098Y-126355979D01*
X127076288Y-126356169D01*
X127086127Y-126346240D01*
X127104692Y-126330724D01*
X127158949Y-126304470D01*
X127164231Y-126303370D01*
X127165533Y-126303100D01*
X127190791Y-126300500D01*
X127232964Y-126300500D01*
X127240814Y-126298118D01*
X127383497Y-126269737D01*
X127529179Y-126209394D01*
X127660289Y-126121789D01*
X127771789Y-126010289D01*
X127859394Y-125879179D01*
X127919737Y-125733497D01*
X127920662Y-125728848D01*
X128299499Y-125728848D01*
X128330257Y-125883471D01*
X128330264Y-125883502D01*
X128390598Y-126029165D01*
X128390603Y-126029174D01*
X128390613Y-126029191D01*
X128478211Y-126160290D01*
X128478212Y-126160291D01*
X128478217Y-126160297D01*
X128589701Y-126271781D01*
X128589707Y-126271786D01*
X128589711Y-126271789D01*
X128720814Y-126359390D01*
X128720827Y-126359397D01*
X128866498Y-126419735D01*
X128866503Y-126419737D01*
X129021153Y-126450499D01*
X129021156Y-126450500D01*
X129021158Y-126450500D01*
X129178844Y-126450500D01*
X129178845Y-126450499D01*
X129333497Y-126419737D01*
X129477011Y-126360292D01*
X129479172Y-126359397D01*
X129479172Y-126359396D01*
X129479179Y-126359394D01*
X129610289Y-126271789D01*
X129721789Y-126160289D01*
X129809394Y-126029179D01*
X129869737Y-125883497D01*
X129900500Y-125728842D01*
X129900500Y-125571158D01*
X129900500Y-125571155D01*
X129900500Y-125570973D01*
X129900065Y-125568972D01*
X129884944Y-125492955D01*
X129884944Y-125492954D01*
X129880066Y-125468429D01*
X129869737Y-125416503D01*
X129844626Y-125355879D01*
X129809397Y-125270827D01*
X129809390Y-125270814D01*
X129721789Y-125139711D01*
X129721786Y-125139707D01*
X129721781Y-125139701D01*
X129610297Y-125028217D01*
X129610291Y-125028212D01*
X129610290Y-125028211D01*
X129479191Y-124940613D01*
X129479190Y-124940612D01*
X129479185Y-124940609D01*
X129479172Y-124940602D01*
X129479165Y-124940598D01*
X129333502Y-124880264D01*
X129333471Y-124880257D01*
X129178847Y-124849500D01*
X129178845Y-124849500D01*
X129178842Y-124849500D01*
X129021158Y-124849500D01*
X129021155Y-124849500D01*
X129021153Y-124849500D01*
X128866527Y-124880257D01*
X128866496Y-124880264D01*
X128720833Y-124940598D01*
X128720824Y-124940603D01*
X128720807Y-124940613D01*
X128589708Y-125028211D01*
X128589707Y-125028212D01*
X128589701Y-125028217D01*
X128478217Y-125139701D01*
X128478212Y-125139707D01*
X128478211Y-125139708D01*
X128390613Y-125270807D01*
X128390603Y-125270824D01*
X128390598Y-125270833D01*
X128330264Y-125416496D01*
X128330257Y-125416527D01*
X128299500Y-125571150D01*
X128299500Y-125571153D01*
X128299500Y-125728846D01*
X128299500Y-125728848D01*
X128299499Y-125728848D01*
X127920662Y-125728848D01*
X127950500Y-125578842D01*
X127950500Y-125421158D01*
X127950500Y-125421155D01*
X127950500Y-125420971D01*
X127950064Y-125418966D01*
X127934299Y-125339711D01*
X127920596Y-125270821D01*
X127919737Y-125266503D01*
X127903876Y-125228210D01*
X127867591Y-125140609D01*
X127859400Y-125120833D01*
X127859395Y-125120824D01*
X127859390Y-125120814D01*
X127771789Y-124989711D01*
X127771787Y-124989708D01*
X127771786Y-124989707D01*
X127771781Y-124989701D01*
X127660297Y-124878217D01*
X127660291Y-124878212D01*
X127660290Y-124878211D01*
X127529191Y-124790613D01*
X127529190Y-124790612D01*
X127529185Y-124790609D01*
X127529172Y-124790602D01*
X127529165Y-124790598D01*
X127383502Y-124730264D01*
X127383471Y-124730257D01*
X127228847Y-124699500D01*
X127228845Y-124699500D01*
X127228842Y-124699500D01*
X127071158Y-124699500D01*
X127071155Y-124699500D01*
X127071153Y-124699500D01*
X126916527Y-124730257D01*
X126916496Y-124730264D01*
X126770833Y-124790598D01*
X126770824Y-124790603D01*
X126770807Y-124790613D01*
X126639708Y-124878211D01*
X126610459Y-124907461D01*
X126528211Y-124989709D01*
X126528209Y-124989711D01*
X126523900Y-124994021D01*
X126523711Y-124993832D01*
X126513869Y-125003762D01*
X126495308Y-125019275D01*
X126441067Y-125045525D01*
X126434486Y-125046896D01*
X126409209Y-125049500D01*
X126371153Y-125049500D01*
X126216527Y-125080257D01*
X126216496Y-125080264D01*
X126070833Y-125140598D01*
X126070824Y-125140603D01*
X126070807Y-125140613D01*
X125939712Y-125228209D01*
X125939707Y-125228212D01*
X125939701Y-125228217D01*
X125828217Y-125339701D01*
X125828212Y-125339707D01*
X125828211Y-125339708D01*
X125740613Y-125470807D01*
X125740603Y-125470824D01*
X125740598Y-125470833D01*
X125680264Y-125616496D01*
X125680257Y-125616527D01*
X125649500Y-125771150D01*
X125649500Y-125771153D01*
X125649500Y-125928846D01*
X125649500Y-125928848D01*
X125649499Y-125928848D01*
X125000499Y-125928848D01*
X125000500Y-125928842D01*
X125000500Y-125771158D01*
X125000500Y-125771155D01*
X125000499Y-125771153D01*
X124997794Y-125757553D01*
X124969737Y-125616503D01*
X124969735Y-125616498D01*
X124909397Y-125470827D01*
X124909390Y-125470814D01*
X124821789Y-125339711D01*
X124821786Y-125339707D01*
X124821781Y-125339701D01*
X124710297Y-125228217D01*
X124710291Y-125228212D01*
X124710287Y-125228209D01*
X124579191Y-125140613D01*
X124579190Y-125140612D01*
X124579185Y-125140609D01*
X124579172Y-125140602D01*
X124579165Y-125140598D01*
X124433502Y-125080264D01*
X124433471Y-125080257D01*
X124278847Y-125049500D01*
X124278845Y-125049500D01*
X124278842Y-125049500D01*
X124121158Y-125049500D01*
X124121155Y-125049500D01*
X124121153Y-125049500D01*
X123966527Y-125080257D01*
X123966496Y-125080264D01*
X123820833Y-125140598D01*
X123820824Y-125140603D01*
X123820807Y-125140613D01*
X123689712Y-125228209D01*
X123689707Y-125228212D01*
X123689701Y-125228217D01*
X123578217Y-125339701D01*
X123578212Y-125339707D01*
X123578211Y-125339708D01*
X123490613Y-125470807D01*
X123490603Y-125470824D01*
X123490598Y-125470833D01*
X123430264Y-125616496D01*
X123430257Y-125616527D01*
X123399500Y-125771150D01*
X123399500Y-125771153D01*
X123399500Y-125928846D01*
X123399500Y-125928848D01*
X123399499Y-125928848D01*
X120821552Y-125928848D01*
X120779843Y-125804499D01*
X120724870Y-125640606D01*
X120669682Y-125476074D01*
X120668866Y-125473547D01*
X120668067Y-125470980D01*
X120667303Y-125468429D01*
X120653694Y-125421153D01*
X120431553Y-124649435D01*
X120430850Y-124646893D01*
X120430164Y-124644303D01*
X120429512Y-124641730D01*
X120229439Y-123813138D01*
X120228839Y-123810527D01*
X120228268Y-123807914D01*
X120227725Y-123805296D01*
X120220120Y-123766502D01*
X120063771Y-122968923D01*
X120063284Y-122966290D01*
X120062809Y-122963551D01*
X120062409Y-122961090D01*
X120029966Y-122746751D01*
X119934846Y-122118338D01*
X119934476Y-122115703D01*
X119934127Y-122113004D01*
X119933810Y-122110325D01*
X119931179Y-122085797D01*
X119928830Y-122063906D01*
X119919252Y-121974627D01*
X126285131Y-121974627D01*
X126315889Y-122129250D01*
X126315896Y-122129281D01*
X126376230Y-122274944D01*
X126376235Y-122274953D01*
X126376245Y-122274970D01*
X126463843Y-122406069D01*
X126463844Y-122406070D01*
X126463849Y-122406076D01*
X126575333Y-122517560D01*
X126575339Y-122517565D01*
X126575343Y-122517568D01*
X126706446Y-122605169D01*
X126706459Y-122605176D01*
X126852130Y-122665514D01*
X126852135Y-122665516D01*
X127006785Y-122696278D01*
X127006788Y-122696279D01*
X127006790Y-122696279D01*
X127164476Y-122696279D01*
X127164477Y-122696278D01*
X127319129Y-122665516D01*
X127464811Y-122605173D01*
X127595921Y-122517568D01*
X127707421Y-122406068D01*
X127795026Y-122274958D01*
X127855369Y-122129276D01*
X127886132Y-121974621D01*
X127886132Y-121816937D01*
X127886132Y-121816934D01*
X127886132Y-121816752D01*
X127885697Y-121814750D01*
X127876312Y-121767569D01*
X127861004Y-121690613D01*
X127855369Y-121662284D01*
X127855370Y-121662284D01*
X127850412Y-121650315D01*
X127842107Y-121630264D01*
X127795029Y-121516606D01*
X127795022Y-121516593D01*
X127707421Y-121385490D01*
X127707418Y-121385486D01*
X127707413Y-121385480D01*
X127595929Y-121273996D01*
X127595923Y-121273991D01*
X127595922Y-121273990D01*
X127464823Y-121186392D01*
X127464822Y-121186391D01*
X127464817Y-121186388D01*
X127464804Y-121186381D01*
X127464797Y-121186377D01*
X127319134Y-121126043D01*
X127319103Y-121126036D01*
X127164479Y-121095279D01*
X127164477Y-121095279D01*
X127164474Y-121095279D01*
X127006790Y-121095279D01*
X127006787Y-121095279D01*
X127006785Y-121095279D01*
X126852159Y-121126036D01*
X126852128Y-121126043D01*
X126706465Y-121186377D01*
X126706456Y-121186382D01*
X126706439Y-121186392D01*
X126575340Y-121273990D01*
X126575339Y-121273991D01*
X126575333Y-121273996D01*
X126463849Y-121385480D01*
X126463844Y-121385486D01*
X126463843Y-121385487D01*
X126376245Y-121516586D01*
X126376235Y-121516603D01*
X126376230Y-121516612D01*
X126315896Y-121662275D01*
X126315889Y-121662306D01*
X126285132Y-121816929D01*
X126285132Y-121816932D01*
X126285132Y-121974625D01*
X126285132Y-121974627D01*
X126285131Y-121974627D01*
X119919252Y-121974627D01*
X119903100Y-121824067D01*
X119903100Y-121824063D01*
X119842890Y-121262836D01*
X119842635Y-121260203D01*
X119842408Y-121257541D01*
X119842212Y-121254902D01*
X119838291Y-121193251D01*
X119788103Y-120404233D01*
X119787967Y-120401663D01*
X119787852Y-120398930D01*
X119787772Y-120396314D01*
X119784251Y-120221789D01*
X119770536Y-119542017D01*
X119770520Y-119540993D01*
X119770504Y-119539360D01*
X119770500Y-119538364D01*
X119770599Y-119474234D01*
X119770598Y-119474230D01*
X119770609Y-119467139D01*
X119770500Y-119465448D01*
X119770500Y-117829884D01*
X119770507Y-117828570D01*
X119770522Y-117827155D01*
X119770545Y-117825726D01*
X119771958Y-117761890D01*
X119789720Y-116959116D01*
X119789811Y-116956412D01*
X119789931Y-116953696D01*
X119790076Y-116951071D01*
X119847433Y-116088154D01*
X119847642Y-116085472D01*
X119847893Y-116082641D01*
X119848159Y-116079994D01*
X119848162Y-116079972D01*
X119854752Y-116020641D01*
X132549500Y-116020641D01*
X132549500Y-116020647D01*
X132549500Y-116020649D01*
X132549500Y-117239335D01*
X132549501Y-117239352D01*
X132559860Y-117340760D01*
X132559861Y-117340763D01*
X132614309Y-117505076D01*
X132614314Y-117505087D01*
X132705183Y-117652407D01*
X132705186Y-117652411D01*
X132705188Y-117652413D01*
X132705190Y-117652416D01*
X132827582Y-117774808D01*
X132827585Y-117774810D01*
X132827588Y-117774813D01*
X132827592Y-117774816D01*
X132827600Y-117774821D01*
X132827607Y-117774826D01*
X132973065Y-117864546D01*
X132974918Y-117865689D01*
X132974920Y-117865689D01*
X132974921Y-117865690D01*
X133139239Y-117920139D01*
X133240657Y-117930500D01*
X134859342Y-117930499D01*
X134960761Y-117920139D01*
X135125079Y-117865690D01*
X135272411Y-117774814D01*
X135394814Y-117652411D01*
X135485690Y-117505079D01*
X135540139Y-117340761D01*
X135550500Y-117239343D01*
X135550499Y-116020658D01*
X135540139Y-115919239D01*
X135540138Y-115919235D01*
X135522205Y-115865119D01*
X135485690Y-115754921D01*
X135485686Y-115754915D01*
X135485685Y-115754912D01*
X135485683Y-115754909D01*
X135485541Y-115754616D01*
X135484548Y-115753068D01*
X135394826Y-115607607D01*
X135394821Y-115607600D01*
X135394816Y-115607592D01*
X135394813Y-115607588D01*
X135394810Y-115607585D01*
X135394808Y-115607582D01*
X135272416Y-115485190D01*
X135272411Y-115485186D01*
X135272407Y-115485183D01*
X135233416Y-115461133D01*
X135125091Y-115394316D01*
X135125079Y-115394310D01*
X135124095Y-115393984D01*
X135124095Y-115393983D01*
X135124093Y-115393983D01*
X134960765Y-115339862D01*
X134960762Y-115339861D01*
X134960757Y-115339860D01*
X134960755Y-115339860D01*
X134859351Y-115329500D01*
X134859344Y-115329500D01*
X133240664Y-115329500D01*
X133240647Y-115329501D01*
X133226811Y-115330914D01*
X133139234Y-115339860D01*
X133139228Y-115339862D01*
X133139067Y-115339916D01*
X132974925Y-115394307D01*
X132974915Y-115394312D01*
X132974904Y-115394318D01*
X132855618Y-115467896D01*
X132827592Y-115485183D01*
X132827588Y-115485186D01*
X132827582Y-115485190D01*
X132705190Y-115607582D01*
X132705188Y-115607585D01*
X132705179Y-115607598D01*
X132614318Y-115754904D01*
X132614312Y-115754915D01*
X132614306Y-115754927D01*
X132559862Y-115919232D01*
X132559860Y-115919243D01*
X132549500Y-116020641D01*
X119854752Y-116020641D01*
X119943631Y-115220453D01*
X119943937Y-115217945D01*
X119944317Y-115215102D01*
X119944695Y-115212498D01*
X119954237Y-115151379D01*
X120001123Y-114851048D01*
X129039938Y-114851048D01*
X129070696Y-115005671D01*
X129070703Y-115005702D01*
X129131037Y-115151365D01*
X129131042Y-115151374D01*
X129131052Y-115151391D01*
X129218650Y-115282490D01*
X129218651Y-115282491D01*
X129218656Y-115282497D01*
X129330143Y-115393984D01*
X129330146Y-115393986D01*
X129330150Y-115393989D01*
X129461253Y-115481590D01*
X129461266Y-115481597D01*
X129606937Y-115541935D01*
X129606942Y-115541937D01*
X129761592Y-115572699D01*
X129761595Y-115572700D01*
X129761597Y-115572700D01*
X129919283Y-115572700D01*
X129919284Y-115572699D01*
X130073936Y-115541937D01*
X130210946Y-115485186D01*
X130213083Y-115484300D01*
X130213098Y-115484299D01*
X130215836Y-115483344D01*
X130217297Y-115482668D01*
X130221961Y-115480623D01*
X130231228Y-115476784D01*
X130240114Y-115467898D01*
X130350728Y-115393989D01*
X130350731Y-115393986D01*
X130350734Y-115393984D01*
X130462225Y-115282492D01*
X130462227Y-115282490D01*
X130462228Y-115282489D01*
X130549833Y-115151379D01*
X130610176Y-115005697D01*
X130640939Y-114851042D01*
X130640939Y-114693358D01*
X130640939Y-114693355D01*
X130640939Y-114693250D01*
X130640862Y-114692908D01*
X130640681Y-114692063D01*
X130639326Y-114685248D01*
X130610176Y-114538703D01*
X130609828Y-114537863D01*
X130549836Y-114393027D01*
X130549829Y-114393014D01*
X130462228Y-114261911D01*
X130462225Y-114261907D01*
X130350731Y-114150413D01*
X130350729Y-114150412D01*
X130350728Y-114150411D01*
X130346693Y-114147502D01*
X130344252Y-114146084D01*
X130318284Y-114128732D01*
X130318284Y-114128731D01*
X130219630Y-114062813D01*
X130219629Y-114062812D01*
X130219624Y-114062809D01*
X130219611Y-114062802D01*
X130219604Y-114062798D01*
X130073941Y-114002464D01*
X130073910Y-114002457D01*
X129919286Y-113971700D01*
X129919284Y-113971700D01*
X129919281Y-113971700D01*
X129761597Y-113971700D01*
X129761594Y-113971700D01*
X129761592Y-113971700D01*
X129606966Y-114002457D01*
X129606935Y-114002464D01*
X129461272Y-114062798D01*
X129461263Y-114062803D01*
X129461246Y-114062813D01*
X129330147Y-114150411D01*
X129330146Y-114150412D01*
X129330140Y-114150417D01*
X129218656Y-114261901D01*
X129218651Y-114261907D01*
X129218650Y-114261908D01*
X129131052Y-114393007D01*
X129131042Y-114393024D01*
X129131037Y-114393033D01*
X129070703Y-114538696D01*
X129070696Y-114538727D01*
X129039939Y-114693350D01*
X129039939Y-114693353D01*
X129039939Y-114851046D01*
X129039939Y-114851048D01*
X129039938Y-114851048D01*
X120001123Y-114851048D01*
X120078097Y-114357995D01*
X120078518Y-114355484D01*
X120079038Y-114352578D01*
X120079512Y-114350086D01*
X120081615Y-114339667D01*
X120083570Y-114329989D01*
X120188501Y-113809976D01*
X120250573Y-113502363D01*
X120251138Y-113499716D01*
X120251755Y-113496973D01*
X120252353Y-113494446D01*
X120279908Y-113383469D01*
X120460752Y-112655089D01*
X120461414Y-112652545D01*
X120462134Y-112649893D01*
X120462860Y-112647332D01*
X120708212Y-111817915D01*
X120708993Y-111815385D01*
X120709840Y-111812739D01*
X120710645Y-111810320D01*
X120992426Y-110992622D01*
X120993293Y-110990195D01*
X120994262Y-110987570D01*
X120995195Y-110985125D01*
X121312896Y-110180624D01*
X121313888Y-110178191D01*
X121314946Y-110175680D01*
X121315981Y-110173290D01*
X121668939Y-109383673D01*
X121670037Y-109381288D01*
X121671230Y-109378769D01*
X121672401Y-109376369D01*
X122059889Y-108603237D01*
X122061080Y-108600923D01*
X122062432Y-108598368D01*
X122063652Y-108596124D01*
X122485029Y-107840765D01*
X122486322Y-107838507D01*
X122487720Y-107836128D01*
X122489098Y-107833841D01*
X122489140Y-107833773D01*
X122943430Y-107097928D01*
X122944823Y-107095727D01*
X122946333Y-107093397D01*
X122947779Y-107091221D01*
X123434238Y-106376100D01*
X123435755Y-106373924D01*
X123437354Y-106371681D01*
X123438880Y-106369588D01*
X123956559Y-105676600D01*
X123958119Y-105674561D01*
X123959831Y-105672371D01*
X123961479Y-105670312D01*
X124509219Y-105001004D01*
X124510875Y-104999025D01*
X124512731Y-104996858D01*
X124514440Y-104994906D01*
X125091267Y-104350462D01*
X125092990Y-104348578D01*
X125094931Y-104346504D01*
X125096778Y-104344575D01*
X125140277Y-104300103D01*
X125701517Y-103726306D01*
X125703371Y-103724454D01*
X125705366Y-103722502D01*
X125707270Y-103720682D01*
X126338771Y-103129761D01*
X126340678Y-103128015D01*
X126342790Y-103126125D01*
X126344766Y-103124396D01*
X127001780Y-102561996D01*
X127003799Y-102560306D01*
X127005945Y-102558550D01*
X127008035Y-102556878D01*
X127689268Y-102024101D01*
X127691380Y-102022488D01*
X127693610Y-102020822D01*
X127695774Y-102019243D01*
X128399892Y-101517130D01*
X128402055Y-101515624D01*
X128404344Y-101514067D01*
X128406517Y-101512623D01*
X129132215Y-101042111D01*
X129134407Y-101040724D01*
X129136842Y-101039220D01*
X129139082Y-101037873D01*
X129884854Y-100599935D01*
X129887120Y-100598638D01*
X129889571Y-100597271D01*
X129891813Y-100596052D01*
X130656243Y-100191523D01*
X130658644Y-100190287D01*
X130659813Y-100189701D01*
X130661171Y-100189020D01*
X130663512Y-100187878D01*
X131445111Y-99817547D01*
X131447446Y-99816473D01*
X131450008Y-99815327D01*
X131452409Y-99814286D01*
X132249631Y-99478889D01*
X132252044Y-99477905D01*
X132254640Y-99476880D01*
X132257096Y-99475941D01*
X133068390Y-99176129D01*
X133070760Y-99175283D01*
X133073569Y-99174315D01*
X133075896Y-99173543D01*
X133899642Y-98909915D01*
X133902124Y-98909150D01*
X133904828Y-98908351D01*
X133907412Y-98907617D01*
X134741974Y-98680696D01*
X134744470Y-98680047D01*
X134747214Y-98679366D01*
X134749783Y-98678758D01*
X135593521Y-98488984D01*
X135596151Y-98488424D01*
X135598802Y-98487889D01*
X135601447Y-98487384D01*
X136452755Y-98335116D01*
X136455409Y-98334672D01*
X136458138Y-98334246D01*
X136460742Y-98333869D01*
X137317971Y-98219406D01*
X137320600Y-98219085D01*
X137321994Y-98218929D01*
X137323365Y-98218778D01*
X137326059Y-98218508D01*
X138187427Y-98142081D01*
X138190128Y-98141872D01*
X138192783Y-98141695D01*
X138195497Y-98141543D01*
X139059539Y-98103286D01*
X139062179Y-98103200D01*
X139064968Y-98103138D01*
X139067635Y-98103110D01*
X139932364Y-98103110D01*
X139935030Y-98103138D01*
G37*
%TD.AperFunction*%
%TD*%
%TA.AperFunction,Conductor*%
%TO.N,GND*%
G36*
X136699500Y-112678332D02*
G01*
X136679815Y-112745371D01*
X136627011Y-112791126D01*
X136590284Y-112801448D01*
X136514785Y-112810514D01*
X136445877Y-112798962D01*
X136444457Y-112797672D01*
X136404564Y-112796229D01*
X136400000Y-112800279D01*
X136400000Y-113800000D01*
X136475500Y-113800000D01*
X136542539Y-113819685D01*
X136588294Y-113872489D01*
X136599500Y-113924000D01*
X136599500Y-113976000D01*
X136579815Y-114043039D01*
X136527011Y-114088794D01*
X136475500Y-114100000D01*
X135874000Y-114100000D01*
X135806961Y-114080315D01*
X135761206Y-114027511D01*
X135750000Y-113976000D01*
X135750000Y-113950000D01*
X135724000Y-113950000D01*
X135656961Y-113930315D01*
X135611206Y-113877511D01*
X135600000Y-113826000D01*
X135600000Y-113800000D01*
X135900000Y-113800000D01*
X136100000Y-113800000D01*
X136100000Y-112800281D01*
X136014783Y-112810514D01*
X135985215Y-112810513D01*
X135900000Y-112800279D01*
X135900000Y-113800000D01*
X135600000Y-113800000D01*
X135600000Y-112800281D01*
X135514752Y-112810517D01*
X135375377Y-112865479D01*
X135256003Y-112956003D01*
X135200000Y-113029855D01*
X135200000Y-111800000D01*
X136699500Y-111800000D01*
X136699500Y-112678332D01*
G37*
%TD.AperFunction*%
%TD*%
M02*
