%TF.GenerationSoftware,KiCad,Pcbnew,9.0.0*%
%TF.CreationDate,2026-01-31T22:23:39+01:00*%
%TF.ProjectId,DisplayBoard,44697370-6c61-4794-926f-6172642e6b69,rev?*%
%TF.SameCoordinates,Original*%
%TF.FileFunction,Legend,Top*%
%TF.FilePolarity,Positive*%
%FSLAX46Y46*%
G04 Gerber Fmt 4.6, Leading zero omitted, Abs format (unit mm)*
G04 Created by KiCad (PCBNEW 9.0.0) date 2026-01-31 22:23:39*
%MOMM*%
%LPD*%
G01*
G04 APERTURE LIST*
G04 Aperture macros list*
%AMRoundRect*
0 Rectangle with rounded corners*
0 $1 Rounding radius*
0 $2 $3 $4 $5 $6 $7 $8 $9 X,Y pos of 4 corners*
0 Add a 4 corners polygon primitive as box body*
4,1,4,$2,$3,$4,$5,$6,$7,$8,$9,$2,$3,0*
0 Add four circle primitives for the rounded corners*
1,1,$1+$1,$2,$3*
1,1,$1+$1,$4,$5*
1,1,$1+$1,$6,$7*
1,1,$1+$1,$8,$9*
0 Add four rect primitives between the rounded corners*
20,1,$1+$1,$2,$3,$4,$5,0*
20,1,$1+$1,$4,$5,$6,$7,0*
20,1,$1+$1,$6,$7,$8,$9,0*
20,1,$1+$1,$8,$9,$2,$3,0*%
%AMFreePoly0*
4,1,23,0.000000,0.745722,0.065263,0.745722,0.191342,0.711940,0.304381,0.646677,0.396677,0.554381,0.461940,0.441342,0.495722,0.315263,0.495722,0.250000,0.500000,0.250000,0.500000,-0.250000,0.495722,-0.250000,0.495722,-0.315263,0.461940,-0.441342,0.396677,-0.554381,0.304381,-0.646677,0.191342,-0.711940,0.065263,-0.745722,0.000000,-0.745722,0.000000,-0.750000,-0.500000,-0.750000,
-0.500000,0.750000,0.000000,0.750000,0.000000,0.745722,0.000000,0.745722,$1*%
%AMFreePoly1*
4,1,23,0.500000,-0.750000,0.000000,-0.750000,0.000000,-0.745722,-0.065263,-0.745722,-0.191342,-0.711940,-0.304381,-0.646677,-0.396677,-0.554381,-0.461940,-0.441342,-0.495722,-0.315263,-0.495722,-0.250000,-0.500000,-0.250000,-0.500000,0.250000,-0.495722,0.250000,-0.495722,0.315263,-0.461940,0.441342,-0.396677,0.554381,-0.304381,0.646677,-0.191342,0.711940,-0.065263,0.745722,0.000000,0.745722,
0.000000,0.750000,0.500000,0.750000,0.500000,-0.750000,0.500000,-0.750000,$1*%
G04 Aperture macros list end*
%ADD10C,0.200000*%
%ADD11C,0.120000*%
%ADD12C,0.100000*%
%ADD13C,0.127000*%
%ADD14C,0.010000*%
%ADD15C,0.000000*%
%ADD16RoundRect,0.157500X-0.942500X0.367500X-0.942500X-0.367500X0.942500X-0.367500X0.942500X0.367500X0*%
%ADD17RoundRect,0.150000X-0.350000X0.375000X-0.350000X-0.375000X0.350000X-0.375000X0.350000X0.375000X0*%
%ADD18O,1.204000X2.004000*%
%ADD19O,1.204000X2.304000*%
%ADD20C,0.650000*%
%ADD21RoundRect,0.200000X-0.200000X-0.275000X0.200000X-0.275000X0.200000X0.275000X-0.200000X0.275000X0*%
%ADD22RoundRect,0.250000X0.450000X-0.262500X0.450000X0.262500X-0.450000X0.262500X-0.450000X-0.262500X0*%
%ADD23RoundRect,0.250000X0.250000X0.475000X-0.250000X0.475000X-0.250000X-0.475000X0.250000X-0.475000X0*%
%ADD24RoundRect,0.218750X-0.218750X-0.256250X0.218750X-0.256250X0.218750X0.256250X-0.218750X0.256250X0*%
%ADD25RoundRect,0.250000X0.475000X-0.250000X0.475000X0.250000X-0.475000X0.250000X-0.475000X-0.250000X0*%
%ADD26RoundRect,0.240000X-1.260000X0.560000X-1.260000X-0.560000X1.260000X-0.560000X1.260000X0.560000X0*%
%ADD27RoundRect,0.180000X-2.870000X0.420000X-2.870000X-0.420000X2.870000X-0.420000X2.870000X0.420000X0*%
%ADD28RoundRect,0.150000X0.150000X-0.512500X0.150000X0.512500X-0.150000X0.512500X-0.150000X-0.512500X0*%
%ADD29RoundRect,0.375000X0.375000X-0.625000X0.375000X0.625000X-0.375000X0.625000X-0.375000X-0.625000X0*%
%ADD30RoundRect,0.500000X1.400000X-0.500000X1.400000X0.500000X-1.400000X0.500000X-1.400000X-0.500000X0*%
%ADD31RoundRect,0.250000X-0.475000X0.250000X-0.475000X-0.250000X0.475000X-0.250000X0.475000X0.250000X0*%
%ADD32FreePoly0,0.000000*%
%ADD33FreePoly1,0.000000*%
%ADD34RoundRect,0.225000X-0.250000X0.225000X-0.250000X-0.225000X0.250000X-0.225000X0.250000X0.225000X0*%
%ADD35RoundRect,0.200000X-0.275000X0.200000X-0.275000X-0.200000X0.275000X-0.200000X0.275000X0.200000X0*%
%ADD36RoundRect,0.200000X0.200000X0.275000X-0.200000X0.275000X-0.200000X-0.275000X0.200000X-0.275000X0*%
%ADD37RoundRect,0.200000X0.275000X-0.200000X0.275000X0.200000X-0.275000X0.200000X-0.275000X-0.200000X0*%
%ADD38RoundRect,0.157500X-0.367500X-0.842500X0.367500X-0.842500X0.367500X0.842500X-0.367500X0.842500X0*%
%ADD39RoundRect,0.120000X-0.280000X-0.330000X0.280000X-0.330000X0.280000X0.330000X-0.280000X0.330000X0*%
%ADD40RoundRect,0.150000X0.587500X0.150000X-0.587500X0.150000X-0.587500X-0.150000X0.587500X-0.150000X0*%
%ADD41RoundRect,0.135000X-0.315000X0.540000X-0.315000X-0.540000X0.315000X-0.540000X0.315000X0.540000X0*%
%ADD42RoundRect,0.150000X-0.825000X-0.150000X0.825000X-0.150000X0.825000X0.150000X-0.825000X0.150000X0*%
%ADD43RoundRect,0.102000X-2.000000X-2.000000X2.000000X-2.000000X2.000000X2.000000X-2.000000X2.000000X0*%
G04 APERTURE END LIST*
D10*
%TO.C,USBC501*%
X96600000Y-129200000D02*
G75*
G02*
X96400000Y-129200000I-100000J0D01*
G01*
X96400000Y-129200000D02*
G75*
G02*
X96600000Y-129200000I100000J0D01*
G01*
X105270000Y-137800001D02*
X105270000Y-136520000D01*
X105269999Y-132550000D02*
X105270000Y-133800001D01*
X96330000Y-136520000D02*
X96330000Y-137799999D01*
X96330000Y-132550000D02*
X96329999Y-133800000D01*
D11*
%TO.C,R401*%
X92562742Y-105377500D02*
X93037258Y-105377500D01*
X92562742Y-106422500D02*
X93037258Y-106422500D01*
%TO.C,D401*%
X95135000Y-103414564D02*
X95135000Y-102960436D01*
X93665000Y-103414564D02*
X93665000Y-102960436D01*
%TO.C,C403*%
X89761252Y-105165000D02*
X89238748Y-105165000D01*
X89761252Y-106635000D02*
X89238748Y-106635000D01*
%TO.C,FB401*%
X91637221Y-104610000D02*
X91962779Y-104610000D01*
X91637221Y-103590000D02*
X91962779Y-103590000D01*
%TO.C,C404*%
X93261252Y-106965000D02*
X92738748Y-106965000D01*
X93261252Y-108435000D02*
X92738748Y-108435000D01*
%TO.C,C405*%
X106265000Y-114261252D02*
X106265000Y-113738748D01*
X107735000Y-114261252D02*
X107735000Y-113738748D01*
D12*
%TO.C,J401*%
X100550000Y-101000000D02*
X99600000Y-101000000D01*
X100550000Y-101000000D02*
X100550000Y-103400000D01*
X95550000Y-101000000D02*
X96400000Y-101000000D01*
X100550000Y-104800000D02*
X100550000Y-105400000D01*
X100550000Y-106800000D02*
X100550000Y-107400000D01*
X100550000Y-108800000D02*
X100550000Y-109400000D01*
X100550000Y-110800000D02*
X100550000Y-113100000D01*
X100550000Y-113100000D02*
X99700000Y-113100000D01*
X96400000Y-113100000D02*
X95550000Y-113100000D01*
X95550000Y-113100000D02*
X95550000Y-101000000D01*
D11*
%TO.C,U501*%
X105190000Y-128100000D02*
X104860000Y-128340000D01*
X104860000Y-127860000D01*
X105190000Y-128100000D01*
G36*
X105190000Y-128100000D02*
G01*
X104860000Y-128340000D01*
X104860000Y-127860000D01*
X105190000Y-128100000D01*
G37*
X105140000Y-126800000D02*
X105140000Y-126000000D01*
X105140000Y-126800000D02*
X105140000Y-127600000D01*
X108260000Y-126800000D02*
X108260000Y-126000000D01*
X108260000Y-126800000D02*
X108260000Y-127600000D01*
%TO.C,C301*%
X94065000Y-127061252D02*
X94065000Y-126538748D01*
X95535000Y-127061252D02*
X95535000Y-126538748D01*
%TO.C,U502*%
X108990000Y-124530000D02*
X108660000Y-124770000D01*
X108660000Y-124290000D01*
X108990000Y-124530000D01*
G36*
X108990000Y-124530000D02*
G01*
X108660000Y-124770000D01*
X108660000Y-124290000D01*
X108990000Y-124530000D01*
G37*
X115710000Y-119490000D02*
X114450000Y-119490000D01*
X108890000Y-119490000D02*
X110150000Y-119490000D01*
X115710000Y-123250000D02*
X115710000Y-119490000D01*
X108890000Y-123250000D02*
X108890000Y-119490000D01*
%TO.C,C502*%
X106865000Y-120238748D02*
X106865000Y-120761252D01*
X108335000Y-120238748D02*
X108335000Y-120761252D01*
%TO.C,JP501*%
X111700000Y-127500000D02*
G75*
G02*
X111000000Y-128200000I-700000J0D01*
G01*
X111000000Y-126200000D02*
G75*
G02*
X111700000Y-126900000I0J-700000D01*
G01*
X109600000Y-128200000D02*
G75*
G02*
X108900000Y-127500000I-1J699999D01*
G01*
X108900000Y-126900000D02*
G75*
G02*
X109600000Y-126200000I699999J1D01*
G01*
X111700000Y-126900000D02*
X111700000Y-127500000D01*
X111000000Y-128200000D02*
X109600000Y-128200000D01*
X109600000Y-126200000D02*
X111000000Y-126200000D01*
X108900000Y-127500000D02*
X108900000Y-126900000D01*
%TO.C,C204*%
X89902281Y-117104420D02*
X89902281Y-117385580D01*
X90922281Y-117104420D02*
X90922281Y-117385580D01*
%TO.C,R301*%
X93522500Y-126487742D02*
X93522500Y-126962258D01*
X92477500Y-126487742D02*
X92477500Y-126962258D01*
%TO.C,Rusb502*%
X95322500Y-134962742D02*
X95322500Y-135437258D01*
X94277500Y-134962742D02*
X94277500Y-135437258D01*
%TO.C,R203*%
X94737258Y-121177500D02*
X94262742Y-121177500D01*
X94737258Y-122222500D02*
X94262742Y-122222500D01*
%TO.C,R204*%
X104377500Y-114237258D02*
X104377500Y-113762742D01*
X105422500Y-114237258D02*
X105422500Y-113762742D01*
%TO.C,C401*%
X90835000Y-108438748D02*
X90835000Y-108961252D01*
X89365000Y-108438748D02*
X89365000Y-108961252D01*
%TO.C,R201*%
X86977500Y-123137258D02*
X86977500Y-122662742D01*
X88022500Y-123137258D02*
X88022500Y-122662742D01*
%TO.C,R206*%
X98362742Y-113977500D02*
X98837258Y-113977500D01*
X98362742Y-115022500D02*
X98837258Y-115022500D01*
%TO.C,C201*%
X94561252Y-119165000D02*
X94038748Y-119165000D01*
X94561252Y-120635000D02*
X94038748Y-120635000D01*
%TO.C,D402*%
X106100000Y-106340000D02*
X105450000Y-106340000D01*
X106100000Y-106340000D02*
X106750000Y-106340000D01*
X106100000Y-109460000D02*
X105450000Y-109460000D01*
X106100000Y-109460000D02*
X106750000Y-109460000D01*
X107502500Y-109740000D02*
X107022500Y-109740000D01*
X107262500Y-109410000D01*
X107502500Y-109740000D01*
G36*
X107502500Y-109740000D02*
G01*
X107022500Y-109740000D01*
X107262500Y-109410000D01*
X107502500Y-109740000D01*
G37*
%TO.C,C205*%
X94502281Y-117104420D02*
X94502281Y-117385580D01*
X95522281Y-117104420D02*
X95522281Y-117385580D01*
%TO.C,C203*%
X93565000Y-112161252D02*
X93565000Y-111638748D01*
X95035000Y-112161252D02*
X95035000Y-111638748D01*
%TO.C,C402*%
X88735000Y-108438748D02*
X88735000Y-108961252D01*
X87265000Y-108438748D02*
X87265000Y-108961252D01*
%TO.C,R302*%
X93522500Y-129587742D02*
X93522500Y-130062258D01*
X92477500Y-129587742D02*
X92477500Y-130062258D01*
%TO.C,L201*%
X92537221Y-117010000D02*
X92862779Y-117010000D01*
X92537221Y-115990000D02*
X92862779Y-115990000D01*
%TO.C,C202*%
X94561252Y-113965000D02*
X94038748Y-113965000D01*
X94561252Y-115435000D02*
X94038748Y-115435000D01*
%TO.C,R205*%
X101937258Y-113977500D02*
X101462742Y-113977500D01*
X101937258Y-115022500D02*
X101462742Y-115022500D01*
%TO.C,U401*%
X112000000Y-111640000D02*
X110050000Y-111640000D01*
X112000000Y-111640000D02*
X113950000Y-111640000D01*
X112000000Y-116760000D02*
X110050000Y-116760000D01*
X112000000Y-116760000D02*
X113950000Y-116760000D01*
X109300000Y-111735000D02*
X109060000Y-111405000D01*
X109540000Y-111405000D01*
X109300000Y-111735000D01*
G36*
X109300000Y-111735000D02*
G01*
X109060000Y-111405000D01*
X109540000Y-111405000D01*
X109300000Y-111735000D01*
G37*
%TO.C,R402*%
X106137258Y-116177500D02*
X105662742Y-116177500D01*
X106137258Y-117222500D02*
X105662742Y-117222500D01*
%TO.C,Rusb501*%
X94277500Y-132337258D02*
X94277500Y-131862742D01*
X95322500Y-132337258D02*
X95322500Y-131862742D01*
%TO.C,R202*%
X88577500Y-123137258D02*
X88577500Y-122662742D01*
X89622500Y-123137258D02*
X89622500Y-122662742D01*
D13*
%TO.C,U201*%
X96500000Y-115569563D02*
X96800000Y-115569563D01*
X96500000Y-115869563D02*
X96500000Y-115569563D01*
X96500000Y-122269563D02*
X96500000Y-122569563D01*
X96500000Y-122569563D02*
X96800000Y-122569563D01*
X103200000Y-115569563D02*
X103500000Y-115569563D01*
X103200000Y-122569563D02*
X103500000Y-122569563D01*
X103500000Y-115569563D02*
X103500000Y-115869563D01*
X103500000Y-122569563D02*
X103500000Y-122269563D01*
D10*
X96000000Y-116469563D02*
G75*
G02*
X95800000Y-116469563I-100000J0D01*
G01*
X95800000Y-116469563D02*
G75*
G02*
X96000000Y-116469563I100000J0D01*
G01*
D11*
%TO.C,C501*%
X110561252Y-128865000D02*
X110038748Y-128865000D01*
X110561252Y-130335000D02*
X110038748Y-130335000D01*
%TD*%
%LPC*%
D14*
%TO.C,USBC501*%
X104349999Y-131069999D02*
X103650001Y-131069999D01*
X103649998Y-129020001D01*
X104350000Y-129020000D01*
X104349999Y-131069999D01*
G36*
X104349999Y-131069999D02*
G01*
X103650001Y-131069999D01*
X103649998Y-129020001D01*
X104350000Y-129020000D01*
X104349999Y-131069999D01*
G37*
X103550001Y-131070000D02*
X102850000Y-131070001D01*
X102850000Y-129020000D01*
X103550001Y-129020000D01*
X103550001Y-131070000D01*
G36*
X103550001Y-131070000D02*
G01*
X102850000Y-131070001D01*
X102850000Y-129020000D01*
X103550001Y-129020000D01*
X103550001Y-131070000D01*
G37*
X102750000Y-131070000D02*
X102350000Y-131069999D01*
X102350000Y-129020000D01*
X102750001Y-129019999D01*
X102750000Y-131070000D01*
G36*
X102750000Y-131070000D02*
G01*
X102350000Y-131069999D01*
X102350000Y-129020000D01*
X102750001Y-129019999D01*
X102750000Y-131070000D01*
G37*
X102250000Y-129020000D02*
X102250000Y-131070000D01*
X101850000Y-131070001D01*
X101850000Y-129019999D01*
X102250000Y-129020000D01*
G36*
X102250000Y-129020000D02*
G01*
X102250000Y-131070000D01*
X101850000Y-131070001D01*
X101850000Y-129019999D01*
X102250000Y-129020000D01*
G37*
X101750000Y-131070000D02*
X101350000Y-131070000D01*
X101350000Y-129020001D01*
X101750001Y-129020001D01*
X101750000Y-131070000D01*
G36*
X101750000Y-131070000D02*
G01*
X101350000Y-131070000D01*
X101350000Y-129020001D01*
X101750001Y-129020001D01*
X101750000Y-131070000D01*
G37*
X101250001Y-131070000D02*
X100850000Y-131070000D01*
X100849999Y-129020000D01*
X101250000Y-129020000D01*
X101250001Y-131070000D01*
G36*
X101250001Y-131070000D02*
G01*
X100850000Y-131070000D01*
X100849999Y-129020000D01*
X101250000Y-129020000D01*
X101250001Y-131070000D01*
G37*
X100750000Y-131070001D02*
X100350001Y-131069999D01*
X100349999Y-129020001D01*
X100750000Y-129020000D01*
X100750000Y-131070001D01*
G36*
X100750000Y-131070001D02*
G01*
X100350001Y-131069999D01*
X100349999Y-129020001D01*
X100750000Y-129020000D01*
X100750000Y-131070001D01*
G37*
X100250000Y-131070000D02*
X99850002Y-131070000D01*
X99850000Y-129020001D01*
X100250000Y-129019998D01*
X100250000Y-131070000D01*
G36*
X100250000Y-131070000D02*
G01*
X99850002Y-131070000D01*
X99850000Y-129020001D01*
X100250000Y-129019998D01*
X100250000Y-131070000D01*
G37*
X99749999Y-131070000D02*
X99350000Y-131070001D01*
X99350001Y-129020000D01*
X99750001Y-129020000D01*
X99749999Y-131070000D01*
G36*
X99749999Y-131070000D02*
G01*
X99350000Y-131070001D01*
X99350001Y-129020000D01*
X99750001Y-129020000D01*
X99749999Y-131070000D01*
G37*
X99250000Y-129020000D02*
X99249998Y-131069999D01*
X98849999Y-131070000D01*
X98850000Y-129019999D01*
X99250000Y-129020000D01*
G36*
X99250000Y-129020000D02*
G01*
X99249998Y-131069999D01*
X98849999Y-131070000D01*
X98850000Y-129019999D01*
X99250000Y-129020000D01*
G37*
X98750000Y-131070000D02*
X98050000Y-131070001D01*
X98050000Y-129020000D01*
X98750000Y-129020000D01*
X98750000Y-131070000D01*
G36*
X98750000Y-131070000D02*
G01*
X98050000Y-131070001D01*
X98050000Y-129020000D01*
X98750000Y-129020000D01*
X98750000Y-131070000D01*
G37*
X97949999Y-131069999D02*
X97250000Y-131069999D01*
X97250001Y-129020000D01*
X97950001Y-129019999D01*
X97949999Y-131069999D01*
G36*
X97949999Y-131069999D02*
G01*
X97250000Y-131069999D01*
X97250001Y-129020000D01*
X97950001Y-129019999D01*
X97949999Y-131069999D01*
G37*
D15*
%TO.C,JP501*%
G36*
X110449999Y-127950000D02*
G01*
X110150000Y-127950000D01*
X110150001Y-126450000D01*
X110450000Y-126450000D01*
X110449999Y-127950000D01*
G37*
D14*
%TO.C,U201*%
X97060000Y-116644563D02*
X96490000Y-116644563D01*
X96490000Y-116294563D01*
X97060000Y-116294563D01*
X97060000Y-116644563D01*
G36*
X97060000Y-116644563D02*
G01*
X96490000Y-116644563D01*
X96490000Y-116294563D01*
X97060000Y-116294563D01*
X97060000Y-116644563D01*
G37*
X97060000Y-117044563D02*
X96490000Y-117044563D01*
X96490000Y-116694563D01*
X97060000Y-116694563D01*
X97060000Y-117044563D01*
G36*
X97060000Y-117044563D02*
G01*
X96490000Y-117044563D01*
X96490000Y-116694563D01*
X97060000Y-116694563D01*
X97060000Y-117044563D01*
G37*
X97060000Y-117444563D02*
X96490000Y-117444563D01*
X96490000Y-117094563D01*
X97060000Y-117094563D01*
X97060000Y-117444563D01*
G36*
X97060000Y-117444563D02*
G01*
X96490000Y-117444563D01*
X96490000Y-117094563D01*
X97060000Y-117094563D01*
X97060000Y-117444563D01*
G37*
X97060000Y-117844563D02*
X96490000Y-117844563D01*
X96490000Y-117494563D01*
X97060000Y-117494563D01*
X97060000Y-117844563D01*
G36*
X97060000Y-117844563D02*
G01*
X96490000Y-117844563D01*
X96490000Y-117494563D01*
X97060000Y-117494563D01*
X97060000Y-117844563D01*
G37*
X97060000Y-118244563D02*
X96490000Y-118244563D01*
X96490000Y-117894563D01*
X97060000Y-117894563D01*
X97060000Y-118244563D01*
G36*
X97060000Y-118244563D02*
G01*
X96490000Y-118244563D01*
X96490000Y-117894563D01*
X97060000Y-117894563D01*
X97060000Y-118244563D01*
G37*
X97060000Y-118644563D02*
X96490000Y-118644563D01*
X96490000Y-118294563D01*
X97060000Y-118294563D01*
X97060000Y-118644563D01*
G36*
X97060000Y-118644563D02*
G01*
X96490000Y-118644563D01*
X96490000Y-118294563D01*
X97060000Y-118294563D01*
X97060000Y-118644563D01*
G37*
X97060000Y-119044563D02*
X96490000Y-119044563D01*
X96490000Y-118694563D01*
X97060000Y-118694563D01*
X97060000Y-119044563D01*
G36*
X97060000Y-119044563D02*
G01*
X96490000Y-119044563D01*
X96490000Y-118694563D01*
X97060000Y-118694563D01*
X97060000Y-119044563D01*
G37*
X97060000Y-119444563D02*
X96490000Y-119444563D01*
X96490000Y-119094563D01*
X97060000Y-119094563D01*
X97060000Y-119444563D01*
G36*
X97060000Y-119444563D02*
G01*
X96490000Y-119444563D01*
X96490000Y-119094563D01*
X97060000Y-119094563D01*
X97060000Y-119444563D01*
G37*
X97060000Y-119844563D02*
X96490000Y-119844563D01*
X96490000Y-119494563D01*
X97060000Y-119494563D01*
X97060000Y-119844563D01*
G36*
X97060000Y-119844563D02*
G01*
X96490000Y-119844563D01*
X96490000Y-119494563D01*
X97060000Y-119494563D01*
X97060000Y-119844563D01*
G37*
X97060000Y-120244563D02*
X96490000Y-120244563D01*
X96490000Y-119894563D01*
X97060000Y-119894563D01*
X97060000Y-120244563D01*
G36*
X97060000Y-120244563D02*
G01*
X96490000Y-120244563D01*
X96490000Y-119894563D01*
X97060000Y-119894563D01*
X97060000Y-120244563D01*
G37*
X97060000Y-120644563D02*
X96490000Y-120644563D01*
X96490000Y-120294563D01*
X97060000Y-120294563D01*
X97060000Y-120644563D01*
G36*
X97060000Y-120644563D02*
G01*
X96490000Y-120644563D01*
X96490000Y-120294563D01*
X97060000Y-120294563D01*
X97060000Y-120644563D01*
G37*
X97060000Y-121044563D02*
X96490000Y-121044563D01*
X96490000Y-120694563D01*
X97060000Y-120694563D01*
X97060000Y-121044563D01*
G36*
X97060000Y-121044563D02*
G01*
X96490000Y-121044563D01*
X96490000Y-120694563D01*
X97060000Y-120694563D01*
X97060000Y-121044563D01*
G37*
X97060000Y-121444563D02*
X96490000Y-121444563D01*
X96490000Y-121094563D01*
X97060000Y-121094563D01*
X97060000Y-121444563D01*
G36*
X97060000Y-121444563D02*
G01*
X96490000Y-121444563D01*
X96490000Y-121094563D01*
X97060000Y-121094563D01*
X97060000Y-121444563D01*
G37*
X97060000Y-121844563D02*
X96490000Y-121844563D01*
X96490000Y-121494563D01*
X97060000Y-121494563D01*
X97060000Y-121844563D01*
G36*
X97060000Y-121844563D02*
G01*
X96490000Y-121844563D01*
X96490000Y-121494563D01*
X97060000Y-121494563D01*
X97060000Y-121844563D01*
G37*
X97575000Y-116129563D02*
X97225000Y-116129563D01*
X97225000Y-115559563D01*
X97575000Y-115559563D01*
X97575000Y-116129563D01*
G36*
X97575000Y-116129563D02*
G01*
X97225000Y-116129563D01*
X97225000Y-115559563D01*
X97575000Y-115559563D01*
X97575000Y-116129563D01*
G37*
X97575000Y-122579563D02*
X97225000Y-122579563D01*
X97225000Y-122009563D01*
X97575000Y-122009563D01*
X97575000Y-122579563D01*
G36*
X97575000Y-122579563D02*
G01*
X97225000Y-122579563D01*
X97225000Y-122009563D01*
X97575000Y-122009563D01*
X97575000Y-122579563D01*
G37*
X97975000Y-116129563D02*
X97625000Y-116129563D01*
X97625000Y-115559563D01*
X97975000Y-115559563D01*
X97975000Y-116129563D01*
G36*
X97975000Y-116129563D02*
G01*
X97625000Y-116129563D01*
X97625000Y-115559563D01*
X97975000Y-115559563D01*
X97975000Y-116129563D01*
G37*
X97975000Y-122579563D02*
X97625000Y-122579563D01*
X97625000Y-122009563D01*
X97975000Y-122009563D01*
X97975000Y-122579563D01*
G36*
X97975000Y-122579563D02*
G01*
X97625000Y-122579563D01*
X97625000Y-122009563D01*
X97975000Y-122009563D01*
X97975000Y-122579563D01*
G37*
X98375000Y-116129563D02*
X98025000Y-116129563D01*
X98025000Y-115559563D01*
X98375000Y-115559563D01*
X98375000Y-116129563D01*
G36*
X98375000Y-116129563D02*
G01*
X98025000Y-116129563D01*
X98025000Y-115559563D01*
X98375000Y-115559563D01*
X98375000Y-116129563D01*
G37*
X98375000Y-122579563D02*
X98025000Y-122579563D01*
X98025000Y-122009563D01*
X98375000Y-122009563D01*
X98375000Y-122579563D01*
G36*
X98375000Y-122579563D02*
G01*
X98025000Y-122579563D01*
X98025000Y-122009563D01*
X98375000Y-122009563D01*
X98375000Y-122579563D01*
G37*
X98775000Y-116129563D02*
X98425000Y-116129563D01*
X98425000Y-115559563D01*
X98775000Y-115559563D01*
X98775000Y-116129563D01*
G36*
X98775000Y-116129563D02*
G01*
X98425000Y-116129563D01*
X98425000Y-115559563D01*
X98775000Y-115559563D01*
X98775000Y-116129563D01*
G37*
X98775000Y-122579563D02*
X98425000Y-122579563D01*
X98425000Y-122009563D01*
X98775000Y-122009563D01*
X98775000Y-122579563D01*
G36*
X98775000Y-122579563D02*
G01*
X98425000Y-122579563D01*
X98425000Y-122009563D01*
X98775000Y-122009563D01*
X98775000Y-122579563D01*
G37*
X99175000Y-116129563D02*
X98825000Y-116129563D01*
X98825000Y-115559563D01*
X99175000Y-115559563D01*
X99175000Y-116129563D01*
G36*
X99175000Y-116129563D02*
G01*
X98825000Y-116129563D01*
X98825000Y-115559563D01*
X99175000Y-115559563D01*
X99175000Y-116129563D01*
G37*
X99175000Y-122579563D02*
X98825000Y-122579563D01*
X98825000Y-122009563D01*
X99175000Y-122009563D01*
X99175000Y-122579563D01*
G36*
X99175000Y-122579563D02*
G01*
X98825000Y-122579563D01*
X98825000Y-122009563D01*
X99175000Y-122009563D01*
X99175000Y-122579563D01*
G37*
X99575000Y-116129563D02*
X99225000Y-116129563D01*
X99225000Y-115559563D01*
X99575000Y-115559563D01*
X99575000Y-116129563D01*
G36*
X99575000Y-116129563D02*
G01*
X99225000Y-116129563D01*
X99225000Y-115559563D01*
X99575000Y-115559563D01*
X99575000Y-116129563D01*
G37*
X99575000Y-122579563D02*
X99225000Y-122579563D01*
X99225000Y-122009563D01*
X99575000Y-122009563D01*
X99575000Y-122579563D01*
G36*
X99575000Y-122579563D02*
G01*
X99225000Y-122579563D01*
X99225000Y-122009563D01*
X99575000Y-122009563D01*
X99575000Y-122579563D01*
G37*
X99975000Y-116129563D02*
X99625000Y-116129563D01*
X99625000Y-115559563D01*
X99975000Y-115559563D01*
X99975000Y-116129563D01*
G36*
X99975000Y-116129563D02*
G01*
X99625000Y-116129563D01*
X99625000Y-115559563D01*
X99975000Y-115559563D01*
X99975000Y-116129563D01*
G37*
X99975000Y-122579563D02*
X99625000Y-122579563D01*
X99625000Y-122009563D01*
X99975000Y-122009563D01*
X99975000Y-122579563D01*
G36*
X99975000Y-122579563D02*
G01*
X99625000Y-122579563D01*
X99625000Y-122009563D01*
X99975000Y-122009563D01*
X99975000Y-122579563D01*
G37*
X100375000Y-116129563D02*
X100025000Y-116129563D01*
X100025000Y-115559563D01*
X100375000Y-115559563D01*
X100375000Y-116129563D01*
G36*
X100375000Y-116129563D02*
G01*
X100025000Y-116129563D01*
X100025000Y-115559563D01*
X100375000Y-115559563D01*
X100375000Y-116129563D01*
G37*
X100375000Y-122579563D02*
X100025000Y-122579563D01*
X100025000Y-122009563D01*
X100375000Y-122009563D01*
X100375000Y-122579563D01*
G36*
X100375000Y-122579563D02*
G01*
X100025000Y-122579563D01*
X100025000Y-122009563D01*
X100375000Y-122009563D01*
X100375000Y-122579563D01*
G37*
X100775000Y-116129563D02*
X100425000Y-116129563D01*
X100425000Y-115559563D01*
X100775000Y-115559563D01*
X100775000Y-116129563D01*
G36*
X100775000Y-116129563D02*
G01*
X100425000Y-116129563D01*
X100425000Y-115559563D01*
X100775000Y-115559563D01*
X100775000Y-116129563D01*
G37*
X100775000Y-122579563D02*
X100425000Y-122579563D01*
X100425000Y-122009563D01*
X100775000Y-122009563D01*
X100775000Y-122579563D01*
G36*
X100775000Y-122579563D02*
G01*
X100425000Y-122579563D01*
X100425000Y-122009563D01*
X100775000Y-122009563D01*
X100775000Y-122579563D01*
G37*
X101175000Y-116129563D02*
X100825000Y-116129563D01*
X100825000Y-115559563D01*
X101175000Y-115559563D01*
X101175000Y-116129563D01*
G36*
X101175000Y-116129563D02*
G01*
X100825000Y-116129563D01*
X100825000Y-115559563D01*
X101175000Y-115559563D01*
X101175000Y-116129563D01*
G37*
X101175000Y-122579563D02*
X100825000Y-122579563D01*
X100825000Y-122009563D01*
X101175000Y-122009563D01*
X101175000Y-122579563D01*
G36*
X101175000Y-122579563D02*
G01*
X100825000Y-122579563D01*
X100825000Y-122009563D01*
X101175000Y-122009563D01*
X101175000Y-122579563D01*
G37*
X101575000Y-116129563D02*
X101225000Y-116129563D01*
X101225000Y-115559563D01*
X101575000Y-115559563D01*
X101575000Y-116129563D01*
G36*
X101575000Y-116129563D02*
G01*
X101225000Y-116129563D01*
X101225000Y-115559563D01*
X101575000Y-115559563D01*
X101575000Y-116129563D01*
G37*
X101575000Y-122579563D02*
X101225000Y-122579563D01*
X101225000Y-122009563D01*
X101575000Y-122009563D01*
X101575000Y-122579563D01*
G36*
X101575000Y-122579563D02*
G01*
X101225000Y-122579563D01*
X101225000Y-122009563D01*
X101575000Y-122009563D01*
X101575000Y-122579563D01*
G37*
X101975000Y-116129563D02*
X101625000Y-116129563D01*
X101625000Y-115559563D01*
X101975000Y-115559563D01*
X101975000Y-116129563D01*
G36*
X101975000Y-116129563D02*
G01*
X101625000Y-116129563D01*
X101625000Y-115559563D01*
X101975000Y-115559563D01*
X101975000Y-116129563D01*
G37*
X101975000Y-122579563D02*
X101625000Y-122579563D01*
X101625000Y-122009563D01*
X101975000Y-122009563D01*
X101975000Y-122579563D01*
G36*
X101975000Y-122579563D02*
G01*
X101625000Y-122579563D01*
X101625000Y-122009563D01*
X101975000Y-122009563D01*
X101975000Y-122579563D01*
G37*
X102375000Y-116129563D02*
X102025000Y-116129563D01*
X102025000Y-115559563D01*
X102375000Y-115559563D01*
X102375000Y-116129563D01*
G36*
X102375000Y-116129563D02*
G01*
X102025000Y-116129563D01*
X102025000Y-115559563D01*
X102375000Y-115559563D01*
X102375000Y-116129563D01*
G37*
X102375000Y-122579563D02*
X102025000Y-122579563D01*
X102025000Y-122009563D01*
X102375000Y-122009563D01*
X102375000Y-122579563D01*
G36*
X102375000Y-122579563D02*
G01*
X102025000Y-122579563D01*
X102025000Y-122009563D01*
X102375000Y-122009563D01*
X102375000Y-122579563D01*
G37*
X102775000Y-116129563D02*
X102425000Y-116129563D01*
X102425000Y-115559563D01*
X102775000Y-115559563D01*
X102775000Y-116129563D01*
G36*
X102775000Y-116129563D02*
G01*
X102425000Y-116129563D01*
X102425000Y-115559563D01*
X102775000Y-115559563D01*
X102775000Y-116129563D01*
G37*
X102775000Y-122579563D02*
X102425000Y-122579563D01*
X102425000Y-122009563D01*
X102775000Y-122009563D01*
X102775000Y-122579563D01*
G36*
X102775000Y-122579563D02*
G01*
X102425000Y-122579563D01*
X102425000Y-122009563D01*
X102775000Y-122009563D01*
X102775000Y-122579563D01*
G37*
X103510000Y-116644563D02*
X102940000Y-116644563D01*
X102940000Y-116294563D01*
X103510000Y-116294563D01*
X103510000Y-116644563D01*
G36*
X103510000Y-116644563D02*
G01*
X102940000Y-116644563D01*
X102940000Y-116294563D01*
X103510000Y-116294563D01*
X103510000Y-116644563D01*
G37*
X103510000Y-117044563D02*
X102940000Y-117044563D01*
X102940000Y-116694563D01*
X103510000Y-116694563D01*
X103510000Y-117044563D01*
G36*
X103510000Y-117044563D02*
G01*
X102940000Y-117044563D01*
X102940000Y-116694563D01*
X103510000Y-116694563D01*
X103510000Y-117044563D01*
G37*
X103510000Y-117444563D02*
X102940000Y-117444563D01*
X102940000Y-117094563D01*
X103510000Y-117094563D01*
X103510000Y-117444563D01*
G36*
X103510000Y-117444563D02*
G01*
X102940000Y-117444563D01*
X102940000Y-117094563D01*
X103510000Y-117094563D01*
X103510000Y-117444563D01*
G37*
X103510000Y-117844563D02*
X102940000Y-117844563D01*
X102940000Y-117494563D01*
X103510000Y-117494563D01*
X103510000Y-117844563D01*
G36*
X103510000Y-117844563D02*
G01*
X102940000Y-117844563D01*
X102940000Y-117494563D01*
X103510000Y-117494563D01*
X103510000Y-117844563D01*
G37*
X103510000Y-118244563D02*
X102940000Y-118244563D01*
X102940000Y-117894563D01*
X103510000Y-117894563D01*
X103510000Y-118244563D01*
G36*
X103510000Y-118244563D02*
G01*
X102940000Y-118244563D01*
X102940000Y-117894563D01*
X103510000Y-117894563D01*
X103510000Y-118244563D01*
G37*
X103510000Y-118644563D02*
X102940000Y-118644563D01*
X102940000Y-118294563D01*
X103510000Y-118294563D01*
X103510000Y-118644563D01*
G36*
X103510000Y-118644563D02*
G01*
X102940000Y-118644563D01*
X102940000Y-118294563D01*
X103510000Y-118294563D01*
X103510000Y-118644563D01*
G37*
X103510000Y-119044563D02*
X102940000Y-119044563D01*
X102940000Y-118694563D01*
X103510000Y-118694563D01*
X103510000Y-119044563D01*
G36*
X103510000Y-119044563D02*
G01*
X102940000Y-119044563D01*
X102940000Y-118694563D01*
X103510000Y-118694563D01*
X103510000Y-119044563D01*
G37*
X103510000Y-119444563D02*
X102940000Y-119444563D01*
X102940000Y-119094563D01*
X103510000Y-119094563D01*
X103510000Y-119444563D01*
G36*
X103510000Y-119444563D02*
G01*
X102940000Y-119444563D01*
X102940000Y-119094563D01*
X103510000Y-119094563D01*
X103510000Y-119444563D01*
G37*
X103510000Y-119844563D02*
X102940000Y-119844563D01*
X102940000Y-119494563D01*
X103510000Y-119494563D01*
X103510000Y-119844563D01*
G36*
X103510000Y-119844563D02*
G01*
X102940000Y-119844563D01*
X102940000Y-119494563D01*
X103510000Y-119494563D01*
X103510000Y-119844563D01*
G37*
X103510000Y-120244563D02*
X102940000Y-120244563D01*
X102940000Y-119894563D01*
X103510000Y-119894563D01*
X103510000Y-120244563D01*
G36*
X103510000Y-120244563D02*
G01*
X102940000Y-120244563D01*
X102940000Y-119894563D01*
X103510000Y-119894563D01*
X103510000Y-120244563D01*
G37*
X103510000Y-120644563D02*
X102940000Y-120644563D01*
X102940000Y-120294563D01*
X103510000Y-120294563D01*
X103510000Y-120644563D01*
G36*
X103510000Y-120644563D02*
G01*
X102940000Y-120644563D01*
X102940000Y-120294563D01*
X103510000Y-120294563D01*
X103510000Y-120644563D01*
G37*
X103510000Y-121044563D02*
X102940000Y-121044563D01*
X102940000Y-120694563D01*
X103510000Y-120694563D01*
X103510000Y-121044563D01*
G36*
X103510000Y-121044563D02*
G01*
X102940000Y-121044563D01*
X102940000Y-120694563D01*
X103510000Y-120694563D01*
X103510000Y-121044563D01*
G37*
X103510000Y-121444563D02*
X102940000Y-121444563D01*
X102940000Y-121094563D01*
X103510000Y-121094563D01*
X103510000Y-121444563D01*
G36*
X103510000Y-121444563D02*
G01*
X102940000Y-121444563D01*
X102940000Y-121094563D01*
X103510000Y-121094563D01*
X103510000Y-121444563D01*
G37*
X103510000Y-121844563D02*
X102940000Y-121844563D01*
X102940000Y-121494563D01*
X103510000Y-121494563D01*
X103510000Y-121844563D01*
G36*
X103510000Y-121844563D02*
G01*
X102940000Y-121844563D01*
X102940000Y-121494563D01*
X103510000Y-121494563D01*
X103510000Y-121844563D01*
G37*
%TD*%
D16*
%TO.C,J201*%
X87300000Y-117975000D03*
D17*
X85800000Y-116500000D03*
D16*
X87300000Y-115025000D03*
D17*
X88800000Y-116500000D03*
%TD*%
D18*
%TO.C,USBC501*%
X105119999Y-135200000D03*
X96480001Y-135200000D03*
D19*
X105120001Y-131020000D03*
X96480000Y-131019999D03*
D20*
X103690000Y-131520000D03*
X97909999Y-131520000D03*
%TD*%
D21*
%TO.C,R401*%
X93625000Y-105900000D03*
X91975000Y-105900000D03*
%TD*%
D22*
%TO.C,D401*%
X94400000Y-102275000D03*
X94400000Y-104100000D03*
%TD*%
D23*
%TO.C,C403*%
X88550000Y-105900000D03*
X90450000Y-105900000D03*
%TD*%
D24*
%TO.C,FB401*%
X92587500Y-104100000D03*
X91012500Y-104100000D03*
%TD*%
D23*
%TO.C,C404*%
X92050000Y-107700000D03*
X93950000Y-107700000D03*
%TD*%
D25*
%TO.C,C405*%
X107000000Y-114950000D03*
X107000000Y-113050000D03*
%TD*%
D26*
%TO.C,J401*%
X98050000Y-101700000D03*
X98050000Y-112500000D03*
D27*
X100300000Y-104100000D03*
X100300000Y-106100000D03*
X100300000Y-108100000D03*
X100300000Y-110100000D03*
%TD*%
D28*
%TO.C,U501*%
X105750000Y-125662500D03*
X106700000Y-125662500D03*
X107650000Y-125662500D03*
X107650000Y-127937500D03*
X106700000Y-127937500D03*
X105750000Y-127937500D03*
%TD*%
D25*
%TO.C,C301*%
X94800000Y-127750000D03*
X94800000Y-125850000D03*
%TD*%
D29*
%TO.C,U502*%
X114600000Y-124550000D03*
D30*
X112300000Y-118250000D03*
D29*
X112300000Y-124550000D03*
X110000000Y-124550000D03*
%TD*%
D31*
%TO.C,C502*%
X107600000Y-121450000D03*
X107600000Y-119550000D03*
%TD*%
D32*
%TO.C,JP501*%
X110950000Y-127200000D03*
D33*
X109650000Y-127200000D03*
%TD*%
D34*
%TO.C,C204*%
X90412281Y-116470000D03*
X90412281Y-118020000D03*
%TD*%
D35*
%TO.C,R301*%
X93000000Y-125900000D03*
X93000000Y-127550000D03*
%TD*%
%TO.C,Rusb502*%
X94800000Y-134375000D03*
X94800000Y-136025000D03*
%TD*%
D36*
%TO.C,R203*%
X95325000Y-121700000D03*
X93675000Y-121700000D03*
%TD*%
D37*
%TO.C,R204*%
X104900000Y-114825000D03*
X104900000Y-113175000D03*
%TD*%
D31*
%TO.C,C401*%
X90100000Y-107750000D03*
X90100000Y-109650000D03*
%TD*%
D38*
%TO.C,SPST201*%
X90850000Y-123700000D03*
X95300000Y-123700000D03*
%TD*%
D37*
%TO.C,R201*%
X87500000Y-123725000D03*
X87500000Y-122075000D03*
%TD*%
D39*
%TO.C,Q301*%
X91450000Y-127525000D03*
X89550000Y-127525000D03*
X90500000Y-129525000D03*
%TD*%
D38*
%TO.C,RST201*%
X87250000Y-120100000D03*
X91700000Y-120100000D03*
%TD*%
D21*
%TO.C,R206*%
X97775000Y-114500000D03*
X99425000Y-114500000D03*
%TD*%
D23*
%TO.C,C201*%
X95250000Y-119900000D03*
X93350000Y-119900000D03*
%TD*%
D40*
%TO.C,D402*%
X107037500Y-108850000D03*
X107037500Y-106950000D03*
X105162500Y-107900000D03*
%TD*%
D34*
%TO.C,C205*%
X95012281Y-116470000D03*
X95012281Y-118020000D03*
%TD*%
D25*
%TO.C,C203*%
X94300000Y-112850000D03*
X94300000Y-110950000D03*
%TD*%
D31*
%TO.C,C402*%
X88000000Y-107750000D03*
X88000000Y-109650000D03*
%TD*%
D35*
%TO.C,R302*%
X93000000Y-129000000D03*
X93000000Y-130650000D03*
%TD*%
D24*
%TO.C,L201*%
X91912500Y-116500000D03*
X93487500Y-116500000D03*
%TD*%
D41*
%TO.C,L401*%
X111350000Y-105825000D03*
X108850000Y-105825000D03*
X108850000Y-110375000D03*
X111350000Y-110375000D03*
%TD*%
D23*
%TO.C,C202*%
X95250000Y-114700000D03*
X93350000Y-114700000D03*
%TD*%
D36*
%TO.C,R205*%
X102525000Y-114500000D03*
X100875000Y-114500000D03*
%TD*%
D42*
%TO.C,U401*%
X109525000Y-112295000D03*
X109525000Y-113565000D03*
X109525000Y-114835000D03*
X109525000Y-116105000D03*
X114475000Y-116105000D03*
X114475000Y-114835000D03*
X114475000Y-113565000D03*
X114475000Y-112295000D03*
%TD*%
D36*
%TO.C,R402*%
X106725000Y-116700000D03*
X105075000Y-116700000D03*
%TD*%
D37*
%TO.C,Rusb501*%
X94800000Y-132925000D03*
X94800000Y-131275000D03*
%TD*%
%TO.C,R202*%
X89100000Y-123725000D03*
X89100000Y-122075000D03*
%TD*%
D43*
%TO.C,U201*%
X100000000Y-119069563D03*
%TD*%
D23*
%TO.C,C501*%
X111250000Y-129600000D03*
X109350000Y-129600000D03*
%TD*%
%LPD*%
M02*
