M48
; DRILL file {KiCad 9.0.0} date 2026-01-31T22:23:39+0100
; FORMAT={-:-/ absolute / inch / decimal}
; #@! TF.CreationDate,2026-01-31T22:23:39+01:00
; #@! TF.GenerationSoftware,Kicad,Pcbnew,9.0.0
; #@! TF.FileFunction,Plated,1,4,PTH
FMAT,2
INCH
; #@! TA.AperFunction,Plated,PTH,ViaDrill
T1C0.0118
; #@! TA.AperFunction,Plated,PTH,ComponentDrill
T2C0.0236
%
G90
G05
T1
X3.2775Y-4.5956
X3.2775Y-4.6879
X3.2903Y-4.5043
X3.2903Y-4.7792
X3.3157Y-4.4156
X3.3157Y-4.8679
X3.3346Y-4.5118
X3.3346Y-4.5394
X3.3346Y-4.5669
X3.3346Y-4.5945
X3.3346Y-4.622
X3.3346Y-4.6496
X3.3346Y-4.6772
X3.3465Y-4.4843
X3.3532Y-4.9521
X3.3583Y-4.6929
X3.374Y-4.2795
X3.374Y-4.3169
X3.374Y-4.4843
X3.374Y-4.5276
X3.374Y-4.6457
X3.3858Y-4.6929
X3.4016Y-4.4843
X3.4021Y-5.0303
X3.4055Y-4.2421
X3.4055Y-4.2795
X3.4055Y-4.3169
X3.4291Y-4.4843
X3.4419Y-4.186
X3.4449Y-4.9055
X3.4567Y-4.4843
X3.4614Y-5.101
X3.4646Y-4.2795
X3.4646Y-4.3661
X3.4803Y-4.6969
X3.4843Y-4.4843
X3.4882Y-5.0207
X3.5Y-4.5276
X3.5039Y-4.6457
X3.5079Y-4.6969
X3.5079Y-4.9055
X3.5118Y-4.4843
X3.5251Y-5.0596
X3.5276Y-4.6181
X3.53Y-5.1627
X3.5354Y-4.1102
X3.5354Y-4.6929
X3.5394Y-4.4843
X3.5394Y-4.5118
X3.5394Y-4.5394
X3.5472Y-4.2795
X3.5472Y-4.3661
X3.563Y-5.0207
X3.5748Y-4.811
X3.5945Y-4.6457
X3.597Y-4.1355
X3.6064Y-5.2143
X3.624Y-4.294
X3.6339Y-4.3583
X3.6339Y-4.4055
X3.6339Y-4.4528
X3.6378Y-4.5157
X3.6496Y-4.7913
X3.6614Y-4.4409
X3.6614Y-4.9252
X3.6657Y-4.0266
X3.6772Y-4.6732
X3.6893Y-5.2547
X3.7047Y-4.6457
X3.7087Y-4.9173
X3.7126Y-4.3268
X3.7165Y-5.1102
X3.7323Y-5.0669
X3.7323Y-5.3898
X3.748Y-5.1299
X3.7835Y-5.2598
X3.7874Y-4.5236
X3.7953Y-4.3268
X3.7953Y-4.3583
X3.7992Y-4.8976
X3.811Y-4.5472
X3.811Y-4.8189
X3.815Y-4.4843
X3.8425Y-4.7835
X3.8425Y-4.8465
X3.8425Y-4.8976
X3.8465Y-4.5906
X3.8679Y-5.2993
X3.8819Y-4.8976
X3.8898Y-4.5945
X3.9134Y-4.7874
X3.937Y-4.5945
X3.9449Y-4.8465
X3.9498Y-5.2234
X3.9601Y-3.981
X3.9601Y-5.3025
X3.9646Y-4.3858
X3.9646Y-4.4173
X3.9646Y-4.4528
X3.9685Y-4.8701
X3.9724Y-4.9016
X3.9843Y-4.5945
X3.9843Y-4.7835
X3.9961Y-4.3858
X3.9961Y-4.4173
X3.9961Y-4.4528
X4.0039Y-4.5315
X4.0157Y-5.189
X4.0276Y-4.3858
X4.0276Y-4.4173
X4.0276Y-4.4528
X4.0354Y-4.5945
X4.0354Y-4.7835
X4.0394Y-5.2205
X4.0518Y-3.9906
X4.0518Y-5.2928
X4.0591Y-4.3858
X4.0591Y-4.4173
X4.0591Y-4.4528
X4.063Y-4.8976
X4.0709Y-4.5079
X4.0945Y-4.2205
X4.1181Y-4.8976
X4.126Y-5.0945
X4.1413Y-4.0129
X4.2008Y-5.0866
X4.2268Y-4.0475
X4.2268Y-5.236
X4.2362Y-4.8228
X4.2559Y-4.4711
X4.2559Y-4.5211
X4.3031Y-4.6575
X4.3031Y-4.7047
X4.3051Y-5.1542
X4.3067Y-4.0936
X4.3067Y-5.1898
X4.3307Y-4.8465
X4.3425Y-4.748
X4.3819Y-4.748
X4.4213Y-4.748
X4.4213Y-4.7913
X4.4213Y-4.8268
X4.4435Y-4.2168
X4.4606Y-4.748
X4.4977Y-4.2914
X4.5Y-4.748
X4.5394Y-4.6575
X4.5394Y-4.7047
X4.5394Y-4.748
X4.541Y-4.3728
X4.5725Y-4.4595
X4.5725Y-4.824
X4.5917Y-4.5497
X4.5917Y-4.7337
X4.5982Y-4.6417
T2
G00X3.7984Y-5.1366
M15
G01X3.7984Y-5.1799
M16
G05
G00X3.7984Y-5.3071
M15
G01X3.7984Y-5.3386
M16
G05
G00X4.1386Y-5.3071
M15
G01X4.1386Y-5.3386
M16
G05
G00X4.1386Y-5.1366
M15
G01X4.1386Y-5.1799
M16
G05
M30
