%TF.GenerationSoftware,KiCad,Pcbnew,9.0.0*%
%TF.CreationDate,2025-10-25T14:56:04+02:00*%
%TF.ProjectId,DisplayBoard,44697370-6c61-4794-926f-6172642e6b69,rev?*%
%TF.SameCoordinates,Original*%
%TF.FileFunction,Copper,L4,Bot*%
%TF.FilePolarity,Positive*%
%FSLAX46Y46*%
G04 Gerber Fmt 4.6, Leading zero omitted, Abs format (unit mm)*
G04 Created by KiCad (PCBNEW 9.0.0) date 2025-10-25 14:56:04*
%MOMM*%
%LPD*%
G01*
G04 APERTURE LIST*
G04 Aperture macros list*
%AMRoundRect*
0 Rectangle with rounded corners*
0 $1 Rounding radius*
0 $2 $3 $4 $5 $6 $7 $8 $9 X,Y pos of 4 corners*
0 Add a 4 corners polygon primitive as box body*
4,1,4,$2,$3,$4,$5,$6,$7,$8,$9,$2,$3,0*
0 Add four circle primitives for the rounded corners*
1,1,$1+$1,$2,$3*
1,1,$1+$1,$4,$5*
1,1,$1+$1,$6,$7*
1,1,$1+$1,$8,$9*
0 Add four rect primitives between the rounded corners*
20,1,$1+$1,$2,$3,$4,$5,0*
20,1,$1+$1,$4,$5,$6,$7,0*
20,1,$1+$1,$6,$7,$8,$9,0*
20,1,$1+$1,$8,$9,$2,$3,0*%
%AMFreePoly0*
4,1,23,0.500000,-0.750000,0.000000,-0.750000,0.000000,-0.745722,-0.065263,-0.745722,-0.191342,-0.711940,-0.304381,-0.646677,-0.396677,-0.554381,-0.461940,-0.441342,-0.495722,-0.315263,-0.495722,-0.250000,-0.500000,-0.250000,-0.500000,0.250000,-0.495722,0.250000,-0.495722,0.315263,-0.461940,0.441342,-0.396677,0.554381,-0.304381,0.646677,-0.191342,0.711940,-0.065263,0.745722,0.000000,0.745722,
0.000000,0.750000,0.500000,0.750000,0.500000,-0.750000,0.500000,-0.750000,$1*%
%AMFreePoly1*
4,1,23,0.000000,0.745722,0.065263,0.745722,0.191342,0.711940,0.304381,0.646677,0.396677,0.554381,0.461940,0.441342,0.495722,0.315263,0.495722,0.250000,0.500000,0.250000,0.500000,-0.250000,0.495722,-0.250000,0.495722,-0.315263,0.461940,-0.441342,0.396677,-0.554381,0.304381,-0.646677,0.191342,-0.711940,0.065263,-0.745722,0.000000,-0.745722,0.000000,-0.750000,-0.500000,-0.750000,
-0.500000,0.750000,0.000000,0.750000,0.000000,0.745722,0.000000,0.745722,$1*%
G04 Aperture macros list end*
%TA.AperFunction,SMDPad,CuDef*%
%ADD10RoundRect,0.200000X0.275000X-0.200000X0.275000X0.200000X-0.275000X0.200000X-0.275000X-0.200000X0*%
%TD*%
%TA.AperFunction,SMDPad,CuDef*%
%ADD11R,1.350000X1.800000*%
%TD*%
%TA.AperFunction,SMDPad,CuDef*%
%ADD12RoundRect,0.200000X-0.275000X0.200000X-0.275000X-0.200000X0.275000X-0.200000X0.275000X0.200000X0*%
%TD*%
%TA.AperFunction,SMDPad,CuDef*%
%ADD13RoundRect,0.250000X0.250000X0.475000X-0.250000X0.475000X-0.250000X-0.475000X0.250000X-0.475000X0*%
%TD*%
%TA.AperFunction,SMDPad,CuDef*%
%ADD14RoundRect,0.375000X0.375000X-0.625000X0.375000X0.625000X-0.375000X0.625000X-0.375000X-0.625000X0*%
%TD*%
%TA.AperFunction,SMDPad,CuDef*%
%ADD15RoundRect,0.500000X1.400000X-0.500000X1.400000X0.500000X-1.400000X0.500000X-1.400000X-0.500000X0*%
%TD*%
%TA.AperFunction,SMDPad,CuDef*%
%ADD16RoundRect,0.200000X-0.200000X-0.275000X0.200000X-0.275000X0.200000X0.275000X-0.200000X0.275000X0*%
%TD*%
%TA.AperFunction,SMDPad,CuDef*%
%ADD17RoundRect,0.225000X-0.375000X0.225000X-0.375000X-0.225000X0.375000X-0.225000X0.375000X0.225000X0*%
%TD*%
%TA.AperFunction,SMDPad,CuDef*%
%ADD18RoundRect,0.200000X0.200000X0.275000X-0.200000X0.275000X-0.200000X-0.275000X0.200000X-0.275000X0*%
%TD*%
%TA.AperFunction,ComponentPad*%
%ADD19RoundRect,0.250000X0.725000X-0.600000X0.725000X0.600000X-0.725000X0.600000X-0.725000X-0.600000X0*%
%TD*%
%TA.AperFunction,ComponentPad*%
%ADD20O,1.950000X1.700000*%
%TD*%
%TA.AperFunction,SMDPad,CuDef*%
%ADD21RoundRect,0.250000X-0.475000X0.250000X-0.475000X-0.250000X0.475000X-0.250000X0.475000X0.250000X0*%
%TD*%
%TA.AperFunction,SMDPad,CuDef*%
%ADD22RoundRect,0.225000X0.225000X0.375000X-0.225000X0.375000X-0.225000X-0.375000X0.225000X-0.375000X0*%
%TD*%
%TA.AperFunction,SMDPad,CuDef*%
%ADD23RoundRect,0.150000X0.477297X0.689429X-0.689429X-0.477297X-0.477297X-0.689429X0.689429X0.477297X0*%
%TD*%
%TA.AperFunction,SMDPad,CuDef*%
%ADD24RoundRect,0.250000X-0.250000X-0.475000X0.250000X-0.475000X0.250000X0.475000X-0.250000X0.475000X0*%
%TD*%
%TA.AperFunction,SMDPad,CuDef*%
%ADD25RoundRect,0.250000X0.159099X-0.512652X0.512652X-0.159099X-0.159099X0.512652X-0.512652X0.159099X0*%
%TD*%
%TA.AperFunction,SMDPad,CuDef*%
%ADD26R,0.600000X1.970000*%
%TD*%
%TA.AperFunction,SMDPad,CuDef*%
%ADD27R,0.300000X1.970000*%
%TD*%
%TA.AperFunction,ComponentPad*%
%ADD28O,1.000000X2.100000*%
%TD*%
%TA.AperFunction,ComponentPad*%
%ADD29O,1.000000X1.800000*%
%TD*%
%TA.AperFunction,SMDPad,CuDef*%
%ADD30RoundRect,0.050000X-0.300000X0.150000X-0.300000X-0.150000X0.300000X-0.150000X0.300000X0.150000X0*%
%TD*%
%TA.AperFunction,SMDPad,CuDef*%
%ADD31R,0.250000X0.470000*%
%TD*%
%TA.AperFunction,SMDPad,CuDef*%
%ADD32R,0.470000X0.250000*%
%TD*%
%TA.AperFunction,SMDPad,CuDef*%
%ADD33R,4.000000X4.000000*%
%TD*%
%TA.AperFunction,SMDPad,CuDef*%
%ADD34FreePoly0,180.000000*%
%TD*%
%TA.AperFunction,SMDPad,CuDef*%
%ADD35FreePoly1,180.000000*%
%TD*%
%TA.AperFunction,SMDPad,CuDef*%
%ADD36RoundRect,0.150000X-0.150000X0.587500X-0.150000X-0.587500X0.150000X-0.587500X0.150000X0.587500X0*%
%TD*%
%TA.AperFunction,SMDPad,CuDef*%
%ADD37RoundRect,0.050000X0.150000X0.300000X-0.150000X0.300000X-0.150000X-0.300000X0.150000X-0.300000X0*%
%TD*%
%TA.AperFunction,ViaPad*%
%ADD38C,0.600000*%
%TD*%
%TA.AperFunction,ViaPad*%
%ADD39C,0.300000*%
%TD*%
%TA.AperFunction,Conductor*%
%ADD40C,0.400000*%
%TD*%
%TA.AperFunction,Conductor*%
%ADD41C,0.600000*%
%TD*%
%TA.AperFunction,Conductor*%
%ADD42C,0.200000*%
%TD*%
%TA.AperFunction,Conductor*%
%ADD43C,0.150000*%
%TD*%
G04 APERTURE END LIST*
D10*
%TO.P,Rusb502,1*%
%TO.N,Net-(USBC501-CC2)*%
X93500000Y-131825000D03*
%TO.P,Rusb502,2*%
%TO.N,GND*%
X93500000Y-130175000D03*
%TD*%
D11*
%TO.P,SPST201,1,A*%
%TO.N,GND*%
X100925000Y-104250000D03*
%TO.P,SPST201,2,B*%
%TO.N,Net-(SPST201-B)*%
X105075000Y-104250000D03*
%TD*%
D12*
%TO.P,R205,1*%
%TO.N,GND*%
X103250000Y-110425000D03*
%TO.P,R205,2*%
%TO.N,Net-(U201-GPIO46)*%
X103250000Y-112075000D03*
%TD*%
D13*
%TO.P,C501,1*%
%TO.N,Net-(JP501-B)*%
X93950000Y-127500000D03*
%TO.P,C501,2*%
%TO.N,GND*%
X92050000Y-127500000D03*
%TD*%
D10*
%TO.P,R204,1*%
%TO.N,GND*%
X103250000Y-115325000D03*
%TO.P,R204,2*%
%TO.N,Net-(U201-GPIO45)*%
X103250000Y-113675000D03*
%TD*%
D14*
%TO.P,U501,1,GND*%
%TO.N,GND*%
X100800000Y-124650000D03*
%TO.P,U501,2,VO*%
%TO.N,+3.3V*%
X98500000Y-124650000D03*
D15*
X98500000Y-118350000D03*
D14*
%TO.P,U501,3,VI*%
%TO.N,Net-(JP501-B)*%
X96200000Y-124650000D03*
%TD*%
D13*
%TO.P,C202,1*%
%TO.N,Net-(U201-CHIP_PU)*%
X100700000Y-110750000D03*
%TO.P,C202,2*%
%TO.N,GND*%
X98800000Y-110750000D03*
%TD*%
D12*
%TO.P,R301,1*%
%TO.N,BL*%
X112500000Y-122425000D03*
%TO.P,R301,2*%
%TO.N,Net-(Q301-B)*%
X112500000Y-124075000D03*
%TD*%
D16*
%TO.P,R201,1*%
%TO.N,Net-(RST201-B)*%
X98925000Y-108750000D03*
%TO.P,R201,2*%
%TO.N,Net-(U201-CHIP_PU)*%
X100575000Y-108750000D03*
%TD*%
D17*
%TO.P,D404,1,K*%
%TO.N,CANL*%
X93000000Y-119850000D03*
%TO.P,D404,2,A*%
%TO.N,GND*%
X93000000Y-123150000D03*
%TD*%
D18*
%TO.P,R303,1*%
%TO.N,Net-(Q301-C)*%
X106575000Y-128250000D03*
%TO.P,R303,2*%
%TO.N,LEDK*%
X104925000Y-128250000D03*
%TD*%
D19*
%TO.P,J401,1,Pin_1*%
%TO.N,GND*%
X88250000Y-121750000D03*
D20*
%TO.P,J401,2,Pin_2*%
%TO.N,CANL*%
X88250000Y-119250000D03*
%TO.P,J401,3,Pin_3*%
%TO.N,CANH*%
X88250000Y-116750000D03*
%TO.P,J401,4,Pin_4*%
%TO.N,+3.3V*%
X88250000Y-114250000D03*
%TD*%
D21*
%TO.P,C201,1*%
%TO.N,Net-(RST201-B)*%
X96750000Y-109050000D03*
%TO.P,C201,2*%
%TO.N,GND*%
X96750000Y-110950000D03*
%TD*%
D22*
%TO.P,D403,1,K*%
%TO.N,CANH*%
X90650000Y-109750000D03*
%TO.P,D403,2,A*%
%TO.N,GND*%
X87350000Y-109750000D03*
%TD*%
D10*
%TO.P,Rusb501,1*%
%TO.N,Net-(USBC501-CC1)*%
X106250000Y-131825000D03*
%TO.P,Rusb501,2*%
%TO.N,GND*%
X106250000Y-130175000D03*
%TD*%
D23*
%TO.P,U401,1,D*%
%TO.N,/CAN/CAN_TX*%
X94653051Y-102402872D03*
%TO.P,U401,2,GND*%
%TO.N,GND*%
X95551076Y-103300898D03*
%TO.P,U401,3,VCC*%
%TO.N,+3.3V*%
X96449102Y-104198924D03*
%TO.P,U401,4,R*%
%TO.N,/CAN/CAN_RX*%
X97347128Y-105096949D03*
%TO.P,U401,5,NC*%
%TO.N,unconnected-(U401-NC-Pad5)*%
X93846949Y-108597128D03*
%TO.P,U401,6,CANL*%
%TO.N,CANL*%
X92948924Y-107699102D03*
%TO.P,U401,7,CANH*%
%TO.N,CANH*%
X92050898Y-106801076D03*
%TO.P,U401,8,NC*%
%TO.N,unconnected-(U401-NC-Pad8)*%
X91152872Y-105903051D03*
%TD*%
D24*
%TO.P,C204,1*%
%TO.N,+3.3V*%
X107800000Y-108500000D03*
%TO.P,C204,2*%
%TO.N,GND*%
X109700000Y-108500000D03*
%TD*%
D25*
%TO.P,C401,1*%
%TO.N,+3.3V*%
X98578249Y-102671751D03*
%TO.P,C401,2*%
%TO.N,GND*%
X99921751Y-101328249D03*
%TD*%
D26*
%TO.P,USBC501,A1_B12,GND*%
%TO.N,GND*%
X103127500Y-130022500D03*
%TO.P,USBC501,A4_B9,VBUS*%
%TO.N,Net-(JP501-A)*%
X102327500Y-130022500D03*
D27*
%TO.P,USBC501,A5,CC1*%
%TO.N,Net-(USBC501-CC1)*%
X101177500Y-130022500D03*
%TO.P,USBC501,A6,DP1*%
%TO.N,/MCU/USB_D+*%
X100177500Y-130022500D03*
%TO.P,USBC501,A7,DN1*%
%TO.N,/MCU/USB_D-*%
X99677500Y-130022500D03*
%TO.P,USBC501,A8,SBU1*%
%TO.N,unconnected-(USBC501-SBU1-PadA8)*%
X98677500Y-130022500D03*
D26*
%TO.P,USBC501,B1_A12,GND__1*%
%TO.N,GND*%
X96727500Y-130022500D03*
%TO.P,USBC501,B4_A9,VBUS__1*%
%TO.N,Net-(JP501-A)*%
X97527500Y-130022500D03*
D27*
%TO.P,USBC501,B5,CC2*%
%TO.N,Net-(USBC501-CC2)*%
X98177500Y-130022500D03*
%TO.P,USBC501,B6,DP2*%
%TO.N,/MCU/USB_D+*%
X99177500Y-130022500D03*
%TO.P,USBC501,B7,DN2*%
%TO.N,/MCU/USB_D-*%
X100677500Y-130022500D03*
%TO.P,USBC501,B8,SBU2*%
%TO.N,unconnected-(USBC501-SBU2-PadB8)*%
X101677500Y-130022500D03*
D28*
%TO.P,USBC501,SH1,SHELL_GND*%
%TO.N,GND*%
X104247500Y-131007500D03*
%TO.P,USBC501,SH2,SHELL_GND__1*%
X95607500Y-131007500D03*
D29*
%TO.P,USBC501,SH3,SHELL_GND__2*%
X104247500Y-135187500D03*
%TO.P,USBC501,SH4,SHELL_GND__3*%
X95607500Y-135187500D03*
%TD*%
D11*
%TO.P,RST201,1,A*%
%TO.N,GND*%
X96675000Y-113500000D03*
%TO.P,RST201,2,B*%
%TO.N,Net-(RST201-B)*%
X100825000Y-113500000D03*
%TD*%
D10*
%TO.P,R302,1*%
%TO.N,+3.3V*%
X112500000Y-127575000D03*
%TO.P,R302,2*%
%TO.N,Net-(Q301-B)*%
X112500000Y-125925000D03*
%TD*%
D30*
%TO.P,D402,1,A1*%
%TO.N,GND*%
X92250000Y-117650000D03*
%TO.P,D402,2,A2*%
%TO.N,CANL*%
X92250000Y-118350000D03*
%TD*%
D31*
%TO.P,U201,1,LNA_IN*%
%TO.N,unconnected-(U201-LNA_IN-Pad1)*%
X105850000Y-111000000D03*
%TO.P,U201,2,VDD3P3*%
%TO.N,+3.3V*%
X106250000Y-111000000D03*
%TO.P,U201,3,VDD3P3__1*%
X106650000Y-111000000D03*
%TO.P,U201,4,CHIP_PU*%
%TO.N,Net-(U201-CHIP_PU)*%
X107050000Y-111000000D03*
%TO.P,U201,5,GPIO0*%
%TO.N,Net-(SPST201-B)*%
X107450000Y-111000000D03*
%TO.P,U201,6,GPIO1*%
%TO.N,unconnected-(U201-GPIO1-Pad6)*%
X107850000Y-111000000D03*
%TO.P,U201,7,GPIO2*%
%TO.N,unconnected-(U201-GPIO2-Pad7)*%
X108250000Y-111000000D03*
%TO.P,U201,8,GPIO3*%
%TO.N,unconnected-(U201-GPIO3-Pad8)*%
X108650000Y-111000000D03*
%TO.P,U201,9,GPIO4*%
%TO.N,unconnected-(U201-GPIO4-Pad9)*%
X109050000Y-111000000D03*
%TO.P,U201,10,GPIO5*%
%TO.N,unconnected-(U201-GPIO5-Pad10)*%
X109450000Y-111000000D03*
%TO.P,U201,11,GPIO6*%
%TO.N,/CAN/CAN_RX*%
X109850000Y-111000000D03*
%TO.P,U201,12,GPIO7*%
%TO.N,unconnected-(U201-GPIO7-Pad12)*%
X110250000Y-111000000D03*
%TO.P,U201,13,GPIO8*%
%TO.N,unconnected-(U201-GPIO8-Pad13)*%
X110650000Y-111000000D03*
%TO.P,U201,14,GPIO9*%
%TO.N,/CAN/CAN_TX*%
X111050000Y-111000000D03*
D32*
%TO.P,U201,15,GPIO10*%
%TO.N,unconnected-(U201-GPIO10-Pad15)*%
X111675000Y-111625000D03*
%TO.P,U201,16,GPIO11*%
%TO.N,unconnected-(U201-GPIO11-Pad16)*%
X111675000Y-112025000D03*
%TO.P,U201,17,GPIO12*%
%TO.N,unconnected-(U201-GPIO12-Pad17)*%
X111675000Y-112425000D03*
%TO.P,U201,18,GPIO13*%
%TO.N,unconnected-(U201-GPIO13-Pad18)*%
X111675000Y-112825000D03*
%TO.P,U201,19,GPIO14*%
%TO.N,unconnected-(U201-GPIO14-Pad19)*%
X111675000Y-113225000D03*
%TO.P,U201,20,VDD3P3_RTC*%
%TO.N,+3.3V*%
X111675000Y-113625000D03*
%TO.P,U201,21,XTAL_32K_P*%
%TO.N,unconnected-(U201-XTAL_32K_P-Pad21)*%
X111675000Y-114025000D03*
%TO.P,U201,22,XTAL_32K_N*%
%TO.N,unconnected-(U201-XTAL_32K_N-Pad22)*%
X111675000Y-114425000D03*
%TO.P,U201,23,GPIO17*%
%TO.N,unconnected-(U201-GPIO17-Pad23)*%
X111675000Y-114825000D03*
%TO.P,U201,24,GPIO18*%
%TO.N,unconnected-(U201-GPIO18-Pad24)*%
X111675000Y-115225000D03*
%TO.P,U201,25,GPIO19*%
%TO.N,/MCU/USB_D-*%
X111675000Y-115625000D03*
%TO.P,U201,26,GPIO20*%
%TO.N,/MCU/USB_D+*%
X111675000Y-116025000D03*
%TO.P,U201,27,GPIO21*%
%TO.N,/GC9A01/DC*%
X111675000Y-116425000D03*
%TO.P,U201,28,SPICS1*%
%TO.N,unconnected-(U201-SPICS1-Pad28)*%
X111675000Y-116825000D03*
D31*
%TO.P,U201,29,VDD_SPI*%
%TO.N,unconnected-(U201-VDD_SPI-Pad29)*%
X111050000Y-117450000D03*
%TO.P,U201,30,NC*%
%TO.N,unconnected-(U201-NC-Pad30)*%
X110650000Y-117450000D03*
%TO.P,U201,31,NC__1*%
%TO.N,unconnected-(U201-NC__1-Pad31)*%
X110250000Y-117450000D03*
%TO.P,U201,32,NC__2*%
%TO.N,unconnected-(U201-NC__2-Pad32)*%
X109850000Y-117450000D03*
%TO.P,U201,33,NC__3*%
%TO.N,unconnected-(U201-NC__3-Pad33)*%
X109450000Y-117450000D03*
%TO.P,U201,34,NC__4*%
%TO.N,unconnected-(U201-NC__4-Pad34)*%
X109050000Y-117450000D03*
%TO.P,U201,35,NC__5*%
%TO.N,unconnected-(U201-NC__5-Pad35)*%
X108650000Y-117450000D03*
%TO.P,U201,36,SPICLK_N*%
%TO.N,unconnected-(U201-SPICLK_N-Pad36)*%
X108250000Y-117450000D03*
%TO.P,U201,37,SPICLK_P*%
%TO.N,unconnected-(U201-SPICLK_P-Pad37)*%
X107850000Y-117450000D03*
%TO.P,U201,38,GPIO33*%
%TO.N,/GC9A01/CS*%
X107450000Y-117450000D03*
%TO.P,U201,39,GPIO34*%
%TO.N,/GC9A01/CLK*%
X107050000Y-117450000D03*
%TO.P,U201,40,GPIO35*%
%TO.N,/GC9A01/DIN*%
X106650000Y-117450000D03*
%TO.P,U201,41,GPIO36*%
%TO.N,/GC9A01/RST*%
X106250000Y-117450000D03*
%TO.P,U201,42,GPIO37*%
%TO.N,unconnected-(U201-GPIO37-Pad42)*%
X105850000Y-117450000D03*
D32*
%TO.P,U201,43,GPIO38*%
%TO.N,unconnected-(U201-GPIO38-Pad43)*%
X105225000Y-116825000D03*
%TO.P,U201,44,MTCK*%
%TO.N,unconnected-(U201-MTCK-Pad44)*%
X105225000Y-116425000D03*
%TO.P,U201,45,MTDO*%
%TO.N,unconnected-(U201-MTDO-Pad45)*%
X105225000Y-116025000D03*
%TO.P,U201,46,VDD3P3_CPU*%
%TO.N,+3.3V*%
X105225000Y-115625000D03*
%TO.P,U201,47,MTDI*%
%TO.N,unconnected-(U201-MTDI-Pad47)*%
X105225000Y-115225000D03*
%TO.P,U201,48,MTMS*%
%TO.N,unconnected-(U201-MTMS-Pad48)*%
X105225000Y-114825000D03*
%TO.P,U201,49,U0TXD*%
%TO.N,unconnected-(U201-U0TXD-Pad49)*%
X105225000Y-114425000D03*
%TO.P,U201,50,U0RXD*%
%TO.N,unconnected-(U201-U0RXD-Pad50)*%
X105225000Y-114025000D03*
%TO.P,U201,51,GPIO45*%
%TO.N,Net-(U201-GPIO45)*%
X105225000Y-113625000D03*
%TO.P,U201,52,GPIO46*%
%TO.N,Net-(U201-GPIO46)*%
X105225000Y-113225000D03*
%TO.P,U201,53,NC__6*%
%TO.N,unconnected-(U201-NC__6-Pad53)*%
X105225000Y-112825000D03*
%TO.P,U201,54,NC__7*%
%TO.N,unconnected-(U201-NC__7-Pad54)*%
X105225000Y-112425000D03*
%TO.P,U201,55,VDDA*%
%TO.N,+3.3V*%
X105225000Y-112025000D03*
%TO.P,U201,56,VDDA__1*%
X105225000Y-111625000D03*
D33*
%TO.P,U201,57,GND*%
%TO.N,GND*%
X108450000Y-114225000D03*
%TD*%
D13*
%TO.P,C203,1*%
%TO.N,+3.3V*%
X105200000Y-108500000D03*
%TO.P,C203,2*%
%TO.N,GND*%
X103300000Y-108500000D03*
%TD*%
D34*
%TO.P,JP501,1,A*%
%TO.N,Net-(JP501-A)*%
X97500000Y-127500000D03*
D35*
%TO.P,JP501,2,B*%
%TO.N,Net-(JP501-B)*%
X96200000Y-127500000D03*
%TD*%
D16*
%TO.P,R202,1*%
%TO.N,+3.3V*%
X98925000Y-107000000D03*
%TO.P,R202,2*%
%TO.N,Net-(U201-CHIP_PU)*%
X100575000Y-107000000D03*
%TD*%
D36*
%TO.P,Q301,1,E*%
%TO.N,GND*%
X108550000Y-126125000D03*
%TO.P,Q301,2,B*%
%TO.N,Net-(Q301-B)*%
X110450000Y-126125000D03*
%TO.P,Q301,3,C*%
%TO.N,Net-(Q301-C)*%
X109500000Y-128000000D03*
%TD*%
D24*
%TO.P,C502,1*%
%TO.N,+3.3V*%
X103550000Y-121500000D03*
%TO.P,C502,2*%
%TO.N,GND*%
X105450000Y-121500000D03*
%TD*%
D37*
%TO.P,D401,1,A1*%
%TO.N,GND*%
X92600000Y-116250000D03*
%TO.P,D401,2,A2*%
%TO.N,CANH*%
X91900000Y-116250000D03*
%TD*%
D16*
%TO.P,R203,1*%
%TO.N,Net-(SPST201-B)*%
X107175000Y-104250000D03*
%TO.P,R203,2*%
%TO.N,+3.3V*%
X108825000Y-104250000D03*
%TD*%
D21*
%TO.P,C301,1*%
%TO.N,+3.3V*%
X105500000Y-124100000D03*
%TO.P,C301,2*%
%TO.N,GND*%
X105500000Y-126000000D03*
%TD*%
D38*
%TO.N,+3.3V*%
X88250000Y-112500000D03*
X87250000Y-112500000D03*
X86500000Y-112500000D03*
X86500000Y-113250000D03*
X86500000Y-114000000D03*
X86500000Y-114725000D03*
X90000000Y-114750000D03*
X90000000Y-114000000D03*
X90000000Y-113250000D03*
X89250000Y-112500000D03*
X90000000Y-112500000D03*
%TO.N,GND*%
X90803964Y-131880857D03*
X88935174Y-130464079D03*
X87281749Y-128801005D03*
X85875870Y-126924003D03*
X84744901Y-124869607D03*
X83910855Y-122677804D03*
X83389966Y-120391254D03*
X83192373Y-118054464D03*
X83321921Y-115712915D03*
X83776088Y-113412184D03*
X84546036Y-111197051D03*
X85616778Y-109110631D03*
X86967472Y-107193535D03*
X88571830Y-105483077D03*
X90398624Y-104012548D03*
X92412299Y-102810570D03*
X103828931Y-101442490D03*
X106069585Y-102134662D03*
X108192102Y-103131936D03*
X110155169Y-104414902D03*
X111920577Y-105958588D03*
X113453964Y-107732949D03*
X114725485Y-109703448D03*
X115710392Y-111831732D03*
X116389514Y-114076376D03*
X116749632Y-116393691D03*
X116783738Y-118738573D03*
X116491167Y-121065381D03*
X115877615Y-123328826D03*
X114955023Y-125484854D03*
X113741348Y-127491500D03*
X110540449Y-130904084D03*
X108615525Y-132243600D03*
X102000000Y-134500000D03*
X99657737Y-134615920D03*
X105500000Y-136500000D03*
X106500000Y-134500000D03*
X94000000Y-136500000D03*
X93500000Y-134500000D03*
X97500000Y-136500000D03*
X99000000Y-136500000D03*
X100500000Y-136500000D03*
X102000000Y-136500000D03*
X97500000Y-134500000D03*
X92500000Y-121000000D03*
X93500000Y-121000000D03*
X90000000Y-107500000D03*
X89500000Y-108500000D03*
X89500000Y-109500000D03*
X89500000Y-110500000D03*
X90000000Y-111500000D03*
X94500000Y-117000000D03*
X94500000Y-118000000D03*
X94500000Y-119000000D03*
X94500000Y-120000000D03*
X91500000Y-120000000D03*
X90500000Y-119500000D03*
X94500000Y-116000000D03*
X94000000Y-115000000D03*
X90500000Y-116000000D03*
X91000000Y-115000000D03*
X91000000Y-114000000D03*
X91000000Y-113000000D03*
X91000000Y-112000000D03*
X93500000Y-111000000D03*
X93500000Y-112000000D03*
X93500000Y-113000000D03*
X93500000Y-114000000D03*
X110750000Y-114250000D03*
X106750000Y-121500000D03*
X106250000Y-129250000D03*
X101500000Y-123000000D03*
X109696655Y-107022482D03*
X96750000Y-102000000D03*
X99500000Y-104250000D03*
X92750000Y-117000000D03*
X105500000Y-127250000D03*
X95250000Y-129500000D03*
X106000000Y-114250000D03*
X102239600Y-110416280D03*
X108500000Y-124500000D03*
X90750000Y-127500000D03*
X110750000Y-108500000D03*
X95250000Y-113500000D03*
X103295787Y-107011484D03*
X96750000Y-112000000D03*
X98814188Y-112049265D03*
X90000000Y-121750000D03*
X93500000Y-129250000D03*
X108500000Y-111750000D03*
X102250000Y-108500000D03*
X104250000Y-126000000D03*
X102000000Y-101500000D03*
D39*
X102254264Y-115321412D03*
D38*
X88250000Y-123250000D03*
X86500000Y-121750000D03*
X108500000Y-116500000D03*
%TO.N,+3.3V*%
X95671571Y-118360318D03*
X103550573Y-120011899D03*
X97000000Y-122750000D03*
X98500000Y-122750000D03*
X105000000Y-111000000D03*
X100000000Y-122750000D03*
X104500000Y-111500000D03*
X104000000Y-124250000D03*
X98500000Y-121500000D03*
X97000000Y-120250000D03*
X108839353Y-105397575D03*
X107813953Y-107004264D03*
X95685652Y-117428643D03*
X98922544Y-105736823D03*
X104500000Y-115500000D03*
X97500000Y-101250000D03*
X106000000Y-110000000D03*
X100000000Y-121500000D03*
X98500000Y-120250000D03*
X101358487Y-117428643D03*
X97000000Y-121500000D03*
X102200000Y-124500000D03*
X103563387Y-122972594D03*
X112500000Y-113500000D03*
X106500000Y-108500000D03*
X100796223Y-116665572D03*
X100000000Y-120250000D03*
X96127431Y-116665572D03*
X112500000Y-128750000D03*
X105196416Y-106982268D03*
X101354445Y-118360318D03*
%TO.N,Net-(U201-CHIP_PU)*%
X101750000Y-109500000D03*
X107000000Y-109750000D03*
%TO.N,/CAN/CAN_TX*%
X111044901Y-110065951D03*
X95750000Y-101250000D03*
%TO.N,/CAN/CAN_RX*%
X98500000Y-104000000D03*
X109852516Y-110065951D03*
%TO.N,LEDK*%
X103000000Y-124250000D03*
%TO.N,/MCU/USB_D+*%
X114500000Y-116500000D03*
X99250000Y-132000000D03*
%TO.N,/MCU/USB_D-*%
X113500000Y-115250000D03*
X101250000Y-132250000D03*
%TO.N,/GC9A01/RST*%
X106000000Y-118500000D03*
%TO.N,/GC9A01/DC*%
X112750000Y-117000000D03*
%TO.N,/GC9A01/CS*%
X108750000Y-119000000D03*
%TO.N,/GC9A01/DIN*%
X106750000Y-119000000D03*
%TO.N,/GC9A01/CLK*%
X107750000Y-119000000D03*
%TO.N,Net-(SPST201-B)*%
X107000000Y-105500000D03*
X108500000Y-110000000D03*
%TD*%
D40*
%TO.N,GND*%
X99921751Y-101328249D02*
X101828249Y-101328249D01*
D41*
X92050000Y-127500000D02*
X90750000Y-127500000D01*
D40*
X96727500Y-130022500D02*
X96592500Y-130022500D01*
X105500000Y-126000000D02*
X105500000Y-127250000D01*
D41*
X103300000Y-108500000D02*
X102250000Y-108500000D01*
D40*
X95551076Y-103198924D02*
X96750000Y-102000000D01*
D41*
X98800000Y-112035077D02*
X98814188Y-112049265D01*
D40*
X100800000Y-123700000D02*
X101500000Y-123000000D01*
D41*
X103300000Y-107015697D02*
X103295787Y-107011484D01*
X109700000Y-108500000D02*
X110750000Y-108500000D01*
D40*
X106250000Y-130175000D02*
X106250000Y-129250000D01*
D41*
X109700000Y-107025827D02*
X109696655Y-107022482D01*
X102257852Y-115325000D02*
X102254264Y-115321412D01*
D42*
X92600000Y-116850000D02*
X92750000Y-117000000D01*
D41*
X98800000Y-110750000D02*
X98800000Y-112035077D01*
D42*
X92600000Y-116250000D02*
X92600000Y-116850000D01*
D43*
X108500000Y-114175000D02*
X108500000Y-111750000D01*
D41*
X103300000Y-108500000D02*
X103300000Y-107015697D01*
X103250000Y-110425000D02*
X102248320Y-110425000D01*
X105450000Y-121500000D02*
X106750000Y-121500000D01*
D40*
X100800000Y-124650000D02*
X100800000Y-123700000D01*
X93500000Y-130175000D02*
X93500000Y-129250000D01*
D43*
X108475000Y-114250000D02*
X110750000Y-114250000D01*
D41*
X100925000Y-104250000D02*
X99500000Y-104250000D01*
D40*
X96727500Y-130022500D02*
X95772500Y-130022500D01*
D43*
X108450000Y-114225000D02*
X108475000Y-114250000D01*
D40*
X96592500Y-130022500D02*
X95607500Y-131007500D01*
D43*
X108450000Y-114225000D02*
X108450000Y-116450000D01*
D41*
X88250000Y-121750000D02*
X88250000Y-123250000D01*
D43*
X108450000Y-116450000D02*
X108500000Y-116500000D01*
D41*
X96727500Y-130022500D02*
X96727500Y-129977500D01*
D40*
X105500000Y-126000000D02*
X104250000Y-126000000D01*
D42*
X92250000Y-117500000D02*
X92750000Y-117000000D01*
D41*
X96675000Y-113500000D02*
X95250000Y-113500000D01*
D43*
X106025000Y-114225000D02*
X106000000Y-114250000D01*
X108450000Y-114225000D02*
X108500000Y-114175000D01*
D41*
X88250000Y-121750000D02*
X86500000Y-121750000D01*
X103250000Y-115325000D02*
X102257852Y-115325000D01*
D43*
X108450000Y-114225000D02*
X106025000Y-114225000D01*
D41*
X103262500Y-130022500D02*
X104247500Y-131007500D01*
X96750000Y-110950000D02*
X96750000Y-112000000D01*
X103127500Y-130022500D02*
X103262500Y-130022500D01*
X88250000Y-121750000D02*
X90000000Y-121750000D01*
D40*
X95551076Y-103300898D02*
X95551076Y-103198924D01*
D41*
X108550000Y-124550000D02*
X108500000Y-124500000D01*
X102248320Y-110425000D02*
X102239600Y-110416280D01*
D42*
X92250000Y-117650000D02*
X92250000Y-117500000D01*
D41*
X109700000Y-108500000D02*
X109700000Y-107025827D01*
D40*
X95772500Y-130022500D02*
X95250000Y-129500000D01*
X101828249Y-101328249D02*
X102000000Y-101500000D01*
D41*
X108550000Y-126125000D02*
X108550000Y-124550000D01*
%TO.N,Net-(JP501-B)*%
X93950000Y-127500000D02*
X96200000Y-127500000D01*
X96200000Y-127500000D02*
X96200000Y-124650000D01*
%TO.N,+3.3V*%
X98925000Y-107000000D02*
X98925000Y-105739279D01*
D43*
X105025000Y-112025000D02*
X104500000Y-111500000D01*
D40*
X106000000Y-109000000D02*
X106500000Y-108500000D01*
D43*
X104625000Y-115625000D02*
X104500000Y-115500000D01*
X111675000Y-113625000D02*
X112375000Y-113625000D01*
X106250000Y-111000000D02*
X106250000Y-110250000D01*
D41*
X98925000Y-105739279D02*
X98922544Y-105736823D01*
X108825000Y-104250000D02*
X108825000Y-105383222D01*
D43*
X105225000Y-111625000D02*
X105225000Y-111225000D01*
X105225000Y-112025000D02*
X105025000Y-112025000D01*
D41*
X103550000Y-122959207D02*
X103563387Y-122972594D01*
X105200000Y-108500000D02*
X106500000Y-108500000D01*
D43*
X106650000Y-111000000D02*
X106650000Y-110650000D01*
D41*
X107800000Y-108500000D02*
X106500000Y-108500000D01*
D40*
X96449102Y-104198924D02*
X96551076Y-104198924D01*
D41*
X105200000Y-108500000D02*
X105200000Y-106985852D01*
X101344127Y-118350000D02*
X101354445Y-118360318D01*
X105200000Y-106985852D02*
X105196416Y-106982268D01*
D40*
X98578249Y-102671751D02*
X98578249Y-102328249D01*
X98078249Y-102671751D02*
X98578249Y-102671751D01*
D41*
X103550000Y-120012472D02*
X103550573Y-120011899D01*
D40*
X96551076Y-104198924D02*
X98078249Y-102671751D01*
D41*
X103550000Y-121500000D02*
X103550000Y-122959207D01*
D40*
X106000000Y-110000000D02*
X106000000Y-109000000D01*
X96449102Y-104198924D02*
X96449102Y-104050898D01*
D41*
X98500000Y-118350000D02*
X101344127Y-118350000D01*
X98500000Y-118350000D02*
X98500000Y-120250000D01*
X107800000Y-107018217D02*
X107813953Y-107004264D01*
X108825000Y-105383222D02*
X108839353Y-105397575D01*
D43*
X106250000Y-110250000D02*
X106000000Y-110000000D01*
X104500000Y-111500000D02*
X105000000Y-111000000D01*
X105225000Y-111625000D02*
X104625000Y-111625000D01*
D41*
X107800000Y-108500000D02*
X107800000Y-107018217D01*
D43*
X104625000Y-111625000D02*
X104500000Y-111500000D01*
D41*
X100000000Y-121500000D02*
X103550000Y-121500000D01*
D43*
X106650000Y-110650000D02*
X106000000Y-110000000D01*
X105225000Y-111225000D02*
X105000000Y-111000000D01*
D41*
X95681889Y-118350000D02*
X95671571Y-118360318D01*
X98500000Y-118350000D02*
X95681889Y-118350000D01*
X103550000Y-121500000D02*
X103550000Y-120012472D01*
D43*
X105225000Y-115625000D02*
X104625000Y-115625000D01*
D40*
X104150000Y-124100000D02*
X104000000Y-124250000D01*
D42*
X112500000Y-127575000D02*
X112500000Y-128750000D01*
D40*
X105500000Y-124100000D02*
X104150000Y-124100000D01*
X98578249Y-102328249D02*
X97500000Y-101250000D01*
D43*
X112375000Y-113625000D02*
X112500000Y-113500000D01*
D41*
%TO.N,Net-(JP501-A)*%
X97527500Y-130022500D02*
X97527500Y-127527500D01*
X101750000Y-127500000D02*
X97500000Y-127500000D01*
X102327500Y-130022500D02*
X102327500Y-128077500D01*
X102327500Y-128077500D02*
X101750000Y-127500000D01*
X97527500Y-127527500D02*
X97500000Y-127500000D01*
D43*
%TO.N,Net-(USBC501-CC1)*%
X101177500Y-130022500D02*
X101177500Y-131177500D01*
D42*
X106250000Y-133000000D02*
X106250000Y-131825000D01*
D43*
X101177500Y-131177500D02*
X103250000Y-133250000D01*
D42*
X106000000Y-133250000D02*
X106250000Y-133000000D01*
X104000000Y-133250000D02*
X106000000Y-133250000D01*
D43*
X103250000Y-133250000D02*
X104000000Y-133250000D01*
D42*
%TO.N,Net-(USBC501-CC2)*%
X93500000Y-133000000D02*
X93500000Y-131825000D01*
X93750000Y-133250000D02*
X93500000Y-133000000D01*
X97250000Y-133250000D02*
X93750000Y-133250000D01*
X98177500Y-132322500D02*
X97250000Y-133250000D01*
X98177500Y-130022500D02*
X98177500Y-132322500D01*
%TO.N,Net-(RST201-B)*%
X99250000Y-108750000D02*
X99750000Y-109250000D01*
X99750000Y-112425000D02*
X100825000Y-113500000D01*
X98925000Y-108750000D02*
X99250000Y-108750000D01*
X99750000Y-109250000D02*
X99750000Y-112425000D01*
X97050000Y-108750000D02*
X96750000Y-109050000D01*
X98925000Y-108750000D02*
X97050000Y-108750000D01*
%TO.N,Net-(U201-CHIP_PU)*%
X100575000Y-110625000D02*
X100700000Y-110750000D01*
X100575000Y-108750000D02*
X100575000Y-110625000D01*
D43*
X101750000Y-109700000D02*
X101750000Y-109500000D01*
D42*
X100575000Y-107000000D02*
X100575000Y-108750000D01*
D43*
X107050000Y-109800000D02*
X107000000Y-109750000D01*
X100575000Y-108750000D02*
X101000000Y-108750000D01*
X107050000Y-111000000D02*
X107050000Y-109800000D01*
X101000000Y-108750000D02*
X101750000Y-109500000D01*
X100700000Y-110750000D02*
X101750000Y-109700000D01*
%TO.N,/CAN/CAN_TX*%
X111050000Y-110071050D02*
X111044901Y-110065951D01*
X111050000Y-111000000D02*
X111050000Y-110071050D01*
X94653051Y-102346949D02*
X95750000Y-101250000D01*
X94653051Y-102402872D02*
X94653051Y-102346949D01*
%TO.N,/CAN/CAN_RX*%
X97347128Y-105096949D02*
X97403051Y-105096949D01*
X109850000Y-111000000D02*
X109850000Y-110068467D01*
X97403051Y-105096949D02*
X98500000Y-104000000D01*
X109850000Y-110068467D02*
X109852516Y-110065951D01*
D42*
%TO.N,LEDK*%
X103500000Y-126500000D02*
X103750000Y-126750000D01*
X103500000Y-124750000D02*
X103500000Y-126500000D01*
X104925000Y-127925000D02*
X103750000Y-126750000D01*
X103000000Y-124250000D02*
X103500000Y-124750000D01*
X104925000Y-128250000D02*
X104925000Y-127925000D01*
%TO.N,CANH*%
X90650000Y-108201974D02*
X92050898Y-106801076D01*
X89250000Y-117750000D02*
X90500000Y-117750000D01*
X91900000Y-111000000D02*
X90650000Y-109750000D01*
X91900000Y-116350000D02*
X91900000Y-116250000D01*
X90650000Y-109750000D02*
X90650000Y-108201974D01*
X91900000Y-116250000D02*
X91900000Y-111000000D01*
X88250000Y-116750000D02*
X89250000Y-117750000D01*
X90500000Y-117750000D02*
X91900000Y-116350000D01*
%TO.N,CANL*%
X92500000Y-114750000D02*
X93500000Y-115750000D01*
X93500000Y-115750000D02*
X93500000Y-119350000D01*
X92500000Y-110500000D02*
X92500000Y-114750000D01*
X89000000Y-119250000D02*
X88250000Y-119250000D01*
X92250000Y-118350000D02*
X92250000Y-119100000D01*
X91750000Y-108898026D02*
X91750000Y-109750000D01*
X89900000Y-118350000D02*
X89000000Y-119250000D01*
X92948924Y-107699102D02*
X91750000Y-108898026D01*
X93500000Y-119350000D02*
X93000000Y-119850000D01*
X92250000Y-119100000D02*
X93000000Y-119850000D01*
X91750000Y-109750000D02*
X92500000Y-110500000D01*
X92250000Y-118350000D02*
X89900000Y-118350000D01*
D41*
%TO.N,Net-(Q301-C)*%
X109250000Y-128250000D02*
X106575000Y-128250000D01*
X109500000Y-128000000D02*
X109250000Y-128250000D01*
%TO.N,Net-(Q301-B)*%
X112500000Y-124075000D02*
X112500000Y-125925000D01*
X110450000Y-126125000D02*
X112300000Y-126125000D01*
X112300000Y-126125000D02*
X112500000Y-125925000D01*
D43*
%TO.N,Net-(U201-GPIO45)*%
X103300000Y-113625000D02*
X103250000Y-113675000D01*
X105225000Y-113625000D02*
X103300000Y-113625000D01*
%TO.N,Net-(U201-GPIO46)*%
X103825000Y-112075000D02*
X103250000Y-112075000D01*
X104475000Y-113225000D02*
X104250000Y-113000000D01*
X105225000Y-113225000D02*
X104475000Y-113225000D01*
X104250000Y-113000000D02*
X104250000Y-112500000D01*
X104250000Y-112500000D02*
X103825000Y-112075000D01*
%TO.N,/MCU/USB_D+*%
X111675000Y-116025000D02*
X112750000Y-116025000D01*
X99500000Y-128500000D02*
X99750000Y-128500000D01*
X99177500Y-128822500D02*
X99500000Y-128500000D01*
X114025000Y-116025000D02*
X112750000Y-116025000D01*
X99750000Y-128500000D02*
X100177500Y-128927500D01*
X99177500Y-130022500D02*
X99177500Y-131927500D01*
X99177500Y-131927500D02*
X99250000Y-132000000D01*
X114500000Y-116500000D02*
X114025000Y-116025000D01*
X99177500Y-130022500D02*
X99177500Y-128822500D01*
X100177500Y-128927500D02*
X100177500Y-130022500D01*
%TO.N,/MCU/USB_D-*%
X100677500Y-130022500D02*
X100677500Y-131677500D01*
X99677500Y-130022500D02*
X99677500Y-131427500D01*
X100677500Y-131677500D02*
X101250000Y-132250000D01*
X113125000Y-115625000D02*
X113500000Y-115250000D01*
X99677500Y-131427500D02*
X99927500Y-131677500D01*
X111675000Y-115625000D02*
X113125000Y-115625000D01*
X99927500Y-131677500D02*
X100677500Y-131677500D01*
%TO.N,/GC9A01/RST*%
X106250000Y-118250000D02*
X106000000Y-118500000D01*
X106250000Y-117450000D02*
X106250000Y-118250000D01*
%TO.N,/GC9A01/DC*%
X111675000Y-116425000D02*
X112175000Y-116425000D01*
X112175000Y-116425000D02*
X112750000Y-117000000D01*
%TO.N,/GC9A01/CS*%
X108000000Y-118250000D02*
X108750000Y-119000000D01*
X107450000Y-117450000D02*
X107450000Y-117950000D01*
X107750000Y-118250000D02*
X108000000Y-118250000D01*
X107450000Y-117950000D02*
X107750000Y-118250000D01*
%TO.N,/GC9A01/DIN*%
X106650000Y-118900000D02*
X106750000Y-119000000D01*
X106650000Y-117450000D02*
X106650000Y-118900000D01*
%TO.N,/GC9A01/CLK*%
X107050000Y-118300000D02*
X107750000Y-119000000D01*
X107050000Y-117450000D02*
X107050000Y-118300000D01*
%TO.N,Net-(SPST201-B)*%
X107750000Y-110000000D02*
X108500000Y-110000000D01*
D41*
X107175000Y-105325000D02*
X107000000Y-105500000D01*
X105075000Y-104250000D02*
X107175000Y-104250000D01*
D43*
X107450000Y-110300000D02*
X107500000Y-110250000D01*
X107500000Y-110250000D02*
X107750000Y-110000000D01*
D41*
X107175000Y-104250000D02*
X107175000Y-105325000D01*
D43*
X107450000Y-111000000D02*
X107450000Y-110300000D01*
%TD*%
%TA.AperFunction,Conductor*%
%TO.N,GND*%
G36*
X101240454Y-100545075D02*
G01*
X101246302Y-100545496D01*
X102064329Y-100624109D01*
X102070199Y-100624815D01*
X102883540Y-100742441D01*
X102889321Y-100743419D01*
X103696116Y-100899794D01*
X103701862Y-100901051D01*
X104500251Y-101095813D01*
X104505918Y-101097339D01*
X105266399Y-101321869D01*
X105294090Y-101330045D01*
X105299737Y-101331860D01*
X106072967Y-101600963D01*
X106075818Y-101601955D01*
X106081366Y-101604035D01*
X106840920Y-101909821D01*
X106843670Y-101910928D01*
X106849116Y-101913273D01*
X107595886Y-102256260D01*
X107601213Y-102258863D01*
X108330721Y-102637149D01*
X108335889Y-102639987D01*
X108961007Y-103003069D01*
X109030228Y-103043274D01*
X109078312Y-103093967D01*
X109091356Y-103162608D01*
X109065220Y-103227405D01*
X109008201Y-103267785D01*
X108967949Y-103274500D01*
X108568384Y-103274500D01*
X108549145Y-103276248D01*
X108497807Y-103280913D01*
X108335393Y-103331522D01*
X108189811Y-103419530D01*
X108189810Y-103419531D01*
X108087681Y-103521661D01*
X108026358Y-103555146D01*
X107956666Y-103550162D01*
X107912319Y-103521661D01*
X107810188Y-103419530D01*
X107739853Y-103377011D01*
X107664606Y-103331522D01*
X107502196Y-103280914D01*
X107502194Y-103280913D01*
X107502192Y-103280913D01*
X107452778Y-103276423D01*
X107431616Y-103274500D01*
X106918384Y-103274500D01*
X106899145Y-103276248D01*
X106847807Y-103280913D01*
X106685393Y-103331522D01*
X106539807Y-103419533D01*
X106535235Y-103423115D01*
X106513439Y-103431793D01*
X106493703Y-103444477D01*
X106474733Y-103447204D01*
X106470322Y-103448961D01*
X106458768Y-103449500D01*
X106374499Y-103449500D01*
X106307460Y-103429815D01*
X106261705Y-103377011D01*
X106250499Y-103325500D01*
X106250499Y-103302129D01*
X106250498Y-103302123D01*
X106250497Y-103302116D01*
X106244091Y-103242517D01*
X106224260Y-103189348D01*
X106193797Y-103107671D01*
X106193793Y-103107664D01*
X106107547Y-102992455D01*
X106107544Y-102992452D01*
X105992335Y-102906206D01*
X105992328Y-102906202D01*
X105857482Y-102855908D01*
X105857483Y-102855908D01*
X105797883Y-102849501D01*
X105797881Y-102849500D01*
X105797873Y-102849500D01*
X105797864Y-102849500D01*
X104352129Y-102849500D01*
X104352123Y-102849501D01*
X104292516Y-102855908D01*
X104157671Y-102906202D01*
X104157664Y-102906206D01*
X104042455Y-102992452D01*
X104042452Y-102992455D01*
X103956206Y-103107664D01*
X103956202Y-103107671D01*
X103905908Y-103242517D01*
X103900408Y-103293682D01*
X103899501Y-103302123D01*
X103899500Y-103302135D01*
X103899500Y-105197870D01*
X103899501Y-105197876D01*
X103905908Y-105257483D01*
X103956202Y-105392328D01*
X103956206Y-105392335D01*
X104042452Y-105507544D01*
X104042455Y-105507547D01*
X104157664Y-105593793D01*
X104157671Y-105593797D01*
X104292517Y-105644091D01*
X104292516Y-105644091D01*
X104299444Y-105644835D01*
X104352127Y-105650500D01*
X105797872Y-105650499D01*
X105857483Y-105644091D01*
X105992331Y-105593796D01*
X106017700Y-105574804D01*
X106083163Y-105550386D01*
X106151436Y-105565236D01*
X106200843Y-105614640D01*
X106213629Y-105649878D01*
X106230261Y-105733491D01*
X106230264Y-105733501D01*
X106290602Y-105879172D01*
X106290609Y-105879185D01*
X106378210Y-106010288D01*
X106378213Y-106010292D01*
X106489707Y-106121786D01*
X106489711Y-106121789D01*
X106620814Y-106209390D01*
X106620827Y-106209397D01*
X106716649Y-106249087D01*
X106766503Y-106269737D01*
X106921153Y-106300499D01*
X106921156Y-106300500D01*
X107084934Y-106300500D01*
X107084934Y-106302980D01*
X107142881Y-106313952D01*
X107193606Y-106362002D01*
X107210300Y-106429848D01*
X107187664Y-106495949D01*
X107181765Y-106502963D01*
X107182076Y-106503218D01*
X107178210Y-106507928D01*
X107090609Y-106639031D01*
X107090602Y-106639044D01*
X107030264Y-106784715D01*
X107030261Y-106784727D01*
X106999500Y-106939370D01*
X106999500Y-107462770D01*
X106979815Y-107529809D01*
X106978436Y-107531909D01*
X106971711Y-107541920D01*
X106957288Y-107556344D01*
X106904057Y-107642645D01*
X106902718Y-107644639D01*
X106877635Y-107665498D01*
X106853373Y-107687321D01*
X106850650Y-107687939D01*
X106848997Y-107689315D01*
X106839396Y-107690497D01*
X106799782Y-107699500D01*
X106200218Y-107699500D01*
X106133179Y-107679815D01*
X106094679Y-107640597D01*
X106080495Y-107617601D01*
X106042712Y-107556344D01*
X106036819Y-107550451D01*
X106003334Y-107489128D01*
X106000500Y-107462770D01*
X106000500Y-106907009D01*
X105995154Y-106880131D01*
X105995154Y-106880130D01*
X105976177Y-106784727D01*
X105969738Y-106752355D01*
X105909394Y-106606673D01*
X105909392Y-106606670D01*
X105909390Y-106606666D01*
X105821789Y-106475563D01*
X105821786Y-106475559D01*
X105706708Y-106360481D01*
X105706704Y-106360478D01*
X105575601Y-106272877D01*
X105575588Y-106272870D01*
X105429917Y-106212532D01*
X105429905Y-106212529D01*
X105275261Y-106181768D01*
X105275258Y-106181768D01*
X105117574Y-106181768D01*
X105117571Y-106181768D01*
X104962926Y-106212529D01*
X104962914Y-106212532D01*
X104817243Y-106272870D01*
X104817230Y-106272877D01*
X104686127Y-106360478D01*
X104686123Y-106360481D01*
X104574629Y-106471975D01*
X104574626Y-106471979D01*
X104487025Y-106603082D01*
X104487018Y-106603095D01*
X104426680Y-106748766D01*
X104426677Y-106748778D01*
X104395916Y-106903421D01*
X104395916Y-106903426D01*
X104395916Y-107061110D01*
X104395916Y-107061112D01*
X104395915Y-107061112D01*
X104397116Y-107067144D01*
X104399500Y-107091340D01*
X104399500Y-107462770D01*
X104392600Y-107486265D01*
X104389901Y-107510608D01*
X104381988Y-107522406D01*
X104379815Y-107529809D01*
X104371789Y-107540900D01*
X104367731Y-107545900D01*
X104357288Y-107556344D01*
X104351045Y-107566464D01*
X104345995Y-107572689D01*
X104323557Y-107588156D01*
X104303291Y-107606383D01*
X104295209Y-107607697D01*
X104288469Y-107612344D01*
X104261233Y-107613225D01*
X104234328Y-107617602D01*
X104226817Y-107614338D01*
X104218636Y-107614603D01*
X104195245Y-107600618D01*
X104170247Y-107589755D01*
X104162907Y-107581284D01*
X104158667Y-107578749D01*
X104155925Y-107573226D01*
X104144168Y-107559656D01*
X104142319Y-107556659D01*
X104142316Y-107556655D01*
X104018345Y-107432684D01*
X103869124Y-107340643D01*
X103869119Y-107340641D01*
X103702697Y-107285494D01*
X103702690Y-107285493D01*
X103599986Y-107275000D01*
X103550000Y-107275000D01*
X103550000Y-109753638D01*
X103530315Y-109820677D01*
X103513681Y-109841319D01*
X103500000Y-109855000D01*
X103500000Y-110175000D01*
X104224999Y-110175000D01*
X104224999Y-110168417D01*
X104218591Y-110097897D01*
X104218590Y-110097892D01*
X104168018Y-109935603D01*
X104080072Y-109790122D01*
X104025486Y-109735536D01*
X104021777Y-109728744D01*
X104015487Y-109724239D01*
X104005268Y-109698510D01*
X103992001Y-109674213D01*
X103992552Y-109666494D01*
X103989697Y-109659304D01*
X103995010Y-109632135D01*
X103996985Y-109604521D01*
X104001960Y-109596597D01*
X104003107Y-109590733D01*
X104020893Y-109566444D01*
X104023659Y-109562040D01*
X104160198Y-109419625D01*
X104179534Y-109408531D01*
X104196110Y-109393621D01*
X104209253Y-109391481D01*
X104220802Y-109384856D01*
X104243068Y-109385977D01*
X104265073Y-109382396D01*
X104277284Y-109387701D01*
X104290583Y-109388371D01*
X104308706Y-109401352D01*
X104329156Y-109410236D01*
X104342320Y-109425427D01*
X104347386Y-109429056D01*
X104349012Y-109433150D01*
X104355243Y-109440341D01*
X104357288Y-109443656D01*
X104481344Y-109567712D01*
X104630666Y-109659814D01*
X104797203Y-109714999D01*
X104899991Y-109725500D01*
X105087324Y-109725499D01*
X105154363Y-109745183D01*
X105200118Y-109797987D01*
X105211155Y-109855978D01*
X105210687Y-109864915D01*
X105199500Y-109921158D01*
X105199500Y-110078748D01*
X105199331Y-110081979D01*
X105188779Y-110112011D01*
X105179815Y-110142539D01*
X105177281Y-110144734D01*
X105176170Y-110147898D01*
X105151053Y-110167460D01*
X105127011Y-110188294D01*
X105123258Y-110189110D01*
X105121048Y-110190832D01*
X105111260Y-110191720D01*
X105075500Y-110199500D01*
X104921155Y-110199500D01*
X104766510Y-110230261D01*
X104766498Y-110230264D01*
X104620827Y-110290602D01*
X104620814Y-110290609D01*
X104489711Y-110378210D01*
X104489707Y-110378213D01*
X104378213Y-110489707D01*
X104378210Y-110489711D01*
X104291227Y-110619891D01*
X104237615Y-110664696D01*
X104188125Y-110675000D01*
X102275001Y-110675000D01*
X102275001Y-110681582D01*
X102281408Y-110752102D01*
X102281409Y-110752107D01*
X102331981Y-110914396D01*
X102419927Y-111059877D01*
X102522015Y-111161965D01*
X102555500Y-111223288D01*
X102550516Y-111292980D01*
X102522015Y-111337327D01*
X102419531Y-111439810D01*
X102419530Y-111439811D01*
X102331522Y-111585393D01*
X102280913Y-111747807D01*
X102274500Y-111818386D01*
X102274500Y-112331613D01*
X102280913Y-112402192D01*
X102280913Y-112402194D01*
X102280914Y-112402196D01*
X102331522Y-112564606D01*
X102413067Y-112699498D01*
X102419530Y-112710188D01*
X102496661Y-112787319D01*
X102530146Y-112848642D01*
X102525162Y-112918334D01*
X102496661Y-112962681D01*
X102419531Y-113039810D01*
X102419530Y-113039811D01*
X102331522Y-113185393D01*
X102280913Y-113347807D01*
X102274500Y-113418386D01*
X102274500Y-113931613D01*
X102280913Y-114002192D01*
X102280913Y-114002194D01*
X102280914Y-114002196D01*
X102331522Y-114164606D01*
X102401242Y-114279937D01*
X102419530Y-114310188D01*
X102522015Y-114412673D01*
X102555500Y-114473996D01*
X102550516Y-114543688D01*
X102522015Y-114588035D01*
X102419928Y-114690121D01*
X102419927Y-114690122D01*
X102331980Y-114835604D01*
X102281409Y-114997893D01*
X102275000Y-115068427D01*
X102275000Y-115075000D01*
X103126000Y-115075000D01*
X103193039Y-115094685D01*
X103238794Y-115147489D01*
X103250000Y-115199000D01*
X103250000Y-115325000D01*
X103376000Y-115325000D01*
X103443039Y-115344685D01*
X103488794Y-115397489D01*
X103500000Y-115449000D01*
X103500000Y-116224999D01*
X103581581Y-116224999D01*
X103652102Y-116218591D01*
X103652107Y-116218590D01*
X103814396Y-116168019D01*
X103875281Y-116131212D01*
X103942836Y-116113375D01*
X104008324Y-116134226D01*
X104120814Y-116209390D01*
X104120827Y-116209397D01*
X104258683Y-116266498D01*
X104266503Y-116269737D01*
X104345730Y-116285496D01*
X104389691Y-116294241D01*
X104417264Y-116308664D01*
X104445712Y-116321296D01*
X104447966Y-116324724D01*
X104451602Y-116326626D01*
X104467000Y-116353666D01*
X104484103Y-116379673D01*
X104484916Y-116385129D01*
X104486176Y-116387341D01*
X104489493Y-116414553D01*
X104489500Y-116415254D01*
X104489501Y-116597872D01*
X104491630Y-116617691D01*
X104491694Y-116623689D01*
X104490992Y-116626176D01*
X104490992Y-116638239D01*
X104489500Y-116652122D01*
X104489500Y-116997869D01*
X104489501Y-116997876D01*
X104495908Y-117057483D01*
X104546202Y-117192328D01*
X104546206Y-117192335D01*
X104632452Y-117307544D01*
X104632455Y-117307547D01*
X104747664Y-117393793D01*
X104747671Y-117393797D01*
X104792618Y-117410561D01*
X104882517Y-117444091D01*
X104942127Y-117450500D01*
X105100500Y-117450499D01*
X105167539Y-117470183D01*
X105213294Y-117522987D01*
X105224500Y-117574498D01*
X105224500Y-117732869D01*
X105224501Y-117732876D01*
X105230908Y-117792483D01*
X105281202Y-117927328D01*
X105281204Y-117927331D01*
X105301899Y-117954976D01*
X105326316Y-118020440D01*
X105311464Y-118088713D01*
X105305737Y-118098174D01*
X105290609Y-118120816D01*
X105290602Y-118120828D01*
X105230264Y-118266498D01*
X105230261Y-118266510D01*
X105199500Y-118421153D01*
X105199500Y-118578846D01*
X105230261Y-118733489D01*
X105230264Y-118733501D01*
X105290602Y-118879172D01*
X105290609Y-118879185D01*
X105378210Y-119010288D01*
X105378213Y-119010292D01*
X105489707Y-119121786D01*
X105489711Y-119121789D01*
X105620814Y-119209390D01*
X105620827Y-119209397D01*
X105726977Y-119253365D01*
X105766503Y-119269737D01*
X105921153Y-119300499D01*
X105921156Y-119300500D01*
X105921158Y-119300500D01*
X105925162Y-119300500D01*
X105927183Y-119301093D01*
X105927218Y-119301097D01*
X105927217Y-119301103D01*
X105992201Y-119320185D01*
X106037956Y-119372989D01*
X106039711Y-119377018D01*
X106040606Y-119379179D01*
X106040607Y-119379180D01*
X106040609Y-119379185D01*
X106128210Y-119510288D01*
X106128213Y-119510292D01*
X106239707Y-119621786D01*
X106239711Y-119621789D01*
X106370814Y-119709390D01*
X106370827Y-119709397D01*
X106444013Y-119739711D01*
X106516503Y-119769737D01*
X106632413Y-119792793D01*
X106671153Y-119800499D01*
X106671156Y-119800500D01*
X106671158Y-119800500D01*
X106828844Y-119800500D01*
X106828845Y-119800499D01*
X106983497Y-119769737D01*
X107129179Y-119709394D01*
X107181110Y-119674694D01*
X107247785Y-119653816D01*
X107315165Y-119672300D01*
X107318863Y-119674676D01*
X107370821Y-119709394D01*
X107370823Y-119709395D01*
X107370825Y-119709396D01*
X107444013Y-119739711D01*
X107516503Y-119769737D01*
X107632413Y-119792793D01*
X107671153Y-119800499D01*
X107671156Y-119800500D01*
X107671158Y-119800500D01*
X107828844Y-119800500D01*
X107828845Y-119800499D01*
X107983497Y-119769737D01*
X108129179Y-119709394D01*
X108181110Y-119674694D01*
X108247785Y-119653816D01*
X108315165Y-119672300D01*
X108318863Y-119674676D01*
X108370821Y-119709394D01*
X108370823Y-119709395D01*
X108370825Y-119709396D01*
X108444013Y-119739711D01*
X108516503Y-119769737D01*
X108632413Y-119792793D01*
X108671153Y-119800499D01*
X108671156Y-119800500D01*
X108671158Y-119800500D01*
X108828844Y-119800500D01*
X108828845Y-119800499D01*
X108983497Y-119769737D01*
X109129179Y-119709394D01*
X109260289Y-119621789D01*
X109371789Y-119510289D01*
X109459394Y-119379179D01*
X109460276Y-119377051D01*
X109504227Y-119270942D01*
X109519737Y-119233497D01*
X109550500Y-119078842D01*
X109550500Y-118921158D01*
X109550500Y-118921155D01*
X109550499Y-118921153D01*
X109519738Y-118766510D01*
X109519737Y-118766503D01*
X109464070Y-118632109D01*
X109459397Y-118620827D01*
X109459390Y-118620814D01*
X109371789Y-118489711D01*
X109371786Y-118489707D01*
X109279259Y-118397180D01*
X109245774Y-118335857D01*
X109250758Y-118266165D01*
X109292630Y-118210232D01*
X109358094Y-118185815D01*
X109366919Y-118185499D01*
X109622872Y-118185499D01*
X109636741Y-118184008D01*
X109663250Y-118184008D01*
X109677127Y-118185500D01*
X110022872Y-118185499D01*
X110036741Y-118184008D01*
X110063250Y-118184008D01*
X110077127Y-118185500D01*
X110422872Y-118185499D01*
X110436741Y-118184008D01*
X110463250Y-118184008D01*
X110477127Y-118185500D01*
X110822872Y-118185499D01*
X110836741Y-118184008D01*
X110863250Y-118184008D01*
X110877127Y-118185500D01*
X111222872Y-118185499D01*
X111282483Y-118179091D01*
X111417331Y-118128796D01*
X111532546Y-118042546D01*
X111618796Y-117927331D01*
X111669091Y-117792483D01*
X111675500Y-117732873D01*
X111675499Y-117574498D01*
X111677585Y-117567392D01*
X111676339Y-117560092D01*
X111687294Y-117534327D01*
X111695183Y-117507460D01*
X111700781Y-117502609D01*
X111703679Y-117495794D01*
X111726825Y-117480041D01*
X111747987Y-117461705D01*
X111756747Y-117459677D01*
X111761441Y-117456484D01*
X111789880Y-117452011D01*
X111796232Y-117450542D01*
X111797863Y-117450499D01*
X111957872Y-117450499D01*
X112009854Y-117444911D01*
X112014863Y-117444779D01*
X112043987Y-117452503D01*
X112073636Y-117457853D01*
X112077709Y-117461446D01*
X112082397Y-117462690D01*
X112096029Y-117477609D01*
X112121232Y-117499844D01*
X112128213Y-117510292D01*
X112239707Y-117621786D01*
X112239711Y-117621789D01*
X112370814Y-117709390D01*
X112370827Y-117709397D01*
X112467646Y-117749500D01*
X112516503Y-117769737D01*
X112632408Y-117792792D01*
X112671153Y-117800499D01*
X112671156Y-117800500D01*
X112671158Y-117800500D01*
X112828844Y-117800500D01*
X112828845Y-117800499D01*
X112983497Y-117769737D01*
X113129179Y-117709394D01*
X113260289Y-117621789D01*
X113371789Y-117510289D01*
X113459394Y-117379179D01*
X113519737Y-117233497D01*
X113550500Y-117078842D01*
X113550500Y-116922902D01*
X113570185Y-116855863D01*
X113622989Y-116810108D01*
X113692147Y-116800164D01*
X113755703Y-116829189D01*
X113789062Y-116875451D01*
X113790605Y-116879178D01*
X113790609Y-116879185D01*
X113878210Y-117010288D01*
X113878213Y-117010292D01*
X113989707Y-117121786D01*
X113989711Y-117121789D01*
X114120814Y-117209390D01*
X114120827Y-117209397D01*
X114263304Y-117268412D01*
X114266503Y-117269737D01*
X114421153Y-117300499D01*
X114421156Y-117300500D01*
X114421158Y-117300500D01*
X114578844Y-117300500D01*
X114578845Y-117300499D01*
X114733497Y-117269737D01*
X114879179Y-117209394D01*
X115010289Y-117121789D01*
X115121789Y-117010289D01*
X115209394Y-116879179D01*
X115269737Y-116733497D01*
X115300500Y-116578842D01*
X115300500Y-116421158D01*
X115300500Y-116421155D01*
X115300499Y-116421153D01*
X115292248Y-116379673D01*
X115269737Y-116266503D01*
X115263782Y-116252127D01*
X115209397Y-116120827D01*
X115209390Y-116120814D01*
X115121789Y-115989711D01*
X115121786Y-115989707D01*
X115010292Y-115878213D01*
X115010288Y-115878210D01*
X114879185Y-115790609D01*
X114879172Y-115790602D01*
X114733501Y-115730264D01*
X114733489Y-115730261D01*
X114578845Y-115699500D01*
X114578842Y-115699500D01*
X114564742Y-115699500D01*
X114539280Y-115692023D01*
X114513018Y-115688197D01*
X114503355Y-115681474D01*
X114497703Y-115679815D01*
X114483363Y-115669060D01*
X114480111Y-115666231D01*
X114378365Y-115564485D01*
X114333070Y-115538334D01*
X114324050Y-115530488D01*
X114311402Y-115510726D01*
X114295214Y-115493749D01*
X114292920Y-115481848D01*
X114286386Y-115471639D01*
X114286430Y-115448178D01*
X114281990Y-115425142D01*
X114283812Y-115412736D01*
X114300500Y-115328844D01*
X114300500Y-115171155D01*
X114300499Y-115171153D01*
X114290487Y-115120821D01*
X114269737Y-115016503D01*
X114262020Y-114997872D01*
X114209397Y-114870827D01*
X114209390Y-114870814D01*
X114121789Y-114739711D01*
X114121786Y-114739707D01*
X114010292Y-114628213D01*
X114010288Y-114628210D01*
X113879185Y-114540609D01*
X113879172Y-114540602D01*
X113733501Y-114480264D01*
X113733489Y-114480261D01*
X113578845Y-114449500D01*
X113578842Y-114449500D01*
X113421158Y-114449500D01*
X113421155Y-114449500D01*
X113266510Y-114480261D01*
X113266498Y-114480264D01*
X113120827Y-114540602D01*
X113120814Y-114540609D01*
X112989711Y-114628210D01*
X112989707Y-114628213D01*
X112878213Y-114739707D01*
X112878210Y-114739711D01*
X112790609Y-114870814D01*
X112790602Y-114870827D01*
X112748302Y-114972952D01*
X112735759Y-114988517D01*
X112727454Y-115006703D01*
X112714284Y-115015166D01*
X112704462Y-115027356D01*
X112685493Y-115033669D01*
X112668676Y-115044477D01*
X112641115Y-115048439D01*
X112638167Y-115049421D01*
X112633741Y-115049500D01*
X112534500Y-115049500D01*
X112467461Y-115029815D01*
X112421706Y-114977011D01*
X112410500Y-114925500D01*
X112410499Y-114652130D01*
X112410498Y-114652117D01*
X112409008Y-114638258D01*
X112408304Y-114623638D01*
X112408369Y-114617688D01*
X112410500Y-114597873D01*
X112410499Y-114423737D01*
X112410506Y-114423138D01*
X112420531Y-114390333D01*
X112430183Y-114357461D01*
X112430718Y-114356996D01*
X112430926Y-114356319D01*
X112457078Y-114334155D01*
X112482987Y-114311706D01*
X112483770Y-114311535D01*
X112484229Y-114311147D01*
X112487628Y-114310696D01*
X112534499Y-114300500D01*
X112578844Y-114300500D01*
X112578845Y-114300499D01*
X112733497Y-114269737D01*
X112870082Y-114213162D01*
X112879172Y-114209397D01*
X112879172Y-114209396D01*
X112879179Y-114209394D01*
X113010289Y-114121789D01*
X113121789Y-114010289D01*
X113209394Y-113879179D01*
X113269737Y-113733497D01*
X113300500Y-113578842D01*
X113300500Y-113421158D01*
X113300500Y-113421155D01*
X113300499Y-113421153D01*
X113271490Y-113275316D01*
X113269737Y-113266503D01*
X113252586Y-113225097D01*
X113209397Y-113120827D01*
X113209390Y-113120814D01*
X113121789Y-112989711D01*
X113121786Y-112989707D01*
X113010292Y-112878213D01*
X113010288Y-112878210D01*
X112879185Y-112790609D01*
X112879172Y-112790602D01*
X112733501Y-112730264D01*
X112733489Y-112730261D01*
X112578845Y-112699500D01*
X112578842Y-112699500D01*
X112534500Y-112699500D01*
X112467461Y-112679815D01*
X112421706Y-112627011D01*
X112410500Y-112575500D01*
X112410499Y-112252130D01*
X112410498Y-112252117D01*
X112409008Y-112238258D01*
X112409008Y-112211749D01*
X112410500Y-112197873D01*
X112410499Y-111852128D01*
X112409008Y-111838258D01*
X112409008Y-111811749D01*
X112410500Y-111797873D01*
X112410499Y-111452128D01*
X112404091Y-111392517D01*
X112383506Y-111337327D01*
X112353797Y-111257671D01*
X112353793Y-111257664D01*
X112267547Y-111142455D01*
X112267544Y-111142452D01*
X112152335Y-111056206D01*
X112152328Y-111056202D01*
X112017482Y-111005908D01*
X112017483Y-111005908D01*
X111957883Y-110999501D01*
X111957881Y-110999500D01*
X111957873Y-110999500D01*
X111957865Y-110999500D01*
X111799499Y-110999500D01*
X111732460Y-110979815D01*
X111686705Y-110927011D01*
X111675499Y-110875500D01*
X111675499Y-110717129D01*
X111675498Y-110717123D01*
X111673658Y-110700000D01*
X111669091Y-110657517D01*
X111669090Y-110657515D01*
X111669090Y-110657512D01*
X111667308Y-110649969D01*
X111670015Y-110649329D01*
X111665960Y-110592851D01*
X111684031Y-110550286D01*
X111754295Y-110445130D01*
X111814638Y-110299448D01*
X111845401Y-110144793D01*
X111845401Y-109987109D01*
X111845401Y-109987106D01*
X111845400Y-109987104D01*
X111828247Y-109900873D01*
X111814638Y-109832454D01*
X111808239Y-109817005D01*
X111754298Y-109686778D01*
X111754291Y-109686765D01*
X111666690Y-109555662D01*
X111666687Y-109555658D01*
X111555193Y-109444164D01*
X111555189Y-109444161D01*
X111424086Y-109356560D01*
X111424073Y-109356553D01*
X111278402Y-109296215D01*
X111278390Y-109296212D01*
X111123746Y-109265451D01*
X111123743Y-109265451D01*
X110966059Y-109265451D01*
X110966054Y-109265451D01*
X110830012Y-109292511D01*
X110760420Y-109286284D01*
X110705243Y-109243420D01*
X110681999Y-109177530D01*
X110688118Y-109131881D01*
X110689505Y-109127693D01*
X110689506Y-109127690D01*
X110699999Y-109024986D01*
X110700000Y-109024973D01*
X110700000Y-108750000D01*
X109824000Y-108750000D01*
X109756961Y-108730315D01*
X109711206Y-108677511D01*
X109700000Y-108626000D01*
X109700000Y-108500000D01*
X109574000Y-108500000D01*
X109506961Y-108480315D01*
X109461206Y-108427511D01*
X109450000Y-108376000D01*
X109450000Y-108250000D01*
X109950000Y-108250000D01*
X110699999Y-108250000D01*
X110699999Y-107975028D01*
X110699998Y-107975013D01*
X110689505Y-107872302D01*
X110634358Y-107705880D01*
X110634356Y-107705875D01*
X110542315Y-107556654D01*
X110418345Y-107432684D01*
X110269124Y-107340643D01*
X110269119Y-107340641D01*
X110102697Y-107285494D01*
X110102690Y-107285493D01*
X109999986Y-107275000D01*
X109950000Y-107275000D01*
X109950000Y-108250000D01*
X109450000Y-108250000D01*
X109450000Y-107275000D01*
X109449999Y-107274999D01*
X109400029Y-107275000D01*
X109400011Y-107275001D01*
X109297302Y-107285494D01*
X109130880Y-107340641D01*
X109130875Y-107340643D01*
X108981654Y-107432684D01*
X108857683Y-107556655D01*
X108857679Y-107556660D01*
X108855826Y-107559665D01*
X108854018Y-107561290D01*
X108853202Y-107562323D01*
X108853025Y-107562183D01*
X108833924Y-107579360D01*
X108813923Y-107600989D01*
X108808238Y-107602460D01*
X108803874Y-107606385D01*
X108774802Y-107611113D01*
X108746282Y-107618494D01*
X108740705Y-107616658D01*
X108734911Y-107617601D01*
X108707896Y-107605860D01*
X108679914Y-107596651D01*
X108675135Y-107591622D01*
X108670831Y-107589752D01*
X108654002Y-107572688D01*
X108648960Y-107566474D01*
X108642712Y-107556344D01*
X108632261Y-107545893D01*
X108628209Y-107540899D01*
X108617112Y-107514362D01*
X108603334Y-107489128D01*
X108602216Y-107478737D01*
X108601255Y-107476437D01*
X108601699Y-107473925D01*
X108600500Y-107462770D01*
X108600500Y-107165465D01*
X108602883Y-107141274D01*
X108614452Y-107083109D01*
X108614453Y-107083107D01*
X108614453Y-106925420D01*
X108614452Y-106925416D01*
X108598247Y-106843945D01*
X108583691Y-106770766D01*
X108523347Y-106625085D01*
X108523345Y-106625082D01*
X108523343Y-106625078D01*
X108435742Y-106493973D01*
X108324243Y-106382474D01*
X108193138Y-106294873D01*
X108193128Y-106294868D01*
X108047451Y-106234526D01*
X108047443Y-106234524D01*
X107892800Y-106203764D01*
X107892796Y-106203764D01*
X107735111Y-106203764D01*
X107729019Y-106203764D01*
X107729019Y-106201300D01*
X107670990Y-106190270D01*
X107620301Y-106142183D01*
X107603656Y-106074324D01*
X107626340Y-106008240D01*
X107639843Y-105992234D01*
X107796788Y-105835290D01*
X107812187Y-105812244D01*
X107883352Y-105705737D01*
X107936964Y-105660933D01*
X108006289Y-105652226D01*
X108069316Y-105682380D01*
X108101015Y-105727176D01*
X108115604Y-105762397D01*
X108115609Y-105762407D01*
X108203209Y-105893509D01*
X108203210Y-105893510D01*
X108203211Y-105893511D01*
X108217564Y-105907864D01*
X108276520Y-105966820D01*
X108329065Y-106019365D01*
X108460167Y-106106965D01*
X108460174Y-106106969D01*
X108567663Y-106151492D01*
X108605856Y-106167312D01*
X108605860Y-106167312D01*
X108605861Y-106167313D01*
X108760507Y-106198075D01*
X108760510Y-106198075D01*
X108918197Y-106198075D01*
X108918198Y-106198074D01*
X109072850Y-106167312D01*
X109218532Y-106106969D01*
X109349642Y-106019364D01*
X109461142Y-105907864D01*
X109548747Y-105776754D01*
X109609090Y-105631072D01*
X109639853Y-105476417D01*
X109639853Y-105318733D01*
X109639853Y-105318730D01*
X109627883Y-105258556D01*
X109625500Y-105234364D01*
X109625500Y-104920267D01*
X109643384Y-104856116D01*
X109668475Y-104814611D01*
X109668475Y-104814610D01*
X109668478Y-104814606D01*
X109719086Y-104652196D01*
X109725500Y-104581616D01*
X109725500Y-103918384D01*
X109719086Y-103847804D01*
X109683868Y-103734786D01*
X109682719Y-103664930D01*
X109719520Y-103605537D01*
X109782589Y-103575469D01*
X109851902Y-103584272D01*
X109874486Y-103597110D01*
X110414446Y-103984095D01*
X110419150Y-103987639D01*
X111058926Y-104494154D01*
X111063467Y-104497749D01*
X111068021Y-104501536D01*
X111464812Y-104847787D01*
X111687176Y-105041828D01*
X111691549Y-105045832D01*
X112284177Y-105615112D01*
X112288354Y-105619321D01*
X112853092Y-106216281D01*
X112857062Y-106220684D01*
X112939675Y-106316828D01*
X113388886Y-106839614D01*
X113392608Y-106843945D01*
X113396357Y-106848524D01*
X113579180Y-107083107D01*
X113901520Y-107496705D01*
X113905052Y-107501468D01*
X114378637Y-108173034D01*
X114381937Y-108177960D01*
X114822874Y-108871392D01*
X114825935Y-108876470D01*
X115096167Y-109350019D01*
X115220392Y-109567710D01*
X115233218Y-109590185D01*
X115236031Y-109595400D01*
X115389613Y-109897193D01*
X115608746Y-110327797D01*
X115611308Y-110333145D01*
X115948566Y-111082481D01*
X115950870Y-111087944D01*
X116251943Y-111852595D01*
X116253982Y-111858163D01*
X116518134Y-112636268D01*
X116519906Y-112641926D01*
X116746582Y-113431837D01*
X116748080Y-113437574D01*
X116936723Y-114237364D01*
X116937946Y-114243166D01*
X117088144Y-115051082D01*
X117089088Y-115056935D01*
X117200494Y-115871109D01*
X117201157Y-115877001D01*
X117273515Y-116695559D01*
X117273896Y-116701477D01*
X117307040Y-117522557D01*
X117307138Y-117528485D01*
X117300996Y-118350251D01*
X117300809Y-118356177D01*
X117255392Y-119176654D01*
X117254923Y-119182565D01*
X117170334Y-119999955D01*
X117169583Y-120005837D01*
X117046017Y-120818249D01*
X117044986Y-120824087D01*
X116882723Y-121629683D01*
X116881413Y-121635466D01*
X116680834Y-122432346D01*
X116679250Y-122438060D01*
X116440796Y-123224472D01*
X116438940Y-123230104D01*
X116163169Y-124004211D01*
X116161046Y-124009747D01*
X115848596Y-124769762D01*
X115846211Y-124775190D01*
X115497772Y-125519430D01*
X115495131Y-125524739D01*
X115111514Y-126251471D01*
X115108621Y-126256647D01*
X114690713Y-126964192D01*
X114687577Y-126969223D01*
X114236312Y-127656000D01*
X114232938Y-127660876D01*
X113749375Y-128325274D01*
X113745772Y-128329984D01*
X113500880Y-128634699D01*
X113493022Y-128640170D01*
X113488079Y-128648369D01*
X113464817Y-128659808D01*
X113443540Y-128674623D01*
X113433970Y-128674977D01*
X113425380Y-128679202D01*
X113399628Y-128676249D01*
X113373719Y-128677209D01*
X113365477Y-128672333D01*
X113355965Y-128671243D01*
X113335895Y-128654834D01*
X113313583Y-128641636D01*
X113307845Y-128631901D01*
X113301873Y-128627019D01*
X113294169Y-128608700D01*
X113286298Y-128595347D01*
X113284035Y-128588385D01*
X113269737Y-128516503D01*
X113227651Y-128414897D01*
X113226147Y-128410270D01*
X113225280Y-128380017D01*
X113222045Y-128349926D01*
X113224289Y-128345441D01*
X113224146Y-128340429D01*
X113239772Y-128314510D01*
X113253320Y-128287447D01*
X113256367Y-128284289D01*
X113330472Y-128210185D01*
X113418478Y-128064606D01*
X113469086Y-127902196D01*
X113475500Y-127831616D01*
X113475500Y-127318384D01*
X113469086Y-127247804D01*
X113418478Y-127085394D01*
X113330472Y-126939815D01*
X113330470Y-126939813D01*
X113330469Y-126939811D01*
X113228339Y-126837681D01*
X113194854Y-126776358D01*
X113199838Y-126706666D01*
X113228339Y-126662319D01*
X113330468Y-126560189D01*
X113330469Y-126560188D01*
X113330472Y-126560185D01*
X113418478Y-126414606D01*
X113469086Y-126252196D01*
X113475500Y-126181616D01*
X113475500Y-125668384D01*
X113469086Y-125597804D01*
X113418478Y-125435394D01*
X113330472Y-125289815D01*
X113330469Y-125289812D01*
X113330466Y-125289807D01*
X113326885Y-125285235D01*
X113301039Y-125220322D01*
X113300500Y-125208768D01*
X113300500Y-124791231D01*
X113320185Y-124724192D01*
X113326888Y-124714759D01*
X113330463Y-124710193D01*
X113330472Y-124710185D01*
X113418478Y-124564606D01*
X113469086Y-124402196D01*
X113475500Y-124331616D01*
X113475500Y-123818384D01*
X113469086Y-123747804D01*
X113418478Y-123585394D01*
X113330472Y-123439815D01*
X113330470Y-123439813D01*
X113330469Y-123439811D01*
X113228339Y-123337681D01*
X113194854Y-123276358D01*
X113199838Y-123206666D01*
X113228339Y-123162319D01*
X113330468Y-123060189D01*
X113330469Y-123060188D01*
X113330472Y-123060185D01*
X113418478Y-122914606D01*
X113469086Y-122752196D01*
X113475500Y-122681616D01*
X113475500Y-122168384D01*
X113469086Y-122097804D01*
X113418478Y-121935394D01*
X113330472Y-121789815D01*
X113330470Y-121789813D01*
X113330469Y-121789811D01*
X113210188Y-121669530D01*
X113144273Y-121629683D01*
X113064606Y-121581522D01*
X112902196Y-121530914D01*
X112902194Y-121530913D01*
X112902192Y-121530913D01*
X112852778Y-121526423D01*
X112831616Y-121524500D01*
X112168384Y-121524500D01*
X112149145Y-121526248D01*
X112097807Y-121530913D01*
X111935393Y-121581522D01*
X111789811Y-121669530D01*
X111669530Y-121789811D01*
X111581522Y-121935393D01*
X111530913Y-122097807D01*
X111524500Y-122168386D01*
X111524500Y-122681613D01*
X111530913Y-122752192D01*
X111530913Y-122752194D01*
X111530914Y-122752196D01*
X111581522Y-122914606D01*
X111660970Y-123046029D01*
X111669530Y-123060188D01*
X111771661Y-123162319D01*
X111805146Y-123223642D01*
X111800162Y-123293334D01*
X111771661Y-123337681D01*
X111669531Y-123439810D01*
X111669530Y-123439811D01*
X111581522Y-123585393D01*
X111530913Y-123747807D01*
X111524500Y-123818386D01*
X111524500Y-124331613D01*
X111530913Y-124402192D01*
X111530913Y-124402194D01*
X111530914Y-124402196D01*
X111581522Y-124564606D01*
X111669528Y-124710185D01*
X111669531Y-124710188D01*
X111673112Y-124714759D01*
X111698960Y-124779672D01*
X111699500Y-124791231D01*
X111699500Y-125200500D01*
X111679815Y-125267539D01*
X111627011Y-125313294D01*
X111575500Y-125324500D01*
X111300503Y-125324500D01*
X111233464Y-125304815D01*
X111193771Y-125263621D01*
X111168164Y-125220322D01*
X111118081Y-125135635D01*
X111118079Y-125135633D01*
X111118076Y-125135629D01*
X111001870Y-125019423D01*
X111001862Y-125019417D01*
X110900368Y-124959394D01*
X110860398Y-124935756D01*
X110860397Y-124935755D01*
X110860396Y-124935755D01*
X110860393Y-124935754D01*
X110702573Y-124889902D01*
X110702567Y-124889901D01*
X110665701Y-124887000D01*
X110665694Y-124887000D01*
X110234306Y-124887000D01*
X110234298Y-124887000D01*
X110197432Y-124889901D01*
X110197426Y-124889902D01*
X110039606Y-124935754D01*
X110039603Y-124935755D01*
X109898137Y-125019417D01*
X109898129Y-125019423D01*
X109781923Y-125135629D01*
X109781917Y-125135637D01*
X109698255Y-125277103D01*
X109698254Y-125277106D01*
X109652402Y-125434926D01*
X109652401Y-125434932D01*
X109649500Y-125471798D01*
X109649500Y-126638000D01*
X109646949Y-126646685D01*
X109648238Y-126655647D01*
X109637259Y-126679687D01*
X109629815Y-126705039D01*
X109622974Y-126710966D01*
X109619213Y-126719203D01*
X109596978Y-126733492D01*
X109577011Y-126750794D01*
X109566496Y-126753081D01*
X109560435Y-126756977D01*
X109525500Y-126762000D01*
X109474000Y-126762000D01*
X109406961Y-126742315D01*
X109361206Y-126689511D01*
X109350000Y-126638000D01*
X109350000Y-126375000D01*
X107750000Y-126375000D01*
X107750000Y-126778149D01*
X107752899Y-126814989D01*
X107752900Y-126814995D01*
X107798716Y-126972693D01*
X107798717Y-126972696D01*
X107882314Y-127114052D01*
X107882321Y-127114061D01*
X108003960Y-127235700D01*
X108002193Y-127237466D01*
X108035917Y-127284159D01*
X108039709Y-127353926D01*
X108005180Y-127414668D01*
X107943293Y-127447099D01*
X107919011Y-127449500D01*
X107291232Y-127449500D01*
X107224193Y-127429815D01*
X107214765Y-127423115D01*
X107210192Y-127419533D01*
X107210186Y-127419529D01*
X107210185Y-127419528D01*
X107064606Y-127331522D01*
X106902196Y-127280914D01*
X106902194Y-127280913D01*
X106902192Y-127280913D01*
X106852778Y-127276423D01*
X106831616Y-127274500D01*
X106318384Y-127274500D01*
X106299145Y-127276248D01*
X106247807Y-127280913D01*
X106085393Y-127331522D01*
X105939811Y-127419530D01*
X105939810Y-127419531D01*
X105837681Y-127521661D01*
X105776358Y-127555146D01*
X105706666Y-127550162D01*
X105662319Y-127521661D01*
X105560188Y-127419530D01*
X105559928Y-127419373D01*
X105414606Y-127331522D01*
X105252196Y-127280914D01*
X105252194Y-127280913D01*
X105252192Y-127280913D01*
X105202778Y-127276423D01*
X105181616Y-127274500D01*
X105181613Y-127274500D01*
X105175097Y-127274500D01*
X105145656Y-127265855D01*
X105115670Y-127259332D01*
X105110654Y-127255577D01*
X105108058Y-127254815D01*
X105087416Y-127238181D01*
X105060915Y-127211680D01*
X105027430Y-127150357D01*
X105032414Y-127080665D01*
X105074286Y-127024732D01*
X105139750Y-127000315D01*
X105148596Y-126999999D01*
X105249999Y-126999999D01*
X105750000Y-126999999D01*
X106024972Y-126999999D01*
X106024986Y-126999998D01*
X106127697Y-126989505D01*
X106294119Y-126934358D01*
X106294124Y-126934356D01*
X106443345Y-126842315D01*
X106567315Y-126718345D01*
X106659356Y-126569124D01*
X106659358Y-126569119D01*
X106714505Y-126402697D01*
X106714506Y-126402690D01*
X106724999Y-126299986D01*
X106725000Y-126299973D01*
X106725000Y-126250000D01*
X105750000Y-126250000D01*
X105750000Y-126999999D01*
X105249999Y-126999999D01*
X105250000Y-126999998D01*
X105250000Y-126124000D01*
X105269685Y-126056961D01*
X105322489Y-126011206D01*
X105374000Y-126000000D01*
X105500000Y-126000000D01*
X105500000Y-125874000D01*
X105519685Y-125806961D01*
X105572489Y-125761206D01*
X105624000Y-125750000D01*
X106724999Y-125750000D01*
X106724999Y-125700028D01*
X106724998Y-125700013D01*
X106714505Y-125597302D01*
X106685055Y-125508427D01*
X106672934Y-125471850D01*
X107750000Y-125471850D01*
X107750000Y-125875000D01*
X108300000Y-125875000D01*
X108800000Y-125875000D01*
X109350000Y-125875000D01*
X109350000Y-125471865D01*
X109349999Y-125471850D01*
X109347100Y-125435010D01*
X109347099Y-125435004D01*
X109301283Y-125277306D01*
X109301282Y-125277303D01*
X109217685Y-125135947D01*
X109217678Y-125135938D01*
X109101561Y-125019821D01*
X109101552Y-125019814D01*
X108960196Y-124936217D01*
X108960193Y-124936216D01*
X108802494Y-124890400D01*
X108802497Y-124890400D01*
X108800000Y-124890203D01*
X108800000Y-125875000D01*
X108300000Y-125875000D01*
X108300000Y-124890203D01*
X108297503Y-124890400D01*
X108139806Y-124936216D01*
X108139803Y-124936217D01*
X107998447Y-125019814D01*
X107998438Y-125019821D01*
X107882321Y-125135938D01*
X107882314Y-125135947D01*
X107798717Y-125277303D01*
X107798716Y-125277306D01*
X107752900Y-125435004D01*
X107752899Y-125435010D01*
X107750000Y-125471850D01*
X106672934Y-125471850D01*
X106659358Y-125430880D01*
X106659356Y-125430875D01*
X106567315Y-125281654D01*
X106443344Y-125157683D01*
X106443341Y-125157681D01*
X106440339Y-125155829D01*
X106438713Y-125154021D01*
X106437677Y-125153202D01*
X106437817Y-125153024D01*
X106393617Y-125103880D01*
X106382397Y-125034917D01*
X106410243Y-124970836D01*
X106440344Y-124944754D01*
X106443656Y-124942712D01*
X106567712Y-124818656D01*
X106659814Y-124669334D01*
X106714999Y-124502797D01*
X106725500Y-124400009D01*
X106725499Y-123799992D01*
X106714999Y-123697203D01*
X106659814Y-123530666D01*
X106567712Y-123381344D01*
X106443656Y-123257288D01*
X106294334Y-123165186D01*
X106127797Y-123110001D01*
X106127795Y-123110000D01*
X106025010Y-123099500D01*
X104974998Y-123099500D01*
X104974980Y-123099501D01*
X104872203Y-123110000D01*
X104872200Y-123110001D01*
X104705668Y-123165185D01*
X104705663Y-123165187D01*
X104556341Y-123257290D01*
X104556340Y-123257290D01*
X104554025Y-123259606D01*
X104552046Y-123260686D01*
X104550681Y-123261766D01*
X104550496Y-123261532D01*
X104492700Y-123293087D01*
X104423009Y-123288098D01*
X104367078Y-123246223D01*
X104342665Y-123180757D01*
X104344733Y-123147727D01*
X104348150Y-123130552D01*
X104358743Y-123077295D01*
X104363887Y-123051438D01*
X104363887Y-122893749D01*
X104352883Y-122838431D01*
X104350500Y-122814239D01*
X104350500Y-122537230D01*
X104357399Y-122513733D01*
X104360098Y-122489396D01*
X104368010Y-122477596D01*
X104370185Y-122470191D01*
X104378208Y-122459103D01*
X104382263Y-122454104D01*
X104392712Y-122443656D01*
X104398960Y-122433525D01*
X104404001Y-122427313D01*
X104426435Y-122411847D01*
X104446694Y-122393623D01*
X104454780Y-122392306D01*
X104461526Y-122387656D01*
X104488758Y-122386774D01*
X104515656Y-122382395D01*
X104523172Y-122385660D01*
X104531359Y-122385395D01*
X104554744Y-122399375D01*
X104579740Y-122410234D01*
X104587085Y-122418709D01*
X104591329Y-122421247D01*
X104594071Y-122426771D01*
X104605829Y-122440339D01*
X104607681Y-122443341D01*
X104607683Y-122443344D01*
X104731654Y-122567315D01*
X104880875Y-122659356D01*
X104880880Y-122659358D01*
X105047302Y-122714505D01*
X105047309Y-122714506D01*
X105150019Y-122724999D01*
X105700000Y-122724999D01*
X105749972Y-122724999D01*
X105749986Y-122724998D01*
X105852697Y-122714505D01*
X106019119Y-122659358D01*
X106019124Y-122659356D01*
X106168345Y-122567315D01*
X106292315Y-122443345D01*
X106384356Y-122294124D01*
X106384358Y-122294119D01*
X106439505Y-122127697D01*
X106439506Y-122127690D01*
X106449999Y-122024986D01*
X106450000Y-122024973D01*
X106450000Y-121750000D01*
X105700000Y-121750000D01*
X105700000Y-122724999D01*
X105150019Y-122724999D01*
X105199999Y-122724998D01*
X105200000Y-122724998D01*
X105200000Y-121250000D01*
X105700000Y-121250000D01*
X106449999Y-121250000D01*
X106449999Y-120975028D01*
X106449998Y-120975013D01*
X106439505Y-120872302D01*
X106384358Y-120705880D01*
X106384356Y-120705875D01*
X106292315Y-120556654D01*
X106168345Y-120432684D01*
X106019124Y-120340643D01*
X106019119Y-120340641D01*
X105852697Y-120285494D01*
X105852690Y-120285493D01*
X105749986Y-120275000D01*
X105700000Y-120275000D01*
X105700000Y-121250000D01*
X105200000Y-121250000D01*
X105200000Y-120275000D01*
X105199999Y-120274999D01*
X105150029Y-120275000D01*
X105150011Y-120275001D01*
X105047302Y-120285494D01*
X104880880Y-120340641D01*
X104880875Y-120340643D01*
X104731654Y-120432684D01*
X104607683Y-120556655D01*
X104607679Y-120556660D01*
X104605826Y-120559665D01*
X104604018Y-120561290D01*
X104603202Y-120562323D01*
X104603025Y-120562183D01*
X104583924Y-120579360D01*
X104563923Y-120600989D01*
X104558238Y-120602460D01*
X104553874Y-120606385D01*
X104524802Y-120611113D01*
X104496282Y-120618494D01*
X104490705Y-120616658D01*
X104484911Y-120617601D01*
X104457896Y-120605860D01*
X104429914Y-120596651D01*
X104425135Y-120591622D01*
X104420831Y-120589752D01*
X104404002Y-120572688D01*
X104398960Y-120566474D01*
X104392712Y-120556344D01*
X104382261Y-120545893D01*
X104378209Y-120540899D01*
X104367112Y-120514362D01*
X104353334Y-120489128D01*
X104352216Y-120478737D01*
X104351255Y-120476437D01*
X104351699Y-120473925D01*
X104350500Y-120462770D01*
X104350500Y-120102650D01*
X104351073Y-120090998D01*
X104351073Y-119933054D01*
X104351072Y-119933052D01*
X104320312Y-119778410D01*
X104320311Y-119778409D01*
X104320310Y-119778402D01*
X104304284Y-119739711D01*
X104276362Y-119672300D01*
X104259970Y-119632726D01*
X104259963Y-119632713D01*
X104172362Y-119501610D01*
X104172359Y-119501606D01*
X104060864Y-119390111D01*
X104060861Y-119390109D01*
X103929758Y-119302508D01*
X103929745Y-119302501D01*
X103784074Y-119242163D01*
X103784062Y-119242160D01*
X103629418Y-119211399D01*
X103629415Y-119211399D01*
X103471730Y-119211399D01*
X103471727Y-119211399D01*
X103317082Y-119242160D01*
X103317074Y-119242162D01*
X103290029Y-119253365D01*
X103290028Y-119253365D01*
X103171400Y-119302501D01*
X103171387Y-119302508D01*
X103040285Y-119390108D01*
X103040284Y-119390110D01*
X103040283Y-119390111D01*
X103039711Y-119390683D01*
X103001337Y-119429057D01*
X102928209Y-119502184D01*
X102840609Y-119633286D01*
X102840602Y-119633299D01*
X102780264Y-119778970D01*
X102780261Y-119778982D01*
X102749500Y-119933625D01*
X102749500Y-120462770D01*
X102729815Y-120529809D01*
X102728436Y-120531909D01*
X102721711Y-120541920D01*
X102707288Y-120556344D01*
X102654057Y-120642645D01*
X102652718Y-120644639D01*
X102627635Y-120665498D01*
X102603373Y-120687321D01*
X102600650Y-120687939D01*
X102598997Y-120689315D01*
X102589396Y-120690497D01*
X102549782Y-120699500D01*
X102379500Y-120699500D01*
X102312461Y-120679815D01*
X102266706Y-120627011D01*
X102255500Y-120575500D01*
X102255500Y-116374010D01*
X102255500Y-116374000D01*
X102243947Y-116266544D01*
X102232741Y-116215033D01*
X102223010Y-116185796D01*
X102198616Y-116112502D01*
X102198613Y-116112496D01*
X102142501Y-116025185D01*
X102120825Y-115991457D01*
X102098193Y-115965338D01*
X102075076Y-115938659D01*
X102075072Y-115938656D01*
X102075070Y-115938653D01*
X101966336Y-115844433D01*
X101966333Y-115844431D01*
X101966331Y-115844430D01*
X101835465Y-115784664D01*
X101835460Y-115784662D01*
X101835459Y-115784662D01*
X101768420Y-115764977D01*
X101768422Y-115764977D01*
X101768417Y-115764976D01*
X101706347Y-115756052D01*
X101626000Y-115744500D01*
X95374000Y-115744500D01*
X95373991Y-115744500D01*
X95373990Y-115744501D01*
X95266549Y-115756052D01*
X95266537Y-115756054D01*
X95215027Y-115767260D01*
X95112502Y-115801383D01*
X95112496Y-115801386D01*
X94991462Y-115879171D01*
X94991451Y-115879179D01*
X94938659Y-115924923D01*
X94844433Y-116033664D01*
X94844430Y-116033668D01*
X94784664Y-116164534D01*
X94764976Y-116231582D01*
X94753894Y-116308664D01*
X94744500Y-116374000D01*
X94744500Y-116694189D01*
X94744926Y-116698518D01*
X94754210Y-116792793D01*
X94754210Y-116792798D01*
X94763649Y-116840251D01*
X94763651Y-116840259D01*
X94777433Y-116885694D01*
X94780389Y-116897494D01*
X94792617Y-116958963D01*
X94795000Y-116983156D01*
X94795000Y-117016840D01*
X94792617Y-117041034D01*
X94780387Y-117102511D01*
X94777432Y-117114309D01*
X94763652Y-117159738D01*
X94754211Y-117207202D01*
X94744500Y-117305813D01*
X94744500Y-117694187D01*
X94754209Y-117792792D01*
X94765183Y-117847971D01*
X94766296Y-117851888D01*
X94767941Y-117864374D01*
X94769937Y-117871482D01*
X94780708Y-117902602D01*
X94781662Y-117905957D01*
X94781652Y-117906996D01*
X94784002Y-117915659D01*
X94784717Y-117919255D01*
X94784728Y-117919304D01*
X94792617Y-117958960D01*
X94795000Y-117983154D01*
X94795000Y-118016840D01*
X94792617Y-118041031D01*
X94792316Y-118042546D01*
X94780387Y-118102511D01*
X94777432Y-118114309D01*
X94763652Y-118159738D01*
X94754211Y-118207202D01*
X94744500Y-118305813D01*
X94744500Y-118694190D01*
X94749645Y-118766132D01*
X94754667Y-118801066D01*
X94770002Y-118871553D01*
X94773261Y-118878689D01*
X94782081Y-118906001D01*
X94787533Y-118933410D01*
X94790933Y-118950500D01*
X94792617Y-118958962D01*
X94795000Y-118983156D01*
X94795000Y-119016840D01*
X94792617Y-119041034D01*
X94780387Y-119102511D01*
X94777432Y-119114309D01*
X94763652Y-119159738D01*
X94754211Y-119207202D01*
X94744500Y-119305813D01*
X94744500Y-119694187D01*
X94754210Y-119792793D01*
X94754210Y-119792798D01*
X94763649Y-119840251D01*
X94763651Y-119840259D01*
X94777433Y-119885694D01*
X94780389Y-119897494D01*
X94792389Y-119957820D01*
X94792617Y-119958963D01*
X94795000Y-119983156D01*
X94795000Y-120016840D01*
X94792617Y-120041034D01*
X94780387Y-120102511D01*
X94777432Y-120114309D01*
X94763652Y-120159738D01*
X94754211Y-120207202D01*
X94747319Y-120277191D01*
X94744500Y-120305811D01*
X94744500Y-123126000D01*
X94744501Y-123126009D01*
X94756052Y-123233450D01*
X94756054Y-123233462D01*
X94767260Y-123284972D01*
X94801383Y-123387497D01*
X94801386Y-123387503D01*
X94879171Y-123508537D01*
X94879179Y-123508548D01*
X94924923Y-123561340D01*
X94924926Y-123561343D01*
X94924930Y-123561347D01*
X94960579Y-123592237D01*
X94998352Y-123651015D01*
X94999710Y-123715875D01*
X94952400Y-123906106D01*
X94952400Y-123906111D01*
X94949589Y-123947572D01*
X94949500Y-123948879D01*
X94949500Y-125351122D01*
X94949501Y-125351125D01*
X94952399Y-125393886D01*
X94952399Y-125393887D01*
X94998360Y-125578696D01*
X95082967Y-125749292D01*
X95082969Y-125749295D01*
X95202277Y-125897721D01*
X95202278Y-125897722D01*
X95353187Y-126019026D01*
X95393106Y-126076369D01*
X95399500Y-126115673D01*
X95399500Y-126575500D01*
X95379815Y-126642539D01*
X95327011Y-126688294D01*
X95275500Y-126699500D01*
X94950218Y-126699500D01*
X94883179Y-126679815D01*
X94844679Y-126640597D01*
X94792712Y-126556344D01*
X94668656Y-126432288D01*
X94519334Y-126340186D01*
X94352797Y-126285001D01*
X94352795Y-126285000D01*
X94250010Y-126274500D01*
X93649998Y-126274500D01*
X93649980Y-126274501D01*
X93547203Y-126285000D01*
X93547200Y-126285001D01*
X93380668Y-126340185D01*
X93380663Y-126340187D01*
X93231342Y-126432289D01*
X93107288Y-126556343D01*
X93107283Y-126556349D01*
X93105241Y-126559661D01*
X93103247Y-126561453D01*
X93102807Y-126562011D01*
X93102711Y-126561935D01*
X93053291Y-126606383D01*
X92984328Y-126617602D01*
X92920247Y-126589755D01*
X92894168Y-126559656D01*
X92892319Y-126556659D01*
X92892316Y-126556655D01*
X92768345Y-126432684D01*
X92619124Y-126340643D01*
X92619119Y-126340641D01*
X92452697Y-126285494D01*
X92452690Y-126285493D01*
X92349986Y-126275000D01*
X92300000Y-126275000D01*
X92300000Y-128724999D01*
X92349972Y-128724999D01*
X92349986Y-128724998D01*
X92452697Y-128714505D01*
X92619119Y-128659358D01*
X92619124Y-128659356D01*
X92768345Y-128567315D01*
X92892318Y-128443342D01*
X92894165Y-128440348D01*
X92895969Y-128438724D01*
X92896798Y-128437677D01*
X92896976Y-128437818D01*
X92946110Y-128393621D01*
X93015073Y-128382396D01*
X93079156Y-128410236D01*
X93105243Y-128440341D01*
X93107288Y-128443656D01*
X93231344Y-128567712D01*
X93380666Y-128659814D01*
X93547203Y-128714999D01*
X93649991Y-128725500D01*
X94250008Y-128725499D01*
X94250016Y-128725498D01*
X94250019Y-128725498D01*
X94306302Y-128719748D01*
X94352797Y-128714999D01*
X94519334Y-128659814D01*
X94668656Y-128567712D01*
X94792712Y-128443656D01*
X94844680Y-128359402D01*
X94896627Y-128312679D01*
X94950218Y-128300500D01*
X95293873Y-128300500D01*
X95360912Y-128320185D01*
X95392244Y-128349008D01*
X95442459Y-128414449D01*
X95535551Y-128507541D01*
X95535555Y-128507544D01*
X95640232Y-128587867D01*
X95640236Y-128587869D01*
X95640243Y-128587875D01*
X95640250Y-128587879D01*
X95754248Y-128653696D01*
X95754249Y-128653697D01*
X95754252Y-128653698D01*
X95754257Y-128653701D01*
X95876171Y-128704200D01*
X95876175Y-128704201D01*
X95880018Y-128705506D01*
X95879469Y-128707122D01*
X95933163Y-128739846D01*
X95963696Y-128802691D01*
X95957596Y-128866593D01*
X95933904Y-128930116D01*
X95933901Y-128930127D01*
X95927500Y-128989655D01*
X95927500Y-129371541D01*
X95907815Y-129438580D01*
X95882164Y-129467395D01*
X95857500Y-129487636D01*
X95857500Y-130290511D01*
X95847560Y-130273295D01*
X95791705Y-130217440D01*
X95723296Y-130177944D01*
X95646996Y-130157500D01*
X95568004Y-130157500D01*
X95491704Y-130177944D01*
X95423295Y-130217440D01*
X95367440Y-130273295D01*
X95357500Y-130290511D01*
X95357500Y-129487636D01*
X95357499Y-129487635D01*
X95315816Y-129495927D01*
X95315808Y-129495929D01*
X95133828Y-129571307D01*
X95133815Y-129571314D01*
X94970037Y-129680748D01*
X94970033Y-129680751D01*
X94830751Y-129820033D01*
X94830748Y-129820037D01*
X94721314Y-129983815D01*
X94721309Y-129983825D01*
X94713560Y-130002534D01*
X94669719Y-130056937D01*
X94603425Y-130079002D01*
X94535725Y-130061723D01*
X94488115Y-130010585D01*
X94474999Y-129955081D01*
X94474999Y-129918417D01*
X94468591Y-129847897D01*
X94468590Y-129847892D01*
X94418018Y-129685603D01*
X94330072Y-129540122D01*
X94209877Y-129419927D01*
X94064395Y-129331980D01*
X94064396Y-129331980D01*
X93902105Y-129281409D01*
X93902106Y-129281409D01*
X93831572Y-129275000D01*
X93750000Y-129275000D01*
X93750000Y-130051000D01*
X93730315Y-130118039D01*
X93677511Y-130163794D01*
X93626000Y-130175000D01*
X93500000Y-130175000D01*
X93500000Y-130301000D01*
X93480315Y-130368039D01*
X93427511Y-130413794D01*
X93376000Y-130425000D01*
X92525001Y-130425000D01*
X92525001Y-130431582D01*
X92531408Y-130502102D01*
X92531409Y-130502107D01*
X92581981Y-130664396D01*
X92669927Y-130809877D01*
X92772015Y-130911965D01*
X92805500Y-130973288D01*
X92800516Y-131042980D01*
X92772015Y-131087327D01*
X92669531Y-131189810D01*
X92669530Y-131189811D01*
X92581522Y-131335393D01*
X92530913Y-131497807D01*
X92525782Y-131554275D01*
X92524500Y-131568384D01*
X92524500Y-132081616D01*
X92525127Y-132088516D01*
X92530913Y-132152192D01*
X92530913Y-132152194D01*
X92530914Y-132152196D01*
X92581522Y-132314606D01*
X92662960Y-132449321D01*
X92669530Y-132460188D01*
X92789811Y-132580469D01*
X92789813Y-132580470D01*
X92789815Y-132580472D01*
X92839650Y-132610598D01*
X92846916Y-132618532D01*
X92856703Y-132623002D01*
X92870100Y-132643849D01*
X92886838Y-132662126D01*
X92889657Y-132674280D01*
X92894477Y-132681780D01*
X92899500Y-132716715D01*
X92899500Y-132913330D01*
X92899499Y-132913348D01*
X92899499Y-133079054D01*
X92899498Y-133079054D01*
X92940423Y-133231785D01*
X92958562Y-133263201D01*
X92958563Y-133263205D01*
X93019475Y-133368709D01*
X93019481Y-133368717D01*
X93138349Y-133487585D01*
X93138355Y-133487590D01*
X93265139Y-133614374D01*
X93265149Y-133614385D01*
X93269479Y-133618715D01*
X93269480Y-133618716D01*
X93381284Y-133730520D01*
X93381286Y-133730521D01*
X93381290Y-133730524D01*
X93518209Y-133809573D01*
X93518216Y-133809577D01*
X93619224Y-133836642D01*
X93619223Y-133836642D01*
X93630152Y-133839570D01*
X93670942Y-133850500D01*
X93670943Y-133850500D01*
X94830923Y-133850500D01*
X94897962Y-133870185D01*
X94943717Y-133922989D01*
X94953661Y-133992147D01*
X94924636Y-134055703D01*
X94918604Y-134062181D01*
X94830751Y-134150033D01*
X94830748Y-134150037D01*
X94721314Y-134313815D01*
X94721307Y-134313828D01*
X94645930Y-134495806D01*
X94645927Y-134495818D01*
X94607500Y-134689004D01*
X94607500Y-134937500D01*
X95307500Y-134937500D01*
X95307500Y-135437500D01*
X94607500Y-135437500D01*
X94607500Y-135685995D01*
X94645927Y-135879181D01*
X94645930Y-135879193D01*
X94721307Y-136061171D01*
X94721314Y-136061184D01*
X94830748Y-136224962D01*
X94830751Y-136224966D01*
X94970033Y-136364248D01*
X94970037Y-136364251D01*
X95133815Y-136473685D01*
X95133828Y-136473692D01*
X95315808Y-136549069D01*
X95357500Y-136557362D01*
X95357500Y-135754488D01*
X95367440Y-135771705D01*
X95423295Y-135827560D01*
X95491704Y-135867056D01*
X95568004Y-135887500D01*
X95646996Y-135887500D01*
X95723296Y-135867056D01*
X95791705Y-135827560D01*
X95847560Y-135771705D01*
X95857500Y-135754488D01*
X95857500Y-136557362D01*
X95899190Y-136549069D01*
X95899192Y-136549069D01*
X96081171Y-136473692D01*
X96081184Y-136473685D01*
X96244962Y-136364251D01*
X96244966Y-136364248D01*
X96384248Y-136224966D01*
X96384251Y-136224962D01*
X96493685Y-136061184D01*
X96493692Y-136061171D01*
X96569069Y-135879193D01*
X96569072Y-135879181D01*
X96607499Y-135685995D01*
X96607500Y-135685992D01*
X96607500Y-135437500D01*
X95907500Y-135437500D01*
X95907500Y-134937500D01*
X96607500Y-134937500D01*
X96607500Y-134689008D01*
X96607499Y-134689004D01*
X96569072Y-134495818D01*
X96569069Y-134495806D01*
X96493692Y-134313828D01*
X96493685Y-134313815D01*
X96384251Y-134150037D01*
X96384248Y-134150033D01*
X96296396Y-134062181D01*
X96262911Y-134000858D01*
X96267895Y-133931166D01*
X96309767Y-133875233D01*
X96375231Y-133850816D01*
X96384077Y-133850500D01*
X97163331Y-133850500D01*
X97163347Y-133850501D01*
X97170943Y-133850501D01*
X97329054Y-133850501D01*
X97329057Y-133850501D01*
X97481785Y-133809577D01*
X97531904Y-133780639D01*
X97618716Y-133730520D01*
X97730520Y-133618716D01*
X97730520Y-133618714D01*
X97740728Y-133608507D01*
X97740730Y-133608504D01*
X98546213Y-132803021D01*
X98546216Y-132803020D01*
X98658020Y-132691216D01*
X98658022Y-132691211D01*
X98660400Y-132688834D01*
X98688562Y-132673457D01*
X98721722Y-132655350D01*
X98721724Y-132655350D01*
X98731026Y-132656015D01*
X98791414Y-132660334D01*
X98816972Y-132673414D01*
X98870814Y-132709390D01*
X98870827Y-132709397D01*
X99016498Y-132769735D01*
X99016503Y-132769737D01*
X99171153Y-132800499D01*
X99171156Y-132800500D01*
X99171158Y-132800500D01*
X99328844Y-132800500D01*
X99328845Y-132800499D01*
X99483497Y-132769737D01*
X99596166Y-132723067D01*
X99629172Y-132709397D01*
X99629172Y-132709396D01*
X99629179Y-132709394D01*
X99760289Y-132621789D01*
X99871789Y-132510289D01*
X99959394Y-132379179D01*
X99979952Y-132329548D01*
X99992494Y-132313982D01*
X100000800Y-132295797D01*
X100013969Y-132287333D01*
X100023792Y-132275144D01*
X100042761Y-132268830D01*
X100059578Y-132258023D01*
X100087137Y-132254060D01*
X100090086Y-132253079D01*
X100094513Y-132253000D01*
X100332650Y-132253000D01*
X100399689Y-132272685D01*
X100445444Y-132325489D01*
X100454267Y-132352809D01*
X100480261Y-132483489D01*
X100480264Y-132483501D01*
X100540602Y-132629172D01*
X100540609Y-132629185D01*
X100628210Y-132760288D01*
X100628213Y-132760292D01*
X100739707Y-132871786D01*
X100739711Y-132871789D01*
X100870814Y-132959390D01*
X100870827Y-132959397D01*
X101016498Y-133019735D01*
X101016503Y-133019737D01*
X101171153Y-133050499D01*
X101171156Y-133050500D01*
X101171158Y-133050500D01*
X101328844Y-133050500D01*
X101328845Y-133050499D01*
X101483497Y-133019737D01*
X101629179Y-132959394D01*
X101760289Y-132871789D01*
X101821419Y-132810658D01*
X101882740Y-132777175D01*
X101952432Y-132782159D01*
X101996780Y-132810660D01*
X102789485Y-133603365D01*
X102896635Y-133710515D01*
X103027865Y-133786281D01*
X103174234Y-133825500D01*
X103495923Y-133825500D01*
X103562962Y-133845185D01*
X103608717Y-133897989D01*
X103618661Y-133967147D01*
X103589636Y-134030703D01*
X103583604Y-134037181D01*
X103470751Y-134150033D01*
X103470748Y-134150037D01*
X103361314Y-134313815D01*
X103361307Y-134313828D01*
X103285930Y-134495806D01*
X103285927Y-134495818D01*
X103247500Y-134689004D01*
X103247500Y-134937500D01*
X103947500Y-134937500D01*
X103947500Y-135437500D01*
X103247500Y-135437500D01*
X103247500Y-135685995D01*
X103285927Y-135879181D01*
X103285930Y-135879193D01*
X103361307Y-136061171D01*
X103361314Y-136061184D01*
X103470748Y-136224962D01*
X103470751Y-136224966D01*
X103610033Y-136364248D01*
X103610037Y-136364251D01*
X103773815Y-136473685D01*
X103773828Y-136473692D01*
X103955808Y-136549069D01*
X103997500Y-136557362D01*
X103997500Y-135754488D01*
X104007440Y-135771705D01*
X104063295Y-135827560D01*
X104131704Y-135867056D01*
X104208004Y-135887500D01*
X104286996Y-135887500D01*
X104363296Y-135867056D01*
X104431705Y-135827560D01*
X104487560Y-135771705D01*
X104497500Y-135754488D01*
X104497500Y-136557362D01*
X104539190Y-136549069D01*
X104539192Y-136549069D01*
X104721171Y-136473692D01*
X104721184Y-136473685D01*
X104884962Y-136364251D01*
X104884966Y-136364248D01*
X105024248Y-136224966D01*
X105024251Y-136224962D01*
X105133685Y-136061184D01*
X105133692Y-136061171D01*
X105209069Y-135879193D01*
X105209072Y-135879181D01*
X105247499Y-135685995D01*
X105247500Y-135685992D01*
X105247500Y-135437500D01*
X104547500Y-135437500D01*
X104547500Y-134937500D01*
X105247500Y-134937500D01*
X105247500Y-134689008D01*
X105247499Y-134689004D01*
X105209072Y-134495818D01*
X105209069Y-134495806D01*
X105133692Y-134313828D01*
X105133685Y-134313815D01*
X105024251Y-134150037D01*
X105024248Y-134150033D01*
X104936396Y-134062181D01*
X104902911Y-134000858D01*
X104907895Y-133931166D01*
X104949767Y-133875233D01*
X105015231Y-133850816D01*
X105024077Y-133850500D01*
X105913331Y-133850500D01*
X105913347Y-133850501D01*
X105920943Y-133850501D01*
X106079054Y-133850501D01*
X106079057Y-133850501D01*
X106231785Y-133809577D01*
X106281904Y-133780639D01*
X106368716Y-133730520D01*
X106480520Y-133618716D01*
X106480520Y-133618714D01*
X106490728Y-133608507D01*
X106490730Y-133608504D01*
X106608506Y-133490728D01*
X106608511Y-133490724D01*
X106618714Y-133480520D01*
X106618716Y-133480520D01*
X106730520Y-133368716D01*
X106809577Y-133231784D01*
X106846952Y-133092299D01*
X106850500Y-133079058D01*
X106850500Y-132920943D01*
X106850500Y-132716715D01*
X106870185Y-132649676D01*
X106910349Y-132610598D01*
X106960185Y-132580472D01*
X107080472Y-132460185D01*
X107168478Y-132314606D01*
X107219086Y-132152196D01*
X107225500Y-132081616D01*
X107225500Y-131568384D01*
X107219086Y-131497804D01*
X107168478Y-131335394D01*
X107080472Y-131189815D01*
X107080470Y-131189813D01*
X107080469Y-131189811D01*
X106977984Y-131087326D01*
X106944499Y-131026003D01*
X106949483Y-130956311D01*
X106977985Y-130911963D01*
X107080071Y-130809878D01*
X107080072Y-130809877D01*
X107168019Y-130664395D01*
X107218590Y-130502106D01*
X107225000Y-130431572D01*
X107225000Y-130425000D01*
X106374000Y-130425000D01*
X106306961Y-130405315D01*
X106261206Y-130352511D01*
X106250000Y-130301000D01*
X106250000Y-130049000D01*
X106269685Y-129981961D01*
X106322489Y-129936206D01*
X106374000Y-129925000D01*
X107224999Y-129925000D01*
X107224999Y-129918417D01*
X107218591Y-129847897D01*
X107218590Y-129847892D01*
X107168018Y-129685603D01*
X107080072Y-129540122D01*
X106959878Y-129419928D01*
X106959872Y-129419923D01*
X106956808Y-129418071D01*
X106955032Y-129416132D01*
X106953974Y-129415303D01*
X106954111Y-129415126D01*
X106909622Y-129366542D01*
X106897786Y-129297682D01*
X106925058Y-129233354D01*
X106982778Y-129193982D01*
X106983840Y-129193645D01*
X107064606Y-129168478D01*
X107210185Y-129080472D01*
X107210189Y-129080467D01*
X107210192Y-129080466D01*
X107214765Y-129076885D01*
X107279678Y-129051039D01*
X107291232Y-129050500D01*
X108841691Y-129050500D01*
X108908730Y-129070185D01*
X108929372Y-129086819D01*
X108948129Y-129105576D01*
X108948133Y-129105579D01*
X108948135Y-129105581D01*
X109089602Y-129189244D01*
X109105910Y-129193982D01*
X109247426Y-129235097D01*
X109247429Y-129235097D01*
X109247431Y-129235098D01*
X109284306Y-129238000D01*
X109284314Y-129238000D01*
X109715686Y-129238000D01*
X109715694Y-129238000D01*
X109752569Y-129235098D01*
X109752571Y-129235097D01*
X109752573Y-129235097D01*
X109807682Y-129219086D01*
X109910398Y-129189244D01*
X110051865Y-129105581D01*
X110168081Y-128989365D01*
X110251744Y-128847898D01*
X110297598Y-128690069D01*
X110300500Y-128653194D01*
X110300500Y-127487000D01*
X110320185Y-127419961D01*
X110372989Y-127374206D01*
X110424500Y-127363000D01*
X110665686Y-127363000D01*
X110665694Y-127363000D01*
X110702569Y-127360098D01*
X110702571Y-127360097D01*
X110702573Y-127360097D01*
X110800927Y-127331522D01*
X110860398Y-127314244D01*
X111001865Y-127230581D01*
X111118081Y-127114365D01*
X111193771Y-126986378D01*
X111202071Y-126978628D01*
X111206790Y-126968297D01*
X111227151Y-126955211D01*
X111244840Y-126938696D01*
X111257532Y-126935686D01*
X111265568Y-126930523D01*
X111300503Y-126925500D01*
X111462826Y-126925500D01*
X111529865Y-126945185D01*
X111575620Y-126997989D01*
X111585564Y-127067147D01*
X111581212Y-127086388D01*
X111530914Y-127247804D01*
X111530715Y-127250000D01*
X111524500Y-127318386D01*
X111524500Y-127831613D01*
X111530913Y-127902192D01*
X111530913Y-127902194D01*
X111530914Y-127902196D01*
X111581522Y-128064606D01*
X111619722Y-128127797D01*
X111669530Y-128210188D01*
X111743605Y-128284263D01*
X111777090Y-128345586D01*
X111772106Y-128415278D01*
X111770485Y-128419396D01*
X111730264Y-128516498D01*
X111730261Y-128516510D01*
X111699500Y-128671153D01*
X111699500Y-128828846D01*
X111730261Y-128983489D01*
X111730264Y-128983501D01*
X111790602Y-129129172D01*
X111790609Y-129129185D01*
X111878210Y-129260288D01*
X111878213Y-129260292D01*
X111989707Y-129371786D01*
X111989711Y-129371789D01*
X112120814Y-129459390D01*
X112120827Y-129459397D01*
X112266498Y-129519735D01*
X112266503Y-129519737D01*
X112368985Y-129540122D01*
X112421153Y-129550499D01*
X112421156Y-129550500D01*
X112427261Y-129550500D01*
X112494300Y-129570185D01*
X112540055Y-129622989D01*
X112549999Y-129692147D01*
X112520974Y-129755703D01*
X112516055Y-129761054D01*
X112104709Y-130183047D01*
X112100470Y-130187192D01*
X111499418Y-130747529D01*
X111494986Y-130751468D01*
X110867800Y-131282462D01*
X110863184Y-131286184D01*
X110211352Y-131786573D01*
X110206564Y-131790070D01*
X109531548Y-132258733D01*
X109526598Y-132261997D01*
X108829962Y-132697849D01*
X108824862Y-132700873D01*
X108110396Y-133101686D01*
X108107934Y-133103030D01*
X108106603Y-133103737D01*
X108056545Y-133128865D01*
X108052395Y-133132554D01*
X108047431Y-133135194D01*
X108047365Y-133135241D01*
X108004196Y-133175387D01*
X108002169Y-133177231D01*
X107958075Y-133216455D01*
X107954431Y-133220668D01*
X107954420Y-133220684D01*
X107950863Y-133224987D01*
X107919557Y-133274935D01*
X107918077Y-133277239D01*
X107885635Y-133326543D01*
X107883206Y-133331555D01*
X107883201Y-133331569D01*
X107880880Y-133336644D01*
X107863557Y-133393029D01*
X107862722Y-133395641D01*
X106496847Y-137514530D01*
X106457062Y-137571966D01*
X106392540Y-137598775D01*
X106379150Y-137599500D01*
X93620455Y-137599500D01*
X93553416Y-137579815D01*
X93507661Y-137527011D01*
X93502790Y-137514628D01*
X92131683Y-133391422D01*
X92114092Y-133334097D01*
X92110954Y-133329086D01*
X92109083Y-133323460D01*
X92086941Y-133289873D01*
X92076777Y-133274453D01*
X92075975Y-133273236D01*
X92044142Y-133222410D01*
X92039812Y-133218380D01*
X92036550Y-133213432D01*
X92036547Y-133213429D01*
X91992696Y-133174488D01*
X91992694Y-133174487D01*
X91991601Y-133173516D01*
X91947669Y-133132633D01*
X91942441Y-133129860D01*
X91941321Y-133128865D01*
X91938016Y-133125930D01*
X91938009Y-133125925D01*
X91889567Y-133101661D01*
X91884397Y-133098917D01*
X91849017Y-133079054D01*
X91693189Y-132991568D01*
X91170323Y-132698018D01*
X91165224Y-132694993D01*
X90468715Y-132258907D01*
X90463766Y-132255641D01*
X89788901Y-131786759D01*
X89784114Y-131783260D01*
X89132458Y-131282670D01*
X89127843Y-131278947D01*
X88500829Y-130747750D01*
X88496398Y-130743810D01*
X88483326Y-130731616D01*
X87895503Y-130183256D01*
X87891268Y-130179111D01*
X87831776Y-130118039D01*
X87637327Y-129918427D01*
X92525000Y-129918427D01*
X92525000Y-129925000D01*
X93250000Y-129925000D01*
X93250000Y-129275000D01*
X93249999Y-129274999D01*
X93168417Y-129275000D01*
X93097897Y-129281408D01*
X93097892Y-129281409D01*
X92935603Y-129331981D01*
X92790122Y-129419927D01*
X92669927Y-129540122D01*
X92581980Y-129685604D01*
X92531409Y-129847893D01*
X92525000Y-129918427D01*
X87637327Y-129918427D01*
X87317870Y-129590488D01*
X87313835Y-129586143D01*
X87233994Y-129495929D01*
X86769208Y-128970756D01*
X86765393Y-128966231D01*
X86760537Y-128960185D01*
X86250829Y-128325540D01*
X86247233Y-128320838D01*
X86242630Y-128314510D01*
X86032052Y-128024986D01*
X91050001Y-128024986D01*
X91060494Y-128127697D01*
X91115641Y-128294119D01*
X91115643Y-128294124D01*
X91207684Y-128443345D01*
X91331654Y-128567315D01*
X91480875Y-128659356D01*
X91480880Y-128659358D01*
X91647302Y-128714505D01*
X91647309Y-128714506D01*
X91750019Y-128724999D01*
X91799999Y-128724998D01*
X91800000Y-128724998D01*
X91800000Y-127750000D01*
X91050001Y-127750000D01*
X91050001Y-128024986D01*
X86032052Y-128024986D01*
X86012900Y-127998654D01*
X85847739Y-127771575D01*
X85847739Y-127771574D01*
X85763867Y-127656259D01*
X85760494Y-127651382D01*
X85626359Y-127447099D01*
X85318756Y-126978628D01*
X85316382Y-126975013D01*
X91050000Y-126975013D01*
X91050000Y-127250000D01*
X91800000Y-127250000D01*
X91800000Y-126275000D01*
X91799999Y-126274999D01*
X91750029Y-126275000D01*
X91750011Y-126275001D01*
X91647302Y-126285494D01*
X91480880Y-126340641D01*
X91480875Y-126340643D01*
X91331654Y-126432684D01*
X91207684Y-126556654D01*
X91115643Y-126705875D01*
X91115641Y-126705880D01*
X91060494Y-126872302D01*
X91060493Y-126872309D01*
X91050000Y-126975013D01*
X85316382Y-126975013D01*
X85309456Y-126964464D01*
X85306321Y-126959432D01*
X85303830Y-126955211D01*
X84888619Y-126251713D01*
X84885749Y-126246571D01*
X84502371Y-125519722D01*
X84499738Y-125514429D01*
X84151528Y-124770048D01*
X84149162Y-124764657D01*
X83836933Y-124004480D01*
X83834830Y-123998991D01*
X83629962Y-123423322D01*
X91900001Y-123423322D01*
X91910144Y-123522607D01*
X91963452Y-123683481D01*
X91963457Y-123683492D01*
X92052424Y-123827728D01*
X92052427Y-123827732D01*
X92172267Y-123947572D01*
X92172271Y-123947575D01*
X92316507Y-124036542D01*
X92316518Y-124036547D01*
X92477393Y-124089855D01*
X92576683Y-124099999D01*
X92749999Y-124099999D01*
X93250000Y-124099999D01*
X93423308Y-124099999D01*
X93423322Y-124099998D01*
X93522607Y-124089855D01*
X93683481Y-124036547D01*
X93683492Y-124036542D01*
X93827728Y-123947575D01*
X93827732Y-123947572D01*
X93947572Y-123827732D01*
X93947575Y-123827728D01*
X94036542Y-123683492D01*
X94036547Y-123683481D01*
X94089855Y-123522606D01*
X94099999Y-123423322D01*
X94100000Y-123423309D01*
X94100000Y-123400000D01*
X93250000Y-123400000D01*
X93250000Y-124099999D01*
X92749999Y-124099999D01*
X92750000Y-124099998D01*
X92750000Y-123400000D01*
X91900001Y-123400000D01*
X91900001Y-123423322D01*
X83629962Y-123423322D01*
X83559303Y-123224775D01*
X83557450Y-123219145D01*
X83553671Y-123206666D01*
X83319246Y-122432640D01*
X83317674Y-122426959D01*
X83117344Y-121629978D01*
X83116040Y-121624213D01*
X83104466Y-121566657D01*
X82954033Y-120818547D01*
X82953007Y-120812722D01*
X82949611Y-120790348D01*
X82832219Y-120016840D01*
X82829705Y-120000272D01*
X82828956Y-119994390D01*
X82813055Y-119840246D01*
X82744631Y-119176957D01*
X82744168Y-119171119D01*
X82699012Y-118350518D01*
X82698829Y-118344655D01*
X82692953Y-117522872D01*
X82693053Y-117516949D01*
X82695301Y-117461705D01*
X82726464Y-116695862D01*
X82726841Y-116690019D01*
X82799470Y-115871421D01*
X82800135Y-115865534D01*
X82805138Y-115829058D01*
X82911808Y-115051366D01*
X82912743Y-115045584D01*
X83063217Y-114237641D01*
X83064429Y-114231904D01*
X83253342Y-113432127D01*
X83254837Y-113426412D01*
X83256347Y-113421158D01*
X83481778Y-112636538D01*
X83483529Y-112630951D01*
X83672806Y-112074000D01*
X85444500Y-112074000D01*
X85444500Y-115376000D01*
X85444501Y-115376009D01*
X85456052Y-115483450D01*
X85456054Y-115483462D01*
X85467260Y-115534972D01*
X85501383Y-115637497D01*
X85501386Y-115637503D01*
X85579171Y-115758537D01*
X85579179Y-115758548D01*
X85624923Y-115811340D01*
X85624926Y-115811343D01*
X85624930Y-115811347D01*
X85733664Y-115905567D01*
X85733667Y-115905568D01*
X85733668Y-115905569D01*
X85810881Y-115940832D01*
X85864541Y-115965338D01*
X85931580Y-115985023D01*
X85931584Y-115985024D01*
X86074000Y-116005500D01*
X86786291Y-116005500D01*
X86853330Y-116025185D01*
X86899085Y-116077989D01*
X86909029Y-116147147D01*
X86896775Y-116185796D01*
X86873444Y-116231583D01*
X86807753Y-116433760D01*
X86774500Y-116643713D01*
X86774500Y-116856286D01*
X86806366Y-117057483D01*
X86807754Y-117066243D01*
X86862098Y-117233497D01*
X86873444Y-117268414D01*
X86969951Y-117457820D01*
X87094890Y-117629786D01*
X87245209Y-117780105D01*
X87245214Y-117780109D01*
X87409793Y-117899682D01*
X87452459Y-117955011D01*
X87458438Y-118024625D01*
X87425833Y-118086420D01*
X87409793Y-118100318D01*
X87245214Y-118219890D01*
X87245209Y-118219894D01*
X87094890Y-118370213D01*
X86969951Y-118542179D01*
X86873444Y-118731585D01*
X86807753Y-118933760D01*
X86784774Y-119078844D01*
X86774500Y-119143713D01*
X86774500Y-119356287D01*
X86777789Y-119377051D01*
X86798891Y-119510289D01*
X86807754Y-119566243D01*
X86864117Y-119739711D01*
X86873444Y-119768414D01*
X86969951Y-119957820D01*
X87094890Y-120129786D01*
X87234068Y-120268964D01*
X87267553Y-120330287D01*
X87262569Y-120399979D01*
X87220697Y-120455912D01*
X87211484Y-120462183D01*
X87056659Y-120557680D01*
X87056655Y-120557683D01*
X86932684Y-120681654D01*
X86840643Y-120830875D01*
X86840641Y-120830880D01*
X86785494Y-120997302D01*
X86785493Y-120997309D01*
X86775000Y-121100013D01*
X86775000Y-121500000D01*
X87845854Y-121500000D01*
X87807370Y-121566657D01*
X87775000Y-121687465D01*
X87775000Y-121812535D01*
X87807370Y-121933343D01*
X87845854Y-122000000D01*
X86775001Y-122000000D01*
X86775001Y-122399986D01*
X86785494Y-122502697D01*
X86840641Y-122669119D01*
X86840643Y-122669124D01*
X86932684Y-122818345D01*
X87056654Y-122942315D01*
X87205875Y-123034356D01*
X87205880Y-123034358D01*
X87372302Y-123089505D01*
X87372309Y-123089506D01*
X87475019Y-123099999D01*
X87999999Y-123099999D01*
X88000000Y-123099998D01*
X88000000Y-122154145D01*
X88066657Y-122192630D01*
X88187465Y-122225000D01*
X88312535Y-122225000D01*
X88433343Y-122192630D01*
X88500000Y-122154145D01*
X88500000Y-123099999D01*
X89024972Y-123099999D01*
X89024986Y-123099998D01*
X89127697Y-123089505D01*
X89294119Y-123034358D01*
X89294124Y-123034356D01*
X89443345Y-122942315D01*
X89508983Y-122876677D01*
X91900000Y-122876677D01*
X91900000Y-122900000D01*
X92750000Y-122900000D01*
X93250000Y-122900000D01*
X94099999Y-122900000D01*
X94099999Y-122876692D01*
X94099998Y-122876677D01*
X94089855Y-122777392D01*
X94036547Y-122616518D01*
X94036542Y-122616507D01*
X93947575Y-122472271D01*
X93947572Y-122472267D01*
X93827732Y-122352427D01*
X93827728Y-122352424D01*
X93683492Y-122263457D01*
X93683481Y-122263452D01*
X93522606Y-122210144D01*
X93423322Y-122200000D01*
X93250000Y-122200000D01*
X93250000Y-122900000D01*
X92750000Y-122900000D01*
X92750000Y-122200000D01*
X92576693Y-122200000D01*
X92576676Y-122200001D01*
X92477392Y-122210144D01*
X92316518Y-122263452D01*
X92316507Y-122263457D01*
X92172271Y-122352424D01*
X92172267Y-122352427D01*
X92052427Y-122472267D01*
X92052424Y-122472271D01*
X91963457Y-122616507D01*
X91963452Y-122616518D01*
X91910144Y-122777393D01*
X91900000Y-122876677D01*
X89508983Y-122876677D01*
X89567316Y-122818344D01*
X89567319Y-122818340D01*
X89573429Y-122808434D01*
X89573431Y-122808431D01*
X89659356Y-122669124D01*
X89659358Y-122669119D01*
X89714505Y-122502697D01*
X89714506Y-122502690D01*
X89724999Y-122399986D01*
X89725000Y-122399973D01*
X89725000Y-122000000D01*
X88654146Y-122000000D01*
X88692630Y-121933343D01*
X88725000Y-121812535D01*
X88725000Y-121687465D01*
X88692630Y-121566657D01*
X88654146Y-121500000D01*
X89724999Y-121500000D01*
X89724999Y-121100028D01*
X89724998Y-121100013D01*
X89714505Y-120997302D01*
X89659358Y-120830880D01*
X89659356Y-120830875D01*
X89567315Y-120681654D01*
X89443345Y-120557684D01*
X89288515Y-120462184D01*
X89241791Y-120410236D01*
X89230568Y-120341273D01*
X89258412Y-120277191D01*
X89265909Y-120268986D01*
X89405104Y-120129792D01*
X89530051Y-119957816D01*
X89626557Y-119768412D01*
X89692246Y-119566243D01*
X89715913Y-119416811D01*
X89745842Y-119353677D01*
X89750686Y-119348547D01*
X90112416Y-118986819D01*
X90173739Y-118953334D01*
X90200097Y-118950500D01*
X91525499Y-118950500D01*
X91592538Y-118970185D01*
X91638293Y-119022989D01*
X91649499Y-119074500D01*
X91649499Y-119179054D01*
X91649498Y-119179054D01*
X91687314Y-119320185D01*
X91690423Y-119331785D01*
X91707521Y-119361399D01*
X91746583Y-119429057D01*
X91769479Y-119468714D01*
X91769481Y-119468717D01*
X91863181Y-119562417D01*
X91896666Y-119623740D01*
X91899500Y-119650098D01*
X91899500Y-120123337D01*
X91899501Y-120123355D01*
X91909650Y-120222707D01*
X91909651Y-120222710D01*
X91962996Y-120383694D01*
X91963001Y-120383705D01*
X92052029Y-120528040D01*
X92052032Y-120528044D01*
X92171955Y-120647967D01*
X92171959Y-120647970D01*
X92316294Y-120736998D01*
X92316297Y-120736999D01*
X92316303Y-120737003D01*
X92477292Y-120790349D01*
X92576655Y-120800500D01*
X93423344Y-120800499D01*
X93423352Y-120800498D01*
X93423355Y-120800498D01*
X93477760Y-120794940D01*
X93522708Y-120790349D01*
X93683697Y-120737003D01*
X93828044Y-120647968D01*
X93947968Y-120528044D01*
X94037003Y-120383697D01*
X94090349Y-120222708D01*
X94100500Y-120123345D01*
X94100499Y-119576656D01*
X94099435Y-119566243D01*
X94091900Y-119492475D01*
X94091371Y-119474587D01*
X94091952Y-119460955D01*
X94100501Y-119429057D01*
X94100501Y-119270942D01*
X94100500Y-119270938D01*
X94100500Y-115839060D01*
X94100501Y-115839047D01*
X94100501Y-115670944D01*
X94097125Y-115658345D01*
X94076556Y-115581582D01*
X102275001Y-115581582D01*
X102281408Y-115652102D01*
X102281409Y-115652107D01*
X102331981Y-115814396D01*
X102419927Y-115959877D01*
X102540122Y-116080072D01*
X102685604Y-116168019D01*
X102685603Y-116168019D01*
X102847894Y-116218590D01*
X102847892Y-116218590D01*
X102918418Y-116224999D01*
X102999999Y-116224998D01*
X103000000Y-116224998D01*
X103000000Y-115575000D01*
X102275001Y-115575000D01*
X102275001Y-115581582D01*
X94076556Y-115581582D01*
X94059577Y-115518216D01*
X94039512Y-115483462D01*
X93980524Y-115381290D01*
X93980518Y-115381282D01*
X93136819Y-114537583D01*
X93103334Y-114476260D01*
X93100500Y-114449902D01*
X93100500Y-114447844D01*
X95500000Y-114447844D01*
X95506401Y-114507372D01*
X95506403Y-114507379D01*
X95556645Y-114642086D01*
X95556649Y-114642093D01*
X95642809Y-114757187D01*
X95642812Y-114757190D01*
X95757906Y-114843350D01*
X95757913Y-114843354D01*
X95892620Y-114893596D01*
X95892627Y-114893598D01*
X95952155Y-114899999D01*
X95952172Y-114900000D01*
X96425000Y-114900000D01*
X96925000Y-114900000D01*
X97397828Y-114900000D01*
X97397844Y-114899999D01*
X97457372Y-114893598D01*
X97457379Y-114893596D01*
X97592086Y-114843354D01*
X97592093Y-114843350D01*
X97707187Y-114757190D01*
X97707190Y-114757187D01*
X97793350Y-114642093D01*
X97793354Y-114642086D01*
X97843596Y-114507379D01*
X97843598Y-114507372D01*
X97849999Y-114447844D01*
X97850000Y-114447827D01*
X97850000Y-113750000D01*
X96925000Y-113750000D01*
X96925000Y-114900000D01*
X96425000Y-114900000D01*
X96425000Y-113750000D01*
X95500000Y-113750000D01*
X95500000Y-114447844D01*
X93100500Y-114447844D01*
X93100500Y-112552155D01*
X95500000Y-112552155D01*
X95500000Y-113250000D01*
X96425000Y-113250000D01*
X96425000Y-112101166D01*
X96925000Y-112101166D01*
X96925000Y-113250000D01*
X97850000Y-113250000D01*
X97850000Y-112552172D01*
X97849999Y-112552155D01*
X97843598Y-112492627D01*
X97843596Y-112492620D01*
X97793354Y-112357913D01*
X97793350Y-112357906D01*
X97707190Y-112242812D01*
X97707187Y-112242809D01*
X97592093Y-112156649D01*
X97592086Y-112156645D01*
X97512965Y-112127135D01*
X97457031Y-112085264D01*
X97432614Y-112019799D01*
X97447466Y-111951526D01*
X97496871Y-111902121D01*
X97517295Y-111893247D01*
X97544117Y-111884359D01*
X97544124Y-111884356D01*
X97693345Y-111792315D01*
X97787319Y-111698342D01*
X97848642Y-111664857D01*
X97918334Y-111669841D01*
X97962681Y-111698342D01*
X98081654Y-111817315D01*
X98230875Y-111909356D01*
X98230880Y-111909358D01*
X98397302Y-111964505D01*
X98397309Y-111964506D01*
X98500019Y-111974999D01*
X98549999Y-111974998D01*
X98550000Y-111974998D01*
X98550000Y-111000000D01*
X98105000Y-111000000D01*
X98105000Y-111076000D01*
X98085315Y-111143039D01*
X98032511Y-111188794D01*
X97981000Y-111200000D01*
X97000000Y-111200000D01*
X97000000Y-111976000D01*
X96991089Y-112006346D01*
X96983868Y-112037160D01*
X96980924Y-112040963D01*
X96980315Y-112043039D01*
X96977289Y-112045660D01*
X96962267Y-112065073D01*
X96925000Y-112101166D01*
X96425000Y-112101166D01*
X96425000Y-112073999D01*
X96444685Y-112006960D01*
X96465305Y-111982505D01*
X96490998Y-111959001D01*
X96500000Y-111949999D01*
X96500000Y-111200000D01*
X95525001Y-111200000D01*
X95525001Y-111249986D01*
X95535494Y-111352697D01*
X95590641Y-111519119D01*
X95590643Y-111519124D01*
X95682684Y-111668345D01*
X95806654Y-111792315D01*
X95944818Y-111877535D01*
X95991542Y-111929483D01*
X96002765Y-111998445D01*
X95974921Y-112062528D01*
X95916853Y-112101384D01*
X95892992Y-112106362D01*
X95892629Y-112106401D01*
X95892620Y-112106403D01*
X95757913Y-112156645D01*
X95757906Y-112156649D01*
X95642812Y-112242809D01*
X95642809Y-112242812D01*
X95556649Y-112357906D01*
X95556645Y-112357913D01*
X95506403Y-112492620D01*
X95506401Y-112492627D01*
X95500000Y-112552155D01*
X93100500Y-112552155D01*
X93100500Y-110420945D01*
X93100500Y-110420943D01*
X93075185Y-110326465D01*
X93059577Y-110268215D01*
X93025616Y-110209394D01*
X92980520Y-110131284D01*
X92889034Y-110039798D01*
X92884642Y-110034274D01*
X92874032Y-110008178D01*
X92860535Y-109983459D01*
X92861050Y-109976248D01*
X92858327Y-109969550D01*
X92863509Y-109941863D01*
X92865519Y-109913768D01*
X92869852Y-109907978D01*
X92871183Y-109900873D01*
X92890508Y-109880386D01*
X92907391Y-109857834D01*
X92914165Y-109855307D01*
X92919127Y-109850048D01*
X92946464Y-109843261D01*
X92972856Y-109833418D01*
X92979921Y-109834954D01*
X92986938Y-109833213D01*
X93013602Y-109842282D01*
X93041128Y-109848270D01*
X93041438Y-109848440D01*
X93121966Y-109892711D01*
X93128284Y-109896184D01*
X93287475Y-109937057D01*
X93287479Y-109937057D01*
X93451825Y-109937057D01*
X93451829Y-109937057D01*
X93611020Y-109896184D01*
X93707287Y-109843261D01*
X93755043Y-109817007D01*
X93755044Y-109817006D01*
X93755046Y-109817005D01*
X93783172Y-109792983D01*
X95042804Y-108533351D01*
X95066826Y-108505225D01*
X95069699Y-108500000D01*
X95146003Y-108361202D01*
X95146005Y-108361199D01*
X95186878Y-108202008D01*
X95186878Y-108037654D01*
X95146005Y-107878463D01*
X95142564Y-107872203D01*
X95066828Y-107734439D01*
X95042809Y-107706317D01*
X95042804Y-107706311D01*
X94737766Y-107401273D01*
X94737759Y-107401267D01*
X94709637Y-107377248D01*
X94565617Y-107298073D01*
X94565607Y-107298070D01*
X94406426Y-107257199D01*
X94398679Y-107256221D01*
X94399066Y-107253150D01*
X94345814Y-107237514D01*
X94300059Y-107184710D01*
X94291879Y-107147113D01*
X94289831Y-107147372D01*
X94288852Y-107139624D01*
X94270242Y-107067144D01*
X94247980Y-106980437D01*
X94225406Y-106939375D01*
X94168803Y-106836413D01*
X94144784Y-106808291D01*
X94144779Y-106808285D01*
X93839741Y-106503247D01*
X93839707Y-106503218D01*
X93811612Y-106479222D01*
X93667592Y-106400047D01*
X93667582Y-106400044D01*
X93508401Y-106359173D01*
X93500654Y-106358195D01*
X93501041Y-106355125D01*
X93447788Y-106339488D01*
X93402033Y-106286684D01*
X93393853Y-106249087D01*
X93391805Y-106249346D01*
X93390826Y-106241598D01*
X93373510Y-106174157D01*
X93349954Y-106082411D01*
X93345508Y-106074324D01*
X93270777Y-105938387D01*
X93246758Y-105910265D01*
X93246753Y-105910259D01*
X92941715Y-105605221D01*
X92941708Y-105605215D01*
X92913586Y-105581196D01*
X92769566Y-105502021D01*
X92769556Y-105502018D01*
X92610375Y-105461147D01*
X92602628Y-105460169D01*
X92603015Y-105457099D01*
X92549762Y-105441462D01*
X92504007Y-105388658D01*
X92495828Y-105351062D01*
X92493779Y-105351321D01*
X92492800Y-105343573D01*
X92468462Y-105248783D01*
X92451928Y-105184386D01*
X92435269Y-105154083D01*
X92372751Y-105040362D01*
X92348732Y-105012240D01*
X92348727Y-105012234D01*
X92043689Y-104707196D01*
X92043682Y-104707190D01*
X92015560Y-104683171D01*
X91871540Y-104603996D01*
X91871530Y-104603993D01*
X91712349Y-104563122D01*
X91712346Y-104563122D01*
X91547992Y-104563122D01*
X91547988Y-104563122D01*
X91388807Y-104603993D01*
X91388797Y-104603996D01*
X91244777Y-104683171D01*
X91216655Y-104707190D01*
X91216641Y-104707203D01*
X89957024Y-105966820D01*
X89957011Y-105966834D01*
X89932992Y-105994956D01*
X89853817Y-106138976D01*
X89853814Y-106138986D01*
X89812943Y-106298167D01*
X89812943Y-106462528D01*
X89853814Y-106621709D01*
X89853817Y-106621719D01*
X89932992Y-106765739D01*
X89949204Y-106784720D01*
X89957017Y-106793868D01*
X90262055Y-107098906D01*
X90262061Y-107098911D01*
X90290183Y-107122930D01*
X90434203Y-107202105D01*
X90434207Y-107202107D01*
X90515207Y-107222904D01*
X90575243Y-107258640D01*
X90606429Y-107321163D01*
X90598862Y-107390622D01*
X90572049Y-107430688D01*
X90281286Y-107721452D01*
X90169481Y-107833256D01*
X90169475Y-107833264D01*
X90120279Y-107918476D01*
X90120279Y-107918477D01*
X90090423Y-107970188D01*
X90090423Y-107970189D01*
X90049499Y-108122917D01*
X90049499Y-108122919D01*
X90049499Y-108291020D01*
X90049500Y-108291033D01*
X90049500Y-108684995D01*
X90029815Y-108752034D01*
X89990600Y-108790532D01*
X89971954Y-108802033D01*
X89852029Y-108921959D01*
X89763001Y-109066294D01*
X89762996Y-109066305D01*
X89709651Y-109227290D01*
X89699500Y-109326647D01*
X89699500Y-110173337D01*
X89699501Y-110173355D01*
X89709650Y-110272707D01*
X89709651Y-110272710D01*
X89762996Y-110433694D01*
X89763001Y-110433705D01*
X89852029Y-110578040D01*
X89852032Y-110578044D01*
X89971955Y-110697967D01*
X89971959Y-110697970D01*
X90116294Y-110786998D01*
X90116297Y-110786999D01*
X90116303Y-110787003D01*
X90277292Y-110840349D01*
X90376655Y-110850500D01*
X90849902Y-110850499D01*
X90916941Y-110870183D01*
X90937583Y-110886818D01*
X91263181Y-111212416D01*
X91296666Y-111273739D01*
X91299500Y-111300097D01*
X91299500Y-115591306D01*
X91279815Y-115658345D01*
X91274304Y-115666231D01*
X91265640Y-115677655D01*
X91265637Y-115677661D01*
X91210123Y-115818434D01*
X91208847Y-115829058D01*
X91199500Y-115906898D01*
X91199500Y-115906903D01*
X91199500Y-116149903D01*
X91179815Y-116216942D01*
X91163181Y-116237584D01*
X90287584Y-117113181D01*
X90226261Y-117146666D01*
X90199903Y-117149500D01*
X89824245Y-117149500D01*
X89757206Y-117129815D01*
X89711451Y-117077011D01*
X89701507Y-117007853D01*
X89701772Y-117006103D01*
X89725500Y-116856287D01*
X89725500Y-116643713D01*
X89692246Y-116433760D01*
X89692246Y-116433757D01*
X89626557Y-116231588D01*
X89626555Y-116231584D01*
X89626555Y-116231583D01*
X89603225Y-116185796D01*
X89590328Y-116117127D01*
X89616604Y-116052386D01*
X89673710Y-116012128D01*
X89713709Y-116005500D01*
X89816561Y-116005500D01*
X89826707Y-116004955D01*
X89870599Y-116002603D01*
X89870607Y-116002602D01*
X89870609Y-116002602D01*
X89870610Y-116002602D01*
X89877603Y-116001849D01*
X89896957Y-115999769D01*
X89896967Y-115999767D01*
X89896970Y-115999767D01*
X89906569Y-115998211D01*
X89950369Y-115991114D01*
X90085178Y-115940832D01*
X90146501Y-115907347D01*
X90146503Y-115907346D01*
X90261685Y-115821121D01*
X90308105Y-115774699D01*
X90313389Y-115770460D01*
X90315253Y-115769692D01*
X90322096Y-115764075D01*
X90363870Y-115736162D01*
X90378740Y-115727651D01*
X90384618Y-115724808D01*
X90409690Y-115710826D01*
X90459149Y-115679351D01*
X90550394Y-115591306D01*
X90562680Y-115579451D01*
X90562681Y-115579449D01*
X90562687Y-115579444D01*
X90605550Y-115524266D01*
X90676747Y-115399235D01*
X90709834Y-115259211D01*
X90716061Y-115189620D01*
X90713934Y-115149947D01*
X90723194Y-115095859D01*
X90769737Y-114983497D01*
X90800500Y-114828842D01*
X90800500Y-114758457D01*
X90810802Y-114708971D01*
X90815188Y-114698896D01*
X90833672Y-114631515D01*
X90834662Y-114623638D01*
X90851601Y-114488764D01*
X90851601Y-114488762D01*
X90828587Y-114346739D01*
X90824647Y-114334155D01*
X90807708Y-114280058D01*
X90807707Y-114280056D01*
X90807705Y-114280053D01*
X90807659Y-114279937D01*
X90807251Y-114279103D01*
X90792157Y-114247554D01*
X90780981Y-114178584D01*
X90782394Y-114169859D01*
X90800500Y-114078842D01*
X90800500Y-113921158D01*
X90782337Y-113829848D01*
X90788564Y-113760260D01*
X90790239Y-113756213D01*
X90815188Y-113698896D01*
X90815189Y-113698892D01*
X90815191Y-113698887D01*
X90824281Y-113665746D01*
X90833672Y-113631515D01*
X90840288Y-113578844D01*
X90851601Y-113488764D01*
X90851601Y-113488762D01*
X90828587Y-113346739D01*
X90806223Y-113275316D01*
X90807624Y-113274877D01*
X90800500Y-113238119D01*
X90800500Y-113171155D01*
X90800499Y-113171153D01*
X90769739Y-113016511D01*
X90769736Y-113016501D01*
X90762020Y-112997872D01*
X90743134Y-112952278D01*
X90735666Y-112882811D01*
X90743923Y-112855516D01*
X90748026Y-112846048D01*
X90750520Y-112842244D01*
X90752914Y-112838520D01*
X90757770Y-112830814D01*
X90815190Y-112698888D01*
X90819647Y-112682637D01*
X90825046Y-112666647D01*
X90825070Y-112666574D01*
X90826214Y-112660376D01*
X90828574Y-112650085D01*
X90832661Y-112635195D01*
X90832662Y-112635196D01*
X90833643Y-112631623D01*
X90833671Y-112631519D01*
X90837745Y-112599074D01*
X90838837Y-112592032D01*
X90851202Y-112525087D01*
X90849322Y-112506899D01*
X90851601Y-112488760D01*
X90840141Y-112418042D01*
X90836414Y-112381968D01*
X90835512Y-112378372D01*
X90831714Y-112363232D01*
X90831708Y-112363206D01*
X90830427Y-112358096D01*
X90828586Y-112346733D01*
X90823543Y-112330630D01*
X90819441Y-112314264D01*
X90819429Y-112314220D01*
X90764925Y-112181062D01*
X90763102Y-112177960D01*
X90747599Y-112153242D01*
X90736236Y-112136237D01*
X90735981Y-112135853D01*
X90731750Y-112129469D01*
X90715874Y-112097579D01*
X90711514Y-112090158D01*
X90699067Y-112070065D01*
X90692733Y-112060354D01*
X90679344Y-112040840D01*
X90664568Y-112025528D01*
X90657191Y-112016959D01*
X90657185Y-112016950D01*
X90599681Y-111950157D01*
X90599676Y-111950152D01*
X90564387Y-111925426D01*
X90559473Y-111921800D01*
X90542800Y-111908848D01*
X90542801Y-111908848D01*
X90540514Y-111907071D01*
X90528912Y-111896834D01*
X90510291Y-111878212D01*
X90510288Y-111878210D01*
X90379185Y-111790609D01*
X90379172Y-111790602D01*
X90233501Y-111730264D01*
X90233489Y-111730261D01*
X90078845Y-111699500D01*
X90078842Y-111699500D01*
X89921158Y-111699500D01*
X89921153Y-111699500D01*
X89870348Y-111709606D01*
X89862441Y-111708898D01*
X89855003Y-111711673D01*
X89828140Y-111705829D01*
X89800756Y-111703379D01*
X89792746Y-111698129D01*
X89786730Y-111696821D01*
X89758476Y-111675670D01*
X89741249Y-111658443D01*
X89733426Y-111649850D01*
X89728998Y-111644503D01*
X89728994Y-111644499D01*
X89728989Y-111644493D01*
X89692925Y-111609067D01*
X89611984Y-111544433D01*
X89481110Y-111484663D01*
X89414065Y-111464976D01*
X89351995Y-111456052D01*
X89271648Y-111444500D01*
X86074000Y-111444500D01*
X86073991Y-111444500D01*
X86073990Y-111444501D01*
X85966549Y-111456052D01*
X85966537Y-111456054D01*
X85915027Y-111467260D01*
X85812502Y-111501383D01*
X85812496Y-111501386D01*
X85691462Y-111579171D01*
X85691451Y-111579179D01*
X85638659Y-111624923D01*
X85544433Y-111733664D01*
X85544430Y-111733668D01*
X85484664Y-111864534D01*
X85464976Y-111931582D01*
X85445783Y-112065073D01*
X85444500Y-112074000D01*
X83672806Y-112074000D01*
X83747966Y-111852840D01*
X83749975Y-111847361D01*
X84051312Y-111082764D01*
X84053590Y-111077364D01*
X84391138Y-110328034D01*
X84393666Y-110322764D01*
X84469778Y-110173322D01*
X86400001Y-110173322D01*
X86410144Y-110272607D01*
X86463452Y-110433481D01*
X86463457Y-110433492D01*
X86552424Y-110577728D01*
X86552427Y-110577732D01*
X86672267Y-110697572D01*
X86672271Y-110697575D01*
X86816507Y-110786542D01*
X86816518Y-110786547D01*
X86977393Y-110839855D01*
X87076683Y-110849999D01*
X87600000Y-110849999D01*
X87623308Y-110849999D01*
X87623322Y-110849998D01*
X87722607Y-110839855D01*
X87883481Y-110786547D01*
X87883492Y-110786542D01*
X88027728Y-110697575D01*
X88027732Y-110697572D01*
X88147572Y-110577732D01*
X88147575Y-110577728D01*
X88236542Y-110433492D01*
X88236547Y-110433481D01*
X88289855Y-110272606D01*
X88299999Y-110173322D01*
X88300000Y-110173309D01*
X88300000Y-110000000D01*
X87600000Y-110000000D01*
X87600000Y-110849999D01*
X87076683Y-110849999D01*
X87100000Y-110849998D01*
X87100000Y-110000000D01*
X86400001Y-110000000D01*
X86400001Y-110173322D01*
X84469778Y-110173322D01*
X84766652Y-109590421D01*
X84769416Y-109585301D01*
X84917111Y-109326677D01*
X86400000Y-109326677D01*
X86400000Y-109500000D01*
X87100000Y-109500000D01*
X87600000Y-109500000D01*
X88299999Y-109500000D01*
X88299999Y-109326692D01*
X88299998Y-109326677D01*
X88289855Y-109227392D01*
X88236547Y-109066518D01*
X88236542Y-109066507D01*
X88147575Y-108922271D01*
X88147572Y-108922267D01*
X88027732Y-108802427D01*
X88027728Y-108802424D01*
X87883492Y-108713457D01*
X87883481Y-108713452D01*
X87722606Y-108660144D01*
X87623322Y-108650000D01*
X87600000Y-108650000D01*
X87600000Y-109500000D01*
X87100000Y-109500000D01*
X87100000Y-108649999D01*
X87076693Y-108650000D01*
X87076674Y-108650001D01*
X86977392Y-108660144D01*
X86816518Y-108713452D01*
X86816507Y-108713457D01*
X86672271Y-108802424D01*
X86672267Y-108802427D01*
X86552427Y-108922267D01*
X86552424Y-108922271D01*
X86463457Y-109066507D01*
X86463452Y-109066518D01*
X86410144Y-109227393D01*
X86400000Y-109326677D01*
X84917111Y-109326677D01*
X85176977Y-108871635D01*
X85180016Y-108866600D01*
X85220852Y-108802427D01*
X85409973Y-108505222D01*
X85621188Y-108173296D01*
X85624478Y-108168387D01*
X86098317Y-107496923D01*
X86101814Y-107492211D01*
X86607199Y-106844179D01*
X86610903Y-106839656D01*
X87146715Y-106216493D01*
X87150647Y-106212136D01*
X87715613Y-105615321D01*
X87719760Y-105611145D01*
X88312601Y-105042029D01*
X88316926Y-105038071D01*
X88936313Y-104497931D01*
X88940847Y-104494165D01*
X89585343Y-103984253D01*
X89590028Y-103980726D01*
X90258125Y-103502233D01*
X90262990Y-103498920D01*
X90953239Y-103052884D01*
X90958269Y-103049802D01*
X91669009Y-102637297D01*
X91674199Y-102634449D01*
X92403855Y-102256385D01*
X92409133Y-102253809D01*
X93156079Y-101911034D01*
X93161446Y-101908726D01*
X93923869Y-101602072D01*
X93929420Y-101599992D01*
X94023277Y-101567361D01*
X94093063Y-101563939D01*
X94153620Y-101598789D01*
X94185723Y-101660847D01*
X94179179Y-101730409D01*
X94151678Y-101772165D01*
X93457203Y-102466641D01*
X93457190Y-102466655D01*
X93433171Y-102494777D01*
X93353996Y-102638797D01*
X93353993Y-102638807D01*
X93313122Y-102797988D01*
X93313122Y-102962349D01*
X93353993Y-103121530D01*
X93353996Y-103121540D01*
X93433171Y-103265560D01*
X93440807Y-103274500D01*
X93457196Y-103293689D01*
X93762234Y-103598727D01*
X93762240Y-103598732D01*
X93790362Y-103622751D01*
X93934382Y-103701926D01*
X93934386Y-103701928D01*
X94093577Y-103742801D01*
X94093581Y-103742801D01*
X94101321Y-103743779D01*
X94100950Y-103746707D01*
X94154686Y-103762486D01*
X94200441Y-103815290D01*
X94208606Y-103852825D01*
X94210669Y-103852565D01*
X94211647Y-103860312D01*
X94252487Y-104019371D01*
X94252490Y-104019381D01*
X94331606Y-104163292D01*
X94331607Y-104163293D01*
X94333227Y-104165191D01*
X94333228Y-104165192D01*
X96415370Y-102083050D01*
X96415369Y-102083049D01*
X96413472Y-102081430D01*
X96324079Y-102032285D01*
X96274815Y-101982738D01*
X96260159Y-101914423D01*
X96284763Y-101849029D01*
X96296129Y-101835948D01*
X96371789Y-101760289D01*
X96459394Y-101629179D01*
X96470622Y-101602072D01*
X96510439Y-101505945D01*
X96554279Y-101451541D01*
X96620573Y-101429476D01*
X96688273Y-101446755D01*
X96735884Y-101497892D01*
X96739561Y-101505945D01*
X96790602Y-101629172D01*
X96790609Y-101629185D01*
X96878210Y-101760288D01*
X96878213Y-101760292D01*
X96989707Y-101871786D01*
X96989711Y-101871789D01*
X97120814Y-101959390D01*
X97120818Y-101959392D01*
X97120821Y-101959394D01*
X97265190Y-102019193D01*
X97272118Y-102023822D01*
X97277159Y-102024919D01*
X97305413Y-102046070D01*
X97345065Y-102085722D01*
X97378550Y-102147045D01*
X97373566Y-102216737D01*
X97368196Y-102229051D01*
X97355556Y-102254220D01*
X97317205Y-102416030D01*
X97284229Y-102475113D01*
X97070244Y-102689098D01*
X97008921Y-102722583D01*
X96939229Y-102717599D01*
X96883296Y-102675727D01*
X96862459Y-102632255D01*
X96849664Y-102582422D01*
X96849661Y-102582414D01*
X96770548Y-102438507D01*
X96770545Y-102438503D01*
X96768922Y-102436603D01*
X96768922Y-102436602D01*
X95727853Y-103477675D01*
X94686780Y-104518744D01*
X94688681Y-104520367D01*
X94688685Y-104520370D01*
X94832592Y-104599483D01*
X94832602Y-104599486D01*
X94991661Y-104640326D01*
X94999409Y-104641305D01*
X94999018Y-104644392D01*
X95052212Y-104660012D01*
X95097967Y-104712816D01*
X95106251Y-104750899D01*
X95108195Y-104750654D01*
X95109173Y-104758401D01*
X95150044Y-104917582D01*
X95150047Y-104917592D01*
X95229222Y-105061612D01*
X95229225Y-105061615D01*
X95253247Y-105089741D01*
X95558285Y-105394779D01*
X95558291Y-105394784D01*
X95586413Y-105418803D01*
X95691221Y-105476421D01*
X95730437Y-105497980D01*
X95889628Y-105538853D01*
X95889632Y-105538853D01*
X95897372Y-105539831D01*
X95896984Y-105542900D01*
X95950238Y-105558538D01*
X95995993Y-105611342D01*
X96004171Y-105648937D01*
X96006221Y-105648679D01*
X96007199Y-105656426D01*
X96048070Y-105815607D01*
X96048073Y-105815617D01*
X96127248Y-105959637D01*
X96127251Y-105959640D01*
X96151273Y-105987766D01*
X96456311Y-106292804D01*
X96462590Y-106298167D01*
X96484439Y-106316828D01*
X96624599Y-106393881D01*
X96628463Y-106396005D01*
X96787654Y-106436878D01*
X96787658Y-106436878D01*
X96952004Y-106436878D01*
X96952008Y-106436878D01*
X97111199Y-106396005D01*
X97214003Y-106339488D01*
X97255222Y-106316828D01*
X97255223Y-106316827D01*
X97255225Y-106316826D01*
X97283351Y-106292804D01*
X97910363Y-105665790D01*
X97928299Y-105655996D01*
X97943361Y-105642181D01*
X97958342Y-105639592D01*
X97971686Y-105632306D01*
X97992072Y-105633763D01*
X98012211Y-105630284D01*
X98026212Y-105636205D01*
X98041377Y-105637290D01*
X98057739Y-105649538D01*
X98076562Y-105657499D01*
X98085139Y-105670049D01*
X98097311Y-105679161D01*
X98104453Y-105698310D01*
X98115985Y-105715184D01*
X98119845Y-105739578D01*
X98121728Y-105744626D01*
X98121994Y-105749963D01*
X98122044Y-105751729D01*
X98122044Y-105815665D01*
X98124154Y-105826274D01*
X98124450Y-105836716D01*
X98124234Y-105837533D01*
X98124500Y-105840225D01*
X98124500Y-106329732D01*
X98106617Y-106393881D01*
X98081523Y-106435391D01*
X98030913Y-106597807D01*
X98024500Y-106668386D01*
X98024500Y-107331613D01*
X98030913Y-107402192D01*
X98030913Y-107402194D01*
X98030914Y-107402196D01*
X98058003Y-107489128D01*
X98081522Y-107564606D01*
X98169530Y-107710188D01*
X98246661Y-107787319D01*
X98248296Y-107790314D01*
X98251202Y-107792108D01*
X98264923Y-107820763D01*
X98280146Y-107848642D01*
X98279902Y-107852046D01*
X98281377Y-107855126D01*
X98277427Y-107886649D01*
X98275162Y-107918334D01*
X98272990Y-107922070D01*
X98272692Y-107924454D01*
X98265282Y-107935335D01*
X98254153Y-107954487D01*
X98250590Y-107958752D01*
X98169528Y-108039815D01*
X98134512Y-108097737D01*
X98128458Y-108104987D01*
X98106952Y-108119366D01*
X98087874Y-108136838D01*
X98077077Y-108139342D01*
X98070376Y-108143823D01*
X98056687Y-108144071D01*
X98033285Y-108149500D01*
X97635132Y-108149500D01*
X97570036Y-108131039D01*
X97544334Y-108115186D01*
X97377797Y-108060001D01*
X97377795Y-108060000D01*
X97275010Y-108049500D01*
X96224998Y-108049500D01*
X96224980Y-108049501D01*
X96122203Y-108060000D01*
X96122200Y-108060001D01*
X95955668Y-108115185D01*
X95955663Y-108115187D01*
X95806342Y-108207289D01*
X95682289Y-108331342D01*
X95590187Y-108480663D01*
X95590185Y-108480668D01*
X95563174Y-108562184D01*
X95535001Y-108647203D01*
X95535001Y-108647204D01*
X95535000Y-108647204D01*
X95524500Y-108749983D01*
X95524500Y-109350001D01*
X95524501Y-109350019D01*
X95535000Y-109452796D01*
X95535001Y-109452799D01*
X95590185Y-109619331D01*
X95590187Y-109619336D01*
X95615153Y-109659812D01*
X95682288Y-109768656D01*
X95806344Y-109892712D01*
X95809628Y-109894737D01*
X95809653Y-109894753D01*
X95811445Y-109896746D01*
X95812011Y-109897193D01*
X95811934Y-109897289D01*
X95856379Y-109946699D01*
X95867603Y-110015661D01*
X95839761Y-110079744D01*
X95809665Y-110105826D01*
X95806660Y-110107679D01*
X95806655Y-110107683D01*
X95682684Y-110231654D01*
X95590643Y-110380875D01*
X95590641Y-110380880D01*
X95535494Y-110547302D01*
X95535493Y-110547309D01*
X95525000Y-110650013D01*
X95525000Y-110700000D01*
X97670000Y-110700000D01*
X97670000Y-110624000D01*
X97689685Y-110556961D01*
X97742489Y-110511206D01*
X97794000Y-110500000D01*
X98676000Y-110500000D01*
X98743039Y-110519685D01*
X98788794Y-110572489D01*
X98800000Y-110624000D01*
X98800000Y-110750000D01*
X98926000Y-110750000D01*
X98993039Y-110769685D01*
X99038794Y-110822489D01*
X99050000Y-110874000D01*
X99050000Y-111974999D01*
X99058083Y-111983082D01*
X99067187Y-111987239D01*
X99092539Y-111994684D01*
X99098466Y-112001524D01*
X99106703Y-112005286D01*
X99120992Y-112027520D01*
X99138294Y-112047488D01*
X99140581Y-112058002D01*
X99144477Y-112064064D01*
X99149500Y-112098999D01*
X99149500Y-112338330D01*
X99149499Y-112338348D01*
X99149499Y-112504054D01*
X99149498Y-112504054D01*
X99189174Y-112652127D01*
X99190423Y-112656785D01*
X99215085Y-112699500D01*
X99267686Y-112790609D01*
X99269479Y-112793714D01*
X99269481Y-112793717D01*
X99388349Y-112912585D01*
X99388355Y-112912590D01*
X99613181Y-113137416D01*
X99646666Y-113198739D01*
X99649500Y-113225097D01*
X99649500Y-114447870D01*
X99649501Y-114447876D01*
X99655908Y-114507483D01*
X99706202Y-114642328D01*
X99706206Y-114642335D01*
X99792452Y-114757544D01*
X99792455Y-114757547D01*
X99907664Y-114843793D01*
X99907671Y-114843797D01*
X100042517Y-114894091D01*
X100042516Y-114894091D01*
X100049444Y-114894835D01*
X100102127Y-114900500D01*
X101547872Y-114900499D01*
X101607483Y-114894091D01*
X101742331Y-114843796D01*
X101857546Y-114757546D01*
X101943796Y-114642331D01*
X101994091Y-114507483D01*
X102000500Y-114447873D01*
X102000499Y-112552128D01*
X101994091Y-112492517D01*
X101960403Y-112402196D01*
X101943797Y-112357671D01*
X101943793Y-112357664D01*
X101857547Y-112242455D01*
X101857544Y-112242452D01*
X101742335Y-112156206D01*
X101742328Y-112156202D01*
X101607482Y-112105908D01*
X101607483Y-112105908D01*
X101547883Y-112099501D01*
X101547881Y-112099500D01*
X101547873Y-112099500D01*
X101547865Y-112099500D01*
X101399043Y-112099500D01*
X101332004Y-112079815D01*
X101286249Y-112027011D01*
X101276305Y-111957853D01*
X101305330Y-111894297D01*
X101333946Y-111869961D01*
X101418656Y-111817712D01*
X101542712Y-111693656D01*
X101634814Y-111544334D01*
X101689999Y-111377797D01*
X101700500Y-111275009D01*
X101700499Y-110614740D01*
X101720183Y-110547702D01*
X101736814Y-110527064D01*
X101984230Y-110279647D01*
X101988158Y-110276885D01*
X101989592Y-110274595D01*
X102006202Y-110264196D01*
X102019053Y-110255160D01*
X102021710Y-110253907D01*
X102129179Y-110209394D01*
X102160277Y-110188614D01*
X102168632Y-110184678D01*
X102194393Y-110180659D01*
X102219273Y-110172869D01*
X102227041Y-110175000D01*
X102230673Y-110175000D01*
X102237667Y-110173909D01*
X102240133Y-110175000D01*
X103000000Y-110175000D01*
X103000000Y-109496362D01*
X103019685Y-109429323D01*
X103036319Y-109408681D01*
X103050000Y-109395000D01*
X103050000Y-108750000D01*
X102300000Y-108750000D01*
X102279065Y-108770935D01*
X102217742Y-108804419D01*
X102148050Y-108799434D01*
X102132936Y-108792613D01*
X102129182Y-108790606D01*
X101983501Y-108730264D01*
X101983489Y-108730261D01*
X101828845Y-108699500D01*
X101828842Y-108699500D01*
X101814742Y-108699500D01*
X101747703Y-108679815D01*
X101727061Y-108663181D01*
X101506570Y-108442691D01*
X101473085Y-108381368D01*
X101470761Y-108366239D01*
X101469086Y-108347804D01*
X101418478Y-108185394D01*
X101330472Y-108039815D01*
X101265670Y-107975013D01*
X102300000Y-107975013D01*
X102300000Y-108250000D01*
X103050000Y-108250000D01*
X103050000Y-107275000D01*
X103049999Y-107274999D01*
X103000029Y-107275000D01*
X103000011Y-107275001D01*
X102897302Y-107285494D01*
X102730880Y-107340641D01*
X102730875Y-107340643D01*
X102581654Y-107432684D01*
X102457684Y-107556654D01*
X102365643Y-107705875D01*
X102365641Y-107705880D01*
X102310494Y-107872302D01*
X102310493Y-107872309D01*
X102300000Y-107975013D01*
X101265670Y-107975013D01*
X101252527Y-107961870D01*
X101251697Y-107961008D01*
X101236048Y-107931016D01*
X101219853Y-107901357D01*
X101219939Y-107900143D01*
X101219376Y-107899063D01*
X101222425Y-107865387D01*
X101224837Y-107831665D01*
X101225584Y-107830502D01*
X101225677Y-107829478D01*
X101228919Y-107825313D01*
X101253337Y-107787319D01*
X101330472Y-107710185D01*
X101418478Y-107564606D01*
X101469086Y-107402196D01*
X101475500Y-107331616D01*
X101475500Y-106668384D01*
X101469086Y-106597804D01*
X101418478Y-106435394D01*
X101330472Y-106289815D01*
X101330470Y-106289813D01*
X101330469Y-106289811D01*
X101210188Y-106169530D01*
X101180351Y-106151493D01*
X101064606Y-106081522D01*
X100902196Y-106030914D01*
X100902194Y-106030913D01*
X100902192Y-106030913D01*
X100852778Y-106026423D01*
X100831616Y-106024500D01*
X100318384Y-106024500D01*
X100299145Y-106026248D01*
X100247807Y-106030913D01*
X100085393Y-106081522D01*
X99939811Y-106169530D01*
X99939810Y-106169531D01*
X99937181Y-106172161D01*
X99934781Y-106173471D01*
X99933906Y-106174157D01*
X99933792Y-106174011D01*
X99875858Y-106205646D01*
X99806166Y-106200662D01*
X99750233Y-106158790D01*
X99725816Y-106093326D01*
X99725500Y-106084480D01*
X99725500Y-105660436D01*
X99725012Y-105657986D01*
X99725013Y-105657985D01*
X99725009Y-105657972D01*
X99723543Y-105650602D01*
X99729769Y-105581016D01*
X99772631Y-105525837D01*
X99838520Y-105502591D01*
X99906517Y-105518657D01*
X99919472Y-105527147D01*
X100007910Y-105593352D01*
X100007913Y-105593354D01*
X100142620Y-105643596D01*
X100142627Y-105643598D01*
X100202155Y-105649999D01*
X100202172Y-105650000D01*
X100675000Y-105650000D01*
X101175000Y-105650000D01*
X101647828Y-105650000D01*
X101647844Y-105649999D01*
X101707372Y-105643598D01*
X101707379Y-105643596D01*
X101842086Y-105593354D01*
X101842093Y-105593350D01*
X101957187Y-105507190D01*
X101957190Y-105507187D01*
X102043350Y-105392093D01*
X102043354Y-105392086D01*
X102093596Y-105257379D01*
X102093598Y-105257372D01*
X102099999Y-105197844D01*
X102100000Y-105197827D01*
X102100000Y-104500000D01*
X101175000Y-104500000D01*
X101175000Y-105650000D01*
X100675000Y-105650000D01*
X100675000Y-104500000D01*
X99750000Y-104500000D01*
X99750000Y-105132838D01*
X99743761Y-105154083D01*
X99742182Y-105176171D01*
X99734109Y-105186954D01*
X99730315Y-105199877D01*
X99713583Y-105214375D01*
X99700311Y-105232105D01*
X99687688Y-105236812D01*
X99677511Y-105245632D01*
X99655595Y-105248783D01*
X99634847Y-105256522D01*
X99621685Y-105253658D01*
X99608353Y-105255576D01*
X99588208Y-105246376D01*
X99566574Y-105241670D01*
X99548846Y-105228400D01*
X99544797Y-105226551D01*
X99538319Y-105220520D01*
X99493970Y-105176171D01*
X99435289Y-105117490D01*
X99432833Y-105115034D01*
X99432832Y-105115033D01*
X99432830Y-105115031D01*
X99301729Y-105027432D01*
X99301716Y-105027425D01*
X99156045Y-104967087D01*
X99156033Y-104967084D01*
X99001389Y-104936323D01*
X99001386Y-104936323D01*
X98948330Y-104936323D01*
X98881291Y-104916638D01*
X98835536Y-104863834D01*
X98825592Y-104794676D01*
X98854617Y-104731120D01*
X98879439Y-104709221D01*
X98953084Y-104660012D01*
X99010289Y-104621789D01*
X99121789Y-104510289D01*
X99209394Y-104379179D01*
X99269737Y-104233497D01*
X99300500Y-104078842D01*
X99300500Y-103921158D01*
X99300500Y-103921155D01*
X99273854Y-103787200D01*
X99280081Y-103717608D01*
X99307788Y-103675329D01*
X99538319Y-103444797D01*
X99599642Y-103411313D01*
X99669334Y-103416297D01*
X99725267Y-103458169D01*
X99749684Y-103523633D01*
X99750000Y-103532479D01*
X99750000Y-104000000D01*
X100675000Y-104000000D01*
X101175000Y-104000000D01*
X102100000Y-104000000D01*
X102100000Y-103302172D01*
X102099999Y-103302155D01*
X102093598Y-103242627D01*
X102093596Y-103242620D01*
X102043354Y-103107913D01*
X102043350Y-103107906D01*
X101957190Y-102992812D01*
X101957187Y-102992809D01*
X101842093Y-102906649D01*
X101842086Y-102906645D01*
X101707379Y-102856403D01*
X101707372Y-102856401D01*
X101647844Y-102850000D01*
X101175000Y-102850000D01*
X101175000Y-104000000D01*
X100675000Y-104000000D01*
X100675000Y-102850000D01*
X100202155Y-102850000D01*
X100142627Y-102856401D01*
X100142620Y-102856403D01*
X100008735Y-102906339D01*
X99981298Y-102908301D01*
X99954324Y-102913661D01*
X99946949Y-102910757D01*
X99939043Y-102911323D01*
X99914901Y-102898140D01*
X99889311Y-102888066D01*
X99884676Y-102881636D01*
X99877720Y-102877838D01*
X99864539Y-102853698D01*
X99848457Y-102831386D01*
X99846677Y-102820984D01*
X99844236Y-102816514D01*
X99841578Y-102796768D01*
X99841402Y-102793471D01*
X99841402Y-102743129D01*
X99837932Y-102728490D01*
X99837338Y-102717357D01*
X99842916Y-102693773D01*
X99844197Y-102669573D01*
X99850814Y-102660382D01*
X99853421Y-102649364D01*
X99870862Y-102632541D01*
X99885025Y-102612873D01*
X99895560Y-102608719D01*
X99903710Y-102600859D01*
X99927476Y-102596136D01*
X99950025Y-102587247D01*
X99966340Y-102588414D01*
X99972240Y-102587242D01*
X99977188Y-102589190D01*
X99989765Y-102590090D01*
X99993190Y-102590902D01*
X100168510Y-102590902D01*
X100339111Y-102550468D01*
X100495789Y-102471782D01*
X100575841Y-102406571D01*
X100575846Y-102406566D01*
X100611180Y-102371231D01*
X100611180Y-102371230D01*
X99832655Y-101592706D01*
X99799170Y-101531383D01*
X99804154Y-101461692D01*
X99832655Y-101417344D01*
X100010846Y-101239153D01*
X100072169Y-101205668D01*
X100141861Y-101210652D01*
X100186208Y-101239153D01*
X100964732Y-102017677D01*
X100964733Y-102017677D01*
X101000066Y-101982344D01*
X101000081Y-101982327D01*
X101065284Y-101902287D01*
X101143970Y-101745609D01*
X101184404Y-101575008D01*
X101184404Y-101399687D01*
X101143970Y-101229086D01*
X101065282Y-101072405D01*
X101000083Y-100992369D01*
X101000067Y-100992351D01*
X100745034Y-100737318D01*
X100711549Y-100675995D01*
X100716533Y-100606303D01*
X100758405Y-100550370D01*
X100823869Y-100525953D01*
X100838641Y-100525780D01*
X101240454Y-100545075D01*
G37*
%TD.AperFunction*%
%TA.AperFunction,Conductor*%
G36*
X94562099Y-130699859D02*
G01*
X94588371Y-130738371D01*
X94607500Y-130757500D01*
X95307500Y-130757500D01*
X95307500Y-131257500D01*
X94607500Y-131257500D01*
X94572263Y-131292737D01*
X94510939Y-131326221D01*
X94441248Y-131321236D01*
X94385314Y-131279365D01*
X94378465Y-131269205D01*
X94371389Y-131257500D01*
X94330472Y-131189815D01*
X94330470Y-131189813D01*
X94330469Y-131189811D01*
X94227984Y-131087326D01*
X94194499Y-131026003D01*
X94199483Y-130956311D01*
X94227985Y-130911963D01*
X94330071Y-130809878D01*
X94330072Y-130809877D01*
X94377383Y-130731616D01*
X94428911Y-130684429D01*
X94497770Y-130672590D01*
X94562099Y-130699859D01*
G37*
%TD.AperFunction*%
%TA.AperFunction,Conductor*%
G36*
X105354322Y-130753184D02*
G01*
X105401039Y-130784117D01*
X105524380Y-130914395D01*
X105539544Y-130944068D01*
X105555500Y-130973288D01*
X105555374Y-130975042D01*
X105556176Y-130976611D01*
X105552890Y-131009771D01*
X105550516Y-131042980D01*
X105549434Y-131044663D01*
X105549288Y-131046140D01*
X105545033Y-131051511D01*
X105522015Y-131087327D01*
X105419531Y-131189810D01*
X105419526Y-131189816D01*
X105411090Y-131203771D01*
X105359560Y-131250955D01*
X105290700Y-131262790D01*
X105278222Y-131257500D01*
X104547500Y-131257500D01*
X104547500Y-130757500D01*
X105267605Y-130757500D01*
X105284630Y-130748203D01*
X105354322Y-130753184D01*
G37*
%TD.AperFunction*%
%TA.AperFunction,Conductor*%
G36*
X104132703Y-128910918D02*
G01*
X104157615Y-128940478D01*
X104160650Y-128945499D01*
X104169530Y-128960188D01*
X104289811Y-129080469D01*
X104289813Y-129080470D01*
X104289815Y-129080472D01*
X104435394Y-129168478D01*
X104597804Y-129219086D01*
X104668384Y-129225500D01*
X104668387Y-129225500D01*
X105181613Y-129225500D01*
X105181616Y-129225500D01*
X105252196Y-129219086D01*
X105414606Y-129168478D01*
X105560185Y-129080472D01*
X105590157Y-129050500D01*
X105662319Y-128978339D01*
X105670264Y-128974000D01*
X105675690Y-128966753D01*
X105700449Y-128957518D01*
X105723642Y-128944854D01*
X105732671Y-128945499D01*
X105741154Y-128942336D01*
X105766974Y-128947952D01*
X105793334Y-128949838D01*
X105802387Y-128955656D01*
X105809427Y-128957188D01*
X105837681Y-128978339D01*
X105929143Y-129069801D01*
X105962628Y-129131124D01*
X105957644Y-129200816D01*
X105915772Y-129256749D01*
X105852686Y-129280973D01*
X105847896Y-129281408D01*
X105847892Y-129281409D01*
X105685603Y-129331981D01*
X105540122Y-129419927D01*
X105419927Y-129540122D01*
X105331981Y-129685603D01*
X105282784Y-129843480D01*
X105244046Y-129901627D01*
X105180021Y-129929601D01*
X105111036Y-129918519D01*
X105061297Y-129875480D01*
X105024251Y-129820036D01*
X104884966Y-129680751D01*
X104884962Y-129680748D01*
X104721184Y-129571314D01*
X104721171Y-129571307D01*
X104539191Y-129495929D01*
X104539183Y-129495927D01*
X104497500Y-129487635D01*
X104497500Y-130290511D01*
X104487560Y-130273295D01*
X104431705Y-130217440D01*
X104363296Y-130177944D01*
X104286996Y-130157500D01*
X104208004Y-130157500D01*
X104131704Y-130177944D01*
X104063295Y-130217440D01*
X104007440Y-130273295D01*
X103997500Y-130290511D01*
X103997500Y-129487636D01*
X103972836Y-129467395D01*
X103933501Y-129409649D01*
X103927500Y-129371541D01*
X103927500Y-129004631D01*
X103947185Y-128937592D01*
X103999989Y-128891837D01*
X104069147Y-128881893D01*
X104132703Y-128910918D01*
G37*
%TD.AperFunction*%
%TA.AperFunction,Conductor*%
G36*
X100993039Y-124669685D02*
G01*
X101038794Y-124722489D01*
X101050000Y-124774000D01*
X101050000Y-126150000D01*
X101251097Y-126150000D01*
X101293824Y-126147102D01*
X101478523Y-126101168D01*
X101649022Y-126016609D01*
X101649025Y-126016607D01*
X101797366Y-125897367D01*
X101797367Y-125897366D01*
X101916607Y-125749025D01*
X101916609Y-125749022D01*
X102001168Y-125578523D01*
X102001169Y-125578521D01*
X102046916Y-125394574D01*
X102082199Y-125334266D01*
X102144484Y-125302608D01*
X102167251Y-125300500D01*
X102278844Y-125300500D01*
X102278845Y-125300499D01*
X102433497Y-125269737D01*
X102579179Y-125209394D01*
X102659349Y-125155826D01*
X102706609Y-125124248D01*
X102773286Y-125103370D01*
X102840666Y-125121854D01*
X102887357Y-125173833D01*
X102899500Y-125227350D01*
X102899500Y-126413330D01*
X102899499Y-126413348D01*
X102899499Y-126579054D01*
X102899498Y-126579054D01*
X102940423Y-126731785D01*
X102950939Y-126750000D01*
X102961608Y-126768478D01*
X103019479Y-126868714D01*
X103019481Y-126868717D01*
X103138349Y-126987585D01*
X103138355Y-126987590D01*
X103988181Y-127837416D01*
X104021666Y-127898739D01*
X104024500Y-127925097D01*
X104024500Y-128581615D01*
X104028217Y-128622526D01*
X104014680Y-128691072D01*
X103966232Y-128741417D01*
X103898257Y-128757577D01*
X103832336Y-128734422D01*
X103805459Y-128708057D01*
X103784686Y-128680309D01*
X103669593Y-128594149D01*
X103669586Y-128594145D01*
X103534879Y-128543903D01*
X103534872Y-128543901D01*
X103475344Y-128537500D01*
X103252000Y-128537500D01*
X103184961Y-128517815D01*
X103139206Y-128465011D01*
X103128000Y-128413500D01*
X103128000Y-127998657D01*
X103127999Y-127998654D01*
X103113368Y-127925097D01*
X103112033Y-127918384D01*
X103097237Y-127844002D01*
X103079562Y-127801333D01*
X103036894Y-127698321D01*
X102949289Y-127567211D01*
X102837789Y-127455711D01*
X102593758Y-127211680D01*
X102260292Y-126878213D01*
X102260288Y-126878210D01*
X102129185Y-126790609D01*
X102129172Y-126790602D01*
X101983501Y-126730264D01*
X101983489Y-126730261D01*
X101828845Y-126699500D01*
X101828842Y-126699500D01*
X98406127Y-126699500D01*
X98339088Y-126679815D01*
X98307755Y-126650991D01*
X98257541Y-126585551D01*
X98164449Y-126492459D01*
X98086550Y-126432684D01*
X98059767Y-126412132D01*
X98059761Y-126412128D01*
X98059757Y-126412125D01*
X98059750Y-126412121D01*
X98059744Y-126412117D01*
X98007382Y-126381885D01*
X97959167Y-126331318D01*
X97945945Y-126262711D01*
X97971913Y-126197846D01*
X98028828Y-126157318D01*
X98069377Y-126150499D01*
X98951122Y-126150499D01*
X98951123Y-126150499D01*
X98951123Y-126150498D01*
X98993889Y-126147600D01*
X99178693Y-126101641D01*
X99345271Y-126019026D01*
X99349292Y-126017032D01*
X99349292Y-126017031D01*
X99349296Y-126017030D01*
X99497722Y-125897722D01*
X99553675Y-125828112D01*
X99611015Y-125788196D01*
X99680837Y-125785616D01*
X99740970Y-125821194D01*
X99746967Y-125828115D01*
X99802632Y-125897366D01*
X99802633Y-125897367D01*
X99950974Y-126016607D01*
X99950977Y-126016609D01*
X100121476Y-126101168D01*
X100306175Y-126147102D01*
X100348903Y-126150000D01*
X100550000Y-126150000D01*
X100550000Y-124774000D01*
X100569685Y-124706961D01*
X100622489Y-124661206D01*
X100674000Y-124650000D01*
X100926000Y-124650000D01*
X100993039Y-124669685D01*
G37*
%TD.AperFunction*%
%TA.AperFunction,Conductor*%
G36*
X102557254Y-122302694D02*
G01*
X102564938Y-122301430D01*
X102590304Y-122312398D01*
X102616821Y-122320185D01*
X102623098Y-122326579D01*
X102629069Y-122329161D01*
X102652718Y-122355361D01*
X102654057Y-122357354D01*
X102707288Y-122443656D01*
X102721711Y-122458079D01*
X102728436Y-122468091D01*
X102749475Y-122534717D01*
X102749500Y-122537230D01*
X102749500Y-123038053D01*
X102780261Y-123192696D01*
X102780264Y-123192708D01*
X102832462Y-123318726D01*
X102839931Y-123388195D01*
X102808655Y-123450674D01*
X102765353Y-123480739D01*
X102620827Y-123540602D01*
X102620814Y-123540609D01*
X102489714Y-123628208D01*
X102442129Y-123675792D01*
X102380805Y-123709276D01*
X102330259Y-123709727D01*
X102304879Y-123704679D01*
X102278842Y-123699500D01*
X102121158Y-123699500D01*
X102095122Y-123704678D01*
X102025531Y-123698451D01*
X101970354Y-123655587D01*
X101959843Y-123638154D01*
X101916607Y-123550974D01*
X101797367Y-123402633D01*
X101797366Y-123402632D01*
X101649025Y-123283392D01*
X101649022Y-123283390D01*
X101478523Y-123198831D01*
X101293824Y-123152897D01*
X101292383Y-123152800D01*
X101291774Y-123152575D01*
X101288438Y-123152052D01*
X101288542Y-123151383D01*
X101264482Y-123142510D01*
X101235792Y-123134694D01*
X101232058Y-123130552D01*
X101226829Y-123128624D01*
X101208923Y-123104887D01*
X101189011Y-123082798D01*
X101188109Y-123077295D01*
X101184752Y-123072845D01*
X101182520Y-123043188D01*
X101177713Y-123013848D01*
X101179814Y-123007219D01*
X101179510Y-123003173D01*
X101186990Y-122979795D01*
X101189014Y-122975121D01*
X101197829Y-122958631D01*
X101234295Y-122870590D01*
X101234676Y-122869713D01*
X101235244Y-122869030D01*
X101245356Y-122850113D01*
X101261166Y-122826451D01*
X101264075Y-122822096D01*
X101279486Y-122803317D01*
X101303316Y-122779487D01*
X101322093Y-122764076D01*
X101350111Y-122745356D01*
X101371545Y-122733900D01*
X101402668Y-122721008D01*
X101425918Y-122713955D01*
X101458970Y-122707381D01*
X101483154Y-122705000D01*
X101524638Y-122705000D01*
X101534316Y-122705378D01*
X101536398Y-122705540D01*
X101536417Y-122705543D01*
X101680297Y-122705542D01*
X101749455Y-122695598D01*
X101887504Y-122655063D01*
X102008543Y-122577275D01*
X102061347Y-122531520D01*
X102155567Y-122422786D01*
X102172014Y-122386774D01*
X102178310Y-122372988D01*
X102224065Y-122320184D01*
X102291104Y-122300500D01*
X102549782Y-122300500D01*
X102557254Y-122302694D01*
G37*
%TD.AperFunction*%
%TD*%
%TA.AperFunction,Conductor*%
%TO.N,+3.3V*%
G36*
X101693039Y-116269685D02*
G01*
X101738794Y-116322489D01*
X101750000Y-116374000D01*
X101750000Y-122082450D01*
X101730315Y-122149489D01*
X101677511Y-122195244D01*
X101608353Y-122205188D01*
X101601812Y-122204068D01*
X101578844Y-122199500D01*
X101578842Y-122199500D01*
X101421158Y-122199500D01*
X101421155Y-122199500D01*
X101266510Y-122230261D01*
X101266498Y-122230264D01*
X101120827Y-122290602D01*
X101120814Y-122290609D01*
X100989711Y-122378210D01*
X100989707Y-122378213D01*
X100878213Y-122489707D01*
X100878210Y-122489711D01*
X100790609Y-122620814D01*
X100790604Y-122620824D01*
X100730808Y-122765185D01*
X100703928Y-122805413D01*
X100393527Y-123115814D01*
X100332204Y-123149299D01*
X100314234Y-123151849D01*
X100306113Y-123152399D01*
X100306112Y-123152399D01*
X100121305Y-123198359D01*
X100073677Y-123221981D01*
X100043215Y-123237088D01*
X99988123Y-123250000D01*
X99499999Y-123250000D01*
X99490605Y-123259394D01*
X99429282Y-123292878D01*
X99359590Y-123287893D01*
X99347830Y-123282800D01*
X99178521Y-123198830D01*
X98993824Y-123152897D01*
X98951097Y-123150000D01*
X98750000Y-123150000D01*
X98750000Y-124526000D01*
X98730315Y-124593039D01*
X98677511Y-124638794D01*
X98626000Y-124650000D01*
X98374000Y-124650000D01*
X98306961Y-124630315D01*
X98261206Y-124577511D01*
X98250000Y-124526000D01*
X98250000Y-123150000D01*
X98048903Y-123150000D01*
X98006175Y-123152897D01*
X97821476Y-123198831D01*
X97652168Y-123282800D01*
X97583363Y-123294952D01*
X97518912Y-123267975D01*
X97509393Y-123259393D01*
X97500000Y-123250000D01*
X97011877Y-123250000D01*
X96956784Y-123237088D01*
X96878693Y-123198359D01*
X96794862Y-123177511D01*
X96693892Y-123152400D01*
X96672506Y-123150950D01*
X96651123Y-123149500D01*
X96651120Y-123149500D01*
X95748877Y-123149500D01*
X95748874Y-123149501D01*
X95706113Y-123152399D01*
X95706112Y-123152399D01*
X95521305Y-123198359D01*
X95473677Y-123221981D01*
X95443215Y-123237088D01*
X95430808Y-123239996D01*
X95423058Y-123244977D01*
X95388123Y-123250000D01*
X95374000Y-123250000D01*
X95306961Y-123230315D01*
X95261206Y-123177511D01*
X95250000Y-123126000D01*
X95250000Y-120305811D01*
X95259439Y-120258358D01*
X95269737Y-120233497D01*
X95300500Y-120078842D01*
X95300500Y-119921158D01*
X95300500Y-119921155D01*
X95300499Y-119921153D01*
X95269739Y-119766511D01*
X95269738Y-119766510D01*
X95269737Y-119766503D01*
X95259437Y-119741636D01*
X95250000Y-119694189D01*
X95250000Y-119305811D01*
X95259439Y-119258358D01*
X95269737Y-119233497D01*
X95300500Y-119078842D01*
X95300500Y-118921158D01*
X95300500Y-118921155D01*
X95300499Y-118921153D01*
X95297883Y-118908000D01*
X96100000Y-118908000D01*
X96110608Y-119027325D01*
X96110609Y-119027328D01*
X96166557Y-119222861D01*
X96260721Y-119403129D01*
X96389246Y-119560753D01*
X96546870Y-119689278D01*
X96727138Y-119783442D01*
X96922671Y-119839390D01*
X96922674Y-119839391D01*
X97041999Y-119849999D01*
X97042002Y-119850000D01*
X98250000Y-119850000D01*
X98750000Y-119850000D01*
X99957998Y-119850000D01*
X99958000Y-119849999D01*
X100077325Y-119839391D01*
X100077328Y-119839390D01*
X100272861Y-119783442D01*
X100453129Y-119689278D01*
X100610753Y-119560753D01*
X100739278Y-119403129D01*
X100833442Y-119222861D01*
X100889390Y-119027328D01*
X100889391Y-119027325D01*
X100899999Y-118908000D01*
X100900000Y-118907998D01*
X100900000Y-118600000D01*
X98750000Y-118600000D01*
X98750000Y-119850000D01*
X98250000Y-119850000D01*
X98250000Y-118600000D01*
X96100000Y-118600000D01*
X96100000Y-118908000D01*
X95297883Y-118908000D01*
X95269739Y-118766511D01*
X95269738Y-118766510D01*
X95269737Y-118766503D01*
X95259437Y-118741636D01*
X95257811Y-118733462D01*
X95255023Y-118729124D01*
X95250000Y-118694189D01*
X95250000Y-118305811D01*
X95259439Y-118258358D01*
X95269737Y-118233497D01*
X95300500Y-118078842D01*
X95300500Y-117921158D01*
X95300500Y-117921155D01*
X95300499Y-117921153D01*
X95280011Y-117818149D01*
X95280007Y-117818137D01*
X95274808Y-117791999D01*
X96100000Y-117791999D01*
X96100000Y-118100000D01*
X98250000Y-118100000D01*
X98750000Y-118100000D01*
X100900000Y-118100000D01*
X100900000Y-117792002D01*
X100899999Y-117791999D01*
X100889391Y-117672674D01*
X100889390Y-117672671D01*
X100833442Y-117477138D01*
X100739278Y-117296870D01*
X100610753Y-117139246D01*
X100453129Y-117010721D01*
X100272861Y-116916557D01*
X100077328Y-116860609D01*
X100077325Y-116860608D01*
X99958000Y-116850000D01*
X98750000Y-116850000D01*
X98750000Y-118100000D01*
X98250000Y-118100000D01*
X98250000Y-116850000D01*
X97041999Y-116850000D01*
X96922674Y-116860608D01*
X96922671Y-116860609D01*
X96727138Y-116916557D01*
X96546870Y-117010721D01*
X96389246Y-117139246D01*
X96260721Y-117296870D01*
X96166557Y-117477138D01*
X96110609Y-117672671D01*
X96110608Y-117672674D01*
X96100000Y-117791999D01*
X95274808Y-117791999D01*
X95269737Y-117766503D01*
X95256613Y-117734818D01*
X95254617Y-117727710D01*
X95254732Y-117717982D01*
X95250000Y-117694189D01*
X95250000Y-117305811D01*
X95259439Y-117258358D01*
X95269737Y-117233497D01*
X95300500Y-117078842D01*
X95300500Y-116921158D01*
X95300500Y-116921155D01*
X95300499Y-116921153D01*
X95269739Y-116766511D01*
X95269738Y-116766510D01*
X95269737Y-116766503D01*
X95259437Y-116741636D01*
X95250000Y-116694189D01*
X95250000Y-116374000D01*
X95269685Y-116306961D01*
X95322489Y-116261206D01*
X95374000Y-116250000D01*
X101626000Y-116250000D01*
X101693039Y-116269685D01*
G37*
%TD.AperFunction*%
%TD*%
%TA.AperFunction,Conductor*%
%TO.N,+3.3V*%
G36*
X89338687Y-111969685D02*
G01*
X89374751Y-112005111D01*
X89378181Y-112010245D01*
X89378213Y-112010292D01*
X89489707Y-112121786D01*
X89489711Y-112121789D01*
X89620814Y-112209390D01*
X89620827Y-112209397D01*
X89756450Y-112265573D01*
X89766503Y-112269737D01*
X89881312Y-112292574D01*
X89921153Y-112300499D01*
X89921156Y-112300500D01*
X89921158Y-112300500D01*
X90078843Y-112300500D01*
X90095304Y-112297225D01*
X90144568Y-112287426D01*
X90167944Y-112289517D01*
X90191297Y-112287108D01*
X90202101Y-112292574D01*
X90214158Y-112293653D01*
X90232694Y-112308052D01*
X90253642Y-112318650D01*
X90262110Y-112330902D01*
X90269336Y-112336515D01*
X90275670Y-112346226D01*
X90280030Y-112353647D01*
X90290606Y-112379179D01*
X90327290Y-112434081D01*
X90329113Y-112437183D01*
X90336771Y-112467731D01*
X90346182Y-112497786D01*
X90345201Y-112501359D01*
X90346103Y-112504955D01*
X90336030Y-112534792D01*
X90327698Y-112565167D01*
X90325304Y-112568891D01*
X90290609Y-112620814D01*
X90290602Y-112620827D01*
X90230264Y-112766498D01*
X90230261Y-112766510D01*
X90199500Y-112921153D01*
X90199500Y-113078846D01*
X90230261Y-113233489D01*
X90230264Y-113233501D01*
X90290602Y-113379172D01*
X90290609Y-113379185D01*
X90325304Y-113431109D01*
X90346182Y-113497786D01*
X90327698Y-113565167D01*
X90325304Y-113568891D01*
X90290609Y-113620814D01*
X90290602Y-113620827D01*
X90230264Y-113766498D01*
X90230261Y-113766510D01*
X90199500Y-113921153D01*
X90199500Y-114078846D01*
X90230261Y-114233489D01*
X90230264Y-114233501D01*
X90290602Y-114379172D01*
X90290609Y-114379185D01*
X90325304Y-114431109D01*
X90346182Y-114497786D01*
X90327698Y-114565167D01*
X90325304Y-114568891D01*
X90290609Y-114620814D01*
X90290602Y-114620827D01*
X90230264Y-114766498D01*
X90230261Y-114766510D01*
X90199500Y-114921153D01*
X90199500Y-115078846D01*
X90212573Y-115144568D01*
X90206346Y-115214159D01*
X90163483Y-115269337D01*
X90138411Y-115283319D01*
X90120826Y-115290603D01*
X90120814Y-115290609D01*
X89989711Y-115378210D01*
X89989707Y-115378213D01*
X89904240Y-115463681D01*
X89842917Y-115497166D01*
X89816559Y-115500000D01*
X89332671Y-115500000D01*
X89265632Y-115480315D01*
X89219877Y-115427511D01*
X89209933Y-115358353D01*
X89238958Y-115294797D01*
X89252130Y-115281718D01*
X89254462Y-115279725D01*
X89404723Y-115129464D01*
X89404727Y-115129459D01*
X89529620Y-114957557D01*
X89626095Y-114768217D01*
X89691757Y-114566129D01*
X89691757Y-114566126D01*
X89702231Y-114500000D01*
X88654146Y-114500000D01*
X88692630Y-114433343D01*
X88725000Y-114312535D01*
X88725000Y-114187465D01*
X88692630Y-114066657D01*
X88654146Y-114000000D01*
X89702231Y-114000000D01*
X89691757Y-113933873D01*
X89691757Y-113933870D01*
X89626095Y-113731782D01*
X89529620Y-113542442D01*
X89404727Y-113370540D01*
X89404723Y-113370535D01*
X89254464Y-113220276D01*
X89254459Y-113220272D01*
X89082557Y-113095379D01*
X88893217Y-112998904D01*
X88691128Y-112933242D01*
X88500000Y-112902969D01*
X88500000Y-113845854D01*
X88433343Y-113807370D01*
X88312535Y-113775000D01*
X88187465Y-113775000D01*
X88066657Y-113807370D01*
X88000000Y-113845854D01*
X88000000Y-112902969D01*
X87808872Y-112933242D01*
X87808869Y-112933242D01*
X87606782Y-112998904D01*
X87417442Y-113095379D01*
X87245540Y-113220272D01*
X87245535Y-113220276D01*
X87095276Y-113370535D01*
X87095272Y-113370540D01*
X86970379Y-113542442D01*
X86873904Y-113731782D01*
X86808242Y-113933870D01*
X86808242Y-113933873D01*
X86797769Y-114000000D01*
X87845854Y-114000000D01*
X87807370Y-114066657D01*
X87775000Y-114187465D01*
X87775000Y-114312535D01*
X87807370Y-114433343D01*
X87845854Y-114500000D01*
X86797769Y-114500000D01*
X86808242Y-114566126D01*
X86808242Y-114566129D01*
X86873904Y-114768217D01*
X86970379Y-114957557D01*
X87095272Y-115129459D01*
X87095276Y-115129464D01*
X87245537Y-115279725D01*
X87247870Y-115281718D01*
X87248508Y-115282696D01*
X87248979Y-115283167D01*
X87248880Y-115283265D01*
X87286057Y-115340228D01*
X87286549Y-115410096D01*
X87249189Y-115469139D01*
X87185840Y-115498611D01*
X87167329Y-115500000D01*
X86074000Y-115500000D01*
X86006961Y-115480315D01*
X85961206Y-115427511D01*
X85950000Y-115376000D01*
X85950000Y-112074000D01*
X85969685Y-112006961D01*
X86022489Y-111961206D01*
X86074000Y-111950000D01*
X89271648Y-111950000D01*
X89338687Y-111969685D01*
G37*
%TD.AperFunction*%
%TD*%
M02*
