M48
; DRILL file {KiCad 9.0.0} date 2025-10-25T14:56:04+0200
; FORMAT={-:-/ absolute / inch / decimal}
; #@! TF.CreationDate,2025-10-25T14:56:04+02:00
; #@! TF.GenerationSoftware,Kicad,Pcbnew,9.0.0
; #@! TF.FileFunction,Plated,1,4,PTH
FMAT,2
INCH
; #@! TA.AperFunction,Plated,PTH,ViaDrill
T1C0.0039
; #@! TA.AperFunction,Plated,PTH,ViaDrill
T2C0.0118
; #@! TA.AperFunction,Plated,PTH,ComponentDrill
T3C0.0236
; #@! TA.AperFunction,Plated,PTH,ComponentDrill
T4C0.0374
%
G90
G05
T1
X4.0258Y-4.5402
T2
X3.2753Y-4.6478
X3.2804Y-4.5556
X3.2831Y-4.7398
X3.2983Y-4.465
X3.3036Y-4.8298
X3.3286Y-4.3778
X3.3364Y-4.9161
X3.3707Y-4.2957
X3.3809Y-4.997
X3.4055Y-4.4291
X3.4055Y-4.4587
X3.4055Y-4.4882
X3.4055Y-4.5167
X3.4055Y-4.7933
X3.4239Y-4.2202
X3.435Y-4.4291
X3.4363Y-5.0709
X3.4744Y-4.4291
X3.4744Y-4.8524
X3.4871Y-4.1529
X3.5014Y-5.1364
X3.5138Y-4.4291
X3.5236Y-4.2717
X3.5236Y-4.311
X3.5236Y-4.3504
X3.5433Y-4.2323
X3.5433Y-4.3898
X3.5433Y-4.4291
X3.5433Y-4.4587
X3.5433Y-4.4882
X3.5433Y-4.5177
X3.5433Y-4.7933
X3.559Y-4.095
X3.563Y-4.5669
X3.563Y-4.7047
X3.5728Y-5.0197
X3.575Y-5.1922
X3.5827Y-4.4094
X3.5827Y-4.4488
X3.5827Y-4.4882
X3.5827Y-4.5276
X3.6024Y-4.7244
X3.6383Y-4.0477
X3.6417Y-4.7638
X3.6516Y-4.6063
X3.6811Y-4.3701
X3.6811Y-4.4094
X3.6811Y-4.4488
X3.6811Y-4.4882
X3.6811Y-4.7638
X3.6811Y-5.0886
X3.6811Y-5.2953
X3.7008Y-4.5276
X3.7008Y-5.374
X3.7205Y-4.5669
X3.7205Y-4.6063
X3.7205Y-4.6457
X3.7205Y-4.685
X3.7205Y-4.7244
X3.75Y-4.4685
X3.75Y-5.0984
X3.7666Y-4.6599
X3.7672Y-4.6232
X3.7697Y-3.9862
X3.7845Y-4.5931
X3.8091Y-4.0157
X3.8091Y-4.4094
X3.8189Y-4.7343
X3.8189Y-4.7835
X3.8189Y-4.8327
X3.8386Y-3.9862
X3.8386Y-5.2953
X3.8386Y-5.374
X3.878Y-4.0945
X3.878Y-4.7343
X3.878Y-4.7835
X3.878Y-4.8327
X3.8903Y-4.4114
X3.8946Y-4.1629
X3.8976Y-5.374
X3.9075Y-5.1969
X3.9173Y-4.1043
X3.9235Y-5.2998
X3.937Y-4.7343
X3.937Y-4.7835
X3.937Y-4.8327
X3.9567Y-5.374
X3.9684Y-4.5931
X3.9862Y-5.2067
X3.9903Y-4.6599
X3.9905Y-4.6232
X3.9961Y-4.8425
X4.0059Y-4.311
X4.0157Y-3.9961
X4.0157Y-5.2953
X4.0157Y-5.374
X4.0236Y-4.9016
X4.0252Y-4.3471
X4.0256Y-4.2717
X4.0551Y-4.8917
X4.0668Y-4.2131
X4.0768Y-4.7249
X4.0773Y-4.8414
X4.0878Y-3.9938
X4.0945Y-4.8917
X4.1043Y-4.9606
X4.1142Y-4.3898
X4.1142Y-4.5472
X4.1339Y-4.3701
X4.1416Y-4.2119
X4.1535Y-5.0098
X4.1535Y-5.374
X4.1732Y-4.3307
X4.1732Y-4.498
X4.1732Y-4.6654
X4.176Y-4.021
X4.1831Y-5.0886
X4.1929Y-4.2717
X4.1929Y-5.2953
X4.2028Y-4.685
X4.2028Y-4.7835
X4.2126Y-4.1535
X4.2126Y-4.3209
X4.2421Y-4.685
X4.2446Y-4.2128
X4.2595Y-4.0603
X4.2717Y-4.3307
X4.2717Y-4.3996
X4.2717Y-4.5866
X4.2717Y-4.9016
X4.2762Y-5.2064
X4.2815Y-4.685
X4.285Y-4.1495
X4.3188Y-4.2135
X4.3249Y-4.3333
X4.3368Y-4.1108
X4.352Y-5.1537
X4.3602Y-4.2717
X4.3602Y-4.498
X4.3718Y-4.3333
X4.4063Y-4.1716
X4.4291Y-4.4685
X4.4291Y-5.0689
X4.439Y-4.6063
X4.4667Y-4.2415
X4.4685Y-4.5374
X4.478Y-5.0194
X4.5079Y-4.5866
X4.5168Y-4.319
X4.5258Y-4.9403
X4.5555Y-4.4028
X4.5621Y-4.8555
X4.5823Y-4.4912
X4.5863Y-4.7664
X4.5964Y-4.5824
X4.5978Y-4.6747
T4
X3.4744Y-4.498
X3.4744Y-4.5965
X3.4744Y-4.6949
X3.4744Y-4.7933
T3
G00X3.7641Y-5.1794
M15
G01X3.7641Y-5.1361
M16
G05
G00X3.7641Y-5.3381
M15
G01X3.7641Y-5.3066
M16
G05
G00X4.1042Y-5.1794
M15
G01X4.1042Y-5.1361
M16
G05
G00X4.1042Y-5.3381
M15
G01X4.1042Y-5.3066
M16
G05
M30
