%TF.GenerationSoftware,KiCad,Pcbnew,9.0.0*%
%TF.CreationDate,2026-01-31T22:23:39+01:00*%
%TF.ProjectId,DisplayBoard,44697370-6c61-4794-926f-6172642e6b69,rev?*%
%TF.SameCoordinates,Original*%
%TF.FileFunction,Copper,L4,Bot*%
%TF.FilePolarity,Positive*%
%FSLAX46Y46*%
G04 Gerber Fmt 4.6, Leading zero omitted, Abs format (unit mm)*
G04 Created by KiCad (PCBNEW 9.0.0) date 2026-01-31 22:23:39*
%MOMM*%
%LPD*%
G01*
G04 APERTURE LIST*
G04 Aperture macros list*
%AMRoundRect*
0 Rectangle with rounded corners*
0 $1 Rounding radius*
0 $2 $3 $4 $5 $6 $7 $8 $9 X,Y pos of 4 corners*
0 Add a 4 corners polygon primitive as box body*
4,1,4,$2,$3,$4,$5,$6,$7,$8,$9,$2,$3,0*
0 Add four circle primitives for the rounded corners*
1,1,$1+$1,$2,$3*
1,1,$1+$1,$4,$5*
1,1,$1+$1,$6,$7*
1,1,$1+$1,$8,$9*
0 Add four rect primitives between the rounded corners*
20,1,$1+$1,$2,$3,$4,$5,0*
20,1,$1+$1,$4,$5,$6,$7,0*
20,1,$1+$1,$6,$7,$8,$9,0*
20,1,$1+$1,$8,$9,$2,$3,0*%
G04 Aperture macros list end*
%TA.AperFunction,ComponentPad*%
%ADD10O,1.000000X1.800000*%
%TD*%
%TA.AperFunction,ComponentPad*%
%ADD11O,1.000000X2.100000*%
%TD*%
%TA.AperFunction,SMDPad,CuDef*%
%ADD12RoundRect,0.052500X0.122500X1.947500X-0.122500X1.947500X-0.122500X-1.947500X0.122500X-1.947500X0*%
%TD*%
%TA.AperFunction,ViaPad*%
%ADD13C,0.600000*%
%TD*%
%TA.AperFunction,Conductor*%
%ADD14C,0.350000*%
%TD*%
%TA.AperFunction,Conductor*%
%ADD15C,0.150000*%
%TD*%
G04 APERTURE END LIST*
D10*
%TO.P,USBC501,SH4,SHELL_GND__3*%
%TO.N,GND*%
X105119999Y-135200000D03*
%TO.P,USBC501,SH3,SHELL_GND__2*%
X96480001Y-135200000D03*
D11*
%TO.P,USBC501,SH2,SHELL_GND__1*%
X105120001Y-131020000D03*
%TO.P,USBC501,SH1,SHELL_GND*%
X96480000Y-131019999D03*
%TD*%
D12*
%TO.P,J301,12,Pin_12*%
%TO.N,GND*%
X103912500Y-126962500D03*
%TO.P,J301,11,Pin_11*%
%TO.N,/MCU/RST*%
X103212500Y-126962500D03*
%TO.P,J301,10,Pin_10*%
%TO.N,/MCU/DIN*%
X102512500Y-126962500D03*
%TO.P,J301,9,Pin_9*%
%TO.N,/MCU/CLK*%
X101812500Y-126962500D03*
%TO.P,J301,8,Pin_8*%
%TO.N,/MCU/CS*%
X101112500Y-126962500D03*
%TO.P,J301,7,Pin_7*%
%TO.N,/MCU/DC*%
X100412500Y-126962500D03*
%TO.P,J301,6,Pin_6*%
%TO.N,GND*%
X99712500Y-126962500D03*
%TO.P,J301,5,Pin_5*%
X99012500Y-126962500D03*
%TO.P,J301,4,Pin_4*%
%TO.N,+3.3V*%
X98312500Y-126962500D03*
%TO.P,J301,3,Pin_3*%
X97612500Y-126962500D03*
%TO.P,J301,2,Pin_2*%
%TO.N,LEDK*%
X96912500Y-126962500D03*
%TO.P,J301,1,Pin_1*%
%TO.N,GND*%
X96212500Y-126962500D03*
%TD*%
D13*
%TO.N,/MCU/BL*%
X96800000Y-122400000D03*
X93000000Y-125100000D03*
%TO.N,/MCU/DC*%
X97600000Y-123100000D03*
%TO.N,/MCU/RST*%
X103200000Y-124400000D03*
%TO.N,/MCU/CS*%
X100900000Y-124500000D03*
%TO.N,LEDK*%
X94400000Y-129800000D03*
%TO.N,GND*%
X116142615Y-122528820D03*
X85172526Y-125783908D03*
X84219598Y-112156403D03*
X109390612Y-103977845D03*
X93709174Y-133470340D03*
X112864302Y-107105569D03*
X107361634Y-132993586D03*
X91603423Y-132443297D03*
X87920017Y-129565504D03*
X105189370Y-101928762D03*
X83573818Y-121391493D03*
X83247754Y-119071431D03*
X84219598Y-123643597D03*
X83247754Y-116728569D03*
X116142615Y-113271180D03*
X109390612Y-131822155D03*
X102916100Y-101361973D03*
X89661103Y-131133185D03*
X98244638Y-134601158D03*
X116629723Y-115562845D03*
X107361634Y-102806414D03*
X83573818Y-114408507D03*
X102916100Y-134438027D03*
X114241401Y-109000985D03*
X100586073Y-101117077D03*
X100586073Y-134682923D03*
X115341309Y-111069609D03*
X116793153Y-117900000D03*
X86414054Y-127770768D03*
%TO.N,/MCU/DIN*%
X100200000Y-123100000D03*
%TO.N,GND*%
X104600000Y-124400000D03*
%TO.N,/MCU/CLK*%
X100800000Y-123700000D03*
%TO.N,GND*%
X93107893Y-102274991D03*
X92050005Y-109068424D03*
X103400000Y-114500000D03*
X101500000Y-111400000D03*
X84700000Y-114600000D03*
X89200000Y-113900000D03*
X102300000Y-111400000D03*
X88900000Y-115000000D03*
X102300000Y-113100000D03*
X101500000Y-113100000D03*
X85000000Y-113900000D03*
X89000000Y-118000000D03*
X85700000Y-113900000D03*
X85700000Y-118000000D03*
X84700000Y-118100000D03*
X100700000Y-112200000D03*
X91300000Y-118000000D03*
X94300000Y-109900000D03*
X96900000Y-113900000D03*
X87100000Y-113900000D03*
X100700000Y-113100000D03*
X87800000Y-113900000D03*
X102300000Y-112200000D03*
X96400000Y-109900000D03*
X86400000Y-113900000D03*
X89100000Y-119300000D03*
X108100000Y-113565000D03*
X84700000Y-118800000D03*
X101500000Y-112200000D03*
%TO.N,+3.3V*%
X112300000Y-121700000D03*
%TO.N,GND*%
X85700000Y-115000000D03*
X84700000Y-116000000D03*
%TO.N,+3.3V*%
X114300000Y-120600000D03*
X115300000Y-120600000D03*
X97700000Y-116600000D03*
%TO.N,GND*%
X96400000Y-110700000D03*
%TO.N,+3.3V*%
X112300000Y-120600000D03*
%TO.N,GND*%
X103100000Y-112200000D03*
X84700000Y-115300000D03*
%TO.N,+3.3V*%
X92700000Y-121700000D03*
X111300000Y-120600000D03*
%TO.N,GND*%
X100700000Y-111400000D03*
%TO.N,+3.3V*%
X89100000Y-124600000D03*
X109300000Y-118300000D03*
%TO.N,GND*%
X89900000Y-114600000D03*
%TO.N,+3.3V*%
X112300000Y-122600000D03*
X110300000Y-120600000D03*
X115300000Y-118300000D03*
%TO.N,GND*%
X88500000Y-113900000D03*
X84700000Y-116700000D03*
X92400000Y-114700000D03*
%TO.N,+3.3V*%
X108100000Y-114835000D03*
X113300000Y-120600000D03*
X109300000Y-119500000D03*
%TO.N,GND*%
X93400000Y-118700000D03*
X88400000Y-119300000D03*
X94100000Y-118000000D03*
X84700000Y-117400000D03*
X90800000Y-122200000D03*
X104000000Y-107200000D03*
X86000000Y-119200000D03*
%TO.N,+3.3V*%
X115300000Y-119500000D03*
%TO.N,GND*%
X85300000Y-119200000D03*
X89800000Y-119200000D03*
X89900000Y-115300000D03*
X89900000Y-113900000D03*
X103100000Y-111400000D03*
X103100000Y-113100000D03*
X87500000Y-124600000D03*
X98800000Y-116700000D03*
X100000000Y-116700000D03*
X101200000Y-116700000D03*
X101200000Y-121500000D03*
X89538118Y-128512877D03*
X90500000Y-127525000D03*
X88600000Y-127525000D03*
%TO.N,+3.3V*%
X92300000Y-111900000D03*
X92300000Y-110700000D03*
%TO.N,GND*%
X90100000Y-110900000D03*
X88000000Y-110900000D03*
%TO.N,+3.3V*%
X92300000Y-113100000D03*
%TO.N,GND*%
X110000000Y-123100000D03*
%TO.N,+3.3V*%
X96200000Y-114900000D03*
X93000000Y-112800000D03*
%TO.N,GND*%
X102500000Y-116700000D03*
%TO.N,+3.3V*%
X96800000Y-115500000D03*
%TO.N,GND*%
X97600000Y-121500000D03*
X102500000Y-121500000D03*
%TO.N,+3.3V*%
X101700000Y-115100000D03*
X99400000Y-121600000D03*
X90100000Y-108700000D03*
%TO.N,GND*%
X95200000Y-130300000D03*
%TO.N,UNF_USB_D-*%
X102600000Y-132600000D03*
%TO.N,+3.3V*%
X97600000Y-124400000D03*
X94800000Y-128700000D03*
%TO.N,GND*%
X96500000Y-124400000D03*
%TO.N,UNF_USB_D-*%
X100325000Y-132675000D03*
%TO.N,GND*%
X98600000Y-124400000D03*
%TO.N,/USB/CC2*%
X96100000Y-133600000D03*
%TO.N,GND*%
X109350000Y-130916687D03*
X106700000Y-129200000D03*
%TO.N,/USB/CC2*%
X102000000Y-131800000D03*
%TO.N,GND*%
X107600000Y-122500000D03*
X94800000Y-136900000D03*
%TO.N,+3.3V*%
X89800000Y-104400000D03*
X85700000Y-108700000D03*
X85700000Y-109650000D03*
X86500000Y-109650000D03*
%TO.N,GND*%
X89600000Y-117300000D03*
%TO.N,+3.3V*%
X86500000Y-108700000D03*
X88000000Y-108700000D03*
X86500000Y-107750000D03*
%TO.N,GND*%
X94200000Y-124900000D03*
X87424641Y-106323631D03*
%TO.N,+3.3V*%
X91363112Y-105040804D03*
%TO.N,GND*%
X104800000Y-129400000D03*
X116629723Y-120237155D03*
%TD*%
D14*
%TO.N,GND*%
X103912500Y-125087500D02*
X104600000Y-124400000D01*
X103912500Y-126962500D02*
X103912500Y-125087500D01*
%TO.N,LEDK*%
X94700000Y-129500000D02*
X94400000Y-129800000D01*
X96700000Y-129500000D02*
X94700000Y-129500000D01*
X96912500Y-126962500D02*
X96912500Y-129287500D01*
X96912500Y-129287500D02*
X96700000Y-129500000D01*
D15*
%TO.N,/MCU/BL*%
X96800000Y-122400000D02*
X95100000Y-122400000D01*
X95100000Y-122400000D02*
X93000000Y-124500000D01*
X93000000Y-124500000D02*
X93000000Y-125100000D01*
D14*
%TO.N,GND*%
X96212500Y-124687500D02*
X96500000Y-124400000D01*
X96212500Y-126962500D02*
X96212500Y-124687500D01*
%TO.N,+3.3V*%
X97612500Y-126962500D02*
X98312500Y-126962500D01*
X97612500Y-124412500D02*
X97600000Y-124400000D01*
X97612500Y-126962500D02*
X97612500Y-124412500D01*
%TO.N,GND*%
X99712500Y-126962500D02*
X99012500Y-126962500D01*
X99012500Y-124812500D02*
X98600000Y-124400000D01*
X99012500Y-126962500D02*
X99012500Y-124812500D01*
D15*
%TO.N,/MCU/DC*%
X100200000Y-124100000D02*
X99200000Y-123100000D01*
X100200000Y-124600000D02*
X100200000Y-124100000D01*
X100400000Y-124800000D02*
X100200000Y-124600000D01*
X100400000Y-126950000D02*
X100400000Y-124800000D01*
X99200000Y-123100000D02*
X97600000Y-123100000D01*
X100412500Y-126962500D02*
X100400000Y-126950000D01*
%TO.N,/USB/CC2*%
X99700000Y-131800000D02*
X98400000Y-133100000D01*
X98400000Y-133100000D02*
X97900000Y-133600000D01*
X102000000Y-131800000D02*
X99700000Y-131800000D01*
X97900000Y-133600000D02*
X96100000Y-133600000D01*
D14*
%TO.N,GND*%
X99712500Y-128787500D02*
X99712500Y-126962500D01*
D15*
%TO.N,/MCU/CS*%
X101112500Y-124712500D02*
X100900000Y-124500000D01*
X101112500Y-126962500D02*
X101112500Y-124712500D01*
%TO.N,/MCU/RST*%
X103212500Y-124412500D02*
X103200000Y-124400000D01*
X103212500Y-126962500D02*
X103212500Y-124412500D01*
%TO.N,/MCU/CLK*%
X101800000Y-126950000D02*
X101812500Y-126962500D01*
X101800000Y-124500000D02*
X101800000Y-126950000D01*
X101000000Y-123700000D02*
X101800000Y-124500000D01*
X100800000Y-123700000D02*
X101000000Y-123700000D01*
%TO.N,/MCU/DIN*%
X102512500Y-124512500D02*
X102512500Y-126962500D01*
X101100000Y-123100000D02*
X102512500Y-124512500D01*
X100200000Y-123100000D02*
X101100000Y-123100000D01*
%TO.N,/MCU/RST*%
X103200000Y-126950000D02*
X103212500Y-126962500D01*
%TO.N,UNF_USB_D-*%
X100500000Y-132600000D02*
X102600000Y-132600000D01*
X100325000Y-132675000D02*
X100475000Y-132525000D01*
%TD*%
M02*
