%TF.GenerationSoftware,KiCad,Pcbnew,10.0.0*%
%TF.CreationDate,2026-04-10T22:35:41+02:00*%
%TF.ProjectId,DisplayBoard,44697370-6c61-4794-926f-6172642e6b69,rev?*%
%TF.SameCoordinates,Original*%
%TF.FileFunction,Legend,Top*%
%TF.FilePolarity,Positive*%
%FSLAX46Y46*%
G04 Gerber Fmt 4.6, Leading zero omitted, Abs format (unit mm)*
G04 Created by KiCad (PCBNEW 10.0.0) date 2026-04-10 22:35:41*
%MOMM*%
%LPD*%
G01*
G04 APERTURE LIST*
G04 Aperture macros list*
%AMRoundRect*
0 Rectangle with rounded corners*
0 $1 Rounding radius*
0 $2 $3 $4 $5 $6 $7 $8 $9 X,Y pos of 4 corners*
0 Add a 4 corners polygon primitive as box body*
4,1,4,$2,$3,$4,$5,$6,$7,$8,$9,$2,$3,0*
0 Add four circle primitives for the rounded corners*
1,1,$1+$1,$2,$3*
1,1,$1+$1,$4,$5*
1,1,$1+$1,$6,$7*
1,1,$1+$1,$8,$9*
0 Add four rect primitives between the rounded corners*
20,1,$1+$1,$2,$3,$4,$5,0*
20,1,$1+$1,$4,$5,$6,$7,0*
20,1,$1+$1,$6,$7,$8,$9,0*
20,1,$1+$1,$8,$9,$2,$3,0*%
%AMFreePoly0*
4,1,23,0.500000,-0.750000,0.000000,-0.750000,0.000000,-0.745722,-0.065263,-0.745722,-0.191342,-0.711940,-0.304381,-0.646677,-0.396677,-0.554381,-0.461940,-0.441342,-0.495722,-0.315263,-0.495722,-0.250000,-0.500000,-0.250000,-0.500000,0.250000,-0.495722,0.250000,-0.495722,0.315263,-0.461940,0.441342,-0.396677,0.554381,-0.304381,0.646677,-0.191342,0.711940,-0.065263,0.745722,0.000000,0.745722,
0.000000,0.750000,0.500000,0.750000,0.500000,-0.750000,0.500000,-0.750000,$1*%
%AMFreePoly1*
4,1,23,0.000000,0.745722,0.065263,0.745722,0.191342,0.711940,0.304381,0.646677,0.396677,0.554381,0.461940,0.441342,0.495722,0.315263,0.495722,0.250000,0.500000,0.250000,0.500000,-0.250000,0.495722,-0.250000,0.495722,-0.315263,0.461940,-0.441342,0.396677,-0.554381,0.304381,-0.646677,0.191342,-0.711940,0.065263,-0.745722,0.000000,-0.745722,0.000000,-0.750000,-0.500000,-0.750000,
-0.500000,0.750000,0.000000,0.750000,0.000000,0.745722,0.000000,0.745722,$1*%
G04 Aperture macros list end*
%ADD10C,0.200000*%
%ADD11C,0.120000*%
%ADD12C,0.127000*%
%ADD13C,0.010000*%
%ADD14FreePoly0,0.000000*%
%ADD15FreePoly1,0.000000*%
%ADD16RoundRect,0.200000X-0.200000X-0.275000X0.200000X-0.275000X0.200000X0.275000X-0.200000X0.275000X0*%
%ADD17RoundRect,0.225000X0.225000X0.250000X-0.225000X0.250000X-0.225000X-0.250000X0.225000X-0.250000X0*%
%ADD18RoundRect,0.150000X0.150000X-0.587500X0.150000X0.587500X-0.150000X0.587500X-0.150000X-0.587500X0*%
%ADD19RoundRect,0.200000X0.275000X-0.200000X0.275000X0.200000X-0.275000X0.200000X-0.275000X-0.200000X0*%
%ADD20RoundRect,0.250000X-0.475000X0.250000X-0.475000X-0.250000X0.475000X-0.250000X0.475000X0.250000X0*%
%ADD21RoundRect,0.250000X0.250000X0.475000X-0.250000X0.475000X-0.250000X-0.475000X0.250000X-0.475000X0*%
%ADD22RoundRect,0.218750X0.256250X-0.218750X0.256250X0.218750X-0.256250X0.218750X-0.256250X-0.218750X0*%
%ADD23RoundRect,0.250000X-0.250000X-0.475000X0.250000X-0.475000X0.250000X0.475000X-0.250000X0.475000X0*%
%ADD24RoundRect,0.157500X0.842500X-0.367500X0.842500X0.367500X-0.842500X0.367500X-0.842500X-0.367500X0*%
%ADD25RoundRect,0.135000X0.540000X0.315000X-0.540000X0.315000X-0.540000X-0.315000X0.540000X-0.315000X0*%
%ADD26C,0.650000*%
%ADD27O,2.304000X1.204000*%
%ADD28O,2.004000X1.204000*%
%ADD29RoundRect,0.200000X0.200000X0.275000X-0.200000X0.275000X-0.200000X-0.275000X0.200000X-0.275000X0*%
%ADD30RoundRect,0.150000X0.512500X0.150000X-0.512500X0.150000X-0.512500X-0.150000X0.512500X-0.150000X0*%
%ADD31R,1.500000X1.000000*%
%ADD32RoundRect,0.250000X0.450000X-0.262500X0.450000X0.262500X-0.450000X0.262500X-0.450000X-0.262500X0*%
%ADD33RoundRect,0.250000X0.475000X-0.250000X0.475000X0.250000X-0.475000X0.250000X-0.475000X-0.250000X0*%
%ADD34RoundRect,0.200000X-0.275000X0.200000X-0.275000X-0.200000X0.275000X-0.200000X0.275000X0.200000X0*%
%ADD35RoundRect,0.150000X0.587500X0.150000X-0.587500X0.150000X-0.587500X-0.150000X0.587500X-0.150000X0*%
%ADD36RoundRect,0.375000X-0.375000X0.625000X-0.375000X-0.625000X0.375000X-0.625000X0.375000X0.625000X0*%
%ADD37RoundRect,0.500000X-1.400000X0.500000X-1.400000X-0.500000X1.400000X-0.500000X1.400000X0.500000X0*%
%ADD38RoundRect,0.150000X0.350000X-0.375000X0.350000X0.375000X-0.350000X0.375000X-0.350000X-0.375000X0*%
%ADD39RoundRect,0.157500X0.942500X-0.367500X0.942500X0.367500X-0.942500X0.367500X-0.942500X-0.367500X0*%
%ADD40RoundRect,0.218750X-0.256250X0.218750X-0.256250X-0.218750X0.256250X-0.218750X0.256250X0.218750X0*%
%ADD41RoundRect,0.102000X2.000000X-2.000000X2.000000X2.000000X-2.000000X2.000000X-2.000000X-2.000000X0*%
%ADD42RoundRect,0.150000X0.150000X-0.825000X0.150000X0.825000X-0.150000X0.825000X-0.150000X-0.825000X0*%
%ADD43RoundRect,0.250000X-2.500000X0.250000X-2.500000X-0.250000X2.500000X-0.250000X2.500000X0.250000X0*%
%ADD44RoundRect,0.250000X-1.250000X0.550000X-1.250000X-0.550000X1.250000X-0.550000X1.250000X0.550000X0*%
G04 APERTURE END LIST*
D10*
G36*
X139349206Y-139663330D02*
G01*
X137450794Y-139663330D01*
X137450794Y-138452219D01*
X137561905Y-138452219D01*
X137561905Y-139452219D01*
X137563826Y-139471728D01*
X137578758Y-139507776D01*
X137606348Y-139535366D01*
X137642396Y-139550298D01*
X137661905Y-139552219D01*
X138138095Y-139552219D01*
X138157604Y-139550298D01*
X138193652Y-139535366D01*
X138221242Y-139507776D01*
X138236174Y-139471728D01*
X138236174Y-139432710D01*
X138221242Y-139396662D01*
X138193652Y-139369072D01*
X138157604Y-139354140D01*
X138138095Y-139352219D01*
X137761905Y-139352219D01*
X137761905Y-139028409D01*
X137995238Y-139028409D01*
X138014747Y-139026488D01*
X138050795Y-139011556D01*
X138078385Y-138983966D01*
X138093317Y-138947918D01*
X138093317Y-138908900D01*
X138078385Y-138872852D01*
X138050795Y-138845262D01*
X138014747Y-138830330D01*
X137995238Y-138828409D01*
X137761905Y-138828409D01*
X137761905Y-138552219D01*
X138138095Y-138552219D01*
X138157604Y-138550298D01*
X138193652Y-138535366D01*
X138221242Y-138507776D01*
X138236174Y-138471728D01*
X138236174Y-138452219D01*
X138466667Y-138452219D01*
X138466667Y-139452219D01*
X138468588Y-139471728D01*
X138483520Y-139507776D01*
X138511110Y-139535366D01*
X138547158Y-139550298D01*
X138586176Y-139550298D01*
X138622224Y-139535366D01*
X138649814Y-139507776D01*
X138664746Y-139471728D01*
X138666667Y-139452219D01*
X138666667Y-138828775D01*
X139051271Y-139501833D01*
X139054189Y-139505943D01*
X139054948Y-139507776D01*
X139056814Y-139509642D01*
X139062618Y-139517818D01*
X139073134Y-139525962D01*
X139082538Y-139535366D01*
X139088425Y-139537804D01*
X139093467Y-139541709D01*
X139106299Y-139545208D01*
X139118586Y-139550298D01*
X139124962Y-139550298D01*
X139131111Y-139551975D01*
X139144304Y-139550298D01*
X139157604Y-139550298D01*
X139163492Y-139547858D01*
X139169817Y-139547055D01*
X139181366Y-139540454D01*
X139193652Y-139535366D01*
X139198159Y-139530858D01*
X139203694Y-139527696D01*
X139211838Y-139517179D01*
X139221242Y-139507776D01*
X139223680Y-139501888D01*
X139227585Y-139496847D01*
X139231084Y-139484014D01*
X139236174Y-139471728D01*
X139237156Y-139461750D01*
X139237851Y-139459204D01*
X139237600Y-139457236D01*
X139238095Y-139452219D01*
X139238095Y-138452219D01*
X139236174Y-138432710D01*
X139221242Y-138396662D01*
X139193652Y-138369072D01*
X139157604Y-138354140D01*
X139118586Y-138354140D01*
X139082538Y-138369072D01*
X139054948Y-138396662D01*
X139040016Y-138432710D01*
X139038095Y-138452219D01*
X139038095Y-139075662D01*
X138653491Y-138402605D01*
X138650572Y-138398494D01*
X138649814Y-138396662D01*
X138647947Y-138394795D01*
X138642144Y-138386620D01*
X138631629Y-138378477D01*
X138622224Y-138369072D01*
X138616333Y-138366632D01*
X138611295Y-138362730D01*
X138598466Y-138359231D01*
X138586176Y-138354140D01*
X138579801Y-138354140D01*
X138573652Y-138352463D01*
X138560459Y-138354140D01*
X138547158Y-138354140D01*
X138541269Y-138356579D01*
X138534945Y-138357383D01*
X138523395Y-138363983D01*
X138511110Y-138369072D01*
X138506602Y-138373579D01*
X138501068Y-138376742D01*
X138492925Y-138387256D01*
X138483520Y-138396662D01*
X138481080Y-138402552D01*
X138477178Y-138407591D01*
X138473679Y-138420419D01*
X138468588Y-138432710D01*
X138467605Y-138442687D01*
X138466911Y-138445234D01*
X138467161Y-138447201D01*
X138466667Y-138452219D01*
X138236174Y-138452219D01*
X138236174Y-138432710D01*
X138221242Y-138396662D01*
X138193652Y-138369072D01*
X138157604Y-138354140D01*
X138138095Y-138352219D01*
X137661905Y-138352219D01*
X137642396Y-138354140D01*
X137606348Y-138369072D01*
X137578758Y-138396662D01*
X137563826Y-138432710D01*
X137561905Y-138452219D01*
X137450794Y-138452219D01*
X137450794Y-138241108D01*
X139349206Y-138241108D01*
X139349206Y-139663330D01*
G37*
G36*
X136534135Y-109763330D02*
G01*
X133114620Y-109763330D01*
X133114620Y-108532710D01*
X133225731Y-108532710D01*
X133225731Y-108571728D01*
X133240663Y-108607776D01*
X133268253Y-108635366D01*
X133304301Y-108650298D01*
X133323810Y-108652219D01*
X133722480Y-108652219D01*
X133534266Y-108867321D01*
X133528236Y-108875754D01*
X133526377Y-108877614D01*
X133525646Y-108879377D01*
X133522865Y-108883268D01*
X133517660Y-108898656D01*
X133511445Y-108913662D01*
X133511445Y-108917035D01*
X133510365Y-108920229D01*
X133511445Y-108936431D01*
X133511445Y-108952680D01*
X133512735Y-108955795D01*
X133512960Y-108959161D01*
X133520160Y-108973721D01*
X133526377Y-108988728D01*
X133528761Y-108991112D01*
X133530257Y-108994136D01*
X133542482Y-109004833D01*
X133553967Y-109016318D01*
X133557081Y-109017608D01*
X133559621Y-109019830D01*
X133575009Y-109025034D01*
X133590015Y-109031250D01*
X133594774Y-109031718D01*
X133596582Y-109032330D01*
X133599206Y-109032155D01*
X133609524Y-109033171D01*
X133728774Y-109033171D01*
X133788383Y-109062976D01*
X133813052Y-109087644D01*
X133842857Y-109147254D01*
X133842857Y-109338135D01*
X133813052Y-109397743D01*
X133788383Y-109422413D01*
X133728774Y-109452219D01*
X133490274Y-109452219D01*
X133430664Y-109422414D01*
X133394521Y-109386270D01*
X133379368Y-109373833D01*
X133343320Y-109358902D01*
X133304302Y-109358901D01*
X133268253Y-109373832D01*
X133240663Y-109401422D01*
X133225732Y-109437470D01*
X133225731Y-109476488D01*
X133240662Y-109512537D01*
X133253099Y-109527690D01*
X133300717Y-109575310D01*
X133308385Y-109581603D01*
X133310117Y-109583600D01*
X133313125Y-109585493D01*
X133315871Y-109587747D01*
X133318311Y-109588757D01*
X133326708Y-109594043D01*
X133421945Y-109641662D01*
X133440254Y-109648668D01*
X133443837Y-109648922D01*
X133447158Y-109650298D01*
X133466667Y-109652219D01*
X133752381Y-109652219D01*
X133771890Y-109650298D01*
X133775210Y-109648922D01*
X133778794Y-109648668D01*
X133797102Y-109641662D01*
X133892340Y-109594043D01*
X133900735Y-109588758D01*
X133903177Y-109587747D01*
X133905924Y-109585491D01*
X133908930Y-109583600D01*
X133910660Y-109581605D01*
X133918330Y-109575310D01*
X133965949Y-109527690D01*
X133972241Y-109520023D01*
X133974238Y-109518292D01*
X133976131Y-109515284D01*
X133978386Y-109512537D01*
X133979397Y-109510095D01*
X133984681Y-109501701D01*
X133992986Y-109485091D01*
X134225731Y-109485091D01*
X134225731Y-109524109D01*
X134232194Y-109539711D01*
X134240663Y-109560158D01*
X134240667Y-109560162D01*
X134253099Y-109575311D01*
X134300718Y-109622929D01*
X134315871Y-109635366D01*
X134324874Y-109639095D01*
X134351920Y-109650298D01*
X134390938Y-109650298D01*
X134426986Y-109635366D01*
X134442140Y-109622930D01*
X134489758Y-109575311D01*
X134502195Y-109560158D01*
X134508947Y-109543856D01*
X134517126Y-109524110D01*
X134517127Y-109485092D01*
X134502196Y-109449043D01*
X134489759Y-109433890D01*
X134442140Y-109386270D01*
X134426987Y-109373833D01*
X134412055Y-109367648D01*
X134390938Y-109358901D01*
X134351920Y-109358901D01*
X134341362Y-109363274D01*
X134315872Y-109373832D01*
X134315871Y-109373833D01*
X134300717Y-109386270D01*
X134253099Y-109433890D01*
X134240662Y-109449043D01*
X134230649Y-109473219D01*
X134225731Y-109485091D01*
X133992986Y-109485091D01*
X134032300Y-109406464D01*
X134039306Y-109388155D01*
X134039560Y-109384571D01*
X134040936Y-109381251D01*
X134042857Y-109361742D01*
X134042857Y-109123647D01*
X134040936Y-109104138D01*
X134039560Y-109100817D01*
X134039306Y-109097234D01*
X134032300Y-109078925D01*
X133984681Y-108983688D01*
X133979395Y-108975291D01*
X133978385Y-108972851D01*
X133976131Y-108970105D01*
X133974238Y-108967097D01*
X133972240Y-108965364D01*
X133965948Y-108957698D01*
X133918330Y-108910079D01*
X133910659Y-108903784D01*
X133908930Y-108901790D01*
X133905922Y-108899896D01*
X133903176Y-108897643D01*
X133900736Y-108896632D01*
X133892340Y-108891347D01*
X133813492Y-108851923D01*
X134018115Y-108618069D01*
X134024144Y-108609635D01*
X134026004Y-108607776D01*
X134026734Y-108606012D01*
X134029516Y-108602122D01*
X134034720Y-108586733D01*
X134040936Y-108571728D01*
X134040936Y-108568354D01*
X134042016Y-108565161D01*
X134040936Y-108548958D01*
X134040936Y-108532710D01*
X134654302Y-108532710D01*
X134654302Y-108571728D01*
X134669234Y-108607776D01*
X134696824Y-108635366D01*
X134732872Y-108650298D01*
X134752381Y-108652219D01*
X135151051Y-108652219D01*
X134962837Y-108867321D01*
X134956807Y-108875754D01*
X134954948Y-108877614D01*
X134954217Y-108879377D01*
X134951436Y-108883268D01*
X134946231Y-108898656D01*
X134940016Y-108913662D01*
X134940016Y-108917035D01*
X134938936Y-108920229D01*
X134940016Y-108936431D01*
X134940016Y-108952680D01*
X134941306Y-108955795D01*
X134941531Y-108959161D01*
X134948731Y-108973721D01*
X134954948Y-108988728D01*
X134957332Y-108991112D01*
X134958828Y-108994136D01*
X134971053Y-109004833D01*
X134982538Y-109016318D01*
X134985652Y-109017608D01*
X134988192Y-109019830D01*
X135003580Y-109025034D01*
X135018586Y-109031250D01*
X135023345Y-109031718D01*
X135025153Y-109032330D01*
X135027777Y-109032155D01*
X135038095Y-109033171D01*
X135157345Y-109033171D01*
X135216954Y-109062976D01*
X135241623Y-109087644D01*
X135271428Y-109147254D01*
X135271428Y-109338135D01*
X135241623Y-109397743D01*
X135216954Y-109422413D01*
X135157345Y-109452219D01*
X134918845Y-109452219D01*
X134859235Y-109422414D01*
X134823092Y-109386270D01*
X134807939Y-109373833D01*
X134771891Y-109358902D01*
X134732873Y-109358901D01*
X134696824Y-109373832D01*
X134669234Y-109401422D01*
X134654303Y-109437470D01*
X134654302Y-109476488D01*
X134669233Y-109512537D01*
X134681670Y-109527690D01*
X134729288Y-109575310D01*
X134736956Y-109581603D01*
X134738688Y-109583600D01*
X134741696Y-109585493D01*
X134744442Y-109587747D01*
X134746882Y-109588757D01*
X134755279Y-109594043D01*
X134850516Y-109641662D01*
X134868825Y-109648668D01*
X134872408Y-109648922D01*
X134875729Y-109650298D01*
X134895238Y-109652219D01*
X135180952Y-109652219D01*
X135200461Y-109650298D01*
X135203781Y-109648922D01*
X135207365Y-109648668D01*
X135225673Y-109641662D01*
X135320911Y-109594043D01*
X135329306Y-109588758D01*
X135331748Y-109587747D01*
X135334495Y-109585491D01*
X135337501Y-109583600D01*
X135339231Y-109581605D01*
X135346901Y-109575310D01*
X135394520Y-109527690D01*
X135400812Y-109520023D01*
X135402809Y-109518292D01*
X135404702Y-109515284D01*
X135406957Y-109512537D01*
X135407968Y-109510095D01*
X135413252Y-109501701D01*
X135460871Y-109406464D01*
X135467877Y-109388155D01*
X135468131Y-109384571D01*
X135469507Y-109381251D01*
X135471428Y-109361742D01*
X135471428Y-109123647D01*
X135469507Y-109104138D01*
X135468131Y-109100817D01*
X135467877Y-109097234D01*
X135460871Y-109078925D01*
X135413252Y-108983688D01*
X135407966Y-108975291D01*
X135406956Y-108972851D01*
X135404702Y-108970105D01*
X135402809Y-108967097D01*
X135400811Y-108965364D01*
X135394519Y-108957698D01*
X135346901Y-108910079D01*
X135339230Y-108903784D01*
X135337501Y-108901790D01*
X135334493Y-108899896D01*
X135331747Y-108897643D01*
X135329307Y-108896632D01*
X135320911Y-108891347D01*
X135242063Y-108851923D01*
X135446686Y-108618069D01*
X135452715Y-108609635D01*
X135454575Y-108607776D01*
X135455305Y-108606012D01*
X135458087Y-108602122D01*
X135463291Y-108586733D01*
X135469507Y-108571728D01*
X135469507Y-108568354D01*
X135470587Y-108565161D01*
X135470558Y-108564726D01*
X135557928Y-108564726D01*
X135562275Y-108583842D01*
X135895608Y-109583841D01*
X135903599Y-109601742D01*
X135908282Y-109607141D01*
X135911477Y-109613531D01*
X135920948Y-109621746D01*
X135929164Y-109631218D01*
X135935552Y-109634412D01*
X135940953Y-109639096D01*
X135952854Y-109643063D01*
X135964063Y-109648667D01*
X135971187Y-109649173D01*
X135977969Y-109651434D01*
X135990478Y-109650544D01*
X136002983Y-109651434D01*
X136009761Y-109649174D01*
X136016889Y-109648668D01*
X136028105Y-109643059D01*
X136039999Y-109639095D01*
X136045396Y-109634414D01*
X136051788Y-109631218D01*
X136060006Y-109621742D01*
X136069475Y-109613530D01*
X136072668Y-109607143D01*
X136077353Y-109601742D01*
X136085344Y-109583842D01*
X136418677Y-108583842D01*
X136423024Y-108564727D01*
X136420258Y-108525807D01*
X136402808Y-108490908D01*
X136373332Y-108465343D01*
X136336316Y-108453004D01*
X136297396Y-108455771D01*
X136262497Y-108473220D01*
X136236932Y-108502696D01*
X136228941Y-108520597D01*
X135990476Y-109235991D01*
X135752011Y-108520596D01*
X135744020Y-108502696D01*
X135718455Y-108473220D01*
X135683556Y-108455770D01*
X135644636Y-108453004D01*
X135607620Y-108465342D01*
X135578144Y-108490907D01*
X135560694Y-108525806D01*
X135557928Y-108564726D01*
X135470558Y-108564726D01*
X135469507Y-108548958D01*
X135469507Y-108532710D01*
X135468216Y-108529594D01*
X135467992Y-108526229D01*
X135460789Y-108511663D01*
X135454575Y-108496662D01*
X135452191Y-108494278D01*
X135450696Y-108491254D01*
X135438462Y-108480549D01*
X135426985Y-108469072D01*
X135423871Y-108467782D01*
X135421332Y-108465560D01*
X135405940Y-108460354D01*
X135390937Y-108454140D01*
X135386177Y-108453671D01*
X135384370Y-108453060D01*
X135381745Y-108453234D01*
X135371428Y-108452219D01*
X134752381Y-108452219D01*
X134732872Y-108454140D01*
X134696824Y-108469072D01*
X134669234Y-108496662D01*
X134654302Y-108532710D01*
X134040936Y-108532710D01*
X134039645Y-108529594D01*
X134039421Y-108526229D01*
X134032218Y-108511663D01*
X134026004Y-108496662D01*
X134023620Y-108494278D01*
X134022125Y-108491254D01*
X134009891Y-108480549D01*
X133998414Y-108469072D01*
X133995300Y-108467782D01*
X133992761Y-108465560D01*
X133977369Y-108460354D01*
X133962366Y-108454140D01*
X133957606Y-108453671D01*
X133955799Y-108453060D01*
X133953174Y-108453234D01*
X133942857Y-108452219D01*
X133323810Y-108452219D01*
X133304301Y-108454140D01*
X133268253Y-108469072D01*
X133240663Y-108496662D01*
X133225731Y-108532710D01*
X133114620Y-108532710D01*
X133114620Y-108341108D01*
X136534135Y-108341108D01*
X136534135Y-109763330D01*
G37*
G36*
X140569790Y-137963430D02*
G01*
X140589242Y-137982882D01*
X140619047Y-138042492D01*
X140619047Y-138138135D01*
X140589242Y-138197743D01*
X140564573Y-138222413D01*
X140504964Y-138252219D01*
X140247619Y-138252219D01*
X140247619Y-137928409D01*
X140464725Y-137928409D01*
X140569790Y-137963430D01*
G37*
G36*
X140516954Y-137482024D02*
G01*
X140541623Y-137506692D01*
X140571428Y-137566302D01*
X140571428Y-137614326D01*
X140541623Y-137673935D01*
X140516954Y-137698603D01*
X140457345Y-137728409D01*
X140247619Y-137728409D01*
X140247619Y-137452219D01*
X140457345Y-137452219D01*
X140516954Y-137482024D01*
G37*
G36*
X141469335Y-137815357D02*
G01*
X141494004Y-137840025D01*
X141523809Y-137899635D01*
X141523809Y-138138135D01*
X141494004Y-138197743D01*
X141469335Y-138222413D01*
X141409726Y-138252219D01*
X141314083Y-138252219D01*
X141254473Y-138222414D01*
X141229806Y-138197746D01*
X141200000Y-138138134D01*
X141200000Y-137899635D01*
X141229805Y-137840025D01*
X141254473Y-137815356D01*
X141314083Y-137785552D01*
X141409726Y-137785552D01*
X141469335Y-137815357D01*
G37*
G36*
X142374097Y-137815357D02*
G01*
X142398766Y-137840025D01*
X142428571Y-137899635D01*
X142428571Y-138138135D01*
X142398766Y-138197743D01*
X142374097Y-138222413D01*
X142314488Y-138252219D01*
X142218845Y-138252219D01*
X142159235Y-138222414D01*
X142134568Y-138197746D01*
X142104762Y-138138134D01*
X142104762Y-137899635D01*
X142134567Y-137840025D01*
X142159235Y-137815356D01*
X142218845Y-137785552D01*
X142314488Y-137785552D01*
X142374097Y-137815357D01*
G37*
G36*
X143404428Y-138563330D02*
G01*
X139936508Y-138563330D01*
X139936508Y-137352219D01*
X140047619Y-137352219D01*
X140047619Y-138352219D01*
X140049540Y-138371728D01*
X140064472Y-138407776D01*
X140092062Y-138435366D01*
X140128110Y-138450298D01*
X140147619Y-138452219D01*
X140528571Y-138452219D01*
X140548080Y-138450298D01*
X140551400Y-138448922D01*
X140554984Y-138448668D01*
X140573292Y-138441662D01*
X140668530Y-138394043D01*
X140676925Y-138388758D01*
X140679367Y-138387747D01*
X140682114Y-138385491D01*
X140685120Y-138383600D01*
X140686850Y-138381605D01*
X140694520Y-138375310D01*
X140742139Y-138327690D01*
X140748431Y-138320023D01*
X140750428Y-138318292D01*
X140752321Y-138315284D01*
X140754576Y-138312537D01*
X140755587Y-138310095D01*
X140760871Y-138301701D01*
X140808490Y-138206464D01*
X140815496Y-138188155D01*
X140815750Y-138184571D01*
X140817126Y-138181251D01*
X140819047Y-138161742D01*
X140819047Y-138018885D01*
X140817126Y-137999376D01*
X140815750Y-137996055D01*
X140815496Y-137992472D01*
X140808490Y-137974163D01*
X140760871Y-137878926D01*
X140759047Y-137876028D01*
X141000000Y-137876028D01*
X141000000Y-138161742D01*
X141001921Y-138181251D01*
X141003296Y-138184571D01*
X141003551Y-138188155D01*
X141010557Y-138206463D01*
X141058176Y-138301701D01*
X141063459Y-138310093D01*
X141064471Y-138312537D01*
X141066727Y-138315286D01*
X141068619Y-138318291D01*
X141070613Y-138320020D01*
X141076908Y-138327690D01*
X141124526Y-138375310D01*
X141132194Y-138381603D01*
X141133926Y-138383600D01*
X141136934Y-138385493D01*
X141139680Y-138387747D01*
X141142120Y-138388757D01*
X141150517Y-138394043D01*
X141245754Y-138441662D01*
X141264063Y-138448668D01*
X141267646Y-138448922D01*
X141270967Y-138450298D01*
X141290476Y-138452219D01*
X141433333Y-138452219D01*
X141452842Y-138450298D01*
X141456162Y-138448922D01*
X141459746Y-138448668D01*
X141478054Y-138441662D01*
X141573292Y-138394043D01*
X141581687Y-138388758D01*
X141584129Y-138387747D01*
X141586876Y-138385491D01*
X141589882Y-138383600D01*
X141591612Y-138381605D01*
X141599282Y-138375310D01*
X141646901Y-138327690D01*
X141653193Y-138320023D01*
X141655190Y-138318292D01*
X141657083Y-138315284D01*
X141659338Y-138312537D01*
X141660349Y-138310095D01*
X141665633Y-138301701D01*
X141713252Y-138206464D01*
X141720258Y-138188155D01*
X141720512Y-138184571D01*
X141721888Y-138181251D01*
X141723809Y-138161742D01*
X141723809Y-137876028D01*
X141904762Y-137876028D01*
X141904762Y-138161742D01*
X141906683Y-138181251D01*
X141908058Y-138184571D01*
X141908313Y-138188155D01*
X141915319Y-138206463D01*
X141962938Y-138301701D01*
X141968221Y-138310093D01*
X141969233Y-138312537D01*
X141971489Y-138315286D01*
X141973381Y-138318291D01*
X141975375Y-138320020D01*
X141981670Y-138327690D01*
X142029288Y-138375310D01*
X142036956Y-138381603D01*
X142038688Y-138383600D01*
X142041696Y-138385493D01*
X142044442Y-138387747D01*
X142046882Y-138388757D01*
X142055279Y-138394043D01*
X142150516Y-138441662D01*
X142168825Y-138448668D01*
X142172408Y-138448922D01*
X142175729Y-138450298D01*
X142195238Y-138452219D01*
X142338095Y-138452219D01*
X142357604Y-138450298D01*
X142360924Y-138448922D01*
X142364508Y-138448668D01*
X142382816Y-138441662D01*
X142478054Y-138394043D01*
X142486449Y-138388758D01*
X142488891Y-138387747D01*
X142491638Y-138385491D01*
X142494644Y-138383600D01*
X142496374Y-138381605D01*
X142504044Y-138375310D01*
X142551663Y-138327690D01*
X142557955Y-138320023D01*
X142559952Y-138318292D01*
X142561845Y-138315284D01*
X142564100Y-138312537D01*
X142565111Y-138310095D01*
X142570395Y-138301701D01*
X142618014Y-138206464D01*
X142625020Y-138188155D01*
X142625274Y-138184571D01*
X142626650Y-138181251D01*
X142628571Y-138161742D01*
X142628571Y-137876028D01*
X142626650Y-137856519D01*
X142625274Y-137853198D01*
X142625020Y-137849615D01*
X142618014Y-137831306D01*
X142570395Y-137736069D01*
X142565109Y-137727672D01*
X142564099Y-137725232D01*
X142561845Y-137722486D01*
X142559952Y-137719478D01*
X142557954Y-137717745D01*
X142551662Y-137710079D01*
X142507627Y-137666043D01*
X142716207Y-137666043D01*
X142716207Y-137705061D01*
X142731139Y-137741109D01*
X142758729Y-137768699D01*
X142794777Y-137783631D01*
X142814286Y-137785552D01*
X142857143Y-137785552D01*
X142857143Y-138209361D01*
X142859064Y-138228870D01*
X142860439Y-138232190D01*
X142860694Y-138235773D01*
X142867700Y-138254082D01*
X142915319Y-138349321D01*
X142917372Y-138352584D01*
X142917886Y-138354123D01*
X142919548Y-138356039D01*
X142925762Y-138365911D01*
X142935233Y-138374125D01*
X142943450Y-138383600D01*
X142953320Y-138389812D01*
X142955238Y-138391476D01*
X142956778Y-138391989D01*
X142960041Y-138394043D01*
X143055278Y-138441662D01*
X143073587Y-138448668D01*
X143077170Y-138448922D01*
X143080491Y-138450298D01*
X143100000Y-138452219D01*
X143195238Y-138452219D01*
X143214747Y-138450298D01*
X143250795Y-138435366D01*
X143278385Y-138407776D01*
X143293317Y-138371728D01*
X143293317Y-138332710D01*
X143278385Y-138296662D01*
X143250795Y-138269072D01*
X143214747Y-138254140D01*
X143195238Y-138252219D01*
X143123607Y-138252219D01*
X143079297Y-138230064D01*
X143057143Y-138185754D01*
X143057143Y-137785552D01*
X143195238Y-137785552D01*
X143214747Y-137783631D01*
X143250795Y-137768699D01*
X143278385Y-137741109D01*
X143293317Y-137705061D01*
X143293317Y-137666043D01*
X143278385Y-137629995D01*
X143250795Y-137602405D01*
X143214747Y-137587473D01*
X143195238Y-137585552D01*
X143057143Y-137585552D01*
X143057143Y-137352219D01*
X143055222Y-137332710D01*
X143040290Y-137296662D01*
X143012700Y-137269072D01*
X142976652Y-137254140D01*
X142937634Y-137254140D01*
X142901586Y-137269072D01*
X142873996Y-137296662D01*
X142859064Y-137332710D01*
X142857143Y-137352219D01*
X142857143Y-137585552D01*
X142814286Y-137585552D01*
X142794777Y-137587473D01*
X142758729Y-137602405D01*
X142731139Y-137629995D01*
X142716207Y-137666043D01*
X142507627Y-137666043D01*
X142504044Y-137662460D01*
X142496373Y-137656165D01*
X142494644Y-137654171D01*
X142491636Y-137652277D01*
X142488890Y-137650024D01*
X142486450Y-137649013D01*
X142478054Y-137643728D01*
X142382816Y-137596109D01*
X142364508Y-137589103D01*
X142360924Y-137588848D01*
X142357604Y-137587473D01*
X142338095Y-137585552D01*
X142195238Y-137585552D01*
X142175729Y-137587473D01*
X142172408Y-137588848D01*
X142168825Y-137589103D01*
X142150516Y-137596109D01*
X142055279Y-137643728D01*
X142046882Y-137649013D01*
X142044442Y-137650024D01*
X142041696Y-137652277D01*
X142038688Y-137654171D01*
X142036955Y-137656168D01*
X142029289Y-137662461D01*
X141981670Y-137710079D01*
X141975375Y-137717749D01*
X141973381Y-137719479D01*
X141971487Y-137722486D01*
X141969234Y-137725233D01*
X141968223Y-137727672D01*
X141962938Y-137736069D01*
X141915319Y-137831307D01*
X141908313Y-137849615D01*
X141908058Y-137853198D01*
X141906683Y-137856519D01*
X141904762Y-137876028D01*
X141723809Y-137876028D01*
X141721888Y-137856519D01*
X141720512Y-137853198D01*
X141720258Y-137849615D01*
X141713252Y-137831306D01*
X141665633Y-137736069D01*
X141660347Y-137727672D01*
X141659337Y-137725232D01*
X141657083Y-137722486D01*
X141655190Y-137719478D01*
X141653192Y-137717745D01*
X141646900Y-137710079D01*
X141599282Y-137662460D01*
X141591611Y-137656165D01*
X141589882Y-137654171D01*
X141586874Y-137652277D01*
X141584128Y-137650024D01*
X141581688Y-137649013D01*
X141573292Y-137643728D01*
X141478054Y-137596109D01*
X141459746Y-137589103D01*
X141456162Y-137588848D01*
X141452842Y-137587473D01*
X141433333Y-137585552D01*
X141290476Y-137585552D01*
X141270967Y-137587473D01*
X141267646Y-137588848D01*
X141264063Y-137589103D01*
X141245754Y-137596109D01*
X141150517Y-137643728D01*
X141142120Y-137649013D01*
X141139680Y-137650024D01*
X141136934Y-137652277D01*
X141133926Y-137654171D01*
X141132193Y-137656168D01*
X141124527Y-137662461D01*
X141076908Y-137710079D01*
X141070613Y-137717749D01*
X141068619Y-137719479D01*
X141066725Y-137722486D01*
X141064472Y-137725233D01*
X141063461Y-137727672D01*
X141058176Y-137736069D01*
X141010557Y-137831307D01*
X141003551Y-137849615D01*
X141003296Y-137853198D01*
X141001921Y-137856519D01*
X141000000Y-137876028D01*
X140759047Y-137876028D01*
X140755585Y-137870529D01*
X140754575Y-137868089D01*
X140752321Y-137865343D01*
X140750428Y-137862335D01*
X140748430Y-137860602D01*
X140742138Y-137852936D01*
X140694520Y-137805317D01*
X140693731Y-137804669D01*
X140694519Y-137803882D01*
X140700811Y-137796215D01*
X140702809Y-137794483D01*
X140704702Y-137791474D01*
X140706956Y-137788729D01*
X140707966Y-137786288D01*
X140713252Y-137777892D01*
X140760871Y-137682655D01*
X140767877Y-137664346D01*
X140768131Y-137660762D01*
X140769507Y-137657442D01*
X140771428Y-137637933D01*
X140771428Y-137542695D01*
X140769507Y-137523186D01*
X140768131Y-137519865D01*
X140767877Y-137516282D01*
X140760871Y-137497973D01*
X140713252Y-137402736D01*
X140707966Y-137394339D01*
X140706956Y-137391899D01*
X140704702Y-137389153D01*
X140702809Y-137386145D01*
X140700811Y-137384412D01*
X140694519Y-137376746D01*
X140646901Y-137329127D01*
X140639230Y-137322832D01*
X140637501Y-137320838D01*
X140634493Y-137318944D01*
X140631747Y-137316691D01*
X140629307Y-137315680D01*
X140620911Y-137310395D01*
X140525673Y-137262776D01*
X140507365Y-137255770D01*
X140503781Y-137255515D01*
X140500461Y-137254140D01*
X140480952Y-137252219D01*
X140147619Y-137252219D01*
X140128110Y-137254140D01*
X140092062Y-137269072D01*
X140064472Y-137296662D01*
X140049540Y-137332710D01*
X140047619Y-137352219D01*
X139936508Y-137352219D01*
X139936508Y-137141108D01*
X143404428Y-137141108D01*
X143404428Y-138563330D01*
G37*
D11*
X139150000Y-116850000D02*
X139150000Y-120500000D01*
X139150000Y-120500000D02*
X141150000Y-120500000D01*
X141150000Y-116850000D02*
X139150000Y-116850000D01*
X141150000Y-120500000D02*
X141150000Y-116850000D01*
X141500000Y-118450000D02*
X141500000Y-118900000D01*
X141500000Y-118450000D02*
X141500010Y-118445427D01*
X141500040Y-118440875D01*
X141500090Y-118436342D01*
X141500159Y-118431829D01*
X141500248Y-118427336D01*
X141500357Y-118422862D01*
X141500485Y-118418408D01*
X141500633Y-118413973D01*
X141500800Y-118409558D01*
X141500986Y-118405162D01*
X141501191Y-118400785D01*
X141501415Y-118396427D01*
X141501659Y-118392088D01*
X141501921Y-118387768D01*
X141502202Y-118383467D01*
X141502502Y-118379185D01*
X141502821Y-118374921D01*
X141503158Y-118370676D01*
X141503514Y-118366450D01*
X141503888Y-118362242D01*
X141504281Y-118358052D01*
X141504692Y-118353881D01*
X141505121Y-118349727D01*
X141505568Y-118345592D01*
X141506034Y-118341474D01*
X141506517Y-118337376D01*
X141507019Y-118333294D01*
X141507539Y-118329231D01*
X141508076Y-118325184D01*
X141508631Y-118321156D01*
X141509204Y-118317145D01*
X141509794Y-118313152D01*
X141510403Y-118309175D01*
X141511028Y-118305217D01*
X141511671Y-118301275D01*
X141512332Y-118297351D01*
X141513010Y-118293443D01*
X141513705Y-118289553D01*
X141514418Y-118285679D01*
X141515147Y-118281823D01*
X141515894Y-118277982D01*
X141516658Y-118274160D01*
X141517439Y-118270352D01*
X141518237Y-118266563D01*
X141519052Y-118262788D01*
X141519883Y-118259032D01*
X141520732Y-118255290D01*
X141521597Y-118251566D01*
X141522479Y-118247856D01*
X141523377Y-118244164D01*
X141524293Y-118240487D01*
X141525225Y-118236827D01*
X141526173Y-118233181D01*
X141527138Y-118229553D01*
X141528120Y-118225938D01*
X141529117Y-118222342D01*
X141530132Y-118218758D01*
X141531162Y-118215193D01*
X141532209Y-118211640D01*
X141533272Y-118208105D01*
X141534352Y-118204583D01*
X141535447Y-118201079D01*
X141537686Y-118194113D01*
X141539990Y-118187208D01*
X141542358Y-118180362D01*
X141544790Y-118173574D01*
X141547285Y-118166846D01*
X141549844Y-118160175D01*
X141552467Y-118153562D01*
X141555152Y-118147005D01*
X141557900Y-118140506D01*
X141560711Y-118134062D01*
X141563585Y-118127674D01*
X141566521Y-118121341D01*
X141569520Y-118115062D01*
X141572581Y-118108838D01*
X141575704Y-118102668D01*
X141578890Y-118096551D01*
X141582138Y-118090487D01*
X141585448Y-118084476D01*
X141588820Y-118078517D01*
X141592254Y-118072610D01*
X141595751Y-118066754D01*
X141599310Y-118060950D01*
X141602931Y-118055196D01*
X141606614Y-118049493D01*
X141610360Y-118043841D01*
X141614168Y-118038238D01*
X141618038Y-118032685D01*
X141621972Y-118027181D01*
X141625968Y-118021726D01*
X141630026Y-118016321D01*
X141634148Y-118010964D01*
X141638334Y-118005655D01*
X141642582Y-118000395D01*
X141646894Y-117995183D01*
X141651270Y-117990019D01*
X141655709Y-117984902D01*
X141660213Y-117979833D01*
X141664781Y-117974812D01*
X141669414Y-117969838D01*
X141674111Y-117964912D01*
X141678873Y-117960033D01*
X141683700Y-117955200D01*
X141688593Y-117950416D01*
X141693551Y-117945678D01*
X141698576Y-117940987D01*
X141703666Y-117936344D01*
X141708823Y-117931747D01*
X141714047Y-117927198D01*
X141719337Y-117922696D01*
X141724695Y-117918241D01*
X141730120Y-117913834D01*
X141735613Y-117909474D01*
X141741174Y-117905162D01*
X141746803Y-117900898D01*
X141752500Y-117896682D01*
X141758266Y-117892514D01*
X141764101Y-117888394D01*
X141770005Y-117884323D01*
X141775979Y-117880300D01*
X141782021Y-117876327D01*
X141788134Y-117872403D01*
X141794316Y-117868529D01*
X141800568Y-117864704D01*
X141806891Y-117860930D01*
X141813283Y-117857207D01*
X141819746Y-117853534D01*
X141826279Y-117849913D01*
X141832882Y-117846344D01*
X141839556Y-117842827D01*
X141846300Y-117839363D01*
X141853114Y-117835952D01*
X141859998Y-117832595D01*
X141866952Y-117829292D01*
X141873975Y-117826044D01*
X141881068Y-117822851D01*
X141888230Y-117819714D01*
X141895460Y-117816634D01*
X141902758Y-117813610D01*
X141910124Y-117810645D01*
X141917557Y-117807738D01*
X141925055Y-117804890D01*
X141932619Y-117802102D01*
X141940247Y-117799375D01*
X141947938Y-117796710D01*
X141955691Y-117794106D01*
X141963504Y-117791566D01*
X141971376Y-117789089D01*
X141979305Y-117786678D01*
X141987290Y-117784332D01*
X141995327Y-117782052D01*
X142003415Y-117779841D01*
X142011550Y-117777697D01*
X142019730Y-117775624D01*
X142027951Y-117773621D01*
X142036209Y-117771690D01*
X142044501Y-117769832D01*
X142052820Y-117768048D01*
X142061162Y-117766339D01*
X142069521Y-117764707D01*
X142077888Y-117763152D01*
X142086258Y-117761676D01*
X142094619Y-117760281D01*
X142102962Y-117758967D01*
X142111275Y-117757737D01*
X142119542Y-117756591D01*
X142127749Y-117755532D01*
X142135874Y-117754560D01*
X142143894Y-117753677D01*
X142151780Y-117752886D01*
X142159495Y-117752187D01*
X142166992Y-117751582D01*
X142174210Y-117751074D01*
X142181064Y-117750663D01*
X142187426Y-117750352D01*
X142193092Y-117750140D01*
X142197663Y-117750027D01*
X142200000Y-117750000D01*
X142200000Y-117750000D02*
X145200000Y-117750000D01*
X142200000Y-119600000D02*
X142195427Y-119599990D01*
X142190875Y-119599960D01*
X142186342Y-119599910D01*
X142181829Y-119599841D01*
X142177336Y-119599752D01*
X142172862Y-119599643D01*
X142168408Y-119599515D01*
X142163973Y-119599367D01*
X142159558Y-119599200D01*
X142155162Y-119599014D01*
X142150785Y-119598809D01*
X142146427Y-119598585D01*
X142142088Y-119598341D01*
X142137768Y-119598079D01*
X142133467Y-119597798D01*
X142129185Y-119597498D01*
X142124921Y-119597179D01*
X142120676Y-119596842D01*
X142116450Y-119596486D01*
X142112242Y-119596112D01*
X142108052Y-119595719D01*
X142103881Y-119595308D01*
X142099727Y-119594879D01*
X142095592Y-119594432D01*
X142091474Y-119593966D01*
X142087376Y-119593483D01*
X142083294Y-119592981D01*
X142079231Y-119592461D01*
X142075184Y-119591924D01*
X142071156Y-119591369D01*
X142067145Y-119590796D01*
X142063152Y-119590206D01*
X142059175Y-119589597D01*
X142055217Y-119588972D01*
X142051275Y-119588329D01*
X142047351Y-119587668D01*
X142043443Y-119586990D01*
X142039553Y-119586295D01*
X142035679Y-119585582D01*
X142031823Y-119584853D01*
X142027982Y-119584106D01*
X142024160Y-119583342D01*
X142020352Y-119582561D01*
X142016563Y-119581763D01*
X142012788Y-119580948D01*
X142009032Y-119580117D01*
X142005290Y-119579268D01*
X142001566Y-119578403D01*
X141997856Y-119577521D01*
X141994164Y-119576623D01*
X141990487Y-119575707D01*
X141986827Y-119574775D01*
X141983181Y-119573827D01*
X141979553Y-119572862D01*
X141975938Y-119571880D01*
X141972342Y-119570883D01*
X141968758Y-119569868D01*
X141965193Y-119568838D01*
X141961640Y-119567791D01*
X141958105Y-119566728D01*
X141954583Y-119565648D01*
X141951079Y-119564553D01*
X141944113Y-119562314D01*
X141937208Y-119560010D01*
X141930362Y-119557642D01*
X141923574Y-119555210D01*
X141916846Y-119552715D01*
X141910175Y-119550156D01*
X141903562Y-119547533D01*
X141897005Y-119544848D01*
X141890506Y-119542100D01*
X141884062Y-119539289D01*
X141877674Y-119536415D01*
X141871341Y-119533479D01*
X141865062Y-119530480D01*
X141858838Y-119527419D01*
X141852668Y-119524296D01*
X141846551Y-119521110D01*
X141840487Y-119517862D01*
X141834476Y-119514552D01*
X141828517Y-119511180D01*
X141822610Y-119507746D01*
X141816754Y-119504249D01*
X141810950Y-119500690D01*
X141805196Y-119497069D01*
X141799493Y-119493386D01*
X141793841Y-119489640D01*
X141788238Y-119485832D01*
X141782685Y-119481962D01*
X141777181Y-119478028D01*
X141771726Y-119474032D01*
X141766321Y-119469974D01*
X141760964Y-119465852D01*
X141755655Y-119461666D01*
X141750395Y-119457418D01*
X141745183Y-119453106D01*
X141740019Y-119448730D01*
X141734902Y-119444291D01*
X141729833Y-119439787D01*
X141724812Y-119435219D01*
X141719838Y-119430586D01*
X141714912Y-119425889D01*
X141710033Y-119421127D01*
X141705200Y-119416300D01*
X141700416Y-119411407D01*
X141695678Y-119406449D01*
X141690987Y-119401424D01*
X141686344Y-119396334D01*
X141681747Y-119391177D01*
X141677198Y-119385953D01*
X141672696Y-119380663D01*
X141668241Y-119375305D01*
X141663834Y-119369880D01*
X141659474Y-119364387D01*
X141655162Y-119358826D01*
X141650898Y-119353197D01*
X141646682Y-119347500D01*
X141642514Y-119341734D01*
X141638394Y-119335899D01*
X141634323Y-119329995D01*
X141630300Y-119324021D01*
X141626327Y-119317979D01*
X141622403Y-119311866D01*
X141618529Y-119305684D01*
X141614704Y-119299432D01*
X141610930Y-119293109D01*
X141607207Y-119286717D01*
X141603534Y-119280254D01*
X141599913Y-119273721D01*
X141596344Y-119267118D01*
X141592827Y-119260444D01*
X141589363Y-119253700D01*
X141585952Y-119246886D01*
X141582595Y-119240002D01*
X141579292Y-119233048D01*
X141576044Y-119226025D01*
X141572851Y-119218932D01*
X141569714Y-119211770D01*
X141566634Y-119204540D01*
X141563610Y-119197242D01*
X141560645Y-119189876D01*
X141557738Y-119182443D01*
X141554890Y-119174945D01*
X141552102Y-119167381D01*
X141549375Y-119159753D01*
X141546710Y-119152062D01*
X141544106Y-119144309D01*
X141541566Y-119136496D01*
X141539089Y-119128624D01*
X141536678Y-119120695D01*
X141534332Y-119112710D01*
X141532052Y-119104673D01*
X141529841Y-119096585D01*
X141527697Y-119088450D01*
X141525624Y-119080270D01*
X141523621Y-119072049D01*
X141521690Y-119063791D01*
X141519832Y-119055499D01*
X141518048Y-119047180D01*
X141516339Y-119038838D01*
X141514707Y-119030479D01*
X141513152Y-119022112D01*
X141511676Y-119013742D01*
X141510281Y-119005381D01*
X141508967Y-118997038D01*
X141507737Y-118988725D01*
X141506591Y-118980458D01*
X141505532Y-118972251D01*
X141504560Y-118964126D01*
X141503677Y-118956106D01*
X141502886Y-118948220D01*
X141502187Y-118940505D01*
X141501582Y-118933008D01*
X141501074Y-118925790D01*
X141500663Y-118918936D01*
X141500352Y-118912574D01*
X141500140Y-118906908D01*
X141500027Y-118902337D01*
X141500000Y-118900000D01*
X142200000Y-119600000D02*
X145200000Y-119600000D01*
X145200000Y-117750000D02*
X145204573Y-117750010D01*
X145209125Y-117750040D01*
X145213658Y-117750090D01*
X145218171Y-117750159D01*
X145222664Y-117750248D01*
X145227138Y-117750357D01*
X145231592Y-117750485D01*
X145236027Y-117750633D01*
X145240442Y-117750800D01*
X145244838Y-117750986D01*
X145249215Y-117751191D01*
X145253573Y-117751415D01*
X145257912Y-117751659D01*
X145262232Y-117751921D01*
X145266533Y-117752202D01*
X145270815Y-117752502D01*
X145275079Y-117752821D01*
X145279324Y-117753158D01*
X145283550Y-117753514D01*
X145287758Y-117753888D01*
X145291948Y-117754281D01*
X145296119Y-117754692D01*
X145300273Y-117755121D01*
X145304408Y-117755568D01*
X145308526Y-117756034D01*
X145312624Y-117756517D01*
X145316706Y-117757019D01*
X145320769Y-117757539D01*
X145324816Y-117758076D01*
X145328844Y-117758631D01*
X145332855Y-117759204D01*
X145336848Y-117759794D01*
X145340825Y-117760403D01*
X145344783Y-117761028D01*
X145348725Y-117761671D01*
X145352649Y-117762332D01*
X145356557Y-117763010D01*
X145360447Y-117763705D01*
X145364321Y-117764418D01*
X145368177Y-117765147D01*
X145372018Y-117765894D01*
X145375840Y-117766658D01*
X145379648Y-117767439D01*
X145383437Y-117768237D01*
X145387212Y-117769052D01*
X145390968Y-117769883D01*
X145394710Y-117770732D01*
X145398434Y-117771597D01*
X145402144Y-117772479D01*
X145405836Y-117773377D01*
X145409513Y-117774293D01*
X145413173Y-117775225D01*
X145416819Y-117776173D01*
X145420447Y-117777138D01*
X145424062Y-117778120D01*
X145427658Y-117779117D01*
X145431242Y-117780132D01*
X145434807Y-117781162D01*
X145438360Y-117782209D01*
X145441895Y-117783272D01*
X145445417Y-117784352D01*
X145448921Y-117785447D01*
X145455887Y-117787686D01*
X145462792Y-117789990D01*
X145469638Y-117792358D01*
X145476426Y-117794790D01*
X145483154Y-117797285D01*
X145489825Y-117799844D01*
X145496438Y-117802467D01*
X145502995Y-117805152D01*
X145509494Y-117807900D01*
X145515938Y-117810711D01*
X145522326Y-117813585D01*
X145528659Y-117816521D01*
X145534938Y-117819520D01*
X145541162Y-117822581D01*
X145547332Y-117825704D01*
X145553449Y-117828890D01*
X145559513Y-117832138D01*
X145565524Y-117835448D01*
X145571483Y-117838820D01*
X145577390Y-117842254D01*
X145583246Y-117845751D01*
X145589050Y-117849310D01*
X145594804Y-117852931D01*
X145600507Y-117856614D01*
X145606159Y-117860360D01*
X145611762Y-117864168D01*
X145617315Y-117868038D01*
X145622819Y-117871972D01*
X145628274Y-117875968D01*
X145633679Y-117880026D01*
X145639036Y-117884148D01*
X145644345Y-117888334D01*
X145649605Y-117892582D01*
X145654817Y-117896894D01*
X145659981Y-117901270D01*
X145665098Y-117905709D01*
X145670167Y-117910213D01*
X145675188Y-117914781D01*
X145680162Y-117919414D01*
X145685088Y-117924111D01*
X145689967Y-117928873D01*
X145694800Y-117933700D01*
X145699584Y-117938593D01*
X145704322Y-117943551D01*
X145709013Y-117948576D01*
X145713656Y-117953666D01*
X145718253Y-117958823D01*
X145722802Y-117964047D01*
X145727304Y-117969337D01*
X145731759Y-117974695D01*
X145736166Y-117980120D01*
X145740526Y-117985613D01*
X145744838Y-117991174D01*
X145749102Y-117996803D01*
X145753318Y-118002500D01*
X145757486Y-118008266D01*
X145761606Y-118014101D01*
X145765677Y-118020005D01*
X145769700Y-118025979D01*
X145773673Y-118032021D01*
X145777597Y-118038134D01*
X145781471Y-118044316D01*
X145785296Y-118050568D01*
X145789070Y-118056891D01*
X145792793Y-118063283D01*
X145796466Y-118069746D01*
X145800087Y-118076279D01*
X145803656Y-118082882D01*
X145807173Y-118089556D01*
X145810637Y-118096300D01*
X145814048Y-118103114D01*
X145817405Y-118109998D01*
X145820708Y-118116952D01*
X145823956Y-118123975D01*
X145827149Y-118131068D01*
X145830286Y-118138230D01*
X145833366Y-118145460D01*
X145836390Y-118152758D01*
X145839355Y-118160124D01*
X145842262Y-118167557D01*
X145845110Y-118175055D01*
X145847898Y-118182619D01*
X145850625Y-118190247D01*
X145853290Y-118197938D01*
X145855894Y-118205691D01*
X145858434Y-118213504D01*
X145860911Y-118221376D01*
X145863322Y-118229305D01*
X145865668Y-118237290D01*
X145867948Y-118245327D01*
X145870159Y-118253415D01*
X145872303Y-118261550D01*
X145874376Y-118269730D01*
X145876379Y-118277951D01*
X145878310Y-118286209D01*
X145880168Y-118294501D01*
X145881952Y-118302820D01*
X145883661Y-118311162D01*
X145885293Y-118319521D01*
X145886848Y-118327888D01*
X145888324Y-118336258D01*
X145889719Y-118344619D01*
X145891033Y-118352962D01*
X145892263Y-118361275D01*
X145893409Y-118369542D01*
X145894468Y-118377749D01*
X145895440Y-118385874D01*
X145896323Y-118393894D01*
X145897114Y-118401780D01*
X145897813Y-118409495D01*
X145898418Y-118416992D01*
X145898926Y-118424210D01*
X145899337Y-118431064D01*
X145899648Y-118437426D01*
X145899860Y-118443092D01*
X145899973Y-118447663D01*
X145900000Y-118450000D01*
X145900000Y-118450000D02*
X145900000Y-118900000D01*
X145900000Y-118900000D02*
X145899990Y-118904573D01*
X145899960Y-118909125D01*
X145899910Y-118913658D01*
X145899841Y-118918171D01*
X145899752Y-118922664D01*
X145899643Y-118927138D01*
X145899515Y-118931592D01*
X145899367Y-118936027D01*
X145899200Y-118940442D01*
X145899014Y-118944838D01*
X145898809Y-118949215D01*
X145898585Y-118953573D01*
X145898341Y-118957912D01*
X145898079Y-118962232D01*
X145897798Y-118966533D01*
X145897498Y-118970815D01*
X145897179Y-118975079D01*
X145896842Y-118979324D01*
X145896486Y-118983550D01*
X145896112Y-118987758D01*
X145895719Y-118991948D01*
X145895308Y-118996119D01*
X145894879Y-119000273D01*
X145894432Y-119004408D01*
X145893966Y-119008526D01*
X145893483Y-119012624D01*
X145892981Y-119016706D01*
X145892461Y-119020769D01*
X145891924Y-119024816D01*
X145891369Y-119028844D01*
X145890796Y-119032855D01*
X145890206Y-119036848D01*
X145889597Y-119040825D01*
X145888972Y-119044783D01*
X145888329Y-119048725D01*
X145887668Y-119052649D01*
X145886990Y-119056557D01*
X145886295Y-119060447D01*
X145885582Y-119064321D01*
X145884853Y-119068177D01*
X145884106Y-119072018D01*
X145883342Y-119075840D01*
X145882561Y-119079648D01*
X145881763Y-119083437D01*
X145880948Y-119087212D01*
X145880117Y-119090968D01*
X145879268Y-119094710D01*
X145878403Y-119098434D01*
X145877521Y-119102144D01*
X145876623Y-119105836D01*
X145875707Y-119109513D01*
X145874775Y-119113173D01*
X145873827Y-119116819D01*
X145872862Y-119120447D01*
X145871880Y-119124062D01*
X145870883Y-119127658D01*
X145869868Y-119131242D01*
X145868838Y-119134807D01*
X145867791Y-119138360D01*
X145866728Y-119141895D01*
X145865648Y-119145417D01*
X145864553Y-119148921D01*
X145862314Y-119155887D01*
X145860010Y-119162792D01*
X145857642Y-119169638D01*
X145855210Y-119176426D01*
X145852715Y-119183154D01*
X145850156Y-119189825D01*
X145847533Y-119196438D01*
X145844848Y-119202995D01*
X145842100Y-119209494D01*
X145839289Y-119215938D01*
X145836415Y-119222326D01*
X145833479Y-119228659D01*
X145830480Y-119234938D01*
X145827419Y-119241162D01*
X145824296Y-119247332D01*
X145821110Y-119253449D01*
X145817862Y-119259513D01*
X145814552Y-119265524D01*
X145811180Y-119271483D01*
X145807746Y-119277390D01*
X145804249Y-119283246D01*
X145800690Y-119289050D01*
X145797069Y-119294804D01*
X145793386Y-119300507D01*
X145789640Y-119306159D01*
X145785832Y-119311762D01*
X145781962Y-119317315D01*
X145778028Y-119322819D01*
X145774032Y-119328274D01*
X145769974Y-119333679D01*
X145765852Y-119339036D01*
X145761666Y-119344345D01*
X145757418Y-119349605D01*
X145753106Y-119354817D01*
X145748730Y-119359981D01*
X145744291Y-119365098D01*
X145739787Y-119370167D01*
X145735219Y-119375188D01*
X145730586Y-119380162D01*
X145725889Y-119385088D01*
X145721127Y-119389967D01*
X145716300Y-119394800D01*
X145711407Y-119399584D01*
X145706449Y-119404322D01*
X145701424Y-119409013D01*
X145696334Y-119413656D01*
X145691177Y-119418253D01*
X145685953Y-119422802D01*
X145680663Y-119427304D01*
X145675305Y-119431759D01*
X145669880Y-119436166D01*
X145664387Y-119440526D01*
X145658826Y-119444838D01*
X145653197Y-119449102D01*
X145647500Y-119453318D01*
X145641734Y-119457486D01*
X145635899Y-119461606D01*
X145629995Y-119465677D01*
X145624021Y-119469700D01*
X145617979Y-119473673D01*
X145611866Y-119477597D01*
X145605684Y-119481471D01*
X145599432Y-119485296D01*
X145593109Y-119489070D01*
X145586717Y-119492793D01*
X145580254Y-119496466D01*
X145573721Y-119500087D01*
X145567118Y-119503656D01*
X145560444Y-119507173D01*
X145553700Y-119510637D01*
X145546886Y-119514048D01*
X145540002Y-119517405D01*
X145533048Y-119520708D01*
X145526025Y-119523956D01*
X145518932Y-119527149D01*
X145511770Y-119530286D01*
X145504540Y-119533366D01*
X145497242Y-119536390D01*
X145489876Y-119539355D01*
X145482443Y-119542262D01*
X145474945Y-119545110D01*
X145467381Y-119547898D01*
X145459753Y-119550625D01*
X145452062Y-119553290D01*
X145444309Y-119555894D01*
X145436496Y-119558434D01*
X145428624Y-119560911D01*
X145420695Y-119563322D01*
X145412710Y-119565668D01*
X145404673Y-119567948D01*
X145396585Y-119570159D01*
X145388450Y-119572303D01*
X145380270Y-119574376D01*
X145372049Y-119576379D01*
X145363791Y-119578310D01*
X145355499Y-119580168D01*
X145347180Y-119581952D01*
X145338838Y-119583661D01*
X145330479Y-119585293D01*
X145322112Y-119586848D01*
X145313742Y-119588324D01*
X145305381Y-119589719D01*
X145297038Y-119591033D01*
X145288725Y-119592263D01*
X145280458Y-119593409D01*
X145272251Y-119594468D01*
X145264126Y-119595440D01*
X145256106Y-119596323D01*
X145248220Y-119597114D01*
X145240505Y-119597813D01*
X145233008Y-119598418D01*
X145225790Y-119598926D01*
X145218936Y-119599337D01*
X145212574Y-119599648D01*
X145206908Y-119599860D01*
X145202337Y-119599973D01*
X145200000Y-119600000D01*
D10*
G36*
X135938837Y-100687240D02*
G01*
X136005910Y-100754313D01*
X136041362Y-100825218D01*
X136083333Y-100993099D01*
X136083333Y-101111337D01*
X136041362Y-101279218D01*
X136005909Y-101350124D01*
X135938838Y-101417197D01*
X135833773Y-101452219D01*
X135711905Y-101452219D01*
X135711905Y-100652219D01*
X135833773Y-100652219D01*
X135938837Y-100687240D01*
G37*
G36*
X136394444Y-101763330D02*
G01*
X133305556Y-101763330D01*
X133305556Y-100980790D01*
X133416667Y-100980790D01*
X133416667Y-101123647D01*
X133417002Y-101127049D01*
X133416785Y-101128508D01*
X133417864Y-101135805D01*
X133418588Y-101143156D01*
X133419152Y-101144519D01*
X133419653Y-101147901D01*
X133467272Y-101338376D01*
X133467785Y-101339813D01*
X133467837Y-101340536D01*
X133470945Y-101348660D01*
X133473867Y-101356837D01*
X133474297Y-101357417D01*
X133474843Y-101358844D01*
X133522462Y-101454082D01*
X133527744Y-101462474D01*
X133528757Y-101464918D01*
X133531013Y-101467667D01*
X133532905Y-101470672D01*
X133534899Y-101472401D01*
X133541194Y-101480071D01*
X133636432Y-101575311D01*
X133651585Y-101587747D01*
X133654904Y-101589122D01*
X133657620Y-101591477D01*
X133675520Y-101599468D01*
X133818377Y-101647087D01*
X133828049Y-101649286D01*
X133830491Y-101650298D01*
X133834028Y-101650646D01*
X133837492Y-101651434D01*
X133840126Y-101651246D01*
X133850000Y-101652219D01*
X133945238Y-101652219D01*
X133955111Y-101651246D01*
X133957745Y-101651434D01*
X133961208Y-101650646D01*
X133964747Y-101650298D01*
X133967189Y-101649286D01*
X133976861Y-101647087D01*
X134119717Y-101599468D01*
X134137618Y-101591477D01*
X134140333Y-101589122D01*
X134143653Y-101587747D01*
X134158806Y-101575310D01*
X134206425Y-101527690D01*
X134218862Y-101512537D01*
X134233793Y-101476488D01*
X134235714Y-101456980D01*
X134235714Y-101123647D01*
X134233793Y-101104138D01*
X134218861Y-101068090D01*
X134191271Y-101040500D01*
X134155223Y-101025568D01*
X134135714Y-101023647D01*
X133945238Y-101023647D01*
X133925729Y-101025568D01*
X133889681Y-101040500D01*
X133862091Y-101068090D01*
X133847159Y-101104138D01*
X133847159Y-101143156D01*
X133862091Y-101179204D01*
X133889681Y-101206794D01*
X133925729Y-101221726D01*
X133945238Y-101223647D01*
X134035714Y-101223647D01*
X134035714Y-101415559D01*
X134034075Y-101417197D01*
X133929011Y-101452219D01*
X133866226Y-101452219D01*
X133761161Y-101417197D01*
X133694091Y-101350127D01*
X133658637Y-101279218D01*
X133616667Y-101111337D01*
X133616667Y-100993100D01*
X133658637Y-100825218D01*
X133694090Y-100754312D01*
X133761162Y-100687240D01*
X133866226Y-100652219D01*
X133969250Y-100652219D01*
X134043373Y-100689281D01*
X134061682Y-100696287D01*
X134100602Y-100699053D01*
X134137618Y-100686714D01*
X134167095Y-100661149D01*
X134184544Y-100626251D01*
X134187309Y-100587331D01*
X134175606Y-100552219D01*
X134464286Y-100552219D01*
X134464286Y-101552219D01*
X134466207Y-101571728D01*
X134481139Y-101607776D01*
X134508729Y-101635366D01*
X134544777Y-101650298D01*
X134583795Y-101650298D01*
X134619843Y-101635366D01*
X134647433Y-101607776D01*
X134662365Y-101571728D01*
X134664286Y-101552219D01*
X134664286Y-100928775D01*
X135048890Y-101601833D01*
X135051808Y-101605943D01*
X135052567Y-101607776D01*
X135054433Y-101609642D01*
X135060237Y-101617818D01*
X135070753Y-101625962D01*
X135080157Y-101635366D01*
X135086044Y-101637804D01*
X135091086Y-101641709D01*
X135103918Y-101645208D01*
X135116205Y-101650298D01*
X135122581Y-101650298D01*
X135128730Y-101651975D01*
X135141923Y-101650298D01*
X135155223Y-101650298D01*
X135161111Y-101647858D01*
X135167436Y-101647055D01*
X135178985Y-101640454D01*
X135191271Y-101635366D01*
X135195778Y-101630858D01*
X135201313Y-101627696D01*
X135209457Y-101617179D01*
X135218861Y-101607776D01*
X135221299Y-101601888D01*
X135225204Y-101596847D01*
X135228703Y-101584014D01*
X135233793Y-101571728D01*
X135234775Y-101561750D01*
X135235470Y-101559204D01*
X135235219Y-101557236D01*
X135235714Y-101552219D01*
X135235714Y-100552219D01*
X135511905Y-100552219D01*
X135511905Y-101552219D01*
X135513826Y-101571728D01*
X135528758Y-101607776D01*
X135556348Y-101635366D01*
X135592396Y-101650298D01*
X135611905Y-101652219D01*
X135850000Y-101652219D01*
X135859873Y-101651246D01*
X135862507Y-101651434D01*
X135865970Y-101650646D01*
X135869509Y-101650298D01*
X135871951Y-101649286D01*
X135881623Y-101647087D01*
X136024479Y-101599468D01*
X136042380Y-101591477D01*
X136045095Y-101589122D01*
X136048415Y-101587747D01*
X136063568Y-101575310D01*
X136158806Y-101480071D01*
X136165098Y-101472404D01*
X136167095Y-101470673D01*
X136168988Y-101467665D01*
X136171243Y-101464918D01*
X136172254Y-101462476D01*
X136177538Y-101454082D01*
X136225157Y-101358845D01*
X136225703Y-101357416D01*
X136226133Y-101356837D01*
X136229054Y-101348660D01*
X136232163Y-101340536D01*
X136232214Y-101339815D01*
X136232728Y-101338377D01*
X136280347Y-101147901D01*
X136280847Y-101144519D01*
X136281412Y-101143156D01*
X136282135Y-101135805D01*
X136283215Y-101128508D01*
X136282997Y-101127049D01*
X136283333Y-101123647D01*
X136283333Y-100980790D01*
X136282997Y-100977387D01*
X136283215Y-100975929D01*
X136282135Y-100968631D01*
X136281412Y-100961281D01*
X136280847Y-100959917D01*
X136280347Y-100956536D01*
X136232728Y-100766060D01*
X136232214Y-100764621D01*
X136232163Y-100763901D01*
X136229054Y-100755776D01*
X136226133Y-100747600D01*
X136225703Y-100747020D01*
X136225157Y-100745592D01*
X136177538Y-100650355D01*
X136172251Y-100641956D01*
X136171242Y-100639519D01*
X136168990Y-100636775D01*
X136167095Y-100633764D01*
X136165097Y-100632031D01*
X136158806Y-100624365D01*
X136063568Y-100529127D01*
X136048414Y-100516691D01*
X136045095Y-100515316D01*
X136042380Y-100512961D01*
X136024479Y-100504970D01*
X135881623Y-100457351D01*
X135871951Y-100455151D01*
X135869509Y-100454140D01*
X135865970Y-100453791D01*
X135862507Y-100453004D01*
X135859873Y-100453191D01*
X135850000Y-100452219D01*
X135611905Y-100452219D01*
X135592396Y-100454140D01*
X135556348Y-100469072D01*
X135528758Y-100496662D01*
X135513826Y-100532710D01*
X135511905Y-100552219D01*
X135235714Y-100552219D01*
X135233793Y-100532710D01*
X135218861Y-100496662D01*
X135191271Y-100469072D01*
X135155223Y-100454140D01*
X135116205Y-100454140D01*
X135080157Y-100469072D01*
X135052567Y-100496662D01*
X135037635Y-100532710D01*
X135035714Y-100552219D01*
X135035714Y-101175662D01*
X134651110Y-100502605D01*
X134648191Y-100498494D01*
X134647433Y-100496662D01*
X134645566Y-100494795D01*
X134639763Y-100486620D01*
X134629248Y-100478477D01*
X134619843Y-100469072D01*
X134613952Y-100466632D01*
X134608914Y-100462730D01*
X134596085Y-100459231D01*
X134583795Y-100454140D01*
X134577420Y-100454140D01*
X134571271Y-100452463D01*
X134558078Y-100454140D01*
X134544777Y-100454140D01*
X134538888Y-100456579D01*
X134532564Y-100457383D01*
X134521014Y-100463983D01*
X134508729Y-100469072D01*
X134504221Y-100473579D01*
X134498687Y-100476742D01*
X134490544Y-100487256D01*
X134481139Y-100496662D01*
X134478699Y-100502552D01*
X134474797Y-100507591D01*
X134471298Y-100520419D01*
X134466207Y-100532710D01*
X134465224Y-100542687D01*
X134464530Y-100545234D01*
X134464780Y-100547201D01*
X134464286Y-100552219D01*
X134175606Y-100552219D01*
X134174971Y-100550315D01*
X134149406Y-100520838D01*
X134132816Y-100510395D01*
X134037578Y-100462776D01*
X134019270Y-100455770D01*
X134015686Y-100455515D01*
X134012366Y-100454140D01*
X133992857Y-100452219D01*
X133850000Y-100452219D01*
X133840126Y-100453191D01*
X133837492Y-100453004D01*
X133834028Y-100453791D01*
X133830491Y-100454140D01*
X133828049Y-100455151D01*
X133818377Y-100457351D01*
X133675520Y-100504970D01*
X133657620Y-100512961D01*
X133654904Y-100515316D01*
X133651586Y-100516691D01*
X133636432Y-100529127D01*
X133541194Y-100624365D01*
X133534899Y-100632035D01*
X133532905Y-100633765D01*
X133531011Y-100636772D01*
X133528758Y-100639519D01*
X133527747Y-100641958D01*
X133522462Y-100650355D01*
X133474843Y-100745593D01*
X133474297Y-100747019D01*
X133473867Y-100747600D01*
X133470945Y-100755776D01*
X133467837Y-100763901D01*
X133467785Y-100764623D01*
X133467272Y-100766061D01*
X133419653Y-100956536D01*
X133419152Y-100959917D01*
X133418588Y-100961281D01*
X133417864Y-100968631D01*
X133416785Y-100975929D01*
X133417002Y-100977387D01*
X133416667Y-100980790D01*
X133305556Y-100980790D01*
X133305556Y-100341108D01*
X136394444Y-100341108D01*
X136394444Y-101763330D01*
G37*
G36*
X135940143Y-103213330D02*
G01*
X133710318Y-103213330D01*
X133710318Y-102430790D01*
X133821429Y-102430790D01*
X133821429Y-102573647D01*
X133821764Y-102577049D01*
X133821547Y-102578508D01*
X133822626Y-102585805D01*
X133823350Y-102593156D01*
X133823914Y-102594519D01*
X133824415Y-102597901D01*
X133872034Y-102788376D01*
X133872547Y-102789813D01*
X133872599Y-102790536D01*
X133875707Y-102798660D01*
X133878629Y-102806837D01*
X133879059Y-102807417D01*
X133879605Y-102808844D01*
X133927224Y-102904082D01*
X133932506Y-102912474D01*
X133933519Y-102914918D01*
X133935775Y-102917667D01*
X133937667Y-102920672D01*
X133939661Y-102922401D01*
X133945956Y-102930071D01*
X134041194Y-103025311D01*
X134056347Y-103037747D01*
X134059666Y-103039122D01*
X134062382Y-103041477D01*
X134080282Y-103049468D01*
X134223139Y-103097087D01*
X134232811Y-103099286D01*
X134235253Y-103100298D01*
X134238790Y-103100646D01*
X134242254Y-103101434D01*
X134244888Y-103101246D01*
X134254762Y-103102219D01*
X134350000Y-103102219D01*
X134359873Y-103101246D01*
X134362507Y-103101434D01*
X134365970Y-103100646D01*
X134369509Y-103100298D01*
X134371951Y-103099286D01*
X134381623Y-103097087D01*
X134524479Y-103049468D01*
X134542380Y-103041477D01*
X134545095Y-103039122D01*
X134548415Y-103037747D01*
X134563568Y-103025310D01*
X134611187Y-102977690D01*
X134623624Y-102962537D01*
X134638555Y-102926488D01*
X134638554Y-102887470D01*
X134623623Y-102851422D01*
X134596032Y-102823832D01*
X134559984Y-102808901D01*
X134520966Y-102808902D01*
X134484918Y-102823833D01*
X134469764Y-102836270D01*
X134438837Y-102867197D01*
X134333773Y-102902219D01*
X134270988Y-102902219D01*
X134165923Y-102867197D01*
X134098853Y-102800127D01*
X134063399Y-102729218D01*
X134031534Y-102601757D01*
X134870969Y-102601757D01*
X134870969Y-102640775D01*
X134885901Y-102676823D01*
X134913491Y-102704413D01*
X134949539Y-102719345D01*
X134969048Y-102721266D01*
X135730953Y-102721266D01*
X135750462Y-102719345D01*
X135786510Y-102704413D01*
X135814100Y-102676823D01*
X135829032Y-102640775D01*
X135829032Y-102601757D01*
X135814100Y-102565709D01*
X135786510Y-102538119D01*
X135750462Y-102523187D01*
X135730953Y-102521266D01*
X134969048Y-102521266D01*
X134949539Y-102523187D01*
X134913491Y-102538119D01*
X134885901Y-102565709D01*
X134870969Y-102601757D01*
X134031534Y-102601757D01*
X134021429Y-102561337D01*
X134021429Y-102443100D01*
X134063399Y-102275218D01*
X134098852Y-102204312D01*
X134165924Y-102137240D01*
X134270988Y-102102219D01*
X134333773Y-102102219D01*
X134438838Y-102137240D01*
X134469765Y-102168167D01*
X134484918Y-102180604D01*
X134520967Y-102195535D01*
X134559985Y-102195535D01*
X134596033Y-102180604D01*
X134623623Y-102153014D01*
X134638554Y-102116966D01*
X134638554Y-102077948D01*
X134623623Y-102041899D01*
X134611186Y-102026746D01*
X134563568Y-101979127D01*
X134548414Y-101966691D01*
X134545095Y-101965316D01*
X134542380Y-101962961D01*
X134524479Y-101954970D01*
X134381623Y-101907351D01*
X134371951Y-101905151D01*
X134369509Y-101904140D01*
X134365970Y-101903791D01*
X134362507Y-101903004D01*
X134359873Y-101903191D01*
X134350000Y-101902219D01*
X134254762Y-101902219D01*
X134244888Y-101903191D01*
X134242254Y-101903004D01*
X134238790Y-101903791D01*
X134235253Y-101904140D01*
X134232811Y-101905151D01*
X134223139Y-101907351D01*
X134080282Y-101954970D01*
X134062382Y-101962961D01*
X134059666Y-101965316D01*
X134056348Y-101966691D01*
X134041194Y-101979127D01*
X133945956Y-102074365D01*
X133939661Y-102082035D01*
X133937667Y-102083765D01*
X133935773Y-102086772D01*
X133933520Y-102089519D01*
X133932509Y-102091958D01*
X133927224Y-102100355D01*
X133879605Y-102195593D01*
X133879059Y-102197019D01*
X133878629Y-102197600D01*
X133875707Y-102205776D01*
X133872599Y-102213901D01*
X133872547Y-102214623D01*
X133872034Y-102216061D01*
X133824415Y-102406536D01*
X133823914Y-102409917D01*
X133823350Y-102411281D01*
X133822626Y-102418631D01*
X133821547Y-102425929D01*
X133821764Y-102427387D01*
X133821429Y-102430790D01*
X133710318Y-102430790D01*
X133710318Y-101791108D01*
X135940143Y-101791108D01*
X135940143Y-103213330D01*
G37*
G36*
X135940143Y-108313330D02*
G01*
X133710318Y-108313330D01*
X133710318Y-107530790D01*
X133821429Y-107530790D01*
X133821429Y-107673647D01*
X133821764Y-107677049D01*
X133821547Y-107678508D01*
X133822626Y-107685805D01*
X133823350Y-107693156D01*
X133823914Y-107694519D01*
X133824415Y-107697901D01*
X133872034Y-107888376D01*
X133872547Y-107889813D01*
X133872599Y-107890536D01*
X133875707Y-107898660D01*
X133878629Y-107906837D01*
X133879059Y-107907417D01*
X133879605Y-107908844D01*
X133927224Y-108004082D01*
X133932506Y-108012474D01*
X133933519Y-108014918D01*
X133935775Y-108017667D01*
X133937667Y-108020672D01*
X133939661Y-108022401D01*
X133945956Y-108030071D01*
X134041194Y-108125311D01*
X134056347Y-108137747D01*
X134059666Y-108139122D01*
X134062382Y-108141477D01*
X134080282Y-108149468D01*
X134223139Y-108197087D01*
X134232811Y-108199286D01*
X134235253Y-108200298D01*
X134238790Y-108200646D01*
X134242254Y-108201434D01*
X134244888Y-108201246D01*
X134254762Y-108202219D01*
X134350000Y-108202219D01*
X134359873Y-108201246D01*
X134362507Y-108201434D01*
X134365970Y-108200646D01*
X134369509Y-108200298D01*
X134371951Y-108199286D01*
X134381623Y-108197087D01*
X134524479Y-108149468D01*
X134542380Y-108141477D01*
X134545095Y-108139122D01*
X134548415Y-108137747D01*
X134563568Y-108125310D01*
X134611187Y-108077690D01*
X134623624Y-108062537D01*
X134638555Y-108026488D01*
X134638554Y-107987470D01*
X134623623Y-107951422D01*
X134596032Y-107923832D01*
X134559984Y-107908901D01*
X134520966Y-107908902D01*
X134484918Y-107923833D01*
X134469764Y-107936270D01*
X134438837Y-107967197D01*
X134333773Y-108002219D01*
X134270988Y-108002219D01*
X134165923Y-107967197D01*
X134098853Y-107900127D01*
X134063399Y-107829218D01*
X134031534Y-107701757D01*
X134870969Y-107701757D01*
X134870969Y-107740775D01*
X134885901Y-107776823D01*
X134913491Y-107804413D01*
X134949539Y-107819345D01*
X134969048Y-107821266D01*
X135250000Y-107821266D01*
X135250000Y-108102219D01*
X135251921Y-108121728D01*
X135266853Y-108157776D01*
X135294443Y-108185366D01*
X135330491Y-108200298D01*
X135369509Y-108200298D01*
X135405557Y-108185366D01*
X135433147Y-108157776D01*
X135448079Y-108121728D01*
X135450000Y-108102219D01*
X135450000Y-107821266D01*
X135730953Y-107821266D01*
X135750462Y-107819345D01*
X135786510Y-107804413D01*
X135814100Y-107776823D01*
X135829032Y-107740775D01*
X135829032Y-107701757D01*
X135814100Y-107665709D01*
X135786510Y-107638119D01*
X135750462Y-107623187D01*
X135730953Y-107621266D01*
X135450000Y-107621266D01*
X135450000Y-107340314D01*
X135448079Y-107320805D01*
X135433147Y-107284757D01*
X135405557Y-107257167D01*
X135369509Y-107242235D01*
X135330491Y-107242235D01*
X135294443Y-107257167D01*
X135266853Y-107284757D01*
X135251921Y-107320805D01*
X135250000Y-107340314D01*
X135250000Y-107621266D01*
X134969048Y-107621266D01*
X134949539Y-107623187D01*
X134913491Y-107638119D01*
X134885901Y-107665709D01*
X134870969Y-107701757D01*
X134031534Y-107701757D01*
X134021429Y-107661337D01*
X134021429Y-107543100D01*
X134063399Y-107375218D01*
X134098852Y-107304312D01*
X134165924Y-107237240D01*
X134270988Y-107202219D01*
X134333773Y-107202219D01*
X134438838Y-107237240D01*
X134469765Y-107268167D01*
X134484918Y-107280604D01*
X134520967Y-107295535D01*
X134559985Y-107295535D01*
X134596033Y-107280604D01*
X134623623Y-107253014D01*
X134638554Y-107216966D01*
X134638554Y-107177948D01*
X134623623Y-107141899D01*
X134611186Y-107126746D01*
X134563568Y-107079127D01*
X134548414Y-107066691D01*
X134545095Y-107065316D01*
X134542380Y-107062961D01*
X134524479Y-107054970D01*
X134381623Y-107007351D01*
X134371951Y-107005151D01*
X134369509Y-107004140D01*
X134365970Y-107003791D01*
X134362507Y-107003004D01*
X134359873Y-107003191D01*
X134350000Y-107002219D01*
X134254762Y-107002219D01*
X134244888Y-107003191D01*
X134242254Y-107003004D01*
X134238790Y-107003791D01*
X134235253Y-107004140D01*
X134232811Y-107005151D01*
X134223139Y-107007351D01*
X134080282Y-107054970D01*
X134062382Y-107062961D01*
X134059666Y-107065316D01*
X134056348Y-107066691D01*
X134041194Y-107079127D01*
X133945956Y-107174365D01*
X133939661Y-107182035D01*
X133937667Y-107183765D01*
X133935773Y-107186772D01*
X133933520Y-107189519D01*
X133932509Y-107191958D01*
X133927224Y-107200355D01*
X133879605Y-107295593D01*
X133879059Y-107297019D01*
X133878629Y-107297600D01*
X133875707Y-107305776D01*
X133872599Y-107313901D01*
X133872547Y-107314623D01*
X133872034Y-107316061D01*
X133824415Y-107506536D01*
X133823914Y-107509917D01*
X133823350Y-107511281D01*
X133822626Y-107518631D01*
X133821547Y-107525929D01*
X133821764Y-107527387D01*
X133821429Y-107530790D01*
X133710318Y-107530790D01*
X133710318Y-106891108D01*
X135940143Y-106891108D01*
X135940143Y-108313330D01*
G37*
G36*
X143338838Y-118763430D02*
G01*
X143358290Y-118782882D01*
X143388095Y-118842492D01*
X143388095Y-118938135D01*
X143358290Y-118997743D01*
X143333621Y-119022413D01*
X143274012Y-119052219D01*
X143016667Y-119052219D01*
X143016667Y-118728409D01*
X143233773Y-118728409D01*
X143338838Y-118763430D01*
G37*
G36*
X143286002Y-118282024D02*
G01*
X143310671Y-118306692D01*
X143340476Y-118366302D01*
X143340476Y-118414326D01*
X143310671Y-118473935D01*
X143286002Y-118498603D01*
X143226393Y-118528409D01*
X143016667Y-118528409D01*
X143016667Y-118252219D01*
X143226393Y-118252219D01*
X143286002Y-118282024D01*
G37*
G36*
X145699206Y-119363330D02*
G01*
X141706341Y-119363330D01*
X141706341Y-118164726D01*
X141817452Y-118164726D01*
X141821799Y-118183842D01*
X142155132Y-119183841D01*
X142163123Y-119201742D01*
X142167806Y-119207141D01*
X142171001Y-119213531D01*
X142180472Y-119221746D01*
X142188688Y-119231218D01*
X142195076Y-119234412D01*
X142200477Y-119239096D01*
X142212378Y-119243063D01*
X142223587Y-119248667D01*
X142230711Y-119249173D01*
X142237493Y-119251434D01*
X142250002Y-119250544D01*
X142262507Y-119251434D01*
X142269285Y-119249174D01*
X142276413Y-119248668D01*
X142287629Y-119243059D01*
X142299523Y-119239095D01*
X142304920Y-119234414D01*
X142311312Y-119231218D01*
X142319530Y-119221742D01*
X142328999Y-119213530D01*
X142332192Y-119207143D01*
X142336877Y-119201742D01*
X142344868Y-119183842D01*
X142678201Y-118183842D01*
X142682548Y-118164727D01*
X142681659Y-118152219D01*
X142816667Y-118152219D01*
X142816667Y-119152219D01*
X142818588Y-119171728D01*
X142833520Y-119207776D01*
X142861110Y-119235366D01*
X142897158Y-119250298D01*
X142916667Y-119252219D01*
X143297619Y-119252219D01*
X143317128Y-119250298D01*
X143320448Y-119248922D01*
X143324032Y-119248668D01*
X143342340Y-119241662D01*
X143437578Y-119194043D01*
X143445973Y-119188758D01*
X143448415Y-119187747D01*
X143451162Y-119185491D01*
X143454168Y-119183600D01*
X143455898Y-119181605D01*
X143463568Y-119175310D01*
X143511187Y-119127690D01*
X143517479Y-119120023D01*
X143519476Y-119118292D01*
X143521369Y-119115284D01*
X143523624Y-119112537D01*
X143524635Y-119110095D01*
X143529919Y-119101701D01*
X143577538Y-119006464D01*
X143584544Y-118988155D01*
X143584798Y-118984571D01*
X143586174Y-118981251D01*
X143588095Y-118961742D01*
X143588095Y-118818885D01*
X143586174Y-118799376D01*
X143584798Y-118796055D01*
X143584544Y-118792472D01*
X143577538Y-118774163D01*
X143529919Y-118678926D01*
X143524633Y-118670529D01*
X143523623Y-118668089D01*
X143521369Y-118665343D01*
X143519476Y-118662335D01*
X143517478Y-118660602D01*
X143511186Y-118652936D01*
X143463568Y-118605317D01*
X143462779Y-118604669D01*
X143463567Y-118603882D01*
X143469859Y-118596215D01*
X143471857Y-118594483D01*
X143473750Y-118591474D01*
X143476004Y-118588729D01*
X143477014Y-118586288D01*
X143482300Y-118577892D01*
X143529919Y-118482655D01*
X143536925Y-118464346D01*
X143537179Y-118460762D01*
X143538555Y-118457442D01*
X143540476Y-118437933D01*
X143540476Y-118342695D01*
X143538555Y-118323186D01*
X143537179Y-118319865D01*
X143536925Y-118316282D01*
X143529919Y-118297973D01*
X143482300Y-118202736D01*
X143477014Y-118194339D01*
X143476004Y-118191899D01*
X143473750Y-118189153D01*
X143471857Y-118186145D01*
X143469859Y-118184412D01*
X143463567Y-118176746D01*
X143439041Y-118152219D01*
X143816667Y-118152219D01*
X143816667Y-118961742D01*
X143818588Y-118981251D01*
X143819963Y-118984571D01*
X143820218Y-118988155D01*
X143827224Y-119006463D01*
X143874843Y-119101701D01*
X143880126Y-119110093D01*
X143881138Y-119112537D01*
X143883394Y-119115286D01*
X143885286Y-119118291D01*
X143887280Y-119120020D01*
X143893575Y-119127690D01*
X143941193Y-119175310D01*
X143948861Y-119181603D01*
X143950593Y-119183600D01*
X143953601Y-119185493D01*
X143956347Y-119187747D01*
X143958787Y-119188757D01*
X143967184Y-119194043D01*
X144062421Y-119241662D01*
X144080730Y-119248668D01*
X144084313Y-119248922D01*
X144087634Y-119250298D01*
X144107143Y-119252219D01*
X144297619Y-119252219D01*
X144317128Y-119250298D01*
X144320448Y-119248922D01*
X144324032Y-119248668D01*
X144342340Y-119241662D01*
X144437578Y-119194043D01*
X144445973Y-119188758D01*
X144448415Y-119187747D01*
X144451162Y-119185491D01*
X144454168Y-119183600D01*
X144455898Y-119181605D01*
X144463568Y-119175310D01*
X144511187Y-119127690D01*
X144517479Y-119120023D01*
X144519476Y-119118292D01*
X144521369Y-119115284D01*
X144523624Y-119112537D01*
X144524635Y-119110095D01*
X144529919Y-119101701D01*
X144577538Y-119006464D01*
X144584544Y-118988155D01*
X144584798Y-118984571D01*
X144586174Y-118981251D01*
X144588095Y-118961742D01*
X144588095Y-118342695D01*
X144816667Y-118342695D01*
X144816667Y-118437933D01*
X144818588Y-118457442D01*
X144819963Y-118460762D01*
X144820218Y-118464346D01*
X144827224Y-118482654D01*
X144874843Y-118577892D01*
X144880128Y-118586288D01*
X144881139Y-118588728D01*
X144883392Y-118591474D01*
X144885286Y-118594482D01*
X144887280Y-118596211D01*
X144893575Y-118603882D01*
X144941194Y-118651500D01*
X144948860Y-118657792D01*
X144950593Y-118659790D01*
X144953601Y-118661683D01*
X144956347Y-118663937D01*
X144958787Y-118664947D01*
X144967184Y-118670233D01*
X145062421Y-118717852D01*
X145063849Y-118718398D01*
X145064429Y-118718828D01*
X145072605Y-118721749D01*
X145080730Y-118724858D01*
X145081450Y-118724909D01*
X145082889Y-118725423D01*
X145262714Y-118770379D01*
X145333621Y-118805833D01*
X145358290Y-118830501D01*
X145388095Y-118890111D01*
X145388095Y-118938135D01*
X145358290Y-118997743D01*
X145333621Y-119022413D01*
X145274012Y-119052219D01*
X145075750Y-119052219D01*
X144948290Y-119009732D01*
X144929174Y-119005385D01*
X144890254Y-119008151D01*
X144855355Y-119025601D01*
X144829790Y-119055077D01*
X144817452Y-119092093D01*
X144820218Y-119131013D01*
X144837668Y-119165912D01*
X144867144Y-119191477D01*
X144885044Y-119199468D01*
X145027901Y-119247087D01*
X145037573Y-119249286D01*
X145040015Y-119250298D01*
X145043552Y-119250646D01*
X145047016Y-119251434D01*
X145049650Y-119251246D01*
X145059524Y-119252219D01*
X145297619Y-119252219D01*
X145317128Y-119250298D01*
X145320448Y-119248922D01*
X145324032Y-119248668D01*
X145342340Y-119241662D01*
X145437578Y-119194043D01*
X145445973Y-119188758D01*
X145448415Y-119187747D01*
X145451162Y-119185491D01*
X145454168Y-119183600D01*
X145455898Y-119181605D01*
X145463568Y-119175310D01*
X145511187Y-119127690D01*
X145517479Y-119120023D01*
X145519476Y-119118292D01*
X145521369Y-119115284D01*
X145523624Y-119112537D01*
X145524635Y-119110095D01*
X145529919Y-119101701D01*
X145577538Y-119006464D01*
X145584544Y-118988155D01*
X145584798Y-118984571D01*
X145586174Y-118981251D01*
X145588095Y-118961742D01*
X145588095Y-118866504D01*
X145586174Y-118846995D01*
X145584798Y-118843674D01*
X145584544Y-118840091D01*
X145577538Y-118821782D01*
X145529919Y-118726545D01*
X145524633Y-118718148D01*
X145523623Y-118715708D01*
X145521369Y-118712962D01*
X145519476Y-118709954D01*
X145517478Y-118708221D01*
X145511186Y-118700555D01*
X145463568Y-118652936D01*
X145455897Y-118646641D01*
X145454168Y-118644647D01*
X145451160Y-118642753D01*
X145448414Y-118640500D01*
X145445974Y-118639489D01*
X145437578Y-118634204D01*
X145342340Y-118586585D01*
X145340913Y-118586039D01*
X145340333Y-118585609D01*
X145332156Y-118582687D01*
X145324032Y-118579579D01*
X145323309Y-118579527D01*
X145321872Y-118579014D01*
X145142047Y-118534057D01*
X145071140Y-118498604D01*
X145046472Y-118473935D01*
X145016667Y-118414325D01*
X145016667Y-118366302D01*
X145046472Y-118306692D01*
X145071140Y-118282023D01*
X145130750Y-118252219D01*
X145329011Y-118252219D01*
X145456472Y-118294706D01*
X145475587Y-118299053D01*
X145514507Y-118296287D01*
X145549406Y-118278837D01*
X145574971Y-118249361D01*
X145587310Y-118212345D01*
X145584543Y-118173425D01*
X145567094Y-118138526D01*
X145537618Y-118112961D01*
X145519717Y-118104970D01*
X145376861Y-118057351D01*
X145367189Y-118055151D01*
X145364747Y-118054140D01*
X145361208Y-118053791D01*
X145357745Y-118053004D01*
X145355111Y-118053191D01*
X145345238Y-118052219D01*
X145107143Y-118052219D01*
X145087634Y-118054140D01*
X145084313Y-118055515D01*
X145080730Y-118055770D01*
X145062421Y-118062776D01*
X144967184Y-118110395D01*
X144958787Y-118115680D01*
X144956347Y-118116691D01*
X144953601Y-118118944D01*
X144950593Y-118120838D01*
X144948860Y-118122835D01*
X144941194Y-118129128D01*
X144893575Y-118176746D01*
X144887280Y-118184416D01*
X144885286Y-118186146D01*
X144883392Y-118189153D01*
X144881139Y-118191900D01*
X144880128Y-118194339D01*
X144874843Y-118202736D01*
X144827224Y-118297974D01*
X144820218Y-118316282D01*
X144819963Y-118319865D01*
X144818588Y-118323186D01*
X144816667Y-118342695D01*
X144588095Y-118342695D01*
X144588095Y-118152219D01*
X144586174Y-118132710D01*
X144571242Y-118096662D01*
X144543652Y-118069072D01*
X144507604Y-118054140D01*
X144468586Y-118054140D01*
X144432538Y-118069072D01*
X144404948Y-118096662D01*
X144390016Y-118132710D01*
X144388095Y-118152219D01*
X144388095Y-118938135D01*
X144358290Y-118997743D01*
X144333621Y-119022413D01*
X144274012Y-119052219D01*
X144130750Y-119052219D01*
X144071140Y-119022414D01*
X144046473Y-118997746D01*
X144016667Y-118938134D01*
X144016667Y-118152219D01*
X144014746Y-118132710D01*
X143999814Y-118096662D01*
X143972224Y-118069072D01*
X143936176Y-118054140D01*
X143897158Y-118054140D01*
X143861110Y-118069072D01*
X143833520Y-118096662D01*
X143818588Y-118132710D01*
X143816667Y-118152219D01*
X143439041Y-118152219D01*
X143415949Y-118129127D01*
X143408278Y-118122832D01*
X143406549Y-118120838D01*
X143403541Y-118118944D01*
X143400795Y-118116691D01*
X143398355Y-118115680D01*
X143389959Y-118110395D01*
X143294721Y-118062776D01*
X143276413Y-118055770D01*
X143272829Y-118055515D01*
X143269509Y-118054140D01*
X143250000Y-118052219D01*
X142916667Y-118052219D01*
X142897158Y-118054140D01*
X142861110Y-118069072D01*
X142833520Y-118096662D01*
X142818588Y-118132710D01*
X142816667Y-118152219D01*
X142681659Y-118152219D01*
X142679782Y-118125807D01*
X142662332Y-118090908D01*
X142632856Y-118065343D01*
X142595840Y-118053004D01*
X142556920Y-118055771D01*
X142522021Y-118073220D01*
X142496456Y-118102696D01*
X142488465Y-118120597D01*
X142250000Y-118835991D01*
X142011535Y-118120596D01*
X142003544Y-118102696D01*
X141977979Y-118073220D01*
X141943080Y-118055770D01*
X141904160Y-118053004D01*
X141867144Y-118065342D01*
X141837668Y-118090907D01*
X141820218Y-118125806D01*
X141817452Y-118164726D01*
X141706341Y-118164726D01*
X141706341Y-117941108D01*
X145699206Y-117941108D01*
X145699206Y-119363330D01*
G37*
G36*
X140379218Y-118175303D02*
G01*
X140450127Y-118210757D01*
X140517197Y-118277827D01*
X140552219Y-118382892D01*
X140552219Y-118504761D01*
X139752219Y-118504761D01*
X139752219Y-118382893D01*
X139787240Y-118277828D01*
X139854313Y-118210756D01*
X139925218Y-118175303D01*
X140093099Y-118133333D01*
X140211337Y-118133333D01*
X140379218Y-118175303D01*
G37*
G36*
X140863330Y-120530158D02*
G01*
X139441108Y-120530158D01*
X139441108Y-120299538D01*
X139554140Y-120299538D01*
X139554140Y-120338556D01*
X139569072Y-120374604D01*
X139596662Y-120402194D01*
X139632710Y-120417126D01*
X139652219Y-120419047D01*
X140652219Y-120419047D01*
X140671728Y-120417126D01*
X140707776Y-120402194D01*
X140735366Y-120374604D01*
X140750298Y-120338556D01*
X140752219Y-120319047D01*
X140752219Y-119842857D01*
X140750298Y-119823348D01*
X140735366Y-119787300D01*
X140707776Y-119759710D01*
X140671728Y-119744778D01*
X140632710Y-119744778D01*
X140596662Y-119759710D01*
X140569072Y-119787300D01*
X140554140Y-119823348D01*
X140552219Y-119842857D01*
X140552219Y-120219047D01*
X139652219Y-120219047D01*
X139632710Y-120220968D01*
X139596662Y-120235900D01*
X139569072Y-120263490D01*
X139554140Y-120299538D01*
X139441108Y-120299538D01*
X139441108Y-119033333D01*
X139552219Y-119033333D01*
X139552219Y-119509523D01*
X139554140Y-119529032D01*
X139569072Y-119565080D01*
X139596662Y-119592670D01*
X139632710Y-119607602D01*
X139652219Y-119609523D01*
X140652219Y-119609523D01*
X140671728Y-119607602D01*
X140707776Y-119592670D01*
X140735366Y-119565080D01*
X140750298Y-119529032D01*
X140752219Y-119509523D01*
X140752219Y-119033333D01*
X140750298Y-119013824D01*
X140735366Y-118977776D01*
X140707776Y-118950186D01*
X140671728Y-118935254D01*
X140632710Y-118935254D01*
X140596662Y-118950186D01*
X140569072Y-118977776D01*
X140554140Y-119013824D01*
X140552219Y-119033333D01*
X140552219Y-119409523D01*
X140228409Y-119409523D01*
X140228409Y-119176190D01*
X140226488Y-119156681D01*
X140211556Y-119120633D01*
X140183966Y-119093043D01*
X140147918Y-119078111D01*
X140108900Y-119078111D01*
X140072852Y-119093043D01*
X140045262Y-119120633D01*
X140030330Y-119156681D01*
X140028409Y-119176190D01*
X140028409Y-119409523D01*
X139752219Y-119409523D01*
X139752219Y-119033333D01*
X139750298Y-119013824D01*
X139735366Y-118977776D01*
X139707776Y-118950186D01*
X139671728Y-118935254D01*
X139632710Y-118935254D01*
X139596662Y-118950186D01*
X139569072Y-118977776D01*
X139554140Y-119013824D01*
X139552219Y-119033333D01*
X139441108Y-119033333D01*
X139441108Y-118366666D01*
X139552219Y-118366666D01*
X139552219Y-118604761D01*
X139554140Y-118624270D01*
X139569072Y-118660318D01*
X139596662Y-118687908D01*
X139632710Y-118702840D01*
X139652219Y-118704761D01*
X140652219Y-118704761D01*
X140671728Y-118702840D01*
X140707776Y-118687908D01*
X140735366Y-118660318D01*
X140750298Y-118624270D01*
X140752219Y-118604761D01*
X140752219Y-118366666D01*
X140751246Y-118356792D01*
X140751434Y-118354158D01*
X140750646Y-118350694D01*
X140750298Y-118347157D01*
X140749286Y-118344715D01*
X140747087Y-118335043D01*
X140699468Y-118192186D01*
X140691477Y-118174286D01*
X140689122Y-118171570D01*
X140687747Y-118168251D01*
X140675311Y-118153098D01*
X140580071Y-118057860D01*
X140572401Y-118051565D01*
X140570672Y-118049571D01*
X140567667Y-118047679D01*
X140564918Y-118045423D01*
X140562474Y-118044410D01*
X140554082Y-118039128D01*
X140458844Y-117991509D01*
X140457417Y-117990963D01*
X140456837Y-117990533D01*
X140448660Y-117987611D01*
X140440536Y-117984503D01*
X140439813Y-117984451D01*
X140438376Y-117983938D01*
X140247901Y-117936319D01*
X140244519Y-117935818D01*
X140243156Y-117935254D01*
X140235805Y-117934530D01*
X140228508Y-117933451D01*
X140227049Y-117933668D01*
X140223647Y-117933333D01*
X140080790Y-117933333D01*
X140077387Y-117933668D01*
X140075929Y-117933451D01*
X140068631Y-117934530D01*
X140061281Y-117935254D01*
X140059917Y-117935818D01*
X140056536Y-117936319D01*
X139866060Y-117983938D01*
X139864621Y-117984451D01*
X139863901Y-117984503D01*
X139855776Y-117987611D01*
X139847600Y-117990533D01*
X139847020Y-117990962D01*
X139845592Y-117991509D01*
X139750355Y-118039128D01*
X139741956Y-118044414D01*
X139739519Y-118045424D01*
X139736775Y-118047675D01*
X139733764Y-118049571D01*
X139732031Y-118051568D01*
X139724365Y-118057860D01*
X139629127Y-118153098D01*
X139616691Y-118168252D01*
X139615316Y-118171570D01*
X139612961Y-118174286D01*
X139604970Y-118192187D01*
X139557351Y-118335043D01*
X139555151Y-118344714D01*
X139554140Y-118347157D01*
X139553791Y-118350695D01*
X139553004Y-118354159D01*
X139553191Y-118356792D01*
X139552219Y-118366666D01*
X139441108Y-118366666D01*
X139441108Y-117013824D01*
X139554140Y-117013824D01*
X139554140Y-117052842D01*
X139569072Y-117088890D01*
X139581508Y-117104044D01*
X139982225Y-117504761D01*
X139652219Y-117504761D01*
X139632710Y-117506682D01*
X139596662Y-117521614D01*
X139569072Y-117549204D01*
X139554140Y-117585252D01*
X139554140Y-117624270D01*
X139569072Y-117660318D01*
X139596662Y-117687908D01*
X139632710Y-117702840D01*
X139652219Y-117704761D01*
X140652219Y-117704761D01*
X140671728Y-117702840D01*
X140707776Y-117687908D01*
X140735366Y-117660318D01*
X140750298Y-117624270D01*
X140750298Y-117585252D01*
X140735366Y-117549204D01*
X140707776Y-117521614D01*
X140671728Y-117506682D01*
X140652219Y-117504761D01*
X140265069Y-117504761D01*
X140233031Y-117472723D01*
X140712219Y-117113333D01*
X140726674Y-117100091D01*
X140746553Y-117066516D01*
X140752071Y-117027890D01*
X140742388Y-116990093D01*
X140718977Y-116958878D01*
X140685403Y-116938999D01*
X140646777Y-116933481D01*
X140608979Y-116943164D01*
X140592219Y-116953333D01*
X140090174Y-117329866D01*
X139722930Y-116962622D01*
X139707776Y-116950186D01*
X139671728Y-116935254D01*
X139632710Y-116935254D01*
X139596662Y-116950186D01*
X139569072Y-116977776D01*
X139554140Y-117013824D01*
X139441108Y-117013824D01*
X139441108Y-116822370D01*
X140863330Y-116822370D01*
X140863330Y-120530158D01*
G37*
%TO.C,JP2*%
D11*
X142150000Y-125850000D02*
X142150000Y-125250000D01*
X142850000Y-124550000D02*
X144250000Y-124550000D01*
X144250000Y-126550000D02*
X142850000Y-126550000D01*
X144950000Y-125250000D02*
X144950000Y-125850000D01*
X142150000Y-125250000D02*
G75*
G02*
X142850000Y-124550000I699999J1D01*
G01*
X142850000Y-126550000D02*
G75*
G02*
X142150000Y-125850000I-1J699999D01*
G01*
X144250000Y-124550000D02*
G75*
G02*
X144950000Y-125250000I0J-700000D01*
G01*
X144950000Y-125850000D02*
G75*
G02*
X144250000Y-126550000I-700000J0D01*
G01*
%TO.C,R7*%
X136787742Y-129177500D02*
X137262258Y-129177500D01*
X136787742Y-130222500D02*
X137262258Y-130222500D01*
%TO.C,C5*%
X127965580Y-127290000D02*
X127684420Y-127290000D01*
X127965580Y-128310000D02*
X127684420Y-128310000D01*
%TO.C,Q1*%
X135940000Y-126240000D02*
X136940000Y-126240000D01*
X135940000Y-127760000D02*
X135940000Y-126240000D01*
X135990000Y-127760000D02*
X135940000Y-127760000D01*
X137890000Y-127760000D02*
X137110000Y-127760000D01*
X138060000Y-126240000D02*
X139060000Y-126240000D01*
X139060000Y-126240000D02*
X139060000Y-127760000D01*
X139060000Y-127760000D02*
X139010000Y-127760000D01*
X137450000Y-128540000D02*
X137120000Y-128300000D01*
X137450000Y-128060000D01*
X137450000Y-128540000D01*
G36*
X137450000Y-128540000D02*
G01*
X137120000Y-128300000D01*
X137450000Y-128060000D01*
X137450000Y-128540000D01*
G37*
%TO.C,R3*%
X131827500Y-130062258D02*
X131827500Y-129587742D01*
X132872500Y-130062258D02*
X132872500Y-129587742D01*
%TO.C,C11*%
X149265000Y-107888748D02*
X149265000Y-108411252D01*
X150735000Y-107888748D02*
X150735000Y-108411252D01*
%TO.C,C13*%
X132315000Y-112438748D02*
X132315000Y-112961252D01*
X133785000Y-112438748D02*
X133785000Y-112961252D01*
%TO.C,C8*%
X147311252Y-101415000D02*
X146788748Y-101415000D01*
X147311252Y-102885000D02*
X146788748Y-102885000D01*
%TO.C,L1*%
X128090000Y-130300279D02*
X128090000Y-129974721D01*
X129110000Y-130300279D02*
X129110000Y-129974721D01*
%TO.C,R1*%
X135087742Y-137327500D02*
X135562258Y-137327500D01*
X135087742Y-138372500D02*
X135562258Y-138372500D01*
%TO.C,C9*%
X150438748Y-102665000D02*
X150961252Y-102665000D01*
X150438748Y-104135000D02*
X150961252Y-104135000D01*
%TO.C,C1*%
X129765000Y-129688748D02*
X129765000Y-130211252D01*
X131235000Y-129688748D02*
X131235000Y-130211252D01*
%TO.C,C12*%
X154665000Y-109438748D02*
X154665000Y-109961252D01*
X156135000Y-109438748D02*
X156135000Y-109961252D01*
%TO.C,USBC1*%
D10*
X153300000Y-113180000D02*
X154550000Y-113180000D01*
X153300000Y-122120000D02*
X154550000Y-122120000D01*
X157270000Y-122120000D02*
X158550000Y-122120000D01*
X158550000Y-113180000D02*
X157270000Y-113180000D01*
X150050000Y-121950000D02*
G75*
G02*
X149850000Y-121950000I-100000J0D01*
G01*
X149850000Y-121950000D02*
G75*
G02*
X150050000Y-121950000I100000J0D01*
G01*
%TO.C,R9*%
D11*
X139962742Y-124077500D02*
X140437258Y-124077500D01*
X139962742Y-125122500D02*
X140437258Y-125122500D01*
%TO.C,R12*%
X130512258Y-115777500D02*
X130037742Y-115777500D01*
X130512258Y-116822500D02*
X130037742Y-116822500D01*
%TO.C,U3*%
X144390000Y-120640000D02*
X146210000Y-120640000D01*
X144390000Y-120690000D02*
X144390000Y-120640000D01*
X144390000Y-123760000D02*
X144390000Y-123710000D01*
X146210000Y-120640000D02*
X146210000Y-120690000D01*
X146210000Y-123710000D02*
X146210000Y-123760000D01*
X146210000Y-123760000D02*
X144390000Y-123760000D01*
X146990000Y-124040000D02*
X146510000Y-124040000D01*
X146750000Y-123710000D01*
X146990000Y-124040000D01*
G36*
X146990000Y-124040000D02*
G01*
X146510000Y-124040000D01*
X146750000Y-123710000D01*
X146990000Y-124040000D01*
G37*
%TO.C,JP1*%
X139500000Y-125690000D02*
X141500000Y-125690000D01*
X139500000Y-128490000D02*
X139500000Y-125690000D01*
X141500000Y-125690000D02*
X141500000Y-128490000D01*
X141500000Y-128490000D02*
X139500000Y-128490000D01*
%TO.C,D1*%
X145465000Y-107727064D02*
X145465000Y-107272936D01*
X146935000Y-107727064D02*
X146935000Y-107272936D01*
%TO.C,C15*%
X143465000Y-132511252D02*
X143465000Y-131988748D01*
X144935000Y-132511252D02*
X144935000Y-131988748D01*
%TO.C,R4*%
X126777500Y-117262258D02*
X126777500Y-116787742D01*
X127822500Y-117262258D02*
X127822500Y-116787742D01*
%TO.C,C14*%
X143465000Y-128438748D02*
X143465000Y-128961252D01*
X144935000Y-128438748D02*
X144935000Y-128961252D01*
%TO.C,R10*%
X151377500Y-106362742D02*
X151377500Y-106837258D01*
X152422500Y-106362742D02*
X152422500Y-106837258D01*
%TO.C,D2*%
X133740000Y-103440000D02*
X135260000Y-103440000D01*
X133740000Y-104440000D02*
X133740000Y-103440000D01*
X133740000Y-106560000D02*
X133740000Y-105560000D01*
X135260000Y-103440000D02*
X135260000Y-103490000D01*
X135260000Y-104610000D02*
X135260000Y-105390000D01*
X135260000Y-106510000D02*
X135260000Y-106560000D01*
X135260000Y-106560000D02*
X133740000Y-106560000D01*
X135800000Y-105380000D02*
X135560000Y-105050000D01*
X136040000Y-105050000D01*
X135800000Y-105380000D01*
G36*
X135800000Y-105380000D02*
G01*
X135560000Y-105050000D01*
X136040000Y-105050000D01*
X135800000Y-105380000D01*
G37*
%TO.C,U4*%
X145740000Y-127300000D02*
X145740000Y-131060000D01*
X145740000Y-131060000D02*
X147000000Y-131060000D01*
X152560000Y-127300000D02*
X152560000Y-131060000D01*
X152560000Y-131060000D02*
X151300000Y-131060000D01*
X152790000Y-126260000D02*
X152460000Y-126020000D01*
X152790000Y-125780000D01*
X152790000Y-126260000D01*
G36*
X152790000Y-126260000D02*
G01*
X152460000Y-126020000D01*
X152790000Y-125780000D01*
X152790000Y-126260000D01*
G37*
%TO.C,R8*%
X140537258Y-129177500D02*
X140062742Y-129177500D01*
X140537258Y-130222500D02*
X140062742Y-130222500D01*
%TO.C,R5*%
X125062742Y-122177500D02*
X125537258Y-122177500D01*
X125062742Y-123222500D02*
X125537258Y-123222500D01*
%TO.C,R2*%
X140327500Y-132237742D02*
X140327500Y-132712258D01*
X141372500Y-132237742D02*
X141372500Y-132712258D01*
%TO.C,Rusb1*%
X152737258Y-123177500D02*
X152262742Y-123177500D01*
X152737258Y-124222500D02*
X152262742Y-124222500D01*
%TO.C,C3*%
X124515000Y-126538748D02*
X124515000Y-127061252D01*
X125985000Y-126538748D02*
X125985000Y-127061252D01*
%TO.C,FB1*%
X147490000Y-107449721D02*
X147490000Y-107775279D01*
X148510000Y-107449721D02*
X148510000Y-107775279D01*
%TO.C,C6*%
X136811252Y-115215000D02*
X136288748Y-115215000D01*
X136811252Y-116685000D02*
X136288748Y-116685000D01*
%TO.C,C2*%
X122415000Y-126538748D02*
X122415000Y-127061252D01*
X123885000Y-126538748D02*
X123885000Y-127061252D01*
%TO.C,C4*%
X127965580Y-131990000D02*
X127684420Y-131990000D01*
X127965580Y-133010000D02*
X127684420Y-133010000D01*
%TO.C,R6*%
X125062742Y-123727500D02*
X125537258Y-123727500D01*
X125062742Y-124772500D02*
X125537258Y-124772500D01*
%TO.C,U1*%
D12*
X127700000Y-119575000D02*
X128000000Y-119575000D01*
X127700000Y-119875000D02*
X127700000Y-119575000D01*
X127700000Y-126575000D02*
X127700000Y-126275000D01*
X128000000Y-126575000D02*
X127700000Y-126575000D01*
X134400000Y-126575000D02*
X134700000Y-126575000D01*
X134700000Y-119575000D02*
X134400000Y-119575000D01*
X134700000Y-119875000D02*
X134700000Y-119575000D01*
X134700000Y-126575000D02*
X134700000Y-126275000D01*
D10*
X128700000Y-127175000D02*
G75*
G02*
X128500000Y-127175000I-100000J0D01*
G01*
X128500000Y-127175000D02*
G75*
G02*
X128700000Y-127175000I100000J0D01*
G01*
%TO.C,U2*%
D11*
X126640000Y-108840000D02*
X126735000Y-108840000D01*
X126640000Y-112960000D02*
X126640000Y-108840000D01*
X126735000Y-112960000D02*
X126640000Y-112960000D01*
X131665000Y-108840000D02*
X131760000Y-108840000D01*
X131760000Y-108840000D02*
X131760000Y-112960000D01*
X131760000Y-112960000D02*
X131665000Y-112960000D01*
X126730000Y-113500000D02*
X126400000Y-113740000D01*
X126400000Y-113260000D01*
X126730000Y-113500000D01*
G36*
X126730000Y-113500000D02*
G01*
X126400000Y-113740000D01*
X126400000Y-113260000D01*
X126730000Y-113500000D01*
G37*
%TO.C,J3*%
X139440000Y-98915000D02*
X139440000Y-101240000D01*
X139440000Y-101240000D02*
X137050000Y-101240000D01*
X139440000Y-111085000D02*
X139440000Y-108760000D01*
X140290000Y-98915000D02*
X139440000Y-98915000D01*
X140290000Y-111085000D02*
X139440000Y-111085000D01*
X143810000Y-98915000D02*
X144660000Y-98915000D01*
X144660000Y-98915000D02*
X144660000Y-111085000D01*
X144660000Y-111085000D02*
X143810000Y-111085000D01*
%TO.C,Rusb2*%
X152737258Y-111077500D02*
X152262742Y-111077500D01*
X152737258Y-112122500D02*
X152262742Y-112122500D01*
%TO.C,C10*%
X147311252Y-103665000D02*
X146788748Y-103665000D01*
X147311252Y-105135000D02*
X146788748Y-105135000D01*
%TO.C,R11*%
X152977500Y-106362742D02*
X152977500Y-106837258D01*
X154022500Y-106362742D02*
X154022500Y-106837258D01*
%TO.C,C7*%
X136811252Y-113115000D02*
X136288748Y-113115000D01*
X136811252Y-114585000D02*
X136288748Y-114585000D01*
%TD*%
%LPC*%
%TO.C,JP2*%
G36*
X143400000Y-124800000D02*
G01*
X143700000Y-124800000D01*
X143700000Y-126300000D01*
X143400000Y-126300000D01*
X143400000Y-124800000D01*
G37*
D13*
%TO.C,USBC1*%
X151820000Y-114800000D02*
X149770000Y-114800000D01*
X149770000Y-114100000D01*
X151820000Y-114100000D01*
X151820000Y-114800000D01*
G36*
X151820000Y-114800000D02*
G01*
X149770000Y-114800000D01*
X149770000Y-114100000D01*
X151820000Y-114100000D01*
X151820000Y-114800000D01*
G37*
X151820000Y-115600000D02*
X149770000Y-115600000D01*
X149770000Y-114900000D01*
X151820000Y-114900000D01*
X151820000Y-115600000D01*
G36*
X151820000Y-115600000D02*
G01*
X149770000Y-115600000D01*
X149770000Y-114900000D01*
X151820000Y-114900000D01*
X151820000Y-115600000D01*
G37*
X151820000Y-116100000D02*
X149770000Y-116100000D01*
X149770000Y-115700000D01*
X151820000Y-115700000D01*
X151820000Y-116100000D01*
G36*
X151820000Y-116100000D02*
G01*
X149770000Y-116100000D01*
X149770000Y-115700000D01*
X151820000Y-115700000D01*
X151820000Y-116100000D01*
G37*
X151820000Y-116600000D02*
X149770000Y-116600000D01*
X149770000Y-116200000D01*
X151820000Y-116200000D01*
X151820000Y-116600000D01*
G36*
X151820000Y-116600000D02*
G01*
X149770000Y-116600000D01*
X149770000Y-116200000D01*
X151820000Y-116200000D01*
X151820000Y-116600000D01*
G37*
X151820000Y-117100000D02*
X149770000Y-117100000D01*
X149770000Y-116700000D01*
X151820000Y-116700000D01*
X151820000Y-117100000D01*
G36*
X151820000Y-117100000D02*
G01*
X149770000Y-117100000D01*
X149770000Y-116700000D01*
X151820000Y-116700000D01*
X151820000Y-117100000D01*
G37*
X151820000Y-117600000D02*
X149770000Y-117600000D01*
X149770000Y-117200000D01*
X151820000Y-117200000D01*
X151820000Y-117600000D01*
G36*
X151820000Y-117600000D02*
G01*
X149770000Y-117600000D01*
X149770000Y-117200000D01*
X151820000Y-117200000D01*
X151820000Y-117600000D01*
G37*
X151820000Y-118100000D02*
X149770000Y-118100000D01*
X149770000Y-117700000D01*
X151820000Y-117700000D01*
X151820000Y-118100000D01*
G36*
X151820000Y-118100000D02*
G01*
X149770000Y-118100000D01*
X149770000Y-117700000D01*
X151820000Y-117700000D01*
X151820000Y-118100000D01*
G37*
X151820000Y-118600000D02*
X149770000Y-118600000D01*
X149770000Y-118200000D01*
X151820000Y-118200000D01*
X151820000Y-118600000D01*
G36*
X151820000Y-118600000D02*
G01*
X149770000Y-118600000D01*
X149770000Y-118200000D01*
X151820000Y-118200000D01*
X151820000Y-118600000D01*
G37*
X151820000Y-119100000D02*
X149770000Y-119100000D01*
X149770000Y-118700000D01*
X151820000Y-118700000D01*
X151820000Y-119100000D01*
G36*
X151820000Y-119100000D02*
G01*
X149770000Y-119100000D01*
X149770000Y-118700000D01*
X151820000Y-118700000D01*
X151820000Y-119100000D01*
G37*
X151820000Y-119600000D02*
X149770000Y-119600000D01*
X149770000Y-119200000D01*
X151820000Y-119200000D01*
X151820000Y-119600000D01*
G36*
X151820000Y-119600000D02*
G01*
X149770000Y-119600000D01*
X149770000Y-119200000D01*
X151820000Y-119200000D01*
X151820000Y-119600000D01*
G37*
X151820000Y-120400000D02*
X149770000Y-120400000D01*
X149770000Y-119700000D01*
X151820000Y-119700000D01*
X151820000Y-120400000D01*
G36*
X151820000Y-120400000D02*
G01*
X149770000Y-120400000D01*
X149770000Y-119700000D01*
X151820000Y-119700000D01*
X151820000Y-120400000D01*
G37*
X151820000Y-121200000D02*
X149770000Y-121200000D01*
X149770000Y-120500000D01*
X151820000Y-120500000D01*
X151820000Y-121200000D01*
G36*
X151820000Y-121200000D02*
G01*
X149770000Y-121200000D01*
X149770000Y-120500000D01*
X151820000Y-120500000D01*
X151820000Y-121200000D01*
G37*
%TO.C,JP1*%
G36*
X139750000Y-126940000D02*
G01*
X141250000Y-126940000D01*
X141250000Y-127240000D01*
X139750000Y-127240000D01*
X139750000Y-126940000D01*
G37*
%TO.C,U1*%
X128260000Y-120650000D02*
X127690000Y-120650000D01*
X127690000Y-120300000D01*
X128260000Y-120300000D01*
X128260000Y-120650000D01*
G36*
X128260000Y-120650000D02*
G01*
X127690000Y-120650000D01*
X127690000Y-120300000D01*
X128260000Y-120300000D01*
X128260000Y-120650000D01*
G37*
X128260000Y-121050000D02*
X127690000Y-121050000D01*
X127690000Y-120700000D01*
X128260000Y-120700000D01*
X128260000Y-121050000D01*
G36*
X128260000Y-121050000D02*
G01*
X127690000Y-121050000D01*
X127690000Y-120700000D01*
X128260000Y-120700000D01*
X128260000Y-121050000D01*
G37*
X128260000Y-121450000D02*
X127690000Y-121450000D01*
X127690000Y-121100000D01*
X128260000Y-121100000D01*
X128260000Y-121450000D01*
G36*
X128260000Y-121450000D02*
G01*
X127690000Y-121450000D01*
X127690000Y-121100000D01*
X128260000Y-121100000D01*
X128260000Y-121450000D01*
G37*
X128260000Y-121850000D02*
X127690000Y-121850000D01*
X127690000Y-121500000D01*
X128260000Y-121500000D01*
X128260000Y-121850000D01*
G36*
X128260000Y-121850000D02*
G01*
X127690000Y-121850000D01*
X127690000Y-121500000D01*
X128260000Y-121500000D01*
X128260000Y-121850000D01*
G37*
X128260000Y-122250000D02*
X127690000Y-122250000D01*
X127690000Y-121900000D01*
X128260000Y-121900000D01*
X128260000Y-122250000D01*
G36*
X128260000Y-122250000D02*
G01*
X127690000Y-122250000D01*
X127690000Y-121900000D01*
X128260000Y-121900000D01*
X128260000Y-122250000D01*
G37*
X128260000Y-122650000D02*
X127690000Y-122650000D01*
X127690000Y-122300000D01*
X128260000Y-122300000D01*
X128260000Y-122650000D01*
G36*
X128260000Y-122650000D02*
G01*
X127690000Y-122650000D01*
X127690000Y-122300000D01*
X128260000Y-122300000D01*
X128260000Y-122650000D01*
G37*
X128260000Y-123050000D02*
X127690000Y-123050000D01*
X127690000Y-122700000D01*
X128260000Y-122700000D01*
X128260000Y-123050000D01*
G36*
X128260000Y-123050000D02*
G01*
X127690000Y-123050000D01*
X127690000Y-122700000D01*
X128260000Y-122700000D01*
X128260000Y-123050000D01*
G37*
X128260000Y-123450000D02*
X127690000Y-123450000D01*
X127690000Y-123100000D01*
X128260000Y-123100000D01*
X128260000Y-123450000D01*
G36*
X128260000Y-123450000D02*
G01*
X127690000Y-123450000D01*
X127690000Y-123100000D01*
X128260000Y-123100000D01*
X128260000Y-123450000D01*
G37*
X128260000Y-123850000D02*
X127690000Y-123850000D01*
X127690000Y-123500000D01*
X128260000Y-123500000D01*
X128260000Y-123850000D01*
G36*
X128260000Y-123850000D02*
G01*
X127690000Y-123850000D01*
X127690000Y-123500000D01*
X128260000Y-123500000D01*
X128260000Y-123850000D01*
G37*
X128260000Y-124250000D02*
X127690000Y-124250000D01*
X127690000Y-123900000D01*
X128260000Y-123900000D01*
X128260000Y-124250000D01*
G36*
X128260000Y-124250000D02*
G01*
X127690000Y-124250000D01*
X127690000Y-123900000D01*
X128260000Y-123900000D01*
X128260000Y-124250000D01*
G37*
X128260000Y-124650000D02*
X127690000Y-124650000D01*
X127690000Y-124300000D01*
X128260000Y-124300000D01*
X128260000Y-124650000D01*
G36*
X128260000Y-124650000D02*
G01*
X127690000Y-124650000D01*
X127690000Y-124300000D01*
X128260000Y-124300000D01*
X128260000Y-124650000D01*
G37*
X128260000Y-125050000D02*
X127690000Y-125050000D01*
X127690000Y-124700000D01*
X128260000Y-124700000D01*
X128260000Y-125050000D01*
G36*
X128260000Y-125050000D02*
G01*
X127690000Y-125050000D01*
X127690000Y-124700000D01*
X128260000Y-124700000D01*
X128260000Y-125050000D01*
G37*
X128260000Y-125450000D02*
X127690000Y-125450000D01*
X127690000Y-125100000D01*
X128260000Y-125100000D01*
X128260000Y-125450000D01*
G36*
X128260000Y-125450000D02*
G01*
X127690000Y-125450000D01*
X127690000Y-125100000D01*
X128260000Y-125100000D01*
X128260000Y-125450000D01*
G37*
X128260000Y-125850000D02*
X127690000Y-125850000D01*
X127690000Y-125500000D01*
X128260000Y-125500000D01*
X128260000Y-125850000D01*
G36*
X128260000Y-125850000D02*
G01*
X127690000Y-125850000D01*
X127690000Y-125500000D01*
X128260000Y-125500000D01*
X128260000Y-125850000D01*
G37*
X128775000Y-120135000D02*
X128425000Y-120135000D01*
X128425000Y-119565000D01*
X128775000Y-119565000D01*
X128775000Y-120135000D01*
G36*
X128775000Y-120135000D02*
G01*
X128425000Y-120135000D01*
X128425000Y-119565000D01*
X128775000Y-119565000D01*
X128775000Y-120135000D01*
G37*
X128775000Y-126585000D02*
X128425000Y-126585000D01*
X128425000Y-126015000D01*
X128775000Y-126015000D01*
X128775000Y-126585000D01*
G36*
X128775000Y-126585000D02*
G01*
X128425000Y-126585000D01*
X128425000Y-126015000D01*
X128775000Y-126015000D01*
X128775000Y-126585000D01*
G37*
X129175000Y-120135000D02*
X128825000Y-120135000D01*
X128825000Y-119565000D01*
X129175000Y-119565000D01*
X129175000Y-120135000D01*
G36*
X129175000Y-120135000D02*
G01*
X128825000Y-120135000D01*
X128825000Y-119565000D01*
X129175000Y-119565000D01*
X129175000Y-120135000D01*
G37*
X129175000Y-126585000D02*
X128825000Y-126585000D01*
X128825000Y-126015000D01*
X129175000Y-126015000D01*
X129175000Y-126585000D01*
G36*
X129175000Y-126585000D02*
G01*
X128825000Y-126585000D01*
X128825000Y-126015000D01*
X129175000Y-126015000D01*
X129175000Y-126585000D01*
G37*
X129575000Y-120135000D02*
X129225000Y-120135000D01*
X129225000Y-119565000D01*
X129575000Y-119565000D01*
X129575000Y-120135000D01*
G36*
X129575000Y-120135000D02*
G01*
X129225000Y-120135000D01*
X129225000Y-119565000D01*
X129575000Y-119565000D01*
X129575000Y-120135000D01*
G37*
X129575000Y-126585000D02*
X129225000Y-126585000D01*
X129225000Y-126015000D01*
X129575000Y-126015000D01*
X129575000Y-126585000D01*
G36*
X129575000Y-126585000D02*
G01*
X129225000Y-126585000D01*
X129225000Y-126015000D01*
X129575000Y-126015000D01*
X129575000Y-126585000D01*
G37*
X129975000Y-120135000D02*
X129625000Y-120135000D01*
X129625000Y-119565000D01*
X129975000Y-119565000D01*
X129975000Y-120135000D01*
G36*
X129975000Y-120135000D02*
G01*
X129625000Y-120135000D01*
X129625000Y-119565000D01*
X129975000Y-119565000D01*
X129975000Y-120135000D01*
G37*
X129975000Y-126585000D02*
X129625000Y-126585000D01*
X129625000Y-126015000D01*
X129975000Y-126015000D01*
X129975000Y-126585000D01*
G36*
X129975000Y-126585000D02*
G01*
X129625000Y-126585000D01*
X129625000Y-126015000D01*
X129975000Y-126015000D01*
X129975000Y-126585000D01*
G37*
X130375000Y-120135000D02*
X130025000Y-120135000D01*
X130025000Y-119565000D01*
X130375000Y-119565000D01*
X130375000Y-120135000D01*
G36*
X130375000Y-120135000D02*
G01*
X130025000Y-120135000D01*
X130025000Y-119565000D01*
X130375000Y-119565000D01*
X130375000Y-120135000D01*
G37*
X130375000Y-126585000D02*
X130025000Y-126585000D01*
X130025000Y-126015000D01*
X130375000Y-126015000D01*
X130375000Y-126585000D01*
G36*
X130375000Y-126585000D02*
G01*
X130025000Y-126585000D01*
X130025000Y-126015000D01*
X130375000Y-126015000D01*
X130375000Y-126585000D01*
G37*
X130775000Y-120135000D02*
X130425000Y-120135000D01*
X130425000Y-119565000D01*
X130775000Y-119565000D01*
X130775000Y-120135000D01*
G36*
X130775000Y-120135000D02*
G01*
X130425000Y-120135000D01*
X130425000Y-119565000D01*
X130775000Y-119565000D01*
X130775000Y-120135000D01*
G37*
X130775000Y-126585000D02*
X130425000Y-126585000D01*
X130425000Y-126015000D01*
X130775000Y-126015000D01*
X130775000Y-126585000D01*
G36*
X130775000Y-126585000D02*
G01*
X130425000Y-126585000D01*
X130425000Y-126015000D01*
X130775000Y-126015000D01*
X130775000Y-126585000D01*
G37*
X131175000Y-120135000D02*
X130825000Y-120135000D01*
X130825000Y-119565000D01*
X131175000Y-119565000D01*
X131175000Y-120135000D01*
G36*
X131175000Y-120135000D02*
G01*
X130825000Y-120135000D01*
X130825000Y-119565000D01*
X131175000Y-119565000D01*
X131175000Y-120135000D01*
G37*
X131175000Y-126585000D02*
X130825000Y-126585000D01*
X130825000Y-126015000D01*
X131175000Y-126015000D01*
X131175000Y-126585000D01*
G36*
X131175000Y-126585000D02*
G01*
X130825000Y-126585000D01*
X130825000Y-126015000D01*
X131175000Y-126015000D01*
X131175000Y-126585000D01*
G37*
X131575000Y-120135000D02*
X131225000Y-120135000D01*
X131225000Y-119565000D01*
X131575000Y-119565000D01*
X131575000Y-120135000D01*
G36*
X131575000Y-120135000D02*
G01*
X131225000Y-120135000D01*
X131225000Y-119565000D01*
X131575000Y-119565000D01*
X131575000Y-120135000D01*
G37*
X131575000Y-126585000D02*
X131225000Y-126585000D01*
X131225000Y-126015000D01*
X131575000Y-126015000D01*
X131575000Y-126585000D01*
G36*
X131575000Y-126585000D02*
G01*
X131225000Y-126585000D01*
X131225000Y-126015000D01*
X131575000Y-126015000D01*
X131575000Y-126585000D01*
G37*
X131975000Y-120135000D02*
X131625000Y-120135000D01*
X131625000Y-119565000D01*
X131975000Y-119565000D01*
X131975000Y-120135000D01*
G36*
X131975000Y-120135000D02*
G01*
X131625000Y-120135000D01*
X131625000Y-119565000D01*
X131975000Y-119565000D01*
X131975000Y-120135000D01*
G37*
X131975000Y-126585000D02*
X131625000Y-126585000D01*
X131625000Y-126015000D01*
X131975000Y-126015000D01*
X131975000Y-126585000D01*
G36*
X131975000Y-126585000D02*
G01*
X131625000Y-126585000D01*
X131625000Y-126015000D01*
X131975000Y-126015000D01*
X131975000Y-126585000D01*
G37*
X132375000Y-120135000D02*
X132025000Y-120135000D01*
X132025000Y-119565000D01*
X132375000Y-119565000D01*
X132375000Y-120135000D01*
G36*
X132375000Y-120135000D02*
G01*
X132025000Y-120135000D01*
X132025000Y-119565000D01*
X132375000Y-119565000D01*
X132375000Y-120135000D01*
G37*
X132375000Y-126585000D02*
X132025000Y-126585000D01*
X132025000Y-126015000D01*
X132375000Y-126015000D01*
X132375000Y-126585000D01*
G36*
X132375000Y-126585000D02*
G01*
X132025000Y-126585000D01*
X132025000Y-126015000D01*
X132375000Y-126015000D01*
X132375000Y-126585000D01*
G37*
X132775000Y-120135000D02*
X132425000Y-120135000D01*
X132425000Y-119565000D01*
X132775000Y-119565000D01*
X132775000Y-120135000D01*
G36*
X132775000Y-120135000D02*
G01*
X132425000Y-120135000D01*
X132425000Y-119565000D01*
X132775000Y-119565000D01*
X132775000Y-120135000D01*
G37*
X132775000Y-126585000D02*
X132425000Y-126585000D01*
X132425000Y-126015000D01*
X132775000Y-126015000D01*
X132775000Y-126585000D01*
G36*
X132775000Y-126585000D02*
G01*
X132425000Y-126585000D01*
X132425000Y-126015000D01*
X132775000Y-126015000D01*
X132775000Y-126585000D01*
G37*
X133175000Y-120135000D02*
X132825000Y-120135000D01*
X132825000Y-119565000D01*
X133175000Y-119565000D01*
X133175000Y-120135000D01*
G36*
X133175000Y-120135000D02*
G01*
X132825000Y-120135000D01*
X132825000Y-119565000D01*
X133175000Y-119565000D01*
X133175000Y-120135000D01*
G37*
X133175000Y-126585000D02*
X132825000Y-126585000D01*
X132825000Y-126015000D01*
X133175000Y-126015000D01*
X133175000Y-126585000D01*
G36*
X133175000Y-126585000D02*
G01*
X132825000Y-126585000D01*
X132825000Y-126015000D01*
X133175000Y-126015000D01*
X133175000Y-126585000D01*
G37*
X133575000Y-120135000D02*
X133225000Y-120135000D01*
X133225000Y-119565000D01*
X133575000Y-119565000D01*
X133575000Y-120135000D01*
G36*
X133575000Y-120135000D02*
G01*
X133225000Y-120135000D01*
X133225000Y-119565000D01*
X133575000Y-119565000D01*
X133575000Y-120135000D01*
G37*
X133575000Y-126585000D02*
X133225000Y-126585000D01*
X133225000Y-126015000D01*
X133575000Y-126015000D01*
X133575000Y-126585000D01*
G36*
X133575000Y-126585000D02*
G01*
X133225000Y-126585000D01*
X133225000Y-126015000D01*
X133575000Y-126015000D01*
X133575000Y-126585000D01*
G37*
X133975000Y-120135000D02*
X133625000Y-120135000D01*
X133625000Y-119565000D01*
X133975000Y-119565000D01*
X133975000Y-120135000D01*
G36*
X133975000Y-120135000D02*
G01*
X133625000Y-120135000D01*
X133625000Y-119565000D01*
X133975000Y-119565000D01*
X133975000Y-120135000D01*
G37*
X133975000Y-126585000D02*
X133625000Y-126585000D01*
X133625000Y-126015000D01*
X133975000Y-126015000D01*
X133975000Y-126585000D01*
G36*
X133975000Y-126585000D02*
G01*
X133625000Y-126585000D01*
X133625000Y-126015000D01*
X133975000Y-126015000D01*
X133975000Y-126585000D01*
G37*
X134710000Y-120650000D02*
X134140000Y-120650000D01*
X134140000Y-120300000D01*
X134710000Y-120300000D01*
X134710000Y-120650000D01*
G36*
X134710000Y-120650000D02*
G01*
X134140000Y-120650000D01*
X134140000Y-120300000D01*
X134710000Y-120300000D01*
X134710000Y-120650000D01*
G37*
X134710000Y-121050000D02*
X134140000Y-121050000D01*
X134140000Y-120700000D01*
X134710000Y-120700000D01*
X134710000Y-121050000D01*
G36*
X134710000Y-121050000D02*
G01*
X134140000Y-121050000D01*
X134140000Y-120700000D01*
X134710000Y-120700000D01*
X134710000Y-121050000D01*
G37*
X134710000Y-121450000D02*
X134140000Y-121450000D01*
X134140000Y-121100000D01*
X134710000Y-121100000D01*
X134710000Y-121450000D01*
G36*
X134710000Y-121450000D02*
G01*
X134140000Y-121450000D01*
X134140000Y-121100000D01*
X134710000Y-121100000D01*
X134710000Y-121450000D01*
G37*
X134710000Y-121850000D02*
X134140000Y-121850000D01*
X134140000Y-121500000D01*
X134710000Y-121500000D01*
X134710000Y-121850000D01*
G36*
X134710000Y-121850000D02*
G01*
X134140000Y-121850000D01*
X134140000Y-121500000D01*
X134710000Y-121500000D01*
X134710000Y-121850000D01*
G37*
X134710000Y-122250000D02*
X134140000Y-122250000D01*
X134140000Y-121900000D01*
X134710000Y-121900000D01*
X134710000Y-122250000D01*
G36*
X134710000Y-122250000D02*
G01*
X134140000Y-122250000D01*
X134140000Y-121900000D01*
X134710000Y-121900000D01*
X134710000Y-122250000D01*
G37*
X134710000Y-122650000D02*
X134140000Y-122650000D01*
X134140000Y-122300000D01*
X134710000Y-122300000D01*
X134710000Y-122650000D01*
G36*
X134710000Y-122650000D02*
G01*
X134140000Y-122650000D01*
X134140000Y-122300000D01*
X134710000Y-122300000D01*
X134710000Y-122650000D01*
G37*
X134710000Y-123050000D02*
X134140000Y-123050000D01*
X134140000Y-122700000D01*
X134710000Y-122700000D01*
X134710000Y-123050000D01*
G36*
X134710000Y-123050000D02*
G01*
X134140000Y-123050000D01*
X134140000Y-122700000D01*
X134710000Y-122700000D01*
X134710000Y-123050000D01*
G37*
X134710000Y-123450000D02*
X134140000Y-123450000D01*
X134140000Y-123100000D01*
X134710000Y-123100000D01*
X134710000Y-123450000D01*
G36*
X134710000Y-123450000D02*
G01*
X134140000Y-123450000D01*
X134140000Y-123100000D01*
X134710000Y-123100000D01*
X134710000Y-123450000D01*
G37*
X134710000Y-123850000D02*
X134140000Y-123850000D01*
X134140000Y-123500000D01*
X134710000Y-123500000D01*
X134710000Y-123850000D01*
G36*
X134710000Y-123850000D02*
G01*
X134140000Y-123850000D01*
X134140000Y-123500000D01*
X134710000Y-123500000D01*
X134710000Y-123850000D01*
G37*
X134710000Y-124250000D02*
X134140000Y-124250000D01*
X134140000Y-123900000D01*
X134710000Y-123900000D01*
X134710000Y-124250000D01*
G36*
X134710000Y-124250000D02*
G01*
X134140000Y-124250000D01*
X134140000Y-123900000D01*
X134710000Y-123900000D01*
X134710000Y-124250000D01*
G37*
X134710000Y-124650000D02*
X134140000Y-124650000D01*
X134140000Y-124300000D01*
X134710000Y-124300000D01*
X134710000Y-124650000D01*
G36*
X134710000Y-124650000D02*
G01*
X134140000Y-124650000D01*
X134140000Y-124300000D01*
X134710000Y-124300000D01*
X134710000Y-124650000D01*
G37*
X134710000Y-125050000D02*
X134140000Y-125050000D01*
X134140000Y-124700000D01*
X134710000Y-124700000D01*
X134710000Y-125050000D01*
G36*
X134710000Y-125050000D02*
G01*
X134140000Y-125050000D01*
X134140000Y-124700000D01*
X134710000Y-124700000D01*
X134710000Y-125050000D01*
G37*
X134710000Y-125450000D02*
X134140000Y-125450000D01*
X134140000Y-125100000D01*
X134710000Y-125100000D01*
X134710000Y-125450000D01*
G36*
X134710000Y-125450000D02*
G01*
X134140000Y-125450000D01*
X134140000Y-125100000D01*
X134710000Y-125100000D01*
X134710000Y-125450000D01*
G37*
X134710000Y-125850000D02*
X134140000Y-125850000D01*
X134140000Y-125500000D01*
X134710000Y-125500000D01*
X134710000Y-125850000D01*
G36*
X134710000Y-125850000D02*
G01*
X134140000Y-125850000D01*
X134140000Y-125500000D01*
X134710000Y-125500000D01*
X134710000Y-125850000D01*
G37*
%TD*%
D14*
%TO.C,JP2*%
X142900000Y-125550000D03*
D15*
X144200000Y-125550000D03*
%TD*%
D16*
%TO.C,R7*%
X136200000Y-129700000D03*
X137850000Y-129700000D03*
%TD*%
D17*
%TO.C,C5*%
X128600000Y-127800000D03*
X127050000Y-127800000D03*
%TD*%
D18*
%TO.C,Q1*%
X136550000Y-127937500D03*
X138450000Y-127937500D03*
X137500000Y-126062500D03*
%TD*%
D19*
%TO.C,R3*%
X132350000Y-130650000D03*
X132350000Y-129000000D03*
%TD*%
D20*
%TO.C,C11*%
X150000000Y-107200000D03*
X150000000Y-109100000D03*
%TD*%
%TO.C,C13*%
X133050000Y-111750000D03*
X133050000Y-113650000D03*
%TD*%
D21*
%TO.C,C8*%
X148000000Y-102150000D03*
X146100000Y-102150000D03*
%TD*%
D22*
%TO.C,L1*%
X128600000Y-130925000D03*
X128600000Y-129350000D03*
%TD*%
D16*
%TO.C,R1*%
X134500000Y-137850000D03*
X136150000Y-137850000D03*
%TD*%
D23*
%TO.C,C9*%
X149750000Y-103400000D03*
X151650000Y-103400000D03*
%TD*%
D24*
%TO.C,RST1*%
X136150000Y-136100000D03*
X136150000Y-131650000D03*
%TD*%
D20*
%TO.C,C1*%
X130500000Y-129000000D03*
X130500000Y-130900000D03*
%TD*%
D25*
%TO.C,L2*%
X131275000Y-106300000D03*
X131275000Y-103800000D03*
X126725000Y-103800000D03*
X126725000Y-106300000D03*
%TD*%
D20*
%TO.C,C12*%
X155400000Y-108750000D03*
X155400000Y-110650000D03*
%TD*%
D26*
%TO.C,USBC1*%
X152270000Y-120540000D03*
X152270000Y-114760000D03*
D27*
X151770000Y-121970000D03*
X151770000Y-113330000D03*
D28*
X155950000Y-121970000D03*
X155950000Y-113330000D03*
%TD*%
D16*
%TO.C,R9*%
X139375000Y-124600000D03*
X141025000Y-124600000D03*
%TD*%
D29*
%TO.C,R12*%
X131100000Y-116300000D03*
X129450000Y-116300000D03*
%TD*%
D30*
%TO.C,U3*%
X146437500Y-123150000D03*
X146437500Y-122200000D03*
X146437500Y-121250000D03*
X144162500Y-121250000D03*
X144162500Y-122200000D03*
X144162500Y-123150000D03*
%TD*%
D31*
%TO.C,JP1*%
X140500000Y-126440000D03*
X140500000Y-127740000D03*
%TD*%
D24*
%TO.C,SPST1*%
X138800000Y-136100000D03*
X138800000Y-131650000D03*
%TD*%
D32*
%TO.C,D1*%
X146200000Y-108412500D03*
X146200000Y-106587500D03*
%TD*%
D33*
%TO.C,C15*%
X144200000Y-133200000D03*
X144200000Y-131300000D03*
%TD*%
D19*
%TO.C,R4*%
X127300000Y-117850000D03*
X127300000Y-116200000D03*
%TD*%
D20*
%TO.C,C14*%
X144200000Y-127750000D03*
X144200000Y-129650000D03*
%TD*%
D34*
%TO.C,R10*%
X151900000Y-105775000D03*
X151900000Y-107425000D03*
%TD*%
D35*
%TO.C,D2*%
X135437500Y-105950000D03*
X135437500Y-104050000D03*
X133562500Y-105000000D03*
%TD*%
D36*
%TO.C,U4*%
X151450000Y-126000000D03*
X149150000Y-126000000D03*
D37*
X149150000Y-132300000D03*
D36*
X146850000Y-126000000D03*
%TD*%
D29*
%TO.C,R8*%
X141125000Y-129700000D03*
X139475000Y-129700000D03*
%TD*%
D16*
%TO.C,R5*%
X124475000Y-122700000D03*
X126125000Y-122700000D03*
%TD*%
D34*
%TO.C,R2*%
X140850000Y-131650000D03*
X140850000Y-133300000D03*
%TD*%
D29*
%TO.C,Rusb1*%
X153325000Y-123700000D03*
X151675000Y-123700000D03*
%TD*%
D20*
%TO.C,C3*%
X125250000Y-125850000D03*
X125250000Y-127750000D03*
%TD*%
D38*
%TO.C,J1*%
X130250000Y-134050000D03*
D39*
X131750000Y-135525000D03*
D38*
X133250000Y-134050000D03*
D39*
X131750000Y-132575000D03*
%TD*%
D40*
%TO.C,FB1*%
X148000000Y-106825000D03*
X148000000Y-108400000D03*
%TD*%
D21*
%TO.C,C6*%
X137500000Y-115950000D03*
X135600000Y-115950000D03*
%TD*%
D20*
%TO.C,C2*%
X123150000Y-125850000D03*
X123150000Y-127750000D03*
%TD*%
D17*
%TO.C,C4*%
X128600000Y-132500000D03*
X127050000Y-132500000D03*
%TD*%
D16*
%TO.C,R6*%
X124475000Y-124250000D03*
X126125000Y-124250000D03*
%TD*%
D41*
%TO.C,U1*%
X131200000Y-123075000D03*
%TD*%
D42*
%TO.C,U2*%
X127295000Y-113375000D03*
X128565000Y-113375000D03*
X129835000Y-113375000D03*
X131105000Y-113375000D03*
X131105000Y-108425000D03*
X129835000Y-108425000D03*
X128565000Y-108425000D03*
X127295000Y-108425000D03*
%TD*%
D43*
%TO.C,J3*%
X139800000Y-102000000D03*
X139800000Y-104000000D03*
X139800000Y-106000000D03*
X139800000Y-108000000D03*
D44*
X142050000Y-99600000D03*
X142050000Y-110400000D03*
%TD*%
D29*
%TO.C,Rusb2*%
X153325000Y-111600000D03*
X151675000Y-111600000D03*
%TD*%
D21*
%TO.C,C10*%
X148000000Y-104400000D03*
X146100000Y-104400000D03*
%TD*%
D34*
%TO.C,R11*%
X153500000Y-105775000D03*
X153500000Y-107425000D03*
%TD*%
D21*
%TO.C,C7*%
X137500000Y-113850000D03*
X135600000Y-113850000D03*
%TD*%
%LPD*%
M02*
