%TF.GenerationSoftware,KiCad,Pcbnew,9.0.0*%
%TF.CreationDate,2025-10-25T14:56:04+02:00*%
%TF.ProjectId,DisplayBoard,44697370-6c61-4794-926f-6172642e6b69,rev?*%
%TF.SameCoordinates,Original*%
%TF.FileFunction,Copper,L3,Inr*%
%TF.FilePolarity,Positive*%
%FSLAX46Y46*%
G04 Gerber Fmt 4.6, Leading zero omitted, Abs format (unit mm)*
G04 Created by KiCad (PCBNEW 9.0.0) date 2025-10-25 14:56:04*
%MOMM*%
%LPD*%
G01*
G04 APERTURE LIST*
G04 Aperture macros list*
%AMRoundRect*
0 Rectangle with rounded corners*
0 $1 Rounding radius*
0 $2 $3 $4 $5 $6 $7 $8 $9 X,Y pos of 4 corners*
0 Add a 4 corners polygon primitive as box body*
4,1,4,$2,$3,$4,$5,$6,$7,$8,$9,$2,$3,0*
0 Add four circle primitives for the rounded corners*
1,1,$1+$1,$2,$3*
1,1,$1+$1,$4,$5*
1,1,$1+$1,$6,$7*
1,1,$1+$1,$8,$9*
0 Add four rect primitives between the rounded corners*
20,1,$1+$1,$2,$3,$4,$5,0*
20,1,$1+$1,$4,$5,$6,$7,0*
20,1,$1+$1,$6,$7,$8,$9,0*
20,1,$1+$1,$8,$9,$2,$3,0*%
G04 Aperture macros list end*
%TA.AperFunction,ComponentPad*%
%ADD10RoundRect,0.250000X0.725000X-0.600000X0.725000X0.600000X-0.725000X0.600000X-0.725000X-0.600000X0*%
%TD*%
%TA.AperFunction,ComponentPad*%
%ADD11O,1.950000X1.700000*%
%TD*%
%TA.AperFunction,ComponentPad*%
%ADD12O,1.000000X2.100000*%
%TD*%
%TA.AperFunction,ComponentPad*%
%ADD13O,1.000000X1.800000*%
%TD*%
%TA.AperFunction,ViaPad*%
%ADD14C,0.600000*%
%TD*%
%TA.AperFunction,ViaPad*%
%ADD15C,0.300000*%
%TD*%
G04 APERTURE END LIST*
D10*
%TO.N,GND*%
%TO.C,J401*%
X88250000Y-121750000D03*
D11*
%TO.N,CANL*%
X88250000Y-119250000D03*
%TO.N,CANH*%
X88250000Y-116750000D03*
%TO.N,+3.3V*%
X88250000Y-114250000D03*
%TD*%
D12*
%TO.N,GND*%
%TO.C,USBC501*%
X104247500Y-131007500D03*
X95607500Y-131007500D03*
D13*
X104247500Y-135187500D03*
X95607500Y-135187500D03*
%TD*%
D14*
%TO.N,+3.3V*%
X88250000Y-112500000D03*
X87250000Y-112500000D03*
X86500000Y-112500000D03*
X86500000Y-113250000D03*
X86500000Y-114000000D03*
X86500000Y-114725000D03*
X90000000Y-114750000D03*
X90000000Y-114000000D03*
X90000000Y-113250000D03*
X89250000Y-112500000D03*
X90000000Y-112500000D03*
%TO.N,GND*%
X90803964Y-131880857D03*
X88935174Y-130464079D03*
X87281749Y-128801005D03*
X85875870Y-126924003D03*
X84744901Y-124869607D03*
X83910855Y-122677804D03*
X83389966Y-120391254D03*
X83192373Y-118054464D03*
X83321921Y-115712915D03*
X83776088Y-113412184D03*
X84546036Y-111197051D03*
X85616778Y-109110631D03*
X86967472Y-107193535D03*
X88571830Y-105483077D03*
X90398624Y-104012548D03*
X92412299Y-102810570D03*
X103828931Y-101442490D03*
X106069585Y-102134662D03*
X108192102Y-103131936D03*
X110155169Y-104414902D03*
X111920577Y-105958588D03*
X113453964Y-107732949D03*
X114725485Y-109703448D03*
X115710392Y-111831732D03*
X116389514Y-114076376D03*
X116749632Y-116393691D03*
X116783738Y-118738573D03*
X116491167Y-121065381D03*
X115877615Y-123328826D03*
X114955023Y-125484854D03*
X113741348Y-127491500D03*
X110540449Y-130904084D03*
X108615525Y-132243600D03*
X102000000Y-134500000D03*
X99657737Y-134615920D03*
X105500000Y-136500000D03*
X106500000Y-134500000D03*
X94000000Y-136500000D03*
X93500000Y-134500000D03*
X97500000Y-136500000D03*
X99000000Y-136500000D03*
X100500000Y-136500000D03*
X102000000Y-136500000D03*
X97500000Y-134500000D03*
X92500000Y-121000000D03*
X93500000Y-121000000D03*
X90000000Y-107500000D03*
X89500000Y-108500000D03*
X89500000Y-109500000D03*
X89500000Y-110500000D03*
X90000000Y-111500000D03*
X94500000Y-117000000D03*
X94500000Y-118000000D03*
X94500000Y-119000000D03*
X94500000Y-120000000D03*
X91500000Y-120000000D03*
X90500000Y-119500000D03*
X94500000Y-116000000D03*
X94000000Y-115000000D03*
X90500000Y-116000000D03*
X91000000Y-115000000D03*
X91000000Y-114000000D03*
X91000000Y-113000000D03*
X91000000Y-112000000D03*
X93500000Y-111000000D03*
X93500000Y-112000000D03*
X93500000Y-113000000D03*
X93500000Y-114000000D03*
X110750000Y-114250000D03*
X106750000Y-121500000D03*
X106250000Y-129250000D03*
X101500000Y-123000000D03*
X109696655Y-107022482D03*
X96750000Y-102000000D03*
X99500000Y-104250000D03*
X92750000Y-117000000D03*
X105500000Y-127250000D03*
X95250000Y-129500000D03*
X106000000Y-114250000D03*
X102239600Y-110416280D03*
X108500000Y-124500000D03*
X90750000Y-127500000D03*
X110750000Y-108500000D03*
X95250000Y-113500000D03*
X103295787Y-107011484D03*
X96750000Y-112000000D03*
X98814188Y-112049265D03*
X90000000Y-121750000D03*
X93500000Y-129250000D03*
X108500000Y-111750000D03*
X102250000Y-108500000D03*
X104250000Y-126000000D03*
X102000000Y-101500000D03*
D15*
X102254264Y-115321412D03*
D14*
X88250000Y-123250000D03*
X86500000Y-121750000D03*
X108500000Y-116500000D03*
%TO.N,+3.3V*%
X95671571Y-118360318D03*
X103550573Y-120011899D03*
X97000000Y-122750000D03*
X98500000Y-122750000D03*
X105000000Y-111000000D03*
X100000000Y-122750000D03*
X104500000Y-111500000D03*
X104000000Y-124250000D03*
X98500000Y-121500000D03*
X97000000Y-120250000D03*
X108839353Y-105397575D03*
X107813953Y-107004264D03*
X95685652Y-117428643D03*
X98922544Y-105736823D03*
X104500000Y-115500000D03*
X97500000Y-101250000D03*
X106000000Y-110000000D03*
X100000000Y-121500000D03*
X98500000Y-120250000D03*
X101358487Y-117428643D03*
X97000000Y-121500000D03*
X102200000Y-124500000D03*
X103563387Y-122972594D03*
X112500000Y-113500000D03*
X106500000Y-108500000D03*
X100796223Y-116665572D03*
X100000000Y-120250000D03*
X96127431Y-116665572D03*
X112500000Y-128750000D03*
X105196416Y-106982268D03*
X101354445Y-118360318D03*
%TO.N,Net-(U201-CHIP_PU)*%
X101750000Y-109500000D03*
X107000000Y-109750000D03*
%TO.N,/CAN/CAN_TX*%
X111044901Y-110065951D03*
X95750000Y-101250000D03*
%TO.N,/CAN/CAN_RX*%
X98500000Y-104000000D03*
X109852516Y-110065951D03*
%TO.N,LEDK*%
X103000000Y-124250000D03*
%TO.N,/MCU/USB_D+*%
X114500000Y-116500000D03*
X99250000Y-132000000D03*
%TO.N,/MCU/USB_D-*%
X113500000Y-115250000D03*
X101250000Y-132250000D03*
%TO.N,/GC9A01/RST*%
X106000000Y-118500000D03*
%TO.N,/GC9A01/DC*%
X112750000Y-117000000D03*
%TO.N,/GC9A01/CS*%
X108750000Y-119000000D03*
%TO.N,/GC9A01/DIN*%
X106750000Y-119000000D03*
%TO.N,/GC9A01/CLK*%
X107750000Y-119000000D03*
%TO.N,Net-(SPST201-B)*%
X107000000Y-105500000D03*
X108500000Y-110000000D03*
%TD*%
%TA.AperFunction,Conductor*%
%TO.N,+3.3V*%
G36*
X100413707Y-100505515D02*
G01*
X100419594Y-100505657D01*
X101240454Y-100545075D01*
X101246302Y-100545496D01*
X101548176Y-100574506D01*
X101613024Y-100600513D01*
X101653518Y-100657452D01*
X101656800Y-100727244D01*
X101621828Y-100787732D01*
X101605205Y-100801039D01*
X101489707Y-100878213D01*
X101378213Y-100989707D01*
X101378210Y-100989711D01*
X101290609Y-101120814D01*
X101290602Y-101120827D01*
X101230264Y-101266498D01*
X101230261Y-101266510D01*
X101199500Y-101421153D01*
X101199500Y-101578846D01*
X101230261Y-101733489D01*
X101230264Y-101733501D01*
X101290602Y-101879172D01*
X101290609Y-101879185D01*
X101378210Y-102010288D01*
X101378213Y-102010292D01*
X101489707Y-102121786D01*
X101489711Y-102121789D01*
X101620814Y-102209390D01*
X101620827Y-102209397D01*
X101766498Y-102269735D01*
X101766503Y-102269737D01*
X101896504Y-102295596D01*
X101921153Y-102300499D01*
X101921156Y-102300500D01*
X101921158Y-102300500D01*
X102078844Y-102300500D01*
X102078845Y-102300499D01*
X102233497Y-102269737D01*
X102372337Y-102212228D01*
X102379172Y-102209397D01*
X102379172Y-102209396D01*
X102379179Y-102209394D01*
X102510289Y-102121789D01*
X102621789Y-102010289D01*
X102709394Y-101879179D01*
X102769737Y-101733497D01*
X102798568Y-101588556D01*
X102830953Y-101526645D01*
X102891668Y-101492071D01*
X102961438Y-101495810D01*
X103018110Y-101536677D01*
X103041802Y-101588555D01*
X103059192Y-101675981D01*
X103059195Y-101675991D01*
X103119533Y-101821662D01*
X103119540Y-101821675D01*
X103207141Y-101952778D01*
X103207144Y-101952782D01*
X103318638Y-102064276D01*
X103318642Y-102064279D01*
X103449745Y-102151880D01*
X103449758Y-102151887D01*
X103560804Y-102197883D01*
X103595434Y-102212227D01*
X103750084Y-102242989D01*
X103750087Y-102242990D01*
X103750089Y-102242990D01*
X103907775Y-102242990D01*
X103907776Y-102242989D01*
X104062428Y-102212227D01*
X104208110Y-102151884D01*
X104339220Y-102064279D01*
X104450720Y-101952779D01*
X104538325Y-101821669D01*
X104598668Y-101675987D01*
X104629431Y-101521332D01*
X104629431Y-101363648D01*
X104629431Y-101363645D01*
X104629430Y-101363643D01*
X104620883Y-101320671D01*
X104627110Y-101251080D01*
X104669973Y-101195902D01*
X104735863Y-101172658D01*
X104777607Y-101177554D01*
X105294101Y-101330048D01*
X105299711Y-101331851D01*
X105439838Y-101380618D01*
X105496679Y-101421242D01*
X105522536Y-101486151D01*
X105509196Y-101554735D01*
X105486760Y-101585407D01*
X105447799Y-101624368D01*
X105447795Y-101624373D01*
X105360194Y-101755476D01*
X105360187Y-101755489D01*
X105299849Y-101901160D01*
X105299846Y-101901172D01*
X105269085Y-102055815D01*
X105269085Y-102213508D01*
X105299846Y-102368151D01*
X105299849Y-102368163D01*
X105360187Y-102513834D01*
X105360194Y-102513847D01*
X105447795Y-102644950D01*
X105447798Y-102644954D01*
X105559292Y-102756448D01*
X105559296Y-102756451D01*
X105690399Y-102844052D01*
X105690412Y-102844059D01*
X105821687Y-102898434D01*
X105836088Y-102904399D01*
X105990738Y-102935161D01*
X105990741Y-102935162D01*
X105990743Y-102935162D01*
X106148429Y-102935162D01*
X106148430Y-102935161D01*
X106303082Y-102904399D01*
X106448764Y-102844056D01*
X106579874Y-102756451D01*
X106691374Y-102644951D01*
X106778979Y-102513841D01*
X106839322Y-102368159D01*
X106870085Y-102213504D01*
X106870085Y-102116310D01*
X106889770Y-102049271D01*
X106942574Y-102003516D01*
X107011732Y-101993572D01*
X107045838Y-102003626D01*
X107410369Y-102171053D01*
X107595886Y-102256260D01*
X107601213Y-102258863D01*
X107672051Y-102295596D01*
X107722503Y-102343932D01*
X107738814Y-102411871D01*
X107715805Y-102477843D01*
X107686484Y-102506238D01*
X107686521Y-102506283D01*
X107685983Y-102506723D01*
X107683869Y-102508772D01*
X107681817Y-102510143D01*
X107681809Y-102510149D01*
X107570315Y-102621643D01*
X107570312Y-102621647D01*
X107482711Y-102752750D01*
X107482704Y-102752763D01*
X107422366Y-102898434D01*
X107422363Y-102898446D01*
X107391602Y-103053089D01*
X107391602Y-103210782D01*
X107422363Y-103365425D01*
X107422366Y-103365437D01*
X107482704Y-103511108D01*
X107482711Y-103511121D01*
X107570312Y-103642224D01*
X107570315Y-103642228D01*
X107681809Y-103753722D01*
X107681813Y-103753725D01*
X107812916Y-103841326D01*
X107812929Y-103841333D01*
X107958600Y-103901671D01*
X107958605Y-103901673D01*
X108113255Y-103932435D01*
X108113258Y-103932436D01*
X108113260Y-103932436D01*
X108270946Y-103932436D01*
X108270947Y-103932435D01*
X108425599Y-103901673D01*
X108571281Y-103841330D01*
X108702391Y-103753725D01*
X108813891Y-103642225D01*
X108901496Y-103511115D01*
X108961839Y-103365433D01*
X108984537Y-103251323D01*
X108991008Y-103218793D01*
X109023393Y-103156882D01*
X109084108Y-103122308D01*
X109153878Y-103126047D01*
X109179957Y-103138857D01*
X109687138Y-103466829D01*
X109741617Y-103502058D01*
X109746519Y-103505398D01*
X109759623Y-103514790D01*
X109802645Y-103569843D01*
X109809074Y-103639416D01*
X109776867Y-103701421D01*
X109756278Y-103718678D01*
X109644880Y-103793112D01*
X109644876Y-103793115D01*
X109533382Y-103904609D01*
X109533379Y-103904613D01*
X109445778Y-104035716D01*
X109445771Y-104035729D01*
X109385433Y-104181400D01*
X109385430Y-104181412D01*
X109354669Y-104336055D01*
X109354669Y-104493748D01*
X109385430Y-104648391D01*
X109385433Y-104648403D01*
X109445771Y-104794074D01*
X109445778Y-104794087D01*
X109533379Y-104925190D01*
X109533382Y-104925194D01*
X109644876Y-105036688D01*
X109644880Y-105036691D01*
X109775983Y-105124292D01*
X109775996Y-105124299D01*
X109870828Y-105163579D01*
X109921672Y-105184639D01*
X110076322Y-105215401D01*
X110076325Y-105215402D01*
X110076327Y-105215402D01*
X110234013Y-105215402D01*
X110234014Y-105215401D01*
X110388666Y-105184639D01*
X110534348Y-105124296D01*
X110665458Y-105036691D01*
X110776958Y-104925191D01*
X110864563Y-104794081D01*
X110869083Y-104783170D01*
X110894445Y-104721938D01*
X110924906Y-104648399D01*
X110929184Y-104626892D01*
X110961567Y-104564982D01*
X111022282Y-104530407D01*
X111092052Y-104534146D01*
X111132330Y-104557654D01*
X111308606Y-104711477D01*
X111627447Y-104989707D01*
X111650736Y-105010029D01*
X111688305Y-105068938D01*
X111688062Y-105138807D01*
X111650083Y-105197453D01*
X111616660Y-105218019D01*
X111541401Y-105249192D01*
X111541391Y-105249197D01*
X111410288Y-105336798D01*
X111410284Y-105336801D01*
X111298790Y-105448295D01*
X111298787Y-105448299D01*
X111211186Y-105579402D01*
X111211179Y-105579415D01*
X111150841Y-105725086D01*
X111150838Y-105725098D01*
X111120077Y-105879741D01*
X111120077Y-106037434D01*
X111150838Y-106192077D01*
X111150841Y-106192089D01*
X111211179Y-106337760D01*
X111211186Y-106337773D01*
X111298787Y-106468876D01*
X111298790Y-106468880D01*
X111410284Y-106580374D01*
X111410288Y-106580377D01*
X111541391Y-106667978D01*
X111541404Y-106667985D01*
X111687075Y-106728323D01*
X111687080Y-106728325D01*
X111836034Y-106757954D01*
X111841730Y-106759087D01*
X111841733Y-106759088D01*
X111841735Y-106759088D01*
X111999421Y-106759088D01*
X111999422Y-106759087D01*
X112154074Y-106728325D01*
X112299756Y-106667982D01*
X112430866Y-106580377D01*
X112542366Y-106468877D01*
X112629971Y-106337767D01*
X112659381Y-106266763D01*
X112703221Y-106212361D01*
X112769515Y-106190295D01*
X112837214Y-106207574D01*
X112867991Y-106233403D01*
X113316648Y-106755545D01*
X113345409Y-106819221D01*
X113335179Y-106888337D01*
X113289205Y-106940951D01*
X113246792Y-106957975D01*
X113220471Y-106963210D01*
X113220462Y-106963213D01*
X113074791Y-107023551D01*
X113074778Y-107023558D01*
X112943675Y-107111159D01*
X112943671Y-107111162D01*
X112832177Y-107222656D01*
X112832174Y-107222660D01*
X112744573Y-107353763D01*
X112744566Y-107353776D01*
X112684228Y-107499447D01*
X112684225Y-107499459D01*
X112653464Y-107654102D01*
X112653464Y-107811795D01*
X112684225Y-107966438D01*
X112684228Y-107966450D01*
X112744566Y-108112121D01*
X112744573Y-108112134D01*
X112832174Y-108243237D01*
X112832177Y-108243241D01*
X112943671Y-108354735D01*
X112943675Y-108354738D01*
X113074778Y-108442339D01*
X113074791Y-108442346D01*
X113187042Y-108488841D01*
X113220467Y-108502686D01*
X113375117Y-108533448D01*
X113375120Y-108533449D01*
X113375122Y-108533449D01*
X113532808Y-108533449D01*
X113532809Y-108533448D01*
X113687461Y-108502686D01*
X113833143Y-108442343D01*
X113964253Y-108354738D01*
X114075753Y-108243238D01*
X114109977Y-108192016D01*
X114146853Y-108136830D01*
X114170874Y-108116754D01*
X114193641Y-108095245D01*
X114197472Y-108094524D01*
X114200465Y-108092024D01*
X114231534Y-108088121D01*
X114262308Y-108082337D01*
X114265921Y-108083802D01*
X114269790Y-108083317D01*
X114298035Y-108096830D01*
X114327053Y-108108602D01*
X114330693Y-108112454D01*
X114332817Y-108113471D01*
X114351291Y-108134257D01*
X114378636Y-108173033D01*
X114381937Y-108177960D01*
X114465982Y-108310131D01*
X114650517Y-108600338D01*
X114723723Y-108715463D01*
X114743085Y-108782596D01*
X114723077Y-108849540D01*
X114670054Y-108895040D01*
X114643278Y-108903616D01*
X114491993Y-108933709D01*
X114491983Y-108933712D01*
X114346312Y-108994050D01*
X114346299Y-108994057D01*
X114215196Y-109081658D01*
X114215192Y-109081661D01*
X114103698Y-109193155D01*
X114103695Y-109193159D01*
X114016094Y-109324262D01*
X114016087Y-109324275D01*
X113955749Y-109469946D01*
X113955746Y-109469958D01*
X113924985Y-109624601D01*
X113924985Y-109782294D01*
X113955746Y-109936937D01*
X113955749Y-109936949D01*
X114016087Y-110082620D01*
X114016094Y-110082633D01*
X114103695Y-110213736D01*
X114103698Y-110213740D01*
X114215192Y-110325234D01*
X114215196Y-110325237D01*
X114346299Y-110412838D01*
X114346312Y-110412845D01*
X114464369Y-110461745D01*
X114491988Y-110473185D01*
X114646638Y-110503947D01*
X114646641Y-110503948D01*
X114646643Y-110503948D01*
X114804329Y-110503948D01*
X114804330Y-110503947D01*
X114958982Y-110473185D01*
X115084587Y-110421158D01*
X115104657Y-110412845D01*
X115104657Y-110412844D01*
X115104664Y-110412842D01*
X115235774Y-110325237D01*
X115347274Y-110213737D01*
X115347276Y-110213733D01*
X115350917Y-110209297D01*
X115351181Y-110208650D01*
X115375705Y-110191379D01*
X115398708Y-110172139D01*
X115403969Y-110171475D01*
X115408307Y-110168421D01*
X115438274Y-110167151D01*
X115468029Y-110163401D01*
X115472815Y-110165688D01*
X115478114Y-110165464D01*
X115504009Y-110180596D01*
X115531070Y-110193529D01*
X115535085Y-110198756D01*
X115538439Y-110200716D01*
X115558760Y-110229573D01*
X115608746Y-110327797D01*
X115611308Y-110333145D01*
X115826706Y-110811727D01*
X115846786Y-110856340D01*
X115856350Y-110925552D01*
X115826977Y-110988947D01*
X115767993Y-111026399D01*
X115733711Y-111031232D01*
X115631547Y-111031232D01*
X115476902Y-111061993D01*
X115476890Y-111061996D01*
X115331219Y-111122334D01*
X115331206Y-111122341D01*
X115200103Y-111209942D01*
X115200099Y-111209945D01*
X115088605Y-111321439D01*
X115088602Y-111321443D01*
X115001001Y-111452546D01*
X115000994Y-111452559D01*
X114940656Y-111598230D01*
X114940653Y-111598242D01*
X114909892Y-111752885D01*
X114909892Y-111910578D01*
X114940653Y-112065221D01*
X114940656Y-112065233D01*
X115000994Y-112210904D01*
X115001001Y-112210917D01*
X115088602Y-112342020D01*
X115088605Y-112342024D01*
X115200099Y-112453518D01*
X115200103Y-112453521D01*
X115331206Y-112541122D01*
X115331219Y-112541129D01*
X115476890Y-112601467D01*
X115476895Y-112601469D01*
X115631545Y-112632231D01*
X115631548Y-112632232D01*
X115631550Y-112632232D01*
X115789236Y-112632232D01*
X115789237Y-112632231D01*
X115943889Y-112601469D01*
X116089571Y-112541126D01*
X116220681Y-112453521D01*
X116255432Y-112418769D01*
X116257109Y-112417854D01*
X116258076Y-112416202D01*
X116287636Y-112401183D01*
X116316752Y-112385284D01*
X116318662Y-112385420D01*
X116320368Y-112384554D01*
X116353358Y-112387901D01*
X116386444Y-112390267D01*
X116387976Y-112391413D01*
X116389880Y-112391607D01*
X116415824Y-112412260D01*
X116442378Y-112432137D01*
X116443522Y-112434308D01*
X116444545Y-112435123D01*
X116460531Y-112466589D01*
X116518136Y-112636274D01*
X116519908Y-112641932D01*
X116659859Y-113129627D01*
X116659429Y-113199495D01*
X116621294Y-113258040D01*
X116557562Y-113286674D01*
X116516479Y-113285448D01*
X116468356Y-113275876D01*
X116310672Y-113275876D01*
X116310669Y-113275876D01*
X116156024Y-113306637D01*
X116156012Y-113306640D01*
X116010341Y-113366978D01*
X116010328Y-113366985D01*
X115879225Y-113454586D01*
X115879221Y-113454589D01*
X115767727Y-113566083D01*
X115767724Y-113566087D01*
X115680123Y-113697190D01*
X115680116Y-113697203D01*
X115619778Y-113842874D01*
X115619775Y-113842886D01*
X115589014Y-113997529D01*
X115589014Y-114155222D01*
X115619775Y-114309865D01*
X115619778Y-114309877D01*
X115680116Y-114455548D01*
X115680123Y-114455561D01*
X115767724Y-114586664D01*
X115767727Y-114586668D01*
X115879221Y-114698162D01*
X115879225Y-114698165D01*
X116010328Y-114785766D01*
X116010341Y-114785773D01*
X116156012Y-114846111D01*
X116156017Y-114846113D01*
X116280232Y-114870821D01*
X116310667Y-114876875D01*
X116310670Y-114876876D01*
X116310672Y-114876876D01*
X116468358Y-114876876D01*
X116468359Y-114876875D01*
X116623011Y-114846113D01*
X116768693Y-114785770D01*
X116852555Y-114729734D01*
X116884572Y-114719709D01*
X116916362Y-114708941D01*
X116917809Y-114709302D01*
X116919232Y-114708857D01*
X116951594Y-114717734D01*
X116984152Y-114725861D01*
X116985173Y-114726946D01*
X116986612Y-114727341D01*
X117009035Y-114752303D01*
X117032034Y-114776744D01*
X117032666Y-114778611D01*
X117033303Y-114779320D01*
X117043357Y-114810173D01*
X117088144Y-115051082D01*
X117089088Y-115056935D01*
X117148414Y-115490501D01*
X117138000Y-115559591D01*
X117091886Y-115612082D01*
X117024714Y-115631309D01*
X116989423Y-115624179D01*
X116988956Y-115625722D01*
X116983132Y-115623955D01*
X116983129Y-115623954D01*
X116983124Y-115623953D01*
X116983121Y-115623952D01*
X116828477Y-115593191D01*
X116828474Y-115593191D01*
X116670790Y-115593191D01*
X116670787Y-115593191D01*
X116516142Y-115623952D01*
X116516130Y-115623955D01*
X116370459Y-115684293D01*
X116370446Y-115684300D01*
X116239343Y-115771901D01*
X116239339Y-115771904D01*
X116127845Y-115883398D01*
X116127842Y-115883402D01*
X116040241Y-116014505D01*
X116040234Y-116014518D01*
X115979896Y-116160189D01*
X115979893Y-116160201D01*
X115949132Y-116314844D01*
X115949132Y-116472537D01*
X115979893Y-116627180D01*
X115979896Y-116627192D01*
X116040234Y-116772863D01*
X116040241Y-116772876D01*
X116127842Y-116903979D01*
X116127845Y-116903983D01*
X116239339Y-117015477D01*
X116239343Y-117015480D01*
X116370446Y-117103081D01*
X116370459Y-117103088D01*
X116433464Y-117129185D01*
X116516135Y-117163428D01*
X116646071Y-117189274D01*
X116670785Y-117194190D01*
X116670788Y-117194191D01*
X116670790Y-117194191D01*
X116828476Y-117194191D01*
X116828477Y-117194190D01*
X116983129Y-117163428D01*
X117123273Y-117105378D01*
X117192739Y-117097910D01*
X117255219Y-117129185D01*
X117290871Y-117189274D01*
X117294622Y-117214938D01*
X117307040Y-117522557D01*
X117307138Y-117528486D01*
X117304338Y-117903106D01*
X117284152Y-117969996D01*
X117231008Y-118015355D01*
X117161777Y-118024782D01*
X117132889Y-118016740D01*
X117017239Y-117968837D01*
X117017227Y-117968834D01*
X116862583Y-117938073D01*
X116862580Y-117938073D01*
X116704896Y-117938073D01*
X116704893Y-117938073D01*
X116550248Y-117968834D01*
X116550236Y-117968837D01*
X116404565Y-118029175D01*
X116404552Y-118029182D01*
X116273449Y-118116783D01*
X116273445Y-118116786D01*
X116161951Y-118228280D01*
X116161948Y-118228284D01*
X116074347Y-118359387D01*
X116074340Y-118359400D01*
X116014002Y-118505071D01*
X116013999Y-118505083D01*
X115983238Y-118659726D01*
X115983238Y-118817419D01*
X116013999Y-118972062D01*
X116014002Y-118972074D01*
X116074340Y-119117745D01*
X116074347Y-119117758D01*
X116161948Y-119248861D01*
X116161951Y-119248865D01*
X116273445Y-119360359D01*
X116273449Y-119360362D01*
X116404552Y-119447963D01*
X116404565Y-119447970D01*
X116535526Y-119502215D01*
X116550241Y-119508310D01*
X116704891Y-119539072D01*
X116704894Y-119539073D01*
X116704896Y-119539073D01*
X116862582Y-119539073D01*
X116862583Y-119539072D01*
X117017235Y-119508310D01*
X117038137Y-119499651D01*
X117107606Y-119492182D01*
X117170085Y-119523456D01*
X117205739Y-119583544D01*
X117208932Y-119626976D01*
X117170334Y-119999955D01*
X117169583Y-120005837D01*
X117122959Y-120312377D01*
X117093418Y-120375694D01*
X117034334Y-120412989D01*
X116964467Y-120412420D01*
X116931479Y-120396834D01*
X116870350Y-120355989D01*
X116870339Y-120355983D01*
X116724668Y-120295645D01*
X116724656Y-120295642D01*
X116570012Y-120264881D01*
X116570009Y-120264881D01*
X116412325Y-120264881D01*
X116412322Y-120264881D01*
X116257677Y-120295642D01*
X116257665Y-120295645D01*
X116111994Y-120355983D01*
X116111981Y-120355990D01*
X115980878Y-120443591D01*
X115980874Y-120443594D01*
X115869380Y-120555088D01*
X115869377Y-120555092D01*
X115781776Y-120686195D01*
X115781769Y-120686208D01*
X115721431Y-120831879D01*
X115721428Y-120831891D01*
X115690667Y-120986534D01*
X115690667Y-121144227D01*
X115721428Y-121298870D01*
X115721431Y-121298882D01*
X115781769Y-121444553D01*
X115781776Y-121444566D01*
X115869377Y-121575669D01*
X115869380Y-121575673D01*
X115980874Y-121687167D01*
X115980878Y-121687170D01*
X116111981Y-121774771D01*
X116111994Y-121774778D01*
X116242518Y-121828842D01*
X116257670Y-121835118D01*
X116369166Y-121857296D01*
X116412320Y-121865880D01*
X116412323Y-121865881D01*
X116412325Y-121865881D01*
X116570011Y-121865881D01*
X116644473Y-121851069D01*
X116714064Y-121857296D01*
X116769242Y-121900158D01*
X116792487Y-121966048D01*
X116788914Y-122002953D01*
X116680834Y-122432346D01*
X116679250Y-122438061D01*
X116608919Y-122670006D01*
X116570628Y-122728449D01*
X116506819Y-122756913D01*
X116437751Y-122746360D01*
X116402573Y-122721705D01*
X116387907Y-122707039D01*
X116387903Y-122707036D01*
X116256800Y-122619435D01*
X116256787Y-122619428D01*
X116111116Y-122559090D01*
X116111104Y-122559087D01*
X115956460Y-122528326D01*
X115956457Y-122528326D01*
X115798773Y-122528326D01*
X115798770Y-122528326D01*
X115644125Y-122559087D01*
X115644113Y-122559090D01*
X115498442Y-122619428D01*
X115498429Y-122619435D01*
X115367326Y-122707036D01*
X115367322Y-122707039D01*
X115255828Y-122818533D01*
X115255825Y-122818537D01*
X115168224Y-122949640D01*
X115168217Y-122949653D01*
X115107879Y-123095324D01*
X115107876Y-123095336D01*
X115077115Y-123249979D01*
X115077115Y-123407672D01*
X115107876Y-123562315D01*
X115107879Y-123562327D01*
X115168217Y-123707998D01*
X115168224Y-123708011D01*
X115255825Y-123839114D01*
X115255828Y-123839118D01*
X115367322Y-123950612D01*
X115367326Y-123950615D01*
X115498429Y-124038216D01*
X115498442Y-124038223D01*
X115573004Y-124069107D01*
X115644118Y-124098563D01*
X115755981Y-124120814D01*
X115798768Y-124129325D01*
X115798771Y-124129326D01*
X115926839Y-124129326D01*
X115993878Y-124149011D01*
X116039633Y-124201815D01*
X116049577Y-124270973D01*
X116041525Y-124300475D01*
X115848588Y-124769779D01*
X115846204Y-124775207D01*
X115771691Y-124934359D01*
X115725440Y-124986727D01*
X115658217Y-125005775D01*
X115591367Y-124985457D01*
X115571710Y-124969462D01*
X115465315Y-124863067D01*
X115465311Y-124863064D01*
X115334208Y-124775463D01*
X115334195Y-124775456D01*
X115188524Y-124715118D01*
X115188512Y-124715115D01*
X115033868Y-124684354D01*
X115033865Y-124684354D01*
X114876181Y-124684354D01*
X114876178Y-124684354D01*
X114721533Y-124715115D01*
X114721521Y-124715118D01*
X114575850Y-124775456D01*
X114575837Y-124775463D01*
X114444734Y-124863064D01*
X114444730Y-124863067D01*
X114333236Y-124974561D01*
X114333233Y-124974565D01*
X114245632Y-125105668D01*
X114245625Y-125105681D01*
X114185287Y-125251352D01*
X114185284Y-125251364D01*
X114154523Y-125406007D01*
X114154523Y-125563700D01*
X114185284Y-125718343D01*
X114185287Y-125718355D01*
X114245625Y-125864026D01*
X114245632Y-125864039D01*
X114333233Y-125995142D01*
X114333236Y-125995146D01*
X114444730Y-126106640D01*
X114444734Y-126106643D01*
X114575837Y-126194244D01*
X114575850Y-126194251D01*
X114702120Y-126246553D01*
X114721526Y-126254591D01*
X114876181Y-126285354D01*
X114876186Y-126285354D01*
X114882241Y-126285951D01*
X114882078Y-126287605D01*
X114941451Y-126305039D01*
X114987206Y-126357843D01*
X114997150Y-126427001D01*
X114981179Y-126472413D01*
X114741498Y-126878211D01*
X114690716Y-126964188D01*
X114687579Y-126969220D01*
X114625508Y-127063684D01*
X114572243Y-127108901D01*
X114502987Y-127118143D01*
X114439729Y-127088475D01*
X114418777Y-127064483D01*
X114363137Y-126981211D01*
X114363135Y-126981208D01*
X114251640Y-126869713D01*
X114251636Y-126869710D01*
X114120533Y-126782109D01*
X114120520Y-126782102D01*
X113974849Y-126721764D01*
X113974837Y-126721761D01*
X113820193Y-126691000D01*
X113820190Y-126691000D01*
X113662506Y-126691000D01*
X113662503Y-126691000D01*
X113507858Y-126721761D01*
X113507846Y-126721764D01*
X113362175Y-126782102D01*
X113362162Y-126782109D01*
X113231059Y-126869710D01*
X113231055Y-126869713D01*
X113119561Y-126981207D01*
X113119558Y-126981211D01*
X113031957Y-127112314D01*
X113031950Y-127112327D01*
X112971612Y-127257998D01*
X112971609Y-127258010D01*
X112940848Y-127412653D01*
X112940848Y-127570346D01*
X112971609Y-127724989D01*
X112971612Y-127725001D01*
X113031950Y-127870672D01*
X113031957Y-127870685D01*
X113119558Y-128001788D01*
X113119561Y-128001792D01*
X113231055Y-128113286D01*
X113231059Y-128113289D01*
X113362162Y-128200890D01*
X113362175Y-128200897D01*
X113507846Y-128261235D01*
X113507851Y-128261237D01*
X113560048Y-128271619D01*
X113621956Y-128304003D01*
X113656531Y-128364718D01*
X113652792Y-128434488D01*
X113632509Y-128470915D01*
X113230979Y-128970533D01*
X113227158Y-128975061D01*
X112682344Y-129590257D01*
X112678319Y-129594589D01*
X112104709Y-130183047D01*
X112100470Y-130187192D01*
X111515459Y-130732575D01*
X111453001Y-130763891D01*
X111383527Y-130756468D01*
X111329094Y-130712663D01*
X111313494Y-130675951D01*
X111311955Y-130676419D01*
X111310184Y-130670582D01*
X111249846Y-130524911D01*
X111249839Y-130524898D01*
X111162238Y-130393795D01*
X111162235Y-130393791D01*
X111050741Y-130282297D01*
X111050737Y-130282294D01*
X110919634Y-130194693D01*
X110919621Y-130194686D01*
X110773950Y-130134348D01*
X110773938Y-130134345D01*
X110619294Y-130103584D01*
X110619291Y-130103584D01*
X110461607Y-130103584D01*
X110461604Y-130103584D01*
X110306959Y-130134345D01*
X110306947Y-130134348D01*
X110161276Y-130194686D01*
X110161263Y-130194693D01*
X110030160Y-130282294D01*
X110030156Y-130282297D01*
X109918662Y-130393791D01*
X109918659Y-130393795D01*
X109831058Y-130524898D01*
X109831051Y-130524911D01*
X109770713Y-130670582D01*
X109770710Y-130670594D01*
X109739949Y-130825237D01*
X109739949Y-130982930D01*
X109770710Y-131137573D01*
X109770713Y-131137585D01*
X109831051Y-131283256D01*
X109831058Y-131283269D01*
X109918659Y-131414372D01*
X109918662Y-131414376D01*
X110030159Y-131525873D01*
X110162599Y-131614366D01*
X110207404Y-131667978D01*
X110216111Y-131737303D01*
X110185957Y-131800330D01*
X110164427Y-131819325D01*
X109601891Y-132209894D01*
X109535597Y-132231958D01*
X109467898Y-132214678D01*
X109420288Y-132163541D01*
X109409555Y-132132228D01*
X109389501Y-132031413D01*
X109385262Y-132010103D01*
X109367828Y-131968014D01*
X109324922Y-131864427D01*
X109324915Y-131864414D01*
X109237314Y-131733311D01*
X109237311Y-131733307D01*
X109125817Y-131621813D01*
X109125813Y-131621810D01*
X108994710Y-131534209D01*
X108994697Y-131534202D01*
X108849026Y-131473864D01*
X108849014Y-131473861D01*
X108694370Y-131443100D01*
X108694367Y-131443100D01*
X108536683Y-131443100D01*
X108536680Y-131443100D01*
X108382035Y-131473861D01*
X108382023Y-131473864D01*
X108236352Y-131534202D01*
X108236339Y-131534209D01*
X108105236Y-131621810D01*
X108105232Y-131621813D01*
X107993738Y-131733307D01*
X107993735Y-131733311D01*
X107906134Y-131864414D01*
X107906127Y-131864427D01*
X107845789Y-132010098D01*
X107845786Y-132010110D01*
X107815025Y-132164753D01*
X107815025Y-132322446D01*
X107845786Y-132477089D01*
X107845789Y-132477101D01*
X107906127Y-132622772D01*
X107906134Y-132622785D01*
X107993735Y-132753888D01*
X107993738Y-132753892D01*
X108105233Y-132865387D01*
X108105236Y-132865389D01*
X108131722Y-132883086D01*
X108133456Y-132885161D01*
X108136000Y-132886077D01*
X108155732Y-132911816D01*
X108176527Y-132936698D01*
X108176863Y-132939379D01*
X108178510Y-132941527D01*
X108181194Y-132973858D01*
X108185235Y-133006023D01*
X108184068Y-133008461D01*
X108184292Y-133011157D01*
X108169075Y-133039798D01*
X108155081Y-133069051D01*
X108152391Y-133071203D01*
X108151512Y-133072860D01*
X108123502Y-133094333D01*
X108110397Y-133101685D01*
X108105358Y-133104362D01*
X108056535Y-133128870D01*
X108051930Y-133131993D01*
X108051918Y-133132003D01*
X108047365Y-133135241D01*
X108004196Y-133175387D01*
X108002169Y-133177231D01*
X107958075Y-133216455D01*
X107954431Y-133220668D01*
X107954420Y-133220684D01*
X107950863Y-133224987D01*
X107919557Y-133274935D01*
X107918077Y-133277239D01*
X107885635Y-133326543D01*
X107883206Y-133331555D01*
X107883201Y-133331569D01*
X107880880Y-133336644D01*
X107863557Y-133393029D01*
X107862722Y-133395641D01*
X107531533Y-134394363D01*
X107491748Y-134451799D01*
X107427226Y-134478608D01*
X107358453Y-134466278D01*
X107307264Y-134418724D01*
X107292219Y-134379524D01*
X107278871Y-134312424D01*
X107269737Y-134266503D01*
X107257409Y-134236741D01*
X107209397Y-134120827D01*
X107209390Y-134120814D01*
X107121789Y-133989711D01*
X107121786Y-133989707D01*
X107010292Y-133878213D01*
X107010288Y-133878210D01*
X106879185Y-133790609D01*
X106879172Y-133790602D01*
X106733501Y-133730264D01*
X106733489Y-133730261D01*
X106578845Y-133699500D01*
X106578842Y-133699500D01*
X106421158Y-133699500D01*
X106421155Y-133699500D01*
X106266510Y-133730261D01*
X106266498Y-133730264D01*
X106120827Y-133790602D01*
X106120814Y-133790609D01*
X105989711Y-133878210D01*
X105989707Y-133878213D01*
X105878213Y-133989707D01*
X105878210Y-133989711D01*
X105790609Y-134120814D01*
X105790602Y-134120827D01*
X105730264Y-134266498D01*
X105730261Y-134266510D01*
X105699500Y-134421153D01*
X105699500Y-134578846D01*
X105730261Y-134733489D01*
X105730264Y-134733501D01*
X105790602Y-134879172D01*
X105790609Y-134879185D01*
X105878210Y-135010288D01*
X105878213Y-135010292D01*
X105989707Y-135121786D01*
X105989711Y-135121789D01*
X106120814Y-135209390D01*
X106120827Y-135209397D01*
X106266498Y-135269735D01*
X106266503Y-135269737D01*
X106421153Y-135300499D01*
X106421156Y-135300500D01*
X106421158Y-135300500D01*
X106578844Y-135300500D01*
X106578845Y-135300499D01*
X106733497Y-135269737D01*
X106879179Y-135209394D01*
X107010289Y-135121789D01*
X107059097Y-135072981D01*
X107120420Y-135039495D01*
X107190111Y-135044479D01*
X107246045Y-135086350D01*
X107270463Y-135151814D01*
X107264476Y-135199691D01*
X106496847Y-137514530D01*
X106457062Y-137571966D01*
X106392540Y-137598775D01*
X106379150Y-137599500D01*
X93620455Y-137599500D01*
X93553416Y-137579815D01*
X93507661Y-137527011D01*
X93502790Y-137514627D01*
X93451868Y-137361493D01*
X93449393Y-137291668D01*
X93485062Y-137231588D01*
X93547549Y-137200330D01*
X93616986Y-137207805D01*
X93620819Y-137209392D01*
X93620821Y-137209394D01*
X93766503Y-137269737D01*
X93876757Y-137291668D01*
X93921153Y-137300499D01*
X93921156Y-137300500D01*
X93921158Y-137300500D01*
X94078844Y-137300500D01*
X94078845Y-137300499D01*
X94233497Y-137269737D01*
X94379179Y-137209394D01*
X94510289Y-137121789D01*
X94621789Y-137010289D01*
X94709394Y-136879179D01*
X94769737Y-136733497D01*
X94800500Y-136578842D01*
X94800500Y-136483559D01*
X94820185Y-136416520D01*
X94872989Y-136370765D01*
X94942147Y-136360821D01*
X94993391Y-136380457D01*
X95133579Y-136474128D01*
X95133592Y-136474135D01*
X95312234Y-136548130D01*
X95315665Y-136549551D01*
X95315669Y-136549551D01*
X95315670Y-136549552D01*
X95508956Y-136588000D01*
X95508959Y-136588000D01*
X95706043Y-136588000D01*
X95836082Y-136562132D01*
X95899335Y-136549551D01*
X96081414Y-136474132D01*
X96160703Y-136421153D01*
X96699500Y-136421153D01*
X96699500Y-136578846D01*
X96730261Y-136733489D01*
X96730264Y-136733501D01*
X96790602Y-136879172D01*
X96790609Y-136879185D01*
X96878210Y-137010288D01*
X96878213Y-137010292D01*
X96989707Y-137121786D01*
X96989711Y-137121789D01*
X97120814Y-137209390D01*
X97120827Y-137209397D01*
X97174402Y-137231588D01*
X97266503Y-137269737D01*
X97376757Y-137291668D01*
X97421153Y-137300499D01*
X97421156Y-137300500D01*
X97421158Y-137300500D01*
X97578844Y-137300500D01*
X97578845Y-137300499D01*
X97733497Y-137269737D01*
X97879179Y-137209394D01*
X98010289Y-137121789D01*
X98121789Y-137010289D01*
X98129145Y-136999279D01*
X98146898Y-136972712D01*
X98200510Y-136927906D01*
X98269835Y-136919199D01*
X98332862Y-136949353D01*
X98353102Y-136972712D01*
X98378207Y-137010284D01*
X98378213Y-137010292D01*
X98489707Y-137121786D01*
X98489711Y-137121789D01*
X98620814Y-137209390D01*
X98620827Y-137209397D01*
X98674402Y-137231588D01*
X98766503Y-137269737D01*
X98876757Y-137291668D01*
X98921153Y-137300499D01*
X98921156Y-137300500D01*
X98921158Y-137300500D01*
X99078844Y-137300500D01*
X99078845Y-137300499D01*
X99233497Y-137269737D01*
X99379179Y-137209394D01*
X99510289Y-137121789D01*
X99621789Y-137010289D01*
X99629145Y-136999279D01*
X99646898Y-136972712D01*
X99700510Y-136927906D01*
X99769835Y-136919199D01*
X99832862Y-136949353D01*
X99853102Y-136972712D01*
X99878207Y-137010284D01*
X99878213Y-137010292D01*
X99989707Y-137121786D01*
X99989711Y-137121789D01*
X100120814Y-137209390D01*
X100120827Y-137209397D01*
X100174402Y-137231588D01*
X100266503Y-137269737D01*
X100376757Y-137291668D01*
X100421153Y-137300499D01*
X100421156Y-137300500D01*
X100421158Y-137300500D01*
X100578844Y-137300500D01*
X100578845Y-137300499D01*
X100733497Y-137269737D01*
X100879179Y-137209394D01*
X101010289Y-137121789D01*
X101121789Y-137010289D01*
X101129145Y-136999279D01*
X101146898Y-136972712D01*
X101200510Y-136927906D01*
X101269835Y-136919199D01*
X101332862Y-136949353D01*
X101353102Y-136972712D01*
X101378207Y-137010284D01*
X101378213Y-137010292D01*
X101489707Y-137121786D01*
X101489711Y-137121789D01*
X101620814Y-137209390D01*
X101620827Y-137209397D01*
X101674402Y-137231588D01*
X101766503Y-137269737D01*
X101876757Y-137291668D01*
X101921153Y-137300499D01*
X101921156Y-137300500D01*
X101921158Y-137300500D01*
X102078844Y-137300500D01*
X102078845Y-137300499D01*
X102233497Y-137269737D01*
X102379179Y-137209394D01*
X102510289Y-137121789D01*
X102621789Y-137010289D01*
X102709394Y-136879179D01*
X102769737Y-136733497D01*
X102800500Y-136578842D01*
X102800500Y-136421158D01*
X102800500Y-136421155D01*
X102800499Y-136421153D01*
X102790476Y-136370765D01*
X102769737Y-136266503D01*
X102752663Y-136225282D01*
X102709397Y-136120827D01*
X102709390Y-136120814D01*
X102621789Y-135989711D01*
X102621786Y-135989707D01*
X102510292Y-135878213D01*
X102510288Y-135878210D01*
X102379185Y-135790609D01*
X102379172Y-135790602D01*
X102233501Y-135730264D01*
X102233489Y-135730261D01*
X102078845Y-135699500D01*
X102078842Y-135699500D01*
X101921158Y-135699500D01*
X101921155Y-135699500D01*
X101766510Y-135730261D01*
X101766498Y-135730264D01*
X101620827Y-135790602D01*
X101620814Y-135790609D01*
X101489711Y-135878210D01*
X101489707Y-135878213D01*
X101378213Y-135989707D01*
X101353102Y-136027289D01*
X101299489Y-136072093D01*
X101230164Y-136080800D01*
X101167137Y-136050645D01*
X101146898Y-136027289D01*
X101121786Y-135989707D01*
X101010292Y-135878213D01*
X101010288Y-135878210D01*
X100879185Y-135790609D01*
X100879172Y-135790602D01*
X100733501Y-135730264D01*
X100733489Y-135730261D01*
X100578845Y-135699500D01*
X100578842Y-135699500D01*
X100421158Y-135699500D01*
X100421155Y-135699500D01*
X100266510Y-135730261D01*
X100266498Y-135730264D01*
X100120827Y-135790602D01*
X100120814Y-135790609D01*
X99989711Y-135878210D01*
X99989707Y-135878213D01*
X99878213Y-135989707D01*
X99853102Y-136027289D01*
X99799489Y-136072093D01*
X99730164Y-136080800D01*
X99667137Y-136050645D01*
X99646898Y-136027289D01*
X99621786Y-135989707D01*
X99510292Y-135878213D01*
X99510288Y-135878210D01*
X99379185Y-135790609D01*
X99379172Y-135790602D01*
X99233501Y-135730264D01*
X99233489Y-135730261D01*
X99078845Y-135699500D01*
X99078842Y-135699500D01*
X98921158Y-135699500D01*
X98921155Y-135699500D01*
X98766510Y-135730261D01*
X98766498Y-135730264D01*
X98620827Y-135790602D01*
X98620814Y-135790609D01*
X98489711Y-135878210D01*
X98489707Y-135878213D01*
X98378213Y-135989707D01*
X98353102Y-136027289D01*
X98299489Y-136072093D01*
X98230164Y-136080800D01*
X98167137Y-136050645D01*
X98146898Y-136027289D01*
X98121786Y-135989707D01*
X98010292Y-135878213D01*
X98010288Y-135878210D01*
X97879185Y-135790609D01*
X97879172Y-135790602D01*
X97733501Y-135730264D01*
X97733489Y-135730261D01*
X97578845Y-135699500D01*
X97578842Y-135699500D01*
X97421158Y-135699500D01*
X97421155Y-135699500D01*
X97266510Y-135730261D01*
X97266498Y-135730264D01*
X97120827Y-135790602D01*
X97120814Y-135790609D01*
X96989711Y-135878210D01*
X96989707Y-135878213D01*
X96878213Y-135989707D01*
X96878210Y-135989711D01*
X96790609Y-136120814D01*
X96790602Y-136120827D01*
X96730264Y-136266498D01*
X96730261Y-136266510D01*
X96699500Y-136421153D01*
X96160703Y-136421153D01*
X96245282Y-136364639D01*
X96249100Y-136360821D01*
X96282537Y-136327385D01*
X96384636Y-136225285D01*
X96384639Y-136225282D01*
X96494132Y-136061414D01*
X96569551Y-135879335D01*
X96587200Y-135790609D01*
X96608000Y-135686043D01*
X103246999Y-135686043D01*
X103285447Y-135879329D01*
X103285450Y-135879339D01*
X103360864Y-136061407D01*
X103360871Y-136061420D01*
X103470360Y-136225281D01*
X103470363Y-136225285D01*
X103609714Y-136364636D01*
X103609718Y-136364639D01*
X103773579Y-136474128D01*
X103773592Y-136474135D01*
X103952234Y-136548130D01*
X103955665Y-136549551D01*
X103955669Y-136549551D01*
X103955670Y-136549552D01*
X104148956Y-136588000D01*
X104148959Y-136588000D01*
X104346043Y-136588000D01*
X104476082Y-136562132D01*
X104539335Y-136549551D01*
X104542324Y-136548312D01*
X104544015Y-136548130D01*
X104545162Y-136547783D01*
X104545227Y-136548000D01*
X104611791Y-136540838D01*
X104674272Y-136572108D01*
X104709930Y-136632194D01*
X104711401Y-136638678D01*
X104730261Y-136733491D01*
X104730264Y-136733501D01*
X104790602Y-136879172D01*
X104790609Y-136879185D01*
X104878210Y-137010288D01*
X104878213Y-137010292D01*
X104989707Y-137121786D01*
X104989711Y-137121789D01*
X105120814Y-137209390D01*
X105120827Y-137209397D01*
X105174402Y-137231588D01*
X105266503Y-137269737D01*
X105376757Y-137291668D01*
X105421153Y-137300499D01*
X105421156Y-137300500D01*
X105421158Y-137300500D01*
X105578844Y-137300500D01*
X105578845Y-137300499D01*
X105733497Y-137269737D01*
X105879179Y-137209394D01*
X106010289Y-137121789D01*
X106121789Y-137010289D01*
X106209394Y-136879179D01*
X106269737Y-136733497D01*
X106300500Y-136578842D01*
X106300500Y-136421158D01*
X106300500Y-136421155D01*
X106300499Y-136421153D01*
X106290476Y-136370765D01*
X106269737Y-136266503D01*
X106252663Y-136225282D01*
X106209397Y-136120827D01*
X106209390Y-136120814D01*
X106121789Y-135989711D01*
X106121786Y-135989707D01*
X106010292Y-135878213D01*
X106010288Y-135878210D01*
X105879185Y-135790609D01*
X105879172Y-135790602D01*
X105733501Y-135730264D01*
X105733489Y-135730261D01*
X105578845Y-135699500D01*
X105578842Y-135699500D01*
X105421158Y-135699500D01*
X105421157Y-135699500D01*
X105396189Y-135704466D01*
X105326598Y-135698237D01*
X105271421Y-135655373D01*
X105248178Y-135589483D01*
X105248000Y-135582848D01*
X105248000Y-134688956D01*
X105209552Y-134495670D01*
X105209551Y-134495669D01*
X105209551Y-134495665D01*
X105186186Y-134439257D01*
X105134135Y-134313592D01*
X105134128Y-134313579D01*
X105024639Y-134149718D01*
X105024636Y-134149714D01*
X104885285Y-134010363D01*
X104885281Y-134010360D01*
X104721420Y-133900871D01*
X104721407Y-133900864D01*
X104539339Y-133825450D01*
X104539329Y-133825447D01*
X104346043Y-133787000D01*
X104346041Y-133787000D01*
X104148959Y-133787000D01*
X104148957Y-133787000D01*
X103955670Y-133825447D01*
X103955660Y-133825450D01*
X103773592Y-133900864D01*
X103773579Y-133900871D01*
X103609718Y-134010360D01*
X103609714Y-134010363D01*
X103470363Y-134149714D01*
X103470360Y-134149718D01*
X103360871Y-134313579D01*
X103360864Y-134313592D01*
X103285450Y-134495660D01*
X103285447Y-134495670D01*
X103247000Y-134688956D01*
X103247000Y-134688959D01*
X103247000Y-135686041D01*
X103247000Y-135686043D01*
X103246999Y-135686043D01*
X96608000Y-135686043D01*
X96608000Y-135014663D01*
X96627685Y-134947624D01*
X96680489Y-134901869D01*
X96749647Y-134891925D01*
X96813203Y-134920950D01*
X96835102Y-134945773D01*
X96878207Y-135010284D01*
X96878213Y-135010292D01*
X96989707Y-135121786D01*
X96989711Y-135121789D01*
X97120814Y-135209390D01*
X97120827Y-135209397D01*
X97266498Y-135269735D01*
X97266503Y-135269737D01*
X97421153Y-135300499D01*
X97421156Y-135300500D01*
X97421158Y-135300500D01*
X97578844Y-135300500D01*
X97578845Y-135300499D01*
X97733497Y-135269737D01*
X97879179Y-135209394D01*
X98010289Y-135121789D01*
X98121789Y-135010289D01*
X98209394Y-134879179D01*
X98269737Y-134733497D01*
X98300500Y-134578842D01*
X98300500Y-134537073D01*
X98857237Y-134537073D01*
X98857237Y-134694766D01*
X98887998Y-134849409D01*
X98888001Y-134849421D01*
X98948339Y-134995092D01*
X98948346Y-134995105D01*
X99035947Y-135126208D01*
X99035950Y-135126212D01*
X99147444Y-135237706D01*
X99147448Y-135237709D01*
X99278551Y-135325310D01*
X99278564Y-135325317D01*
X99424235Y-135385655D01*
X99424240Y-135385657D01*
X99578890Y-135416419D01*
X99578893Y-135416420D01*
X99578895Y-135416420D01*
X99736581Y-135416420D01*
X99736582Y-135416419D01*
X99891234Y-135385657D01*
X100036916Y-135325314D01*
X100168026Y-135237709D01*
X100279526Y-135126209D01*
X100367131Y-134995099D01*
X100427474Y-134849417D01*
X100458237Y-134694762D01*
X100458237Y-134537078D01*
X100458237Y-134537075D01*
X100458236Y-134537073D01*
X100438780Y-134439257D01*
X100435179Y-134421153D01*
X101199500Y-134421153D01*
X101199500Y-134578846D01*
X101230261Y-134733489D01*
X101230264Y-134733501D01*
X101290602Y-134879172D01*
X101290609Y-134879185D01*
X101378210Y-135010288D01*
X101378213Y-135010292D01*
X101489707Y-135121786D01*
X101489711Y-135121789D01*
X101620814Y-135209390D01*
X101620827Y-135209397D01*
X101766498Y-135269735D01*
X101766503Y-135269737D01*
X101921153Y-135300499D01*
X101921156Y-135300500D01*
X101921158Y-135300500D01*
X102078844Y-135300500D01*
X102078845Y-135300499D01*
X102233497Y-135269737D01*
X102379179Y-135209394D01*
X102510289Y-135121789D01*
X102621789Y-135010289D01*
X102709394Y-134879179D01*
X102769737Y-134733497D01*
X102777442Y-134694762D01*
X102784621Y-134658675D01*
X102784621Y-134658674D01*
X102800499Y-134578846D01*
X102800500Y-134578844D01*
X102800500Y-134421155D01*
X102800499Y-134421153D01*
X102779807Y-134317128D01*
X102769737Y-134266503D01*
X102757409Y-134236741D01*
X102709397Y-134120827D01*
X102709390Y-134120814D01*
X102621789Y-133989711D01*
X102621786Y-133989707D01*
X102510292Y-133878213D01*
X102510288Y-133878210D01*
X102379185Y-133790609D01*
X102379172Y-133790602D01*
X102233501Y-133730264D01*
X102233489Y-133730261D01*
X102078845Y-133699500D01*
X102078842Y-133699500D01*
X101921158Y-133699500D01*
X101921155Y-133699500D01*
X101766510Y-133730261D01*
X101766498Y-133730264D01*
X101620827Y-133790602D01*
X101620814Y-133790609D01*
X101489711Y-133878210D01*
X101489707Y-133878213D01*
X101378213Y-133989707D01*
X101378210Y-133989711D01*
X101290609Y-134120814D01*
X101290602Y-134120827D01*
X101230264Y-134266498D01*
X101230261Y-134266510D01*
X101199500Y-134421153D01*
X100435179Y-134421153D01*
X100427475Y-134382428D01*
X100427474Y-134382427D01*
X100427474Y-134382423D01*
X100400428Y-134317128D01*
X100367134Y-134236747D01*
X100367127Y-134236734D01*
X100279526Y-134105631D01*
X100279523Y-134105627D01*
X100168029Y-133994133D01*
X100168025Y-133994130D01*
X100036922Y-133906529D01*
X100036909Y-133906522D01*
X99891238Y-133846184D01*
X99891226Y-133846181D01*
X99736582Y-133815420D01*
X99736579Y-133815420D01*
X99578895Y-133815420D01*
X99578892Y-133815420D01*
X99424247Y-133846181D01*
X99424235Y-133846184D01*
X99278564Y-133906522D01*
X99278551Y-133906529D01*
X99147448Y-133994130D01*
X99147444Y-133994133D01*
X99035950Y-134105627D01*
X99035947Y-134105631D01*
X98948346Y-134236734D01*
X98948339Y-134236747D01*
X98888001Y-134382418D01*
X98887998Y-134382430D01*
X98857237Y-134537073D01*
X98300500Y-134537073D01*
X98300500Y-134421158D01*
X98300500Y-134421155D01*
X98300499Y-134421153D01*
X98279807Y-134317128D01*
X98269737Y-134266503D01*
X98257409Y-134236741D01*
X98209397Y-134120827D01*
X98209390Y-134120814D01*
X98121789Y-133989711D01*
X98121786Y-133989707D01*
X98010292Y-133878213D01*
X98010288Y-133878210D01*
X97879185Y-133790609D01*
X97879172Y-133790602D01*
X97733501Y-133730264D01*
X97733489Y-133730261D01*
X97578845Y-133699500D01*
X97578842Y-133699500D01*
X97421158Y-133699500D01*
X97421155Y-133699500D01*
X97266510Y-133730261D01*
X97266498Y-133730264D01*
X97120827Y-133790602D01*
X97120814Y-133790609D01*
X96989711Y-133878210D01*
X96989707Y-133878213D01*
X96878213Y-133989707D01*
X96878210Y-133989711D01*
X96790609Y-134120814D01*
X96790602Y-134120827D01*
X96730264Y-134266498D01*
X96730260Y-134266512D01*
X96727004Y-134282880D01*
X96694617Y-134344790D01*
X96633900Y-134379362D01*
X96564131Y-134375619D01*
X96507460Y-134334751D01*
X96496025Y-134317128D01*
X96494130Y-134313582D01*
X96384639Y-134149718D01*
X96384636Y-134149714D01*
X96245285Y-134010363D01*
X96245281Y-134010360D01*
X96081420Y-133900871D01*
X96081407Y-133900864D01*
X95899339Y-133825450D01*
X95899329Y-133825447D01*
X95706043Y-133787000D01*
X95706041Y-133787000D01*
X95508959Y-133787000D01*
X95508957Y-133787000D01*
X95315670Y-133825447D01*
X95315660Y-133825450D01*
X95133592Y-133900864D01*
X95133579Y-133900871D01*
X94969718Y-134010360D01*
X94969714Y-134010363D01*
X94830363Y-134149714D01*
X94830360Y-134149718D01*
X94720871Y-134313579D01*
X94720864Y-134313592D01*
X94645450Y-134495660D01*
X94645447Y-134495670D01*
X94607000Y-134688956D01*
X94607000Y-134688959D01*
X94607000Y-135686041D01*
X94607000Y-135686043D01*
X94606999Y-135686043D01*
X94607506Y-135688588D01*
X94607384Y-135689946D01*
X94607597Y-135692106D01*
X94607187Y-135692146D01*
X94601274Y-135758179D01*
X94558408Y-135813354D01*
X94492516Y-135836595D01*
X94424520Y-135820522D01*
X94416996Y-135815874D01*
X94379185Y-135790609D01*
X94379172Y-135790602D01*
X94233501Y-135730264D01*
X94233489Y-135730261D01*
X94078845Y-135699500D01*
X94078842Y-135699500D01*
X93921158Y-135699500D01*
X93921155Y-135699500D01*
X93766510Y-135730261D01*
X93766498Y-135730264D01*
X93620827Y-135790602D01*
X93620814Y-135790609D01*
X93489711Y-135878210D01*
X93489707Y-135878213D01*
X93378213Y-135989707D01*
X93378210Y-135989711D01*
X93290609Y-136120814D01*
X93290601Y-136120829D01*
X93278486Y-136150078D01*
X93234645Y-136204481D01*
X93168350Y-136226545D01*
X93100651Y-136209265D01*
X93053041Y-136158127D01*
X93046263Y-136141758D01*
X92731765Y-135195997D01*
X92729291Y-135126174D01*
X92764959Y-135066094D01*
X92827447Y-135034836D01*
X92896914Y-135042324D01*
X92937112Y-135069191D01*
X92989707Y-135121786D01*
X92989711Y-135121789D01*
X93120814Y-135209390D01*
X93120827Y-135209397D01*
X93266498Y-135269735D01*
X93266503Y-135269737D01*
X93421153Y-135300499D01*
X93421156Y-135300500D01*
X93421158Y-135300500D01*
X93578844Y-135300500D01*
X93578845Y-135300499D01*
X93733497Y-135269737D01*
X93879179Y-135209394D01*
X94010289Y-135121789D01*
X94121789Y-135010289D01*
X94209394Y-134879179D01*
X94269737Y-134733497D01*
X94300500Y-134578842D01*
X94300500Y-134421158D01*
X94300500Y-134421155D01*
X94300499Y-134421153D01*
X94279807Y-134317128D01*
X94269737Y-134266503D01*
X94257409Y-134236741D01*
X94209397Y-134120827D01*
X94209390Y-134120814D01*
X94121789Y-133989711D01*
X94121786Y-133989707D01*
X94010292Y-133878213D01*
X94010288Y-133878210D01*
X93879185Y-133790609D01*
X93879172Y-133790602D01*
X93733501Y-133730264D01*
X93733489Y-133730261D01*
X93578845Y-133699500D01*
X93578842Y-133699500D01*
X93421158Y-133699500D01*
X93421155Y-133699500D01*
X93266510Y-133730261D01*
X93266498Y-133730264D01*
X93120827Y-133790602D01*
X93120814Y-133790609D01*
X92989711Y-133878210D01*
X92989707Y-133878213D01*
X92878213Y-133989707D01*
X92878210Y-133989711D01*
X92790609Y-134120814D01*
X92790602Y-134120827D01*
X92730264Y-134266498D01*
X92730261Y-134266508D01*
X92706556Y-134385680D01*
X92674171Y-134447591D01*
X92613455Y-134482165D01*
X92543685Y-134478424D01*
X92487014Y-134437558D01*
X92467274Y-134400616D01*
X92465195Y-134394363D01*
X92131683Y-133391422D01*
X92114092Y-133334097D01*
X92110954Y-133329086D01*
X92109083Y-133323460D01*
X92086941Y-133289873D01*
X92076777Y-133274453D01*
X92075975Y-133273236D01*
X92044142Y-133222410D01*
X92039812Y-133218380D01*
X92036550Y-133213432D01*
X92036547Y-133213429D01*
X91992696Y-133174488D01*
X91992694Y-133174487D01*
X91991601Y-133173516D01*
X91947669Y-133132633D01*
X91942441Y-133129860D01*
X91938016Y-133125930D01*
X91938009Y-133125925D01*
X91900251Y-133107012D01*
X91889562Y-133101658D01*
X91884397Y-133098917D01*
X91835033Y-133071203D01*
X91265878Y-132751665D01*
X91217059Y-132701682D01*
X91203012Y-132633239D01*
X91228198Y-132568067D01*
X91257692Y-132540439D01*
X91314253Y-132502646D01*
X91425750Y-132391149D01*
X91425753Y-132391146D01*
X91513358Y-132260036D01*
X91573701Y-132114354D01*
X91604464Y-131959699D01*
X91604464Y-131802015D01*
X91604464Y-131802012D01*
X91604463Y-131802010D01*
X91600733Y-131783260D01*
X91573701Y-131647360D01*
X91562708Y-131620821D01*
X91513361Y-131501684D01*
X91513354Y-131501671D01*
X91425753Y-131370568D01*
X91425750Y-131370564D01*
X91314256Y-131259070D01*
X91314252Y-131259067D01*
X91183149Y-131171466D01*
X91183136Y-131171459D01*
X91037465Y-131111121D01*
X91037453Y-131111118D01*
X90882809Y-131080357D01*
X90882806Y-131080357D01*
X90725122Y-131080357D01*
X90725119Y-131080357D01*
X90570474Y-131111118D01*
X90570462Y-131111121D01*
X90424791Y-131171459D01*
X90424778Y-131171466D01*
X90293675Y-131259067D01*
X90293671Y-131259070D01*
X90182177Y-131370564D01*
X90182174Y-131370568D01*
X90094573Y-131501671D01*
X90094566Y-131501684D01*
X90034228Y-131647355D01*
X90034225Y-131647364D01*
X90017003Y-131733944D01*
X90001293Y-131763974D01*
X89986115Y-131794274D01*
X89985141Y-131794851D01*
X89984617Y-131795854D01*
X89955166Y-131812623D01*
X89926015Y-131829909D01*
X89924883Y-131829868D01*
X89923901Y-131830428D01*
X89890058Y-131828613D01*
X89856191Y-131827393D01*
X89854859Y-131826726D01*
X89854132Y-131826687D01*
X89824635Y-131811586D01*
X89808434Y-131800330D01*
X89788891Y-131786752D01*
X89784114Y-131783260D01*
X89719086Y-131733307D01*
X89468228Y-131540602D01*
X89274042Y-131391432D01*
X89232869Y-131334982D01*
X89228752Y-131265234D01*
X89262997Y-131204332D01*
X89302130Y-131178535D01*
X89314353Y-131173473D01*
X89445463Y-131085868D01*
X89556963Y-130974368D01*
X89644568Y-130843258D01*
X89652033Y-130825237D01*
X89658241Y-130810245D01*
X89704911Y-130697576D01*
X89735674Y-130542921D01*
X89735674Y-130385237D01*
X89735674Y-130385234D01*
X89735673Y-130385232D01*
X89716482Y-130288752D01*
X89704911Y-130230582D01*
X89697588Y-130212903D01*
X89644571Y-130084906D01*
X89644564Y-130084893D01*
X89556963Y-129953790D01*
X89556960Y-129953786D01*
X89445466Y-129842292D01*
X89445462Y-129842289D01*
X89314359Y-129754688D01*
X89314346Y-129754681D01*
X89168675Y-129694343D01*
X89168663Y-129694340D01*
X89014019Y-129663579D01*
X89014016Y-129663579D01*
X88856332Y-129663579D01*
X88856329Y-129663579D01*
X88701684Y-129694340D01*
X88701672Y-129694343D01*
X88556001Y-129754681D01*
X88555988Y-129754688D01*
X88424885Y-129842289D01*
X88424881Y-129842292D01*
X88313387Y-129953786D01*
X88313384Y-129953790D01*
X88225783Y-130084893D01*
X88225778Y-130084903D01*
X88172759Y-130212903D01*
X88153469Y-130236839D01*
X88135910Y-130262078D01*
X88131744Y-130263798D01*
X88128918Y-130267306D01*
X88099747Y-130277015D01*
X88071332Y-130288752D01*
X88066899Y-130287947D01*
X88062624Y-130289371D01*
X88032834Y-130281767D01*
X88002585Y-130276280D01*
X87997516Y-130272753D01*
X87994924Y-130272092D01*
X87973613Y-130256122D01*
X87907760Y-130194690D01*
X87895503Y-130183256D01*
X87891268Y-130179111D01*
X87878165Y-130165660D01*
X87488583Y-129765734D01*
X87455905Y-129703978D01*
X87461802Y-129634358D01*
X87504402Y-129578978D01*
X87529945Y-129564653D01*
X87660928Y-129510399D01*
X87792038Y-129422794D01*
X87903538Y-129311294D01*
X87991143Y-129180184D01*
X87994884Y-129171153D01*
X92699500Y-129171153D01*
X92699500Y-129328846D01*
X92730261Y-129483489D01*
X92730264Y-129483501D01*
X92790602Y-129629172D01*
X92790609Y-129629185D01*
X92878210Y-129760288D01*
X92878213Y-129760292D01*
X92989707Y-129871786D01*
X92989711Y-129871789D01*
X93120814Y-129959390D01*
X93120827Y-129959397D01*
X93243691Y-130010288D01*
X93266503Y-130019737D01*
X93421153Y-130050499D01*
X93421156Y-130050500D01*
X93421158Y-130050500D01*
X93578844Y-130050500D01*
X93578845Y-130050499D01*
X93733497Y-130019737D01*
X93879179Y-129959394D01*
X94010289Y-129871789D01*
X94121789Y-129760289D01*
X94209394Y-129629179D01*
X94221937Y-129598896D01*
X94265776Y-129544494D01*
X94332070Y-129522428D01*
X94399769Y-129539706D01*
X94447381Y-129590842D01*
X94458115Y-129622157D01*
X94480261Y-129733491D01*
X94480264Y-129733501D01*
X94540602Y-129879172D01*
X94540609Y-129879185D01*
X94628210Y-130010288D01*
X94632076Y-130014999D01*
X94630903Y-130015961D01*
X94660806Y-130070723D01*
X94655822Y-130140415D01*
X94654203Y-130144529D01*
X94645449Y-130165664D01*
X94645447Y-130165671D01*
X94607000Y-130358956D01*
X94607000Y-130358959D01*
X94607000Y-131656041D01*
X94607000Y-131656043D01*
X94606999Y-131656043D01*
X94645447Y-131849329D01*
X94645450Y-131849339D01*
X94720864Y-132031407D01*
X94720871Y-132031420D01*
X94830360Y-132195281D01*
X94830363Y-132195285D01*
X94969714Y-132334636D01*
X94969718Y-132334639D01*
X95133579Y-132444128D01*
X95133592Y-132444135D01*
X95315660Y-132519549D01*
X95315665Y-132519551D01*
X95315669Y-132519551D01*
X95315670Y-132519552D01*
X95508956Y-132558000D01*
X95508959Y-132558000D01*
X95706043Y-132558000D01*
X95836082Y-132532132D01*
X95899335Y-132519551D01*
X96081414Y-132444132D01*
X96245282Y-132334639D01*
X96384639Y-132195282D01*
X96494132Y-132031414D01*
X96498040Y-132021978D01*
X96541876Y-131967574D01*
X96608169Y-131945504D01*
X96675869Y-131962779D01*
X96680528Y-131965932D01*
X96684133Y-131968013D01*
X96684135Y-131968015D01*
X96815365Y-132043781D01*
X96961734Y-132083000D01*
X96961736Y-132083000D01*
X97113264Y-132083000D01*
X97113266Y-132083000D01*
X97259635Y-132043781D01*
X97390865Y-131968015D01*
X97437727Y-131921153D01*
X98449500Y-131921153D01*
X98449500Y-132078846D01*
X98480261Y-132233489D01*
X98480264Y-132233501D01*
X98540602Y-132379172D01*
X98540609Y-132379185D01*
X98628210Y-132510288D01*
X98628213Y-132510292D01*
X98739707Y-132621786D01*
X98739711Y-132621789D01*
X98870814Y-132709390D01*
X98870827Y-132709397D01*
X99016498Y-132769735D01*
X99016503Y-132769737D01*
X99171153Y-132800499D01*
X99171156Y-132800500D01*
X99171158Y-132800500D01*
X99328844Y-132800500D01*
X99328845Y-132800499D01*
X99483497Y-132769737D01*
X99629179Y-132709394D01*
X99760289Y-132621789D01*
X99871789Y-132510289D01*
X99959394Y-132379179D01*
X100019737Y-132233497D01*
X100032138Y-132171153D01*
X100449500Y-132171153D01*
X100449500Y-132328846D01*
X100480261Y-132483489D01*
X100480264Y-132483501D01*
X100540602Y-132629172D01*
X100540609Y-132629185D01*
X100628210Y-132760288D01*
X100628213Y-132760292D01*
X100739707Y-132871786D01*
X100739711Y-132871789D01*
X100870814Y-132959390D01*
X100870827Y-132959397D01*
X100983394Y-133006023D01*
X101016503Y-133019737D01*
X101117356Y-133039798D01*
X101171153Y-133050499D01*
X101171156Y-133050500D01*
X101171158Y-133050500D01*
X101328844Y-133050500D01*
X101328845Y-133050499D01*
X101483497Y-133019737D01*
X101629179Y-132959394D01*
X101760289Y-132871789D01*
X101871789Y-132760289D01*
X101959394Y-132629179D01*
X101962043Y-132622785D01*
X101996151Y-132540439D01*
X102019737Y-132483497D01*
X102050500Y-132328842D01*
X102050500Y-132171158D01*
X102050500Y-132171155D01*
X102050499Y-132171153D01*
X102025163Y-132043781D01*
X102019737Y-132016503D01*
X101999653Y-131968015D01*
X101959397Y-131870827D01*
X101959390Y-131870814D01*
X101871789Y-131739711D01*
X101871786Y-131739707D01*
X101760292Y-131628213D01*
X101760288Y-131628210D01*
X101629185Y-131540609D01*
X101629178Y-131540605D01*
X101624869Y-131538820D01*
X101623294Y-131538168D01*
X101623293Y-131538167D01*
X101483501Y-131480264D01*
X101483489Y-131480261D01*
X101328845Y-131449500D01*
X101328842Y-131449500D01*
X101171158Y-131449500D01*
X101171155Y-131449500D01*
X101016510Y-131480261D01*
X101016498Y-131480264D01*
X100870827Y-131540602D01*
X100870814Y-131540609D01*
X100739711Y-131628210D01*
X100739707Y-131628213D01*
X100628213Y-131739707D01*
X100628210Y-131739711D01*
X100540609Y-131870814D01*
X100540602Y-131870827D01*
X100480264Y-132016498D01*
X100480261Y-132016510D01*
X100449500Y-132171153D01*
X100032138Y-132171153D01*
X100039881Y-132132228D01*
X100050500Y-132078844D01*
X100050500Y-131921155D01*
X100050499Y-131921153D01*
X100036014Y-131848333D01*
X100019737Y-131766503D01*
X100019735Y-131766498D01*
X99959397Y-131620827D01*
X99959390Y-131620814D01*
X99871789Y-131489711D01*
X99871786Y-131489707D01*
X99813813Y-131431734D01*
X102242000Y-131431734D01*
X102242000Y-131583265D01*
X102281219Y-131729636D01*
X102318872Y-131794851D01*
X102356985Y-131860865D01*
X102464135Y-131968015D01*
X102595365Y-132043781D01*
X102741734Y-132083000D01*
X102741736Y-132083000D01*
X102893264Y-132083000D01*
X102893266Y-132083000D01*
X103039635Y-132043781D01*
X103170865Y-131968015D01*
X103170866Y-131968013D01*
X103177903Y-131963951D01*
X103179249Y-131966283D01*
X103232053Y-131945857D01*
X103300501Y-131959881D01*
X103350501Y-132008685D01*
X103356958Y-132021974D01*
X103360867Y-132031413D01*
X103360871Y-132031420D01*
X103470360Y-132195281D01*
X103470363Y-132195285D01*
X103609714Y-132334636D01*
X103609718Y-132334639D01*
X103773579Y-132444128D01*
X103773592Y-132444135D01*
X103955660Y-132519549D01*
X103955665Y-132519551D01*
X103955669Y-132519551D01*
X103955670Y-132519552D01*
X104148956Y-132558000D01*
X104148959Y-132558000D01*
X104346043Y-132558000D01*
X104476082Y-132532132D01*
X104539335Y-132519551D01*
X104721414Y-132444132D01*
X104885282Y-132334639D01*
X105024639Y-132195282D01*
X105134132Y-132031414D01*
X105209551Y-131849335D01*
X105226026Y-131766510D01*
X105248000Y-131656043D01*
X105248000Y-130358956D01*
X105209552Y-130165670D01*
X105209551Y-130165669D01*
X105209551Y-130165665D01*
X105190028Y-130118531D01*
X105134135Y-129983592D01*
X105134128Y-129983579D01*
X105024639Y-129819718D01*
X105024636Y-129819714D01*
X104885285Y-129680363D01*
X104885281Y-129680360D01*
X104721420Y-129570871D01*
X104721407Y-129570864D01*
X104539339Y-129495450D01*
X104539329Y-129495447D01*
X104346043Y-129457000D01*
X104346041Y-129457000D01*
X104148959Y-129457000D01*
X104148957Y-129457000D01*
X103955670Y-129495447D01*
X103955660Y-129495450D01*
X103773592Y-129570864D01*
X103773579Y-129570871D01*
X103609718Y-129680360D01*
X103609714Y-129680363D01*
X103470363Y-129819714D01*
X103470360Y-129819718D01*
X103360871Y-129983579D01*
X103360864Y-129983592D01*
X103285450Y-130165660D01*
X103285447Y-130165670D01*
X103247000Y-130358956D01*
X103247000Y-130876166D01*
X103227315Y-130943205D01*
X103174511Y-130988960D01*
X103105353Y-130998904D01*
X103061001Y-130983554D01*
X103039637Y-130971219D01*
X102935084Y-130943205D01*
X102893266Y-130932000D01*
X102741734Y-130932000D01*
X102595363Y-130971219D01*
X102464135Y-131046985D01*
X102464132Y-131046987D01*
X102356987Y-131154132D01*
X102356985Y-131154135D01*
X102281219Y-131285363D01*
X102242000Y-131431734D01*
X99813813Y-131431734D01*
X99760292Y-131378213D01*
X99760288Y-131378210D01*
X99629185Y-131290609D01*
X99629172Y-131290602D01*
X99483501Y-131230264D01*
X99483489Y-131230261D01*
X99328845Y-131199500D01*
X99328842Y-131199500D01*
X99171158Y-131199500D01*
X99171155Y-131199500D01*
X99016510Y-131230261D01*
X99016498Y-131230264D01*
X98870827Y-131290602D01*
X98870814Y-131290609D01*
X98739711Y-131378210D01*
X98739707Y-131378213D01*
X98628213Y-131489707D01*
X98628210Y-131489711D01*
X98540609Y-131620814D01*
X98540602Y-131620827D01*
X98480264Y-131766498D01*
X98480261Y-131766510D01*
X98449500Y-131921153D01*
X97437727Y-131921153D01*
X97498015Y-131860865D01*
X97573781Y-131729635D01*
X97613000Y-131583266D01*
X97613000Y-131431734D01*
X97573781Y-131285365D01*
X97572567Y-131283263D01*
X97562158Y-131265234D01*
X97498015Y-131154135D01*
X97390865Y-131046985D01*
X97307587Y-130998904D01*
X97259636Y-130971219D01*
X97155084Y-130943205D01*
X97113266Y-130932000D01*
X96961734Y-130932000D01*
X96815362Y-130971219D01*
X96793999Y-130983554D01*
X96726098Y-131000025D01*
X96660072Y-130977173D01*
X96616882Y-130922251D01*
X96608000Y-130876166D01*
X96608000Y-130358956D01*
X96569552Y-130165670D01*
X96569551Y-130165669D01*
X96569551Y-130165665D01*
X96550028Y-130118531D01*
X96494135Y-129983592D01*
X96494128Y-129983579D01*
X96384639Y-129819718D01*
X96384636Y-129819714D01*
X96245285Y-129680363D01*
X96245281Y-129680360D01*
X96105609Y-129587033D01*
X96060804Y-129533420D01*
X96050500Y-129483931D01*
X96050500Y-129421155D01*
X96050499Y-129421153D01*
X96028647Y-129311297D01*
X96019737Y-129266503D01*
X95980242Y-129171153D01*
X105449500Y-129171153D01*
X105449500Y-129328846D01*
X105480261Y-129483489D01*
X105480264Y-129483501D01*
X105540602Y-129629172D01*
X105540609Y-129629185D01*
X105628210Y-129760288D01*
X105628213Y-129760292D01*
X105739707Y-129871786D01*
X105739711Y-129871789D01*
X105870814Y-129959390D01*
X105870827Y-129959397D01*
X105993691Y-130010288D01*
X106016503Y-130019737D01*
X106171153Y-130050499D01*
X106171156Y-130050500D01*
X106171158Y-130050500D01*
X106328844Y-130050500D01*
X106328845Y-130050499D01*
X106483497Y-130019737D01*
X106629179Y-129959394D01*
X106760289Y-129871789D01*
X106871789Y-129760289D01*
X106959394Y-129629179D01*
X107019737Y-129483497D01*
X107050500Y-129328842D01*
X107050500Y-129171158D01*
X107050500Y-129171155D01*
X107050499Y-129171153D01*
X107023317Y-129034502D01*
X107019737Y-129016503D01*
X107019735Y-129016498D01*
X106959397Y-128870827D01*
X106959390Y-128870814D01*
X106871789Y-128739711D01*
X106871786Y-128739707D01*
X106760292Y-128628213D01*
X106760288Y-128628210D01*
X106629185Y-128540609D01*
X106629172Y-128540602D01*
X106483501Y-128480264D01*
X106483489Y-128480261D01*
X106328845Y-128449500D01*
X106328842Y-128449500D01*
X106171158Y-128449500D01*
X106171155Y-128449500D01*
X106016510Y-128480261D01*
X106016498Y-128480264D01*
X105870827Y-128540602D01*
X105870814Y-128540609D01*
X105739711Y-128628210D01*
X105739707Y-128628213D01*
X105628213Y-128739707D01*
X105628210Y-128739711D01*
X105540609Y-128870814D01*
X105540602Y-128870827D01*
X105480264Y-129016498D01*
X105480261Y-129016510D01*
X105449500Y-129171153D01*
X95980242Y-129171153D01*
X95962302Y-129127841D01*
X95959397Y-129120827D01*
X95959390Y-129120814D01*
X95871789Y-128989711D01*
X95871786Y-128989707D01*
X95760292Y-128878213D01*
X95760288Y-128878210D01*
X95629185Y-128790609D01*
X95629172Y-128790602D01*
X95483501Y-128730264D01*
X95483489Y-128730261D01*
X95328845Y-128699500D01*
X95328842Y-128699500D01*
X95171158Y-128699500D01*
X95171155Y-128699500D01*
X95016510Y-128730261D01*
X95016498Y-128730264D01*
X94870827Y-128790602D01*
X94870814Y-128790609D01*
X94739711Y-128878210D01*
X94739707Y-128878213D01*
X94628213Y-128989707D01*
X94628210Y-128989711D01*
X94540609Y-129120814D01*
X94540601Y-129120829D01*
X94528061Y-129151104D01*
X94484220Y-129205507D01*
X94417925Y-129227571D01*
X94350226Y-129210291D01*
X94302616Y-129159153D01*
X94291884Y-129127841D01*
X94273317Y-129034502D01*
X94269737Y-129016503D01*
X94269735Y-129016498D01*
X94209397Y-128870827D01*
X94209390Y-128870814D01*
X94121789Y-128739711D01*
X94121786Y-128739707D01*
X94010292Y-128628213D01*
X94010288Y-128628210D01*
X93879185Y-128540609D01*
X93879172Y-128540602D01*
X93733501Y-128480264D01*
X93733489Y-128480261D01*
X93578845Y-128449500D01*
X93578842Y-128449500D01*
X93421158Y-128449500D01*
X93421155Y-128449500D01*
X93266510Y-128480261D01*
X93266498Y-128480264D01*
X93120827Y-128540602D01*
X93120814Y-128540609D01*
X92989711Y-128628210D01*
X92989707Y-128628213D01*
X92878213Y-128739707D01*
X92878210Y-128739711D01*
X92790609Y-128870814D01*
X92790602Y-128870827D01*
X92730264Y-129016498D01*
X92730261Y-129016510D01*
X92699500Y-129171153D01*
X87994884Y-129171153D01*
X88012824Y-129127841D01*
X88017061Y-129117613D01*
X88017061Y-129117611D01*
X88051484Y-129034506D01*
X88051486Y-129034502D01*
X88082249Y-128879847D01*
X88082249Y-128722163D01*
X88082249Y-128722160D01*
X88082248Y-128722158D01*
X88063561Y-128628213D01*
X88051486Y-128567508D01*
X88040341Y-128540602D01*
X87991146Y-128421832D01*
X87991139Y-128421819D01*
X87903538Y-128290716D01*
X87903535Y-128290712D01*
X87792041Y-128179218D01*
X87792037Y-128179215D01*
X87660934Y-128091614D01*
X87660921Y-128091607D01*
X87515250Y-128031269D01*
X87515238Y-128031266D01*
X87360594Y-128000505D01*
X87360591Y-128000505D01*
X87202907Y-128000505D01*
X87202904Y-128000505D01*
X87048259Y-128031266D01*
X87048247Y-128031269D01*
X86902576Y-128091607D01*
X86902563Y-128091614D01*
X86771460Y-128179215D01*
X86771456Y-128179218D01*
X86659962Y-128290712D01*
X86659959Y-128290716D01*
X86572358Y-128421819D01*
X86572350Y-128421834D01*
X86569392Y-128428977D01*
X86566462Y-128432612D01*
X86565625Y-128437210D01*
X86544740Y-128459567D01*
X86525551Y-128483380D01*
X86521119Y-128484855D01*
X86517930Y-128488269D01*
X86488272Y-128495786D01*
X86459256Y-128505444D01*
X86454731Y-128504289D01*
X86450203Y-128505437D01*
X86421193Y-128495728D01*
X86391557Y-128488164D01*
X86387143Y-128484333D01*
X86383945Y-128483263D01*
X86358155Y-128459173D01*
X86250813Y-128325520D01*
X86247233Y-128320838D01*
X86234988Y-128304003D01*
X85945351Y-127905782D01*
X85921839Y-127839989D01*
X85937629Y-127771927D01*
X85987710Y-127723206D01*
X86021434Y-127711230D01*
X86109367Y-127693740D01*
X86255049Y-127633397D01*
X86386159Y-127545792D01*
X86497659Y-127434292D01*
X86506438Y-127421153D01*
X89949500Y-127421153D01*
X89949500Y-127578846D01*
X89980261Y-127733489D01*
X89980264Y-127733501D01*
X90040602Y-127879172D01*
X90040609Y-127879185D01*
X90128210Y-128010288D01*
X90128213Y-128010292D01*
X90239707Y-128121786D01*
X90239711Y-128121789D01*
X90370814Y-128209390D01*
X90370827Y-128209397D01*
X90495982Y-128261237D01*
X90516503Y-128269737D01*
X90621951Y-128290712D01*
X90671153Y-128300499D01*
X90671156Y-128300500D01*
X90671158Y-128300500D01*
X90828844Y-128300500D01*
X90828845Y-128300499D01*
X90983497Y-128269737D01*
X91129179Y-128209394D01*
X91260289Y-128121789D01*
X91371789Y-128010289D01*
X91459394Y-127879179D01*
X91519737Y-127733497D01*
X91550500Y-127578842D01*
X91550500Y-127421158D01*
X91550500Y-127421155D01*
X91550499Y-127421153D01*
X91532137Y-127328842D01*
X91519737Y-127266503D01*
X91480242Y-127171153D01*
X91459397Y-127120827D01*
X91459390Y-127120814D01*
X91371789Y-126989711D01*
X91371786Y-126989707D01*
X91260292Y-126878213D01*
X91260288Y-126878210D01*
X91129185Y-126790609D01*
X91129172Y-126790602D01*
X90983501Y-126730264D01*
X90983489Y-126730261D01*
X90828845Y-126699500D01*
X90828842Y-126699500D01*
X90671158Y-126699500D01*
X90671155Y-126699500D01*
X90516510Y-126730261D01*
X90516498Y-126730264D01*
X90370827Y-126790602D01*
X90370814Y-126790609D01*
X90239711Y-126878210D01*
X90239707Y-126878213D01*
X90128213Y-126989707D01*
X90128210Y-126989711D01*
X90040609Y-127120814D01*
X90040602Y-127120827D01*
X89980264Y-127266498D01*
X89980261Y-127266510D01*
X89949500Y-127421153D01*
X86506438Y-127421153D01*
X86520736Y-127399753D01*
X86556538Y-127346175D01*
X86585261Y-127303186D01*
X86585264Y-127303182D01*
X86645607Y-127157500D01*
X86676370Y-127002845D01*
X86676370Y-126845161D01*
X86676370Y-126845158D01*
X86676369Y-126845156D01*
X86661367Y-126769735D01*
X86645607Y-126690506D01*
X86619804Y-126628211D01*
X86585267Y-126544830D01*
X86585260Y-126544817D01*
X86497659Y-126413714D01*
X86497656Y-126413710D01*
X86386162Y-126302216D01*
X86386158Y-126302213D01*
X86255055Y-126214612D01*
X86255042Y-126214605D01*
X86109371Y-126154267D01*
X86109359Y-126154264D01*
X85954715Y-126123503D01*
X85954712Y-126123503D01*
X85797028Y-126123503D01*
X85797025Y-126123503D01*
X85642380Y-126154264D01*
X85642368Y-126154267D01*
X85496697Y-126214605D01*
X85496684Y-126214612D01*
X85365581Y-126302213D01*
X85365577Y-126302216D01*
X85254083Y-126413710D01*
X85220407Y-126464110D01*
X85219410Y-126464942D01*
X85218998Y-126466173D01*
X85192687Y-126487274D01*
X85166794Y-126508914D01*
X85165505Y-126509075D01*
X85164493Y-126509888D01*
X85130931Y-126513418D01*
X85097469Y-126517621D01*
X85096298Y-126517061D01*
X85095007Y-126517197D01*
X85064858Y-126502018D01*
X85034442Y-126487466D01*
X85033382Y-126486171D01*
X85032600Y-126485778D01*
X85010518Y-126458245D01*
X84888630Y-126251730D01*
X84885766Y-126246603D01*
X84727429Y-125946411D01*
X84714107Y-125921153D01*
X103449500Y-125921153D01*
X103449500Y-126078846D01*
X103480261Y-126233489D01*
X103480264Y-126233501D01*
X103540602Y-126379172D01*
X103540609Y-126379185D01*
X103628210Y-126510288D01*
X103628213Y-126510292D01*
X103739707Y-126621786D01*
X103739711Y-126621789D01*
X103870814Y-126709390D01*
X103870827Y-126709397D01*
X103944013Y-126739711D01*
X104016503Y-126769737D01*
X104171153Y-126800499D01*
X104171156Y-126800500D01*
X104171158Y-126800500D01*
X104328844Y-126800500D01*
X104328845Y-126800499D01*
X104483497Y-126769737D01*
X104628177Y-126709808D01*
X104697646Y-126702340D01*
X104760125Y-126733615D01*
X104795777Y-126793704D01*
X104793283Y-126863529D01*
X104790190Y-126871822D01*
X104730264Y-127016498D01*
X104730261Y-127016510D01*
X104699500Y-127171153D01*
X104699500Y-127328846D01*
X104730261Y-127483489D01*
X104730264Y-127483501D01*
X104790602Y-127629172D01*
X104790609Y-127629185D01*
X104878210Y-127760288D01*
X104878213Y-127760292D01*
X104989707Y-127871786D01*
X104989711Y-127871789D01*
X105120814Y-127959390D01*
X105120827Y-127959397D01*
X105266498Y-128019735D01*
X105266503Y-128019737D01*
X105421153Y-128050499D01*
X105421156Y-128050500D01*
X105421158Y-128050500D01*
X105578844Y-128050500D01*
X105578845Y-128050499D01*
X105733497Y-128019737D01*
X105879179Y-127959394D01*
X106010289Y-127871789D01*
X106121789Y-127760289D01*
X106209394Y-127629179D01*
X106269737Y-127483497D01*
X106300500Y-127328842D01*
X106300500Y-127171158D01*
X106300500Y-127171155D01*
X106300499Y-127171153D01*
X106290486Y-127120814D01*
X106269737Y-127016503D01*
X106264080Y-127002845D01*
X106209397Y-126870827D01*
X106209390Y-126870814D01*
X106121789Y-126739711D01*
X106121786Y-126739707D01*
X106010292Y-126628213D01*
X106010288Y-126628210D01*
X105879185Y-126540609D01*
X105879172Y-126540602D01*
X105733501Y-126480264D01*
X105733489Y-126480261D01*
X105578845Y-126449500D01*
X105578842Y-126449500D01*
X105421158Y-126449500D01*
X105421155Y-126449500D01*
X105266510Y-126480261D01*
X105266498Y-126480264D01*
X105121822Y-126540190D01*
X105052352Y-126547659D01*
X104989873Y-126516383D01*
X104954221Y-126456294D01*
X104956716Y-126386469D01*
X104959809Y-126378176D01*
X105019737Y-126233497D01*
X105050500Y-126078842D01*
X105050500Y-125921158D01*
X105050500Y-125921155D01*
X105050499Y-125921153D01*
X105019738Y-125766510D01*
X105019737Y-125766503D01*
X104999789Y-125718343D01*
X104959397Y-125620827D01*
X104959390Y-125620814D01*
X104871789Y-125489711D01*
X104871786Y-125489707D01*
X104760292Y-125378213D01*
X104760288Y-125378210D01*
X104629185Y-125290609D01*
X104629172Y-125290602D01*
X104483501Y-125230264D01*
X104483489Y-125230261D01*
X104328845Y-125199500D01*
X104328842Y-125199500D01*
X104171158Y-125199500D01*
X104171155Y-125199500D01*
X104016510Y-125230261D01*
X104016498Y-125230264D01*
X103870827Y-125290602D01*
X103870814Y-125290609D01*
X103739711Y-125378210D01*
X103739707Y-125378213D01*
X103628213Y-125489707D01*
X103628210Y-125489711D01*
X103540609Y-125620814D01*
X103540602Y-125620827D01*
X103480264Y-125766498D01*
X103480261Y-125766510D01*
X103449500Y-125921153D01*
X84714107Y-125921153D01*
X84677609Y-125851957D01*
X84663743Y-125783477D01*
X84689103Y-125718372D01*
X84745635Y-125677312D01*
X84787287Y-125670107D01*
X84823745Y-125670107D01*
X84823746Y-125670106D01*
X84978398Y-125639344D01*
X85124080Y-125579001D01*
X85255190Y-125491396D01*
X85366690Y-125379896D01*
X85454295Y-125248786D01*
X85514638Y-125103104D01*
X85545401Y-124948449D01*
X85545401Y-124790765D01*
X85545401Y-124790762D01*
X85545400Y-124790760D01*
X85541227Y-124769779D01*
X85514638Y-124636110D01*
X85490917Y-124578842D01*
X85454298Y-124490434D01*
X85454291Y-124490421D01*
X85366690Y-124359318D01*
X85366687Y-124359314D01*
X85255193Y-124247820D01*
X85255189Y-124247817D01*
X85140454Y-124171153D01*
X102199500Y-124171153D01*
X102199500Y-124328846D01*
X102230261Y-124483489D01*
X102230264Y-124483501D01*
X102290602Y-124629172D01*
X102290609Y-124629185D01*
X102378210Y-124760288D01*
X102378213Y-124760292D01*
X102489707Y-124871786D01*
X102489711Y-124871789D01*
X102620814Y-124959390D01*
X102620827Y-124959397D01*
X102766498Y-125019735D01*
X102766503Y-125019737D01*
X102921153Y-125050499D01*
X102921156Y-125050500D01*
X102921158Y-125050500D01*
X103078844Y-125050500D01*
X103078845Y-125050499D01*
X103233497Y-125019737D01*
X103379179Y-124959394D01*
X103510289Y-124871789D01*
X103621789Y-124760289D01*
X103709394Y-124629179D01*
X103769737Y-124483497D01*
X103782138Y-124421153D01*
X107699500Y-124421153D01*
X107699500Y-124578846D01*
X107730261Y-124733489D01*
X107730264Y-124733501D01*
X107790602Y-124879172D01*
X107790609Y-124879185D01*
X107878210Y-125010288D01*
X107878213Y-125010292D01*
X107989707Y-125121786D01*
X107989711Y-125121789D01*
X108120814Y-125209390D01*
X108120827Y-125209397D01*
X108222117Y-125251352D01*
X108266503Y-125269737D01*
X108421153Y-125300499D01*
X108421156Y-125300500D01*
X108421158Y-125300500D01*
X108578844Y-125300500D01*
X108578845Y-125300499D01*
X108733497Y-125269737D01*
X108879179Y-125209394D01*
X109010289Y-125121789D01*
X109121789Y-125010289D01*
X109209394Y-124879179D01*
X109269737Y-124733497D01*
X109300500Y-124578842D01*
X109300500Y-124421158D01*
X109300500Y-124421155D01*
X109300499Y-124421153D01*
X109269737Y-124266503D01*
X109261998Y-124247820D01*
X109209397Y-124120827D01*
X109209390Y-124120814D01*
X109121789Y-123989711D01*
X109121786Y-123989707D01*
X109010292Y-123878213D01*
X109010288Y-123878210D01*
X108879185Y-123790609D01*
X108879172Y-123790602D01*
X108733501Y-123730264D01*
X108733489Y-123730261D01*
X108578845Y-123699500D01*
X108578842Y-123699500D01*
X108421158Y-123699500D01*
X108421155Y-123699500D01*
X108266510Y-123730261D01*
X108266498Y-123730264D01*
X108120827Y-123790602D01*
X108120814Y-123790609D01*
X107989711Y-123878210D01*
X107989707Y-123878213D01*
X107878213Y-123989707D01*
X107878210Y-123989711D01*
X107790609Y-124120814D01*
X107790602Y-124120827D01*
X107730264Y-124266498D01*
X107730261Y-124266510D01*
X107699500Y-124421153D01*
X103782138Y-124421153D01*
X103795154Y-124355718D01*
X103800500Y-124328844D01*
X103800500Y-124171155D01*
X103800499Y-124171153D01*
X103784727Y-124091862D01*
X103769737Y-124016503D01*
X103763631Y-124001761D01*
X103709397Y-123870827D01*
X103709390Y-123870814D01*
X103621789Y-123739711D01*
X103621786Y-123739707D01*
X103510292Y-123628213D01*
X103510288Y-123628210D01*
X103379185Y-123540609D01*
X103379172Y-123540602D01*
X103233501Y-123480264D01*
X103233489Y-123480261D01*
X103078845Y-123449500D01*
X103078842Y-123449500D01*
X102921158Y-123449500D01*
X102921155Y-123449500D01*
X102766510Y-123480261D01*
X102766498Y-123480264D01*
X102620827Y-123540602D01*
X102620814Y-123540609D01*
X102489711Y-123628210D01*
X102489707Y-123628213D01*
X102378213Y-123739707D01*
X102378210Y-123739711D01*
X102290609Y-123870814D01*
X102290602Y-123870827D01*
X102230264Y-124016498D01*
X102230261Y-124016510D01*
X102199500Y-124171153D01*
X85140454Y-124171153D01*
X85124086Y-124160216D01*
X85124073Y-124160209D01*
X84978402Y-124099871D01*
X84978390Y-124099868D01*
X84823746Y-124069107D01*
X84823743Y-124069107D01*
X84666059Y-124069107D01*
X84666056Y-124069107D01*
X84511411Y-124099868D01*
X84511399Y-124099871D01*
X84365728Y-124160209D01*
X84365715Y-124160216D01*
X84234612Y-124247817D01*
X84155211Y-124327218D01*
X84093887Y-124360702D01*
X84024196Y-124355718D01*
X83968262Y-124313846D01*
X83952828Y-124286648D01*
X83936880Y-124247820D01*
X83836933Y-124004480D01*
X83834830Y-123998991D01*
X83708428Y-123643810D01*
X83704497Y-123574054D01*
X83738904Y-123513243D01*
X83800726Y-123480688D01*
X83825921Y-123479417D01*
X83825921Y-123478304D01*
X83989699Y-123478304D01*
X83989700Y-123478303D01*
X84144352Y-123447541D01*
X84290034Y-123387198D01*
X84421144Y-123299593D01*
X84532644Y-123188093D01*
X84620249Y-123056983D01*
X84680592Y-122911301D01*
X84711355Y-122756646D01*
X84711355Y-122598962D01*
X84711355Y-122598959D01*
X84711354Y-122598957D01*
X84697727Y-122530449D01*
X84680592Y-122444307D01*
X84653215Y-122378213D01*
X84620252Y-122298631D01*
X84620245Y-122298618D01*
X84532644Y-122167515D01*
X84532641Y-122167511D01*
X84421147Y-122056017D01*
X84421143Y-122056014D01*
X84290040Y-121968413D01*
X84290027Y-121968406D01*
X84144356Y-121908068D01*
X84144344Y-121908065D01*
X83989700Y-121877304D01*
X83989697Y-121877304D01*
X83832013Y-121877304D01*
X83832010Y-121877304D01*
X83677365Y-121908065D01*
X83677353Y-121908068D01*
X83531682Y-121968406D01*
X83531669Y-121968413D01*
X83396027Y-122059047D01*
X83329349Y-122079925D01*
X83261969Y-122061440D01*
X83215279Y-122009461D01*
X83206878Y-121986179D01*
X83127693Y-121671153D01*
X85699500Y-121671153D01*
X85699500Y-121828846D01*
X85730261Y-121983489D01*
X85730264Y-121983501D01*
X85790602Y-122129172D01*
X85790609Y-122129185D01*
X85878210Y-122260288D01*
X85878213Y-122260292D01*
X85989707Y-122371786D01*
X85989711Y-122371789D01*
X86120814Y-122459390D01*
X86120827Y-122459397D01*
X86266498Y-122519735D01*
X86266503Y-122519737D01*
X86351661Y-122536676D01*
X86421153Y-122550499D01*
X86421156Y-122550500D01*
X86421158Y-122550500D01*
X86578843Y-122550500D01*
X86597159Y-122546856D01*
X86679643Y-122530449D01*
X86749232Y-122536676D01*
X86804410Y-122579538D01*
X86821538Y-122613060D01*
X86840186Y-122669334D01*
X86932288Y-122818656D01*
X87056344Y-122942712D01*
X87205666Y-123034814D01*
X87272586Y-123056989D01*
X87364504Y-123087448D01*
X87421949Y-123127221D01*
X87448772Y-123191737D01*
X87449500Y-123205154D01*
X87449500Y-123328846D01*
X87480261Y-123483489D01*
X87480264Y-123483501D01*
X87540602Y-123629172D01*
X87540609Y-123629185D01*
X87628210Y-123760288D01*
X87628213Y-123760292D01*
X87739707Y-123871786D01*
X87739711Y-123871789D01*
X87870814Y-123959390D01*
X87870827Y-123959397D01*
X87979727Y-124004504D01*
X88016503Y-124019737D01*
X88171153Y-124050499D01*
X88171156Y-124050500D01*
X88171158Y-124050500D01*
X88328844Y-124050500D01*
X88328845Y-124050499D01*
X88339179Y-124048443D01*
X88364287Y-124043450D01*
X88364292Y-124043449D01*
X88449800Y-124026439D01*
X88483497Y-124019737D01*
X88629179Y-123959394D01*
X88760289Y-123871789D01*
X88871789Y-123760289D01*
X88959394Y-123629179D01*
X89019737Y-123483497D01*
X89050500Y-123328842D01*
X89050500Y-123205154D01*
X89070185Y-123138115D01*
X89122989Y-123092360D01*
X89135496Y-123087448D01*
X89162179Y-123078605D01*
X89294334Y-123034814D01*
X89443656Y-122942712D01*
X89465215Y-122921153D01*
X100699500Y-122921153D01*
X100699500Y-123078846D01*
X100730261Y-123233489D01*
X100730264Y-123233501D01*
X100790602Y-123379172D01*
X100790609Y-123379185D01*
X100878210Y-123510288D01*
X100878213Y-123510292D01*
X100989707Y-123621786D01*
X100989711Y-123621789D01*
X101120814Y-123709390D01*
X101120827Y-123709397D01*
X101266498Y-123769735D01*
X101266503Y-123769737D01*
X101421153Y-123800499D01*
X101421156Y-123800500D01*
X101421158Y-123800500D01*
X101578844Y-123800500D01*
X101578845Y-123800499D01*
X101733497Y-123769737D01*
X101879179Y-123709394D01*
X102010289Y-123621789D01*
X102121789Y-123510289D01*
X102209394Y-123379179D01*
X102269737Y-123233497D01*
X102300500Y-123078842D01*
X102300500Y-122921158D01*
X102300500Y-122921155D01*
X102300499Y-122921153D01*
X102298538Y-122911293D01*
X102269737Y-122766503D01*
X102251181Y-122721705D01*
X102209397Y-122620827D01*
X102209390Y-122620814D01*
X102121789Y-122489711D01*
X102121786Y-122489707D01*
X102010292Y-122378213D01*
X102010288Y-122378210D01*
X101879185Y-122290609D01*
X101879172Y-122290602D01*
X101733501Y-122230264D01*
X101733489Y-122230261D01*
X101578845Y-122199500D01*
X101578842Y-122199500D01*
X101421158Y-122199500D01*
X101421155Y-122199500D01*
X101266510Y-122230261D01*
X101266498Y-122230264D01*
X101120827Y-122290602D01*
X101120814Y-122290609D01*
X100989711Y-122378210D01*
X100989707Y-122378213D01*
X100878213Y-122489707D01*
X100878210Y-122489711D01*
X100790609Y-122620814D01*
X100790602Y-122620827D01*
X100730264Y-122766498D01*
X100730261Y-122766510D01*
X100699500Y-122921153D01*
X89465215Y-122921153D01*
X89567712Y-122818656D01*
X89659814Y-122669334D01*
X89678461Y-122613059D01*
X89718232Y-122555617D01*
X89782748Y-122528794D01*
X89820354Y-122530448D01*
X89876388Y-122541594D01*
X89921156Y-122550500D01*
X89921158Y-122550500D01*
X90078844Y-122550500D01*
X90078845Y-122550499D01*
X90233497Y-122519737D01*
X90379179Y-122459394D01*
X90510289Y-122371789D01*
X90621789Y-122260289D01*
X90709394Y-122129179D01*
X90769737Y-121983497D01*
X90800500Y-121828842D01*
X90800500Y-121671158D01*
X90800500Y-121671155D01*
X90800499Y-121671153D01*
X90782137Y-121578842D01*
X90769737Y-121516503D01*
X90739940Y-121444566D01*
X90709397Y-121370827D01*
X90709390Y-121370814D01*
X90621789Y-121239711D01*
X90621786Y-121239707D01*
X90510292Y-121128213D01*
X90510288Y-121128210D01*
X90379185Y-121040609D01*
X90379172Y-121040602D01*
X90233501Y-120980264D01*
X90233489Y-120980261D01*
X90078845Y-120949500D01*
X90078842Y-120949500D01*
X89921158Y-120949500D01*
X89921155Y-120949500D01*
X89820357Y-120969550D01*
X89750766Y-120963323D01*
X89695588Y-120920460D01*
X89678460Y-120886937D01*
X89659814Y-120830666D01*
X89567712Y-120681344D01*
X89443656Y-120557288D01*
X89294334Y-120465186D01*
X89294333Y-120465185D01*
X89288878Y-120461821D01*
X89242154Y-120409873D01*
X89230931Y-120340910D01*
X89258775Y-120276828D01*
X89266272Y-120268623D01*
X89405104Y-120129792D01*
X89410919Y-120121789D01*
X89495162Y-120005837D01*
X89530051Y-119957816D01*
X89569869Y-119879667D01*
X89617843Y-119828872D01*
X89685664Y-119812076D01*
X89751799Y-119834613D01*
X89786901Y-119874327D01*
X89787221Y-119874114D01*
X89788795Y-119876470D01*
X89789709Y-119877504D01*
X89790600Y-119879172D01*
X89878210Y-120010288D01*
X89878213Y-120010292D01*
X89989707Y-120121786D01*
X89989711Y-120121789D01*
X90120814Y-120209390D01*
X90120827Y-120209397D01*
X90254779Y-120264881D01*
X90266503Y-120269737D01*
X90421153Y-120300499D01*
X90421156Y-120300500D01*
X90421158Y-120300500D01*
X90578843Y-120300500D01*
X90595304Y-120297225D01*
X90644568Y-120287426D01*
X90714158Y-120293653D01*
X90769336Y-120336515D01*
X90783320Y-120361589D01*
X90790606Y-120379179D01*
X90790609Y-120379185D01*
X90878210Y-120510288D01*
X90878213Y-120510292D01*
X90989707Y-120621786D01*
X90989711Y-120621789D01*
X91120814Y-120709390D01*
X91120827Y-120709397D01*
X91266498Y-120769735D01*
X91266503Y-120769737D01*
X91421153Y-120800499D01*
X91421156Y-120800500D01*
X91575500Y-120800500D01*
X91642539Y-120820185D01*
X91688294Y-120872989D01*
X91699500Y-120924500D01*
X91699500Y-121078846D01*
X91730261Y-121233489D01*
X91730264Y-121233501D01*
X91790602Y-121379172D01*
X91790609Y-121379185D01*
X91878210Y-121510288D01*
X91878213Y-121510292D01*
X91989707Y-121621786D01*
X91989711Y-121621789D01*
X92120814Y-121709390D01*
X92120827Y-121709397D01*
X92266498Y-121769735D01*
X92266503Y-121769737D01*
X92347614Y-121785871D01*
X92421153Y-121800499D01*
X92421156Y-121800500D01*
X92421158Y-121800500D01*
X92578844Y-121800500D01*
X92578845Y-121800499D01*
X92733497Y-121769737D01*
X92879179Y-121709394D01*
X92931110Y-121674694D01*
X92997785Y-121653816D01*
X93065165Y-121672300D01*
X93068863Y-121674676D01*
X93120821Y-121709394D01*
X93120823Y-121709395D01*
X93120825Y-121709396D01*
X93266498Y-121769735D01*
X93266503Y-121769737D01*
X93347614Y-121785871D01*
X93421153Y-121800499D01*
X93421156Y-121800500D01*
X93421158Y-121800500D01*
X93578844Y-121800500D01*
X93578845Y-121800499D01*
X93733497Y-121769737D01*
X93879179Y-121709394D01*
X94010289Y-121621789D01*
X94121789Y-121510289D01*
X94181348Y-121421153D01*
X105949500Y-121421153D01*
X105949500Y-121578846D01*
X105980261Y-121733489D01*
X105980264Y-121733501D01*
X106040602Y-121879172D01*
X106040609Y-121879185D01*
X106128210Y-122010288D01*
X106128213Y-122010292D01*
X106239707Y-122121786D01*
X106239711Y-122121789D01*
X106370814Y-122209390D01*
X106370827Y-122209397D01*
X106516498Y-122269735D01*
X106516503Y-122269737D01*
X106661697Y-122298618D01*
X106671153Y-122300499D01*
X106671156Y-122300500D01*
X106671158Y-122300500D01*
X106828844Y-122300500D01*
X106828845Y-122300499D01*
X106983497Y-122269737D01*
X107129179Y-122209394D01*
X107260289Y-122121789D01*
X107371789Y-122010289D01*
X107459394Y-121879179D01*
X107519737Y-121733497D01*
X107550500Y-121578842D01*
X107550500Y-121421158D01*
X107550500Y-121421155D01*
X107550499Y-121421153D01*
X107539849Y-121367611D01*
X107519737Y-121266503D01*
X107511269Y-121246059D01*
X107459397Y-121120827D01*
X107459390Y-121120814D01*
X107371789Y-120989711D01*
X107371786Y-120989707D01*
X107260292Y-120878213D01*
X107260288Y-120878210D01*
X107129185Y-120790609D01*
X107129172Y-120790602D01*
X106983501Y-120730264D01*
X106983489Y-120730261D01*
X106828845Y-120699500D01*
X106828842Y-120699500D01*
X106671158Y-120699500D01*
X106671155Y-120699500D01*
X106516510Y-120730261D01*
X106516498Y-120730264D01*
X106370827Y-120790602D01*
X106370814Y-120790609D01*
X106239711Y-120878210D01*
X106239707Y-120878213D01*
X106128213Y-120989707D01*
X106128210Y-120989711D01*
X106040609Y-121120814D01*
X106040602Y-121120827D01*
X105980264Y-121266498D01*
X105980261Y-121266510D01*
X105949500Y-121421153D01*
X94181348Y-121421153D01*
X94209394Y-121379179D01*
X94269737Y-121233497D01*
X94300500Y-121078842D01*
X94300500Y-120924500D01*
X94320185Y-120857461D01*
X94372989Y-120811706D01*
X94424500Y-120800500D01*
X94578844Y-120800500D01*
X94578845Y-120800499D01*
X94733497Y-120769737D01*
X94879179Y-120709394D01*
X95010289Y-120621789D01*
X95121789Y-120510289D01*
X95209394Y-120379179D01*
X95269737Y-120233497D01*
X95300500Y-120078842D01*
X95300500Y-119921158D01*
X95300500Y-119921155D01*
X95300499Y-119921153D01*
X95291142Y-119874114D01*
X95269737Y-119766503D01*
X95234677Y-119681860D01*
X95209396Y-119620825D01*
X95209394Y-119620822D01*
X95209394Y-119620821D01*
X95174694Y-119568889D01*
X95153816Y-119502215D01*
X95172300Y-119434835D01*
X95174676Y-119431136D01*
X95209394Y-119379179D01*
X95269737Y-119233497D01*
X95300500Y-119078842D01*
X95300500Y-118921158D01*
X95300500Y-118921155D01*
X95300499Y-118921153D01*
X95281214Y-118824201D01*
X95269737Y-118766503D01*
X95255274Y-118731585D01*
X95209396Y-118620825D01*
X95209394Y-118620822D01*
X95209394Y-118620821D01*
X95174694Y-118568889D01*
X95169603Y-118552632D01*
X95159954Y-118538590D01*
X95159379Y-118519981D01*
X95153816Y-118502215D01*
X95158311Y-118485400D01*
X95157797Y-118468754D01*
X95170072Y-118441406D01*
X95171461Y-118436212D01*
X95173003Y-118433640D01*
X95181347Y-118421153D01*
X105199500Y-118421153D01*
X105199500Y-118578846D01*
X105230261Y-118733489D01*
X105230264Y-118733501D01*
X105290602Y-118879172D01*
X105290609Y-118879185D01*
X105378210Y-119010288D01*
X105378213Y-119010292D01*
X105489707Y-119121786D01*
X105489711Y-119121789D01*
X105620814Y-119209390D01*
X105620827Y-119209397D01*
X105716113Y-119248865D01*
X105766503Y-119269737D01*
X105921153Y-119300499D01*
X105921156Y-119300500D01*
X105921158Y-119300500D01*
X105925162Y-119300500D01*
X105927183Y-119301093D01*
X105927218Y-119301097D01*
X105927217Y-119301103D01*
X105992201Y-119320185D01*
X106037956Y-119372989D01*
X106039715Y-119377029D01*
X106040606Y-119379179D01*
X106040607Y-119379180D01*
X106040609Y-119379185D01*
X106128210Y-119510288D01*
X106128213Y-119510292D01*
X106239707Y-119621786D01*
X106239711Y-119621789D01*
X106370814Y-119709390D01*
X106370827Y-119709397D01*
X106508683Y-119766498D01*
X106516503Y-119769737D01*
X106671153Y-119800499D01*
X106671156Y-119800500D01*
X106671158Y-119800500D01*
X106828844Y-119800500D01*
X106828845Y-119800499D01*
X106983497Y-119769737D01*
X107129179Y-119709394D01*
X107181110Y-119674694D01*
X107247785Y-119653816D01*
X107315165Y-119672300D01*
X107318863Y-119674676D01*
X107370821Y-119709394D01*
X107370823Y-119709395D01*
X107370825Y-119709396D01*
X107401771Y-119722214D01*
X107516503Y-119769737D01*
X107671153Y-119800499D01*
X107671156Y-119800500D01*
X107671158Y-119800500D01*
X107828844Y-119800500D01*
X107828845Y-119800499D01*
X107983497Y-119769737D01*
X108129179Y-119709394D01*
X108181110Y-119674694D01*
X108247785Y-119653816D01*
X108315165Y-119672300D01*
X108318863Y-119674676D01*
X108370821Y-119709394D01*
X108370823Y-119709395D01*
X108370825Y-119709396D01*
X108401771Y-119722214D01*
X108516503Y-119769737D01*
X108671153Y-119800499D01*
X108671156Y-119800500D01*
X108671158Y-119800500D01*
X108828844Y-119800500D01*
X108828845Y-119800499D01*
X108983497Y-119769737D01*
X109129179Y-119709394D01*
X109260289Y-119621789D01*
X109371789Y-119510289D01*
X109459394Y-119379179D01*
X109460276Y-119377051D01*
X109491984Y-119300499D01*
X109519737Y-119233497D01*
X109550500Y-119078842D01*
X109550500Y-118921158D01*
X109550500Y-118921155D01*
X109550499Y-118921153D01*
X109531214Y-118824201D01*
X109519737Y-118766503D01*
X109505274Y-118731585D01*
X109459397Y-118620827D01*
X109459390Y-118620814D01*
X109371789Y-118489711D01*
X109371786Y-118489707D01*
X109260292Y-118378213D01*
X109260288Y-118378210D01*
X109129185Y-118290609D01*
X109129172Y-118290602D01*
X108983501Y-118230264D01*
X108983489Y-118230261D01*
X108828845Y-118199500D01*
X108828842Y-118199500D01*
X108671158Y-118199500D01*
X108671155Y-118199500D01*
X108516510Y-118230261D01*
X108516498Y-118230264D01*
X108370827Y-118290602D01*
X108370814Y-118290609D01*
X108318891Y-118325304D01*
X108252214Y-118346182D01*
X108184833Y-118327698D01*
X108181109Y-118325304D01*
X108129185Y-118290609D01*
X108129172Y-118290602D01*
X107983501Y-118230264D01*
X107983489Y-118230261D01*
X107828845Y-118199500D01*
X107828842Y-118199500D01*
X107671158Y-118199500D01*
X107671155Y-118199500D01*
X107516510Y-118230261D01*
X107516498Y-118230264D01*
X107370827Y-118290602D01*
X107370814Y-118290609D01*
X107318891Y-118325304D01*
X107252214Y-118346182D01*
X107184833Y-118327698D01*
X107181109Y-118325304D01*
X107129185Y-118290609D01*
X107129172Y-118290602D01*
X106983501Y-118230264D01*
X106983489Y-118230261D01*
X106828845Y-118199500D01*
X106828842Y-118199500D01*
X106824838Y-118199500D01*
X106822816Y-118198906D01*
X106822782Y-118198903D01*
X106822782Y-118198896D01*
X106757799Y-118179815D01*
X106712044Y-118127011D01*
X106710275Y-118122949D01*
X106709394Y-118120821D01*
X106709391Y-118120816D01*
X106709390Y-118120814D01*
X106621789Y-117989711D01*
X106621786Y-117989707D01*
X106510292Y-117878213D01*
X106510288Y-117878210D01*
X106379185Y-117790609D01*
X106379172Y-117790602D01*
X106233501Y-117730264D01*
X106233489Y-117730261D01*
X106078845Y-117699500D01*
X106078842Y-117699500D01*
X105921158Y-117699500D01*
X105921155Y-117699500D01*
X105766510Y-117730261D01*
X105766498Y-117730264D01*
X105620827Y-117790602D01*
X105620814Y-117790609D01*
X105489711Y-117878210D01*
X105489707Y-117878213D01*
X105378213Y-117989707D01*
X105378210Y-117989711D01*
X105290609Y-118120814D01*
X105290602Y-118120827D01*
X105230264Y-118266498D01*
X105230261Y-118266510D01*
X105199500Y-118421153D01*
X95181347Y-118421153D01*
X95209394Y-118379179D01*
X95269737Y-118233497D01*
X95300500Y-118078842D01*
X95300500Y-117921158D01*
X95300500Y-117921155D01*
X95300499Y-117921153D01*
X95280572Y-117820974D01*
X95269737Y-117766503D01*
X95269735Y-117766498D01*
X95209396Y-117620825D01*
X95209394Y-117620822D01*
X95209394Y-117620821D01*
X95174694Y-117568889D01*
X95153816Y-117502215D01*
X95172300Y-117434835D01*
X95174676Y-117431136D01*
X95209394Y-117379179D01*
X95269737Y-117233497D01*
X95300500Y-117078842D01*
X95300500Y-116921158D01*
X95300500Y-116921155D01*
X95300499Y-116921153D01*
X95292150Y-116879179D01*
X95269737Y-116766503D01*
X95260699Y-116744683D01*
X95209396Y-116620825D01*
X95209394Y-116620822D01*
X95209394Y-116620821D01*
X95174694Y-116568889D01*
X95169603Y-116552632D01*
X95159954Y-116538590D01*
X95159379Y-116519981D01*
X95153816Y-116502215D01*
X95158311Y-116485400D01*
X95157797Y-116468754D01*
X95170072Y-116441406D01*
X95171461Y-116436212D01*
X95173003Y-116433640D01*
X95181347Y-116421153D01*
X107699500Y-116421153D01*
X107699500Y-116578846D01*
X107730261Y-116733489D01*
X107730264Y-116733501D01*
X107790602Y-116879172D01*
X107790609Y-116879185D01*
X107878210Y-117010288D01*
X107878213Y-117010292D01*
X107989707Y-117121786D01*
X107989711Y-117121789D01*
X108120814Y-117209390D01*
X108120827Y-117209397D01*
X108263304Y-117268412D01*
X108266503Y-117269737D01*
X108421153Y-117300499D01*
X108421156Y-117300500D01*
X108421158Y-117300500D01*
X108578844Y-117300500D01*
X108578845Y-117300499D01*
X108733497Y-117269737D01*
X108865186Y-117215190D01*
X108879172Y-117209397D01*
X108879172Y-117209396D01*
X108879179Y-117209394D01*
X109010289Y-117121789D01*
X109121789Y-117010289D01*
X109181348Y-116921153D01*
X111949500Y-116921153D01*
X111949500Y-117078846D01*
X111980261Y-117233489D01*
X111980264Y-117233501D01*
X112040602Y-117379172D01*
X112040609Y-117379185D01*
X112128210Y-117510288D01*
X112128213Y-117510292D01*
X112239707Y-117621786D01*
X112239711Y-117621789D01*
X112370814Y-117709390D01*
X112370827Y-117709397D01*
X112508683Y-117766498D01*
X112516503Y-117769737D01*
X112671153Y-117800499D01*
X112671156Y-117800500D01*
X112671158Y-117800500D01*
X112828844Y-117800500D01*
X112828845Y-117800499D01*
X112983497Y-117769737D01*
X113129179Y-117709394D01*
X113260289Y-117621789D01*
X113371789Y-117510289D01*
X113459394Y-117379179D01*
X113519737Y-117233497D01*
X113550500Y-117078842D01*
X113550500Y-116922902D01*
X113570185Y-116855863D01*
X113622989Y-116810108D01*
X113692147Y-116800164D01*
X113755703Y-116829189D01*
X113789062Y-116875451D01*
X113790605Y-116879178D01*
X113790609Y-116879185D01*
X113878210Y-117010288D01*
X113878213Y-117010292D01*
X113989707Y-117121786D01*
X113989711Y-117121789D01*
X114120814Y-117209390D01*
X114120827Y-117209397D01*
X114263304Y-117268412D01*
X114266503Y-117269737D01*
X114421153Y-117300499D01*
X114421156Y-117300500D01*
X114421158Y-117300500D01*
X114578844Y-117300500D01*
X114578845Y-117300499D01*
X114733497Y-117269737D01*
X114865186Y-117215190D01*
X114879172Y-117209397D01*
X114879172Y-117209396D01*
X114879179Y-117209394D01*
X115010289Y-117121789D01*
X115121789Y-117010289D01*
X115209394Y-116879179D01*
X115269737Y-116733497D01*
X115300500Y-116578842D01*
X115300500Y-116421158D01*
X115300500Y-116421155D01*
X115300499Y-116421153D01*
X115283303Y-116334704D01*
X115269737Y-116266503D01*
X115255274Y-116231585D01*
X115209397Y-116120827D01*
X115209390Y-116120814D01*
X115121789Y-115989711D01*
X115121786Y-115989707D01*
X115010292Y-115878213D01*
X115010288Y-115878210D01*
X114879185Y-115790609D01*
X114879172Y-115790602D01*
X114733501Y-115730264D01*
X114733489Y-115730261D01*
X114578845Y-115699500D01*
X114578842Y-115699500D01*
X114421158Y-115699500D01*
X114421157Y-115699500D01*
X114386164Y-115706460D01*
X114316573Y-115700231D01*
X114261396Y-115657367D01*
X114238153Y-115591477D01*
X114247414Y-115537389D01*
X114269737Y-115483497D01*
X114300500Y-115328842D01*
X114300500Y-115171158D01*
X114300500Y-115171155D01*
X114300499Y-115171153D01*
X114284581Y-115091128D01*
X114269737Y-115016503D01*
X114245321Y-114957557D01*
X114209397Y-114870827D01*
X114209390Y-114870814D01*
X114121789Y-114739711D01*
X114121786Y-114739707D01*
X114010292Y-114628213D01*
X114010288Y-114628210D01*
X113879185Y-114540609D01*
X113879172Y-114540602D01*
X113733501Y-114480264D01*
X113733489Y-114480261D01*
X113578845Y-114449500D01*
X113578842Y-114449500D01*
X113421158Y-114449500D01*
X113421155Y-114449500D01*
X113266510Y-114480261D01*
X113266498Y-114480264D01*
X113120827Y-114540602D01*
X113120814Y-114540609D01*
X112989711Y-114628210D01*
X112989707Y-114628213D01*
X112878213Y-114739707D01*
X112878210Y-114739711D01*
X112790609Y-114870814D01*
X112790602Y-114870827D01*
X112730264Y-115016498D01*
X112730261Y-115016510D01*
X112699500Y-115171153D01*
X112699500Y-115328846D01*
X112730261Y-115483489D01*
X112730264Y-115483501D01*
X112790602Y-115629172D01*
X112790609Y-115629185D01*
X112878210Y-115760288D01*
X112878213Y-115760292D01*
X112989707Y-115871786D01*
X112989711Y-115871789D01*
X113120814Y-115959390D01*
X113120827Y-115959397D01*
X113266498Y-116019735D01*
X113266503Y-116019737D01*
X113379326Y-116042179D01*
X113421153Y-116050499D01*
X113421156Y-116050500D01*
X113421158Y-116050500D01*
X113578843Y-116050500D01*
X113595939Y-116047099D01*
X113613831Y-116043540D01*
X113683423Y-116049767D01*
X113738601Y-116092629D01*
X113761846Y-116158518D01*
X113752586Y-116212607D01*
X113730264Y-116266499D01*
X113730261Y-116266510D01*
X113699500Y-116421153D01*
X113699500Y-116577097D01*
X113679815Y-116644136D01*
X113627011Y-116689891D01*
X113557853Y-116699835D01*
X113494297Y-116670810D01*
X113460940Y-116624552D01*
X113459396Y-116620826D01*
X113459390Y-116620814D01*
X113371789Y-116489711D01*
X113371786Y-116489707D01*
X113260292Y-116378213D01*
X113260288Y-116378210D01*
X113129185Y-116290609D01*
X113129172Y-116290602D01*
X112983501Y-116230264D01*
X112983489Y-116230261D01*
X112828845Y-116199500D01*
X112828842Y-116199500D01*
X112671158Y-116199500D01*
X112671155Y-116199500D01*
X112516510Y-116230261D01*
X112516498Y-116230264D01*
X112370827Y-116290602D01*
X112370814Y-116290609D01*
X112239711Y-116378210D01*
X112239707Y-116378213D01*
X112128213Y-116489707D01*
X112128210Y-116489711D01*
X112040609Y-116620814D01*
X112040602Y-116620827D01*
X111980264Y-116766498D01*
X111980261Y-116766510D01*
X111949500Y-116921153D01*
X109181348Y-116921153D01*
X109209394Y-116879179D01*
X109269737Y-116733497D01*
X109300500Y-116578842D01*
X109300500Y-116421158D01*
X109300500Y-116421155D01*
X109300499Y-116421153D01*
X109283303Y-116334704D01*
X109269737Y-116266503D01*
X109255274Y-116231585D01*
X109209397Y-116120827D01*
X109209390Y-116120814D01*
X109121789Y-115989711D01*
X109121786Y-115989707D01*
X109010292Y-115878213D01*
X109010288Y-115878210D01*
X108879185Y-115790609D01*
X108879172Y-115790602D01*
X108733501Y-115730264D01*
X108733489Y-115730261D01*
X108578845Y-115699500D01*
X108578842Y-115699500D01*
X108421158Y-115699500D01*
X108421155Y-115699500D01*
X108266510Y-115730261D01*
X108266498Y-115730264D01*
X108120827Y-115790602D01*
X108120814Y-115790609D01*
X107989711Y-115878210D01*
X107989707Y-115878213D01*
X107878213Y-115989707D01*
X107878210Y-115989711D01*
X107790609Y-116120814D01*
X107790602Y-116120827D01*
X107730264Y-116266498D01*
X107730261Y-116266510D01*
X107699500Y-116421153D01*
X95181347Y-116421153D01*
X95209394Y-116379179D01*
X95269737Y-116233497D01*
X95300500Y-116078842D01*
X95300500Y-115921158D01*
X95300500Y-115921155D01*
X95300499Y-115921153D01*
X95286287Y-115849705D01*
X95269737Y-115766503D01*
X95257136Y-115736081D01*
X95209397Y-115620827D01*
X95209390Y-115620814D01*
X95121789Y-115489711D01*
X95121786Y-115489707D01*
X95017562Y-115385483D01*
X101603763Y-115385483D01*
X101628761Y-115511150D01*
X101628763Y-115511156D01*
X101677797Y-115629536D01*
X101677802Y-115629545D01*
X101748987Y-115736080D01*
X101748990Y-115736084D01*
X101839591Y-115826685D01*
X101839595Y-115826688D01*
X101946130Y-115897873D01*
X101946136Y-115897876D01*
X101946137Y-115897877D01*
X102064520Y-115946913D01*
X102064524Y-115946913D01*
X102064525Y-115946914D01*
X102190192Y-115971912D01*
X102190195Y-115971912D01*
X102318335Y-115971912D01*
X102402879Y-115955094D01*
X102444008Y-115946913D01*
X102562391Y-115897877D01*
X102668933Y-115826688D01*
X102759540Y-115736081D01*
X102830729Y-115629539D01*
X102879765Y-115511156D01*
X102895361Y-115432754D01*
X102904764Y-115385483D01*
X102904764Y-115257340D01*
X102879766Y-115131673D01*
X102879765Y-115131672D01*
X102879765Y-115131668D01*
X102830729Y-115013285D01*
X102830728Y-115013284D01*
X102830725Y-115013278D01*
X102759540Y-114906743D01*
X102759537Y-114906739D01*
X102668936Y-114816138D01*
X102668932Y-114816135D01*
X102562397Y-114744950D01*
X102562388Y-114744945D01*
X102444008Y-114695911D01*
X102444002Y-114695909D01*
X102318335Y-114670912D01*
X102318333Y-114670912D01*
X102190195Y-114670912D01*
X102190193Y-114670912D01*
X102064525Y-114695909D01*
X102064519Y-114695911D01*
X101946139Y-114744945D01*
X101946130Y-114744950D01*
X101839595Y-114816135D01*
X101839591Y-114816138D01*
X101748990Y-114906739D01*
X101748987Y-114906743D01*
X101677802Y-115013278D01*
X101677797Y-115013287D01*
X101628763Y-115131667D01*
X101628761Y-115131673D01*
X101603764Y-115257340D01*
X101603764Y-115257343D01*
X101603764Y-115385481D01*
X101603764Y-115385483D01*
X101603763Y-115385483D01*
X95017562Y-115385483D01*
X95010292Y-115378213D01*
X95010288Y-115378210D01*
X94976577Y-115355685D01*
X94976570Y-115355681D01*
X94879179Y-115290606D01*
X94852541Y-115279572D01*
X94844189Y-115274447D01*
X94827069Y-115255501D01*
X94807186Y-115239478D01*
X94804035Y-115230010D01*
X94797345Y-115222607D01*
X94793185Y-115197411D01*
X94785122Y-115173184D01*
X94786454Y-115156638D01*
X94785964Y-115153670D01*
X94786860Y-115151594D01*
X94787426Y-115144568D01*
X94800500Y-115078842D01*
X94800500Y-114921158D01*
X94800500Y-114921155D01*
X94800499Y-114921153D01*
X94791692Y-114876876D01*
X94769737Y-114766503D01*
X94760808Y-114744947D01*
X94709397Y-114620827D01*
X94709390Y-114620814D01*
X94621789Y-114489711D01*
X94621786Y-114489707D01*
X94510292Y-114378213D01*
X94510288Y-114378210D01*
X94379185Y-114290609D01*
X94379179Y-114290606D01*
X94361589Y-114283320D01*
X94343079Y-114268403D01*
X94322120Y-114257192D01*
X94316375Y-114246883D01*
X94307186Y-114239478D01*
X94299679Y-114216924D01*
X94288108Y-114196160D01*
X94287915Y-114181576D01*
X94285122Y-114173184D01*
X94285287Y-114160978D01*
X94285806Y-114152708D01*
X94300500Y-114078842D01*
X94300500Y-113921158D01*
X94300397Y-113920640D01*
X94300744Y-113915121D01*
X94311397Y-113885790D01*
X94320185Y-113855863D01*
X94323223Y-113853229D01*
X94324597Y-113849449D01*
X94349417Y-113830532D01*
X94372989Y-113810108D01*
X94376968Y-113809535D01*
X94380167Y-113807098D01*
X94411267Y-113804604D01*
X94442147Y-113800164D01*
X94445804Y-113801834D01*
X94449814Y-113801513D01*
X94477324Y-113816229D01*
X94505703Y-113829189D01*
X94508309Y-113832803D01*
X94511423Y-113834469D01*
X94517929Y-113846145D01*
X94539062Y-113875451D01*
X94540605Y-113879178D01*
X94540609Y-113879185D01*
X94628210Y-114010288D01*
X94628213Y-114010292D01*
X94739707Y-114121786D01*
X94739711Y-114121789D01*
X94870814Y-114209390D01*
X94870827Y-114209397D01*
X94961328Y-114246883D01*
X95016503Y-114269737D01*
X95171153Y-114300499D01*
X95171156Y-114300500D01*
X95171158Y-114300500D01*
X95328844Y-114300500D01*
X95328845Y-114300499D01*
X95483497Y-114269737D01*
X95629179Y-114209394D01*
X95686411Y-114171153D01*
X105199500Y-114171153D01*
X105199500Y-114328846D01*
X105230261Y-114483489D01*
X105230264Y-114483501D01*
X105290602Y-114629172D01*
X105290609Y-114629185D01*
X105378210Y-114760288D01*
X105378213Y-114760292D01*
X105489707Y-114871786D01*
X105489711Y-114871789D01*
X105620814Y-114959390D01*
X105620827Y-114959397D01*
X105727361Y-115003524D01*
X105766503Y-115019737D01*
X105921153Y-115050499D01*
X105921156Y-115050500D01*
X105921158Y-115050500D01*
X106078844Y-115050500D01*
X106078845Y-115050499D01*
X106233497Y-115019737D01*
X106379179Y-114959394D01*
X106510289Y-114871789D01*
X106621789Y-114760289D01*
X106709394Y-114629179D01*
X106712854Y-114620827D01*
X106727004Y-114586664D01*
X106769737Y-114483497D01*
X106800500Y-114328842D01*
X106800500Y-114171158D01*
X106800500Y-114171155D01*
X106800499Y-114171153D01*
X109949500Y-114171153D01*
X109949500Y-114328846D01*
X109980261Y-114483489D01*
X109980264Y-114483501D01*
X110040602Y-114629172D01*
X110040609Y-114629185D01*
X110128210Y-114760288D01*
X110128213Y-114760292D01*
X110239707Y-114871786D01*
X110239711Y-114871789D01*
X110370814Y-114959390D01*
X110370827Y-114959397D01*
X110477361Y-115003524D01*
X110516503Y-115019737D01*
X110671153Y-115050499D01*
X110671156Y-115050500D01*
X110671158Y-115050500D01*
X110828844Y-115050500D01*
X110828845Y-115050499D01*
X110983497Y-115019737D01*
X111129179Y-114959394D01*
X111260289Y-114871789D01*
X111371789Y-114760289D01*
X111459394Y-114629179D01*
X111462854Y-114620827D01*
X111477004Y-114586664D01*
X111519737Y-114483497D01*
X111550500Y-114328842D01*
X111550500Y-114171158D01*
X111550500Y-114171155D01*
X111550499Y-114171153D01*
X111527962Y-114057853D01*
X111519737Y-114016503D01*
X111480789Y-113922473D01*
X111459397Y-113870827D01*
X111459390Y-113870814D01*
X111371789Y-113739711D01*
X111371786Y-113739707D01*
X111260292Y-113628213D01*
X111260288Y-113628210D01*
X111129185Y-113540609D01*
X111129172Y-113540602D01*
X110983501Y-113480264D01*
X110983489Y-113480261D01*
X110828845Y-113449500D01*
X110828842Y-113449500D01*
X110671158Y-113449500D01*
X110671155Y-113449500D01*
X110516510Y-113480261D01*
X110516498Y-113480264D01*
X110370827Y-113540602D01*
X110370814Y-113540609D01*
X110239711Y-113628210D01*
X110239707Y-113628213D01*
X110128213Y-113739707D01*
X110128210Y-113739711D01*
X110040609Y-113870814D01*
X110040602Y-113870827D01*
X109980264Y-114016498D01*
X109980261Y-114016510D01*
X109949500Y-114171153D01*
X106800499Y-114171153D01*
X106777962Y-114057853D01*
X106769737Y-114016503D01*
X106730789Y-113922473D01*
X106709397Y-113870827D01*
X106709390Y-113870814D01*
X106621789Y-113739711D01*
X106621786Y-113739707D01*
X106510292Y-113628213D01*
X106510288Y-113628210D01*
X106379185Y-113540609D01*
X106379172Y-113540602D01*
X106233501Y-113480264D01*
X106233489Y-113480261D01*
X106078845Y-113449500D01*
X106078842Y-113449500D01*
X105921158Y-113449500D01*
X105921155Y-113449500D01*
X105766510Y-113480261D01*
X105766498Y-113480264D01*
X105620827Y-113540602D01*
X105620814Y-113540609D01*
X105489711Y-113628210D01*
X105489707Y-113628213D01*
X105378213Y-113739707D01*
X105378210Y-113739711D01*
X105290609Y-113870814D01*
X105290602Y-113870827D01*
X105230264Y-114016498D01*
X105230261Y-114016510D01*
X105199500Y-114171153D01*
X95686411Y-114171153D01*
X95760289Y-114121789D01*
X95763506Y-114118572D01*
X95804694Y-114077385D01*
X95871786Y-114010292D01*
X95871789Y-114010289D01*
X95959394Y-113879179D01*
X95962854Y-113870827D01*
X95980100Y-113829189D01*
X96019737Y-113733497D01*
X96050500Y-113578842D01*
X96050500Y-113421158D01*
X96050500Y-113421155D01*
X96050499Y-113421153D01*
X96033032Y-113333342D01*
X96019737Y-113266503D01*
X96006062Y-113233489D01*
X95959397Y-113120827D01*
X95959390Y-113120814D01*
X95871789Y-112989711D01*
X95871786Y-112989707D01*
X95760292Y-112878213D01*
X95760288Y-112878210D01*
X95629185Y-112790609D01*
X95629172Y-112790602D01*
X95483501Y-112730264D01*
X95483489Y-112730261D01*
X95328845Y-112699500D01*
X95328842Y-112699500D01*
X95171158Y-112699500D01*
X95171155Y-112699500D01*
X95016510Y-112730261D01*
X95016498Y-112730264D01*
X94870827Y-112790602D01*
X94870814Y-112790609D01*
X94739711Y-112878210D01*
X94739707Y-112878213D01*
X94628213Y-112989707D01*
X94628210Y-112989711D01*
X94540609Y-113120814D01*
X94540603Y-113120826D01*
X94539060Y-113124552D01*
X94495218Y-113178954D01*
X94428924Y-113201018D01*
X94361225Y-113183738D01*
X94313615Y-113132599D01*
X94300500Y-113077097D01*
X94300500Y-112921155D01*
X94300499Y-112921153D01*
X94296668Y-112901895D01*
X94269737Y-112766503D01*
X94266486Y-112758655D01*
X94209396Y-112620825D01*
X94209394Y-112620822D01*
X94209394Y-112620821D01*
X94174694Y-112568889D01*
X94153816Y-112502215D01*
X94172300Y-112434835D01*
X94174676Y-112431136D01*
X94209394Y-112379179D01*
X94269737Y-112233497D01*
X94300500Y-112078842D01*
X94300500Y-111921158D01*
X94300500Y-111921155D01*
X94300499Y-111921153D01*
X95949500Y-111921153D01*
X95949500Y-112078846D01*
X95980261Y-112233489D01*
X95980264Y-112233501D01*
X96040602Y-112379172D01*
X96040609Y-112379185D01*
X96128210Y-112510288D01*
X96128213Y-112510292D01*
X96239707Y-112621786D01*
X96239711Y-112621789D01*
X96370814Y-112709390D01*
X96370827Y-112709397D01*
X96489748Y-112758655D01*
X96516503Y-112769737D01*
X96671153Y-112800499D01*
X96671156Y-112800500D01*
X96671158Y-112800500D01*
X96828844Y-112800500D01*
X96828845Y-112800499D01*
X96983497Y-112769737D01*
X97129179Y-112709394D01*
X97260289Y-112621789D01*
X97371789Y-112510289D01*
X97459394Y-112379179D01*
X97519737Y-112233497D01*
X97550500Y-112078842D01*
X97550500Y-111970418D01*
X98013688Y-111970418D01*
X98013688Y-112128111D01*
X98044449Y-112282754D01*
X98044452Y-112282766D01*
X98104790Y-112428437D01*
X98104797Y-112428450D01*
X98192398Y-112559553D01*
X98192401Y-112559557D01*
X98303895Y-112671051D01*
X98303899Y-112671054D01*
X98435002Y-112758655D01*
X98435015Y-112758662D01*
X98580686Y-112819000D01*
X98580691Y-112819002D01*
X98735341Y-112849764D01*
X98735344Y-112849765D01*
X98735346Y-112849765D01*
X98893032Y-112849765D01*
X98893033Y-112849764D01*
X99047685Y-112819002D01*
X99193367Y-112758659D01*
X99324477Y-112671054D01*
X99435977Y-112559554D01*
X99523582Y-112428444D01*
X99527969Y-112417854D01*
X99547050Y-112371786D01*
X99583925Y-112282762D01*
X99614688Y-112128107D01*
X99614688Y-111970423D01*
X99614688Y-111970420D01*
X99614687Y-111970418D01*
X99613965Y-111966786D01*
X99583925Y-111815768D01*
X99559015Y-111755629D01*
X99523585Y-111670092D01*
X99523578Y-111670079D01*
X99435977Y-111538976D01*
X99435974Y-111538972D01*
X99324480Y-111427478D01*
X99324476Y-111427475D01*
X99193373Y-111339874D01*
X99193360Y-111339867D01*
X99047689Y-111279529D01*
X99047677Y-111279526D01*
X98893033Y-111248765D01*
X98893030Y-111248765D01*
X98735346Y-111248765D01*
X98735343Y-111248765D01*
X98580698Y-111279526D01*
X98580686Y-111279529D01*
X98435015Y-111339867D01*
X98435002Y-111339874D01*
X98303899Y-111427475D01*
X98303895Y-111427478D01*
X98192401Y-111538972D01*
X98192398Y-111538976D01*
X98104797Y-111670079D01*
X98104790Y-111670092D01*
X98044452Y-111815763D01*
X98044449Y-111815775D01*
X98013688Y-111970418D01*
X97550500Y-111970418D01*
X97550500Y-111921158D01*
X97550500Y-111921155D01*
X97550499Y-111921153D01*
X97532137Y-111828842D01*
X97519737Y-111766503D01*
X97514096Y-111752885D01*
X97459397Y-111620827D01*
X97459390Y-111620814D01*
X97371789Y-111489711D01*
X97371786Y-111489707D01*
X97260292Y-111378213D01*
X97260288Y-111378210D01*
X97129185Y-111290609D01*
X97129172Y-111290602D01*
X96983501Y-111230264D01*
X96983489Y-111230261D01*
X96828845Y-111199500D01*
X96828842Y-111199500D01*
X96671158Y-111199500D01*
X96671155Y-111199500D01*
X96516510Y-111230261D01*
X96516498Y-111230264D01*
X96370827Y-111290602D01*
X96370814Y-111290609D01*
X96239711Y-111378210D01*
X96239707Y-111378213D01*
X96128213Y-111489707D01*
X96128210Y-111489711D01*
X96040609Y-111620814D01*
X96040602Y-111620827D01*
X95980264Y-111766498D01*
X95980261Y-111766510D01*
X95949500Y-111921153D01*
X94300499Y-111921153D01*
X94282137Y-111828842D01*
X94269737Y-111766503D01*
X94264096Y-111752885D01*
X94209396Y-111620825D01*
X94209394Y-111620822D01*
X94209394Y-111620821D01*
X94174694Y-111568889D01*
X94153816Y-111502215D01*
X94172300Y-111434835D01*
X94174676Y-111431136D01*
X94209394Y-111379179D01*
X94269737Y-111233497D01*
X94300500Y-111078842D01*
X94300500Y-110921158D01*
X94300500Y-110921155D01*
X94300499Y-110921153D01*
X94279955Y-110817872D01*
X94269737Y-110766503D01*
X94246080Y-110709390D01*
X94209397Y-110620827D01*
X94209390Y-110620814D01*
X94121789Y-110489711D01*
X94121786Y-110489707D01*
X94010292Y-110378213D01*
X94010288Y-110378210D01*
X93879185Y-110290609D01*
X93879172Y-110290602D01*
X93733501Y-110230264D01*
X93733489Y-110230261D01*
X93578845Y-110199500D01*
X93578842Y-110199500D01*
X93421158Y-110199500D01*
X93421155Y-110199500D01*
X93266510Y-110230261D01*
X93266498Y-110230264D01*
X93120827Y-110290602D01*
X93120814Y-110290609D01*
X92989711Y-110378210D01*
X92989707Y-110378213D01*
X92878213Y-110489707D01*
X92878210Y-110489711D01*
X92790609Y-110620814D01*
X92790602Y-110620827D01*
X92730264Y-110766498D01*
X92730261Y-110766510D01*
X92699500Y-110921153D01*
X92699500Y-111078846D01*
X92730261Y-111233489D01*
X92730264Y-111233501D01*
X92790602Y-111379172D01*
X92790609Y-111379185D01*
X92825304Y-111431109D01*
X92846182Y-111497786D01*
X92827698Y-111565167D01*
X92825304Y-111568891D01*
X92790609Y-111620814D01*
X92790602Y-111620827D01*
X92730264Y-111766498D01*
X92730261Y-111766510D01*
X92699500Y-111921153D01*
X92699500Y-112078846D01*
X92730261Y-112233489D01*
X92730264Y-112233501D01*
X92790602Y-112379172D01*
X92790609Y-112379185D01*
X92825304Y-112431109D01*
X92846182Y-112497786D01*
X92827698Y-112565167D01*
X92825304Y-112568891D01*
X92790609Y-112620814D01*
X92790602Y-112620827D01*
X92730264Y-112766498D01*
X92730261Y-112766510D01*
X92699500Y-112921153D01*
X92699500Y-113078846D01*
X92730261Y-113233489D01*
X92730264Y-113233501D01*
X92790602Y-113379172D01*
X92790609Y-113379185D01*
X92825304Y-113431109D01*
X92846182Y-113497786D01*
X92827698Y-113565167D01*
X92825304Y-113568891D01*
X92790609Y-113620814D01*
X92790602Y-113620827D01*
X92730264Y-113766498D01*
X92730261Y-113766510D01*
X92699500Y-113921153D01*
X92699500Y-114078846D01*
X92730261Y-114233489D01*
X92730264Y-114233501D01*
X92790602Y-114379172D01*
X92790609Y-114379185D01*
X92878210Y-114510288D01*
X92878213Y-114510292D01*
X92989707Y-114621786D01*
X92989711Y-114621789D01*
X93120817Y-114709392D01*
X93120819Y-114709393D01*
X93120821Y-114709394D01*
X93138409Y-114716679D01*
X93192812Y-114760520D01*
X93214877Y-114826814D01*
X93212573Y-114855431D01*
X93199500Y-114921153D01*
X93199500Y-115078846D01*
X93230261Y-115233489D01*
X93230264Y-115233501D01*
X93290602Y-115379172D01*
X93290609Y-115379185D01*
X93378210Y-115510288D01*
X93378213Y-115510292D01*
X93489707Y-115621786D01*
X93489711Y-115621789D01*
X93620817Y-115709392D01*
X93620819Y-115709393D01*
X93620821Y-115709394D01*
X93638402Y-115716676D01*
X93638409Y-115716679D01*
X93692812Y-115760520D01*
X93714877Y-115826814D01*
X93712573Y-115855431D01*
X93699500Y-115921153D01*
X93699500Y-116078846D01*
X93730261Y-116233489D01*
X93730264Y-116233501D01*
X93790602Y-116379172D01*
X93790609Y-116379185D01*
X93825304Y-116431109D01*
X93828909Y-116442623D01*
X93836528Y-116451983D01*
X93839156Y-116475349D01*
X93846182Y-116497786D01*
X93843184Y-116511150D01*
X93844339Y-116521414D01*
X93836491Y-116540986D01*
X93833358Y-116554957D01*
X93829781Y-116562190D01*
X93790606Y-116620821D01*
X93737986Y-116747856D01*
X93736156Y-116751559D01*
X93715156Y-116774337D01*
X93695720Y-116798458D01*
X93691682Y-116799801D01*
X93688799Y-116802930D01*
X93658822Y-116810738D01*
X93629426Y-116820523D01*
X93625302Y-116819470D01*
X93621186Y-116820543D01*
X93591746Y-116810905D01*
X93561727Y-116803244D01*
X93558827Y-116800130D01*
X93554783Y-116798806D01*
X93535224Y-116774778D01*
X93514116Y-116752107D01*
X93510726Y-116744683D01*
X93510674Y-116744619D01*
X93510666Y-116744552D01*
X93510439Y-116744054D01*
X93459397Y-116620827D01*
X93459390Y-116620814D01*
X93371789Y-116489711D01*
X93371786Y-116489707D01*
X93260292Y-116378213D01*
X93260288Y-116378210D01*
X93129185Y-116290609D01*
X93129172Y-116290602D01*
X92983501Y-116230264D01*
X92983489Y-116230261D01*
X92828845Y-116199500D01*
X92828842Y-116199500D01*
X92671158Y-116199500D01*
X92671155Y-116199500D01*
X92516510Y-116230261D01*
X92516498Y-116230264D01*
X92370827Y-116290602D01*
X92370814Y-116290609D01*
X92239711Y-116378210D01*
X92239707Y-116378213D01*
X92128213Y-116489707D01*
X92128210Y-116489711D01*
X92040609Y-116620814D01*
X92040602Y-116620827D01*
X91980264Y-116766498D01*
X91980261Y-116766510D01*
X91949500Y-116921153D01*
X91949500Y-117078846D01*
X91980261Y-117233489D01*
X91980264Y-117233501D01*
X92040602Y-117379172D01*
X92040609Y-117379185D01*
X92128210Y-117510288D01*
X92128213Y-117510292D01*
X92239707Y-117621786D01*
X92239711Y-117621789D01*
X92370814Y-117709390D01*
X92370827Y-117709397D01*
X92508683Y-117766498D01*
X92516503Y-117769737D01*
X92671153Y-117800499D01*
X92671156Y-117800500D01*
X92671158Y-117800500D01*
X92828844Y-117800500D01*
X92828845Y-117800499D01*
X92983497Y-117769737D01*
X93129179Y-117709394D01*
X93260289Y-117621789D01*
X93371789Y-117510289D01*
X93459394Y-117379179D01*
X93510439Y-117255945D01*
X93521813Y-117241829D01*
X93528834Y-117225115D01*
X93543280Y-117215190D01*
X93554279Y-117201541D01*
X93571481Y-117195815D01*
X93586422Y-117185551D01*
X93603940Y-117185011D01*
X93620573Y-117179476D01*
X93638139Y-117183959D01*
X93656259Y-117183402D01*
X93671288Y-117192420D01*
X93688273Y-117196755D01*
X93700625Y-117210022D01*
X93716171Y-117219350D01*
X93731194Y-117242855D01*
X93735884Y-117247892D01*
X93736157Y-117248440D01*
X93737979Y-117252125D01*
X93790606Y-117379179D01*
X93829785Y-117437815D01*
X93833359Y-117445043D01*
X93838056Y-117471836D01*
X93846182Y-117497786D01*
X93844000Y-117505738D01*
X93845425Y-117513863D01*
X93834893Y-117538937D01*
X93827698Y-117565167D01*
X93825304Y-117568891D01*
X93790609Y-117620814D01*
X93790602Y-117620827D01*
X93730264Y-117766498D01*
X93730261Y-117766510D01*
X93699500Y-117921153D01*
X93699500Y-118078846D01*
X93730261Y-118233489D01*
X93730264Y-118233501D01*
X93790602Y-118379172D01*
X93790609Y-118379185D01*
X93825304Y-118431109D01*
X93846182Y-118497786D01*
X93827698Y-118565167D01*
X93825304Y-118568891D01*
X93790609Y-118620814D01*
X93790602Y-118620827D01*
X93730264Y-118766498D01*
X93730261Y-118766510D01*
X93699500Y-118921153D01*
X93699500Y-119078846D01*
X93730261Y-119233489D01*
X93730264Y-119233501D01*
X93790602Y-119379172D01*
X93790609Y-119379185D01*
X93825304Y-119431109D01*
X93846182Y-119497786D01*
X93827698Y-119565167D01*
X93825304Y-119568891D01*
X93790609Y-119620814D01*
X93790602Y-119620827D01*
X93730264Y-119766498D01*
X93730261Y-119766510D01*
X93699500Y-119921153D01*
X93699500Y-120075500D01*
X93679815Y-120142539D01*
X93627011Y-120188294D01*
X93575500Y-120199500D01*
X93421155Y-120199500D01*
X93266510Y-120230261D01*
X93266498Y-120230264D01*
X93120827Y-120290602D01*
X93120814Y-120290609D01*
X93068891Y-120325304D01*
X93002214Y-120346182D01*
X92934833Y-120327698D01*
X92931109Y-120325304D01*
X92879185Y-120290609D01*
X92879172Y-120290602D01*
X92733501Y-120230264D01*
X92733489Y-120230261D01*
X92578845Y-120199500D01*
X92578842Y-120199500D01*
X92424500Y-120199500D01*
X92357461Y-120179815D01*
X92311706Y-120127011D01*
X92300500Y-120075500D01*
X92300500Y-119921155D01*
X92300499Y-119921153D01*
X92291142Y-119874114D01*
X92269737Y-119766503D01*
X92234679Y-119681865D01*
X92209397Y-119620827D01*
X92209390Y-119620814D01*
X92121789Y-119489711D01*
X92121786Y-119489707D01*
X92010292Y-119378213D01*
X92010288Y-119378210D01*
X91879185Y-119290609D01*
X91879172Y-119290602D01*
X91733501Y-119230264D01*
X91733489Y-119230261D01*
X91578845Y-119199500D01*
X91578842Y-119199500D01*
X91421158Y-119199500D01*
X91421153Y-119199500D01*
X91355431Y-119212573D01*
X91285839Y-119206346D01*
X91230662Y-119163482D01*
X91216679Y-119138409D01*
X91209795Y-119121789D01*
X91209394Y-119120821D01*
X91209393Y-119120819D01*
X91209392Y-119120817D01*
X91121789Y-118989711D01*
X91121786Y-118989707D01*
X91010292Y-118878213D01*
X91010288Y-118878210D01*
X90879185Y-118790609D01*
X90879172Y-118790602D01*
X90733501Y-118730264D01*
X90733489Y-118730261D01*
X90578845Y-118699500D01*
X90578842Y-118699500D01*
X90421158Y-118699500D01*
X90421155Y-118699500D01*
X90266510Y-118730261D01*
X90266498Y-118730264D01*
X90120827Y-118790602D01*
X90120814Y-118790609D01*
X89989711Y-118878210D01*
X89894655Y-118973266D01*
X89833331Y-119006750D01*
X89763640Y-119001766D01*
X89707707Y-118959894D01*
X89689045Y-118923906D01*
X89626557Y-118731588D01*
X89530051Y-118542184D01*
X89530049Y-118542181D01*
X89530048Y-118542179D01*
X89405109Y-118370213D01*
X89254792Y-118219896D01*
X89226719Y-118199500D01*
X89090204Y-118100316D01*
X89047540Y-118044989D01*
X89041561Y-117975376D01*
X89074166Y-117913580D01*
X89090199Y-117899686D01*
X89254792Y-117780104D01*
X89405104Y-117629792D01*
X89405106Y-117629788D01*
X89405109Y-117629786D01*
X89530048Y-117457820D01*
X89530047Y-117457820D01*
X89530051Y-117457816D01*
X89626557Y-117268412D01*
X89692246Y-117066243D01*
X89725500Y-116856287D01*
X89725500Y-116656941D01*
X89745185Y-116589902D01*
X89797989Y-116544147D01*
X89867147Y-116534203D01*
X89930703Y-116563228D01*
X89937181Y-116569260D01*
X89989707Y-116621786D01*
X89989711Y-116621789D01*
X90120814Y-116709390D01*
X90120827Y-116709397D01*
X90222617Y-116751559D01*
X90266503Y-116769737D01*
X90410892Y-116798458D01*
X90421153Y-116800499D01*
X90421156Y-116800500D01*
X90421158Y-116800500D01*
X90578844Y-116800500D01*
X90578845Y-116800499D01*
X90733497Y-116769737D01*
X90879179Y-116709394D01*
X91010289Y-116621789D01*
X91121789Y-116510289D01*
X91209394Y-116379179D01*
X91269737Y-116233497D01*
X91300500Y-116078842D01*
X91300500Y-115921158D01*
X91300500Y-115921155D01*
X91287426Y-115855431D01*
X91293653Y-115785840D01*
X91336515Y-115730662D01*
X91361589Y-115716679D01*
X91379179Y-115709394D01*
X91510289Y-115621789D01*
X91621789Y-115510289D01*
X91709394Y-115379179D01*
X91769737Y-115233497D01*
X91800500Y-115078842D01*
X91800500Y-114921158D01*
X91800500Y-114921155D01*
X91800499Y-114921153D01*
X91791692Y-114876876D01*
X91769737Y-114766503D01*
X91760808Y-114744947D01*
X91709396Y-114620825D01*
X91709394Y-114620822D01*
X91709394Y-114620821D01*
X91674694Y-114568889D01*
X91653816Y-114502215D01*
X91672300Y-114434835D01*
X91674676Y-114431136D01*
X91709394Y-114379179D01*
X91769737Y-114233497D01*
X91800500Y-114078842D01*
X91800500Y-113921158D01*
X91800500Y-113921155D01*
X91800499Y-113921153D01*
X91792150Y-113879179D01*
X91769737Y-113766503D01*
X91769735Y-113766498D01*
X91709396Y-113620825D01*
X91709394Y-113620822D01*
X91709394Y-113620821D01*
X91674694Y-113568889D01*
X91653816Y-113502215D01*
X91672300Y-113434835D01*
X91674676Y-113431136D01*
X91709394Y-113379179D01*
X91769737Y-113233497D01*
X91800500Y-113078842D01*
X91800500Y-112921158D01*
X91800500Y-112921155D01*
X91800499Y-112921153D01*
X91796668Y-112901895D01*
X91769737Y-112766503D01*
X91766486Y-112758655D01*
X91709396Y-112620825D01*
X91709394Y-112620822D01*
X91709394Y-112620821D01*
X91674694Y-112568889D01*
X91653816Y-112502215D01*
X91672300Y-112434835D01*
X91674676Y-112431136D01*
X91709394Y-112379179D01*
X91769737Y-112233497D01*
X91800500Y-112078842D01*
X91800500Y-111921158D01*
X91800500Y-111921155D01*
X91800499Y-111921153D01*
X91782137Y-111828842D01*
X91769737Y-111766503D01*
X91764096Y-111752885D01*
X91709397Y-111620827D01*
X91709390Y-111620814D01*
X91621789Y-111489711D01*
X91621786Y-111489707D01*
X91510292Y-111378213D01*
X91510288Y-111378210D01*
X91379185Y-111290609D01*
X91379172Y-111290602D01*
X91233501Y-111230264D01*
X91233489Y-111230261D01*
X91078845Y-111199500D01*
X91078842Y-111199500D01*
X90921158Y-111199500D01*
X90921153Y-111199500D01*
X90855431Y-111212573D01*
X90785839Y-111206346D01*
X90730662Y-111163482D01*
X90716679Y-111138409D01*
X90712455Y-111128211D01*
X90709394Y-111120821D01*
X90709393Y-111120819D01*
X90709392Y-111120817D01*
X90621789Y-110989711D01*
X90621786Y-110989707D01*
X90510292Y-110878213D01*
X90510288Y-110878210D01*
X90379185Y-110790609D01*
X90379179Y-110790606D01*
X90361589Y-110783320D01*
X90307186Y-110739478D01*
X90285122Y-110673184D01*
X90287425Y-110644571D01*
X90300500Y-110578842D01*
X90300500Y-110421158D01*
X90300500Y-110421155D01*
X90300499Y-110421153D01*
X90283847Y-110337438D01*
X90269737Y-110266503D01*
X90269735Y-110266498D01*
X90209396Y-110120825D01*
X90209394Y-110120822D01*
X90209394Y-110120821D01*
X90174694Y-110068889D01*
X90153816Y-110002215D01*
X90172300Y-109934835D01*
X90174676Y-109931136D01*
X90209394Y-109879179D01*
X90269737Y-109733497D01*
X90300500Y-109578842D01*
X90300500Y-109421158D01*
X90300500Y-109421155D01*
X90300499Y-109421153D01*
X100949500Y-109421153D01*
X100949500Y-109578846D01*
X100980261Y-109733489D01*
X100980264Y-109733501D01*
X101040602Y-109879172D01*
X101040609Y-109879185D01*
X101128210Y-110010288D01*
X101128213Y-110010292D01*
X101239710Y-110121789D01*
X101370819Y-110209393D01*
X101374593Y-110211410D01*
X101424438Y-110260372D01*
X101439899Y-110328510D01*
X101439545Y-110332915D01*
X101439100Y-110337436D01*
X101439100Y-110495126D01*
X101469861Y-110649769D01*
X101469864Y-110649781D01*
X101530202Y-110795452D01*
X101530209Y-110795465D01*
X101617810Y-110926568D01*
X101617813Y-110926572D01*
X101729307Y-111038066D01*
X101729311Y-111038069D01*
X101860414Y-111125670D01*
X101860427Y-111125677D01*
X102006098Y-111186015D01*
X102006103Y-111186017D01*
X102139608Y-111212573D01*
X102160753Y-111216779D01*
X102160756Y-111216780D01*
X102160758Y-111216780D01*
X102318444Y-111216780D01*
X102318445Y-111216779D01*
X102473097Y-111186017D01*
X102618779Y-111125674D01*
X102749889Y-111038069D01*
X102861389Y-110926569D01*
X102948994Y-110795459D01*
X103009337Y-110649777D01*
X103040100Y-110495122D01*
X103040100Y-110337438D01*
X103040100Y-110337436D01*
X103040100Y-110337435D01*
X103040099Y-110337433D01*
X103038182Y-110327797D01*
X103009337Y-110182783D01*
X102987131Y-110129172D01*
X102948997Y-110037107D01*
X102948990Y-110037094D01*
X102861389Y-109905991D01*
X102861386Y-109905987D01*
X102749892Y-109794493D01*
X102749888Y-109794490D01*
X102710927Y-109768456D01*
X102710806Y-109768376D01*
X102618779Y-109706886D01*
X102614394Y-109705069D01*
X102605397Y-109699162D01*
X102586254Y-109676626D01*
X102580682Y-109671153D01*
X106199500Y-109671153D01*
X106199500Y-109828846D01*
X106230261Y-109983489D01*
X106230264Y-109983501D01*
X106290602Y-110129172D01*
X106290609Y-110129185D01*
X106378210Y-110260288D01*
X106378213Y-110260292D01*
X106489707Y-110371786D01*
X106489711Y-110371789D01*
X106620814Y-110459390D01*
X106620827Y-110459397D01*
X106766498Y-110519735D01*
X106766503Y-110519737D01*
X106883413Y-110542992D01*
X106921153Y-110550499D01*
X106921156Y-110550500D01*
X106921158Y-110550500D01*
X107078844Y-110550500D01*
X107078845Y-110550499D01*
X107233497Y-110519737D01*
X107379179Y-110459394D01*
X107510289Y-110371789D01*
X107575115Y-110306962D01*
X107636436Y-110273479D01*
X107706128Y-110278463D01*
X107762062Y-110320334D01*
X107777356Y-110347191D01*
X107790606Y-110379179D01*
X107790609Y-110379185D01*
X107878210Y-110510288D01*
X107878213Y-110510292D01*
X107989707Y-110621786D01*
X107989711Y-110621789D01*
X108120814Y-110709390D01*
X108120827Y-110709397D01*
X108244054Y-110760439D01*
X108298458Y-110804280D01*
X108320523Y-110870574D01*
X108303244Y-110938273D01*
X108252107Y-110985884D01*
X108244054Y-110989561D01*
X108120827Y-111040602D01*
X108120814Y-111040609D01*
X107989711Y-111128210D01*
X107989707Y-111128213D01*
X107878213Y-111239707D01*
X107878210Y-111239711D01*
X107790609Y-111370814D01*
X107790602Y-111370827D01*
X107730264Y-111516498D01*
X107730261Y-111516510D01*
X107699500Y-111671153D01*
X107699500Y-111828846D01*
X107730261Y-111983489D01*
X107730264Y-111983501D01*
X107790602Y-112129172D01*
X107790609Y-112129185D01*
X107878210Y-112260288D01*
X107878213Y-112260292D01*
X107989707Y-112371786D01*
X107989711Y-112371789D01*
X108120814Y-112459390D01*
X108120827Y-112459397D01*
X108266498Y-112519735D01*
X108266503Y-112519737D01*
X108421153Y-112550499D01*
X108421156Y-112550500D01*
X108421158Y-112550500D01*
X108578844Y-112550500D01*
X108578845Y-112550499D01*
X108733497Y-112519737D01*
X108879179Y-112459394D01*
X109010289Y-112371789D01*
X109121789Y-112260289D01*
X109209394Y-112129179D01*
X109269737Y-111983497D01*
X109300500Y-111828842D01*
X109300500Y-111671158D01*
X109300500Y-111671155D01*
X109300499Y-111671153D01*
X109285996Y-111598242D01*
X109269737Y-111516503D01*
X109261984Y-111497786D01*
X109209397Y-111370827D01*
X109209390Y-111370814D01*
X109121789Y-111239711D01*
X109121786Y-111239707D01*
X109010292Y-111128213D01*
X109010288Y-111128210D01*
X108879185Y-111040609D01*
X108879172Y-111040602D01*
X108755945Y-110989561D01*
X108701541Y-110945721D01*
X108679476Y-110879427D01*
X108696755Y-110811727D01*
X108747892Y-110764116D01*
X108755945Y-110760439D01*
X108879172Y-110709397D01*
X108879172Y-110709396D01*
X108879179Y-110709394D01*
X109010289Y-110621789D01*
X109055600Y-110576478D01*
X109116923Y-110542992D01*
X109186614Y-110547976D01*
X109230963Y-110576477D01*
X109342223Y-110687737D01*
X109342227Y-110687740D01*
X109473330Y-110775341D01*
X109473343Y-110775348D01*
X109619014Y-110835686D01*
X109619019Y-110835688D01*
X109773669Y-110866450D01*
X109773672Y-110866451D01*
X109773674Y-110866451D01*
X109931360Y-110866451D01*
X109931361Y-110866450D01*
X110086013Y-110835688D01*
X110231695Y-110775345D01*
X110244918Y-110766510D01*
X110362802Y-110687742D01*
X110362801Y-110687742D01*
X110362805Y-110687740D01*
X110362807Y-110687737D01*
X110367509Y-110683879D01*
X110368701Y-110685331D01*
X110422326Y-110656037D01*
X110492019Y-110661008D01*
X110529107Y-110684843D01*
X110529902Y-110683875D01*
X110534612Y-110687740D01*
X110665715Y-110775341D01*
X110665728Y-110775348D01*
X110811399Y-110835686D01*
X110811404Y-110835688D01*
X110966054Y-110866450D01*
X110966057Y-110866451D01*
X110966059Y-110866451D01*
X111123745Y-110866451D01*
X111123746Y-110866450D01*
X111278398Y-110835688D01*
X111424080Y-110775345D01*
X111555190Y-110687740D01*
X111666690Y-110576240D01*
X111754295Y-110445130D01*
X111814638Y-110299448D01*
X111845401Y-110144793D01*
X111845401Y-109987109D01*
X111845401Y-109987106D01*
X111845400Y-109987104D01*
X111834262Y-109931109D01*
X111814638Y-109832454D01*
X111798914Y-109794493D01*
X111754298Y-109686778D01*
X111754291Y-109686765D01*
X111666690Y-109555662D01*
X111666687Y-109555658D01*
X111555193Y-109444164D01*
X111555189Y-109444161D01*
X111424086Y-109356560D01*
X111424073Y-109356553D01*
X111313709Y-109310840D01*
X111259305Y-109267000D01*
X111237240Y-109200706D01*
X111254519Y-109133006D01*
X111273476Y-109108601D01*
X111371789Y-109010289D01*
X111459394Y-108879179D01*
X111519737Y-108733497D01*
X111550500Y-108578842D01*
X111550500Y-108421158D01*
X111550500Y-108421155D01*
X111550499Y-108421153D01*
X111537288Y-108354738D01*
X111519737Y-108266503D01*
X111510102Y-108243241D01*
X111459397Y-108120827D01*
X111459390Y-108120814D01*
X111371789Y-107989711D01*
X111371786Y-107989707D01*
X111260292Y-107878213D01*
X111260288Y-107878210D01*
X111129185Y-107790609D01*
X111129172Y-107790602D01*
X110983501Y-107730264D01*
X110983489Y-107730261D01*
X110828845Y-107699500D01*
X110828842Y-107699500D01*
X110671158Y-107699500D01*
X110671155Y-107699500D01*
X110516510Y-107730261D01*
X110516507Y-107730262D01*
X110516506Y-107730262D01*
X110516503Y-107730263D01*
X110448248Y-107758535D01*
X110417193Y-107771398D01*
X110347723Y-107778866D01*
X110285244Y-107747590D01*
X110249592Y-107687501D01*
X110252087Y-107617676D01*
X110282061Y-107569154D01*
X110318441Y-107532774D01*
X110318444Y-107532771D01*
X110406049Y-107401661D01*
X110410605Y-107390663D01*
X110459599Y-107272379D01*
X110466392Y-107255979D01*
X110497155Y-107101324D01*
X110497155Y-106943640D01*
X110497155Y-106943637D01*
X110497154Y-106943635D01*
X110471440Y-106814362D01*
X110466392Y-106788985D01*
X110466390Y-106788980D01*
X110406052Y-106643309D01*
X110406045Y-106643296D01*
X110318444Y-106512193D01*
X110318441Y-106512189D01*
X110206947Y-106400695D01*
X110206943Y-106400692D01*
X110075840Y-106313091D01*
X110075827Y-106313084D01*
X109930156Y-106252746D01*
X109930144Y-106252743D01*
X109775500Y-106221982D01*
X109775497Y-106221982D01*
X109617813Y-106221982D01*
X109617810Y-106221982D01*
X109463165Y-106252743D01*
X109463153Y-106252746D01*
X109317482Y-106313084D01*
X109317469Y-106313091D01*
X109186366Y-106400692D01*
X109186362Y-106400695D01*
X109074868Y-106512189D01*
X109074865Y-106512193D01*
X108987264Y-106643296D01*
X108987257Y-106643309D01*
X108926919Y-106788980D01*
X108926916Y-106788992D01*
X108896155Y-106943635D01*
X108896155Y-107101328D01*
X108926916Y-107255971D01*
X108926919Y-107255983D01*
X108987257Y-107401654D01*
X108987264Y-107401667D01*
X109074865Y-107532770D01*
X109074868Y-107532774D01*
X109186362Y-107644268D01*
X109186366Y-107644271D01*
X109317469Y-107731872D01*
X109317482Y-107731879D01*
X109459264Y-107790606D01*
X109463158Y-107792219D01*
X109561573Y-107811795D01*
X109617808Y-107822981D01*
X109617811Y-107822982D01*
X109617813Y-107822982D01*
X109775499Y-107822982D01*
X109775500Y-107822981D01*
X109930152Y-107792219D01*
X110029461Y-107751083D01*
X110098930Y-107743615D01*
X110161409Y-107774890D01*
X110197061Y-107834979D01*
X110194567Y-107904804D01*
X110164595Y-107953325D01*
X110128214Y-107989706D01*
X110128210Y-107989711D01*
X110040609Y-108120814D01*
X110040602Y-108120827D01*
X109980264Y-108266498D01*
X109980261Y-108266510D01*
X109949500Y-108421153D01*
X109949500Y-108578846D01*
X109980261Y-108733489D01*
X109980264Y-108733501D01*
X110040602Y-108879172D01*
X110040609Y-108879185D01*
X110128210Y-109010288D01*
X110128213Y-109010292D01*
X110206967Y-109089046D01*
X110240452Y-109150369D01*
X110235468Y-109220061D01*
X110193596Y-109275994D01*
X110128132Y-109300411D01*
X110092189Y-109296387D01*
X110091988Y-109297402D01*
X109931361Y-109265451D01*
X109931358Y-109265451D01*
X109773674Y-109265451D01*
X109773671Y-109265451D01*
X109619026Y-109296212D01*
X109619014Y-109296215D01*
X109473343Y-109356553D01*
X109473330Y-109356560D01*
X109342227Y-109444161D01*
X109342222Y-109444165D01*
X109296913Y-109489474D01*
X109235590Y-109522958D01*
X109165898Y-109517973D01*
X109121552Y-109489473D01*
X109010292Y-109378213D01*
X109010288Y-109378210D01*
X108879185Y-109290609D01*
X108879172Y-109290602D01*
X108733501Y-109230264D01*
X108733489Y-109230261D01*
X108578845Y-109199500D01*
X108578842Y-109199500D01*
X108421158Y-109199500D01*
X108421155Y-109199500D01*
X108266510Y-109230261D01*
X108266498Y-109230264D01*
X108120827Y-109290602D01*
X108120814Y-109290609D01*
X107989711Y-109378210D01*
X107924885Y-109443036D01*
X107863561Y-109476520D01*
X107793870Y-109471535D01*
X107737936Y-109429664D01*
X107722643Y-109402806D01*
X107709397Y-109370827D01*
X107709390Y-109370814D01*
X107621789Y-109239711D01*
X107621786Y-109239707D01*
X107510292Y-109128213D01*
X107510288Y-109128210D01*
X107379185Y-109040609D01*
X107379172Y-109040602D01*
X107233501Y-108980264D01*
X107233489Y-108980261D01*
X107078845Y-108949500D01*
X107078842Y-108949500D01*
X106921158Y-108949500D01*
X106921155Y-108949500D01*
X106766510Y-108980261D01*
X106766498Y-108980264D01*
X106620827Y-109040602D01*
X106620814Y-109040609D01*
X106489711Y-109128210D01*
X106489707Y-109128213D01*
X106378213Y-109239707D01*
X106378210Y-109239711D01*
X106290609Y-109370814D01*
X106290602Y-109370827D01*
X106230264Y-109516498D01*
X106230261Y-109516510D01*
X106199500Y-109671153D01*
X102580682Y-109671153D01*
X102565161Y-109655907D01*
X102563887Y-109650295D01*
X102560163Y-109645911D01*
X102556242Y-109616602D01*
X102549700Y-109587770D01*
X102550055Y-109583352D01*
X102550499Y-109578846D01*
X102550500Y-109578842D01*
X102550500Y-109421158D01*
X102550500Y-109421155D01*
X102537426Y-109355431D01*
X102543653Y-109285840D01*
X102586515Y-109230662D01*
X102611589Y-109216679D01*
X102629179Y-109209394D01*
X102760289Y-109121789D01*
X102871789Y-109010289D01*
X102959394Y-108879179D01*
X103019737Y-108733497D01*
X103050500Y-108578842D01*
X103050500Y-108421158D01*
X103050500Y-108421155D01*
X103050499Y-108421153D01*
X103037288Y-108354738D01*
X103019737Y-108266503D01*
X103010102Y-108243241D01*
X102959397Y-108120827D01*
X102959390Y-108120814D01*
X102871789Y-107989711D01*
X102871786Y-107989707D01*
X102821975Y-107939896D01*
X102788490Y-107878573D01*
X102793474Y-107808881D01*
X102835346Y-107752948D01*
X102900810Y-107728531D01*
X102957108Y-107737654D01*
X103033599Y-107769337D01*
X103062290Y-107781221D01*
X103201345Y-107808881D01*
X103216940Y-107811983D01*
X103216943Y-107811984D01*
X103216945Y-107811984D01*
X103374631Y-107811984D01*
X103374632Y-107811983D01*
X103529284Y-107781221D01*
X103652306Y-107730264D01*
X103674959Y-107720881D01*
X103674959Y-107720880D01*
X103674966Y-107720878D01*
X103806076Y-107633273D01*
X103917576Y-107521773D01*
X104005181Y-107390663D01*
X104065524Y-107244981D01*
X104096287Y-107090326D01*
X104096287Y-106932642D01*
X104096287Y-106932639D01*
X104096286Y-106932637D01*
X104072757Y-106814349D01*
X104065524Y-106777987D01*
X104057696Y-106759088D01*
X104005184Y-106632311D01*
X104005177Y-106632298D01*
X103917576Y-106501195D01*
X103917573Y-106501191D01*
X103806079Y-106389697D01*
X103806075Y-106389694D01*
X103674972Y-106302093D01*
X103674959Y-106302086D01*
X103529288Y-106241748D01*
X103529276Y-106241745D01*
X103374632Y-106210984D01*
X103374629Y-106210984D01*
X103216945Y-106210984D01*
X103216942Y-106210984D01*
X103062297Y-106241745D01*
X103062285Y-106241748D01*
X102916614Y-106302086D01*
X102916601Y-106302093D01*
X102785498Y-106389694D01*
X102785494Y-106389697D01*
X102674000Y-106501191D01*
X102673997Y-106501195D01*
X102586396Y-106632298D01*
X102586389Y-106632311D01*
X102526051Y-106777982D01*
X102526048Y-106777994D01*
X102495287Y-106932637D01*
X102495287Y-107090330D01*
X102526048Y-107244973D01*
X102526051Y-107244985D01*
X102586389Y-107390656D01*
X102586396Y-107390669D01*
X102673997Y-107521772D01*
X102674000Y-107521776D01*
X102723811Y-107571587D01*
X102757296Y-107632910D01*
X102752312Y-107702602D01*
X102710440Y-107758535D01*
X102644976Y-107782952D01*
X102588678Y-107773829D01*
X102483501Y-107730264D01*
X102483489Y-107730261D01*
X102328845Y-107699500D01*
X102328842Y-107699500D01*
X102171158Y-107699500D01*
X102171155Y-107699500D01*
X102016510Y-107730261D01*
X102016498Y-107730264D01*
X101870827Y-107790602D01*
X101870814Y-107790609D01*
X101739711Y-107878210D01*
X101739707Y-107878213D01*
X101628213Y-107989707D01*
X101628210Y-107989711D01*
X101540609Y-108120814D01*
X101540602Y-108120827D01*
X101480264Y-108266498D01*
X101480261Y-108266510D01*
X101449500Y-108421153D01*
X101449500Y-108578846D01*
X101462573Y-108644568D01*
X101456346Y-108714159D01*
X101413483Y-108769337D01*
X101388411Y-108783319D01*
X101370826Y-108790603D01*
X101370814Y-108790609D01*
X101239711Y-108878210D01*
X101239707Y-108878213D01*
X101128213Y-108989707D01*
X101128210Y-108989711D01*
X101040609Y-109120814D01*
X101040602Y-109120827D01*
X100980264Y-109266498D01*
X100980261Y-109266510D01*
X100949500Y-109421153D01*
X90300499Y-109421153D01*
X90297312Y-109405130D01*
X90269737Y-109266503D01*
X90265573Y-109256450D01*
X90209396Y-109120825D01*
X90209394Y-109120822D01*
X90209394Y-109120821D01*
X90174694Y-109068889D01*
X90153816Y-109002215D01*
X90172300Y-108934835D01*
X90174676Y-108931136D01*
X90209394Y-108879179D01*
X90269737Y-108733497D01*
X90300500Y-108578842D01*
X90300500Y-108421158D01*
X90300500Y-108421155D01*
X90287426Y-108355431D01*
X90293653Y-108285840D01*
X90336515Y-108230662D01*
X90361589Y-108216679D01*
X90379179Y-108209394D01*
X90510289Y-108121789D01*
X90621789Y-108010289D01*
X90709394Y-107879179D01*
X90769737Y-107733497D01*
X90800500Y-107578842D01*
X90800500Y-107421158D01*
X90800500Y-107421155D01*
X90800499Y-107421153D01*
X90787097Y-107353776D01*
X90769737Y-107266503D01*
X90760824Y-107244985D01*
X90709397Y-107120827D01*
X90709390Y-107120814D01*
X90621789Y-106989711D01*
X90621786Y-106989707D01*
X90510292Y-106878213D01*
X90510288Y-106878210D01*
X90379185Y-106790609D01*
X90379172Y-106790602D01*
X90233501Y-106730264D01*
X90233489Y-106730261D01*
X90078845Y-106699500D01*
X90078842Y-106699500D01*
X89921158Y-106699500D01*
X89921155Y-106699500D01*
X89766510Y-106730261D01*
X89766498Y-106730264D01*
X89620827Y-106790602D01*
X89620814Y-106790609D01*
X89489711Y-106878210D01*
X89489707Y-106878213D01*
X89378213Y-106989707D01*
X89378210Y-106989711D01*
X89290609Y-107120814D01*
X89290602Y-107120827D01*
X89230264Y-107266498D01*
X89230261Y-107266510D01*
X89199500Y-107421153D01*
X89199500Y-107578846D01*
X89212573Y-107644568D01*
X89206346Y-107714159D01*
X89163483Y-107769337D01*
X89138411Y-107783319D01*
X89120826Y-107790603D01*
X89120814Y-107790609D01*
X88989711Y-107878210D01*
X88989707Y-107878213D01*
X88878213Y-107989707D01*
X88878210Y-107989711D01*
X88790609Y-108120814D01*
X88790602Y-108120827D01*
X88730264Y-108266498D01*
X88730261Y-108266510D01*
X88699500Y-108421153D01*
X88699500Y-108578846D01*
X88730261Y-108733489D01*
X88730264Y-108733501D01*
X88790602Y-108879172D01*
X88790609Y-108879185D01*
X88825304Y-108931109D01*
X88846182Y-108997786D01*
X88827698Y-109065167D01*
X88825304Y-109068891D01*
X88790609Y-109120814D01*
X88790602Y-109120827D01*
X88730264Y-109266498D01*
X88730261Y-109266510D01*
X88699500Y-109421153D01*
X88699500Y-109578846D01*
X88730261Y-109733489D01*
X88730264Y-109733501D01*
X88790602Y-109879172D01*
X88790609Y-109879185D01*
X88825304Y-109931109D01*
X88846182Y-109997786D01*
X88827698Y-110065167D01*
X88825304Y-110068891D01*
X88790609Y-110120814D01*
X88790602Y-110120827D01*
X88730264Y-110266498D01*
X88730261Y-110266510D01*
X88699500Y-110421153D01*
X88699500Y-110578846D01*
X88730261Y-110733489D01*
X88730264Y-110733501D01*
X88790602Y-110879172D01*
X88790609Y-110879185D01*
X88878210Y-111010288D01*
X88878213Y-111010292D01*
X88989707Y-111121786D01*
X88989711Y-111121789D01*
X89120817Y-111209392D01*
X89120819Y-111209393D01*
X89120821Y-111209394D01*
X89128496Y-111212573D01*
X89138409Y-111216679D01*
X89192812Y-111260520D01*
X89214877Y-111326814D01*
X89212573Y-111355431D01*
X89199500Y-111421153D01*
X89199500Y-111578846D01*
X89230261Y-111733489D01*
X89230264Y-111733501D01*
X89290602Y-111879172D01*
X89290609Y-111879185D01*
X89378210Y-112010288D01*
X89378213Y-112010292D01*
X89489707Y-112121786D01*
X89489711Y-112121789D01*
X89620814Y-112209390D01*
X89620827Y-112209397D01*
X89756450Y-112265573D01*
X89766503Y-112269737D01*
X89881312Y-112292574D01*
X89921153Y-112300499D01*
X89921156Y-112300500D01*
X89921158Y-112300500D01*
X90078843Y-112300500D01*
X90095304Y-112297225D01*
X90144568Y-112287426D01*
X90167944Y-112289517D01*
X90191297Y-112287108D01*
X90202101Y-112292574D01*
X90214158Y-112293653D01*
X90232694Y-112308052D01*
X90253642Y-112318650D01*
X90262110Y-112330902D01*
X90269336Y-112336515D01*
X90275670Y-112346226D01*
X90280030Y-112353647D01*
X90290606Y-112379179D01*
X90327290Y-112434081D01*
X90329113Y-112437183D01*
X90336771Y-112467731D01*
X90346182Y-112497786D01*
X90345201Y-112501359D01*
X90346103Y-112504955D01*
X90336030Y-112534792D01*
X90327698Y-112565167D01*
X90325304Y-112568891D01*
X90290609Y-112620814D01*
X90290602Y-112620827D01*
X90230264Y-112766498D01*
X90230261Y-112766510D01*
X90199500Y-112921153D01*
X90199500Y-113078846D01*
X90230261Y-113233489D01*
X90230264Y-113233501D01*
X90290602Y-113379172D01*
X90290609Y-113379185D01*
X90325304Y-113431109D01*
X90346182Y-113497786D01*
X90327698Y-113565167D01*
X90325304Y-113568891D01*
X90290609Y-113620814D01*
X90290602Y-113620827D01*
X90230264Y-113766498D01*
X90230261Y-113766510D01*
X90199500Y-113921153D01*
X90199500Y-114078846D01*
X90230261Y-114233489D01*
X90230264Y-114233501D01*
X90290602Y-114379172D01*
X90290609Y-114379185D01*
X90325304Y-114431109D01*
X90346182Y-114497786D01*
X90327698Y-114565167D01*
X90325304Y-114568891D01*
X90290609Y-114620814D01*
X90290602Y-114620827D01*
X90230264Y-114766498D01*
X90230261Y-114766510D01*
X90199500Y-114921153D01*
X90199500Y-115078846D01*
X90212573Y-115144568D01*
X90206346Y-115214159D01*
X90163483Y-115269337D01*
X90138411Y-115283319D01*
X90120826Y-115290603D01*
X90120814Y-115290609D01*
X89989711Y-115378210D01*
X89989707Y-115378213D01*
X89878213Y-115489707D01*
X89878210Y-115489711D01*
X89790609Y-115620814D01*
X89790602Y-115620827D01*
X89730264Y-115766498D01*
X89730261Y-115766508D01*
X89699485Y-115921228D01*
X89667100Y-115983139D01*
X89606384Y-116017713D01*
X89536614Y-116013972D01*
X89479943Y-115973106D01*
X89477550Y-115969921D01*
X89405109Y-115870213D01*
X89254790Y-115719894D01*
X89254785Y-115719890D01*
X89089781Y-115600008D01*
X89047115Y-115544678D01*
X89041136Y-115475065D01*
X89073741Y-115413270D01*
X89089781Y-115399371D01*
X89254466Y-115279721D01*
X89404723Y-115129464D01*
X89404727Y-115129459D01*
X89529620Y-114957557D01*
X89626095Y-114768217D01*
X89691757Y-114566129D01*
X89691757Y-114566126D01*
X89702231Y-114500000D01*
X88654146Y-114500000D01*
X88692630Y-114433343D01*
X88725000Y-114312535D01*
X88725000Y-114187465D01*
X88692630Y-114066657D01*
X88654146Y-114000000D01*
X89702231Y-114000000D01*
X89691757Y-113933873D01*
X89691757Y-113933870D01*
X89626095Y-113731782D01*
X89529620Y-113542442D01*
X89404727Y-113370540D01*
X89404723Y-113370535D01*
X89254464Y-113220276D01*
X89254459Y-113220272D01*
X89082557Y-113095379D01*
X88893217Y-112998904D01*
X88691128Y-112933242D01*
X88500000Y-112902969D01*
X88500000Y-113845854D01*
X88433343Y-113807370D01*
X88312535Y-113775000D01*
X88187465Y-113775000D01*
X88066657Y-113807370D01*
X88000000Y-113845854D01*
X88000000Y-112902969D01*
X87808872Y-112933242D01*
X87808869Y-112933242D01*
X87606782Y-112998904D01*
X87417442Y-113095379D01*
X87245540Y-113220272D01*
X87245535Y-113220276D01*
X87095276Y-113370535D01*
X87095272Y-113370540D01*
X86970379Y-113542442D01*
X86873904Y-113731782D01*
X86808242Y-113933870D01*
X86808242Y-113933873D01*
X86797769Y-114000000D01*
X87845854Y-114000000D01*
X87807370Y-114066657D01*
X87775000Y-114187465D01*
X87775000Y-114312535D01*
X87807370Y-114433343D01*
X87845854Y-114500000D01*
X86797769Y-114500000D01*
X86808242Y-114566126D01*
X86808242Y-114566129D01*
X86873904Y-114768217D01*
X86970379Y-114957557D01*
X87095272Y-115129459D01*
X87095276Y-115129464D01*
X87245535Y-115279723D01*
X87245540Y-115279727D01*
X87410218Y-115399372D01*
X87452884Y-115454701D01*
X87458863Y-115524315D01*
X87426258Y-115586110D01*
X87410218Y-115600008D01*
X87245214Y-115719890D01*
X87245209Y-115719894D01*
X87094890Y-115870213D01*
X86969951Y-116042179D01*
X86873444Y-116231585D01*
X86807753Y-116433760D01*
X86774500Y-116643713D01*
X86774500Y-116856286D01*
X86798891Y-117010289D01*
X86807754Y-117066243D01*
X86869392Y-117255945D01*
X86873444Y-117268414D01*
X86969951Y-117457820D01*
X87094890Y-117629786D01*
X87245209Y-117780105D01*
X87245214Y-117780109D01*
X87409793Y-117899682D01*
X87452459Y-117955011D01*
X87458438Y-118024625D01*
X87425833Y-118086420D01*
X87409793Y-118100318D01*
X87245214Y-118219890D01*
X87245209Y-118219894D01*
X87094890Y-118370213D01*
X86969951Y-118542179D01*
X86873444Y-118731585D01*
X86807753Y-118933760D01*
X86784774Y-119078844D01*
X86774500Y-119143713D01*
X86774500Y-119356287D01*
X86778126Y-119379179D01*
X86807583Y-119565167D01*
X86807754Y-119566243D01*
X86862098Y-119733497D01*
X86873444Y-119768414D01*
X86969951Y-119957820D01*
X87094890Y-120129786D01*
X87233705Y-120268601D01*
X87267190Y-120329924D01*
X87262206Y-120399616D01*
X87220334Y-120455549D01*
X87211121Y-120461821D01*
X87056342Y-120557289D01*
X86932289Y-120681342D01*
X86840187Y-120830663D01*
X86840184Y-120830672D01*
X86821538Y-120886939D01*
X86781765Y-120944383D01*
X86717249Y-120971205D01*
X86679641Y-120969550D01*
X86578844Y-120949500D01*
X86578842Y-120949500D01*
X86421158Y-120949500D01*
X86421155Y-120949500D01*
X86266510Y-120980261D01*
X86266498Y-120980264D01*
X86120827Y-121040602D01*
X86120814Y-121040609D01*
X85989711Y-121128210D01*
X85989707Y-121128213D01*
X85878213Y-121239707D01*
X85878210Y-121239711D01*
X85790609Y-121370814D01*
X85790602Y-121370827D01*
X85730264Y-121516498D01*
X85730261Y-121516510D01*
X85699500Y-121671153D01*
X83127693Y-121671153D01*
X83117344Y-121629979D01*
X83116040Y-121624213D01*
X83115552Y-121621786D01*
X83053995Y-121315660D01*
X83060078Y-121246059D01*
X83102825Y-121190792D01*
X83168666Y-121167410D01*
X83199754Y-121169601D01*
X83311121Y-121191754D01*
X83311124Y-121191754D01*
X83468810Y-121191754D01*
X83468811Y-121191753D01*
X83623463Y-121160991D01*
X83769145Y-121100648D01*
X83900255Y-121013043D01*
X84011755Y-120901543D01*
X84099360Y-120770433D01*
X84159703Y-120624751D01*
X84190466Y-120470096D01*
X84190466Y-120312412D01*
X84190466Y-120312409D01*
X84190465Y-120312407D01*
X84183388Y-120276828D01*
X84159703Y-120157757D01*
X84144805Y-120121789D01*
X84099363Y-120012081D01*
X84099356Y-120012068D01*
X84011755Y-119880965D01*
X84011752Y-119880961D01*
X83900258Y-119769467D01*
X83900254Y-119769464D01*
X83769151Y-119681863D01*
X83769138Y-119681856D01*
X83623467Y-119621518D01*
X83623455Y-119621515D01*
X83468811Y-119590754D01*
X83468808Y-119590754D01*
X83311124Y-119590754D01*
X83311121Y-119590754D01*
X83156476Y-119621515D01*
X83156464Y-119621518D01*
X83010793Y-119681856D01*
X83010777Y-119681865D01*
X82981635Y-119701337D01*
X82914957Y-119722214D01*
X82847578Y-119703728D01*
X82800888Y-119651749D01*
X82789401Y-119610958D01*
X82785062Y-119568892D01*
X82744631Y-119176958D01*
X82744168Y-119171119D01*
X82730454Y-118921898D01*
X82746426Y-118853880D01*
X82796636Y-118805293D01*
X82865144Y-118791565D01*
X82901717Y-118800525D01*
X82958876Y-118824201D01*
X83108081Y-118853880D01*
X83113526Y-118854963D01*
X83113529Y-118854964D01*
X83113531Y-118854964D01*
X83271217Y-118854964D01*
X83271218Y-118854963D01*
X83425870Y-118824201D01*
X83538539Y-118777531D01*
X83571545Y-118763861D01*
X83571545Y-118763860D01*
X83571552Y-118763858D01*
X83702662Y-118676253D01*
X83814162Y-118564753D01*
X83901767Y-118433643D01*
X83906941Y-118421153D01*
X83924324Y-118379185D01*
X83962110Y-118287961D01*
X83992873Y-118133306D01*
X83992873Y-117975622D01*
X83992873Y-117975619D01*
X83992872Y-117975617D01*
X83978835Y-117905051D01*
X83962110Y-117820967D01*
X83953632Y-117800499D01*
X83901770Y-117675291D01*
X83901763Y-117675278D01*
X83814162Y-117544175D01*
X83814159Y-117544171D01*
X83702665Y-117432677D01*
X83702661Y-117432674D01*
X83571558Y-117345073D01*
X83571545Y-117345066D01*
X83425874Y-117284728D01*
X83425862Y-117284725D01*
X83271218Y-117253964D01*
X83271215Y-117253964D01*
X83113531Y-117253964D01*
X83113528Y-117253964D01*
X82958883Y-117284725D01*
X82958871Y-117284728D01*
X82877343Y-117318498D01*
X82807873Y-117325967D01*
X82745394Y-117294691D01*
X82709743Y-117234602D01*
X82705994Y-117198899D01*
X82726464Y-116695860D01*
X82726841Y-116690019D01*
X82742861Y-116509456D01*
X82768394Y-116444421D01*
X82825035Y-116403512D01*
X82894801Y-116399719D01*
X82935267Y-116417315D01*
X82942735Y-116422305D01*
X82942748Y-116422312D01*
X83054871Y-116468754D01*
X83088424Y-116482652D01*
X83223186Y-116509458D01*
X83243074Y-116513414D01*
X83243077Y-116513415D01*
X83243079Y-116513415D01*
X83400765Y-116513415D01*
X83400766Y-116513414D01*
X83555418Y-116482652D01*
X83701100Y-116422309D01*
X83832210Y-116334704D01*
X83943710Y-116223204D01*
X84031315Y-116092094D01*
X84036803Y-116078846D01*
X84051990Y-116042179D01*
X84091658Y-115946412D01*
X84122421Y-115791757D01*
X84122421Y-115634073D01*
X84122421Y-115634070D01*
X84122420Y-115634068D01*
X84121449Y-115629185D01*
X84091658Y-115479418D01*
X84058502Y-115399371D01*
X84031318Y-115333742D01*
X84031311Y-115333729D01*
X83943710Y-115202626D01*
X83943707Y-115202622D01*
X83832213Y-115091128D01*
X83832209Y-115091125D01*
X83701106Y-115003524D01*
X83701093Y-115003517D01*
X83555422Y-114943179D01*
X83555410Y-114943176D01*
X83400766Y-114912415D01*
X83400763Y-114912415D01*
X83243079Y-114912415D01*
X83211213Y-114918753D01*
X83105418Y-114939797D01*
X83035826Y-114933569D01*
X82980649Y-114890705D01*
X82957405Y-114824815D01*
X82959322Y-114795482D01*
X83063217Y-114237642D01*
X83064429Y-114231904D01*
X83091199Y-114118569D01*
X83125766Y-114057853D01*
X83187674Y-114025462D01*
X83257266Y-114031683D01*
X83280768Y-114043975D01*
X83396902Y-114121574D01*
X83396915Y-114121581D01*
X83521498Y-114173184D01*
X83542591Y-114181921D01*
X83680686Y-114209390D01*
X83697241Y-114212683D01*
X83697244Y-114212684D01*
X83697246Y-114212684D01*
X83854932Y-114212684D01*
X83854933Y-114212683D01*
X84009585Y-114181921D01*
X84155267Y-114121578D01*
X84286377Y-114033973D01*
X84322821Y-113997529D01*
X84370968Y-113949383D01*
X84397874Y-113922476D01*
X84397877Y-113922473D01*
X84485482Y-113791363D01*
X84545825Y-113645681D01*
X84576588Y-113491026D01*
X84576588Y-113333342D01*
X84576588Y-113333339D01*
X84576587Y-113333337D01*
X84556726Y-113233489D01*
X84545825Y-113178687D01*
X84521859Y-113120827D01*
X84485485Y-113033011D01*
X84485478Y-113032998D01*
X84397877Y-112901895D01*
X84397874Y-112901891D01*
X84286380Y-112790397D01*
X84286376Y-112790394D01*
X84155273Y-112702793D01*
X84155260Y-112702786D01*
X84009589Y-112642448D01*
X84009577Y-112642445D01*
X83854933Y-112611684D01*
X83854930Y-112611684D01*
X83697246Y-112611684D01*
X83685788Y-112613963D01*
X83616196Y-112607734D01*
X83561019Y-112564870D01*
X83537776Y-112498980D01*
X83544192Y-112452450D01*
X83747961Y-111852854D01*
X83749970Y-111847374D01*
X83769492Y-111797840D01*
X83812385Y-111742690D01*
X83878288Y-111719484D01*
X83946276Y-111735591D01*
X83972535Y-111755629D01*
X84035743Y-111818837D01*
X84035747Y-111818840D01*
X84166850Y-111906441D01*
X84166863Y-111906448D01*
X84312534Y-111966786D01*
X84312539Y-111966788D01*
X84467189Y-111997550D01*
X84467192Y-111997551D01*
X84467194Y-111997551D01*
X84624880Y-111997551D01*
X84624881Y-111997550D01*
X84779533Y-111966788D01*
X84925215Y-111906445D01*
X85056325Y-111818840D01*
X85167825Y-111707340D01*
X85255430Y-111576230D01*
X85258470Y-111568892D01*
X85280167Y-111516510D01*
X85315773Y-111430548D01*
X85346536Y-111275893D01*
X85346536Y-111118209D01*
X85346536Y-111118206D01*
X85346535Y-111118204D01*
X85331100Y-111040609D01*
X85315773Y-110963554D01*
X85309952Y-110949500D01*
X85255433Y-110817878D01*
X85255426Y-110817865D01*
X85167825Y-110686762D01*
X85167822Y-110686758D01*
X85056328Y-110575264D01*
X85056324Y-110575261D01*
X84925221Y-110487660D01*
X84925208Y-110487653D01*
X84779537Y-110427315D01*
X84779525Y-110427312D01*
X84624881Y-110396551D01*
X84624878Y-110396551D01*
X84558397Y-110396551D01*
X84491358Y-110376866D01*
X84445603Y-110324062D01*
X84435659Y-110254904D01*
X84447902Y-110216276D01*
X84558052Y-110000000D01*
X84760568Y-109602366D01*
X84808532Y-109551564D01*
X84876350Y-109534757D01*
X84942488Y-109557283D01*
X84974163Y-109589752D01*
X84994991Y-109620923D01*
X85106485Y-109732417D01*
X85106489Y-109732420D01*
X85237592Y-109820021D01*
X85237605Y-109820028D01*
X85380410Y-109879179D01*
X85383281Y-109880368D01*
X85512076Y-109905987D01*
X85537931Y-109911130D01*
X85537934Y-109911131D01*
X85537936Y-109911131D01*
X85695622Y-109911131D01*
X85695623Y-109911130D01*
X85850275Y-109880368D01*
X85995957Y-109820025D01*
X86127067Y-109732420D01*
X86238567Y-109620920D01*
X86326172Y-109489810D01*
X86386515Y-109344128D01*
X86417278Y-109189473D01*
X86417278Y-109031789D01*
X86417278Y-109031786D01*
X86417277Y-109031784D01*
X86410514Y-108997786D01*
X86386515Y-108877134D01*
X86375085Y-108849540D01*
X86326175Y-108731458D01*
X86326168Y-108731445D01*
X86238567Y-108600342D01*
X86238564Y-108600338D01*
X86127070Y-108488844D01*
X86127066Y-108488841D01*
X85995963Y-108401240D01*
X85995950Y-108401233D01*
X85850279Y-108340895D01*
X85850269Y-108340892D01*
X85732651Y-108317496D01*
X85670740Y-108285111D01*
X85636166Y-108224395D01*
X85639907Y-108154625D01*
X85655525Y-108124391D01*
X86050264Y-107565018D01*
X86105000Y-107521594D01*
X86174524Y-107514656D01*
X86236763Y-107546406D01*
X86253596Y-107568381D01*
X86254693Y-107567649D01*
X86345682Y-107703823D01*
X86345685Y-107703827D01*
X86457179Y-107815321D01*
X86457183Y-107815324D01*
X86588286Y-107902925D01*
X86588299Y-107902932D01*
X86716933Y-107956213D01*
X86733975Y-107963272D01*
X86866867Y-107989706D01*
X86888625Y-107994034D01*
X86888628Y-107994035D01*
X86888630Y-107994035D01*
X87046316Y-107994035D01*
X87046317Y-107994034D01*
X87200969Y-107963272D01*
X87313638Y-107916602D01*
X87346644Y-107902932D01*
X87346644Y-107902931D01*
X87346651Y-107902929D01*
X87477761Y-107815324D01*
X87589261Y-107703824D01*
X87676866Y-107572714D01*
X87737209Y-107427032D01*
X87767972Y-107272377D01*
X87767972Y-107114693D01*
X87767972Y-107114690D01*
X87767971Y-107114688D01*
X87767269Y-107111159D01*
X87737209Y-106960038D01*
X87737207Y-106960033D01*
X87676869Y-106814362D01*
X87676862Y-106814349D01*
X87589261Y-106683246D01*
X87589258Y-106683242D01*
X87477764Y-106571748D01*
X87477760Y-106571745D01*
X87346657Y-106484144D01*
X87346644Y-106484137D01*
X87200966Y-106423796D01*
X87198631Y-106423088D01*
X87197558Y-106422385D01*
X87195342Y-106421467D01*
X87195516Y-106421046D01*
X87170056Y-106404357D01*
X87141235Y-106385991D01*
X87140887Y-106385238D01*
X87140196Y-106384785D01*
X87126299Y-106353612D01*
X87111968Y-106322546D01*
X87112082Y-106321724D01*
X87111746Y-106320969D01*
X87116912Y-106287203D01*
X87121648Y-106253350D01*
X87122231Y-106252433D01*
X87122313Y-106251904D01*
X87140613Y-106223590D01*
X87146713Y-106216495D01*
X87150646Y-106212136D01*
X87615154Y-105721443D01*
X87675534Y-105686293D01*
X87745337Y-105689365D01*
X87802397Y-105729688D01*
X87819764Y-105759238D01*
X87862434Y-105862252D01*
X87862439Y-105862262D01*
X87950040Y-105993365D01*
X87950043Y-105993369D01*
X88061537Y-106104863D01*
X88061541Y-106104866D01*
X88192644Y-106192467D01*
X88192657Y-106192474D01*
X88338166Y-106252745D01*
X88338333Y-106252814D01*
X88492983Y-106283576D01*
X88492986Y-106283577D01*
X88492988Y-106283577D01*
X88650674Y-106283577D01*
X88650675Y-106283576D01*
X88805327Y-106252814D01*
X88951009Y-106192471D01*
X89082119Y-106104866D01*
X89193619Y-105993366D01*
X89281224Y-105862256D01*
X89341567Y-105716574D01*
X89372330Y-105561919D01*
X89372330Y-105421153D01*
X106199500Y-105421153D01*
X106199500Y-105578846D01*
X106230261Y-105733489D01*
X106230264Y-105733501D01*
X106290602Y-105879172D01*
X106290609Y-105879185D01*
X106378210Y-106010288D01*
X106378213Y-106010292D01*
X106489707Y-106121786D01*
X106489711Y-106121789D01*
X106620814Y-106209390D01*
X106620827Y-106209397D01*
X106725649Y-106252815D01*
X106766503Y-106269737D01*
X106921153Y-106300499D01*
X106921156Y-106300500D01*
X106921158Y-106300500D01*
X107078844Y-106300500D01*
X107078845Y-106300499D01*
X107233497Y-106269737D01*
X107372612Y-106212114D01*
X107379172Y-106209397D01*
X107379172Y-106209396D01*
X107379179Y-106209394D01*
X107510289Y-106121789D01*
X107621789Y-106010289D01*
X107709394Y-105879179D01*
X107769737Y-105733497D01*
X107800500Y-105578842D01*
X107800500Y-105421158D01*
X107800500Y-105421155D01*
X107800499Y-105421153D01*
X107783720Y-105336799D01*
X107769737Y-105266503D01*
X107762569Y-105249197D01*
X107709397Y-105120827D01*
X107709390Y-105120814D01*
X107621789Y-104989711D01*
X107621786Y-104989707D01*
X107510292Y-104878213D01*
X107510288Y-104878210D01*
X107379185Y-104790609D01*
X107379172Y-104790602D01*
X107233501Y-104730264D01*
X107233489Y-104730261D01*
X107078845Y-104699500D01*
X107078842Y-104699500D01*
X106921158Y-104699500D01*
X106921155Y-104699500D01*
X106766510Y-104730261D01*
X106766498Y-104730264D01*
X106620827Y-104790602D01*
X106620814Y-104790609D01*
X106489711Y-104878210D01*
X106489707Y-104878213D01*
X106378213Y-104989707D01*
X106378210Y-104989711D01*
X106290609Y-105120814D01*
X106290602Y-105120827D01*
X106230264Y-105266498D01*
X106230261Y-105266510D01*
X106199500Y-105421153D01*
X89372330Y-105421153D01*
X89372330Y-105404235D01*
X89372330Y-105404232D01*
X89372329Y-105404230D01*
X89358916Y-105336798D01*
X89341567Y-105249580D01*
X89327410Y-105215401D01*
X89281227Y-105103904D01*
X89281220Y-105103891D01*
X89193619Y-104972788D01*
X89193616Y-104972784D01*
X89082122Y-104861290D01*
X89082118Y-104861287D01*
X88951015Y-104773686D01*
X88951006Y-104773681D01*
X88911467Y-104757304D01*
X88909836Y-104755990D01*
X88907764Y-104755699D01*
X88882753Y-104734164D01*
X88857064Y-104713463D01*
X88856403Y-104711477D01*
X88854816Y-104710111D01*
X88845418Y-104678475D01*
X88834999Y-104647169D01*
X88835516Y-104645140D01*
X88834921Y-104643134D01*
X88844115Y-104611451D01*
X88852278Y-104579470D01*
X88853994Y-104577409D01*
X88854394Y-104576032D01*
X88877414Y-104549295D01*
X88936320Y-104497925D01*
X88940850Y-104494163D01*
X88954331Y-104483497D01*
X89418975Y-104115880D01*
X89483759Y-104089724D01*
X89552404Y-104102745D01*
X89603113Y-104150811D01*
X89617526Y-104188934D01*
X89628885Y-104246040D01*
X89628888Y-104246049D01*
X89689226Y-104391720D01*
X89689233Y-104391733D01*
X89776834Y-104522836D01*
X89776837Y-104522840D01*
X89888331Y-104634334D01*
X89888335Y-104634337D01*
X90019438Y-104721938D01*
X90019451Y-104721945D01*
X90144367Y-104773686D01*
X90165127Y-104782285D01*
X90319777Y-104813047D01*
X90319780Y-104813048D01*
X90319782Y-104813048D01*
X90477468Y-104813048D01*
X90477469Y-104813047D01*
X90632121Y-104782285D01*
X90777803Y-104721942D01*
X90908913Y-104634337D01*
X91020413Y-104522837D01*
X91108018Y-104391727D01*
X91168361Y-104246045D01*
X91199124Y-104091390D01*
X91199124Y-103933706D01*
X91199124Y-103933703D01*
X91199123Y-103933702D01*
X91196627Y-103921153D01*
X97699500Y-103921153D01*
X97699500Y-104078846D01*
X97730261Y-104233489D01*
X97730264Y-104233501D01*
X97790602Y-104379172D01*
X97790609Y-104379185D01*
X97878210Y-104510288D01*
X97878213Y-104510292D01*
X97989707Y-104621786D01*
X97989711Y-104621789D01*
X98120814Y-104709390D01*
X98120827Y-104709397D01*
X98266498Y-104769735D01*
X98266503Y-104769737D01*
X98388853Y-104794074D01*
X98421153Y-104800499D01*
X98421156Y-104800500D01*
X98421158Y-104800500D01*
X98578844Y-104800500D01*
X98578845Y-104800499D01*
X98733497Y-104769737D01*
X98765959Y-104756290D01*
X98835423Y-104748821D01*
X98897903Y-104780093D01*
X98901091Y-104783170D01*
X98989707Y-104871786D01*
X98989711Y-104871789D01*
X99120814Y-104959390D01*
X99120827Y-104959397D01*
X99266498Y-105019735D01*
X99266503Y-105019737D01*
X99387375Y-105043780D01*
X99421153Y-105050499D01*
X99421156Y-105050500D01*
X99421158Y-105050500D01*
X99578844Y-105050500D01*
X99578845Y-105050499D01*
X99733497Y-105019737D01*
X99879179Y-104959394D01*
X100010289Y-104871789D01*
X100121789Y-104760289D01*
X100209394Y-104629179D01*
X100210341Y-104626894D01*
X100239020Y-104557654D01*
X100269737Y-104483497D01*
X100300500Y-104328842D01*
X100300500Y-104171158D01*
X100300500Y-104171155D01*
X100300499Y-104171153D01*
X100284633Y-104091390D01*
X100269737Y-104016503D01*
X100269735Y-104016498D01*
X100209397Y-103870827D01*
X100209390Y-103870814D01*
X100121789Y-103739711D01*
X100121786Y-103739707D01*
X100010292Y-103628213D01*
X100010288Y-103628210D01*
X99879185Y-103540609D01*
X99879172Y-103540602D01*
X99733501Y-103480264D01*
X99733489Y-103480261D01*
X99578845Y-103449500D01*
X99578842Y-103449500D01*
X99421158Y-103449500D01*
X99421155Y-103449500D01*
X99266511Y-103480260D01*
X99266501Y-103480263D01*
X99234041Y-103493709D01*
X99164571Y-103501178D01*
X99102092Y-103469902D01*
X99098908Y-103466829D01*
X99010292Y-103378213D01*
X99010288Y-103378210D01*
X98879185Y-103290609D01*
X98879172Y-103290602D01*
X98733501Y-103230264D01*
X98733489Y-103230261D01*
X98578845Y-103199500D01*
X98578842Y-103199500D01*
X98421158Y-103199500D01*
X98421155Y-103199500D01*
X98266510Y-103230261D01*
X98266498Y-103230264D01*
X98120827Y-103290602D01*
X98120814Y-103290609D01*
X97989711Y-103378210D01*
X97989707Y-103378213D01*
X97878213Y-103489707D01*
X97878210Y-103489711D01*
X97790609Y-103620814D01*
X97790602Y-103620827D01*
X97730264Y-103766498D01*
X97730261Y-103766510D01*
X97699500Y-103921153D01*
X91196627Y-103921153D01*
X91186616Y-103870827D01*
X91168361Y-103779051D01*
X91163166Y-103766510D01*
X91108021Y-103633375D01*
X91108014Y-103633362D01*
X91020413Y-103502259D01*
X91020410Y-103502255D01*
X90908916Y-103390761D01*
X90908912Y-103390758D01*
X90830542Y-103338392D01*
X90808917Y-103312516D01*
X90786767Y-103287082D01*
X90786577Y-103285784D01*
X90785737Y-103284779D01*
X90781535Y-103251323D01*
X90776652Y-103217949D01*
X90777193Y-103216755D01*
X90777030Y-103215454D01*
X90791587Y-103185027D01*
X90805518Y-103154321D01*
X90806822Y-103153185D01*
X90807185Y-103152427D01*
X90832134Y-103131142D01*
X90953227Y-103052893D01*
X90958269Y-103049802D01*
X91425557Y-102778593D01*
X91493417Y-102761967D01*
X91559496Y-102784669D01*
X91602811Y-102839492D01*
X91611799Y-102885840D01*
X91611799Y-102889416D01*
X91642560Y-103044059D01*
X91642563Y-103044071D01*
X91702901Y-103189742D01*
X91702908Y-103189755D01*
X91790509Y-103320858D01*
X91790512Y-103320862D01*
X91902006Y-103432356D01*
X91902010Y-103432359D01*
X92033113Y-103519960D01*
X92033126Y-103519967D01*
X92153539Y-103569843D01*
X92178802Y-103580307D01*
X92333452Y-103611069D01*
X92333455Y-103611070D01*
X92333457Y-103611070D01*
X92491143Y-103611070D01*
X92491144Y-103611069D01*
X92645796Y-103580307D01*
X92791478Y-103519964D01*
X92922588Y-103432359D01*
X93034088Y-103320859D01*
X93121693Y-103189749D01*
X93182036Y-103044067D01*
X93212799Y-102889412D01*
X93212799Y-102731728D01*
X93212799Y-102731725D01*
X93212798Y-102731723D01*
X93208356Y-102709390D01*
X93182036Y-102577073D01*
X93154375Y-102510292D01*
X93121696Y-102431397D01*
X93121689Y-102431384D01*
X93034088Y-102300281D01*
X93034085Y-102300277D01*
X92931691Y-102197883D01*
X92917040Y-102171053D01*
X92900459Y-102145355D01*
X92900450Y-102140670D01*
X92898206Y-102136560D01*
X92900387Y-102106062D01*
X92900331Y-102075485D01*
X92902855Y-102071540D01*
X92903190Y-102066868D01*
X92921515Y-102042389D01*
X92937998Y-102016638D01*
X92943404Y-102013149D01*
X92945062Y-102010935D01*
X92967647Y-101997506D01*
X93156079Y-101911034D01*
X93161446Y-101908726D01*
X93923869Y-101602072D01*
X93929410Y-101599994D01*
X94705647Y-101330127D01*
X94711254Y-101328328D01*
X94805995Y-101300389D01*
X94875864Y-101300308D01*
X94934686Y-101338014D01*
X94962685Y-101395133D01*
X94980261Y-101483492D01*
X94980264Y-101483501D01*
X95040602Y-101629172D01*
X95040609Y-101629185D01*
X95128210Y-101760288D01*
X95128213Y-101760292D01*
X95239707Y-101871786D01*
X95239711Y-101871789D01*
X95370814Y-101959390D01*
X95370827Y-101959397D01*
X95495253Y-102010935D01*
X95516503Y-102019737D01*
X95670680Y-102050405D01*
X95671153Y-102050499D01*
X95671156Y-102050500D01*
X95671158Y-102050500D01*
X95828841Y-102050500D01*
X95828842Y-102050500D01*
X95828842Y-102050499D01*
X95829806Y-102050405D01*
X95830307Y-102050500D01*
X95834934Y-102050500D01*
X95834934Y-102051377D01*
X95898452Y-102063424D01*
X95949162Y-102111489D01*
X95963577Y-102149616D01*
X95980261Y-102233491D01*
X95980264Y-102233501D01*
X96040602Y-102379172D01*
X96040609Y-102379185D01*
X96128210Y-102510288D01*
X96128213Y-102510292D01*
X96239707Y-102621786D01*
X96239711Y-102621789D01*
X96370814Y-102709390D01*
X96370827Y-102709397D01*
X96497744Y-102761967D01*
X96516503Y-102769737D01*
X96671153Y-102800499D01*
X96671156Y-102800500D01*
X96671158Y-102800500D01*
X96828844Y-102800500D01*
X96828845Y-102800499D01*
X96983497Y-102769737D01*
X97129179Y-102709394D01*
X97260289Y-102621789D01*
X97371789Y-102510289D01*
X97459394Y-102379179D01*
X97519737Y-102233497D01*
X97550500Y-102078842D01*
X97550500Y-101921158D01*
X97550500Y-101921155D01*
X97550499Y-101921153D01*
X97548024Y-101908712D01*
X97519737Y-101766503D01*
X97515175Y-101755489D01*
X97459397Y-101620827D01*
X97459390Y-101620814D01*
X97371789Y-101489711D01*
X97371786Y-101489707D01*
X97260292Y-101378213D01*
X97260288Y-101378210D01*
X97129185Y-101290609D01*
X97129172Y-101290602D01*
X96983501Y-101230264D01*
X96983489Y-101230261D01*
X96828845Y-101199500D01*
X96828842Y-101199500D01*
X96671158Y-101199500D01*
X96671150Y-101199500D01*
X96670174Y-101199596D01*
X96669668Y-101199500D01*
X96669262Y-101199500D01*
X96668659Y-101199735D01*
X96667499Y-101199500D01*
X96665066Y-101199500D01*
X96665066Y-101199007D01*
X96635133Y-101192944D01*
X96601530Y-101186566D01*
X96600956Y-101186022D01*
X96600180Y-101185865D01*
X96575660Y-101162039D01*
X96550827Y-101138494D01*
X96550448Y-101137540D01*
X96550071Y-101137173D01*
X96546694Y-101128072D01*
X96537263Y-101104285D01*
X96536814Y-101102357D01*
X96519737Y-101016503D01*
X96513137Y-101000571D01*
X96510828Y-100990641D01*
X96512262Y-100965530D01*
X96509574Y-100940532D01*
X96514220Y-100931250D01*
X96514812Y-100920885D01*
X96529592Y-100900538D01*
X96540848Y-100878052D01*
X96549775Y-100872754D01*
X96555877Y-100864356D01*
X96579310Y-100855231D01*
X96600937Y-100842399D01*
X96608015Y-100840812D01*
X97116189Y-100742488D01*
X97122003Y-100741506D01*
X97935400Y-100624140D01*
X97941212Y-100623443D01*
X98759292Y-100545093D01*
X98765143Y-100544674D01*
X99586012Y-100505522D01*
X99591899Y-100505382D01*
X100413707Y-100505515D01*
G37*
%TD.AperFunction*%
%TD*%
M02*
