M48
; DRILL file KiCad 10.0.0 date 2026-04-10T22:35:41
; FORMAT={-:-/ absolute / inch / decimal}
; #@! TF.CreationDate,2026-04-10T22:35:41+02:00
; #@! TF.GenerationSoftware,Kicad,Pcbnew,10.0.0
; #@! TF.FileFunction,Plated,1,4,PTH
FMAT,2
INCH
; #@! TA.AperFunction,Plated,PTH,ViaDrill
T1C0.0118
; #@! TA.AperFunction,Plated,PTH,ComponentDrill
T2C0.0236
%
G90
G05
T1
X4.7343Y-4.638
X4.7486Y-4.7859
X4.749Y-4.4902
X4.7916Y-4.9281
X4.7923Y-4.3481
X4.8625Y-4.2171
X4.8647Y-4.8307
X4.8649Y-4.8917
X4.8701Y-5.0709
X4.8898Y-4.9547
X4.9311Y-5.0709
X4.9469Y-5.1811
X4.9783Y-4.9547
X5.002Y-5.0709
X5.0021Y-5.1815
X5.0034Y-4.799
X5.0059Y-4.9409
X5.0512Y-5.2874
X5.0615Y-4.5171
X5.0679Y-4.8453
X5.0718Y-4.0083
X5.0827Y-4.9469
X5.1118Y-4.5186
X5.1181Y-5.1949
X5.1654Y-4.752
X5.1654Y-4.9409
X5.1896Y-5.0126
X5.2008Y-5.3996
X5.2029Y-3.9384
X5.2047Y-4.1339
X5.2382Y-4.5157
X5.2461Y-5.1437
X5.2539Y-5.2205
X5.2559Y-5.3366
X5.2598Y-5.4272
X5.2628Y-4.8458
X5.2717Y-5.0276
X5.2835Y-5.2776
X5.2913Y-5.0039
X5.3031Y-4.4823
X5.3031Y-4.565
X5.3091Y-5.4961
X5.315Y-5.0518
X5.3209Y-4.813
X5.3209Y-4.8465
X5.3451Y-3.8954
X5.3622Y-4.9567
X5.3976Y-3.8937
X5.3976Y-3.9331
X5.3976Y-3.9724
X5.4016Y-4.8189
X5.4134Y-4.3898
X5.4134Y-4.4232
X5.4173Y-5.0591
X5.4331Y-4.8189
X5.437Y-3.8937
X5.437Y-3.9331
X5.437Y-3.9724
X5.4449Y-4.3898
X5.4449Y-4.4232
X5.4606Y-5.3996
X5.4646Y-4.8189
X5.4764Y-3.8937
X5.4764Y-3.9331
X5.4764Y-3.9724
X5.5Y-4.8189
X5.5118Y-3.8937
X5.5118Y-3.9331
X5.5118Y-3.9724
X5.5138Y-5.4961
X5.5453Y-5.2835
X5.5512Y-3.9724
X5.5827Y-4.4252
X5.586Y-5.0291
X5.5866Y-3.9724
X5.5906Y-5.1063
X5.5945Y-4.874
X5.622Y-3.9724
X5.626Y-4.811
X5.626Y-4.8858
X5.628Y-5.1043
X5.628Y-5.1693
X5.6378Y-4.4252
X5.6575Y-3.9724
X5.6575Y-4.0039
X5.6575Y-4.0354
X5.6654Y-5.3071
X5.6752Y-5.4961
X5.6899Y-4.1958
X5.6929Y-3.9094
X5.6929Y-3.9409
X5.6929Y-3.9724
X5.6929Y-5.437
X5.7008Y-5.3071
X5.7087Y-4.0217
X5.7087Y-4.1102
X5.7205Y-4.813
X5.7283Y-3.9291
X5.7283Y-3.9646
X5.7362Y-4.8937
X5.748Y-5.4035
X5.7539Y-5.2759
X5.7539Y-5.1772
X5.7539Y-5.2087
X5.7539Y-5.2402
X5.7598Y-3.9291
X5.7598Y-3.9646
X5.7697Y-5.0335
X5.7697Y-5.0669
X5.7697Y-5.0984
X5.7697Y-5.1319
X5.7933Y-4.0669
X5.7953Y-4.1614
X5.8031Y-5.0335
X5.8031Y-5.0669
X5.8031Y-5.0984
X5.8031Y-5.1319
X5.8268Y-3.9646
X5.8268Y-4.1614
X5.827Y-4.0668
X5.8366Y-5.0335
X5.8366Y-5.0669
X5.8366Y-5.0984
X5.8366Y-5.1319
X5.8543Y-4.8484
X5.8543Y-4.8819
X5.8602Y-3.9803
X5.8602Y-4.0236
X5.8602Y-4.0669
X5.8602Y-4.1614
X5.8626Y-4.1138
X5.8661Y-5.3366
X5.8681Y-4.7087
X5.872Y-5.0335
X5.872Y-5.0669
X5.872Y-5.0984
X5.872Y-5.1319
X5.878Y-4.5394
X5.8898Y-4.8484
X5.8898Y-4.8819
X5.8937Y-4.126
X5.8937Y-4.1693
X5.8957Y-4.002
X5.8996Y-4.4606
X5.9016Y-4.8031
X5.9055Y-4.3366
X5.9075Y-5.0335
X5.9075Y-5.0669
X5.9075Y-5.0984
X5.9075Y-5.1319
X5.9331Y-4.126
X5.9331Y-4.1693
X5.935Y-4.3937
X5.937Y-4.8701
X5.9626Y-5.0433
X5.9626Y-5.0768
X5.9626Y-5.1102
X5.9626Y-5.1437
X5.9803Y-4.126
X5.9941Y-5.0433
X5.9941Y-5.0748
X5.9941Y-5.1083
X5.9941Y-5.1417
X6.0256Y-4.9272
X6.0256Y-4.9606
X6.0256Y-4.9961
X6.0256Y-5.0295
X6.0256Y-5.0748
X6.0256Y-5.1083
X6.0256Y-5.1417
X6.0274Y-5.1754
X6.0276Y-4.1102
X6.0591Y-4.3268
X6.0591Y-4.9272
X6.0591Y-4.9606
X6.0591Y-4.9961
X6.0591Y-5.0295
X6.0591Y-5.0748
X6.0591Y-5.1083
X6.0591Y-5.1417
X6.0866Y-4.1732
X6.1218Y-5.0607
X6.1228Y-4.2186
X6.1398Y-4.4232
X6.1398Y-4.8406
X6.192Y-4.9297
X6.1926Y-4.3497
X6.2353Y-4.7876
X6.2356Y-4.4919
X6.25Y-4.6398
T2
G00X5.9535Y-4.4618
M15
G01X5.9969Y-4.4618
M16
G05
G00X5.9535Y-4.802
M15
G01X5.9969Y-4.802
M16
G05
G00X6.124Y-4.4618
M15
G01X6.1555Y-4.4618
M16
G05
G00X6.124Y-4.802
M15
G01X6.1555Y-4.802
M16
G05
M30
