%TF.GenerationSoftware,KiCad,Pcbnew,9.0.0*%
%TF.CreationDate,2026-01-31T22:23:39+01:00*%
%TF.ProjectId,DisplayBoard,44697370-6c61-4794-926f-6172642e6b69,rev?*%
%TF.SameCoordinates,Original*%
%TF.FileFunction,Soldermask,Top*%
%TF.FilePolarity,Negative*%
%FSLAX46Y46*%
G04 Gerber Fmt 4.6, Leading zero omitted, Abs format (unit mm)*
G04 Created by KiCad (PCBNEW 9.0.0) date 2026-01-31 22:23:39*
%MOMM*%
%LPD*%
G01*
G04 APERTURE LIST*
G04 Aperture macros list*
%AMRoundRect*
0 Rectangle with rounded corners*
0 $1 Rounding radius*
0 $2 $3 $4 $5 $6 $7 $8 $9 X,Y pos of 4 corners*
0 Add a 4 corners polygon primitive as box body*
4,1,4,$2,$3,$4,$5,$6,$7,$8,$9,$2,$3,0*
0 Add four circle primitives for the rounded corners*
1,1,$1+$1,$2,$3*
1,1,$1+$1,$4,$5*
1,1,$1+$1,$6,$7*
1,1,$1+$1,$8,$9*
0 Add four rect primitives between the rounded corners*
20,1,$1+$1,$2,$3,$4,$5,0*
20,1,$1+$1,$4,$5,$6,$7,0*
20,1,$1+$1,$6,$7,$8,$9,0*
20,1,$1+$1,$8,$9,$2,$3,0*%
%AMFreePoly0*
4,1,23,0.000000,0.745722,0.065263,0.745722,0.191342,0.711940,0.304381,0.646677,0.396677,0.554381,0.461940,0.441342,0.495722,0.315263,0.495722,0.250000,0.500000,0.250000,0.500000,-0.250000,0.495722,-0.250000,0.495722,-0.315263,0.461940,-0.441342,0.396677,-0.554381,0.304381,-0.646677,0.191342,-0.711940,0.065263,-0.745722,0.000000,-0.745722,0.000000,-0.750000,-0.500000,-0.750000,
-0.500000,0.750000,0.000000,0.750000,0.000000,0.745722,0.000000,0.745722,$1*%
%AMFreePoly1*
4,1,23,0.500000,-0.750000,0.000000,-0.750000,0.000000,-0.745722,-0.065263,-0.745722,-0.191342,-0.711940,-0.304381,-0.646677,-0.396677,-0.554381,-0.461940,-0.441342,-0.495722,-0.315263,-0.495722,-0.250000,-0.500000,-0.250000,-0.500000,0.250000,-0.495722,0.250000,-0.495722,0.315263,-0.461940,0.441342,-0.396677,0.554381,-0.304381,0.646677,-0.191342,0.711940,-0.065263,0.745722,0.000000,0.745722,
0.000000,0.750000,0.500000,0.750000,0.500000,-0.750000,0.500000,-0.750000,$1*%
G04 Aperture macros list end*
%ADD10C,0.010000*%
%ADD11C,0.000000*%
%ADD12RoundRect,0.157500X-0.942500X0.367500X-0.942500X-0.367500X0.942500X-0.367500X0.942500X0.367500X0*%
%ADD13RoundRect,0.150000X-0.350000X0.375000X-0.350000X-0.375000X0.350000X-0.375000X0.350000X0.375000X0*%
%ADD14O,1.204000X2.004000*%
%ADD15O,1.204000X2.304000*%
%ADD16RoundRect,0.200000X-0.200000X-0.275000X0.200000X-0.275000X0.200000X0.275000X-0.200000X0.275000X0*%
%ADD17RoundRect,0.250000X0.450000X-0.262500X0.450000X0.262500X-0.450000X0.262500X-0.450000X-0.262500X0*%
%ADD18RoundRect,0.250000X0.250000X0.475000X-0.250000X0.475000X-0.250000X-0.475000X0.250000X-0.475000X0*%
%ADD19RoundRect,0.218750X-0.218750X-0.256250X0.218750X-0.256250X0.218750X0.256250X-0.218750X0.256250X0*%
%ADD20RoundRect,0.250000X0.475000X-0.250000X0.475000X0.250000X-0.475000X0.250000X-0.475000X-0.250000X0*%
%ADD21RoundRect,0.240000X-1.260000X0.560000X-1.260000X-0.560000X1.260000X-0.560000X1.260000X0.560000X0*%
%ADD22RoundRect,0.180000X-2.870000X0.420000X-2.870000X-0.420000X2.870000X-0.420000X2.870000X0.420000X0*%
%ADD23RoundRect,0.150000X0.150000X-0.512500X0.150000X0.512500X-0.150000X0.512500X-0.150000X-0.512500X0*%
%ADD24RoundRect,0.375000X0.375000X-0.625000X0.375000X0.625000X-0.375000X0.625000X-0.375000X-0.625000X0*%
%ADD25RoundRect,0.500000X1.400000X-0.500000X1.400000X0.500000X-1.400000X0.500000X-1.400000X-0.500000X0*%
%ADD26RoundRect,0.250000X-0.475000X0.250000X-0.475000X-0.250000X0.475000X-0.250000X0.475000X0.250000X0*%
%ADD27FreePoly0,0.000000*%
%ADD28FreePoly1,0.000000*%
%ADD29RoundRect,0.225000X-0.250000X0.225000X-0.250000X-0.225000X0.250000X-0.225000X0.250000X0.225000X0*%
%ADD30RoundRect,0.200000X-0.275000X0.200000X-0.275000X-0.200000X0.275000X-0.200000X0.275000X0.200000X0*%
%ADD31RoundRect,0.200000X0.200000X0.275000X-0.200000X0.275000X-0.200000X-0.275000X0.200000X-0.275000X0*%
%ADD32RoundRect,0.200000X0.275000X-0.200000X0.275000X0.200000X-0.275000X0.200000X-0.275000X-0.200000X0*%
%ADD33RoundRect,0.157500X-0.367500X-0.842500X0.367500X-0.842500X0.367500X0.842500X-0.367500X0.842500X0*%
%ADD34RoundRect,0.120000X-0.280000X-0.330000X0.280000X-0.330000X0.280000X0.330000X-0.280000X0.330000X0*%
%ADD35RoundRect,0.150000X0.587500X0.150000X-0.587500X0.150000X-0.587500X-0.150000X0.587500X-0.150000X0*%
%ADD36RoundRect,0.135000X-0.315000X0.540000X-0.315000X-0.540000X0.315000X-0.540000X0.315000X0.540000X0*%
%ADD37RoundRect,0.150000X-0.825000X-0.150000X0.825000X-0.150000X0.825000X0.150000X-0.825000X0.150000X0*%
%ADD38RoundRect,0.102000X-2.000000X-2.000000X2.000000X-2.000000X2.000000X2.000000X-2.000000X2.000000X0*%
G04 APERTURE END LIST*
D10*
%TO.C,USBC501*%
X104349999Y-131069999D02*
X103650001Y-131069999D01*
X103649998Y-129020001D01*
X104350000Y-129020000D01*
X104349999Y-131069999D01*
G36*
X104349999Y-131069999D02*
G01*
X103650001Y-131069999D01*
X103649998Y-129020001D01*
X104350000Y-129020000D01*
X104349999Y-131069999D01*
G37*
X103550001Y-131070000D02*
X102850000Y-131070001D01*
X102850000Y-129020000D01*
X103550001Y-129020000D01*
X103550001Y-131070000D01*
G36*
X103550001Y-131070000D02*
G01*
X102850000Y-131070001D01*
X102850000Y-129020000D01*
X103550001Y-129020000D01*
X103550001Y-131070000D01*
G37*
X102750000Y-131070000D02*
X102350000Y-131069999D01*
X102350000Y-129020000D01*
X102750001Y-129019999D01*
X102750000Y-131070000D01*
G36*
X102750000Y-131070000D02*
G01*
X102350000Y-131069999D01*
X102350000Y-129020000D01*
X102750001Y-129019999D01*
X102750000Y-131070000D01*
G37*
X102250000Y-129020000D02*
X102250000Y-131070000D01*
X101850000Y-131070001D01*
X101850000Y-129019999D01*
X102250000Y-129020000D01*
G36*
X102250000Y-129020000D02*
G01*
X102250000Y-131070000D01*
X101850000Y-131070001D01*
X101850000Y-129019999D01*
X102250000Y-129020000D01*
G37*
X101750000Y-131070000D02*
X101350000Y-131070000D01*
X101350000Y-129020001D01*
X101750001Y-129020001D01*
X101750000Y-131070000D01*
G36*
X101750000Y-131070000D02*
G01*
X101350000Y-131070000D01*
X101350000Y-129020001D01*
X101750001Y-129020001D01*
X101750000Y-131070000D01*
G37*
X101250001Y-131070000D02*
X100850000Y-131070000D01*
X100849999Y-129020000D01*
X101250000Y-129020000D01*
X101250001Y-131070000D01*
G36*
X101250001Y-131070000D02*
G01*
X100850000Y-131070000D01*
X100849999Y-129020000D01*
X101250000Y-129020000D01*
X101250001Y-131070000D01*
G37*
X100750000Y-131070001D02*
X100350001Y-131069999D01*
X100349999Y-129020001D01*
X100750000Y-129020000D01*
X100750000Y-131070001D01*
G36*
X100750000Y-131070001D02*
G01*
X100350001Y-131069999D01*
X100349999Y-129020001D01*
X100750000Y-129020000D01*
X100750000Y-131070001D01*
G37*
X100250000Y-131070000D02*
X99850002Y-131070000D01*
X99850000Y-129020001D01*
X100250000Y-129019998D01*
X100250000Y-131070000D01*
G36*
X100250000Y-131070000D02*
G01*
X99850002Y-131070000D01*
X99850000Y-129020001D01*
X100250000Y-129019998D01*
X100250000Y-131070000D01*
G37*
X99749999Y-131070000D02*
X99350000Y-131070001D01*
X99350001Y-129020000D01*
X99750001Y-129020000D01*
X99749999Y-131070000D01*
G36*
X99749999Y-131070000D02*
G01*
X99350000Y-131070001D01*
X99350001Y-129020000D01*
X99750001Y-129020000D01*
X99749999Y-131070000D01*
G37*
X99250000Y-129020000D02*
X99249998Y-131069999D01*
X98849999Y-131070000D01*
X98850000Y-129019999D01*
X99250000Y-129020000D01*
G36*
X99250000Y-129020000D02*
G01*
X99249998Y-131069999D01*
X98849999Y-131070000D01*
X98850000Y-129019999D01*
X99250000Y-129020000D01*
G37*
X98750000Y-131070000D02*
X98050000Y-131070001D01*
X98050000Y-129020000D01*
X98750000Y-129020000D01*
X98750000Y-131070000D01*
G36*
X98750000Y-131070000D02*
G01*
X98050000Y-131070001D01*
X98050000Y-129020000D01*
X98750000Y-129020000D01*
X98750000Y-131070000D01*
G37*
X97949999Y-131069999D02*
X97250000Y-131069999D01*
X97250001Y-129020000D01*
X97950001Y-129019999D01*
X97949999Y-131069999D01*
G36*
X97949999Y-131069999D02*
G01*
X97250000Y-131069999D01*
X97250001Y-129020000D01*
X97950001Y-129019999D01*
X97949999Y-131069999D01*
G37*
D11*
%TO.C,JP501*%
G36*
X110449999Y-127950000D02*
G01*
X110150000Y-127950000D01*
X110150001Y-126450000D01*
X110450000Y-126450000D01*
X110449999Y-127950000D01*
G37*
D10*
%TO.C,U201*%
X97060000Y-116644563D02*
X96490000Y-116644563D01*
X96490000Y-116294563D01*
X97060000Y-116294563D01*
X97060000Y-116644563D01*
G36*
X97060000Y-116644563D02*
G01*
X96490000Y-116644563D01*
X96490000Y-116294563D01*
X97060000Y-116294563D01*
X97060000Y-116644563D01*
G37*
X97060000Y-117044563D02*
X96490000Y-117044563D01*
X96490000Y-116694563D01*
X97060000Y-116694563D01*
X97060000Y-117044563D01*
G36*
X97060000Y-117044563D02*
G01*
X96490000Y-117044563D01*
X96490000Y-116694563D01*
X97060000Y-116694563D01*
X97060000Y-117044563D01*
G37*
X97060000Y-117444563D02*
X96490000Y-117444563D01*
X96490000Y-117094563D01*
X97060000Y-117094563D01*
X97060000Y-117444563D01*
G36*
X97060000Y-117444563D02*
G01*
X96490000Y-117444563D01*
X96490000Y-117094563D01*
X97060000Y-117094563D01*
X97060000Y-117444563D01*
G37*
X97060000Y-117844563D02*
X96490000Y-117844563D01*
X96490000Y-117494563D01*
X97060000Y-117494563D01*
X97060000Y-117844563D01*
G36*
X97060000Y-117844563D02*
G01*
X96490000Y-117844563D01*
X96490000Y-117494563D01*
X97060000Y-117494563D01*
X97060000Y-117844563D01*
G37*
X97060000Y-118244563D02*
X96490000Y-118244563D01*
X96490000Y-117894563D01*
X97060000Y-117894563D01*
X97060000Y-118244563D01*
G36*
X97060000Y-118244563D02*
G01*
X96490000Y-118244563D01*
X96490000Y-117894563D01*
X97060000Y-117894563D01*
X97060000Y-118244563D01*
G37*
X97060000Y-118644563D02*
X96490000Y-118644563D01*
X96490000Y-118294563D01*
X97060000Y-118294563D01*
X97060000Y-118644563D01*
G36*
X97060000Y-118644563D02*
G01*
X96490000Y-118644563D01*
X96490000Y-118294563D01*
X97060000Y-118294563D01*
X97060000Y-118644563D01*
G37*
X97060000Y-119044563D02*
X96490000Y-119044563D01*
X96490000Y-118694563D01*
X97060000Y-118694563D01*
X97060000Y-119044563D01*
G36*
X97060000Y-119044563D02*
G01*
X96490000Y-119044563D01*
X96490000Y-118694563D01*
X97060000Y-118694563D01*
X97060000Y-119044563D01*
G37*
X97060000Y-119444563D02*
X96490000Y-119444563D01*
X96490000Y-119094563D01*
X97060000Y-119094563D01*
X97060000Y-119444563D01*
G36*
X97060000Y-119444563D02*
G01*
X96490000Y-119444563D01*
X96490000Y-119094563D01*
X97060000Y-119094563D01*
X97060000Y-119444563D01*
G37*
X97060000Y-119844563D02*
X96490000Y-119844563D01*
X96490000Y-119494563D01*
X97060000Y-119494563D01*
X97060000Y-119844563D01*
G36*
X97060000Y-119844563D02*
G01*
X96490000Y-119844563D01*
X96490000Y-119494563D01*
X97060000Y-119494563D01*
X97060000Y-119844563D01*
G37*
X97060000Y-120244563D02*
X96490000Y-120244563D01*
X96490000Y-119894563D01*
X97060000Y-119894563D01*
X97060000Y-120244563D01*
G36*
X97060000Y-120244563D02*
G01*
X96490000Y-120244563D01*
X96490000Y-119894563D01*
X97060000Y-119894563D01*
X97060000Y-120244563D01*
G37*
X97060000Y-120644563D02*
X96490000Y-120644563D01*
X96490000Y-120294563D01*
X97060000Y-120294563D01*
X97060000Y-120644563D01*
G36*
X97060000Y-120644563D02*
G01*
X96490000Y-120644563D01*
X96490000Y-120294563D01*
X97060000Y-120294563D01*
X97060000Y-120644563D01*
G37*
X97060000Y-121044563D02*
X96490000Y-121044563D01*
X96490000Y-120694563D01*
X97060000Y-120694563D01*
X97060000Y-121044563D01*
G36*
X97060000Y-121044563D02*
G01*
X96490000Y-121044563D01*
X96490000Y-120694563D01*
X97060000Y-120694563D01*
X97060000Y-121044563D01*
G37*
X97060000Y-121444563D02*
X96490000Y-121444563D01*
X96490000Y-121094563D01*
X97060000Y-121094563D01*
X97060000Y-121444563D01*
G36*
X97060000Y-121444563D02*
G01*
X96490000Y-121444563D01*
X96490000Y-121094563D01*
X97060000Y-121094563D01*
X97060000Y-121444563D01*
G37*
X97060000Y-121844563D02*
X96490000Y-121844563D01*
X96490000Y-121494563D01*
X97060000Y-121494563D01*
X97060000Y-121844563D01*
G36*
X97060000Y-121844563D02*
G01*
X96490000Y-121844563D01*
X96490000Y-121494563D01*
X97060000Y-121494563D01*
X97060000Y-121844563D01*
G37*
X97575000Y-116129563D02*
X97225000Y-116129563D01*
X97225000Y-115559563D01*
X97575000Y-115559563D01*
X97575000Y-116129563D01*
G36*
X97575000Y-116129563D02*
G01*
X97225000Y-116129563D01*
X97225000Y-115559563D01*
X97575000Y-115559563D01*
X97575000Y-116129563D01*
G37*
X97575000Y-122579563D02*
X97225000Y-122579563D01*
X97225000Y-122009563D01*
X97575000Y-122009563D01*
X97575000Y-122579563D01*
G36*
X97575000Y-122579563D02*
G01*
X97225000Y-122579563D01*
X97225000Y-122009563D01*
X97575000Y-122009563D01*
X97575000Y-122579563D01*
G37*
X97975000Y-116129563D02*
X97625000Y-116129563D01*
X97625000Y-115559563D01*
X97975000Y-115559563D01*
X97975000Y-116129563D01*
G36*
X97975000Y-116129563D02*
G01*
X97625000Y-116129563D01*
X97625000Y-115559563D01*
X97975000Y-115559563D01*
X97975000Y-116129563D01*
G37*
X97975000Y-122579563D02*
X97625000Y-122579563D01*
X97625000Y-122009563D01*
X97975000Y-122009563D01*
X97975000Y-122579563D01*
G36*
X97975000Y-122579563D02*
G01*
X97625000Y-122579563D01*
X97625000Y-122009563D01*
X97975000Y-122009563D01*
X97975000Y-122579563D01*
G37*
X98375000Y-116129563D02*
X98025000Y-116129563D01*
X98025000Y-115559563D01*
X98375000Y-115559563D01*
X98375000Y-116129563D01*
G36*
X98375000Y-116129563D02*
G01*
X98025000Y-116129563D01*
X98025000Y-115559563D01*
X98375000Y-115559563D01*
X98375000Y-116129563D01*
G37*
X98375000Y-122579563D02*
X98025000Y-122579563D01*
X98025000Y-122009563D01*
X98375000Y-122009563D01*
X98375000Y-122579563D01*
G36*
X98375000Y-122579563D02*
G01*
X98025000Y-122579563D01*
X98025000Y-122009563D01*
X98375000Y-122009563D01*
X98375000Y-122579563D01*
G37*
X98775000Y-116129563D02*
X98425000Y-116129563D01*
X98425000Y-115559563D01*
X98775000Y-115559563D01*
X98775000Y-116129563D01*
G36*
X98775000Y-116129563D02*
G01*
X98425000Y-116129563D01*
X98425000Y-115559563D01*
X98775000Y-115559563D01*
X98775000Y-116129563D01*
G37*
X98775000Y-122579563D02*
X98425000Y-122579563D01*
X98425000Y-122009563D01*
X98775000Y-122009563D01*
X98775000Y-122579563D01*
G36*
X98775000Y-122579563D02*
G01*
X98425000Y-122579563D01*
X98425000Y-122009563D01*
X98775000Y-122009563D01*
X98775000Y-122579563D01*
G37*
X99175000Y-116129563D02*
X98825000Y-116129563D01*
X98825000Y-115559563D01*
X99175000Y-115559563D01*
X99175000Y-116129563D01*
G36*
X99175000Y-116129563D02*
G01*
X98825000Y-116129563D01*
X98825000Y-115559563D01*
X99175000Y-115559563D01*
X99175000Y-116129563D01*
G37*
X99175000Y-122579563D02*
X98825000Y-122579563D01*
X98825000Y-122009563D01*
X99175000Y-122009563D01*
X99175000Y-122579563D01*
G36*
X99175000Y-122579563D02*
G01*
X98825000Y-122579563D01*
X98825000Y-122009563D01*
X99175000Y-122009563D01*
X99175000Y-122579563D01*
G37*
X99575000Y-116129563D02*
X99225000Y-116129563D01*
X99225000Y-115559563D01*
X99575000Y-115559563D01*
X99575000Y-116129563D01*
G36*
X99575000Y-116129563D02*
G01*
X99225000Y-116129563D01*
X99225000Y-115559563D01*
X99575000Y-115559563D01*
X99575000Y-116129563D01*
G37*
X99575000Y-122579563D02*
X99225000Y-122579563D01*
X99225000Y-122009563D01*
X99575000Y-122009563D01*
X99575000Y-122579563D01*
G36*
X99575000Y-122579563D02*
G01*
X99225000Y-122579563D01*
X99225000Y-122009563D01*
X99575000Y-122009563D01*
X99575000Y-122579563D01*
G37*
X99975000Y-116129563D02*
X99625000Y-116129563D01*
X99625000Y-115559563D01*
X99975000Y-115559563D01*
X99975000Y-116129563D01*
G36*
X99975000Y-116129563D02*
G01*
X99625000Y-116129563D01*
X99625000Y-115559563D01*
X99975000Y-115559563D01*
X99975000Y-116129563D01*
G37*
X99975000Y-122579563D02*
X99625000Y-122579563D01*
X99625000Y-122009563D01*
X99975000Y-122009563D01*
X99975000Y-122579563D01*
G36*
X99975000Y-122579563D02*
G01*
X99625000Y-122579563D01*
X99625000Y-122009563D01*
X99975000Y-122009563D01*
X99975000Y-122579563D01*
G37*
X100375000Y-116129563D02*
X100025000Y-116129563D01*
X100025000Y-115559563D01*
X100375000Y-115559563D01*
X100375000Y-116129563D01*
G36*
X100375000Y-116129563D02*
G01*
X100025000Y-116129563D01*
X100025000Y-115559563D01*
X100375000Y-115559563D01*
X100375000Y-116129563D01*
G37*
X100375000Y-122579563D02*
X100025000Y-122579563D01*
X100025000Y-122009563D01*
X100375000Y-122009563D01*
X100375000Y-122579563D01*
G36*
X100375000Y-122579563D02*
G01*
X100025000Y-122579563D01*
X100025000Y-122009563D01*
X100375000Y-122009563D01*
X100375000Y-122579563D01*
G37*
X100775000Y-116129563D02*
X100425000Y-116129563D01*
X100425000Y-115559563D01*
X100775000Y-115559563D01*
X100775000Y-116129563D01*
G36*
X100775000Y-116129563D02*
G01*
X100425000Y-116129563D01*
X100425000Y-115559563D01*
X100775000Y-115559563D01*
X100775000Y-116129563D01*
G37*
X100775000Y-122579563D02*
X100425000Y-122579563D01*
X100425000Y-122009563D01*
X100775000Y-122009563D01*
X100775000Y-122579563D01*
G36*
X100775000Y-122579563D02*
G01*
X100425000Y-122579563D01*
X100425000Y-122009563D01*
X100775000Y-122009563D01*
X100775000Y-122579563D01*
G37*
X101175000Y-116129563D02*
X100825000Y-116129563D01*
X100825000Y-115559563D01*
X101175000Y-115559563D01*
X101175000Y-116129563D01*
G36*
X101175000Y-116129563D02*
G01*
X100825000Y-116129563D01*
X100825000Y-115559563D01*
X101175000Y-115559563D01*
X101175000Y-116129563D01*
G37*
X101175000Y-122579563D02*
X100825000Y-122579563D01*
X100825000Y-122009563D01*
X101175000Y-122009563D01*
X101175000Y-122579563D01*
G36*
X101175000Y-122579563D02*
G01*
X100825000Y-122579563D01*
X100825000Y-122009563D01*
X101175000Y-122009563D01*
X101175000Y-122579563D01*
G37*
X101575000Y-116129563D02*
X101225000Y-116129563D01*
X101225000Y-115559563D01*
X101575000Y-115559563D01*
X101575000Y-116129563D01*
G36*
X101575000Y-116129563D02*
G01*
X101225000Y-116129563D01*
X101225000Y-115559563D01*
X101575000Y-115559563D01*
X101575000Y-116129563D01*
G37*
X101575000Y-122579563D02*
X101225000Y-122579563D01*
X101225000Y-122009563D01*
X101575000Y-122009563D01*
X101575000Y-122579563D01*
G36*
X101575000Y-122579563D02*
G01*
X101225000Y-122579563D01*
X101225000Y-122009563D01*
X101575000Y-122009563D01*
X101575000Y-122579563D01*
G37*
X101975000Y-116129563D02*
X101625000Y-116129563D01*
X101625000Y-115559563D01*
X101975000Y-115559563D01*
X101975000Y-116129563D01*
G36*
X101975000Y-116129563D02*
G01*
X101625000Y-116129563D01*
X101625000Y-115559563D01*
X101975000Y-115559563D01*
X101975000Y-116129563D01*
G37*
X101975000Y-122579563D02*
X101625000Y-122579563D01*
X101625000Y-122009563D01*
X101975000Y-122009563D01*
X101975000Y-122579563D01*
G36*
X101975000Y-122579563D02*
G01*
X101625000Y-122579563D01*
X101625000Y-122009563D01*
X101975000Y-122009563D01*
X101975000Y-122579563D01*
G37*
X102375000Y-116129563D02*
X102025000Y-116129563D01*
X102025000Y-115559563D01*
X102375000Y-115559563D01*
X102375000Y-116129563D01*
G36*
X102375000Y-116129563D02*
G01*
X102025000Y-116129563D01*
X102025000Y-115559563D01*
X102375000Y-115559563D01*
X102375000Y-116129563D01*
G37*
X102375000Y-122579563D02*
X102025000Y-122579563D01*
X102025000Y-122009563D01*
X102375000Y-122009563D01*
X102375000Y-122579563D01*
G36*
X102375000Y-122579563D02*
G01*
X102025000Y-122579563D01*
X102025000Y-122009563D01*
X102375000Y-122009563D01*
X102375000Y-122579563D01*
G37*
X102775000Y-116129563D02*
X102425000Y-116129563D01*
X102425000Y-115559563D01*
X102775000Y-115559563D01*
X102775000Y-116129563D01*
G36*
X102775000Y-116129563D02*
G01*
X102425000Y-116129563D01*
X102425000Y-115559563D01*
X102775000Y-115559563D01*
X102775000Y-116129563D01*
G37*
X102775000Y-122579563D02*
X102425000Y-122579563D01*
X102425000Y-122009563D01*
X102775000Y-122009563D01*
X102775000Y-122579563D01*
G36*
X102775000Y-122579563D02*
G01*
X102425000Y-122579563D01*
X102425000Y-122009563D01*
X102775000Y-122009563D01*
X102775000Y-122579563D01*
G37*
X103510000Y-116644563D02*
X102940000Y-116644563D01*
X102940000Y-116294563D01*
X103510000Y-116294563D01*
X103510000Y-116644563D01*
G36*
X103510000Y-116644563D02*
G01*
X102940000Y-116644563D01*
X102940000Y-116294563D01*
X103510000Y-116294563D01*
X103510000Y-116644563D01*
G37*
X103510000Y-117044563D02*
X102940000Y-117044563D01*
X102940000Y-116694563D01*
X103510000Y-116694563D01*
X103510000Y-117044563D01*
G36*
X103510000Y-117044563D02*
G01*
X102940000Y-117044563D01*
X102940000Y-116694563D01*
X103510000Y-116694563D01*
X103510000Y-117044563D01*
G37*
X103510000Y-117444563D02*
X102940000Y-117444563D01*
X102940000Y-117094563D01*
X103510000Y-117094563D01*
X103510000Y-117444563D01*
G36*
X103510000Y-117444563D02*
G01*
X102940000Y-117444563D01*
X102940000Y-117094563D01*
X103510000Y-117094563D01*
X103510000Y-117444563D01*
G37*
X103510000Y-117844563D02*
X102940000Y-117844563D01*
X102940000Y-117494563D01*
X103510000Y-117494563D01*
X103510000Y-117844563D01*
G36*
X103510000Y-117844563D02*
G01*
X102940000Y-117844563D01*
X102940000Y-117494563D01*
X103510000Y-117494563D01*
X103510000Y-117844563D01*
G37*
X103510000Y-118244563D02*
X102940000Y-118244563D01*
X102940000Y-117894563D01*
X103510000Y-117894563D01*
X103510000Y-118244563D01*
G36*
X103510000Y-118244563D02*
G01*
X102940000Y-118244563D01*
X102940000Y-117894563D01*
X103510000Y-117894563D01*
X103510000Y-118244563D01*
G37*
X103510000Y-118644563D02*
X102940000Y-118644563D01*
X102940000Y-118294563D01*
X103510000Y-118294563D01*
X103510000Y-118644563D01*
G36*
X103510000Y-118644563D02*
G01*
X102940000Y-118644563D01*
X102940000Y-118294563D01*
X103510000Y-118294563D01*
X103510000Y-118644563D01*
G37*
X103510000Y-119044563D02*
X102940000Y-119044563D01*
X102940000Y-118694563D01*
X103510000Y-118694563D01*
X103510000Y-119044563D01*
G36*
X103510000Y-119044563D02*
G01*
X102940000Y-119044563D01*
X102940000Y-118694563D01*
X103510000Y-118694563D01*
X103510000Y-119044563D01*
G37*
X103510000Y-119444563D02*
X102940000Y-119444563D01*
X102940000Y-119094563D01*
X103510000Y-119094563D01*
X103510000Y-119444563D01*
G36*
X103510000Y-119444563D02*
G01*
X102940000Y-119444563D01*
X102940000Y-119094563D01*
X103510000Y-119094563D01*
X103510000Y-119444563D01*
G37*
X103510000Y-119844563D02*
X102940000Y-119844563D01*
X102940000Y-119494563D01*
X103510000Y-119494563D01*
X103510000Y-119844563D01*
G36*
X103510000Y-119844563D02*
G01*
X102940000Y-119844563D01*
X102940000Y-119494563D01*
X103510000Y-119494563D01*
X103510000Y-119844563D01*
G37*
X103510000Y-120244563D02*
X102940000Y-120244563D01*
X102940000Y-119894563D01*
X103510000Y-119894563D01*
X103510000Y-120244563D01*
G36*
X103510000Y-120244563D02*
G01*
X102940000Y-120244563D01*
X102940000Y-119894563D01*
X103510000Y-119894563D01*
X103510000Y-120244563D01*
G37*
X103510000Y-120644563D02*
X102940000Y-120644563D01*
X102940000Y-120294563D01*
X103510000Y-120294563D01*
X103510000Y-120644563D01*
G36*
X103510000Y-120644563D02*
G01*
X102940000Y-120644563D01*
X102940000Y-120294563D01*
X103510000Y-120294563D01*
X103510000Y-120644563D01*
G37*
X103510000Y-121044563D02*
X102940000Y-121044563D01*
X102940000Y-120694563D01*
X103510000Y-120694563D01*
X103510000Y-121044563D01*
G36*
X103510000Y-121044563D02*
G01*
X102940000Y-121044563D01*
X102940000Y-120694563D01*
X103510000Y-120694563D01*
X103510000Y-121044563D01*
G37*
X103510000Y-121444563D02*
X102940000Y-121444563D01*
X102940000Y-121094563D01*
X103510000Y-121094563D01*
X103510000Y-121444563D01*
G36*
X103510000Y-121444563D02*
G01*
X102940000Y-121444563D01*
X102940000Y-121094563D01*
X103510000Y-121094563D01*
X103510000Y-121444563D01*
G37*
X103510000Y-121844563D02*
X102940000Y-121844563D01*
X102940000Y-121494563D01*
X103510000Y-121494563D01*
X103510000Y-121844563D01*
G36*
X103510000Y-121844563D02*
G01*
X102940000Y-121844563D01*
X102940000Y-121494563D01*
X103510000Y-121494563D01*
X103510000Y-121844563D01*
G37*
%TD*%
D12*
%TO.C,J201*%
X87300000Y-117975000D03*
D13*
X85800000Y-116500000D03*
D12*
X87300000Y-115025000D03*
D13*
X88800000Y-116500000D03*
%TD*%
D14*
%TO.C,USBC501*%
X105119999Y-135200000D03*
X96480001Y-135200000D03*
D15*
X105120001Y-131020000D03*
X96480000Y-131019999D03*
%TD*%
D16*
%TO.C,R401*%
X93625000Y-105900000D03*
X91975000Y-105900000D03*
%TD*%
D17*
%TO.C,D401*%
X94400000Y-102275000D03*
X94400000Y-104100000D03*
%TD*%
D18*
%TO.C,C403*%
X88550000Y-105900000D03*
X90450000Y-105900000D03*
%TD*%
D19*
%TO.C,FB401*%
X92587500Y-104100000D03*
X91012500Y-104100000D03*
%TD*%
D18*
%TO.C,C404*%
X92050000Y-107700000D03*
X93950000Y-107700000D03*
%TD*%
D20*
%TO.C,C405*%
X107000000Y-114950000D03*
X107000000Y-113050000D03*
%TD*%
D21*
%TO.C,J401*%
X98050000Y-101700000D03*
X98050000Y-112500000D03*
D22*
X100300000Y-104100000D03*
X100300000Y-106100000D03*
X100300000Y-108100000D03*
X100300000Y-110100000D03*
%TD*%
D23*
%TO.C,U501*%
X105750000Y-125662500D03*
X106700000Y-125662500D03*
X107650000Y-125662500D03*
X107650000Y-127937500D03*
X106700000Y-127937500D03*
X105750000Y-127937500D03*
%TD*%
D20*
%TO.C,C301*%
X94800000Y-127750000D03*
X94800000Y-125850000D03*
%TD*%
D24*
%TO.C,U502*%
X114600000Y-124550000D03*
D25*
X112300000Y-118250000D03*
D24*
X112300000Y-124550000D03*
X110000000Y-124550000D03*
%TD*%
D26*
%TO.C,C502*%
X107600000Y-121450000D03*
X107600000Y-119550000D03*
%TD*%
D27*
%TO.C,JP501*%
X110950000Y-127200000D03*
D28*
X109650000Y-127200000D03*
%TD*%
D29*
%TO.C,C204*%
X90412281Y-116470000D03*
X90412281Y-118020000D03*
%TD*%
D30*
%TO.C,R301*%
X93000000Y-125900000D03*
X93000000Y-127550000D03*
%TD*%
%TO.C,Rusb502*%
X94800000Y-134375000D03*
X94800000Y-136025000D03*
%TD*%
D31*
%TO.C,R203*%
X95325000Y-121700000D03*
X93675000Y-121700000D03*
%TD*%
D32*
%TO.C,R204*%
X104900000Y-114825000D03*
X104900000Y-113175000D03*
%TD*%
D26*
%TO.C,C401*%
X90100000Y-107750000D03*
X90100000Y-109650000D03*
%TD*%
D33*
%TO.C,SPST201*%
X90850000Y-123700000D03*
X95300000Y-123700000D03*
%TD*%
D32*
%TO.C,R201*%
X87500000Y-123725000D03*
X87500000Y-122075000D03*
%TD*%
D34*
%TO.C,Q301*%
X91450000Y-127525000D03*
X89550000Y-127525000D03*
X90500000Y-129525000D03*
%TD*%
D33*
%TO.C,RST201*%
X87250000Y-120100000D03*
X91700000Y-120100000D03*
%TD*%
D16*
%TO.C,R206*%
X97775000Y-114500000D03*
X99425000Y-114500000D03*
%TD*%
D18*
%TO.C,C201*%
X95250000Y-119900000D03*
X93350000Y-119900000D03*
%TD*%
D35*
%TO.C,D402*%
X107037500Y-108850000D03*
X107037500Y-106950000D03*
X105162500Y-107900000D03*
%TD*%
D29*
%TO.C,C205*%
X95012281Y-116470000D03*
X95012281Y-118020000D03*
%TD*%
D20*
%TO.C,C203*%
X94300000Y-112850000D03*
X94300000Y-110950000D03*
%TD*%
D26*
%TO.C,C402*%
X88000000Y-107750000D03*
X88000000Y-109650000D03*
%TD*%
D30*
%TO.C,R302*%
X93000000Y-129000000D03*
X93000000Y-130650000D03*
%TD*%
D19*
%TO.C,L201*%
X91912500Y-116500000D03*
X93487500Y-116500000D03*
%TD*%
D36*
%TO.C,L401*%
X111350000Y-105825000D03*
X108850000Y-105825000D03*
X108850000Y-110375000D03*
X111350000Y-110375000D03*
%TD*%
D18*
%TO.C,C202*%
X95250000Y-114700000D03*
X93350000Y-114700000D03*
%TD*%
D31*
%TO.C,R205*%
X102525000Y-114500000D03*
X100875000Y-114500000D03*
%TD*%
D37*
%TO.C,U401*%
X109525000Y-112295000D03*
X109525000Y-113565000D03*
X109525000Y-114835000D03*
X109525000Y-116105000D03*
X114475000Y-116105000D03*
X114475000Y-114835000D03*
X114475000Y-113565000D03*
X114475000Y-112295000D03*
%TD*%
D31*
%TO.C,R402*%
X106725000Y-116700000D03*
X105075000Y-116700000D03*
%TD*%
D32*
%TO.C,Rusb501*%
X94800000Y-132925000D03*
X94800000Y-131275000D03*
%TD*%
%TO.C,R202*%
X89100000Y-123725000D03*
X89100000Y-122075000D03*
%TD*%
D38*
%TO.C,U201*%
X100000000Y-119069563D03*
%TD*%
D18*
%TO.C,C501*%
X111250000Y-129600000D03*
X109350000Y-129600000D03*
%TD*%
M02*
