%TF.GenerationSoftware,KiCad,Pcbnew,9.0.0*%
%TF.CreationDate,2025-10-25T14:56:04+02:00*%
%TF.ProjectId,DisplayBoard,44697370-6c61-4794-926f-6172642e6b69,rev?*%
%TF.SameCoordinates,Original*%
%TF.FileFunction,Soldermask,Bot*%
%TF.FilePolarity,Negative*%
%FSLAX46Y46*%
G04 Gerber Fmt 4.6, Leading zero omitted, Abs format (unit mm)*
G04 Created by KiCad (PCBNEW 9.0.0) date 2025-10-25 14:56:04*
%MOMM*%
%LPD*%
G01*
G04 APERTURE LIST*
G04 Aperture macros list*
%AMRoundRect*
0 Rectangle with rounded corners*
0 $1 Rounding radius*
0 $2 $3 $4 $5 $6 $7 $8 $9 X,Y pos of 4 corners*
0 Add a 4 corners polygon primitive as box body*
4,1,4,$2,$3,$4,$5,$6,$7,$8,$9,$2,$3,0*
0 Add four circle primitives for the rounded corners*
1,1,$1+$1,$2,$3*
1,1,$1+$1,$4,$5*
1,1,$1+$1,$6,$7*
1,1,$1+$1,$8,$9*
0 Add four rect primitives between the rounded corners*
20,1,$1+$1,$2,$3,$4,$5,0*
20,1,$1+$1,$4,$5,$6,$7,0*
20,1,$1+$1,$6,$7,$8,$9,0*
20,1,$1+$1,$8,$9,$2,$3,0*%
%AMFreePoly0*
4,1,23,0.500000,-0.750000,0.000000,-0.750000,0.000000,-0.745722,-0.065263,-0.745722,-0.191342,-0.711940,-0.304381,-0.646677,-0.396677,-0.554381,-0.461940,-0.441342,-0.495722,-0.315263,-0.495722,-0.250000,-0.500000,-0.250000,-0.500000,0.250000,-0.495722,0.250000,-0.495722,0.315263,-0.461940,0.441342,-0.396677,0.554381,-0.304381,0.646677,-0.191342,0.711940,-0.065263,0.745722,0.000000,0.745722,
0.000000,0.750000,0.500000,0.750000,0.500000,-0.750000,0.500000,-0.750000,$1*%
%AMFreePoly1*
4,1,23,0.000000,0.745722,0.065263,0.745722,0.191342,0.711940,0.304381,0.646677,0.396677,0.554381,0.461940,0.441342,0.495722,0.315263,0.495722,0.250000,0.500000,0.250000,0.500000,-0.250000,0.495722,-0.250000,0.495722,-0.315263,0.461940,-0.441342,0.396677,-0.554381,0.304381,-0.646677,0.191342,-0.711940,0.065263,-0.745722,0.000000,-0.745722,0.000000,-0.750000,-0.500000,-0.750000,
-0.500000,0.750000,0.000000,0.750000,0.000000,0.745722,0.000000,0.745722,$1*%
G04 Aperture macros list end*
%ADD10C,0.010000*%
%ADD11RoundRect,0.200000X0.275000X-0.200000X0.275000X0.200000X-0.275000X0.200000X-0.275000X-0.200000X0*%
%ADD12R,1.350000X1.800000*%
%ADD13RoundRect,0.200000X-0.275000X0.200000X-0.275000X-0.200000X0.275000X-0.200000X0.275000X0.200000X0*%
%ADD14RoundRect,0.250000X0.250000X0.475000X-0.250000X0.475000X-0.250000X-0.475000X0.250000X-0.475000X0*%
%ADD15RoundRect,0.375000X0.375000X-0.625000X0.375000X0.625000X-0.375000X0.625000X-0.375000X-0.625000X0*%
%ADD16RoundRect,0.500000X1.400000X-0.500000X1.400000X0.500000X-1.400000X0.500000X-1.400000X-0.500000X0*%
%ADD17RoundRect,0.200000X-0.200000X-0.275000X0.200000X-0.275000X0.200000X0.275000X-0.200000X0.275000X0*%
%ADD18RoundRect,0.225000X-0.375000X0.225000X-0.375000X-0.225000X0.375000X-0.225000X0.375000X0.225000X0*%
%ADD19RoundRect,0.200000X0.200000X0.275000X-0.200000X0.275000X-0.200000X-0.275000X0.200000X-0.275000X0*%
%ADD20RoundRect,0.250000X0.725000X-0.600000X0.725000X0.600000X-0.725000X0.600000X-0.725000X-0.600000X0*%
%ADD21O,1.950000X1.700000*%
%ADD22RoundRect,0.250000X-0.475000X0.250000X-0.475000X-0.250000X0.475000X-0.250000X0.475000X0.250000X0*%
%ADD23RoundRect,0.225000X0.225000X0.375000X-0.225000X0.375000X-0.225000X-0.375000X0.225000X-0.375000X0*%
%ADD24RoundRect,0.150000X0.477297X0.689429X-0.689429X-0.477297X-0.477297X-0.689429X0.689429X0.477297X0*%
%ADD25RoundRect,0.250000X-0.250000X-0.475000X0.250000X-0.475000X0.250000X0.475000X-0.250000X0.475000X0*%
%ADD26RoundRect,0.250000X0.159099X-0.512652X0.512652X-0.159099X-0.159099X0.512652X-0.512652X0.159099X0*%
%ADD27C,0.650000*%
%ADD28O,1.000000X2.100000*%
%ADD29O,1.000000X1.800000*%
%ADD30RoundRect,0.050000X-0.300000X0.150000X-0.300000X-0.150000X0.300000X-0.150000X0.300000X0.150000X0*%
%ADD31R,4.000000X4.000000*%
%ADD32FreePoly0,180.000000*%
%ADD33FreePoly1,180.000000*%
%ADD34RoundRect,0.150000X-0.150000X0.587500X-0.150000X-0.587500X0.150000X-0.587500X0.150000X0.587500X0*%
%ADD35RoundRect,0.050000X0.150000X0.300000X-0.150000X0.300000X-0.150000X-0.300000X0.150000X-0.300000X0*%
G04 APERTURE END LIST*
D10*
%TO.C,USBC501*%
X97077500Y-131057500D02*
X96377500Y-131057500D01*
X96377500Y-129007500D01*
X97077500Y-129007500D01*
X97077500Y-131057500D01*
G36*
X97077500Y-131057500D02*
G01*
X96377500Y-131057500D01*
X96377500Y-129007500D01*
X97077500Y-129007500D01*
X97077500Y-131057500D01*
G37*
X97877500Y-131057500D02*
X97177500Y-131057500D01*
X97177500Y-129007500D01*
X97877500Y-129007500D01*
X97877500Y-131057500D01*
G36*
X97877500Y-131057500D02*
G01*
X97177500Y-131057500D01*
X97177500Y-129007500D01*
X97877500Y-129007500D01*
X97877500Y-131057500D01*
G37*
X98377500Y-131057500D02*
X97977500Y-131057500D01*
X97977500Y-129007500D01*
X98377500Y-129007500D01*
X98377500Y-131057500D01*
G36*
X98377500Y-131057500D02*
G01*
X97977500Y-131057500D01*
X97977500Y-129007500D01*
X98377500Y-129007500D01*
X98377500Y-131057500D01*
G37*
X98877500Y-131057500D02*
X98477500Y-131057500D01*
X98477500Y-129007500D01*
X98877500Y-129007500D01*
X98877500Y-131057500D01*
G36*
X98877500Y-131057500D02*
G01*
X98477500Y-131057500D01*
X98477500Y-129007500D01*
X98877500Y-129007500D01*
X98877500Y-131057500D01*
G37*
X99377500Y-131057500D02*
X98977500Y-131057500D01*
X98977500Y-129007500D01*
X99377500Y-129007500D01*
X99377500Y-131057500D01*
G36*
X99377500Y-131057500D02*
G01*
X98977500Y-131057500D01*
X98977500Y-129007500D01*
X99377500Y-129007500D01*
X99377500Y-131057500D01*
G37*
X99877500Y-131057500D02*
X99477500Y-131057500D01*
X99477500Y-129007500D01*
X99877500Y-129007500D01*
X99877500Y-131057500D01*
G36*
X99877500Y-131057500D02*
G01*
X99477500Y-131057500D01*
X99477500Y-129007500D01*
X99877500Y-129007500D01*
X99877500Y-131057500D01*
G37*
X100377500Y-131057500D02*
X99977500Y-131057500D01*
X99977500Y-129007500D01*
X100377500Y-129007500D01*
X100377500Y-131057500D01*
G36*
X100377500Y-131057500D02*
G01*
X99977500Y-131057500D01*
X99977500Y-129007500D01*
X100377500Y-129007500D01*
X100377500Y-131057500D01*
G37*
X100877500Y-131057500D02*
X100477500Y-131057500D01*
X100477500Y-129007500D01*
X100877500Y-129007500D01*
X100877500Y-131057500D01*
G36*
X100877500Y-131057500D02*
G01*
X100477500Y-131057500D01*
X100477500Y-129007500D01*
X100877500Y-129007500D01*
X100877500Y-131057500D01*
G37*
X101377500Y-131057500D02*
X100977500Y-131057500D01*
X100977500Y-129007500D01*
X101377500Y-129007500D01*
X101377500Y-131057500D01*
G36*
X101377500Y-131057500D02*
G01*
X100977500Y-131057500D01*
X100977500Y-129007500D01*
X101377500Y-129007500D01*
X101377500Y-131057500D01*
G37*
X101877500Y-131057500D02*
X101477500Y-131057500D01*
X101477500Y-129007500D01*
X101877500Y-129007500D01*
X101877500Y-131057500D01*
G36*
X101877500Y-131057500D02*
G01*
X101477500Y-131057500D01*
X101477500Y-129007500D01*
X101877500Y-129007500D01*
X101877500Y-131057500D01*
G37*
X102677500Y-131057500D02*
X101977500Y-131057500D01*
X101977500Y-129007500D01*
X102677500Y-129007500D01*
X102677500Y-131057500D01*
G36*
X102677500Y-131057500D02*
G01*
X101977500Y-131057500D01*
X101977500Y-129007500D01*
X102677500Y-129007500D01*
X102677500Y-131057500D01*
G37*
X103477500Y-131057500D02*
X102777500Y-131057500D01*
X102777500Y-129007500D01*
X103477500Y-129007500D01*
X103477500Y-131057500D01*
G36*
X103477500Y-131057500D02*
G01*
X102777500Y-131057500D01*
X102777500Y-129007500D01*
X103477500Y-129007500D01*
X103477500Y-131057500D01*
G37*
%TO.C,U201*%
X105510000Y-111800000D02*
X104940000Y-111800000D01*
X104940000Y-111450000D01*
X105510000Y-111450000D01*
X105510000Y-111800000D01*
G36*
X105510000Y-111800000D02*
G01*
X104940000Y-111800000D01*
X104940000Y-111450000D01*
X105510000Y-111450000D01*
X105510000Y-111800000D01*
G37*
X105510000Y-112200000D02*
X104940000Y-112200000D01*
X104940000Y-111850000D01*
X105510000Y-111850000D01*
X105510000Y-112200000D01*
G36*
X105510000Y-112200000D02*
G01*
X104940000Y-112200000D01*
X104940000Y-111850000D01*
X105510000Y-111850000D01*
X105510000Y-112200000D01*
G37*
X105510000Y-112600000D02*
X104940000Y-112600000D01*
X104940000Y-112250000D01*
X105510000Y-112250000D01*
X105510000Y-112600000D01*
G36*
X105510000Y-112600000D02*
G01*
X104940000Y-112600000D01*
X104940000Y-112250000D01*
X105510000Y-112250000D01*
X105510000Y-112600000D01*
G37*
X105510000Y-113000000D02*
X104940000Y-113000000D01*
X104940000Y-112650000D01*
X105510000Y-112650000D01*
X105510000Y-113000000D01*
G36*
X105510000Y-113000000D02*
G01*
X104940000Y-113000000D01*
X104940000Y-112650000D01*
X105510000Y-112650000D01*
X105510000Y-113000000D01*
G37*
X105510000Y-113400000D02*
X104940000Y-113400000D01*
X104940000Y-113050000D01*
X105510000Y-113050000D01*
X105510000Y-113400000D01*
G36*
X105510000Y-113400000D02*
G01*
X104940000Y-113400000D01*
X104940000Y-113050000D01*
X105510000Y-113050000D01*
X105510000Y-113400000D01*
G37*
X105510000Y-113800000D02*
X104940000Y-113800000D01*
X104940000Y-113450000D01*
X105510000Y-113450000D01*
X105510000Y-113800000D01*
G36*
X105510000Y-113800000D02*
G01*
X104940000Y-113800000D01*
X104940000Y-113450000D01*
X105510000Y-113450000D01*
X105510000Y-113800000D01*
G37*
X105510000Y-114200000D02*
X104940000Y-114200000D01*
X104940000Y-113850000D01*
X105510000Y-113850000D01*
X105510000Y-114200000D01*
G36*
X105510000Y-114200000D02*
G01*
X104940000Y-114200000D01*
X104940000Y-113850000D01*
X105510000Y-113850000D01*
X105510000Y-114200000D01*
G37*
X105510000Y-114600000D02*
X104940000Y-114600000D01*
X104940000Y-114250000D01*
X105510000Y-114250000D01*
X105510000Y-114600000D01*
G36*
X105510000Y-114600000D02*
G01*
X104940000Y-114600000D01*
X104940000Y-114250000D01*
X105510000Y-114250000D01*
X105510000Y-114600000D01*
G37*
X105510000Y-115000000D02*
X104940000Y-115000000D01*
X104940000Y-114650000D01*
X105510000Y-114650000D01*
X105510000Y-115000000D01*
G36*
X105510000Y-115000000D02*
G01*
X104940000Y-115000000D01*
X104940000Y-114650000D01*
X105510000Y-114650000D01*
X105510000Y-115000000D01*
G37*
X105510000Y-115400000D02*
X104940000Y-115400000D01*
X104940000Y-115050000D01*
X105510000Y-115050000D01*
X105510000Y-115400000D01*
G36*
X105510000Y-115400000D02*
G01*
X104940000Y-115400000D01*
X104940000Y-115050000D01*
X105510000Y-115050000D01*
X105510000Y-115400000D01*
G37*
X105510000Y-115800000D02*
X104940000Y-115800000D01*
X104940000Y-115450000D01*
X105510000Y-115450000D01*
X105510000Y-115800000D01*
G36*
X105510000Y-115800000D02*
G01*
X104940000Y-115800000D01*
X104940000Y-115450000D01*
X105510000Y-115450000D01*
X105510000Y-115800000D01*
G37*
X105510000Y-116200000D02*
X104940000Y-116200000D01*
X104940000Y-115850000D01*
X105510000Y-115850000D01*
X105510000Y-116200000D01*
G36*
X105510000Y-116200000D02*
G01*
X104940000Y-116200000D01*
X104940000Y-115850000D01*
X105510000Y-115850000D01*
X105510000Y-116200000D01*
G37*
X105510000Y-116600000D02*
X104940000Y-116600000D01*
X104940000Y-116250000D01*
X105510000Y-116250000D01*
X105510000Y-116600000D01*
G36*
X105510000Y-116600000D02*
G01*
X104940000Y-116600000D01*
X104940000Y-116250000D01*
X105510000Y-116250000D01*
X105510000Y-116600000D01*
G37*
X105510000Y-117000000D02*
X104940000Y-117000000D01*
X104940000Y-116650000D01*
X105510000Y-116650000D01*
X105510000Y-117000000D01*
G36*
X105510000Y-117000000D02*
G01*
X104940000Y-117000000D01*
X104940000Y-116650000D01*
X105510000Y-116650000D01*
X105510000Y-117000000D01*
G37*
X106025000Y-111285000D02*
X105675000Y-111285000D01*
X105675000Y-110715000D01*
X106025000Y-110715000D01*
X106025000Y-111285000D01*
G36*
X106025000Y-111285000D02*
G01*
X105675000Y-111285000D01*
X105675000Y-110715000D01*
X106025000Y-110715000D01*
X106025000Y-111285000D01*
G37*
X106025000Y-117735000D02*
X105675000Y-117735000D01*
X105675000Y-117165000D01*
X106025000Y-117165000D01*
X106025000Y-117735000D01*
G36*
X106025000Y-117735000D02*
G01*
X105675000Y-117735000D01*
X105675000Y-117165000D01*
X106025000Y-117165000D01*
X106025000Y-117735000D01*
G37*
X106425000Y-111285000D02*
X106075000Y-111285000D01*
X106075000Y-110715000D01*
X106425000Y-110715000D01*
X106425000Y-111285000D01*
G36*
X106425000Y-111285000D02*
G01*
X106075000Y-111285000D01*
X106075000Y-110715000D01*
X106425000Y-110715000D01*
X106425000Y-111285000D01*
G37*
X106425000Y-117735000D02*
X106075000Y-117735000D01*
X106075000Y-117165000D01*
X106425000Y-117165000D01*
X106425000Y-117735000D01*
G36*
X106425000Y-117735000D02*
G01*
X106075000Y-117735000D01*
X106075000Y-117165000D01*
X106425000Y-117165000D01*
X106425000Y-117735000D01*
G37*
X106825000Y-111285000D02*
X106475000Y-111285000D01*
X106475000Y-110715000D01*
X106825000Y-110715000D01*
X106825000Y-111285000D01*
G36*
X106825000Y-111285000D02*
G01*
X106475000Y-111285000D01*
X106475000Y-110715000D01*
X106825000Y-110715000D01*
X106825000Y-111285000D01*
G37*
X106825000Y-117735000D02*
X106475000Y-117735000D01*
X106475000Y-117165000D01*
X106825000Y-117165000D01*
X106825000Y-117735000D01*
G36*
X106825000Y-117735000D02*
G01*
X106475000Y-117735000D01*
X106475000Y-117165000D01*
X106825000Y-117165000D01*
X106825000Y-117735000D01*
G37*
X107225000Y-111285000D02*
X106875000Y-111285000D01*
X106875000Y-110715000D01*
X107225000Y-110715000D01*
X107225000Y-111285000D01*
G36*
X107225000Y-111285000D02*
G01*
X106875000Y-111285000D01*
X106875000Y-110715000D01*
X107225000Y-110715000D01*
X107225000Y-111285000D01*
G37*
X107225000Y-117735000D02*
X106875000Y-117735000D01*
X106875000Y-117165000D01*
X107225000Y-117165000D01*
X107225000Y-117735000D01*
G36*
X107225000Y-117735000D02*
G01*
X106875000Y-117735000D01*
X106875000Y-117165000D01*
X107225000Y-117165000D01*
X107225000Y-117735000D01*
G37*
X107625000Y-111285000D02*
X107275000Y-111285000D01*
X107275000Y-110715000D01*
X107625000Y-110715000D01*
X107625000Y-111285000D01*
G36*
X107625000Y-111285000D02*
G01*
X107275000Y-111285000D01*
X107275000Y-110715000D01*
X107625000Y-110715000D01*
X107625000Y-111285000D01*
G37*
X107625000Y-117735000D02*
X107275000Y-117735000D01*
X107275000Y-117165000D01*
X107625000Y-117165000D01*
X107625000Y-117735000D01*
G36*
X107625000Y-117735000D02*
G01*
X107275000Y-117735000D01*
X107275000Y-117165000D01*
X107625000Y-117165000D01*
X107625000Y-117735000D01*
G37*
X108025000Y-111285000D02*
X107675000Y-111285000D01*
X107675000Y-110715000D01*
X108025000Y-110715000D01*
X108025000Y-111285000D01*
G36*
X108025000Y-111285000D02*
G01*
X107675000Y-111285000D01*
X107675000Y-110715000D01*
X108025000Y-110715000D01*
X108025000Y-111285000D01*
G37*
X108025000Y-117735000D02*
X107675000Y-117735000D01*
X107675000Y-117165000D01*
X108025000Y-117165000D01*
X108025000Y-117735000D01*
G36*
X108025000Y-117735000D02*
G01*
X107675000Y-117735000D01*
X107675000Y-117165000D01*
X108025000Y-117165000D01*
X108025000Y-117735000D01*
G37*
X108425000Y-111285000D02*
X108075000Y-111285000D01*
X108075000Y-110715000D01*
X108425000Y-110715000D01*
X108425000Y-111285000D01*
G36*
X108425000Y-111285000D02*
G01*
X108075000Y-111285000D01*
X108075000Y-110715000D01*
X108425000Y-110715000D01*
X108425000Y-111285000D01*
G37*
X108425000Y-117735000D02*
X108075000Y-117735000D01*
X108075000Y-117165000D01*
X108425000Y-117165000D01*
X108425000Y-117735000D01*
G36*
X108425000Y-117735000D02*
G01*
X108075000Y-117735000D01*
X108075000Y-117165000D01*
X108425000Y-117165000D01*
X108425000Y-117735000D01*
G37*
X108825000Y-111285000D02*
X108475000Y-111285000D01*
X108475000Y-110715000D01*
X108825000Y-110715000D01*
X108825000Y-111285000D01*
G36*
X108825000Y-111285000D02*
G01*
X108475000Y-111285000D01*
X108475000Y-110715000D01*
X108825000Y-110715000D01*
X108825000Y-111285000D01*
G37*
X108825000Y-117735000D02*
X108475000Y-117735000D01*
X108475000Y-117165000D01*
X108825000Y-117165000D01*
X108825000Y-117735000D01*
G36*
X108825000Y-117735000D02*
G01*
X108475000Y-117735000D01*
X108475000Y-117165000D01*
X108825000Y-117165000D01*
X108825000Y-117735000D01*
G37*
X109225000Y-111285000D02*
X108875000Y-111285000D01*
X108875000Y-110715000D01*
X109225000Y-110715000D01*
X109225000Y-111285000D01*
G36*
X109225000Y-111285000D02*
G01*
X108875000Y-111285000D01*
X108875000Y-110715000D01*
X109225000Y-110715000D01*
X109225000Y-111285000D01*
G37*
X109225000Y-117735000D02*
X108875000Y-117735000D01*
X108875000Y-117165000D01*
X109225000Y-117165000D01*
X109225000Y-117735000D01*
G36*
X109225000Y-117735000D02*
G01*
X108875000Y-117735000D01*
X108875000Y-117165000D01*
X109225000Y-117165000D01*
X109225000Y-117735000D01*
G37*
X109625000Y-111285000D02*
X109275000Y-111285000D01*
X109275000Y-110715000D01*
X109625000Y-110715000D01*
X109625000Y-111285000D01*
G36*
X109625000Y-111285000D02*
G01*
X109275000Y-111285000D01*
X109275000Y-110715000D01*
X109625000Y-110715000D01*
X109625000Y-111285000D01*
G37*
X109625000Y-117735000D02*
X109275000Y-117735000D01*
X109275000Y-117165000D01*
X109625000Y-117165000D01*
X109625000Y-117735000D01*
G36*
X109625000Y-117735000D02*
G01*
X109275000Y-117735000D01*
X109275000Y-117165000D01*
X109625000Y-117165000D01*
X109625000Y-117735000D01*
G37*
X110025000Y-111285000D02*
X109675000Y-111285000D01*
X109675000Y-110715000D01*
X110025000Y-110715000D01*
X110025000Y-111285000D01*
G36*
X110025000Y-111285000D02*
G01*
X109675000Y-111285000D01*
X109675000Y-110715000D01*
X110025000Y-110715000D01*
X110025000Y-111285000D01*
G37*
X110025000Y-117735000D02*
X109675000Y-117735000D01*
X109675000Y-117165000D01*
X110025000Y-117165000D01*
X110025000Y-117735000D01*
G36*
X110025000Y-117735000D02*
G01*
X109675000Y-117735000D01*
X109675000Y-117165000D01*
X110025000Y-117165000D01*
X110025000Y-117735000D01*
G37*
X110425000Y-111285000D02*
X110075000Y-111285000D01*
X110075000Y-110715000D01*
X110425000Y-110715000D01*
X110425000Y-111285000D01*
G36*
X110425000Y-111285000D02*
G01*
X110075000Y-111285000D01*
X110075000Y-110715000D01*
X110425000Y-110715000D01*
X110425000Y-111285000D01*
G37*
X110425000Y-117735000D02*
X110075000Y-117735000D01*
X110075000Y-117165000D01*
X110425000Y-117165000D01*
X110425000Y-117735000D01*
G36*
X110425000Y-117735000D02*
G01*
X110075000Y-117735000D01*
X110075000Y-117165000D01*
X110425000Y-117165000D01*
X110425000Y-117735000D01*
G37*
X110825000Y-111285000D02*
X110475000Y-111285000D01*
X110475000Y-110715000D01*
X110825000Y-110715000D01*
X110825000Y-111285000D01*
G36*
X110825000Y-111285000D02*
G01*
X110475000Y-111285000D01*
X110475000Y-110715000D01*
X110825000Y-110715000D01*
X110825000Y-111285000D01*
G37*
X110825000Y-117735000D02*
X110475000Y-117735000D01*
X110475000Y-117165000D01*
X110825000Y-117165000D01*
X110825000Y-117735000D01*
G36*
X110825000Y-117735000D02*
G01*
X110475000Y-117735000D01*
X110475000Y-117165000D01*
X110825000Y-117165000D01*
X110825000Y-117735000D01*
G37*
X111225000Y-111285000D02*
X110875000Y-111285000D01*
X110875000Y-110715000D01*
X111225000Y-110715000D01*
X111225000Y-111285000D01*
G36*
X111225000Y-111285000D02*
G01*
X110875000Y-111285000D01*
X110875000Y-110715000D01*
X111225000Y-110715000D01*
X111225000Y-111285000D01*
G37*
X111225000Y-117735000D02*
X110875000Y-117735000D01*
X110875000Y-117165000D01*
X111225000Y-117165000D01*
X111225000Y-117735000D01*
G36*
X111225000Y-117735000D02*
G01*
X110875000Y-117735000D01*
X110875000Y-117165000D01*
X111225000Y-117165000D01*
X111225000Y-117735000D01*
G37*
X111960000Y-111800000D02*
X111390000Y-111800000D01*
X111390000Y-111450000D01*
X111960000Y-111450000D01*
X111960000Y-111800000D01*
G36*
X111960000Y-111800000D02*
G01*
X111390000Y-111800000D01*
X111390000Y-111450000D01*
X111960000Y-111450000D01*
X111960000Y-111800000D01*
G37*
X111960000Y-112200000D02*
X111390000Y-112200000D01*
X111390000Y-111850000D01*
X111960000Y-111850000D01*
X111960000Y-112200000D01*
G36*
X111960000Y-112200000D02*
G01*
X111390000Y-112200000D01*
X111390000Y-111850000D01*
X111960000Y-111850000D01*
X111960000Y-112200000D01*
G37*
X111960000Y-112600000D02*
X111390000Y-112600000D01*
X111390000Y-112250000D01*
X111960000Y-112250000D01*
X111960000Y-112600000D01*
G36*
X111960000Y-112600000D02*
G01*
X111390000Y-112600000D01*
X111390000Y-112250000D01*
X111960000Y-112250000D01*
X111960000Y-112600000D01*
G37*
X111960000Y-113000000D02*
X111390000Y-113000000D01*
X111390000Y-112650000D01*
X111960000Y-112650000D01*
X111960000Y-113000000D01*
G36*
X111960000Y-113000000D02*
G01*
X111390000Y-113000000D01*
X111390000Y-112650000D01*
X111960000Y-112650000D01*
X111960000Y-113000000D01*
G37*
X111960000Y-113400000D02*
X111390000Y-113400000D01*
X111390000Y-113050000D01*
X111960000Y-113050000D01*
X111960000Y-113400000D01*
G36*
X111960000Y-113400000D02*
G01*
X111390000Y-113400000D01*
X111390000Y-113050000D01*
X111960000Y-113050000D01*
X111960000Y-113400000D01*
G37*
X111960000Y-113800000D02*
X111390000Y-113800000D01*
X111390000Y-113450000D01*
X111960000Y-113450000D01*
X111960000Y-113800000D01*
G36*
X111960000Y-113800000D02*
G01*
X111390000Y-113800000D01*
X111390000Y-113450000D01*
X111960000Y-113450000D01*
X111960000Y-113800000D01*
G37*
X111960000Y-114200000D02*
X111390000Y-114200000D01*
X111390000Y-113850000D01*
X111960000Y-113850000D01*
X111960000Y-114200000D01*
G36*
X111960000Y-114200000D02*
G01*
X111390000Y-114200000D01*
X111390000Y-113850000D01*
X111960000Y-113850000D01*
X111960000Y-114200000D01*
G37*
X111960000Y-114600000D02*
X111390000Y-114600000D01*
X111390000Y-114250000D01*
X111960000Y-114250000D01*
X111960000Y-114600000D01*
G36*
X111960000Y-114600000D02*
G01*
X111390000Y-114600000D01*
X111390000Y-114250000D01*
X111960000Y-114250000D01*
X111960000Y-114600000D01*
G37*
X111960000Y-115000000D02*
X111390000Y-115000000D01*
X111390000Y-114650000D01*
X111960000Y-114650000D01*
X111960000Y-115000000D01*
G36*
X111960000Y-115000000D02*
G01*
X111390000Y-115000000D01*
X111390000Y-114650000D01*
X111960000Y-114650000D01*
X111960000Y-115000000D01*
G37*
X111960000Y-115400000D02*
X111390000Y-115400000D01*
X111390000Y-115050000D01*
X111960000Y-115050000D01*
X111960000Y-115400000D01*
G36*
X111960000Y-115400000D02*
G01*
X111390000Y-115400000D01*
X111390000Y-115050000D01*
X111960000Y-115050000D01*
X111960000Y-115400000D01*
G37*
X111960000Y-115800000D02*
X111390000Y-115800000D01*
X111390000Y-115450000D01*
X111960000Y-115450000D01*
X111960000Y-115800000D01*
G36*
X111960000Y-115800000D02*
G01*
X111390000Y-115800000D01*
X111390000Y-115450000D01*
X111960000Y-115450000D01*
X111960000Y-115800000D01*
G37*
X111960000Y-116200000D02*
X111390000Y-116200000D01*
X111390000Y-115850000D01*
X111960000Y-115850000D01*
X111960000Y-116200000D01*
G36*
X111960000Y-116200000D02*
G01*
X111390000Y-116200000D01*
X111390000Y-115850000D01*
X111960000Y-115850000D01*
X111960000Y-116200000D01*
G37*
X111960000Y-116600000D02*
X111390000Y-116600000D01*
X111390000Y-116250000D01*
X111960000Y-116250000D01*
X111960000Y-116600000D01*
G36*
X111960000Y-116600000D02*
G01*
X111390000Y-116600000D01*
X111390000Y-116250000D01*
X111960000Y-116250000D01*
X111960000Y-116600000D01*
G37*
X111960000Y-117000000D02*
X111390000Y-117000000D01*
X111390000Y-116650000D01*
X111960000Y-116650000D01*
X111960000Y-117000000D01*
G36*
X111960000Y-117000000D02*
G01*
X111390000Y-117000000D01*
X111390000Y-116650000D01*
X111960000Y-116650000D01*
X111960000Y-117000000D01*
G37*
%TO.C,JP501*%
G36*
X97000000Y-126750000D02*
G01*
X96700000Y-126750000D01*
X96700000Y-128250000D01*
X97000000Y-128250000D01*
X97000000Y-126750000D01*
G37*
%TD*%
D11*
%TO.C,Rusb502*%
X93500000Y-131825000D03*
X93500000Y-130175000D03*
%TD*%
D12*
%TO.C,SPST201*%
X100925000Y-104250000D03*
X105075000Y-104250000D03*
%TD*%
D13*
%TO.C,R205*%
X103250000Y-110425000D03*
X103250000Y-112075000D03*
%TD*%
D14*
%TO.C,C501*%
X93950000Y-127500000D03*
X92050000Y-127500000D03*
%TD*%
D11*
%TO.C,R204*%
X103250000Y-115325000D03*
X103250000Y-113675000D03*
%TD*%
D15*
%TO.C,U501*%
X100800000Y-124650000D03*
X98500000Y-124650000D03*
D16*
X98500000Y-118350000D03*
D15*
X96200000Y-124650000D03*
%TD*%
D14*
%TO.C,C202*%
X100700000Y-110750000D03*
X98800000Y-110750000D03*
%TD*%
D13*
%TO.C,R301*%
X112500000Y-122425000D03*
X112500000Y-124075000D03*
%TD*%
D17*
%TO.C,R201*%
X98925000Y-108750000D03*
X100575000Y-108750000D03*
%TD*%
D18*
%TO.C,D404*%
X93000000Y-119850000D03*
X93000000Y-123150000D03*
%TD*%
D19*
%TO.C,R303*%
X106575000Y-128250000D03*
X104925000Y-128250000D03*
%TD*%
D20*
%TO.C,J401*%
X88250000Y-121750000D03*
D21*
X88250000Y-119250000D03*
X88250000Y-116750000D03*
X88250000Y-114250000D03*
%TD*%
D22*
%TO.C,C201*%
X96750000Y-109050000D03*
X96750000Y-110950000D03*
%TD*%
D23*
%TO.C,D403*%
X90650000Y-109750000D03*
X87350000Y-109750000D03*
%TD*%
D11*
%TO.C,Rusb501*%
X106250000Y-131825000D03*
X106250000Y-130175000D03*
%TD*%
D24*
%TO.C,U401*%
X94653051Y-102402872D03*
X95551076Y-103300898D03*
X96449102Y-104198924D03*
X97347128Y-105096949D03*
X93846949Y-108597128D03*
X92948924Y-107699102D03*
X92050898Y-106801076D03*
X91152872Y-105903051D03*
%TD*%
D25*
%TO.C,C204*%
X107800000Y-108500000D03*
X109700000Y-108500000D03*
%TD*%
D26*
%TO.C,C401*%
X98578249Y-102671751D03*
X99921751Y-101328249D03*
%TD*%
D27*
%TO.C,USBC501*%
X102817500Y-131507500D03*
X97037500Y-131507500D03*
D28*
X104247500Y-131007500D03*
X95607500Y-131007500D03*
D29*
X104247500Y-135187500D03*
X95607500Y-135187500D03*
%TD*%
D12*
%TO.C,RST201*%
X96675000Y-113500000D03*
X100825000Y-113500000D03*
%TD*%
D11*
%TO.C,R302*%
X112500000Y-127575000D03*
X112500000Y-125925000D03*
%TD*%
D30*
%TO.C,D402*%
X92250000Y-117650000D03*
X92250000Y-118350000D03*
%TD*%
D31*
%TO.C,U201*%
X108450000Y-114225000D03*
%TD*%
D14*
%TO.C,C203*%
X105200000Y-108500000D03*
X103300000Y-108500000D03*
%TD*%
D32*
%TO.C,JP501*%
X97500000Y-127500000D03*
D33*
X96200000Y-127500000D03*
%TD*%
D17*
%TO.C,R202*%
X98925000Y-107000000D03*
X100575000Y-107000000D03*
%TD*%
D34*
%TO.C,Q301*%
X108550000Y-126125000D03*
X110450000Y-126125000D03*
X109500000Y-128000000D03*
%TD*%
D25*
%TO.C,C502*%
X103550000Y-121500000D03*
X105450000Y-121500000D03*
%TD*%
D35*
%TO.C,D401*%
X92600000Y-116250000D03*
X91900000Y-116250000D03*
%TD*%
D17*
%TO.C,R203*%
X107175000Y-104250000D03*
X108825000Y-104250000D03*
%TD*%
D22*
%TO.C,C301*%
X105500000Y-124100000D03*
X105500000Y-126000000D03*
%TD*%
M02*
