%TF.GenerationSoftware,KiCad,Pcbnew,9.0.0*%
%TF.CreationDate,2026-01-31T22:23:39+01:00*%
%TF.ProjectId,DisplayBoard,44697370-6c61-4794-926f-6172642e6b69,rev?*%
%TF.SameCoordinates,Original*%
%TF.FileFunction,Copper,L1,Top*%
%TF.FilePolarity,Positive*%
%FSLAX46Y46*%
G04 Gerber Fmt 4.6, Leading zero omitted, Abs format (unit mm)*
G04 Created by KiCad (PCBNEW 9.0.0) date 2026-01-31 22:23:39*
%MOMM*%
%LPD*%
G01*
G04 APERTURE LIST*
G04 Aperture macros list*
%AMRoundRect*
0 Rectangle with rounded corners*
0 $1 Rounding radius*
0 $2 $3 $4 $5 $6 $7 $8 $9 X,Y pos of 4 corners*
0 Add a 4 corners polygon primitive as box body*
4,1,4,$2,$3,$4,$5,$6,$7,$8,$9,$2,$3,0*
0 Add four circle primitives for the rounded corners*
1,1,$1+$1,$2,$3*
1,1,$1+$1,$4,$5*
1,1,$1+$1,$6,$7*
1,1,$1+$1,$8,$9*
0 Add four rect primitives between the rounded corners*
20,1,$1+$1,$2,$3,$4,$5,0*
20,1,$1+$1,$4,$5,$6,$7,0*
20,1,$1+$1,$6,$7,$8,$9,0*
20,1,$1+$1,$8,$9,$2,$3,0*%
%AMFreePoly0*
4,1,23,0.000000,0.745722,0.065263,0.745722,0.191342,0.711940,0.304381,0.646677,0.396677,0.554381,0.461940,0.441342,0.495722,0.315263,0.495722,0.250000,0.500000,0.250000,0.500000,-0.250000,0.495722,-0.250000,0.495722,-0.315263,0.461940,-0.441342,0.396677,-0.554381,0.304381,-0.646677,0.191342,-0.711940,0.065263,-0.745722,0.000000,-0.745722,0.000000,-0.750000,-0.500000,-0.750000,
-0.500000,0.750000,0.000000,0.750000,0.000000,0.745722,0.000000,0.745722,$1*%
%AMFreePoly1*
4,1,23,0.500000,-0.750000,0.000000,-0.750000,0.000000,-0.745722,-0.065263,-0.745722,-0.191342,-0.711940,-0.304381,-0.646677,-0.396677,-0.554381,-0.461940,-0.441342,-0.495722,-0.315263,-0.495722,-0.250000,-0.500000,-0.250000,-0.500000,0.250000,-0.495722,0.250000,-0.495722,0.315263,-0.461940,0.441342,-0.396677,0.554381,-0.304381,0.646677,-0.191342,0.711940,-0.065263,0.745722,0.000000,0.745722,
0.000000,0.750000,0.500000,0.750000,0.500000,-0.750000,0.500000,-0.750000,$1*%
G04 Aperture macros list end*
%TA.AperFunction,SMDPad,CuDef*%
%ADD10RoundRect,0.157500X-0.942500X0.367500X-0.942500X-0.367500X0.942500X-0.367500X0.942500X0.367500X0*%
%TD*%
%TA.AperFunction,SMDPad,CuDef*%
%ADD11RoundRect,0.150000X-0.350000X0.375000X-0.350000X-0.375000X0.350000X-0.375000X0.350000X0.375000X0*%
%TD*%
%TA.AperFunction,ComponentPad*%
%ADD12O,1.000000X1.800000*%
%TD*%
%TA.AperFunction,ComponentPad*%
%ADD13O,1.000000X2.100000*%
%TD*%
%TA.AperFunction,SMDPad,CuDef*%
%ADD14R,0.300000X1.970000*%
%TD*%
%TA.AperFunction,SMDPad,CuDef*%
%ADD15R,0.600000X1.970000*%
%TD*%
%TA.AperFunction,SMDPad,CuDef*%
%ADD16RoundRect,0.200000X-0.200000X-0.275000X0.200000X-0.275000X0.200000X0.275000X-0.200000X0.275000X0*%
%TD*%
%TA.AperFunction,SMDPad,CuDef*%
%ADD17RoundRect,0.250000X0.450000X-0.262500X0.450000X0.262500X-0.450000X0.262500X-0.450000X-0.262500X0*%
%TD*%
%TA.AperFunction,SMDPad,CuDef*%
%ADD18RoundRect,0.250000X0.250000X0.475000X-0.250000X0.475000X-0.250000X-0.475000X0.250000X-0.475000X0*%
%TD*%
%TA.AperFunction,SMDPad,CuDef*%
%ADD19RoundRect,0.218750X-0.218750X-0.256250X0.218750X-0.256250X0.218750X0.256250X-0.218750X0.256250X0*%
%TD*%
%TA.AperFunction,SMDPad,CuDef*%
%ADD20RoundRect,0.250000X0.475000X-0.250000X0.475000X0.250000X-0.475000X0.250000X-0.475000X-0.250000X0*%
%TD*%
%TA.AperFunction,SMDPad,CuDef*%
%ADD21RoundRect,0.240000X-1.260000X0.560000X-1.260000X-0.560000X1.260000X-0.560000X1.260000X0.560000X0*%
%TD*%
%TA.AperFunction,SMDPad,CuDef*%
%ADD22RoundRect,0.180000X-2.870000X0.420000X-2.870000X-0.420000X2.870000X-0.420000X2.870000X0.420000X0*%
%TD*%
%TA.AperFunction,SMDPad,CuDef*%
%ADD23RoundRect,0.150000X0.150000X-0.512500X0.150000X0.512500X-0.150000X0.512500X-0.150000X-0.512500X0*%
%TD*%
%TA.AperFunction,SMDPad,CuDef*%
%ADD24RoundRect,0.375000X0.375000X-0.625000X0.375000X0.625000X-0.375000X0.625000X-0.375000X-0.625000X0*%
%TD*%
%TA.AperFunction,SMDPad,CuDef*%
%ADD25RoundRect,0.500000X1.400000X-0.500000X1.400000X0.500000X-1.400000X0.500000X-1.400000X-0.500000X0*%
%TD*%
%TA.AperFunction,SMDPad,CuDef*%
%ADD26RoundRect,0.250000X-0.475000X0.250000X-0.475000X-0.250000X0.475000X-0.250000X0.475000X0.250000X0*%
%TD*%
%TA.AperFunction,SMDPad,CuDef*%
%ADD27FreePoly0,0.000000*%
%TD*%
%TA.AperFunction,SMDPad,CuDef*%
%ADD28FreePoly1,0.000000*%
%TD*%
%TA.AperFunction,SMDPad,CuDef*%
%ADD29RoundRect,0.225000X-0.250000X0.225000X-0.250000X-0.225000X0.250000X-0.225000X0.250000X0.225000X0*%
%TD*%
%TA.AperFunction,SMDPad,CuDef*%
%ADD30RoundRect,0.200000X-0.275000X0.200000X-0.275000X-0.200000X0.275000X-0.200000X0.275000X0.200000X0*%
%TD*%
%TA.AperFunction,SMDPad,CuDef*%
%ADD31RoundRect,0.200000X0.200000X0.275000X-0.200000X0.275000X-0.200000X-0.275000X0.200000X-0.275000X0*%
%TD*%
%TA.AperFunction,SMDPad,CuDef*%
%ADD32RoundRect,0.200000X0.275000X-0.200000X0.275000X0.200000X-0.275000X0.200000X-0.275000X-0.200000X0*%
%TD*%
%TA.AperFunction,SMDPad,CuDef*%
%ADD33RoundRect,0.157500X-0.367500X-0.842500X0.367500X-0.842500X0.367500X0.842500X-0.367500X0.842500X0*%
%TD*%
%TA.AperFunction,SMDPad,CuDef*%
%ADD34RoundRect,0.120000X-0.280000X-0.330000X0.280000X-0.330000X0.280000X0.330000X-0.280000X0.330000X0*%
%TD*%
%TA.AperFunction,SMDPad,CuDef*%
%ADD35RoundRect,0.150000X0.587500X0.150000X-0.587500X0.150000X-0.587500X-0.150000X0.587500X-0.150000X0*%
%TD*%
%TA.AperFunction,SMDPad,CuDef*%
%ADD36RoundRect,0.135000X-0.315000X0.540000X-0.315000X-0.540000X0.315000X-0.540000X0.315000X0.540000X0*%
%TD*%
%TA.AperFunction,SMDPad,CuDef*%
%ADD37RoundRect,0.150000X-0.825000X-0.150000X0.825000X-0.150000X0.825000X0.150000X-0.825000X0.150000X0*%
%TD*%
%TA.AperFunction,SMDPad,CuDef*%
%ADD38R,0.470000X0.250000*%
%TD*%
%TA.AperFunction,SMDPad,CuDef*%
%ADD39R,0.250000X0.470000*%
%TD*%
%TA.AperFunction,SMDPad,CuDef*%
%ADD40R,4.000000X4.000000*%
%TD*%
%TA.AperFunction,ViaPad*%
%ADD41C,0.600000*%
%TD*%
%TA.AperFunction,Conductor*%
%ADD42C,0.600000*%
%TD*%
%TA.AperFunction,Conductor*%
%ADD43C,0.150000*%
%TD*%
%TA.AperFunction,Conductor*%
%ADD44C,0.350000*%
%TD*%
%TA.AperFunction,Conductor*%
%ADD45C,0.400000*%
%TD*%
%TA.AperFunction,Conductor*%
%ADD46C,0.200000*%
%TD*%
G04 APERTURE END LIST*
D10*
%TO.P,J201,2,Ext*%
%TO.N,GND*%
X87300000Y-117975000D03*
D11*
X85800000Y-116500000D03*
D10*
X87300000Y-115025000D03*
D11*
%TO.P,J201,1,In*%
%TO.N,/MCU/ANTENNA*%
X88800000Y-116500000D03*
%TD*%
D12*
%TO.P,USBC501,SH4,SHELL_GND__3*%
%TO.N,GND*%
X105119999Y-135200000D03*
%TO.P,USBC501,SH3,SHELL_GND__2*%
X96480001Y-135200000D03*
D13*
%TO.P,USBC501,SH2,SHELL_GND__1*%
X105120001Y-131020000D03*
%TO.P,USBC501,SH1,SHELL_GND*%
X96480000Y-131019999D03*
D14*
%TO.P,USBC501,B8,SBU2*%
%TO.N,unconnected-(USBC501-SBU2-PadB8)*%
X99050000Y-130034999D03*
%TO.P,USBC501,B7,DN2*%
%TO.N,UNF_USB_D-*%
X100050000Y-130034999D03*
%TO.P,USBC501,B6,DP2*%
%TO.N,UNF_USB_D+*%
X101550001Y-130035000D03*
%TO.P,USBC501,B5,CC2*%
%TO.N,/USB/CC2*%
X102550000Y-130035000D03*
D15*
%TO.P,USBC501,B4_A9,VBUS__1*%
%TO.N,VBUS*%
X103200000Y-130035000D03*
%TO.P,USBC501,B1_A12,GND__1*%
%TO.N,GND*%
X104000000Y-130034999D03*
D14*
%TO.P,USBC501,A8,SBU1*%
%TO.N,unconnected-(USBC501-SBU1-PadA8)*%
X102050000Y-130035000D03*
%TO.P,USBC501,A7,DN1*%
%TO.N,UNF_USB_D-*%
X101050000Y-130035001D03*
%TO.P,USBC501,A6,DP1*%
%TO.N,UNF_USB_D+*%
X100549999Y-130035001D03*
%TO.P,USBC501,A5,CC1*%
%TO.N,/USB/CC1*%
X99549999Y-130034999D03*
D15*
%TO.P,USBC501,A4_B9,VBUS*%
%TO.N,VBUS*%
X98399998Y-130035000D03*
%TO.P,USBC501,A1_B12,GND*%
%TO.N,GND*%
X97600001Y-130035000D03*
%TD*%
D16*
%TO.P,R401,2*%
%TO.N,Net-(C404-Pad1)*%
X93625000Y-105900000D03*
%TO.P,R401,1*%
%TO.N,+3.3V*%
X91975000Y-105900000D03*
%TD*%
D17*
%TO.P,D401,2*%
%TO.N,GND*%
X94400000Y-102275000D03*
%TO.P,D401,1*%
%TO.N,/CAN/UNF_3.3V*%
X94400000Y-104100000D03*
%TD*%
D18*
%TO.P,C403,2*%
%TO.N,GND*%
X88550000Y-105900000D03*
%TO.P,C403,1*%
%TO.N,+3.3V*%
X90450000Y-105900000D03*
%TD*%
D19*
%TO.P,FB401,2*%
%TO.N,/CAN/UNF_3.3V*%
X92587500Y-104100000D03*
%TO.P,FB401,1*%
%TO.N,+3.3V*%
X91012500Y-104100000D03*
%TD*%
D18*
%TO.P,C404,2*%
%TO.N,GND*%
X92050000Y-107700000D03*
%TO.P,C404,1*%
%TO.N,Net-(C404-Pad1)*%
X93950000Y-107700000D03*
%TD*%
D20*
%TO.P,C405,1*%
%TO.N,+3.3V*%
X107000000Y-114950000D03*
%TO.P,C405,2*%
%TO.N,GND*%
X107000000Y-113050000D03*
%TD*%
D21*
%TO.P,J401,*%
%TO.N,*%
X98050000Y-101700000D03*
X98050000Y-112500000D03*
D22*
%TO.P,J401,1,Pin_1*%
%TO.N,/CAN/UNF_3.3V*%
X100300000Y-104100000D03*
%TO.P,J401,2,Pin_2*%
%TO.N,/CAN/UNF_CANP*%
X100300000Y-106100000D03*
%TO.P,J401,3,Pin_3*%
%TO.N,/CAN/UNF_CANN*%
X100300000Y-108100000D03*
%TO.P,J401,4,Pin_4*%
%TO.N,GND*%
X100300000Y-110100000D03*
%TD*%
D23*
%TO.P,U501,6,I/O1*%
%TO.N,/MCU/D-*%
X105750000Y-125662500D03*
%TO.P,U501,5,VBUS*%
%TO.N,VBUS*%
X106700000Y-125662500D03*
%TO.P,U501,4,I/O2*%
%TO.N,/MCU/D+*%
X107650000Y-125662500D03*
%TO.P,U501,3,I/O2*%
%TO.N,UNF_USB_D+*%
X107650000Y-127937500D03*
%TO.P,U501,2,GND*%
%TO.N,GND*%
X106700000Y-127937500D03*
%TO.P,U501,1,I/O1*%
%TO.N,UNF_USB_D-*%
X105750000Y-127937500D03*
%TD*%
D20*
%TO.P,C301,1*%
%TO.N,+3.3V*%
X94800000Y-127750000D03*
%TO.P,C301,2*%
%TO.N,GND*%
X94800000Y-125850000D03*
%TD*%
D24*
%TO.P,U502,3,VI*%
%TO.N,/USB/5V_VBUS*%
X114600000Y-124550000D03*
D25*
%TO.P,U502,2,VO*%
%TO.N,+3.3V*%
X112300000Y-118250000D03*
D24*
X112300000Y-124550000D03*
%TO.P,U502,1,GND*%
%TO.N,GND*%
X110000000Y-124550000D03*
%TD*%
D26*
%TO.P,C502,2*%
%TO.N,GND*%
X107600000Y-121450000D03*
%TO.P,C502,1*%
%TO.N,+3.3V*%
X107600000Y-119550000D03*
%TD*%
D27*
%TO.P,JP501,2,B*%
%TO.N,/USB/5V_VBUS*%
X110950000Y-127200000D03*
D28*
%TO.P,JP501,1,A*%
%TO.N,VBUS*%
X109650000Y-127200000D03*
%TD*%
D29*
%TO.P,C204,1*%
%TO.N,/MCU/ANTENNA*%
X90412281Y-116470000D03*
%TO.P,C204,2*%
%TO.N,GND*%
X90412281Y-118020000D03*
%TD*%
D30*
%TO.P,R301,1*%
%TO.N,/MCU/BL*%
X93000000Y-125900000D03*
%TO.P,R301,2*%
%TO.N,/GC9A01/LIM_BL*%
X93000000Y-127550000D03*
%TD*%
%TO.P,Rusb502,1*%
%TO.N,/USB/CC2*%
X94800000Y-134375000D03*
%TO.P,Rusb502,2*%
%TO.N,GND*%
X94800000Y-136025000D03*
%TD*%
D31*
%TO.P,R203,1*%
%TO.N,/MCU/BOOT*%
X95325000Y-121700000D03*
%TO.P,R203,2*%
%TO.N,+3.3V*%
X93675000Y-121700000D03*
%TD*%
D32*
%TO.P,R204,1*%
%TO.N,/MCU/CANTX*%
X104900000Y-114825000D03*
%TO.P,R204,2*%
%TO.N,/CAN/TRANS_CANTX*%
X104900000Y-113175000D03*
%TD*%
D26*
%TO.P,C401,1*%
%TO.N,+3.3V*%
X90100000Y-107750000D03*
%TO.P,C401,2*%
%TO.N,GND*%
X90100000Y-109650000D03*
%TD*%
D33*
%TO.P,SPST201,1,A*%
%TO.N,GND*%
X90850000Y-123700000D03*
%TO.P,SPST201,2,B*%
%TO.N,/MCU/BOOT*%
X95300000Y-123700000D03*
%TD*%
D32*
%TO.P,R201,1*%
%TO.N,GND*%
X87500000Y-123725000D03*
%TO.P,R201,2*%
%TO.N,Net-(RST201-A)*%
X87500000Y-122075000D03*
%TD*%
D34*
%TO.P,Q301,1,G*%
%TO.N,/GC9A01/LIM_BL*%
X91450000Y-127525000D03*
%TO.P,Q301,2,S*%
%TO.N,GND*%
X89550000Y-127525000D03*
%TO.P,Q301,3,D*%
%TO.N,/GC9A01/GUI_LIM_LEDK*%
X90500000Y-129525000D03*
%TD*%
D33*
%TO.P,RST201,1,A*%
%TO.N,Net-(RST201-A)*%
X87250000Y-120100000D03*
%TO.P,RST201,2,B*%
%TO.N,/MCU/CHIP_PU*%
X91700000Y-120100000D03*
%TD*%
D16*
%TO.P,R206,1*%
%TO.N,GND*%
X97775000Y-114500000D03*
%TO.P,R206,2*%
%TO.N,/MCU/ROM_PRINT*%
X99425000Y-114500000D03*
%TD*%
D18*
%TO.P,C201,1*%
%TO.N,/MCU/CHIP_PU*%
X95250000Y-119900000D03*
%TO.P,C201,2*%
%TO.N,GND*%
X93350000Y-119900000D03*
%TD*%
D35*
%TO.P,D402,1*%
%TO.N,/CAN/UNF_CANN*%
X107037500Y-108850000D03*
%TO.P,D402,2*%
%TO.N,/CAN/UNF_CANP*%
X107037500Y-106950000D03*
%TO.P,D402,3*%
%TO.N,GND*%
X105162500Y-107900000D03*
%TD*%
D29*
%TO.P,C205,1*%
%TO.N,LDA_IN*%
X95012281Y-116470000D03*
%TO.P,C205,2*%
%TO.N,GND*%
X95012281Y-118020000D03*
%TD*%
D20*
%TO.P,C203,1*%
%TO.N,+3.3V*%
X94300000Y-112850000D03*
%TO.P,C203,2*%
%TO.N,GND*%
X94300000Y-110950000D03*
%TD*%
D26*
%TO.P,C402,1*%
%TO.N,+3.3V*%
X88000000Y-107750000D03*
%TO.P,C402,2*%
%TO.N,GND*%
X88000000Y-109650000D03*
%TD*%
D30*
%TO.P,R302,1*%
%TO.N,/GC9A01/GUI_LIM_LEDK*%
X93000000Y-129000000D03*
%TO.P,R302,2*%
%TO.N,LEDK*%
X93000000Y-130650000D03*
%TD*%
D19*
%TO.P,L201,1,1*%
%TO.N,/MCU/ANTENNA*%
X91912500Y-116500000D03*
%TO.P,L201,2,2*%
%TO.N,LDA_IN*%
X93487500Y-116500000D03*
%TD*%
D36*
%TO.P,L401,1*%
%TO.N,/CAN/UNF_CANN*%
X111350000Y-105825000D03*
%TO.P,L401,2*%
%TO.N,/CAN/UNF_CANP*%
X108850000Y-105825000D03*
%TO.P,L401,3*%
%TO.N,CANH*%
X108850000Y-110375000D03*
%TO.P,L401,4*%
%TO.N,CANL*%
X111350000Y-110375000D03*
%TD*%
D18*
%TO.P,C202,1*%
%TO.N,+3.3V*%
X95250000Y-114700000D03*
%TO.P,C202,2*%
%TO.N,GND*%
X93350000Y-114700000D03*
%TD*%
D31*
%TO.P,R205,1*%
%TO.N,GND*%
X102525000Y-114500000D03*
%TO.P,R205,2*%
%TO.N,/MCU/VDD_SPI*%
X100875000Y-114500000D03*
%TD*%
D37*
%TO.P,U401,1,D*%
%TO.N,/CAN/TRANS_CANTX*%
X109525000Y-112295000D03*
%TO.P,U401,2,GND*%
%TO.N,GND*%
X109525000Y-113565000D03*
%TO.P,U401,3,VCC*%
%TO.N,+3.3V*%
X109525000Y-114835000D03*
%TO.P,U401,4,R*%
%TO.N,/CAN/TRANS_CANRX*%
X109525000Y-116105000D03*
%TO.P,U401,5,NC*%
%TO.N,unconnected-(U401-NC-Pad5)*%
X114475000Y-116105000D03*
%TO.P,U401,6,CANL*%
%TO.N,CANL*%
X114475000Y-114835000D03*
%TO.P,U401,7,CANH*%
%TO.N,CANH*%
X114475000Y-113565000D03*
%TO.P,U401,8,NC*%
%TO.N,unconnected-(U401-NC-Pad8)*%
X114475000Y-112295000D03*
%TD*%
D31*
%TO.P,R402,1*%
%TO.N,/CAN/TRANS_CANRX*%
X106725000Y-116700000D03*
%TO.P,R402,2*%
%TO.N,/MCU/CANRX*%
X105075000Y-116700000D03*
%TD*%
D32*
%TO.P,Rusb501,1*%
%TO.N,/USB/CC1*%
X94800000Y-132925000D03*
%TO.P,Rusb501,2*%
%TO.N,GND*%
X94800000Y-131275000D03*
%TD*%
%TO.P,R202,1*%
%TO.N,+3.3V*%
X89100000Y-123725000D03*
%TO.P,R202,2*%
%TO.N,/MCU/CHIP_PU*%
X89100000Y-122075000D03*
%TD*%
D38*
%TO.P,U201,1,LNA_IN*%
%TO.N,LDA_IN*%
X96775000Y-116469563D03*
%TO.P,U201,2,VDD3P3*%
%TO.N,+3.3V*%
X96775000Y-116869563D03*
%TO.P,U201,3,VDD3P3__1*%
X96775000Y-117269563D03*
%TO.P,U201,4,CHIP_PU*%
%TO.N,/MCU/CHIP_PU*%
X96775000Y-117669563D03*
%TO.P,U201,5,GPIO0*%
%TO.N,/MCU/BOOT*%
X96775000Y-118069563D03*
%TO.P,U201,6,GPIO1*%
%TO.N,unconnected-(U201-GPIO1-Pad6)*%
X96775000Y-118469563D03*
%TO.P,U201,7,GPIO2*%
%TO.N,unconnected-(U201-GPIO2-Pad7)*%
X96775000Y-118869563D03*
%TO.P,U201,8,GPIO3*%
%TO.N,unconnected-(U201-GPIO3-Pad8)*%
X96775000Y-119269563D03*
%TO.P,U201,9,GPIO4*%
%TO.N,unconnected-(U201-GPIO4-Pad9)*%
X96775000Y-119669563D03*
%TO.P,U201,10,GPIO5*%
%TO.N,unconnected-(U201-GPIO5-Pad10)*%
X96775000Y-120069563D03*
%TO.P,U201,11,GPIO6*%
%TO.N,unconnected-(U201-GPIO6-Pad11)*%
X96775000Y-120469563D03*
%TO.P,U201,12,GPIO7*%
%TO.N,unconnected-(U201-GPIO7-Pad12)*%
X96775000Y-120869563D03*
%TO.P,U201,13,GPIO8*%
%TO.N,unconnected-(U201-GPIO8-Pad13)*%
X96775000Y-121269563D03*
%TO.P,U201,14,GPIO9*%
%TO.N,unconnected-(U201-GPIO9-Pad14)*%
X96775000Y-121669563D03*
D39*
%TO.P,U201,15,GPIO10*%
%TO.N,/MCU/BL*%
X97400000Y-122294563D03*
%TO.P,U201,16,GPIO11*%
%TO.N,/MCU/DC*%
X97800000Y-122294563D03*
%TO.P,U201,17,GPIO12*%
%TO.N,/MCU/CS*%
X98200000Y-122294563D03*
%TO.P,U201,18,GPIO13*%
%TO.N,/MCU/CLK*%
X98600000Y-122294563D03*
%TO.P,U201,19,GPIO14*%
%TO.N,/MCU/DIN*%
X99000000Y-122294563D03*
%TO.P,U201,20,VDD3P3_RTC*%
%TO.N,+3.3V*%
X99400000Y-122294563D03*
%TO.P,U201,21,XTAL_32K_P*%
%TO.N,unconnected-(U201-XTAL_32K_P-Pad21)*%
X99800000Y-122294563D03*
%TO.P,U201,22,XTAL_32K_N*%
%TO.N,unconnected-(U201-XTAL_32K_N-Pad22)*%
X100200000Y-122294563D03*
%TO.P,U201,23,GPIO17*%
%TO.N,/MCU/RST*%
X100600000Y-122294563D03*
%TO.P,U201,24,GPIO18*%
%TO.N,unconnected-(U201-GPIO18-Pad24)*%
X101000000Y-122294563D03*
%TO.P,U201,25,GPIO19*%
%TO.N,/MCU/D-*%
X101400000Y-122294563D03*
%TO.P,U201,26,GPIO20*%
%TO.N,/MCU/D+*%
X101800000Y-122294563D03*
%TO.P,U201,27,GPIO21*%
%TO.N,unconnected-(U201-GPIO21-Pad27)*%
X102200000Y-122294563D03*
%TO.P,U201,28,SPICS1*%
%TO.N,unconnected-(U201-SPICS1-Pad28)*%
X102600000Y-122294563D03*
D38*
%TO.P,U201,29,VDD_SPI*%
%TO.N,unconnected-(U201-VDD_SPI-Pad29)*%
X103225000Y-121669563D03*
%TO.P,U201,30,NC*%
%TO.N,unconnected-(U201-NC-Pad30)*%
X103225000Y-121269563D03*
%TO.P,U201,31,NC__1*%
%TO.N,unconnected-(U201-NC__1-Pad31)*%
X103225000Y-120869563D03*
%TO.P,U201,32,NC__2*%
%TO.N,unconnected-(U201-NC__2-Pad32)*%
X103225000Y-120469563D03*
%TO.P,U201,33,NC__3*%
%TO.N,unconnected-(U201-NC__3-Pad33)*%
X103225000Y-120069563D03*
%TO.P,U201,34,NC__4*%
%TO.N,unconnected-(U201-NC__4-Pad34)*%
X103225000Y-119669563D03*
%TO.P,U201,35,NC__5*%
%TO.N,unconnected-(U201-NC__5-Pad35)*%
X103225000Y-119269563D03*
%TO.P,U201,36,SPICLK_N*%
%TO.N,unconnected-(U201-SPICLK_N-Pad36)*%
X103225000Y-118869563D03*
%TO.P,U201,37,SPICLK_P*%
%TO.N,unconnected-(U201-SPICLK_P-Pad37)*%
X103225000Y-118469563D03*
%TO.P,U201,38,GPIO33*%
%TO.N,unconnected-(U201-GPIO33-Pad38)*%
X103225000Y-118069563D03*
%TO.P,U201,39,GPIO34*%
%TO.N,unconnected-(U201-GPIO34-Pad39)*%
X103225000Y-117669563D03*
%TO.P,U201,40,GPIO35*%
%TO.N,unconnected-(U201-GPIO35-Pad40)*%
X103225000Y-117269563D03*
%TO.P,U201,41,GPIO36*%
%TO.N,/MCU/CANRX*%
X103225000Y-116869563D03*
%TO.P,U201,42,GPIO37*%
%TO.N,/MCU/CANTX*%
X103225000Y-116469563D03*
D39*
%TO.P,U201,43,GPIO38*%
%TO.N,unconnected-(U201-GPIO38-Pad43)*%
X102600000Y-115844563D03*
%TO.P,U201,44,MTCK*%
%TO.N,unconnected-(U201-MTCK-Pad44)*%
X102200000Y-115844563D03*
%TO.P,U201,45,MTDO*%
%TO.N,unconnected-(U201-MTDO-Pad45)*%
X101800000Y-115844563D03*
%TO.P,U201,46,VDD3P3_CPU*%
%TO.N,+3.3V*%
X101400000Y-115844563D03*
%TO.P,U201,47,MTDI*%
%TO.N,unconnected-(U201-MTDI-Pad47)*%
X101000000Y-115844563D03*
%TO.P,U201,48,MTMS*%
%TO.N,unconnected-(U201-MTMS-Pad48)*%
X100600000Y-115844563D03*
%TO.P,U201,49,U0TXD*%
%TO.N,unconnected-(U201-U0TXD-Pad49)*%
X100200000Y-115844563D03*
%TO.P,U201,50,U0RXD*%
%TO.N,unconnected-(U201-U0RXD-Pad50)*%
X99800000Y-115844563D03*
%TO.P,U201,51,GPIO45*%
%TO.N,/MCU/VDD_SPI*%
X99400000Y-115844563D03*
%TO.P,U201,52,GPIO46*%
%TO.N,/MCU/ROM_PRINT*%
X99000000Y-115844563D03*
%TO.P,U201,53,NC__6*%
%TO.N,unconnected-(U201-NC__6-Pad53)*%
X98600000Y-115844563D03*
%TO.P,U201,54,NC__7*%
%TO.N,unconnected-(U201-NC__7-Pad54)*%
X98200000Y-115844563D03*
%TO.P,U201,55,VDDA*%
%TO.N,+3.3V*%
X97800000Y-115844563D03*
%TO.P,U201,56,VDDA__1*%
X97400000Y-115844563D03*
D40*
%TO.P,U201,57,GND*%
%TO.N,GND*%
X100000000Y-119069563D03*
%TD*%
D18*
%TO.P,C501,1*%
%TO.N,/USB/5V_VBUS*%
X111250000Y-129600000D03*
%TO.P,C501,2*%
%TO.N,GND*%
X109350000Y-129600000D03*
%TD*%
D41*
%TO.N,/MCU/BL*%
X96800000Y-122400000D03*
X93000000Y-125100000D03*
%TO.N,/MCU/DC*%
X97600000Y-123100000D03*
%TO.N,/MCU/RST*%
X103200000Y-124400000D03*
%TO.N,/MCU/CS*%
X100900000Y-124500000D03*
%TO.N,LEDK*%
X94400000Y-129800000D03*
%TO.N,GND*%
X116142615Y-122528820D03*
X85172526Y-125783908D03*
X84219598Y-112156403D03*
X109390612Y-103977845D03*
X93709174Y-133470340D03*
X112864302Y-107105569D03*
X107361634Y-132993586D03*
X91603423Y-132443297D03*
X87920017Y-129565504D03*
X105189370Y-101928762D03*
X83573818Y-121391493D03*
X83247754Y-119071431D03*
X84219598Y-123643597D03*
X83247754Y-116728569D03*
X116142615Y-113271180D03*
X109390612Y-131822155D03*
X102916100Y-101361973D03*
X89661103Y-131133185D03*
X98244638Y-134601158D03*
X116629723Y-115562845D03*
X107361634Y-102806414D03*
X83573818Y-114408507D03*
X102916100Y-134438027D03*
X114241401Y-109000985D03*
X100586073Y-101117077D03*
X100586073Y-134682923D03*
X115341309Y-111069609D03*
X116793153Y-117900000D03*
X86414054Y-127770768D03*
%TO.N,/MCU/DIN*%
X100200000Y-123100000D03*
%TO.N,GND*%
X104600000Y-124400000D03*
%TO.N,/MCU/CLK*%
X100800000Y-123700000D03*
%TO.N,GND*%
X93107893Y-102274991D03*
X92050005Y-109068424D03*
X103400000Y-114500000D03*
X101500000Y-111400000D03*
X84700000Y-114600000D03*
X89200000Y-113900000D03*
X102300000Y-111400000D03*
X88900000Y-115000000D03*
X102300000Y-113100000D03*
X101500000Y-113100000D03*
X85000000Y-113900000D03*
X89000000Y-118000000D03*
X85700000Y-113900000D03*
X85700000Y-118000000D03*
X84700000Y-118100000D03*
X100700000Y-112200000D03*
X91300000Y-118000000D03*
X94300000Y-109900000D03*
X96900000Y-113900000D03*
X87100000Y-113900000D03*
X100700000Y-113100000D03*
X87800000Y-113900000D03*
X102300000Y-112200000D03*
X96400000Y-109900000D03*
X86400000Y-113900000D03*
X89100000Y-119300000D03*
X108100000Y-113565000D03*
X84700000Y-118800000D03*
X101500000Y-112200000D03*
%TO.N,+3.3V*%
X112300000Y-121700000D03*
%TO.N,GND*%
X85700000Y-115000000D03*
X84700000Y-116000000D03*
%TO.N,+3.3V*%
X114300000Y-120600000D03*
X115300000Y-120600000D03*
X97700000Y-116600000D03*
%TO.N,GND*%
X96400000Y-110700000D03*
%TO.N,+3.3V*%
X112300000Y-120600000D03*
%TO.N,GND*%
X103100000Y-112200000D03*
X84700000Y-115300000D03*
%TO.N,+3.3V*%
X92700000Y-121700000D03*
X111300000Y-120600000D03*
%TO.N,GND*%
X100700000Y-111400000D03*
%TO.N,+3.3V*%
X89100000Y-124600000D03*
X109300000Y-118300000D03*
%TO.N,GND*%
X89900000Y-114600000D03*
%TO.N,+3.3V*%
X112300000Y-122600000D03*
X110300000Y-120600000D03*
X115300000Y-118300000D03*
%TO.N,GND*%
X88500000Y-113900000D03*
X84700000Y-116700000D03*
X92400000Y-114700000D03*
%TO.N,+3.3V*%
X108100000Y-114835000D03*
X113300000Y-120600000D03*
X109300000Y-119500000D03*
%TO.N,GND*%
X93400000Y-118700000D03*
X88400000Y-119300000D03*
X94100000Y-118000000D03*
X84700000Y-117400000D03*
X90800000Y-122200000D03*
X104000000Y-107200000D03*
X86000000Y-119200000D03*
%TO.N,+3.3V*%
X115300000Y-119500000D03*
%TO.N,GND*%
X85300000Y-119200000D03*
X89800000Y-119200000D03*
X89900000Y-115300000D03*
X89900000Y-113900000D03*
X103100000Y-111400000D03*
X103100000Y-113100000D03*
X87500000Y-124600000D03*
X98800000Y-116700000D03*
X100000000Y-116700000D03*
X101200000Y-116700000D03*
X101200000Y-121500000D03*
X89538118Y-128512877D03*
X90500000Y-127525000D03*
X88600000Y-127525000D03*
%TO.N,+3.3V*%
X92300000Y-111900000D03*
X92300000Y-110700000D03*
%TO.N,GND*%
X90100000Y-110900000D03*
X88000000Y-110900000D03*
%TO.N,+3.3V*%
X92300000Y-113100000D03*
%TO.N,GND*%
X110000000Y-123100000D03*
%TO.N,+3.3V*%
X96200000Y-114900000D03*
X93000000Y-112800000D03*
%TO.N,GND*%
X102500000Y-116700000D03*
%TO.N,+3.3V*%
X96800000Y-115500000D03*
%TO.N,GND*%
X97600000Y-121500000D03*
X102500000Y-121500000D03*
%TO.N,+3.3V*%
X101700000Y-115100000D03*
X99400000Y-121600000D03*
X90100000Y-108700000D03*
%TO.N,GND*%
X95200000Y-130300000D03*
%TO.N,UNF_USB_D-*%
X102600000Y-132600000D03*
%TO.N,+3.3V*%
X97600000Y-124400000D03*
X94800000Y-128700000D03*
%TO.N,GND*%
X96500000Y-124400000D03*
%TO.N,UNF_USB_D-*%
X100325000Y-132675000D03*
%TO.N,GND*%
X98600000Y-124400000D03*
%TO.N,/USB/CC2*%
X96100000Y-133600000D03*
%TO.N,GND*%
X109350000Y-130916687D03*
X106700000Y-129200000D03*
%TO.N,/USB/CC2*%
X102000000Y-131800000D03*
%TO.N,GND*%
X107600000Y-122500000D03*
X94800000Y-136900000D03*
%TO.N,+3.3V*%
X89800000Y-104400000D03*
X85700000Y-108700000D03*
X85700000Y-109650000D03*
X86500000Y-109650000D03*
%TO.N,GND*%
X89600000Y-117300000D03*
%TO.N,+3.3V*%
X86500000Y-108700000D03*
X88000000Y-108700000D03*
X86500000Y-107750000D03*
%TO.N,GND*%
X94200000Y-124900000D03*
X87424641Y-106323631D03*
%TO.N,+3.3V*%
X91363112Y-105040804D03*
%TO.N,GND*%
X104800000Y-129400000D03*
X116629723Y-120237155D03*
%TD*%
D42*
%TO.N,GND*%
X90100000Y-109650000D02*
X90100000Y-110900000D01*
X88000000Y-109650000D02*
X88000000Y-110900000D01*
X87848272Y-105900000D02*
X87424641Y-106323631D01*
X88550000Y-105900000D02*
X87848272Y-105900000D01*
X92050000Y-109068419D02*
X92050005Y-109068424D01*
X92050000Y-107700000D02*
X92050000Y-109068419D01*
%TO.N,Net-(C404-Pad1)*%
X93950000Y-106225000D02*
X93625000Y-105900000D01*
X93950000Y-107700000D02*
X93950000Y-106225000D01*
%TO.N,GND*%
X93107902Y-102275000D02*
X93107893Y-102274991D01*
X94400000Y-102275000D02*
X93107902Y-102275000D01*
%TO.N,/CAN/UNF_3.3V*%
X94400000Y-104100000D02*
X92587500Y-104100000D01*
X100300000Y-104100000D02*
X94400000Y-104100000D01*
D43*
%TO.N,/CAN/UNF_CANP*%
X104200000Y-106100000D02*
X105000000Y-106900000D01*
X100300000Y-106100000D02*
X104200000Y-106100000D01*
D44*
%TO.N,GND*%
X94800000Y-136025000D02*
X94800000Y-136900000D01*
X97464999Y-130035000D02*
X96480000Y-131019999D01*
X97600001Y-130035000D02*
X97464999Y-130035000D01*
X104165001Y-130034999D02*
X104800000Y-129400000D01*
X104000000Y-130034999D02*
X104165001Y-130034999D01*
X104135000Y-130034999D02*
X105120001Y-131020000D01*
X104000000Y-130034999D02*
X104135000Y-130034999D01*
D43*
%TO.N,+3.3V*%
X101400000Y-115400000D02*
X101700000Y-115100000D01*
X101400000Y-115844563D02*
X101400000Y-115400000D01*
D44*
%TO.N,GND*%
X106700000Y-127937500D02*
X106700000Y-129200000D01*
D43*
%TO.N,UNF_USB_D-*%
X105781802Y-132600000D02*
X102600000Y-132600000D01*
X106475000Y-131906802D02*
X105781802Y-132600000D01*
X106475000Y-129875000D02*
X106475000Y-131906802D01*
X105750000Y-129150000D02*
X106475000Y-129875000D01*
X105750000Y-127937500D02*
X105750000Y-129150000D01*
%TO.N,UNF_USB_D+*%
X106925000Y-132093198D02*
X106925000Y-129875000D01*
X105793198Y-133225000D02*
X106925000Y-132093198D01*
X107650000Y-129150000D02*
X107650000Y-127937500D01*
X101706802Y-133225000D02*
X105793198Y-133225000D01*
X106925000Y-129875000D02*
X107650000Y-129150000D01*
X100549999Y-132068197D02*
X101706802Y-133225000D01*
X100549999Y-130035001D02*
X100549999Y-132068197D01*
D44*
%TO.N,VBUS*%
X106200000Y-126800000D02*
X109250000Y-126800000D01*
X106700000Y-126300000D02*
X106200000Y-126800000D01*
X106700000Y-125662500D02*
X106700000Y-126300000D01*
X109250000Y-126800000D02*
X109650000Y-127200000D01*
X104900000Y-126800000D02*
X106200000Y-126800000D01*
D43*
%TO.N,/MCU/D-*%
X101400000Y-122294563D02*
X101400000Y-122800000D01*
X101400000Y-122800000D02*
X101850000Y-123250000D01*
X101850000Y-123250000D02*
X105350000Y-123250000D01*
X105350000Y-123250000D02*
X105750000Y-123650000D01*
X105750000Y-123650000D02*
X105750000Y-125662500D01*
%TO.N,UNF_USB_D+*%
X101550001Y-130035000D02*
X101550001Y-128950001D01*
X101550001Y-128950001D02*
X101300000Y-128700000D01*
X101300000Y-128700000D02*
X100700000Y-128700000D01*
X100549999Y-128850001D02*
X100700000Y-128700000D01*
X100549999Y-130035001D02*
X100549999Y-128850001D01*
D44*
%TO.N,GND*%
X94800000Y-130700000D02*
X95200000Y-130300000D01*
X94800000Y-131275000D02*
X94800000Y-130700000D01*
%TO.N,LEDK*%
X93550000Y-130650000D02*
X94400000Y-129800000D01*
X93000000Y-130650000D02*
X93550000Y-130650000D01*
%TO.N,/GC9A01/GUI_LIM_LEDK*%
X91800000Y-129000000D02*
X93000000Y-129000000D01*
X91275000Y-129525000D02*
X91800000Y-129000000D01*
X90500000Y-129525000D02*
X91275000Y-129525000D01*
D43*
%TO.N,/GC9A01/LIM_BL*%
X91475000Y-127550000D02*
X91450000Y-127525000D01*
X93000000Y-127550000D02*
X91475000Y-127550000D01*
%TO.N,/MCU/BL*%
X93000000Y-125100000D02*
X93000000Y-125900000D01*
X97400000Y-122294563D02*
X96905437Y-122294563D01*
X96905437Y-122294563D02*
X96800000Y-122400000D01*
%TO.N,/MCU/DC*%
X97800000Y-122900000D02*
X97800000Y-122294563D01*
X97600000Y-123100000D02*
X97800000Y-122900000D01*
%TO.N,/MCU/D+*%
X107650000Y-125050000D02*
X107650000Y-125662500D01*
X105500000Y-122900000D02*
X107650000Y-125050000D01*
X102000000Y-122900000D02*
X105500000Y-122900000D01*
X101800000Y-122700000D02*
X102000000Y-122900000D01*
X101800000Y-122294563D02*
X101800000Y-122700000D01*
%TO.N,/USB/CC2*%
X95325000Y-134375000D02*
X94800000Y-134375000D01*
X96100000Y-133600000D02*
X95325000Y-134375000D01*
X102550000Y-131250000D02*
X102000000Y-131800000D01*
X102550000Y-130035000D02*
X102550000Y-131250000D01*
%TO.N,/USB/CC1*%
X99500000Y-130084998D02*
X99549999Y-130034999D01*
X99500000Y-131600000D02*
X99500000Y-130084998D01*
X98175000Y-132925000D02*
X99500000Y-131600000D01*
X94800000Y-132925000D02*
X98175000Y-132925000D01*
D42*
%TO.N,+3.3V*%
X109250000Y-119550000D02*
X109300000Y-119500000D01*
X107600000Y-119550000D02*
X109250000Y-119550000D01*
%TO.N,GND*%
X107600000Y-121450000D02*
X107600000Y-122500000D01*
D45*
%TO.N,/USB/5V_VBUS*%
X114600000Y-126500000D02*
X114600000Y-124550000D01*
X113900000Y-127200000D02*
X114600000Y-126500000D01*
X110950000Y-127200000D02*
X113900000Y-127200000D01*
%TO.N,GND*%
X109350000Y-130616687D02*
X109352521Y-130619208D01*
X109350000Y-129600000D02*
X109350000Y-130916687D01*
%TO.N,/USB/5V_VBUS*%
X111250000Y-127500000D02*
X110950000Y-127200000D01*
X111250000Y-129600000D02*
X111250000Y-127500000D01*
D43*
%TO.N,UNF_USB_D-*%
X101718198Y-132600000D02*
X102600000Y-132600000D01*
X101050000Y-131931802D02*
X101718198Y-132600000D01*
X101050000Y-131931802D02*
X101050000Y-130035001D01*
D44*
%TO.N,VBUS*%
X103200000Y-127800000D02*
X104200000Y-126800000D01*
X103200000Y-130035000D02*
X103200000Y-127800000D01*
X104200000Y-126800000D02*
X104900000Y-126800000D01*
X99200000Y-126800000D02*
X104900000Y-126800000D01*
X98399998Y-127600002D02*
X99200000Y-126800000D01*
X98399998Y-130035000D02*
X98399998Y-127600002D01*
D42*
%TO.N,+3.3V*%
X94800000Y-127750000D02*
X94800000Y-128700000D01*
X94850000Y-127750000D02*
X94900000Y-127800000D01*
X94800000Y-127750000D02*
X94850000Y-127750000D01*
%TO.N,GND*%
X94800000Y-125500000D02*
X94200000Y-124900000D01*
X94800000Y-125850000D02*
X94800000Y-125500000D01*
X110000000Y-124550000D02*
X110000000Y-123100000D01*
D43*
%TO.N,/MCU/CS*%
X100600000Y-124500000D02*
X100900000Y-124500000D01*
X100300000Y-124200000D02*
X100600000Y-124500000D01*
X98200000Y-123100000D02*
X99300000Y-124200000D01*
X99300000Y-124200000D02*
X100300000Y-124200000D01*
X98200000Y-122294563D02*
X98200000Y-123100000D01*
%TO.N,/MCU/RST*%
X100600000Y-122686827D02*
X102313173Y-124400000D01*
X100600000Y-122294563D02*
X100600000Y-122686827D01*
X102313173Y-124400000D02*
X103200000Y-124400000D01*
%TO.N,/MCU/CLK*%
X99300000Y-123700000D02*
X100800000Y-123700000D01*
X98600000Y-123000000D02*
X99200000Y-123600000D01*
X98600000Y-122294563D02*
X98600000Y-123000000D01*
X99200000Y-123600000D02*
X99300000Y-123700000D01*
%TO.N,/MCU/DIN*%
X100100000Y-123000000D02*
X100200000Y-123100000D01*
X99200000Y-123000000D02*
X100100000Y-123000000D01*
X99000000Y-122800000D02*
X99200000Y-123000000D01*
X99000000Y-122294563D02*
X99000000Y-122800000D01*
D44*
%TO.N,GND*%
X89550000Y-128500995D02*
X89538118Y-128512877D01*
X89550000Y-127525000D02*
X89550000Y-128500995D01*
X89550000Y-127525000D02*
X88600000Y-127525000D01*
X89550000Y-127525000D02*
X90500000Y-127525000D01*
D43*
%TO.N,+3.3V*%
X99400000Y-122294563D02*
X99400000Y-121600000D01*
D44*
%TO.N,LDA_IN*%
X94982281Y-116500000D02*
X95012281Y-116470000D01*
X93487500Y-116500000D02*
X94982281Y-116500000D01*
%TO.N,/MCU/ANTENNA*%
X91882500Y-116470000D02*
X91912500Y-116500000D01*
X90412281Y-116470000D02*
X91882500Y-116470000D01*
X90382281Y-116500000D02*
X90412281Y-116470000D01*
X88800000Y-116500000D02*
X90382281Y-116500000D01*
D42*
%TO.N,GND*%
X100000000Y-119069563D02*
X98479563Y-119069563D01*
X100000000Y-119069563D02*
X98940437Y-119069563D01*
X100000000Y-120300000D02*
X101200000Y-121500000D01*
X100000000Y-119069563D02*
X100000000Y-120300000D01*
X100000000Y-119069563D02*
X101059563Y-119069563D01*
X100000000Y-119069563D02*
X101520437Y-119069563D01*
X101200000Y-116700000D02*
X100000000Y-117900000D01*
X100000000Y-116700000D02*
X100000000Y-119069563D01*
X100000000Y-117900000D02*
X98800000Y-116700000D01*
X100000000Y-119069563D02*
X100000000Y-117900000D01*
X100059563Y-119069563D02*
X102490000Y-121500000D01*
X100000000Y-119069563D02*
X100059563Y-119069563D01*
X100000000Y-119100000D02*
X97600000Y-121500000D01*
X100000000Y-119069563D02*
X100000000Y-119100000D01*
X100120437Y-119069563D02*
X102490000Y-116700000D01*
X100000000Y-119069563D02*
X100120437Y-119069563D01*
X87312281Y-117975000D02*
X85725000Y-117975000D01*
D45*
X94300000Y-110950000D02*
X94300000Y-109900000D01*
D42*
X107515000Y-113565000D02*
X107000000Y-113050000D01*
X97775000Y-114500000D02*
X97500000Y-114500000D01*
X87312281Y-117975000D02*
X88975000Y-117975000D01*
X90850000Y-123700000D02*
X90850000Y-122250000D01*
X93350000Y-118750000D02*
X93400000Y-118700000D01*
X88875000Y-115025000D02*
X88900000Y-115000000D01*
X87312281Y-115025000D02*
X88875000Y-115025000D01*
X85725000Y-117975000D02*
X85700000Y-118000000D01*
X87500000Y-123725000D02*
X87500000Y-124600000D01*
X88975000Y-117975000D02*
X89000000Y-118000000D01*
X90850000Y-122250000D02*
X90800000Y-122200000D01*
X97500000Y-114500000D02*
X96900000Y-113900000D01*
X91280000Y-118020000D02*
X91300000Y-118000000D01*
X93350000Y-114700000D02*
X92400000Y-114700000D01*
X85725000Y-115025000D02*
X85700000Y-115000000D01*
X102525000Y-114500000D02*
X103400000Y-114500000D01*
X93350000Y-119900000D02*
X93350000Y-118750000D01*
X87312281Y-115025000D02*
X85725000Y-115025000D01*
X94120000Y-118020000D02*
X94100000Y-118000000D01*
X105162500Y-107900000D02*
X104700000Y-107900000D01*
X95012281Y-118020000D02*
X94120000Y-118020000D01*
X109525000Y-113565000D02*
X108100000Y-113565000D01*
X104700000Y-107900000D02*
X104000000Y-107200000D01*
X90412281Y-118020000D02*
X91280000Y-118020000D01*
X108100000Y-113565000D02*
X107515000Y-113565000D01*
D45*
%TO.N,+3.3V*%
X97400000Y-115844563D02*
X97675000Y-115844563D01*
X97400000Y-115844563D02*
X97144563Y-115844563D01*
D42*
X93675000Y-121700000D02*
X92700000Y-121700000D01*
D45*
X96000000Y-114700000D02*
X95250000Y-114700000D01*
D42*
X107115000Y-114835000D02*
X107000000Y-114950000D01*
D45*
X97394563Y-116994563D02*
X96775000Y-116994563D01*
D42*
X89100000Y-123725000D02*
X89100000Y-124600000D01*
D45*
X96925000Y-116994563D02*
X96775000Y-117144563D01*
X97400000Y-117000000D02*
X97394563Y-116994563D01*
D42*
X109525000Y-114835000D02*
X108100000Y-114835000D01*
D45*
X97675000Y-116725000D02*
X97400000Y-117000000D01*
D42*
X94300000Y-113750000D02*
X95250000Y-114700000D01*
D45*
X97394563Y-116994563D02*
X96925000Y-116994563D01*
X97675000Y-115844563D02*
X97675000Y-116725000D01*
X97144563Y-115844563D02*
X96600000Y-115300000D01*
X96600000Y-115300000D02*
X96000000Y-114700000D01*
D42*
X108100000Y-114835000D02*
X107115000Y-114835000D01*
X94300000Y-112850000D02*
X94300000Y-113750000D01*
D43*
%TO.N,/MCU/ANTENNA*%
X90612500Y-116457500D02*
X90600000Y-116470000D01*
%TO.N,LDA_IN*%
X95200000Y-116470000D02*
X95187500Y-116457500D01*
%TO.N,/MCU/ANTENNA*%
X90600000Y-116470000D02*
X90570000Y-116500000D01*
%TO.N,LDA_IN*%
X95200437Y-116469563D02*
X95200000Y-116470000D01*
%TO.N,CANH*%
X108750000Y-109550000D02*
X109300000Y-109000000D01*
X111900000Y-109000000D02*
X112900000Y-110000000D01*
X113165000Y-113565000D02*
X114475000Y-113565000D01*
X108750000Y-110075000D02*
X108750000Y-109550000D01*
X109300000Y-109000000D02*
X111900000Y-109000000D01*
X112900000Y-110000000D02*
X112900000Y-113300000D01*
X113765000Y-113365000D02*
X114475000Y-113365000D01*
X112900000Y-113300000D02*
X113165000Y-113565000D01*
%TO.N,CANL*%
X111250000Y-110075000D02*
X112175000Y-110075000D01*
X112500000Y-114100000D02*
X113235000Y-114835000D01*
X112175000Y-110075000D02*
X112500000Y-110400000D01*
X112500000Y-110400000D02*
X112500000Y-114100000D01*
X113235000Y-114835000D02*
X114475000Y-114835000D01*
%TO.N,Net-(RST201-A)*%
X87250000Y-120100000D02*
X87500000Y-120350000D01*
X87500000Y-120350000D02*
X87500000Y-122075000D01*
%TO.N,/MCU/CHIP_PU*%
X96775000Y-117669563D02*
X95930437Y-117669563D01*
X92500000Y-120900000D02*
X91700000Y-120100000D01*
X95250000Y-119900000D02*
X94250000Y-120900000D01*
X94250000Y-120900000D02*
X92500000Y-120900000D01*
X89700000Y-120100000D02*
X91700000Y-120100000D01*
X95930437Y-117669563D02*
X95800000Y-117800000D01*
X89100000Y-120700000D02*
X89700000Y-120100000D01*
X89100000Y-122075000D02*
X89100000Y-120700000D01*
X95800000Y-119350000D02*
X95250000Y-119900000D01*
X95800000Y-117800000D02*
X95800000Y-119350000D01*
%TO.N,/CAN/TRANS_CANTX*%
X105405000Y-112095000D02*
X109525000Y-112095000D01*
X104900000Y-113175000D02*
X104900000Y-112600000D01*
X109520000Y-112100000D02*
X109525000Y-112095000D01*
X104900000Y-112600000D02*
X105405000Y-112095000D01*
%TO.N,/MCU/CANTX*%
X103225000Y-116469563D02*
X103255437Y-116469563D01*
X103255437Y-116469563D02*
X104900000Y-114825000D01*
%TO.N,/MCU/VDD_SPI*%
X99500000Y-115300000D02*
X100075000Y-115300000D01*
X100075000Y-115300000D02*
X100875000Y-114500000D01*
X99400000Y-115844563D02*
X99400000Y-115400000D01*
X99400000Y-115400000D02*
X99500000Y-115300000D01*
%TO.N,/MCU/ROM_PRINT*%
X99000000Y-114925000D02*
X99425000Y-114500000D01*
X99000000Y-115844563D02*
X99000000Y-114925000D01*
%TO.N,/MCU/CANRX*%
X104905437Y-116869563D02*
X105075000Y-116700000D01*
X103225000Y-116869563D02*
X104905437Y-116869563D01*
%TO.N,/CAN/TRANS_CANRX*%
X109430000Y-116000000D02*
X109525000Y-115905000D01*
X107200000Y-116700000D02*
X107900000Y-116000000D01*
X107900000Y-116000000D02*
X109430000Y-116000000D01*
X106725000Y-116700000D02*
X107200000Y-116700000D01*
X106725000Y-116700000D02*
X107000000Y-116700000D01*
D46*
%TO.N,/CAN/UNF_CANN*%
X107475000Y-108850000D02*
X108200000Y-108125000D01*
X108200000Y-108125000D02*
X108650000Y-108125000D01*
X108650000Y-108125000D02*
X111250000Y-105525000D01*
X100350000Y-108050000D02*
X100300000Y-108100000D01*
D43*
X100300000Y-108100000D02*
X103500000Y-108100000D01*
X103500000Y-108100000D02*
X104300000Y-108900000D01*
D46*
X106987500Y-108900000D02*
X107037500Y-108850000D01*
X107037500Y-108850000D02*
X107475000Y-108850000D01*
D43*
X104300000Y-108900000D02*
X106987500Y-108900000D01*
D46*
%TO.N,/CAN/UNF_CANP*%
X100350000Y-106150000D02*
X100300000Y-106100000D01*
X106987500Y-106900000D02*
X107037500Y-106950000D01*
X108463603Y-107675000D02*
X108750000Y-107388603D01*
X107475000Y-106950000D02*
X108200000Y-107675000D01*
D43*
X105000000Y-106900000D02*
X106987500Y-106900000D01*
D46*
X107037500Y-106950000D02*
X107475000Y-106950000D01*
X108750000Y-107388603D02*
X108750000Y-105525000D01*
X108200000Y-107675000D02*
X108463603Y-107675000D01*
D43*
%TO.N,/MCU/BOOT*%
X95600000Y-121700000D02*
X95325000Y-121700000D01*
X96775000Y-118069563D02*
X96330437Y-118069563D01*
X96330437Y-118069563D02*
X96200000Y-118200000D01*
X96200000Y-121100000D02*
X95600000Y-121700000D01*
X95325000Y-123675000D02*
X95300000Y-123700000D01*
X95325000Y-121700000D02*
X95325000Y-123675000D01*
X96200000Y-118200000D02*
X96200000Y-121100000D01*
%TO.N,UNF_USB_D-*%
X100050000Y-132450000D02*
X100050000Y-130034999D01*
X100350000Y-132750000D02*
X100050000Y-132450000D01*
%TO.N,LDA_IN*%
X96244256Y-116470000D02*
X96774563Y-116470000D01*
X96774563Y-116470000D02*
X96775000Y-116469563D01*
D44*
X95012281Y-116470000D02*
X96244256Y-116470000D01*
%TD*%
M02*
